<?xml version="1.0" standalone="no"?>
<!DOCTYPE svg PUBLIC "-//W3C//DTD SVG 20010904//EN"
 "http://www.w3.org/TR/2001/REC-SVG-20010904/DTD/svg10.dtd">
<svg version="1.0" xmlns="http://www.w3.org/2000/svg"
 width="480.000000pt" height="480.000000pt" viewBox="0 0 480.000000 480.000000"
 preserveAspectRatio="xMidYMid meet">
<metadata>
Created by potrace 1.11, written by Peter Selinger 2001-2013
</metadata>
<g transform="translate(0.000000,480.000000) scale(0.100000,-0.100000)"
fill="#000000" stroke="none">
<path d="M0 2400 l0 -2400 2400 0 2400 0 0 2400 0 2400 -2400 0 -2400 0 0
-2400z m2400 1110 c31 -17 70 -92 70 -136 0 -40 -38 -113 -73 -142 -13 -11
-19 -7 -42 31 -44 76 -46 196 -4 238 22 22 24 22 49 9z m-468 -145 c52 -35 80
-97 76 -168 l-3 -52 -43 2 c-97 4 -142 62 -142 182 l0 74 36 -6 c20 -4 55 -18
76 -32z m232 10 c98 -47 187 -168 202 -277 4 -25 1 -69 -5 -97 -16 -74 -71
-203 -85 -198 -23 7 -109 125 -147 202 -50 102 -74 219 -64 322 8 85 14 88 99
48z m816 -35 c0 -68 -20 -118 -66 -164 -38 -38 -80 -58 -112 -54 -60 7 -51
126 16 200 38 43 101 77 140 78 20 0 22 -4 22 -60z m-301 14 c22 -16 23 -20
20 -135 l-4 -118 -68 -133 c-37 -73 -76 -144 -86 -157 l-19 -25 -31 50 c-107
168 -67 402 88 504 51 34 67 36 100 14z m625 -70 c24 -23 20 -58 -15 -126 -39
-77 -104 -147 -187 -199 -92 -58 -118 -64 -139 -33 -24 38 -11 142 27 221 50
102 128 151 242 152 39 1 61 -4 72 -15z m-1634 -20 c134 -62 203 -187 167
-304 -12 -40 -16 -45 -41 -43 -15 1 -56 15 -90 31 -138 65 -237 224 -192 310
15 28 21 32 59 32 24 0 66 -11 97 -26z m-287 -194 c108 -51 185 -160 194 -275
5 -61 5 -62 -25 -74 -44 -18 -83 -6 -153 46 -99 75 -199 207 -199 264 0 13 10
34 23 47 19 21 28 23 68 19 26 -3 67 -15 92 -27z m2234 -28 c-15 -125 -90
-238 -191 -286 -52 -25 -175 -60 -182 -53 -3 2 -9 29 -13 58 -15 93 11 180 71
236 51 48 175 89 282 92 l39 1 -6 -48z m-1601 9 c134 -99 190 -228 182 -419
-3 -73 -6 -86 -26 -102 -31 -26 -67 -12 -137 52 -62 57 -117 156 -135 245 -14
66 -9 198 9 231 17 31 59 29 107 -7z m863 0 c27 -27 36 -100 22 -194 -21 -149
-96 -264 -205 -316 -35 -17 -66 -31 -69 -31 -3 0 -15 30 -27 66 -21 61 -21 73
-11 151 14 113 50 189 117 253 46 43 120 89 147 90 4 0 16 -9 26 -19z m1046
-138 c28 -14 58 -32 67 -40 17 -15 17 -17 0 -45 -27 -46 -108 -117 -160 -141
-69 -31 -160 -29 -234 5 -32 15 -58 33 -58 40 0 18 45 85 89 131 83 88 184
105 296 50z m-2839 12 c27 -8 67 -29 88 -47 42 -35 119 -145 110 -159 -3 -5
-30 -16 -61 -25 -48 -14 -67 -15 -123 -5 -36 7 -92 25 -125 42 -64 32 -144 89
-145 102 0 21 78 72 145 93 52 17 53 16 111 -1z m2079 -46 c11 -34 8 -135 -5
-191 -29 -121 -119 -267 -198 -322 -23 -16 -44 -27 -47 -24 -18 17 -37 142
-33 218 7 142 77 253 200 314 63 31 75 32 83 5z m-1419 -27 c69 -45 113 -97
152 -179 23 -50 27 -71 27 -151 0 -90 -1 -95 -28 -118 -35 -30 -44 -30 -92 2
-91 59 -154 186 -163 325 -5 90 9 159 32 159 7 0 40 -17 72 -38z m772 -182
c51 -115 40 -282 -29 -431 -48 -105 -51 -165 -15 -265 13 -36 29 -71 34 -76
13 -13 195 134 336 269 119 114 198 158 316 172 69 9 200 4 200 -7 0 -2 -15
-32 -32 -65 -41 -77 -112 -147 -180 -181 -57 -28 -231 -66 -299 -66 -87 0
-144 -50 -209 -185 -82 -169 -69 -324 41 -489 21 -32 39 -60 39 -62 0 -2 -142
-4 -315 -4 -173 0 -315 2 -315 4 0 2 23 49 50 103 65 127 86 221 70 312 -15
85 -50 158 -107 221 -59 65 -116 94 -228 114 -129 24 -218 70 -316 165 -43 42
-79 81 -79 86 0 13 178 45 248 45 29 0 68 -6 86 -14 19 -8 103 -83 188 -168
107 -107 174 -165 223 -194 39 -23 73 -40 77 -37 4 2 17 36 29 75 31 99 23
175 -25 261 -101 182 -83 385 47 533 l41 47 50 -54 c27 -30 60 -79 74 -109z
m-1559 -9 c47 -24 137 -111 146 -142 8 -24 -34 -62 -92 -85 -56 -22 -134 -15
-197 17 -46 22 -216 171 -216 189 0 4 30 15 68 24 37 8 76 17 87 20 48 12 161
-1 204 -23z m3170 14 c30 -8 58 -18 64 -24 16 -16 -33 -99 -89 -150 -92 -84
-222 -103 -354 -52 -83 32 -85 33 -67 68 21 40 89 108 129 129 86 45 214 57
317 29z m-555 -36 c29 -10 61 -25 71 -33 19 -13 18 -15 -9 -54 -35 -52 -115
-106 -186 -127 -33 -10 -109 -19 -192 -22 l-137 -6 11 39 c22 81 80 158 147
193 79 43 198 47 295 10z m-2060 -29 c69 -33 132 -95 149 -144 l15 -45 -45
-17 c-44 -17 -47 -17 -121 5 -270 79 -435 177 -329 196 168 30 277 32 331 5z
m1311 -121 c26 -21 27 -25 23 -103 -4 -102 -36 -174 -109 -251 -47 -50 -152
-115 -185 -115 -21 0 -28 66 -15 142 22 131 108 275 196 329 39 24 56 24 90
-2z m-2244 -5 c85 -25 237 -122 224 -144 -2 -4 -26 -18 -52 -31 -42 -21 -62
-24 -168 -23 -127 0 -205 18 -283 66 l-34 21 39 39 c79 82 163 104 274 72z
m1525 -20 c121 -68 189 -239 154 -383 -11 -46 -15 -51 -34 -45 -79 23 -172
111 -214 202 -22 47 -27 71 -27 137 0 98 14 128 53 119 15 -4 46 -17 68 -30z
m2319 -1 c22 -12 55 -36 72 -55 l33 -34 -38 -36 c-83 -81 -220 -115 -342 -84
-62 16 -170 72 -170 88 0 10 95 85 134 105 93 48 235 55 311 16z m-615 -84
c30 -16 75 -47 100 -69 l45 -40 -25 -21 c-81 -69 -231 -114 -353 -106 -82 5
-207 43 -207 62 0 21 58 103 91 128 121 90 237 106 349 46z m-2545 -3 c28 -13
65 -39 84 -57 44 -44 86 -107 77 -117 -14 -13 -315 -15 -380 -2 -76 15 -156
48 -156 65 0 20 49 74 84 92 88 46 216 55 291 19z m-528 -176 c83 -18 84 -23
28 -80 -106 -109 -212 -174 -302 -186 -59 -7 -152 11 -160 32 -7 20 40 95 86
137 51 46 105 74 179 91 71 18 108 19 169 6z m3554 -19 c125 -39 239 -136 239
-203 0 -37 -20 -49 -104 -61 -97 -14 -179 7 -257 65 -30 23 -94 71 -144 106
-49 36 -92 67 -94 69 -10 8 17 23 69 38 71 20 202 13 291 -14z m-3234 -76 c60
-25 65 -32 47 -67 -25 -47 -135 -149 -189 -175 -53 -24 -138 -29 -268 -14
l-58 6 41 60 c77 110 139 161 233 190 57 19 150 18 194 0z m488 -20 c28 -13
60 -32 73 -42 l22 -18 -156 -113 -157 -112 -77 0 c-96 0 -135 13 -150 50 -16
38 3 72 80 144 129 119 243 147 365 91z m1982 5 c53 -23 120 -91 154 -155 48
-91 48 -92 -18 -111 -32 -10 -89 -18 -128 -18 -113 0 -190 44 -287 162 -57 71
-58 69 29 113 81 39 170 43 250 9z m417 -4 c54 -26 206 -159 227 -198 18 -34
1 -57 -53 -73 -118 -35 -232 -8 -314 73 -55 54 -164 177 -164 184 0 4 47 27
90 42 8 3 47 4 87 2 53 -2 86 -10 127 -30z"/>
</g>
</svg>
