<?xml version="1.0" encoding="utf-8"?>
<!-- Generator: Adobe Illustrator 22.0.1, SVG Export Plug-In . SVG Version: 6.00 Build 0)  -->
<svg version="1.1" id="Layer_1" xmlns="http://www.w3.org/2000/svg" xmlns:xlink="http://www.w3.org/1999/xlink" x="0px" y="0px"
	 viewBox="0 0 200 48" style="enable-background:new 0 0 200 48;" xml:space="preserve">
<style type="text/css">
	.st0{fill:#6B7179;}
	.st1{font-family:'Roboto-Bold';}
	.st2{font-size:28.4071px;}
</style>
<g>
	<g>
		<path class="st0" d="M39.8,8.1c3.7,0,6.7,3,6.7,6.7v10.9c0,3.7-3,6.7-6.7,6.7h-9.7c-0.8,0-1.5,0.3-2.1,0.8l-4.5,3.9v-1.5
			c0-1.8-1.4-3.2-3.2-3.2c-3.7,0-6.7-3-6.7-6.7V13.4c0-2.9,2.4-5.3,5.3-5.3H39.8 M39.8,6.1H19c-4,0-7.3,3.3-7.3,7.3v12.3
			c0,4.8,3.9,8.7,8.7,8.7h0c0.7,0,1.2,0.5,1.2,1.2v3.3c0,0.7,0.6,1.2,1.2,1.2c0.3,0,0.5-0.1,0.8-0.3l5.8-5.1
			c0.2-0.2,0.5-0.3,0.8-0.3h9.7c4.8,0,8.7-3.9,8.7-8.7V14.8C48.6,10,44.7,6.1,39.8,6.1L39.8,6.1z"/>
	</g>
	<text transform="matrix(1 0 0 1 64.2969 34.3779)" class="st0 st1 st2">Comment</text>
</g>
</svg>
