<?xml version="1.0" encoding="utf-8"?>
<!-- Generator: Adobe Illustrator 22.0.1, SVG Export Plug-In . SVG Version: 6.00 Build 0)  -->
<svg version="1.1" xmlns="http://www.w3.org/2000/svg" xmlns:xlink="http://www.w3.org/1999/xlink" x="0px" y="0px"
	 viewBox="0 0 480 480" style="enable-background:new 0 0 480 480;" xml:space="preserve">
<style type="text/css">
	.st0{fill:#010101;}
	.st1{fill:#EE2524;}
	.st2{fill:#EE2924;}
	.st3{fill:#EE2F24;}
	.st4{fill:#EE3424;}
	.st5{fill:#EF3924;}
	.st6{fill:#EF3E23;}
	.st7{fill:#EF4123;}
	.st8{fill:#EF4823;}
	.st9{fill:#F04F23;}
	.st10{fill:#F05323;}
	.st11{fill:#F15B22;}
	.st12{fill:#F15F22;}
	.st13{fill:#F26422;}
	.st14{fill:#F27022;}
	.st15{fill:#F47621;}
	.st16{fill:#F27A21;}
	.st17{fill:#F18021;}
	.st18{fill:#F18921;}
	.st19{fill:#F39220;}
	.st20{fill:#F29D1F;}
	.st21{fill:#F2A51E;}
	.st22{fill:#F2AF1D;}
	.st23{fill:#EFB81C;}
	.st24{fill:#EE3024;}
	.st25{fill:#EF3D23;}
	.st26{fill:#F15922;}
	.st27{fill:#F04A23;}
	.st28{fill:#F15722;}
	.st29{fill:#F26722;}
	.st30{fill:#F36D21;}
	.st31{fill:#F37121;}
	.st32{fill:#F28933;}
	.st33{fill:#F17721;}
	.st34{fill:#F28121;}
	.st35{fill:#F3993E;}
	.st36{fill:#F4A544;}
	.st37{fill:#F18621;}
	.st38{fill:#F38B20;}
	.st39{fill:#F39320;}
	.st40{fill:#F2971F;}
	.st41{fill:#F5B148;}
	.st42{fill:#F49F1E;}
	.st43{fill:#F2B64B;}
	.st44{fill:#F3A41E;}
	.st45{fill:#F3A91D;}
	.st46{fill:#F4C656;}
	.st47{fill:#F4D464;}
	.st48{fill:#F2B71B;}
	.st49{fill:#F2BE19;}
	.st50{fill:#F2C617;}
	.st51{fill:#F3CB14;}
	.st52{fill:#F2D212;}
	.st53{fill:#F0D910;}
	.st54{fill:#F1E273;}
	.st55{fill:#F4DB4F;}
	.st56{fill:#F1DF10;}
	.st57{fill:#E7D71F;}
	.st58{fill:#ED2224;}
	.st59{fill:#EE2724;}
	.st60{fill:#EE2D24;}
	.st61{fill:#EF4023;}
	.st62{fill:#EE3724;}
	.st63{fill:#EF3F23;}
	.st64{fill:#F37321;}
	.st65{fill:#F06122;}
	.st66{fill:#EF4723;}
	.st67{fill:#F28720;}
	.st68{fill:#F16A22;}
	.st69{fill:#F05023;}
	.st70{fill:#F04C23;}
	.st71{fill:#F05223;}
	.st72{fill:#F26922;}
	.st73{fill:#F15623;}
	.st74{fill:#F36E21;}
	.st75{fill:#F27521;}
	.st76{fill:#F15E22;}
	.st77{fill:#F15822;}
	.st78{fill:#F37E20;}
	.st79{fill:#F26322;}
	.st80{fill:#F38520;}
	.st81{fill:#F28E20;}
	.st82{fill:#F17222;}
	.st83{fill:#F39B1F;}
	.st84{fill:#ED8823;}
	.st85{fill:#F38221;}
	.st86{fill:#F1AB1E;}
	.st87{fill:#F19420;}
	.st88{fill:#F2A31F;}
	.st89{fill:#F3BA1A;}
	.st90{fill:#F5C913;}
	.st91{fill:#ED9B21;}
	.st92{fill:#F0B21D;}
	.st93{fill:#FFFFFF;}
	.st94{fill:#ED2024;}
	.st95{fill:#E94F24;}
	.st96{fill:#F26A21;}
	.st97{fill:#F28521;}
	.st98{fill:#F29820;}
	.st99{fill:#E92925;}
	.st100{fill:#EE3624;}
	.st101{fill:#ECE01C;}
	.st102{fill:#F04D23;}
	.st103{fill:#EF3B24;}
	.st104{fill:#F05523;}
	.st105{fill:#DDB027;}
</style>
<g id="Layer_2">
	<circle class="st0" cx="240" cy="240" r="220.3"/>
</g>
<g id="Layer_1">
	<g>
		<g>
			<path class="st1" d="M192.3,268.7c-0.2,0.1-0.3,0.1-0.5,0.2c-0.1-0.2-0.2-0.4-0.3-0.6C191.8,268.5,192.1,268.6,192.3,268.7z"/>
			<path class="st2" d="M189.8,254.2c-0.4,0.5-0.8,0.9-1.4,1.3c0-0.5,0-1.1,0-1.6v-0.2c0,0,0.1,0,0.1,0c0,0,0,0,0.1,0
				C188.9,253.8,189.3,254,189.8,254.2C189.7,254.2,189.7,254.2,189.8,254.2z"/>
			<path class="st2" d="M192.3,268.7c-0.2,0.1-0.3,0.1-0.5,0.2c-0.1-0.2-0.2-0.4-0.3-0.6C191.8,268.5,192.1,268.6,192.3,268.7z"/>
			<path class="st3" d="M189.8,254.2c-0.4,0.5-0.8,0.9-1.4,1.3c0-0.5,0-1.1,0-1.6v-0.2c0,0,0.1,0,0.1,0c0.2-0.4,0.4-0.9,0.6-1.3
				c-0.1,0.5-0.2,0.9-0.6,1.3C188.9,253.8,189.3,254,189.8,254.2C189.7,254.2,189.7,254.2,189.8,254.2z"/>
			<path class="st3" d="M190.6,250.6c-0.2,0-0.4,0-0.6,0c-0.1-0.3-0.2-0.5-0.3-0.8c0,0,0,0,0-0.1c0.1-0.1,0.2-0.2,0.2-0.3
				c0.2-0.2,0.3-0.4,0.5-0.6C190.6,249.4,190.6,250,190.6,250.6z"/>
			<path class="st4" d="M189,246.3c-0.2-0.2-0.4-0.4-0.7-0.6c0.4-1.3,0.8-2.5,1.2-3.8C189.2,243.4,189,244.9,189,246.3z"/>
			<path class="st5" d="M192.8,226.9c-0.4,0.4-0.8,0.8-1.2,1.2c-0.1-0.8-0.1-1.6,0.1-2.2C192,226.2,192.4,226.5,192.8,226.9z"/>
			<path class="st6" d="M178.7,219.8c-0.6-0.2-1.1-0.4-1.7-0.6c0.1-0.8,0-1.6,0.1-2.4C177.8,217.9,178.4,218.9,178.7,219.8z"/>
			<path class="st6" d="M192.8,226.9c-0.4,0.4-0.8,0.8-1.2,1.2c-0.1-0.8-0.1-1.6,0.1-2.2C192,226.2,192.4,226.5,192.8,226.9z"/>
			<path class="st6" d="M194.8,220c-0.1-0.2-0.3-0.3-0.4-0.4c0,0,0,0,0,0C194.5,219.7,194.7,219.8,194.8,220z"/>
			<path class="st7" d="M178.7,219.8c-0.6-0.2-1.1-0.4-1.7-0.6c0.1-0.8,0-1.6,0.1-2.4C177.8,217.9,178.4,218.9,178.7,219.8z"/>
			<path class="st7" d="M196.6,219c-0.6,0.3-1.2,0.6-1.8,1c-0.1-0.2-0.3-0.3-0.4-0.4c0,0,0,0,0,0c0.4-0.4,0.8-0.6,1.3-0.7
				C196,218.9,196.3,219,196.6,219z"/>
			<path class="st8" d="M178.7,219.8c-0.6-0.2-1.1-0.4-1.7-0.6c0.1-0.8,0-1.6,0.1-2.4C177.8,217.9,178.4,218.9,178.7,219.8z"/>
			<path class="st8" d="M199,203.5c-1.6-0.1-3.1-0.3-4.6-0.6C195.9,203.1,197.5,203.3,199,203.5z"/>
			<path class="st8" d="M203.7,205.1c-0.3,0.2-0.6,0.3-1,0.4c0.2-0.3,0.3-0.6,0.5-0.9c0,0,0.1,0,0.1,0
				C203.5,204.8,203.6,204.9,203.7,205.1z"/>
			<path class="st9" d="M199,203.5c-1.6-0.1-3.1-0.3-4.6-0.6C195.9,203.1,197.5,203.3,199,203.5z"/>
			<path class="st9" d="M204.8,203.7c-0.1,0.6-0.5,1-1.1,1.4c-0.3,0.2-0.6,0.3-1,0.4c0.2-0.3,0.3-0.6,0.5-0.9
				c0.2-0.3,0.3-0.6,0.5-0.9c0.3-0.5,0.5-1,0.8-1.5C204.8,202.8,204.8,203.3,204.8,203.7z"/>
			<path class="st10" d="M199,203.5c-1.6-0.1-3.1-0.3-4.6-0.6C195.9,203.1,197.5,203.3,199,203.5z"/>
			<path class="st10" d="M210,197.7c-0.7,1.7-1.8,3.3-2.6,5c-0.6,0.5-1.3,0.9-2.1,1c-0.1,0-0.3,0-0.4,0c-0.4,0-0.7,0-1.1,0
				c0.3-0.5,0.5-1,0.8-1.5c0,0,0,0,0,0c0.5,0,1,0,1.5,0.1c1.2-1.6,2.3-3.2,3.5-4.8c0,0,0,0,0,0c0,0,0,0,0,0
				C209.6,197.6,209.8,197.6,210,197.7z"/>
			<path class="st10" d="M210.4,193.2c-0.1,0-0.3,0-0.4,0.1c0.1-0.2,0.2-0.3,0.2-0.5C210.3,192.9,210.3,193.1,210.4,193.2z"/>
			<path class="st11" d="M169.3,176.5c-0.2-0.1-0.3-0.3-0.4-0.4c0.1-0.1,0.2-0.2,0.3-0.3C169.2,176,169.2,176.2,169.3,176.5z"/>
			<path class="st11" d="M190,174.9c-0.5,0-1.1,0-1.6,0c-0.4-0.3-0.8-0.5-1.2-0.6c0.2-0.1,0.3-0.2,0.5-0.4c0.1-0.1,0.3-0.1,0.4-0.2
				c0.1,0,0.2-0.1,0.3-0.1c0.5-0.1,1-0.2,1.5-0.2c0,0,0.1,0,0.1,0C189.9,173.8,189.9,174.3,190,174.9z"/>
			<path class="st11" d="M210.4,193.2c-0.1,0-0.3,0-0.4,0.1c0.1-0.2,0.2-0.3,0.2-0.5C210.3,192.9,210.3,193.1,210.4,193.2z"/>
			<path class="st11" d="M214.6,188.8c-0.2,0.2-0.3,0.4-0.5,0.5c-0.3,0-0.5,0.1-0.8,0.1c-0.3,0.1-0.6,0.1-0.9,0.2
				c0.3-0.4,0.5-0.7,0.9-0.7c0.1-1.1,0.6-2,1.2-2.8c0,0,0-0.1,0.1-0.1c0,0.1,0,0.1,0.1,0.2C214.8,187.1,214.8,188,214.6,188.8z"/>
			<path class="st10" d="M169.3,176.5c-0.2-0.1-0.3-0.3-0.4-0.4c-0.4-0.5-0.5-1-0.5-1.5c0.2-0.6,0.3-1.2,0.5-1.8c0.1,1,0.2,2,0.3,3
				C169.2,176,169.2,176.2,169.3,176.5z"/>
			<path class="st12" d="M190,174.9c-0.6-0.4-1.2-0.8-1.5-1.3c0.5-0.1,1-0.2,1.5-0.2c0,0,0.1,0,0.1,0
				C189.9,173.8,189.9,174.3,190,174.9z"/>
			<path class="st12" d="M217.6,178.8c-0.1,0.3-0.2,0.5-0.3,0.8c-0.2,0.4-0.3,0.8-0.4,1.2c-0.1-0.1-0.2-0.2-0.2-0.3
				c-0.4,0.5-0.8,1.1-1.2,1.6c0.3-0.6,0.7-1.2,1-1.8c0.1-0.1,0.1-0.2,0.2-0.3C217,179.6,217.3,179.2,217.6,178.8z"/>
			<path class="st12" d="M169.3,176.5c-0.2-0.1-0.3-0.3-0.4-0.4c-0.4-0.5-0.5-1-0.5-1.5c0-0.6,0.2-1.2,0.5-1.8c0.1,1,0.2,2,0.3,3
				C169.2,176,169.2,176.2,169.3,176.5z"/>
			<path class="st12" d="M188.4,174.9c-0.4-0.3-0.8-0.5-1.2-0.6c0.2-0.1,0.3-0.2,0.5-0.4c0.1-0.1,0.3-0.1,0.4-0.2
				C188.2,174.1,188.3,174.5,188.4,174.9z"/>
			<path class="st13" d="M178.9,169.9c-1.1,0.1-2.3,0.1-3.4,0C176.7,169.8,177.8,169.9,178.9,169.9z"/>
			<path class="st13" d="M190,174.9c-0.5,0-1.1,0-1.6,0c-0.4-0.3-0.8-0.5-1.2-0.6c0.2-0.1,0.3-0.2,0.5-0.4c0.1-0.1,0.3-0.1,0.4-0.2
				c0.1,0,0.2-0.1,0.3-0.1c0.5-0.1,1-0.2,1.5-0.2c0,0,0.1,0,0.1,0C189.9,173.8,189.9,174.3,190,174.9z"/>
			<path class="st13" d="M203.2,171.9c-1.5,0.3-2.9,0.1-4.4-1.2C200.3,171.1,201.7,171.5,203.2,171.9z"/>
			<path class="st14" d="M228.9,162.5c-0.2,0.3-0.3,0.7-0.5,1c-0.5-0.6-1.1-1.2-1.6-1.8v0C227.6,161.7,228.4,162,228.9,162.5z"/>
			<path class="st15" d="M230,155.3c-0.2,0.4-0.3,0.8-0.3,1.2c-0.1-0.1-0.2-0.3-0.3-0.5C229.6,155.8,229.8,155.5,230,155.3z"/>
			<path class="st15" d="M230.2,152.3c0,0.2,0,0.5-0.1,0.7c-0.2,0-0.4,0-0.6,0C229.8,152.8,230,152.5,230.2,152.3z"/>
			<path class="st16" d="M230.2,152.3c0,0.2,0,0.5-0.1,0.7c-0.2,0-0.4,0-0.6,0C229.8,152.8,230,152.5,230.2,152.3z"/>
			<path class="st17" d="M237.3,139.1c-0.6,0.3-1.3,0.4-2.2,0.4c0.5-1,0.9-2.1,1.4-3.1c0.5,0.7,0.7,1.6,0.8,2.6
				C237.3,139,237.3,139,237.3,139.1z"/>
			<path class="st18" d="M237.3,139.1c-0.6,0.3-1.3,0.4-2.2,0.4c0.5-1,0.9-2.1,1.4-3.1c0.5,0.7,0.7,1.6,0.8,2.6
				C237.3,139,237.3,139,237.3,139.1z"/>
			<path class="st18" d="M239.1,125.4c-0.3,0.2-0.5,0.5-0.8,0.7c0-0.4,0-0.7,0-1.1C238.6,125.1,238.8,125.3,239.1,125.4z"/>
			<path class="st18" d="M240.4,133.1C240.4,133.1,240.4,133.1,240.4,133.1c0,0.1-0.1,0.1-0.1,0.2c-0.1,0.2-0.2,0.4-0.3,0.6
				c0,0.1,0,0.1-0.1,0.2c-0.1,0.2-0.1,0.3-0.2,0.5c0,0.1,0,0.1-0.1,0.2c0-0.1,0-0.1,0-0.2c0.1-0.2,0.1-0.4,0.2-0.6
				c-0.1-0.1-0.2-0.2-0.3-0.3c0.1,0.1,0.2,0.1,0.3,0.2c0.1-0.3,0.2-0.5,0.2-0.8C240.3,133.1,240.4,133.1,240.4,133.1z"/>
			<path class="st19" d="M239.6,124.9c-0.2,0.2-0.4,0.4-0.6,0.5c-0.3,0.2-0.5,0.5-0.8,0.7c0-0.4,0-0.7,0-1.1c-0.1,0-0.2-0.1-0.2-0.1
				l0.2,0.1C238.8,125,239.3,125,239.6,124.9z"/>
			<path class="st20" d="M238.5,101.9c-0.2,0.2-0.3,0.3-0.5,0.5c0-0.3-0.1-0.6-0.1-0.9C238.1,101.6,238.3,101.8,238.5,101.9z"/>
			<path class="st20" d="M241.7,106.2c-0.2-0.1-0.5-0.2-0.7-0.3c-0.4-1.1-0.8-2.1-1.3-3.2c0.3,0.2,0.6,0.4,0.9,0.6
				C241.1,104.3,241.5,105.2,241.7,106.2z"/>
			<path class="st20" d="M242.5,113.8c-1.4-2.4-2-4.8-0.7-7.6C242.4,108.7,242.6,111.3,242.5,113.8z"/>
			<path class="st21" d="M236.7,94.3c0.2,1,0.3,2.1,0.5,3.1c-0.3-0.8-0.7-1.6-0.9-2.4c-0.1-0.3-0.1-0.5-0.1-0.8
				c0-0.3-0.1-0.6-0.1-0.8c0.3,0.3,0.6,0.5,1,0.8c0.1,0.1,0.3,0.2,0.4,0.4C237.2,94.6,237,94.5,236.7,94.3z"/>
			<path class="st21" d="M238.5,101.9c-0.2,0.2-0.3,0.3-0.5,0.5c0-0.3-0.1-0.6-0.1-0.9C238.1,101.6,238.3,101.8,238.5,101.9z"/>
			<path class="st22" d="M233.4,84.7c0.1,0.4,0.2,0.8,0.3,1.2c-0.2-0.3-0.5-0.6-0.7-0.9c-0.1-0.2-0.2-0.3-0.3-0.5
				c-0.2,0-0.3-0.1-0.5-0.1c-0.1-0.3-0.2-0.7-0.3-1c-0.2-0.6-0.3-1.1-0.5-1.7c0.3,0.3,0.7,0.5,1,0.8c0.1,0.1,0.2,0.2,0.3,0.3
				c0.2,0.1,0.3,0.3,0.5,0.4c0.3,0.3,0.5,0.5,0.7,0.8c0,0,0,0,0,0C233.8,84.3,233.6,84.5,233.4,84.7z"/>
			<path class="st22" d="M238.3,94c-0.2,0.5-0.5,0.7-0.9,0.7c-0.2,0-0.4-0.1-0.7-0.3c-0.2,0-0.4,0-0.6,0c0-0.3-0.1-0.6-0.1-0.8
				c0-0.2,0-0.5,0-0.7c0-0.6,0-1.2,0.1-1.8c0.1-0.6,0.2-1.1,0.3-1.7c0,0,0.1-0.1,0.1-0.1c-0.5-0.3-0.6-0.7-0.5-1.2
				c0-0.1,0-0.1,0-0.2c0,0.1,0.1,0.2,0.1,0.3c0.1,0.3,0.3,0.7,0.4,1c0,0.1,0,0.1,0.1,0.2c0.5,1.1,1,2.3,1.6,3.3
				C238.2,93.1,238.3,93.5,238.3,94z"/>
			<path class="st23" d="M220.5,65.4c-0.5,0-1.1-0.1-1.6-0.1c0.4-0.5,1-0.7,1.6-0.6C220.5,64.9,220.5,65.1,220.5,65.4z"/>
			<path class="st0" d="M326.7,200.7c0-2.7-0.1-5.4-0.1-8.1c-2.6-3.5,0.2-7.6-1.4-11.2c0.2-2.4,0.2-4.8-1.3-6.9
				c-0.2-4.5-1.1-8.8-3.4-12.7c-0.1-3-1.2-5.6-2.8-8c-0.9-0.4-1.7-1.1-2.7-1.4c-0.1,0-0.3-0.1-0.4-0.1c-0.3,0-0.6,0-0.9,0.1
				c0.2-1.1,1.3-1.9,1.8-2.8c-0.6-1.2-1.1-2.4-1.7-3.6c0.1-2.7-1.4-4.6-3.1-6.4c-0.8-2.8-2.4-5.1-4.5-7.1
				c-2.6-4.6-5.2-9.3-10.1-12.1c-2.7-2.7-5.4-5.5-8.1-8.2c-1.1-2.3-2.5-3.4-2.7,0.2c-0.4,5.8-0.1,11.6-0.1,17.5
				c0,0.6-0.1,1.1-0.1,1.7c-0.7,3.2-1.3,6.4-2,9.6c-1.4,1.3-1.4,3-1.5,4.7c-1.5,2.7-3.1,5.4-4.6,8.1c0.8,0.9,1.1,2,0.8,3.2
				c-0.2,0.2-0.4,0.3-0.6,0.5c1,0.5,1.9,1,2.9,1.4c0.3,0.9,0.4,1.6,0.4,2.2c-0.3-0.1-0.7-0.1-1-0.2c-1.4-0.7-2.3-1.7-2.5-3.2
				c0-0.1,0-0.3,0-0.4c0-1.2,0.1-2.3,0.1-3.5c-0.1-1.5-0.1-3-0.2-4.5c0.9-4.3,1.9-8.7,0.5-13.1c0.5,1.9,0.4,3.6-1.8,4.7
				c-1-0.2-2-0.4-3-0.7c-1.9-0.5-3.7-1.1-5.6-1.5c-1.2,0.1-2.3,0.3-3.5,0.5c-2.1,0.3-4.2,0.8-6.2,0.9c-0.4,0.3-0.8,0.5-1.1,0.9
				c-0.5-0.4-1-0.7-1.5-0.9c0.9,0.1,1.7,0.1,2.6,0.1c3.2-2.2,6.5-2.1,9.7-1.4c2.2-0.2,4.5-0.2,6.7,0.9c2-0.6,3-2.1,3.4-4v0
				c-0.1-1.9-0.3-3.8-0.4-5.7c-0.2,0-0.4-0.1-0.6-0.2c-2.4-1.1-2.1-5.7-5.7-5c0,0,0,0,0,0c2.4-1.2,3.7-3,3.5-6.5
				c0-1.7-0.1-3.4-1.6-4.5c-2.2,1-4.4,0.4-6.6,0.1l0,0c-1.2-0.4-2.5-0.7-2.4-2.4c0-0.1,0.2-0.4,0.4-0.5c0.1,0,0.1,0,0.1,0
				c0.3,0.1,0.6,0.2,0.8,0.3c0.7,0.1,1.3,0.2,2,0.3c2,0.5,3.8,1.7,5.7,2.3c-3.2-3.8-2.5-9.5-6.6-12.8c-1.2,0.2-2.3,0.6-3.4,0.9
				c-2.1,1.6-4.7,2-7.2,1.2c-0.6-0.2-1.1-0.3-1.6-0.4c0.7,0,1.5,0.1,2.2,0.1c2.3,0.2,4.5-0.3,6.6-0.9c0.9-0.7,1.7-1.5,2.3-2.6
				c-2.6-4.8-5.8-9-10.2-12.3c1.3,1.8,0.4,2.8-1.2,3.6c-0.4-0.1-0.7-0.2-1.1-0.3c0.2-0.2,0.4-0.3,0.6-0.5l1.6-2.7
				c-7.9-9.4-17.9-15.9-28.6-21.7c-1-0.6-2-1.1-3-1.7c-1.2-1.5-3.2-2.8-4.5-2.1c-1.8,0.9-0.1,2.6,0.6,3.9c0.4-0.5,1-0.7,1.6-0.6
				c0,0.2,0,0.5,0,0.8c-0.5,0-1.1-0.1-1.6-0.1c-0.1,5.9-0.1,11.8-0.2,17.7c-1.2,2.6-3.1,5-3,8.1c-1.1,2.1-2.2,4.2-3.3,6.3
				c-1.8,2.7-3.5,5.4-5.3,8c-2,1.7-3.6,3.7-4.5,6.2c-2.7,2.3-4.8,5-6.3,8.2c-2.2,1.7-3.9,3.8-4.9,6.4c-3.5,3.2-6.2,6.9-8.1,11.2
				c-2.4,2.2-4,4.8-4.9,7.9c-2.5,2.8-4.2,6.1-4.8,9.8c-2,2.8-3.1,6-3.2,9.5v0l0,0c-1.8,2.5-1.6,5.4-1.5,8.2c0.1,1,0.2,2,0.3,3
				c0,0.2,0.1,0.5,0.1,0.8c-0.2-0.1-0.3-0.3-0.4-0.4c-0.4-0.5-0.5-1-0.5-1.5c-1.2,4.4-0.9,8.9,0.5,13.3c-0.2,0.6-0.1,1.1,0.2,1.5
				c0.2,2.8-0.9,5.7,1.3,8.2c0.7,2.1,1.4,4.2,2.2,6.3c-4.2,1.1-4.4-3.4-6.8-4.8c-2.3-7.3-4.7-14.6-7.5-23.5
				c-3.4,10.1-4.6,19.1-4.8,28.2c0.1-0.5,0.2-0.9,0.4-1.2c-0.1,0.4-0.2,0.9-0.4,1.2c0,3.3,0,6.5,0,9.8c-0.2,3.3-0.6,6.6,1.1,9.7
				c-0.2,4.5,0.9,8.7,2.4,12.8c0.8,3.5,1.7,6.9,3.7,9.9c1,3.7,2.6,7.1,5.2,10.1c2.3,5.4,5.7,9.9,10,13.9c1.5,2.7,3.6,4.9,6.2,6.5
				c7.5,8.2,16.5,14.2,27.8,19.6c-1.7-3.9-2.6-6.1-3.5-8.3c0.1-1.8-0.1-3.5-1.3-4.9v0c-0.2-1.6-0.4-3.2-0.6-4.8
				c-0.1-5.8-0.2-11.6-0.3-17.4c-0.1,0.5-0.2,0.9-0.2,1.4c0-0.5,0.1-1,0.2-1.4c0.3-2.8,0.5-5.6,0.8-8.3c1-4.3,2.1-8.6,3.1-12.8
				c2.2-2.7,4.3-5.3,6.5-8c2.7,0.9,2.7,0.9,1.8,5.2c0.4,4.6,0,9.3,2.8,14.8c2.6-25.7,15.3-44.3,34.9-58.6c1.8-0.7,3.6-1.5,5.4-2.2
				c0.6-0.5,1.3-0.9,1.9-1.4c0.5,0.2,1,0.3,1.5,0.4l0.3-0.3c0.7-0.3,1.4-0.7,2.1-0.9c-0.4,0.3-0.9,0.6-1.2,1c-0.2,0-0.3,0.1-0.5,0.1
				c-0.2,0-0.4,0.1-0.6,0.1c0,2-0.1,4.1-0.1,6.1c-1.7,2.4-1.6,5.1-1.7,7.8c-1.6,2.7-1.5,5.6-1.4,8.5c-0.3,0.4-0.4,0.8-0.1,1.2
				c-1.6,3.8-1.4,7.7-1.2,11.7c-0.2,1.6-0.4,3.2-0.6,4.8c0.2,1.1,0.4,2.2,0.6,3.2c0,3.2,0,6.4,0,9.5c0.4,0.1,0.7,0.2,1.1,0.4
				c0.1,1.5,0.3,3,0.4,4.5c-0.1,5.1,2.3,9.6,3.2,14.5c1.4,3,0.8,6.6,3.1,9.3c1.7,2.8,3.5,5.6,5.2,8.4c1,1.6,2.1,3.2,3.1,4.8
				c2.2,5.8,5.7,6.1,10.4,2.7c3.6-2.6,7.6-4.8,10.5-8.4c3.9-2.7,7-6.1,9.4-10.2c3-2.7,5.2-5.9,6.6-9.7c2.5-2.8,4.2-6,5.1-9.6
				c3-4.5,4.5-9.5,5.7-14.7c1.7-4.1,2.7-8.4,3.1-12.9c0.8-4.8,2.2-9.5,1.7-14.4C326.6,205,326.7,202.8,326.7,200.7z M177,219.2
				c0.1-0.8,0-1.6,0.1-2.4c0.7,1.1,1.3,2.1,1.6,3C178.1,219.6,177.6,219.4,177,219.2z M175.5,169.9c1.1-0.1,2.2,0,3.4,0
				C177.8,170,176.6,170.1,175.5,169.9z M187.7,173.9c0.1-0.1,0.3-0.1,0.4-0.2c0.1,0,0.2-0.1,0.3-0.1c0.5-0.1,1-0.2,1.5-0.2
				c0,0,0.1,0,0.1,0c-0.1,0.5-0.1,1,0,1.5c-0.5,0-1.1,0-1.6,0c-0.4-0.3-0.8-0.5-1.2-0.6C187.4,174.1,187.5,174,187.7,173.9z
				 M189.6,242c-0.4,1.5-0.6,2.9-0.6,4.3c-0.2-0.2-0.4-0.4-0.7-0.6C188.8,244.5,189.2,243.2,189.6,242z M188.4,255.4
				c0-0.5,0-1.1,0-1.6v-0.2c0,0,0.1,0,0.1,0c0.2-0.4,0.4-0.9,0.6-1.3c-0.1,0.5-0.2,0.9-0.6,1.3c0.4,0.1,0.8,0.3,1.2,0.5c0,0,0,0,0,0
				C189.4,254.7,188.9,255.1,188.4,255.4z M190.6,250.6c-0.2,0-0.4,0-0.6,0c-0.1-0.3-0.2-0.5-0.3-0.8c0,0,0,0,0-0.1
				c0.1-0.1,0.2-0.2,0.2-0.3c0.2-0.2,0.3-0.4,0.5-0.6C190.6,249.4,190.6,250,190.6,250.6z M203.2,171.9c-1.5,0.3-2.9,0.1-4.4-1.2
				C200.3,171.1,201.7,171.5,203.2,171.9z M203.2,233c-0.1-0.5-0.2-1-0.3-1.5c0.5-0.2,1-0.3,1.6-0.3
				C204.2,231.9,203.7,232.5,203.2,233z M203,228.7c0.3-0.9,0.7-1.8,0.9-2.8c0.7,0.3,1.4,0.5,2.2,0.6C205,227.6,204,228.3,203,228.7
				z M191.8,269c-0.1-0.2-0.2-0.4-0.3-0.6c0.3,0.1,0.5,0.3,0.8,0.4C192.2,268.8,192,268.9,191.8,269z M191.6,228
				c-0.1-0.8-0.1-1.6,0.1-2.2c0.4,0.3,0.8,0.7,1.1,1C192.4,227.3,192,227.7,191.6,228z M194.8,220c-0.1-0.2-0.3-0.3-0.4-0.4
				c0,0,0,0,0,0c0.4-0.4,0.8-0.6,1.3-0.7c0.3,0.1,0.6,0.1,0.9,0.2C196,219.3,195.4,219.7,194.8,220z M194.4,203
				c1.6,0.1,3.1,0.3,4.6,0.6C197.5,203.4,195.9,203.2,194.4,203z M202.5,236.7c0.2,0,0.4,0.1,0.5,0.1c-0.1,0.3-0.2,0.6-0.2,0.9
				c-0.3-0.3-0.5-0.6-0.6-0.9C202.3,236.8,202.4,236.7,202.5,236.7z M207.4,202.7c-0.6,0.5-1.3,0.9-2.1,1c-0.1,0-0.3,0-0.4,0
				c-0.1,0.6-0.5,1-1.1,1.4c-0.3,0.2-0.6,0.3-1,0.4c0.2-0.3,0.3-0.6,0.5-0.9c0.2-0.3,0.3-0.6,0.5-0.9c0.3-0.5,0.5-1,0.8-1.5
				c0,0,0,0,0,0c0.5,0,1,0,1.5,0.1c1.2-1.6,2.3-3.2,3.5-4.8c0,0,0,0,0,0c0,0,0,0,0,0c0.2,0.1,0.3,0.2,0.5,0.2
				C209.3,199.4,208.1,201,207.4,202.7z M210.4,193.3C210.4,193.3,210.4,193.2,210.4,193.3c-0.2,0-0.3,0-0.4,0
				c0.1-0.2,0.2-0.3,0.2-0.5C210.3,192.9,210.3,193.1,210.4,193.3C210.4,193.2,210.4,193.2,210.4,193.3
				C210.4,193.2,210.4,193.3,210.4,193.3z M214.6,188.8c-0.2,0.2-0.3,0.4-0.5,0.5c-0.3,0-0.5,0.1-0.8,0.1c-0.3,0.1-0.6,0.1-0.9,0.2
				c0.3-0.4,0.5-0.7,0.9-0.7c0.1-1.1,0.6-2,1.2-2.8c0,0,0-0.1,0.1-0.1c0,0.1,0,0.1,0.1,0.2c0.2,0.5,0.5,0.9,0.9,1.4
				C215.3,188.1,215,188.5,214.6,188.8z M216.6,180.5c-0.4,0.5-0.8,1.1-1.2,1.6c0.3-0.6,0.7-1.2,1-1.8c0.1-0.1,0.1-0.2,0.2-0.3
				c0.3-0.4,0.6-0.8,0.9-1.2c-0.1,0.3-0.2,0.5-0.3,0.8c0.5,0.5,1,1,1.5,1.6c-0.9,0.2-1.5,0-1.9-0.4
				C216.8,180.7,216.7,180.6,216.6,180.5z M216.9,203.2c1.1,0.2,2.3,0.5,3.5,0.9C219.2,204.1,218,203.9,216.9,203.2z M223.4,176.5
				c-0.1-0.1-0.2-0.3-0.3-0.4c0.3,0,0.7-0.1,1-0.1C223.9,176.1,223.7,176.3,223.4,176.5z M240.7,103.3c0.5,1,0.8,1.9,1.1,2.9
				c-0.2-0.1-0.5-0.2-0.7-0.3c-0.4-1.1-0.8-2.1-1.3-3.2C240.1,102.9,240.4,103.1,240.7,103.3z M240.6,128.5c0.1,0,0.1-0.1,0.2-0.1
				c0.1,0.4,0.4,0.9,0.7,1.4c-0.3,0.3-0.6,0.5-0.8,0.8C240.7,129.9,240.7,129.2,240.6,128.5z M230.2,152.3c0,0.2,0,0.5-0.1,0.7
				c-0.2,0-0.4,0-0.6,0C229.8,152.8,230,152.5,230.2,152.3z M230,155.3c-0.2,0.4-0.3,0.8-0.3,1.2c-0.1-0.1-0.2-0.3-0.3-0.5
				C229.6,155.8,229.8,155.5,230,155.3z M229.4,203.3c-0.2,0-0.5,0.3-0.7,0.6c-0.6-0.5-1.1-1.1-1.7-1.6c0-0.1,0-0.3,0-0.4
				c0-0.2,0-0.4,0-0.6c0-0.2,0-0.4,0-0.6c0.3,0.2,0.4,0.4,0.5,0.7c0,0.1,0,0.3,0,0.4C228.5,201.6,229,202.3,229.4,203.3L229.4,203.3
				z M232.1,163c-0.7,0.1-1.4,0.4-2.1,0.8c-0.5,0.3-1,0.8-1.4,1.3c0-0.5,0-1,0-1.6c0,0-0.1-0.1-0.1-0.1c-0.5-0.6-1.1-1.2-1.6-1.8v0
				c0.8,0,1.6,0.3,2.1,0.8c0.1,0.1,0.3,0.2,0.4,0.3c0.3-0.3,0.6-0.6,0.9-0.8c0.5-1.2,0.9-2.3,1.4-3.5c-0.3-0.4-0.6-0.8-0.7-1.3
				c0.2,0,0.5,0,0.8-0.1l0.5,0c0.2,0.7,0.3,1.4,0.3,2.1c0.1,0.9-0.1,1.8-0.5,2.7c-0.1,0.2-0.2,0.4-0.4,0.6c-0.1,0.1-0.1,0.1-0.2,0.2
				C231.6,162.8,231.8,162.9,232.1,163z M234,84.1c-0.2,0.2-0.4,0.4-0.6,0.6c0.1,0.4,0.2,0.8,0.3,1.2c-0.2-0.3-0.5-0.6-0.7-0.9
				c-0.1-0.2-0.2-0.3-0.3-0.5c-0.2,0-0.3-0.1-0.5-0.1c-0.1-0.3-0.2-0.7-0.3-1c-0.2-0.6-0.3-1.1-0.5-1.7c0.3,0.3,0.7,0.5,1,0.8
				c0.1,0.1,0.2,0.2,0.3,0.3c0.2,0.1,0.3,0.3,0.5,0.4c0.2-0.3,0.8-0.2,1.6,0C234.6,83.6,234.3,83.9,234,84.1z M235.1,139.5
				c0.5-1,0.9-2.1,1.4-3.1c0.5,0.7,0.7,1.6,0.8,2.6c0,0.1,0,0.1,0,0.2C236.8,139.4,236,139.5,235.1,139.5z M236.7,94.3
				c0.2,1,0.3,2.1,0.5,3.1c-0.3-0.8-0.7-1.6-0.9-2.4c-0.1-0.3-0.1-0.5-0.1-0.8c0-0.3-0.1-0.6-0.1-0.8c0-0.2,0-0.5,0-0.7
				c0-0.6,0-1.2,0.1-1.8c0.1-0.6,0.2-1.1,0.3-1.7c0,0,0.1-0.1,0.1-0.1c-0.5-0.3-0.6-0.7-0.5-1.2c0-0.1,0-0.1,0-0.2
				c0.1-0.5,0.4-1,0.8-1.6c0.3,0.6,0.6,1.3,0.9,1.9c0,0.1,0,0.1,0.1,0.1c0.2,0.4,0.4,0.8,0.6,1.2c0,1-0.1,2.1-0.1,3.1
				c0,0.4,0,0.9,0.1,1.3c-0.2,0.5-0.5,0.7-0.9,0.7C237.2,94.6,237,94.5,236.7,94.3z M237.8,101.5c0.2,0.1,0.4,0.3,0.7,0.4
				c-0.2,0.2-0.3,0.3-0.5,0.5C237.9,102.1,237.9,101.8,237.8,101.5z M239.1,125.4c-0.3,0.2-0.5,0.5-0.8,0.7c0-0.4,0-0.7,0-1.1
				c-0.1,0-0.2-0.1-0.2-0.1l0.2,0.1c0.5,0.1,0.9,0.1,1.3,0C239.5,125.1,239.3,125.3,239.1,125.4z M240.2,134.2
				c-0.1,0.1-0.2,0.2-0.3,0.3c0,0.1,0,0.1-0.1,0.2c0-0.1,0-0.1,0-0.2c0.1-0.2,0.1-0.4,0.2-0.6c-0.1-0.1-0.2-0.2-0.3-0.3
				c0.1,0.1,0.2,0.1,0.3,0.2c0.1-0.3,0.2-0.5,0.2-0.8c0.1,0,0.1,0.1,0.2,0.1c0,0,0,0,0,0c0,0.1-0.1,0.1-0.1,0.2
				c0.1,0.3,0.1,0.5-0.1,0.8c0.3,0.3,0.6,0.5,0.9,0.8c0.2,0.3,0.4,0.6,0.5,0.8C241.2,135.3,240.7,134.8,240.2,134.2z M241.8,106.2
				L241.8,106.2C241.8,106.2,241.8,106.2,241.8,106.2c0.1-0.2,0.2-0.4,0.3-0.6c0.4,0,0.7,0,1.1,0c1.7-1.5,3.5-2.3,5.4-2.7
				c-1.7,0.6-3.3,1.8-4.8,3.2c-0.1,0.1-0.3,0.3-0.4,0.4c-0.4,0-0.8,0-1.2-0.1c0.4,2.4,0.7,4.8,1.1,7.3c0.1,0.6,0.2,1.1,0.3,1.7
				c-0.3-0.3-0.5-0.7-0.8-1.1c-0.1,0.1-0.2,0.3-0.3,0.4c0-0.3,0-0.6,0-0.9C241,111.4,240.5,109,241.8,106.2z M244.8,147.5
				c-0.3-0.2-0.7-0.4-1-0.5c-0.1-0.2-0.1-0.5-0.1-0.7c-0.1-0.3-0.1-0.7-0.2-1c0.1,0,0.2,0,0.3,0c0.4,0,0.9,0,1.3,0
				C244.9,145.9,244.9,146.7,244.8,147.5L244.8,147.5z M242.5,123.9c0.2-0.2,0.5-0.4,0.7-0.6c-0.1,0.3-0.2,0.7-0.3,1
				C242.8,124.2,242.6,124.1,242.5,123.9z M242.8,197.2c1.2-0.9,2.4-1.9,3.7-2.8C245.2,195.6,244,196.5,242.8,197.2z M247,137.7
				c0.8-0.1,1.7,0.1,2.7,0.5C248.7,138.1,247.8,137.9,247,137.7z M282.9,158c-0.4,0.2-0.8,0.4-1.1,0.8
				C282.2,158.3,282.6,158.1,282.9,158z M277.5,202.1c-2.9,0-5.8-0.6-8.8-1.2C271.7,200.9,274.6,201.7,277.5,202.1z M270.3,260.8
				c-0.3,0.4-0.8,0.5-1.2,0.8c-0.1,0.1-0.2,0.2-0.2,0.2c0.1-0.1,0.1-0.2,0.2-0.2c0.3-0.3,0.6-0.6,0.9-0.9c-0.4-0.2-0.8-0.4-1.2-0.8
				c0.6,0.1,1.1,0.3,1.6,0.5c0,0,0.1-0.1,0.1-0.1c0,0.1,0,0.1,0,0.2c0.4,0.2,0.7,0.4,1,0.6C271.1,261,270.7,261,270.3,260.8z
				 M272.2,244.2c-0.5-0.4-0.9-0.8-1.1-1.2c0.6-0.7,1.3-1.2,2-1.7C272.8,242.2,272.5,243.2,272.2,244.2z M274.2,277.7
				c-0.3-0.1-0.5-0.3-0.8-0.4c0.1-0.3,0.2-0.6,0.3-0.9c0.4,0.5,0.7,1.1,0.9,1.6C274.5,277.9,274.4,277.8,274.2,277.7z M275.8,222.9
				c-0.1-0.4-0.3-0.9-0.4-1.3c0.4,0.3,0.7,0.7,0.8,1.1C276,222.8,275.9,222.8,275.8,222.9z M277,239.9c0.8-0.1,1.5-0.1,2.3,0
				C278.4,239.9,277.7,240,277,239.9z M287.1,204.3c-0.3,0.4-0.6,0.8-1,1.2c-0.5,0.4-1.2,0.8-1.9,1.1c-0.1,0.2-0.3,0.4-0.4,0.6
				c0,0.1,0.1,0.2,0.1,0.3c0.2,1.6-0.2,2.7-0.9,3.7c0.1-0.1,0.3-0.1,0.4-0.2c-0.4,0.9-0.9,1.8-1.3,2.6c-0.7,1.5-1.4,3.1-2,4.6h0l0,0
				c-0.5,1.7-1,3.3-1.5,5c-0.2,0.4-0.4,0.8-0.6,1.2c-0.3,0.7-0.6,1.4-1,2c-0.7-0.6-0.7-1.4-0.7-2.2c0-0.3,0-0.6,0-0.9
				c0.2-0.2,0.5-0.3,0.8-0.3c-0.1-0.3-0.2-0.6-0.3-0.9c0.9-1,1.4-2.4,1.9-3.7c-0.4-0.2-0.5-0.6-0.1-1.6l0.1-1.9
				c-0.1,0-0.1,0.1-0.2,0.1c0.1-0.1,0.1-0.2,0.2-0.3c0-0.3,0-0.6,0-1h0v0c1.8-1.8,2.7-4,3.2-6.5c0.5-0.5,0.9-1.1,1.3-1.7
				c0.2,0.4,0.3,0.8,0.5,1.2c0.2-0.1,0.4-0.1,0.5-0.2c0.7-1,1.4-2,2-3.1c0.3-0.1,0.7-0.2,1-0.3c-0.1,0.3-0.2,0.6-0.3,0.9l0,0
				c0.2-0.1,0.4-0.2,0.6-0.3C287.3,203.9,287.2,204.1,287.1,204.3z M287.3,199.5c-0.5,0.3-1,0.6-1.5,0.8c0.3-0.9,0.6-1.9,0.8-2.9
				C287,198.2,287.2,198.8,287.3,199.5C287.4,199.5,287.4,199.5,287.3,199.5z M304,148.1c0.1-0.4,0.2-0.6,0.4-0.6
				c0,0.5,0.1,1,0.1,1.5c2.3-0.6,4.5-1.6,6.8-2.4c-0.9,1.4-2.8,2.4-5.7,2.8l-0.1,0c-0.4,0-0.7-0.1-1.1-0.2c-0.1,0-0.2-0.1-0.3-0.1
				c0.1,0,0.1,0,0.2-0.1C304,148.8,303.9,148.4,304,148.1z M302.8,147.3c0,0.1,0,0.1,0,0.2h-0.1c0,0,0,0.1-0.1,0.1c0,0,0-0.1,0-0.1
				c-0.1-0.2-0.2-0.4-0.2-0.6c0.1,0.1,0.3,0.3,0.4,0.5C302.8,147.4,302.8,147.4,302.8,147.3C302.8,147.3,302.8,147.3,302.8,147.3
				c-0.1-1.7-0.2-3.4-0.6-5C303,143.8,303.3,145.4,302.8,147.3z M301.2,147.3c0.1,0,0.1,0,0.2,0.1c0.1,0,0.1,0.1,0.2,0.1
				c0.3,0.2,0.5,0.4,0.8,0.6c0.5,0.4,0.9,0.8,1.3,1.2c0.3,0.2,0.5,0.5,0.7,0.7c0,0.8,0,1.5,0,2.3v0c-0.2,0.7-0.1,1.8-0.5,2.1
				c-1,0.7-1-0.5-1.3-1c-0.5-1.4-1-2.8-1.5-4.2c0-0.5,0-1.1,0-1.6c0-0.1-0.1-0.2-0.1-0.2C301.1,147.3,301.2,147.3,301.2,147.3z
				 M304.3,162.1c-0.2,1.8-0.8,3-1.7,3.9c-0.2-0.3-0.5-0.6-0.7-0.9c-0.1-0.3-0.3-0.6-0.5-0.8C302.5,163.7,303.4,163,304.3,162.1z
				 M297.3,137.1c0.2,0,0.4-0.1,0.6-0.1c0-0.2,0-0.5,0-0.7c0.2,0.1,0.4,0.3,0.5,0.5c0.1-0.2,0.2-0.5,0.3-0.7
				c-0.1-0.9-0.3-1.7-0.5-2.5c0.1-0.3,0.1-0.5,0.2-0.8c0.1-0.4,0.2-0.8,0.3-1.1c0-0.1,0.1-0.2,0.1-0.2c0,0.2,0.1,0.4,0.1,0.6
				c0.2,0.4,0.4,0.8,0.7,1.1c0,1,0.1,2.1,0.1,3.1c-0.3,0.3-0.5,0.5-0.8,0.8c0.2,0.4,0.3,0.9,0.5,1.3c-0.2-0.1-0.3-0.2-0.5-0.3
				c-0.1,0.6-0.4,1.1-0.9,1.6c0-0.6,0-1.1,0-1.7c0-0.1,0-0.3,0-0.4C297.7,137.3,297.5,137.2,297.3,137.1c-2.6,0.6-4.9,0.4-6.9-0.5
				C292.5,135.9,294.8,135.9,297.3,137.1z M289.9,195.8c0,0.1-0.1,0.2-0.1,0.3c0,0.3,0,0.5,0,0.8c-0.2,0.5-0.5,1-0.8,1.4
				c0.3-0.7,0.5-1.4,0.8-2.1L289.9,195.8h-1.7c0.5-0.4,1.1-0.4,1.5-0.3c0.1,0.1,0.3,0.1,0.4,0.2c0.1,0.1,0.2,0.2,0.3,0.2
				c0,0.1,0.1,0.1,0.1,0.2C290.4,196.2,290.2,196,289.9,195.8z M293.1,168.4c0.7,0.2,1.3,0.4,2,0.7c1,0.3,1.9,0.6,2.9,1
				c-0.8,0.6-1.6,1.2-2.5,1.6c-0.7-0.5-1.3-1-1.8-1.7c-0.7,0-1.3-0.1-2-0.1c0.5,0,1.1-0.1,1.6-0.1c0.1,0,0.1-0.1,0.2-0.1
				C293.3,169.3,293.1,168.9,293.1,168.4z M292.8,186.5c0.3-1.7,1.1-3,2.4-3.9h0c0.5-0.3,1.1-0.6,1.8-0.8c0.3,0.3,0.6,0.7,0.9,1.1
				c-1,1.1-2.1,2.3-3.2,3.4c-0.5,1.3-0.9,2.6-1.4,3.9C293.3,189,293.1,187.7,292.8,186.5z M295.4,198
				C295.4,198,295.4,198.1,295.4,198C295.4,198.1,295.4,198.1,295.4,198C295.4,198.1,295.4,198.1,295.4,198c-0.6-0.8-1-1.6-1.3-2.5
				C295.4,195.8,295.6,196.8,295.4,198z M298.6,210.4c0.1,1.1,0.5,2.1,0.9,3.2c-1.1-0.5-2.1-1.1-3.2-1.6c0,0.5,0,1-0.1,1.5
				c-0.8-1.1-1.2-2.3-1.4-3.4c0.5-0.1,1.1-0.1,1.7-0.1c0.1,0,0.2,0,0.3,0c0.3,0,0.5,0.1,0.8,0.2c0.4-0.6,0.7-1.1,1.1-1.7
				c0-0.2,0.1-0.4,0.1-0.6c0,0,0,0,0,0c0.2-0.2,0.5-0.5,0.7-0.7c1.1,0.9,1.6,1.8,1.6,2.8c-0.7-0.5-1.3-1-1.9-1.6
				c-0.2,0.7-0.3,1.4-0.6,2C298.6,210.3,298.6,210.3,298.6,210.4z M304.4,188.1c0,0.4,0,0.9,0,1.3c-0.1,0.3-0.1,0.6-0.2,0.8
				c-0.3,1.3-0.7,2.6-1,3.9c-0.4,0.1-0.8,0.2-1.2,0.2c-0.8-2,0.1-3.5,2-4.8c-0.1-0.6,0-1.1,0.3-1.6c-0.2,0-0.5,0-0.7,0
				c-0.5-0.4-0.8-0.9-1.1-1.5c-0.1-0.2-0.2-0.4-0.2-0.6c-0.4-0.9-0.6-1.8-0.7-2.6c1,0.9,1.9,2,2.9,2.8c0,0.5,0,1.1,0.1,1.6
				C304.4,187.9,304.4,188,304.4,188.1z M313.1,222.7c-0.1,0.7-0.4,1.4-0.6,2.1c-0.4-0.6-0.7-1.3-1-1.8c0-1,0.2-1.7,1.2-1.6
				C312.8,221.5,313.1,222.3,313.1,222.7z M312.4,171.2c-2.1,0.5-4.3,1.7-6.4,3.5c0,0.1,0,0.1,0,0.2c0,1.1,0,2.2,0.1,3.3
				c-0.8-0.4-1.4-1.1-1.7-1.9c-0.1-0.2-0.1-0.3-0.2-0.5c-0.1-0.3-0.2-0.6-0.2-0.9c0-0.4,0-0.9,0-1.3c0.1-1.9,0.8-3.6,2.5-4.6
				c-0.3-0.5-0.4-1.1-0.4-1.8c0-0.1,0-0.3,0-0.4c0.1,0.1,0.2,0.2,0.3,0.3c0.4,0.4,0.9,0.9,1.3,1.3c-0.1,0.6-0.3,1.1-0.4,1.7
				c0.1,0.1,0.2,0.2,0.3,0.3C309.4,170.8,311,171.1,312.4,171.2c1.2-0.3,2.5-0.4,3.7-0.3C315.1,171.2,313.9,171.2,312.4,171.2z
				 M321.1,192.6c0.3,0,0.7,0,1,0.1C321.7,192.6,321.4,192.6,321.1,192.6z"/>
			<path class="st23" d="M232.8,82.9c0,0.4-0.1,0.8-0.4,1.3c-0.1,0.1-0.1,0.2-0.2,0.3c-0.1-0.3-0.2-0.7-0.3-1
				c-0.2-0.6-0.3-1.1-0.5-1.7c0.3,0.3,0.7,0.5,1,0.8C232.6,82.7,232.7,82.8,232.8,82.9z"/>
			<path class="st24" d="M192.3,268.7c-0.2,0.1-0.3,0.1-0.5,0.2c-0.1-0.2-0.2-0.4-0.3-0.6C191.8,268.5,192.1,268.6,192.3,268.7z"/>
			<path class="st6" d="M189.8,254.2c-0.4,0.5-0.8,0.9-1.4,1.3c0-0.5,0-1.1,0-1.6c0.1-0.1,0.1-0.1,0.1-0.2
				C188.9,253.8,189.3,254,189.8,254.2C189.7,254.2,189.7,254.2,189.8,254.2z"/>
			<path class="st6" d="M190.6,250.6c-0.2,0-0.4,0-0.6,0c-0.1-0.3-0.2-0.5-0.3-0.8c0,0,0,0,0-0.1c0.1-0.1,0.2-0.2,0.2-0.3
				c0.2-0.2,0.3-0.4,0.5-0.6C190.6,249.4,190.6,250,190.6,250.6z"/>
			<path class="st6" d="M203.1,236.8c-0.1,0.3-0.2,0.6-0.2,0.9c-0.3-0.3-0.5-0.6-0.6-0.9c0.1-0.1,0.2-0.1,0.3-0.1
				C202.7,236.7,202.9,236.7,203.1,236.8z"/>
			<path class="st5" d="M188.5,253.6c0,0.1-0.1,0.1-0.1,0.2L188.5,253.6C188.4,253.6,188.4,253.6,188.5,253.6z"/>
			<path class="st5" d="M189,246.3c-0.2-0.2-0.4-0.4-0.7-0.6c0.4-1.3,0.8-2.5,1.2-3.8C189.2,243.4,189,244.9,189,246.3z"/>
			<path class="st5" d="M190,250.6c-0.1-0.3-0.2-0.5-0.3-0.8c0,0,0,0,0-0.1c0.1-0.1,0.2-0.2,0.2-0.3C190,249.8,190,250.2,190,250.6z
				"/>
			<path class="st25" d="M203.1,236.8c-0.1,0.3-0.2,0.6-0.2,0.9c-0.3-0.3-0.5-0.6-0.6-0.9c0.1-0.1,0.2-0.1,0.3-0.1
				C202.7,236.7,202.9,236.7,203.1,236.8z"/>
			<path class="st7" d="M202.9,231.5c0.5-0.2,1-0.3,1.6-0.3c-0.3,0.6-0.8,1.2-1.2,1.8C203.2,232.5,203.1,232,202.9,231.5z"/>
			<path class="st7" d="M206.1,226.5c-1.1,1.2-2.1,1.9-3.1,2.2c0.3-0.9,0.7-1.8,0.9-2.8C204.6,226.2,205.3,226.4,206.1,226.5z"/>
			<path class="st7" d="M229.4,203.3L229.4,203.3c-0.2,0.1-0.5,0.3-0.7,0.6c-0.6-0.5-1.1-1.1-1.7-1.6c0-0.1,0-0.3,0-0.4
				c0-0.2,0-0.4,0-0.6c0.1,0,0.1,0,0.2,0c0.1,0,0.2,0,0.3,0.1c0,0.1,0,0.3,0,0.4C228.5,201.6,229,202.3,229.4,203.3z"/>
			<path class="st7" d="M246.5,194.4c-1.2,1.2-2.4,2.1-3.7,2.8C244,196.3,245.2,195.3,246.5,194.4z"/>
			<path class="st26" d="M229.4,203.3L229.4,203.3c-0.2,0.1-0.5,0.3-0.7,0.6c-0.6-0.5-1.1-1.1-1.7-1.6c0-0.1,0-0.3,0-0.4
				c0-0.2,0-0.4,0-0.6c0-0.2,0-0.4,0-0.6c0.3,0.2,0.4,0.4,0.5,0.7c0,0.1,0,0.3,0,0.4C228.5,201.6,229,202.3,229.4,203.3z"/>
			<path class="st27" d="M190.6,250.6c-0.2,0-0.4,0-0.6,0c-0.1-0.3-0.2-0.5-0.3-0.8c0,0,0,0,0-0.1c0.1-0.1,0.2-0.2,0.2-0.3
				c0.2-0.2,0.3-0.4,0.5-0.6C190.6,249.4,190.6,250,190.6,250.6z"/>
			<path class="st27" d="M203.1,236.8c-0.1,0.3-0.2,0.6-0.2,0.9c-0.3-0.3-0.5-0.6-0.6-0.9c0.1-0.1,0.2-0.1,0.3-0.1
				C202.7,236.7,202.9,236.7,203.1,236.8z"/>
			<path class="st27" d="M204.5,231.3c-0.3,0.6-0.8,1.2-1.2,1.8c-0.1-0.5-0.2-1-0.3-1.5C203.4,231.4,203.9,231.3,204.5,231.3z"/>
			<path class="st28" d="M192.8,226.9c-0.4,0.4-0.8,0.8-1.2,1.2c-0.1-0.8-0.1-1.6,0.1-2.2C192,226.2,192.4,226.5,192.8,226.9z"/>
			<path class="st28" d="M202.9,231.5c0.5-0.2,1-0.3,1.6-0.3c-0.3,0.6-0.8,1.2-1.2,1.8C203.2,232.5,203.1,232,202.9,231.5z"/>
			<path class="st28" d="M206.1,226.5c-1.1,1.2-2.1,1.9-3.1,2.2c0.3-0.9,0.7-1.8,0.9-2.8C204.6,226.2,205.3,226.4,206.1,226.5z"/>
			<path class="st12" d="M196.6,219c-0.6,0.3-1.2,0.6-1.8,1c-0.1-0.2-0.3-0.3-0.4-0.4c0,0,0,0,0,0c0.4-0.4,0.8-0.6,1.3-0.7
				C196,218.9,196.3,219,196.6,219z"/>
			<path class="st12" d="M206.1,226.5c-1.1,1.2-2.1,1.9-3.1,2.2c0.3-0.9,0.7-1.8,0.9-2.8C204.6,226.2,205.3,226.4,206.1,226.5z"/>
			<path class="st29" d="M220.3,204.1c-1.2,0-2.3-0.2-3.5-0.9C218,203.4,219.2,203.7,220.3,204.1z"/>
			<path class="st30" d="M210,197.7c-0.7,1.7-1.8,3.3-2.6,5c-0.6,0.5-1.3,0.9-2.1,1c-0.1,0-0.3,0-0.4,0c-0.1,0.6-0.5,1-1.1,1.4
				c-0.3,0.2-0.6,0.3-1,0.4c0.2-0.3,0.3-0.6,0.5-0.9c0.2-0.3,0.3-0.6,0.5-0.9c0.3-0.5,0.5-1,0.8-1.5c0,0,0,0,0,0c0.5,0,1,0,1.5,0.1
				c1.2-1.6,2.3-3.2,3.5-4.8c0,0,0,0,0,0c0,0,0,0,0,0C209.6,197.6,209.8,197.6,210,197.7z"/>
			<path class="st30" d="M220.3,204.1c-1.2,0-2.3-0.2-3.5-0.9C218,203.4,219.2,203.7,220.3,204.1z"/>
			<path class="st30" d="M227.5,201.8C227.5,201.8,227.5,201.8,227.5,201.8c-0.2,0.4-0.3,0.5-0.5,0.5c0-0.1,0-0.3,0-0.4
				c0-0.2,0-0.4,0-0.6c0-0.2,0-0.4,0-0.6c0.3,0.2,0.4,0.4,0.5,0.7C227.6,201.5,227.6,201.6,227.5,201.8z"/>
			<path class="st31" d="M220.3,204.1c-1.2,0-2.3-0.2-3.5-0.9C218,203.4,219.2,203.7,220.3,204.1z"/>
			<path class="st31" d="M227.5,201.8c-0.1,0-0.3,0.1-0.5,0.1c0-0.2,0-0.4,0-0.6c0-0.2,0-0.4,0-0.6c0.3,0.2,0.4,0.4,0.5,0.7
				C227.6,201.5,227.6,201.6,227.5,201.8z"/>
			<path class="st32" d="M210.4,193.2c-0.1,0-0.3,0-0.4,0.1c0.1-0.2,0.2-0.3,0.2-0.5C210.3,192.9,210.3,193.1,210.4,193.2z"/>
			<path class="st32" d="M210.4,193.2C210.4,193.2,210.4,193.3,210.4,193.2C210.4,193.3,210.4,193.2,210.4,193.2
				C210.4,193.2,210.4,193.2,210.4,193.2z"/>
			<path class="st33" d="M210.4,193.2c-0.1,0-0.3,0-0.4,0.1c0.1-0.2,0.2-0.3,0.2-0.5C210.3,192.9,210.3,193.1,210.4,193.2z"/>
			<path class="st33" d="M210.4,193.2C210.4,193.2,210.4,193.3,210.4,193.2C210.4,193.3,210.4,193.2,210.4,193.2
				C210.4,193.2,210.4,193.2,210.4,193.2z"/>
			<path class="st33" d="M214.1,189.4c-0.3,0-0.5,0.1-0.8,0.1c-0.3,0.1-0.6,0.1-0.9,0.2c0.3-0.4,0.5-0.7,0.9-0.7
				C213.6,189,213.9,189.1,214.1,189.4z"/>
			<path class="st16" d="M215.6,187.7c-0.3,0.4-0.6,0.7-1,1.1c-0.2,0.2-0.3,0.4-0.5,0.5c-0.3,0-0.5,0.1-0.8,0.1c0-0.1,0-0.2,0-0.2
				c0-0.1,0-0.2,0-0.2c0.1-1.1,0.6-2,1.2-2.8c0,0,0-0.1,0.1-0.1c0,0.1,0,0.1,0.1,0.2C214.9,186.8,215.2,187.2,215.6,187.7z"/>
			<path class="st16" d="M246.5,194.4c-1.2,1.2-2.4,2.1-3.7,2.8C244,196.3,245.2,195.3,246.5,194.4z"/>
			<path class="st34" d="M218.8,181.2c-0.9,0.2-1.5,0-1.9-0.4c-0.1-0.1-0.2-0.2-0.2-0.3c-0.4,0.5-0.8,1.1-1.2,1.6
				c0.3-0.6,0.7-1.2,1-1.8c0.1-0.1,0.1-0.2,0.2-0.3c0.3-0.4,0.6-0.8,0.9-1.2c-0.1,0.3-0.2,0.5-0.3,0.8
				C217.8,180.1,218.3,180.6,218.8,181.2z"/>
			<path class="st34" d="M224.1,176c-0.2,0.2-0.4,0.3-0.7,0.5c-0.1-0.1-0.2-0.3-0.3-0.4C223.4,176,223.8,176,224.1,176z"/>
			<path class="st34" d="M264.7,188.2c-0.4,0.3-0.9,0.6-1.2,1c-0.2,0-0.3,0.1-0.5,0.1c-0.2,0-0.4,0.1-0.6,0.1l0.3-0.3
				C263.3,188.8,264,188.5,264.7,188.2z"/>
			<path class="st35" d="M215.6,187.7c-0.3,0.4-0.6,0.7-1,1.1c-0.2,0.2-0.3,0.4-0.5,0.5c-0.3,0-0.5,0.1-0.8,0.1
				c-0.3,0.1-0.6,0.1-0.9,0.2c0.3-0.4,0.5-0.7,0.9-0.7c0.1-1.1,0.6-2,1.2-2.8c0,0,0-0.1,0.1-0.1c0,0.1,0,0.1,0.1,0.2
				C214.9,186.8,215.2,187.2,215.6,187.7z"/>
			<path class="st35" d="M218.8,181.2c-0.9,0.2-1.5,0-1.9-0.4c-0.1-0.1-0.2-0.2-0.2-0.3c0.2-0.3,0.4-0.6,0.6-0.9
				C217.8,180.1,218.3,180.6,218.8,181.2z"/>
			<path class="st36" d="M218.8,181.2c-0.9,0.2-1.5,0-1.9-0.4c-0.1-0.1-0.2-0.2-0.2-0.3c0-0.1-0.1-0.1-0.1-0.2
				c0.1-0.1,0.1-0.2,0.2-0.3c0.3-0.4,0.6-0.8,0.9-1.2c-0.1,0.3-0.2,0.5-0.3,0.8C217.8,180.1,218.3,180.6,218.8,181.2z"/>
			<path class="st36" d="M224.1,176c-0.2,0.2-0.4,0.3-0.7,0.5c-0.1-0.1-0.2-0.3-0.3-0.4C223.4,176,223.8,176,224.1,176z"/>
			<path class="st36" d="M230,163.9c-0.5,0.3-1,0.8-1.4,1.3c0-0.5,0-1,0-1.6c0,0-0.1-0.1-0.1-0.1c-0.5-0.6-1.1-1.2-1.6-1.8v0
				c0.8,0,1.6,0.3,2.1,0.8c0.1,0.1,0.3,0.2,0.4,0.3c0.2,0.2,0.3,0.4,0.5,0.6c0,0,0,0.1,0,0.1C229.9,163.6,229.9,163.8,230,163.9z"/>
			<path class="st37" d="M224.1,176c-0.2,0.2-0.4,0.3-0.7,0.5c-0.1-0.1-0.2-0.3-0.3-0.4C223.4,176,223.8,176,224.1,176z"/>
			<path class="st38" d="M224.1,176c-0.2,0.2-0.4,0.3-0.7,0.5c-0.1-0.1-0.2-0.3-0.3-0.4C223.4,176,223.8,176,224.1,176z"/>
			<path class="st38" d="M297.9,170c-0.8,0.6-1.6,1.2-2.5,1.6c-0.7-0.5-1.3-1-1.8-1.7c-0.7,0-1.3-0.1-2-0.1c0.5,0,1.1-0.1,1.6-0.1
				c0.1,0,0.1-0.1,0.2-0.1c-0.2-0.4-0.3-0.8-0.4-1.3c0.7,0.2,1.3,0.4,2,0.7C296,169.4,297,169.7,297.9,170z"/>
			<path class="st39" d="M232.1,163c-0.7,0.1-1.4,0.4-2.1,0.8c-0.5,0.3-1,0.8-1.4,1.3c0-0.5,0-1,0-1.6c0.3-0.3,0.5-0.5,0.8-0.8
				c0.3-0.3,0.6-0.6,0.9-0.8c0.6,0,1.2,0,1.8,0c-0.1,0.2-0.2,0.4-0.4,0.6c-0.1,0.1-0.1,0.1-0.2,0.2
				C231.6,162.8,231.8,162.9,232.1,163z"/>
			<path class="st40" d="M232,162c-0.1,0.2-0.2,0.4-0.4,0.6c-0.1,0.1-0.1,0.1-0.2,0.2c-0.4-0.2-0.8-0.5-1.3-0.7
				c0.5-1.2,0.9-2.3,1.4-3.5c0.2-0.5,0.4-0.9,0.6-1.3c0.2,0.7,0.3,1.4,0.3,2.1C232.6,160.2,232.4,161.1,232,162z"/>
			<path class="st40" d="M280.5,161c-0.3-0.1-0.7-0.1-1-0.2c-1.4-0.7-2.3-1.7-2.5-3.2c0-0.1,0-0.3,0-0.4c0.1,0.1,0.2,0.1,0.3,0.2
				c1,0.5,1.9,1,2.9,1.4C280.5,159.6,280.6,160.4,280.5,161z"/>
			<path class="st41" d="M230,155.3c-0.2,0.4-0.3,0.8-0.3,1.2c-0.1-0.1-0.2-0.3-0.3-0.5C229.6,155.8,229.8,155.5,230,155.3z"/>
			<path class="st41" d="M232,162c-0.1,0.2-0.2,0.4-0.4,0.6c-0.1,0.1-0.1,0.1-0.2,0.2c-0.5,0.4-1,0.7-1.6,0.8
				c-0.4,0.1-0.9,0.1-1.3,0.1c0,0-0.1-0.1-0.1-0.1c-0.5-0.6-1.1-1.2-1.6-1.8v0c0.8,0,1.6,0.3,2.1,0.8c0.1,0.1,0.3,0.2,0.4,0.3
				c0.3-0.3,0.6-0.6,0.9-0.8c0.5-1.2,0.9-2.3,1.4-3.5c-0.3-0.4-0.6-0.8-0.7-1.3c0.2,0,0.5,0,0.8-0.1l0.5,0c0.2,0.7,0.3,1.4,0.3,2.1
				C232.6,160.2,232.4,161.1,232,162z"/>
			<path class="st42" d="M232.5,159.3c-0.2-0.1-0.4-0.2-0.6-0.4c-0.1-0.1-0.2-0.2-0.3-0.4c-0.3-0.4-0.6-0.8-0.7-1.3
				c0.2,0,0.5,0,0.8-0.1l0.5,0C232.3,157.9,232.5,158.6,232.5,159.3z"/>
			<path class="st42" d="M244.7,147.5L244.7,147.5c-0.3-0.2-0.6-0.4-1-0.5c-0.1-0.2-0.1-0.5-0.1-0.7c-0.1-0.3-0.1-0.7-0.2-1
				c0.1,0,0.2,0,0.3,0c0.4,0,0.9,0,1.3,0C244.9,145.9,244.9,146.7,244.7,147.5z"/>
			<path class="st42" d="M277.9,156.9c-0.2,0.2-0.4,0.3-0.6,0.5c-0.1,0.1-0.2,0.2-0.3,0.2c0-0.1,0-0.3,0-0.4c0-1.2,0.1-2.3,0.1-3.5
				C277.9,154.6,278.2,155.6,277.9,156.9z"/>
			<path class="st43" d="M230,155.3c-0.2,0.4-0.3,0.8-0.3,1.2c-0.1-0.1-0.2-0.3-0.3-0.5C229.6,155.8,229.8,155.5,230,155.3z"/>
			<path class="st43" d="M230.2,152.3c0,0.2,0,0.5-0.1,0.7c-0.2,0-0.4,0-0.6,0C229.8,152.8,230,152.5,230.2,152.3z"/>
			<path class="st44" d="M244.8,147.5c-0.3-0.2-0.7-0.4-1-0.5c-0.1-0.2-0.1-0.5-0.1-0.7c-0.1-0.3-0.1-0.7-0.2-1c0.1,0,0.2,0,0.3,0
				C244,146.1,244.3,146.9,244.8,147.5L244.8,147.5z"/>
			<path class="st44" d="M244.7,147.5L244.7,147.5c-0.3-0.2-0.6-0.4-1-0.5c-0.1-0.2-0.1-0.5-0.1-0.7c-0.1-0.3-0.1-0.7-0.2-1
				c0.1,0,0.2,0,0.3,0c0.4,0,0.9,0,1.3,0C244.9,145.9,244.9,146.7,244.7,147.5z"/>
			<path class="st44" d="M249.6,138.3c-0.9-0.2-1.8-0.3-2.7-0.5C247.7,137.7,248.6,137.8,249.6,138.3z"/>
			<path class="st44" d="M257.3,139.9c-0.4,0.3-0.8,0.5-1.1,0.9c-0.5-0.4-1-0.7-1.5-0.9C255.6,139.9,256.5,139.9,257.3,139.9z"/>
			<path class="st44" d="M275.6,140.7c-1-0.2-2-0.4-3-0.7c-1.9-0.5-3.7-1.1-5.6-1.5c2.2-0.2,4.5-0.2,6.7,0.9c2-0.6,3-2.1,3.4-4
				c0,0.1,0.1,0.2,0.1,0.3c0,0.1,0.1,0.2,0.1,0.3C277.9,138,277.8,139.7,275.6,140.7z"/>
			<path class="st45" d="M241.8,135.7c-0.6-0.4-1.1-0.9-1.6-1.5c-0.1,0.1-0.2,0.2-0.3,0.3c0,0.1,0,0.1-0.1,0.2c0-0.1,0-0.1,0-0.2
				c0.1-0.2,0.1-0.4,0.2-0.6c0,0,0-0.1,0-0.1c0.1-0.3,0.2-0.5,0.2-0.8c0.1,0,0.1,0.1,0.2,0.1c0,0,0,0,0,0c0,0.1-0.1,0.1-0.1,0.2
				c0.1,0.3,0.1,0.5-0.1,0.8c0.3,0.3,0.6,0.5,0.9,0.8C241.4,135.2,241.6,135.4,241.8,135.7z"/>
			<path class="st45" d="M245,145.3c-0.1,0.6-0.2,1.4-0.3,2.2c-0.4-0.4-0.8-0.8-1.1-1.2c-0.1-0.3-0.1-0.7-0.2-1c0.1,0,0.2,0,0.3,0
				C244.2,145.3,244.6,145.3,245,145.3z"/>
			<path class="st45" d="M249.6,138.3c-0.9-0.2-1.8-0.3-2.7-0.5C247.7,137.7,248.6,137.8,249.6,138.3z"/>
			<path class="st45" d="M257.3,139.9c-0.4,0.3-0.8,0.5-1.1,0.9c-0.5-0.4-1-0.7-1.5-0.9C255.6,139.9,256.5,139.9,257.3,139.9z"/>
			<path class="st45" d="M267.1,138.5c-1.2,0.1-2.3,0.3-3.5,0.5c-2.1,0.3-4.2,0.8-6.2,0.9C260.6,137.7,263.8,137.8,267.1,138.5z"/>
			<path class="st45" d="M273.7,139.4c-0.4,0.2-0.8,0.4-1.1,0.6c-1.9-0.5-3.7-1.1-5.6-1.5C269.3,138.2,271.6,138.3,273.7,139.4z"/>
			<path class="st46" d="M237.3,139.1c-0.6,0.3-1.3,0.4-2.2,0.4c0.5-1,0.9-2.1,1.4-3.1c0.5,0.7,0.7,1.6,0.8,2.6
				C237.3,139,237.3,139,237.3,139.1z"/>
			<path class="st46" d="M241.8,135.7c-0.6-0.4-1.1-0.9-1.6-1.5c-0.1,0.1-0.2,0.2-0.3,0.3c0,0.1,0,0.1-0.1,0.2c0-0.1,0-0.1,0-0.2
				c0.1-0.2,0.1-0.4,0.2-0.6c-0.1-0.1-0.2-0.2-0.3-0.3c0.1,0.1,0.2,0.1,0.3,0.2c0,0,0,0,0.1,0c0.1,0.1,0.2,0.1,0.2,0.2
				c0.3,0.3,0.6,0.5,0.9,0.8C241.4,135.2,241.6,135.4,241.8,135.7z"/>
			<path class="st22" d="M241.4,129.7c-0.3,0.3-0.6,0.5-0.8,0.8c0-0.7,0-1.4-0.1-2.1c0.1,0,0.1-0.1,0.2-0.1
				C240.9,128.8,241.1,129.3,241.4,129.7z"/>
			<path class="st22" d="M241.8,135.7c-0.6-0.4-1.1-0.9-1.6-1.5c-0.1-0.1-0.1-0.1-0.2-0.2c0,0,0,0,0-0.1c-0.1-0.1-0.2-0.2-0.3-0.3
				c0.1,0.1,0.2,0.1,0.3,0.2c0.1-0.3,0.2-0.5,0.2-0.8c0.1,0,0.1,0.1,0.2,0.1c0,0,0,0,0,0c0,0.1-0.1,0.1-0.1,0.2
				c0.1,0.3,0.1,0.5-0.1,0.8c0.3,0.3,0.6,0.5,0.9,0.8C241.4,135.2,241.6,135.4,241.8,135.7z"/>
			<path class="st22" d="M249.6,138.3c-0.9-0.2-1.8-0.3-2.7-0.5C247.7,137.7,248.6,137.8,249.6,138.3z"/>
			<path class="st22" d="M257.3,139.9c-0.4,0.3-0.8,0.5-1.1,0.9c-0.5-0.4-1-0.7-1.5-0.9C255.6,139.9,256.5,139.9,257.3,139.9z"/>
			<path class="st22" d="M275.6,140.7c-1-0.2-2-0.4-3-0.7c-1.9-0.5-3.7-1.1-5.6-1.5c2.2-0.2,4.5-0.2,6.7,0.9c2-0.6,3-2.1,3.4-4
				c0,0.1,0.1,0.2,0.1,0.3c0,0.1,0.1,0.2,0.1,0.3C277.9,138,277.8,139.7,275.6,140.7z"/>
			<path class="st47" d="M239.6,124.9c-0.2,0.2-0.4,0.4-0.6,0.5c-0.3,0.2-0.5,0.5-0.8,0.7c0-0.4,0-0.7,0-1.1c0,0,0-0.1,0-0.1
				C238.8,125,239.3,125,239.6,124.9z"/>
			<path class="st47" d="M240.3,134.1c0,0.1-0.1,0.1-0.1,0.2c-0.1,0.1-0.2,0.2-0.3,0.3c0,0,0,0,0,0c0.1-0.2,0.1-0.4,0.2-0.6
				c-0.1-0.1-0.2-0.2-0.3-0.3c0.1,0.1,0.2,0.1,0.3,0.2c0.1-0.3,0.2-0.5,0.2-0.8c0,0.1,0.1,0.2,0.1,0.3
				C240.4,133.6,240.4,133.8,240.3,134.1z"/>
			<path class="st47" d="M241.4,129.7c-0.3,0.3-0.6,0.5-0.8,0.8c0-0.7,0-1.4-0.1-2.1c0.1,0,0.1-0.1,0.2-0.1
				C240.9,128.8,241.1,129.3,241.4,129.7z"/>
			<path class="st47" d="M238.3,94c-0.2,0.5-0.5,0.7-0.9,0.7c-0.2,0-0.4-0.1-0.7-0.3c0.1,0,0.2,0,0.3-0.1
				C237.4,94.2,237.8,94.1,238.3,94z"/>
			<path class="st47" d="M238.5,101.9c-0.2,0.2-0.3,0.3-0.5,0.5c0-0.3-0.1-0.6-0.1-0.9C238.1,101.6,238.3,101.8,238.5,101.9z"/>
			<path class="st47" d="M241.7,106.2c-0.2-0.1-0.5-0.2-0.7-0.3c-0.4-1.1-0.8-2.1-1.3-3.2c0.3,0.2,0.6,0.4,0.9,0.6
				C241.1,104.3,241.5,105.2,241.7,106.2z"/>
			<path class="st47" d="M243.5,115.3c-0.3-0.3-0.5-0.7-0.8-1.1c-0.1,0.1-0.2,0.3-0.3,0.4c0-0.3,0-0.6,0-0.9c-1.4-2.4-2-4.8-0.7-7.6
				v0c0,0,0,0,0,0c0.1-0.2,0.2-0.4,0.3-0.6c0,0.2,0.1,0.5,0.1,0.7c0.4,2.4,0.7,4.8,1.1,7.3C243.3,114.2,243.4,114.7,243.5,115.3z"/>
			<path class="st47" d="M243.2,123.3c-0.1,0.3-0.2,0.7-0.3,1c-0.2-0.1-0.3-0.3-0.4-0.5C242.7,123.7,243,123.5,243.2,123.3z"/>
			<path class="st48" d="M243.2,123.3c-0.1,0.3-0.2,0.7-0.3,1c-0.2-0.1-0.3-0.3-0.4-0.5C242.7,123.7,243,123.5,243.2,123.3z"/>
			<path class="st48" d="M276.8,129.8c-0.2-0.1-0.4-0.1-0.6-0.2c-2.4-1.1-2.1-5.7-5.7-5c0,0,0,0,0,0c2.4-1.2,3.7-3,3.5-6.5
				C277,121.5,274.8,126.1,276.8,129.8z"/>
			<path class="st49" d="M243.2,123.3c-0.1,0.3-0.2,0.7-0.3,1c-0.2-0.1-0.3-0.3-0.4-0.5C242.7,123.7,243,123.5,243.2,123.3z"/>
			<path class="st49" d="M243.5,115.3c-0.3-0.3-0.5-0.7-0.8-1.1c0.2-0.2,0.3-0.4,0.5-0.6C243.3,114.2,243.4,114.7,243.5,115.3z"/>
			<path class="st49" d="M272.3,113.6c-2.2,1-4.4,0.4-6.6,0.1l0,0c-1.2-0.4-2.5-0.7-2.4-2.4c0-0.1,0.2-0.4,0.4-0.5
				c0.3,0.1,0.6,0.2,0.9,0.2c0,0,0.1,0,0.1,0c0.7,0.1,1.3,0.2,2,0.3C268.6,111.8,270.3,113,272.3,113.6z"/>
			<path class="st49" d="M265.7,113.7C265.7,113.7,265.7,113.7,265.7,113.7c-1.2-0.4-2.5-0.7-2.5-2.4c0-0.1,0.2-0.4,0.4-0.5
				c0.1,0,0.1,0,0.1,0c0.3,0.1,0.6,0.2,0.8,0.3C265.4,111.6,265.4,112.7,265.7,113.7C265.7,113.7,265.7,113.7,265.7,113.7z"/>
			<polygon class="st49" points="265.7,113.7 265.7,113.7 265.7,113.7 			"/>
			<path class="st50" d="M242.2,106.3c0.4,2.4,0.7,4.8,1.1,7.3c0.1,0.6,0.2,1.1,0.3,1.7c-0.3-0.3-0.5-0.7-0.8-1.1
				c-0.1-0.1-0.2-0.3-0.3-0.4c-1.4-2.4-2-4.8-0.7-7.6v0c0,0,0,0,0,0c0.1-0.2,0.2-0.4,0.3-0.6c0.4,0,0.7,0,1.1,0
				c1.7-1.5,3.5-2.3,5.4-2.7c-1.7,0.6-3.3,1.8-4.8,3.2c-0.1,0.1-0.3,0.3-0.4,0.4C242.9,106.5,242.5,106.4,242.2,106.3z"/>
			<path class="st50" d="M262.3,101.6c-2.1,1.6-4.7,2-7.2,1.2c-0.6-0.2-1.1-0.3-1.6-0.4c0.7,0,1.5,0.1,2.2,0.1
				C257.9,102.7,260.1,102.2,262.3,101.6z"/>
			<path class="st50" d="M272.3,113.6c-2.2,1-4.4,0.4-6.6,0.1l0,0c-1.2-0.4-2.5-0.7-2.4-2.4c0-0.1,0.2-0.4,0.4-0.5
				c0.1,0,0.1,0,0.1,0c0.3,0.1,0.6,0.2,0.8,0.3c0.7,0.1,1.3,0.2,2,0.3C268.6,111.8,270.3,113,272.3,113.6z"/>
			<path class="st51" d="M248.6,102.8c-1.7,0.6-3.3,1.8-4.8,3.2c-0.2-0.1-0.4-0.3-0.6-0.4C244.8,104.1,246.6,103.3,248.6,102.8z"/>
			<path class="st51" d="M262.3,101.6c-2.1,1.6-4.7,2-7.2,1.2c-0.6-0.2-1.1-0.3-1.6-0.4c0.7,0,1.5,0.1,2.2,0.1
				C257.9,102.7,260.1,102.2,262.3,101.6z"/>
			<path class="st51" d="M265.7,100.8c-1.2,0.2-2.3,0.6-3.4,0.9c0.9-0.7,1.7-1.5,2.3-2.6C265,99.6,265.3,100.2,265.7,100.8z"/>
			<path class="st52" d="M238.2,92.6c0,0.4,0,0.9,0.1,1.3c-0.2,0.5-0.5,0.7-0.9,0.7c-0.2,0-0.4-0.1-0.7-0.3c0.2,1,0.3,2.1,0.5,3.1
				c-0.3-0.8-0.7-1.6-0.9-2.4c-0.1-0.3-0.1-0.5-0.1-0.8c0-0.3-0.1-0.6-0.1-0.8c0-0.2,0-0.5,0-0.7c0-0.6,0-1.2,0.1-1.8
				c0.1-0.6,0.2-1.1,0.3-1.7c0,0,0.1-0.1,0.1-0.1c0,0,0.1-0.1,0.1-0.1c0.3-0.3,0.6-0.6,0.9-0.8c0.1,0,0.1-0.1,0.2-0.1
				c0,0.1,0,0.1,0.1,0.1c0.2,0.4,0.4,0.8,0.6,1.2C238.3,90.5,238.2,91.6,238.2,92.6z"/>
			<path class="st52" d="M241.7,106.2c-0.2-0.1-0.5-0.2-0.7-0.3c-0.4-1.1-0.8-2.1-1.3-3.2c0.3,0.2,0.6,0.4,0.9,0.6
				C241.1,104.3,241.5,105.2,241.7,106.2z"/>
			<path class="st52" d="M248.6,102.8c-1.7,0.6-3.3,1.8-4.8,3.2c-0.1,0.1-0.3,0.3-0.4,0.4c-0.4,0-0.8,0-1.2-0.1
				c-0.1,0-0.3-0.1-0.4-0.1c0.1-0.2,0.2-0.4,0.3-0.6c0.4,0,0.7,0,1.1,0C244.8,104.1,246.6,103.3,248.6,102.8z"/>
			<path class="st52" d="M253.2,90.4c-0.4-0.1-0.7-0.2-1.1-0.3c0.2-0.2,0.4-0.3,0.6-0.5l1.6-2.7C255.7,88.5,254.9,89.6,253.2,90.4z"
				/>
			<path class="st52" d="M262.3,101.6c-2.1,1.6-4.7,2-7.2,1.2c-0.6-0.2-1.1-0.3-1.6-0.4c0.7,0,1.5,0.1,2.2,0.1
				C257.9,102.7,260.1,102.2,262.3,101.6z"/>
			<path class="st53" d="M238.3,89.5c-0.7,0-1.3,0-1.7-0.2c-0.1,0-0.1,0-0.2-0.1c-0.5-0.3-0.6-0.7-0.5-1.2c0-0.1,0-0.1,0-0.2
				c0.1-0.5,0.4-1,0.8-1.6c0.3,0.6,0.6,1.3,0.9,1.9c0,0.1,0,0.1,0.1,0.1C237.9,88.7,238.1,89.1,238.3,89.5z"/>
			<path class="st54" d="M234.8,83.3c-0.3,0.3-0.6,0.5-0.8,0.8c-0.2,0.2-0.4,0.4-0.6,0.6c-0.3-0.7-0.3-1.2-0.1-1.4
				C233.5,83,234,83.1,234.8,83.3z"/>
			<path class="st54" d="M238.3,89.5c0,1-0.1,2.1-0.1,3.1c-0.9-0.5-1.6-1-2.2-1.7c0.1-0.6,0.2-1.1,0.3-1.7c0,0,0.1-0.1,0.1-0.1
				c-0.5-0.3-0.6-0.7-0.5-1.2c0-0.1,0-0.1,0-0.2c0.1-0.5,0.4-1,0.8-1.6c0.3,0.6,0.6,1.3,0.9,1.9c0,0.1,0,0.1,0.1,0.1
				C237.9,88.7,238.1,89.1,238.3,89.5z"/>
			<path class="st55" d="M234.8,83.3c-0.3,0.3-0.6,0.5-0.8,0.8c-0.2,0.2-0.4,0.4-0.6,0.6c-0.2-0.1-0.5-0.1-0.7-0.2
				c-0.2,0-0.3-0.1-0.5-0.1c-0.1-0.3-0.2-0.7-0.3-1c-0.2-0.6-0.3-1.1-0.5-1.7c0.3,0.3,0.7,0.5,1,0.8c0.1,0.1,0.2,0.2,0.3,0.3
				c0.2,0.1,0.3,0.3,0.5,0.4C233.5,83,234,83.1,234.8,83.3z"/>
			<path class="st56" d="M234,84.1c-0.2,0.2-0.4,0.4-0.6,0.6c0.1,0.4,0.2,0.8,0.3,1.2c-0.2-0.3-0.5-0.6-0.7-0.9
				c-0.1-0.2-0.2-0.3-0.3-0.5c-0.1-0.1-0.2-0.3-0.3-0.4c-0.2-0.2-0.3-0.5-0.5-0.7c-0.2-0.6-0.3-1.1-0.5-1.7c0.3,0.3,0.7,0.5,1,0.8
				c0.1,0.1,0.2,0.2,0.3,0.3c0.2,0.1,0.3,0.3,0.5,0.4c0.2-0.3,0.8-0.2,1.6,0C234.6,83.6,234.3,83.9,234,84.1z"/>
			<path class="st56" d="M237.8,88.3c-0.1,0-0.2,0-0.2,0c-0.4,0-0.8-0.1-1.2-0.1c-0.1,0-0.1-0.1-0.2-0.1c-0.1,0-0.1-0.1-0.2-0.1
				c0-0.1,0-0.1,0-0.2c0.1-0.5,0.4-1,0.8-1.6c0.3,0.6,0.6,1.3,0.9,1.9C237.7,88.2,237.7,88.3,237.8,88.3z"/>
			<path class="st56" d="M253.2,90.4c-0.4-0.1-0.7-0.2-1.1-0.3c0.2-0.2,0.4-0.3,0.6-0.5l1.6-2.7C255.7,88.5,254.9,89.6,253.2,90.4z"
				/>
			<path class="st57" d="M220.5,65.4c-0.5,0-1.1-0.1-1.6-0.1c0.4-0.5,1-0.7,1.6-0.6C220.5,64.9,220.5,65.1,220.5,65.4z"/>
			<path class="st58" d="M274.7,278c-0.2-0.1-0.3-0.2-0.5-0.3c-0.3-0.1-0.5-0.3-0.8-0.4c0.1-0.3,0.2-0.6,0.3-0.9
				C274.1,276.9,274.5,277.4,274.7,278z"/>
			<path class="st59" d="M274.7,278c-0.2-0.1-0.3-0.2-0.5-0.3c-0.3-0.1-0.5-0.3-0.8-0.4c0.1-0.3,0.2-0.6,0.3-0.9
				C274.1,276.9,274.5,277.4,274.7,278z"/>
			<path class="st59" d="M274.7,278c-0.2-0.1-0.3-0.2-0.5-0.3c-0.3-0.1-0.5-0.3-0.8-0.4c0.1-0.3,0.2-0.6,0.3-0.9
				C274.1,276.9,274.5,277.4,274.7,278z"/>
			<path class="st24" d="M269.2,261.6c-0.1,0.1-0.2,0.2-0.2,0.2C269,261.8,269.1,261.7,269.2,261.6z"/>
			<path class="st24" d="M271.5,261c-0.4,0-0.8-0.1-1.2-0.2c-0.3,0.4-0.8,0.5-1.2,0.8c0.3-0.3,0.6-0.6,0.9-0.9
				c-0.4-0.2-0.8-0.4-1.2-0.8c0.6,0.1,1.1,0.3,1.6,0.5c0,0,0.1,0,0.1,0.1C270.9,260.6,271.2,260.8,271.5,261z"/>
			<path class="st24" d="M274.2,277.7c-0.3-0.1-0.5-0.3-0.8-0.4c0.1-0.3,0.2-0.6,0.3-0.9C273.9,276.9,274.1,277.3,274.2,277.7z"/>
			<path class="st60" d="M271.5,261c-0.4,0-0.8-0.1-1.2-0.2c-0.3,0.4-0.8,0.5-1.2,0.8c0.3-0.3,0.6-0.6,0.9-0.9
				c0.1-0.1,0.2-0.2,0.3-0.3c0,0,0.1-0.1,0.1-0.1c0,0.1,0,0.1,0,0.2C270.9,260.6,271.2,260.8,271.5,261z"/>
			<path class="st24" d="M271.5,261c-0.4,0-0.8-0.1-1.2-0.2c-0.1,0-0.2-0.1-0.3-0.1c-0.4-0.2-0.8-0.4-1.2-0.8
				c0.6,0.1,1.1,0.3,1.6,0.5c0,0,0.1-0.1,0.1-0.1c0,0.1,0,0.1,0,0.2C270.9,260.6,271.2,260.8,271.5,261z"/>
			<path class="st24" d="M273.1,241.3c-0.3,1-0.6,1.9-0.9,2.9c-0.5-0.4-0.9-0.8-1.1-1.2C271.7,242.3,272.4,241.7,273.1,241.3z"/>
			<path class="st24" d="M279.2,239.8c-0.8,0.1-1.5,0.2-2.3,0C277.7,239.8,278.5,239.8,279.2,239.8z"/>
			<path class="st61" d="M270.5,260.3c0,0.1,0,0.1,0,0.2c0,0.1-0.1,0.3-0.1,0.4c-0.3,0.4-0.8,0.5-1.2,0.8c0.3-0.3,0.6-0.6,0.9-0.9
				c-0.4-0.2-0.8-0.4-1.2-0.8c0.6,0.1,1.1,0.3,1.6,0.5C270.4,260.4,270.5,260.3,270.5,260.3z"/>
			<path class="st8" d="M273.1,241.3c-0.3,1-0.6,1.9-0.9,2.9c-0.5-0.4-0.9-0.8-1.1-1.2C271.7,242.3,272.4,241.7,273.1,241.3z"/>
			<path class="st62" d="M273.1,241.3c-0.3,1-0.6,1.9-0.9,2.9c-0.5-0.4-0.9-0.8-1.1-1.2C271.7,242.3,272.4,241.7,273.1,241.3z"/>
			<path class="st62" d="M279.2,239.8c-0.8,0.1-1.5,0.2-2.3,0C277.7,239.8,278.5,239.8,279.2,239.8z"/>
			<path class="st63" d="M278.5,223.2c-0.2,0.4-0.4,0.8-0.6,1.2c-0.3,0.7-0.6,1.4-1,2c-0.7-0.6-0.7-1.4-0.7-2.2c0-0.3,0-0.6,0-0.9
				c0.2-0.2,0.5-0.3,0.8-0.3C277.5,222.9,277.9,223,278.5,223.2L278.5,223.2z"/>
			<path class="st63" d="M279.2,239.8c-0.8,0.1-1.5,0.2-2.3,0C277.7,239.8,278.5,239.8,279.2,239.8z"/>
			<path class="st11" d="M276.1,222.7c-0.1,0.1-0.2,0.2-0.3,0.3c-0.1-0.4-0.3-0.9-0.4-1.3C275.8,221.9,276,222.3,276.1,222.7z"/>
			<path class="st64" d="M276.1,222.7c-0.1,0.1-0.2,0.2-0.3,0.3c-0.1-0.4-0.3-0.9-0.4-1.3C275.8,221.9,276,222.3,276.1,222.7z"/>
			<path class="st64" d="M280,218.2c-0.5,1.7-1,3.3-1.5,5c-0.2,0.4-0.4,0.8-0.6,1.2c-0.3,0.7-0.6,1.4-1,2c-0.2-0.7-0.5-1.4-0.7-2.2
				c0-0.3,0-0.6,0-0.9c0.2-0.2,0.5-0.3,0.8-0.3c-0.1-0.3-0.2-0.6-0.3-0.9c0.9-1,1.4-2.4,1.9-3.7c-0.4-0.2-0.5-0.6-0.1-1.6
				c0.2,0.2,0.3,0.3,0.5,0.5C279.4,217.6,279.7,217.9,280,218.2L280,218.2z"/>
			<path class="st65" d="M276.1,222.7c-0.1,0.1-0.2,0.2-0.3,0.3c-0.1-0.4-0.3-0.9-0.4-1.3C275.8,221.9,276,222.3,276.1,222.7z"/>
			<path class="st65" d="M279.1,217c0,0.1-0.1,0.2-0.1,0.2c-0.1,0.4-0.3,0.7-0.4,1.1c-0.4-0.2-0.5-0.6-0.1-1.6l0.1-1.9
				c-0.1,0-0.1,0.1-0.2,0.1c0.1-0.1,0.1-0.2,0.2-0.3c0-0.3,0-0.6,0-1h0c0.1,0.1,0.2,0.3,0.3,0.4c0.1,0.2,0.2,0.4,0.3,0.6
				C279.5,215.4,279.3,216.2,279.1,217z"/>
			<path class="st63" d="M313.1,222.7c-0.1,0.7-0.4,1.4-0.6,2.1c-0.4-0.6-0.7-1.3-1-1.8c0-1,0.2-1.7,1.2-1.6
				C312.8,221.5,313.1,222.3,313.1,222.7z"/>
			<path class="st66" d="M283.4,211c-0.4,0.9-0.9,1.8-1.3,2.6c-0.7,1.5-1.4,3.1-2,4.6h0l0,0c-0.5,1.7-1,3.3-1.5,5
				c-0.2,0.4-0.4,0.8-0.6,1.2c-0.2-0.2-0.4-0.4-0.5-0.7c-0.1-0.2-0.2-0.4-0.3-0.6c-0.1-0.3-0.2-0.6-0.3-0.9c0.9-1,1.4-2.4,1.9-3.7
				c-0.4-0.2-0.5-0.6-0.1-1.6l0.1-1.9c-0.1,0-0.1,0.1-0.2,0.1c0.1-0.1,0.1-0.2,0.2-0.3c0.1-0.2,0.2-0.4,0.3-0.6
				c0.4-0.6,0.8-1.1,1.4-1.6c0.5-0.3,1.1-0.6,1.6-0.8c0.3-0.1,0.6-0.3,1-0.4C283.1,211.1,283.2,211,283.4,211z"/>
			<path class="st66" d="M299.5,213.5c-1.1-0.5-2.1-1.1-3.2-1.6c0,0.5,0,1-0.1,1.5c-0.8-1.1-1.2-2.3-1.4-3.4
				c0.5-0.1,1.1-0.1,1.7-0.1c0.1,0,0.2,0,0.3,0c0.3,0,0.5,0.1,0.8,0.2c0.3,0.1,0.6,0.2,0.9,0.3c0,0,0.1,0,0.1,0
				C298.7,211.4,299.1,212.5,299.5,213.5z"/>
			<path class="st66" d="M313.1,222.7c-0.1,0.7-0.4,1.4-0.6,2.1c-0.4-0.6-0.7-1.3-1-1.8c0-1,0.2-1.7,1.2-1.6
				C312.8,221.5,313.1,222.3,313.1,222.7z"/>
			<path class="st67" d="M282.9,211.1c0.1-0.1,0.3-0.1,0.4-0.2c-0.4,0.9-0.9,1.8-1.3,2.6c-0.7,1.5-1.4,3.1-2,4.6h0
				c-0.6,0.2-1.1,0.3-1.4,0.2c-0.4-0.2-0.5-0.6-0.1-1.6l0.1-1.9c0-0.1,0-0.2,0-0.3c0-0.3,0-0.6,0-1h0v0c1.8-1.8,2.7-4,3.2-6.5
				c0.5-0.5,0.9-1.1,1.3-1.7c0.2,0.4,0.3,0.8,0.5,1.2c0.2-0.1,0.4-0.1,0.5-0.2c-0.1,0.2-0.3,0.4-0.4,0.6c0,0.1,0.1,0.2,0.1,0.3
				C284.1,209,283.6,210.1,282.9,211.1z"/>
			<path class="st67" d="M286.8,204L286.8,204c-0.2,0.5-0.5,1-0.7,1.5c-0.5,0.4-1.2,0.8-1.9,1.1c0.7-1,1.4-2,2-3.1
				c0.3-0.1,0.7-0.2,1-0.3C287,203.4,286.9,203.7,286.8,204z"/>
			<path class="st67" d="M287.4,199.5C287.4,199.5,287.4,199.5,287.4,199.5c-0.6,0.3-1.1,0.6-1.6,0.8c0.3-0.9,0.6-1.9,0.8-2.9
				C287,198.2,287.2,198.8,287.4,199.5z"/>
			<path class="st67" d="M289.8,196.1c0,0.3,0,0.5,0,0.8c-0.2,0.5-0.5,1-0.8,1.4C289.3,197.5,289.6,196.8,289.8,196.1z"/>
			<path class="st67" d="M290.6,196.3c-0.2-0.1-0.5-0.2-0.7-0.4c0,0.1-0.1,0.2-0.1,0.3v-0.3h-1.6c0.5-0.4,1.1-0.4,1.5-0.3
				c0.1,0.1,0.3,0.1,0.4,0.2c0.1,0.1,0.2,0.2,0.3,0.2C290.6,196.1,290.6,196.2,290.6,196.3z"/>
			<path class="st68" d="M277.5,202.1c-2.9,0-5.8-0.6-8.8-1.2C271.7,200.9,274.6,201.7,277.5,202.1z"/>
			<path class="st68" d="M282.9,211.1c-0.3,0.4-0.6,0.8-1,1.1c-0.7,0.7-1.4,1.3-2.1,2.1c-0.2,0.1-0.4,0.2-0.6,0.3
				c-0.2,0.1-0.4,0.2-0.6,0.3c-0.1,0-0.1,0.1-0.2,0.1c0.1-0.1,0.1-0.2,0.2-0.3c0-0.3,0-0.6,0-1h0v0c1.8-1.8,2.7-4,3.2-6.5
				c0.5-0.5,0.9-1.1,1.3-1.7c0.2,0.4,0.3,0.8,0.5,1.2c0,0.1,0.1,0.3,0.1,0.4c0,0.1,0.1,0.2,0.1,0.3
				C284.1,209,283.6,210.1,282.9,211.1z"/>
			<path class="st69" d="M282.9,211.1c0.1-0.1,0.3-0.1,0.4-0.2c-0.4,0.9-0.9,1.8-1.3,2.6c-0.1-0.5-0.1-0.9-0.1-1.3
				c0-0.2,0-0.5,0-0.7c0.2-1.7,0.9-3.1,1.8-4.4c0,0.1,0.1,0.2,0.1,0.3C284.1,209,283.6,210.1,282.9,211.1z"/>
			<path class="st69" d="M287.4,203.7c-0.1,0.2-0.2,0.4-0.3,0.5c-0.3,0.4-0.6,0.8-1,1.2c-0.5,0.4-1.2,0.8-1.9,1.1c0.7-1,1.4-2,2-3.1
				c0.3-0.1,0.7-0.2,1-0.3c-0.1,0.3-0.2,0.6-0.3,0.9l0,0C287,203.9,287.2,203.8,287.4,203.7z"/>
			<path class="st69" d="M296.3,213.5c-0.8-1.1-1.2-2.3-1.4-3.4c0.5-0.1,1.1-0.1,1.7-0.1C296.2,211.1,296,212.3,296.3,213.5z"/>
			<path class="st70" d="M301.1,209.9c-0.7-0.5-1.3-1-1.9-1.6c-0.2,0.7-0.3,1.4-0.6,2c-0.1-0.6,0-1.2,0.1-1.8c0-0.2,0.1-0.4,0.1-0.6
				c0,0,0,0,0,0c0.2-0.2,0.5-0.5,0.7-0.7C300.6,208,301.1,208.9,301.1,209.9z"/>
			<path class="st71" d="M298.6,210.4c0.1,1.1,0.5,2.1,0.9,3.2c-1.1-0.5-2.1-1.1-3.2-1.6c0.4-0.6,0.8-1.3,1.3-1.9
				c0.4-0.6,0.7-1.1,1.1-1.7c0.1-0.1,0.2-0.3,0.3-0.4c0.2-0.3,0.4-0.6,0.6-0.9c1.1,0.9,1.6,1.8,1.6,2.8c-0.7-0.5-1.3-1-1.9-1.6
				c-0.2,0.7-0.3,1.4-0.6,2C298.6,210.3,298.6,210.3,298.6,210.4z"/>
			<path class="st72" d="M299.5,207.1c-0.1,0.4-0.2,0.7-0.3,1.1c-0.2,0.7-0.3,1.4-0.6,2c0,0,0,0.1-0.1,0.1c-0.4,0.8-1,1.4-2.2,1.6
				c0,0.5,0,1-0.1,1.5c-0.8-1.1-1.2-2.3-1.4-3.4c0.5-0.1,1.1-0.1,1.7-0.1c0.1,0,0.2,0,0.3,0c0.3,0,0.5,0.1,0.8,0.2
				c0.4-0.6,0.7-1.1,1.1-1.7c0-0.2,0.1-0.4,0.1-0.6c0,0,0,0,0,0C299,207.6,299.3,207.3,299.5,207.1z"/>
			<path class="st71" d="M301.1,209.9c-0.7-0.5-1.3-1-1.9-1.6c-0.1-0.1-0.2-0.2-0.2-0.3c0,0-0.1-0.1-0.1-0.1c0,0,0,0,0,0
				c0.2-0.2,0.5-0.5,0.7-0.7C300.6,208,301.1,208.9,301.1,209.9z"/>
			<path class="st73" d="M287.4,203.7c-0.1,0.2-0.2,0.4-0.3,0.5c-0.1-0.1-0.2-0.2-0.3-0.3C287,203.9,287.2,203.8,287.4,203.7z"/>
			<path class="st73" d="M289.8,196.1c0,0.3,0,0.5,0,0.8c-0.2,0.5-0.5,1-0.8,1.4C289.3,197.5,289.6,196.8,289.8,196.1z"/>
			<path class="st73" d="M290.6,196.3c-0.2-0.1-0.5-0.2-0.7-0.4c0.1,0,0.2,0,0.3,0c0.1,0.1,0.2,0.2,0.3,0.2
				C290.6,196.1,290.6,196.2,290.6,196.3z"/>
			<path class="st73" d="M295.4,198c-0.6-0.8-1-1.6-1.3-2.5C295.4,195.8,295.6,196.8,295.4,198z"/>
			<path class="st74" d="M277.5,202.1c-2.9,0-5.8-0.6-8.8-1.2C271.7,200.9,274.6,201.7,277.5,202.1z"/>
			<path class="st74" d="M283.6,206.7c-0.5,0.2-1.1,0.3-1.8,0.4c0.5-0.5,0.9-1.1,1.3-1.7C283.3,205.8,283.5,206.3,283.6,206.7z"/>
			<path class="st74" d="M287.4,203.7c-0.1,0.2-0.2,0.4-0.3,0.5c-0.3,0.4-0.6,0.8-1,1.2c-0.5,0.4-1.2,0.8-1.9,1.1c0.7-1,1.4-2,2-3.1
				c0.3-0.1,0.7-0.2,1-0.3c-0.1,0.3-0.2,0.6-0.3,0.9l0,0C287,203.9,287.2,203.8,287.4,203.7z"/>
			<path class="st74" d="M287.4,199.5C287.4,199.5,287.4,199.5,287.4,199.5c-0.6,0.3-1.1,0.6-1.6,0.8c0.3-0.9,0.6-1.9,0.8-2.9
				C287,198.2,287.2,198.8,287.4,199.5z"/>
			<path class="st75" d="M264.7,188.2c-0.4,0.3-0.9,0.6-1.2,1c-0.2,0-0.3,0.1-0.5,0.1c-0.2,0-0.4,0.1-0.6,0.1l0.3-0.3
				C263.3,188.8,264,188.5,264.7,188.2z"/>
			<path class="st75" d="M277.5,202.1c-2.9,0-5.8-0.6-8.8-1.2C271.7,200.9,274.6,201.7,277.5,202.1z"/>
			<path class="st75" d="M287.4,199.5C287.4,199.5,287.4,199.5,287.4,199.5c-0.6,0.3-1.1,0.6-1.6,0.8c0.3-0.9,0.6-1.9,0.8-2.9
				C287,198.2,287.2,198.8,287.4,199.5z"/>
			<path class="st75" d="M289.8,195.8h-1.6c0.5-0.4,1.1-0.4,1.5-0.3C289.8,195.7,289.8,195.8,289.8,195.8z"/>
			<path class="st75" d="M289.8,196.1c0,0.3,0,0.5,0,0.8c-0.2,0.5-0.5,1-0.8,1.4C289.3,197.5,289.6,196.8,289.8,196.1z"/>
			<path class="st76" d="M295.4,198c-0.6-0.8-1-1.6-1.3-2.5C295.4,195.8,295.6,196.8,295.4,198z"/>
			<path class="st76" d="M295.4,198.1C295.4,198.1,295.4,198.1,295.4,198.1C295.4,198.1,295.4,198.1,295.4,198.1
				C295.4,198,295.4,198.1,295.4,198.1z"/>
			<path class="st15" d="M295.4,198c-0.6-0.8-1-1.6-1.3-2.5C295.4,195.8,295.6,196.8,295.4,198z"/>
			<path class="st15" d="M297.9,182.9c-1,1.1-2.1,2.3-3.2,3.4c-0.5,1.3-0.9,2.6-1.4,3.9c-0.1-1.3-0.2-2.6-0.6-3.8
				c0.3-1.7,1.1-3,2.4-3.9h0c0.5-0.3,1.1-0.6,1.8-0.8C297.3,182.2,297.6,182.5,297.9,182.9z"/>
			<path class="st15" d="M304.4,187.8c0,0.1,0,0.2,0,0.3c0,0.4,0,0.9,0,1.3c-0.1,0.3-0.1,0.6-0.2,0.8c-0.3,1.3-0.7,2.6-1,3.9
				c-0.4,0.1-0.8,0.2-1.2,0.2c-0.8-2,0.1-3.5,2-4.8c-0.1-0.6,0-1.1,0.3-1.6c-0.2,0-0.5,0-0.7,0c-0.5-0.4-0.8-0.9-1.1-1.5
				c-0.1-0.2-0.2-0.4-0.2-0.6c-0.4-0.9-0.6-1.8-0.7-2.6c1,0.9,1.9,2,2.9,2.8C304.4,186.7,304.4,187.3,304.4,187.8z"/>
			<path class="st77" d="M322.1,192.6c-0.3,0-0.7,0-1-0.1C321.4,192.6,321.7,192.6,322.1,192.6z"/>
			<path class="st76" d="M304.4,189.4c-0.1,0.3-0.1,0.6-0.2,0.8c-0.3,1.3-0.7,2.6-1,3.9c-0.4,0.1-0.8,0.2-1.2,0.2
				c-0.8-2,0.1-3.5,2-4.8C304.1,189.6,304.2,189.5,304.4,189.4z"/>
			<path class="st78" d="M264.7,188.2c-0.4,0.3-0.9,0.6-1.2,1c-0.2,0-0.3,0.1-0.5,0.1c-0.1-0.1-0.2-0.1-0.3-0.2
				C263.3,188.8,264,188.5,264.7,188.2z"/>
			<path class="st78" d="M290.6,196.3c-0.2-0.1-0.5-0.2-0.7-0.4h-1.7c0.5-0.4,1.1-0.4,1.5-0.3c0.1,0.1,0.3,0.1,0.4,0.2
				c0.1,0.1,0.2,0.2,0.3,0.2C290.6,196.1,290.6,196.2,290.6,196.3z"/>
			<path class="st78" d="M297.9,182.9c-1,1.1-2.1,2.3-3.2,3.4c-0.5,1.3-0.9,2.6-1.4,3.9c-0.1-1.3-0.2-2.6-0.6-3.8
				c0.3-1.7,1.1-3,2.4-3.9h0c0.5-0.3,1.1-0.6,1.8-0.8C297.3,182.2,297.6,182.5,297.9,182.9z"/>
			<path class="st79" d="M304.4,187.8c0,0.1,0,0.2,0,0.3c0,0.4,0,0.9,0,1.3c-0.1,0.3-0.1,0.6-0.2,0.8c-0.1-0.1-0.1-0.2-0.2-0.3
				c0-0.1,0-0.2-0.1-0.3c-0.1-0.6,0-1.1,0.3-1.6C304.3,188,304.3,187.9,304.4,187.8z"/>
			<path class="st79" d="M322.1,192.6c-0.3,0-0.7,0-1-0.1C321.4,192.6,321.7,192.6,322.1,192.6z"/>
			<path class="st68" d="M304.4,187.8c0,0.1,0,0.2,0,0.3c-0.1,0-0.1,0-0.2,0c-0.2,0-0.5,0-0.7,0c-0.5-0.4-0.8-0.9-1.1-1.5
				c-0.1-0.2-0.2-0.4-0.2-0.6c-0.4-0.9-0.6-1.8-0.7-2.6c1,0.9,1.9,2,2.9,2.8C304.4,186.7,304.4,187.3,304.4,187.8z"/>
			<path class="st68" d="M306,178.1c-0.8-0.4-1.4-1.1-1.7-1.9c0.4-0.4,0.8-0.8,1.2-1.1c0.1-0.1,0.3-0.2,0.4-0.4c0,0,0.1-0.1,0.1-0.1
				c0,0.1,0,0.1,0,0.2C306,175.9,306,177,306,178.1z"/>
			<path class="st68" d="M316.1,170.9c-1,0.3-2.2,0.4-3.7,0.3C313.7,170.8,314.9,170.7,316.1,170.9z"/>
			<g>
				<path class="st80" d="M297.9,182.9c-1-0.4-1.8-0.5-2.7-0.3c0.5-0.3,1.1-0.6,1.8-0.8C297.3,182.2,297.6,182.5,297.9,182.9z"/>
				<path class="st80" d="M297.9,170c-0.8,0.6-1.6,1.2-2.5,1.6c-0.7-0.5-1.3-1-1.8-1.7C295.1,170,296.5,170.1,297.9,170z"/>
				<path class="st80" d="M304.4,186.2c-0.7,0.1-1.3,0.3-2,0.4c-0.1-0.2-0.2-0.4-0.2-0.6c-0.4-0.9-0.6-1.8-0.7-2.6
					C302.4,184.3,303.3,185.3,304.4,186.2z"/>
				<path class="st80" d="M306,178.1c-0.8-0.4-1.4-1.1-1.7-1.9c-0.1-0.2-0.1-0.3-0.2-0.5c-0.1-0.3-0.2-0.6-0.2-0.9
					c0-0.4,0-0.9,0-1.3c0.7,0.4,1.3,0.8,2,1.2c0,0,0.1,0,0.1,0.1C306,175.9,306,177,306,178.1z"/>
			</g>
			<path class="st81" d="M297.9,170c-0.8,0.6-1.6,1.2-2.5,1.6c-0.7-0.5-1.3-1-1.8-1.7c-0.1-0.1-0.1-0.2-0.2-0.3
				c-0.2-0.4-0.3-0.8-0.4-1.3c0.7,0.2,1.3,0.4,2,0.7C296,169.4,297,169.7,297.9,170z"/>
			<path class="st81" d="M304.3,162.1c-0.2,1.8-0.8,3-1.7,3.9c-0.2-0.3-0.5-0.6-0.7-0.9c-0.1-0.3-0.3-0.6-0.5-0.8
				C302.5,163.7,303.4,163,304.3,162.1z"/>
			<path class="st81" d="M307.6,168.4c-0.1,0.6-0.3,1.1-0.4,1.7c-0.4,1.5-0.8,3-1.2,4.6c0,0.1,0,0.1,0,0.2c-0.2,0.1-0.3,0.2-0.5,0.3
				c-0.5,0.3-0.9,0.5-1.4,0.6c-0.1-0.3-0.2-0.6-0.2-0.9c0-0.4,0-0.9,0-1.3c0.1-1.9,0.8-3.6,2.5-4.6c-0.3-0.5-0.4-1.1-0.4-1.8
				c0-0.1,0-0.3,0-0.4c0.1,0.1,0.2,0.2,0.3,0.3C306.7,167.6,307.1,168,307.6,168.4z"/>
			<path class="st82" d="M305.9,174.9c0,1.1,0,2.2,0.1,3.3c-0.8-0.4-1.4-1.1-1.7-1.9c-0.1-0.2-0.1-0.3-0.2-0.5
				c-0.1-0.3-0.2-0.6-0.2-0.9c0-0.4,0-0.9,0-1.3c0.1-1.9,0.8-3.6,2.5-4.6c0.4-0.2,0.8-0.4,1.2-0.6c-0.1,0.6-0.3,1.1-0.4,1.7
				c0.1,0.1,0.2,0.2,0.3,0.3c1.9,0.4,3.5,0.6,4.9,0.7c-2.1,0.5-4.3,1.7-6.4,3.5C306,174.7,306,174.8,305.9,174.9z"/>
			<path class="st82" d="M316.1,170.9c-1,0.3-2.2,0.4-3.7,0.3C313.7,170.8,314.9,170.7,316.1,170.9z"/>
			<path class="st16" d="M307.6,168.4c-0.1,0.6-0.3,1.1-0.4,1.7c-0.3-0.3-0.6-0.7-0.8-1.1c-0.3-0.5-0.4-1.1-0.4-1.8
				c0-0.1,0-0.3,0-0.4c0.1,0.1,0.2,0.2,0.3,0.3C306.7,167.6,307.1,168,307.6,168.4z"/>
			<path class="st16" d="M316.1,170.9c-1,0.3-2.2,0.4-3.7,0.3C313.7,170.8,314.9,170.7,316.1,170.9z"/>
			<path class="st39" d="M282.9,158c-0.4,0.2-0.8,0.4-1.1,0.8C282.2,158.3,282.6,158.1,282.9,158z"/>
			<path class="st39" d="M295,169.1c-0.5,0.2-1.1,0.4-1.6,0.6c-0.2-0.4-0.3-0.8-0.4-1.3C293.7,168.7,294.4,168.9,295,169.1z"/>
			<path class="st39" d="M304.3,162.1c-0.2,1.8-0.8,3-1.7,3.9c-0.2-0.3-0.5-0.6-0.7-0.9c-0.1-0.3-0.3-0.6-0.5-0.8
				C302.5,163.7,303.4,163,304.3,162.1z"/>
			<path class="st83" d="M280.5,161c-0.3-0.1-0.7-0.1-1-0.2c-1.4-0.7-2.3-1.7-2.5-3.2c0-0.1,0-0.3,0-0.4c0-1.2,0.1-2.3,0.1-3.5
				c0.8,0.9,1.1,2,0.8,3.2c-0.2,0.2-0.4,0.3-0.6,0.5c1,0.5,1.9,1,2.9,1.4C280.5,159.6,280.6,160.4,280.5,161z"/>
			<path class="st83" d="M282.9,158c-0.4,0.2-0.8,0.4-1.1,0.8C282.2,158.3,282.6,158.1,282.9,158z"/>
			<path class="st83" d="M304.3,162.1c-0.2,1.8-0.8,3-1.7,3.9c-0.2-0.3-0.5-0.6-0.7-0.9c-0.1-0.3-0.3-0.6-0.5-0.8
				C302.5,163.7,303.4,163,304.3,162.1z"/>
			<path class="st83" d="M304.5,150c0,0.8,0,1.5,0,2.3v0c-0.2,0.7-0.1,1.8-0.5,2.1c-1,0.7-1-0.5-1.3-1c-0.5-1.4-1-2.8-1.5-4.2
				c0-0.5,0-1.1,0-1.6c0-0.1-0.1-0.2-0.1-0.2c0.1,0,0.1,0,0.2,0.1c0.1,0,0.1,0,0.2,0.1c0.1,0,0.1,0.1,0.2,0.1
				c0.3,0.2,0.5,0.4,0.8,0.6c0.5,0.4,0.9,0.8,1.3,1.2C304,149.5,304.2,149.7,304.5,150z"/>
			<path class="st83" d="M306.3,167.1c-0.1,0-0.2,0.1-0.3,0.1c0-0.1,0-0.3,0-0.4C306.1,166.9,306.2,167,306.3,167.1z"/>
			<path class="st84" d="M317.8,153.8c-0.9-0.4-1.7-1.1-2.7-1.4c-0.1,0-0.3-0.1-0.4-0.1c-0.3,0-0.6,0-0.9,0.1
				c0.2-1.1,1.3-1.9,1.8-2.8C317.4,150.3,317.4,152.2,317.8,153.8z"/>
			<path class="st85" d="M304.5,150c0,0.8,0,1.5,0,2.3c-1-0.8-1.1-1.8-0.7-3C304,149.5,304.2,149.7,304.5,150z"/>
			<path class="st85" d="M311.3,146.6c-0.9,1.4-2.8,2.4-5.7,2.8l-0.1,0c-0.4,0-0.7-0.1-1.1-0.2c-0.1,0-0.2-0.1-0.3-0.1
				c0.1,0,0.1,0,0.2-0.1c0,0,0.1,0,0.1,0C306.8,148.4,309,147.4,311.3,146.6z"/>
			<path class="st85" d="M315.1,152.4c-0.1,0-0.3-0.1-0.4-0.1c-0.3,0-0.6,0-0.9,0.1c0.2-1.1,1.3-1.9,1.8-2.8
				C316,150.7,315.6,151.6,315.1,152.4z"/>
			<path class="st86" d="M302.8,147.5h-0.1c0,0,0,0.1-0.1,0.1c0,0,0-0.1,0-0.1c-0.1-0.2-0.2-0.4-0.2-0.6
				C302.5,147,302.7,147.2,302.8,147.5C302.8,147.4,302.8,147.5,302.8,147.5z"/>
			<path class="st86" d="M304.5,150c0,0.8,0,1.5,0,2.3v0c-0.2,0.7-0.1,1.8-0.5,2.1c-1,0.7-1-0.5-1.3-1c-0.5-1.4-1-2.8-1.5-4.2
				c0-0.5,0-1.1,0-1.6c0-0.1,0.1-0.1,0.1-0.2c0.1,0,0.1,0,0.2,0.1c0.1,0,0.1,0.1,0.2,0.1c0.3,0.2,0.5,0.4,0.8,0.6
				c0.5,0.4,0.9,0.8,1.3,1.2C304,149.5,304.2,149.7,304.5,150z"/>
			<path class="st86" d="M304.5,149.1L304.5,149.1c-0.1,0.1-0.2,0-0.3,0C304.2,149.1,304.3,149.1,304.5,149.1
				c-0.5-0.4-0.6-0.7-0.5-1c0.1-0.4,0.2-0.6,0.4-0.6C304.4,148,304.4,148.5,304.5,149.1C304.5,149.1,304.5,149.1,304.5,149.1z"/>
			<path class="st84" d="M311.3,146.6c-0.9,1.4-2.8,2.4-5.7,2.8c-0.4-0.1-0.7-0.2-1.1-0.3c0,0-0.1,0-0.1-0.1c-0.4-0.3-0.5-0.6-0.4-1
				c0.1-0.4,0.2-0.6,0.4-0.6c0,0.5,0.1,1,0.1,1.5C306.8,148.4,309,147.4,311.3,146.6z"/>
			<path class="st87" d="M299.6,136.1c-0.3,0.3-0.5,0.5-0.8,0.8c0,0,0-0.1,0-0.1c0-0.1,0-0.2,0-0.2c0-0.2,0-0.4-0.1-0.7
				c-0.1-0.9-0.3-1.7-0.5-2.5c0.1-0.3,0.1-0.5,0.2-0.8c0.1-0.4,0.2-0.8,0.3-1.1c0-0.1,0.1-0.2,0.1-0.2c0,0.2,0.1,0.4,0.1,0.6
				c0.2,0.4,0.4,0.8,0.7,1.1C299.5,134.1,299.6,135.1,299.6,136.1z"/>
			<path class="st87" d="M302.8,147.5h-0.1c0,0,0,0.1-0.1,0.1c0,0,0-0.1,0-0.1c-0.1-0.2-0.2-0.4-0.2-0.6
				C302.5,147,302.7,147.2,302.8,147.5c0-0.1,0-0.1,0-0.1c0,0,0,0,0-0.1C302.8,147.3,302.8,147.4,302.8,147.5z"/>
			<path class="st87" d="M302.8,147.3c-0.1-1.7-0.2-3.4-0.6-5C303,143.8,303.3,145.4,302.8,147.3z"/>
			<path class="st87" d="M311.3,146.6c-0.9,1.4-2.8,2.4-5.7,2.8l-0.1,0c-0.4,0-0.7-0.1-1.1-0.2c-0.1,0-0.2-0.1-0.3-0.1
				c0.1,0,0.1,0,0.2-0.1c-0.4-0.3-0.5-0.6-0.4-1c0.1-0.4,0.2-0.6,0.4-0.6c0,0.5,0.1,1,0.1,1.5C306.8,148.4,309,147.4,311.3,146.6z"
				/>
			<path class="st88" d="M297.3,137.1c-2.6,0.6-4.9,0.4-6.9-0.5C292.5,135.9,294.8,135.9,297.3,137.1z"/>
			<path class="st88" d="M298.8,137.9c-0.1,0.6-0.4,1.1-0.9,1.6c0-0.6,0-1.1,0-1.7c0-0.1,0-0.3,0-0.4c0.1,0,0.2,0.1,0.3,0.1
				c0,0,0,0,0,0C298.4,137.7,298.6,137.8,298.8,137.9z"/>
			<path class="st88" d="M302.4,148c-0.3,0.4-0.8,0.8-1.3,1.1c0-0.5,0-1.1,0-1.6c0-0.1-0.1-0.2-0.1-0.2c0.1,0,0.1,0,0.2,0.1
				c0.1,0,0.1,0,0.2,0.1c0.1,0,0.1,0.1,0.2,0.1C301.9,147.7,302.1,147.8,302.4,148z"/>
			<path class="st88" d="M302.8,147.4C302.8,147.4,302.8,147.5,302.8,147.4c-0.1,0.1-0.1,0.2-0.1,0.2c0,0,0-0.1,0-0.1
				c-0.1-0.2-0.2-0.4-0.2-0.6C302.5,147,302.7,147.2,302.8,147.4z"/>
			<path class="st88" d="M302.8,147.3c-0.1-1.7-0.2-3.4-0.6-5C303,143.8,303.3,145.4,302.8,147.3z"/>
			<path class="st89" d="M298.8,136.9c0.2,0.4,0.3,0.9,0.5,1.3c-0.2-0.1-0.3-0.2-0.5-0.3c-0.1,0.6-0.4,1.1-0.9,1.6
				c0-0.6,0-1.1,0-1.7c0,0,0.1-0.1,0.1-0.1c0.1-0.1,0.1-0.1,0.1-0.2c0.1-0.2,0.2-0.4,0.3-0.6c0.1-0.1,0.1-0.2,0.2-0.3
				c0.2-0.3,0.5-0.5,0.9-0.5C299.3,136.4,299.1,136.7,298.8,136.9z"/>
			<path class="st89" d="M301.6,147.5c-0.2,0-0.3,0-0.5,0c0-0.1-0.1-0.2-0.1-0.2c0.1,0,0.1,0,0.2,0.1c0.1,0,0.1,0,0.2,0.1
				C301.5,147.4,301.6,147.4,301.6,147.5z"/>
			<path class="st89" d="M302.8,147.5h-0.2c-0.1-0.2-0.2-0.4-0.2-0.6C302.5,147,302.7,147.2,302.8,147.5c0-0.1,0-0.1,0-0.1
				c0,0,0,0,0-0.1C302.8,147.3,302.8,147.4,302.8,147.5z"/>
			<path class="st90" d="M299.6,136.1c-0.3,0.3-0.5,0.5-0.8,0.8c-0.1,0.1-0.1,0.1-0.2,0.2c-0.1,0.1-0.3,0.3-0.4,0.4
				c-0.1,0.1-0.1,0.1-0.2,0.2c0,0-0.1,0.1-0.1,0.1c0-0.1,0-0.3,0-0.4c0-0.2,0-0.3,0-0.5c0-0.2,0-0.5,0-0.7c0.2,0.1,0.4,0.3,0.5,0.5
				c0.1-0.2,0.2-0.5,0.3-0.7c-0.1-0.9-0.3-1.7-0.5-2.5c0.1-0.3,0.1-0.5,0.2-0.8c0.1-0.4,0.2-0.8,0.3-1.1c0.1,0.1,0.1,0.2,0.2,0.3
				c0.2,0.4,0.4,0.8,0.7,1.1C299.5,134.1,299.6,135.1,299.6,136.1z"/>
			<path class="st91" d="M299.5,133c-0.2,0-0.4-0.1-0.5-0.1c-0.2-0.1-0.5-0.2-0.6-0.2c0.1-0.4,0.2-0.8,0.3-1.1
				c0-0.1,0.1-0.2,0.1-0.2c0,0.2,0.1,0.4,0.1,0.6C299.1,132.3,299.3,132.6,299.5,133z"/>
			<path class="st86" d="M297.3,137.1c-2.6,0.6-4.9,0.4-6.9-0.5C292.5,135.9,294.8,135.9,297.3,137.1z"/>
			<path class="st86" d="M298.8,137.8C298.8,137.8,298.8,137.9,298.8,137.8c-0.1,0.7-0.4,1.2-0.9,1.6c0-0.6,0-1.1,0-1.7
				c0-0.1,0-0.3,0-0.4c-0.2-0.1-0.4-0.2-0.6-0.3c0.2,0,0.4-0.1,0.6-0.1c0-0.2,0-0.5,0-0.7c0.2,0.1,0.4,0.3,0.5,0.5
				c0.1,0.1,0.1,0.2,0.2,0.3c0,0.1,0.1,0.1,0.1,0.2C298.7,137.3,298.8,137.6,298.8,137.8z"/>
			<path class="st92" d="M297.3,137.1c-2.6,0.6-4.9,0.4-6.9-0.5C292.5,135.9,294.8,135.9,297.3,137.1z"/>
			<path class="st92" d="M298.3,136.7c0,0,0,0.1-0.1,0.1c-0.1,0-0.3,0.1-0.4,0.1c0-0.2,0-0.5,0-0.7
				C298,136.4,298.2,136.6,298.3,136.7z"/>
			<path class="st92" d="M298.7,136c-0.1-0.9-0.3-1.7-0.5-2.5c0.1-0.3,0.1-0.5,0.2-0.8c0.1-0.4,0.2-0.8,0.3-1.1
				c0-0.1,0.1-0.2,0.1-0.2c0,0.2,0.1,0.4,0.1,0.6c0.1,0.3,0.1,0.7,0.1,1C299.1,133.9,299,134.9,298.7,136z"/>
		</g>
		<g>
			<g>
				<path class="st0" d="M216.8,333c5.1,5.6,10.3,11.3,15.4,16.9c-5.8,6.4-11.6,12.8-17.5,19.3c-0.2-0.2-0.4-0.5-0.7-0.7
					c-3.2-3.5-6.3-7-9.3-10.6c-0.7-0.8-1.4-1.7-2.2-2.6c-1.7-2-3-2-5.1-1c-6.3,3.1-12.9,5.7-19.1,8.9c-3.2,1.6-4.9,1.4-7-1.8
					c-14-21.4-27.3-43.1-39.2-65.7c-11.2-21.3-21.6-42.9-27.2-66.5c-1.6-6.7-2.8-13.6-1.8-21.2c1.4,1.5,2.3,2.4,3.2,3.4
					C143.1,251.9,179.9,292.5,216.8,333z"/>
			</g>
			<g>
				<path class="st0" d="M274.5,398.3c-3.7,8.5-7.5,17.1-11.4,26c-7.4-8.4-14.5-16.4-21.4-24.4l17.7-20.2c4.4,4.8,8.8,9.7,13.2,14.5
					C273.4,395.4,275.3,396.3,274.5,398.3z"/>
			</g>
		</g>
		<g>
			<path class="st0" d="M375,229.3c-5.5,23.6-16,45.2-27.2,66.5c-11.9,22.6-25.2,44.3-39.2,65.6c-2.1,3.2-3.7,3.5-7,1.8
				c-6.2-3.2-12.8-5.8-19.1-8.9c-2.2-1.1-3.5-1.1-5.1,1c-0.7,0.9-1.4,1.7-2.1,2.6c-3,3.6-6.1,7.1-9.3,10.6c-1.2,1.3-2.4,2.7-3.7,4
				c-0.3,0.4-0.6,0.7-0.8,1l-20.1,22.9c-0.4,0.3-0.7,0.7-1.2,1.2c-7.5,8.8-15.2,17.4-23.3,26.6c-4-9-7.8-17.5-11.4-26
				c-0.8-2,1-2.9,2-4c18.5-20.5,37.1-40.9,55.6-61.3c36.8-40.5,73.6-81,110.5-121.5c0.9-1,1.8-1.9,3.2-3.4
				C377.9,215.7,376.6,222.5,375,229.3z"/>
		</g>
		<g>
			<g>
				<path class="st93" d="M219.9,329.1c5.1,5.6,10.3,11.3,15.4,16.9c-5.8,6.4-11.6,12.8-17.5,19.3c-0.2-0.2-0.4-0.5-0.7-0.7
					c-3.2-3.5-6.3-7-9.3-10.6c-0.7-0.8-1.4-1.7-2.2-2.6c-1.7-2-3-2-5.1-1c-6.3,3.1-12.9,5.7-19.1,8.9c-3.2,1.6-4.9,1.4-7-1.8
					c-14-21.4-27.3-43.1-39.2-65.7c-11.2-21.3-21.6-42.9-27.2-66.5c-1.6-6.7-2.8-13.6-1.8-21.2c1.4,1.5,2.3,2.4,3.2,3.4
					C146.2,248.1,183.1,288.6,219.9,329.1z"/>
			</g>
			<g>
				<path class="st93" d="M277.6,394.4c-3.7,8.5-7.5,17.1-11.4,26c-7.4-8.4-14.5-16.4-21.4-24.4l17.7-20.2
					c4.4,4.8,8.8,9.7,13.2,14.5C276.5,391.5,278.4,392.4,277.6,394.4z"/>
			</g>
		</g>
		<g>
			<path class="st94" d="M206.7,281.7c0.9,2.2,1.8,4.3,3.4,8.2c-11.2-5.2-19.9-11.1-27.3-19.2c3.6-6.3,8.8-2.2,13.4-2.2
				c3.4,0.8,4.4,3.9,6.2,6.2C203.1,277.5,204.7,279.7,206.7,281.7z"/>
			<path class="st1" d="M195.7,270.6c-4.3,0-8.6,0-12.8,0.1c-2.6-1.6-4.6-3.7-6.1-6.4c4.7-6.5,10.2-4.3,15.8-1.6
				C195.7,264.5,198.5,266.4,195.7,270.6z"/>
			<path class="st2" d="M176.7,264.3c-4.2-3.9-7.5-8.4-9.8-13.6c-0.8-4.9,4.1-5.6,5.8-4.8c5.8,2.7,12.3,0.3,17.9,2.9
				c1.8,1.2,2.8,2.9,3,5.1c0.4,2.4,1.8,4.6,1,7.1c-0.2,0.8-0.6,1.4-1,2C188.1,265.5,182.4,264.7,176.7,264.3z"/>
			<path class="st3" d="M189.4,250c-5.2,2.1-10.1,3.1-15.1-0.9c-2.7-2.2-5.3-1.1-7.3,1.5c-2.5-2.9-4.1-6.2-5.1-9.9
				c5.3,2.8,11.5,0.1,17,2.9c3.6,1.8,6-5,10.5-3.2c2.8,2,2.4,4.7,1.8,7.5C190.8,248.9,190.2,249.6,189.4,250z"/>
			<path class="st4" d="M158.3,231.1c0.6-0.5,1.3-1.4,1.8-1.3c7,1.7,14.7,0.3,20.9,2.8c3.6,1.5,7-0.3,10,1.7c0.6,0.5,1,1.1,1.2,1.9
				c0.1,2-0.5,3.8-1.6,5.5c-10.7,7.3-19.9,7-28.6-0.9C159.9,237.8,159,234.5,158.3,231.1z"/>
			<path class="st5" d="M158.3,231.1c-1.5-4-2.6-8.2-2.4-12.5c3.6-5.8,8.4-5.2,13.6-2.5c5.5,2.2,10.7,5,17,3.4
				c2.9-0.8,5.5,0.8,7.6,3c0.7,1,1,2.1,1,3.3c-0.6,3.4-0.4,7.1-3.3,9.8C180.2,237.3,168.8,237.2,158.3,231.1z"/>
			<path class="st6" d="M197.2,218.4c-1.6,1.6-3.1,3.2-4.7,4.8c-8.7,2.9-16.6-2.1-25-2.5c-0.1,0-0.2-0.4-0.3-0.7
				c2.1-1.8,4-4.1,7.2-3.4c4.4,1,3.6-2.1,3.8-4.5c1.6,0.5,3.2,1,4.7,1.6c8.7-3.2,8.7-3.2,12.6,1.6
				C196.2,216.3,196.7,217.4,197.2,218.4z"/>
			<path class="st7" d="M167.3,220c-3.1-6-7.7,0.3-11.3-1.5c-1.6-3-1.2-6.3-1-9.5c6.2-1.3,12.2-3,18.7-1c2.6,0.8,4.2,1.5,4.7,4.1
				c2.9,4.5,3.2,7.6-3.6,6.4C171.9,218.1,169.7,219.5,167.3,220z"/>
			<path class="st7" d="M195.7,215.3c-3.7-4.4-8.8,1.9-12.6-1.6c5-5.6,10.7-5.6,15.6,0C197.7,214.2,196.7,214.7,195.7,215.3z"/>
			<path class="st8" d="M167,194.8c2.4,1.4,2.6,5.8,6.7,4.7c1.4-3,4.4-5.2,6.9-3.9c7.5,3.8,15.8,1.9,23.4,4.6
				c1.1,1.3,1.1,2.9,0.9,4.5c0,1.2,0,2.4-0.6,3.5c-1.7,2.1-2.1,5.1-4.9,6.4c-5.5-0.4-11.2-3.6-16.5,0.9c-2,0.4-3.6-0.8-5.5-1.2
				c-5.4-2.3-10.9-4.5-17-2.7c-2.6,0.7-4.6,0-5.6-2.6c0-3.2,0-6.4,0-9.6c1.4-2.5-1.1-6.8,3.5-7.7C161.7,191.1,165.2,190.9,167,194.8
				z"/>
			<path class="st95" d="M167,194.8c-4.1,1.5-10.3-2.5-12.1,4.7c0.2-9,1.4-17.8,4.7-27.7C162.4,180.4,164.7,187.6,167,194.8z"/>
			<path class="st9" d="M171.6,193.3c0.8-0.1,1.9,0.2,2.3-0.2c7.4-7.6,14.1-2.3,19.3,2.2c4.1,3.6,9.1-2.9,12,2.5
				c0.9,1.9-0.2,2.7-1.7,3.2c-7.5,1-15.1,4.8-22.2-2c-1.2-1.2-5,0.2-7.5,0.3C173,197.4,172.3,195.4,171.6,193.3z"/>
			<path class="st10" d="M170.4,185.3c13.4-4.8,26.3,4,39.6,1.8c3,4.4-0.3,7.7-2,11.3c-0.6,0.5-1.3,0.9-2.1,1
				c-7.8,0.1-15.3-0.9-22.5-4.7c-3.2-1.7-8.1,2.6-11.8-1.3C169.5,190.9,170.6,188,170.4,185.3z"/>
			<path class="st11" d="M170.4,185.3c-0.4-0.5-0.4-1-0.2-1.5c-0.7-3.8-0.9-7.5-0.2-11.3c1.9-2.2,4.1-1.1,6.3-0.9
				c4.2,0.3,8.6,1.8,12.4-1.5c0.7-0.3,1.4-0.5,2.2-0.5c2.2,0.2,4,1.3,5,3.2c1.3,2.6,3.2,3.2,5.7,2.2c6.4-2.7,10.4,0.2,13.3,5.6
				c0.6,1.9,0.5,3.9-0.2,5.8c-0.6,1.1-1.4,1.9-2.5,2.4c-0.7,0.2-1.5,0.4-2.2,0.4c-7.9,3.8-15.3,1.7-23-1c-3.6-1.3-7.9-2.5-12.1-0.6
				C172.7,188.5,171.4,186.9,170.4,185.3z"/>
			<path class="st10" d="M170.2,169c0.1,1.2,0.3,2.5,0.4,3.7c-1.5,3.7,2.1,7.5-0.5,11.1C168.6,178.8,168.5,173.9,170.2,169z"/>
			<path class="st12" d="M219.4,171.1c-0.6,1.5-1.1,3.1-1.7,4.6c-1.1,2.5-0.7,6-4.7,6.4c-3.3-2.9-6-7.5-11.4-2.4
				c-2,1.9-4.9,0.4-6.5-2.2c-1.3-2.2-2.8-4.3-4.2-6.4c-2.2-1.4-3-3.3-0.7-4.9c2.3-1.6,6.3-3.6,7.8-1.2c3.8,6.2,7.9,1.9,11.9,1.4
				C213.5,167.1,217.6,166.7,219.4,171.1z"/>
			<path class="st12" d="M189.4,171.1c-0.1,4-0.4,6.6-5.9,4.4c-3.9-1.6-8.8-0.2-12.8-2.8c-1.3-1.1-1-2.4-0.4-3.7
				c-0.1-2.8-0.2-5.6,1.5-8.1c0.6,1.3,1.2,2.6,1.8,3.9c2.6,2.2,5.7,1.5,8.7,1.3C186,165.7,188.7,167,189.4,171.1z"/>
			<path class="st13" d="M209.9,166.3c-4.7,7-6.4,6.7-13.5,0.8c-2.7-2.2-5.9-0.6-5.5,3.9c-0.5,0-1,0-1.6,0
				c-4.8-3.2-12.2-0.1-15.8-6.3c1.1,0,2.1,0,3.2,0c2.2-0.2,4.9,1.5,6.3-1.6C192.4,160.9,201.2,163.4,209.9,166.3z"/>
			<path class="st12" d="M183,163.2c-1.4,3.4-3.6,3.4-6.3,1.6C177.4,158.4,181.6,166.4,183,163.2z"/>
			<path class="st96" d="M174.9,151.6c5.3,2.5,10.1,6.6,17,3.4c2.3-1,6.4,1.2,9.4,2.5c3.9,1.7,7.6,3,12,1.1c4.1-1.8,7.3,1.9,10.9,3
				c3.1,4.8-0.2,7.5-3.3,10.4c-4.2,0-8.2-1.1-12-2.8c-8.3-1.5-16.2-5.8-25-3.1c-2.8,0.5-5.5-0.5-8.3,0.2c-1.2,0.1-2.3-0.2-3.3-0.9
				c-1.3-1.4-1.2-3-0.6-4.6C171.8,157.5,172.9,154.4,174.9,151.6z"/>
			<path class="st14" d="M174.9,151.6c0.6-3.7,2.3-6.8,4.7-9.6c4.1-0.8,8.3-2.4,12.3,0.5c5.7,5.1,13.1,4.3,19.7,5.5
				c4.3,0.7,8.5,2,12.9,2.3c2.8,0.1,4.8,1.9,5,5.1c0.1,1.2,0,2.4-0.3,3.5c-0.9,1.8-1.9,3.5-3.8,4.5c-5.7,1.2-11.3-0.3-16.8-1
				c-7.6-1-14.8-3.2-22.7-2.6C181.5,159.9,175.3,158.7,174.9,151.6z"/>
			<path class="st15" d="M230.4,148.9c-0.1,1-0.1,1.9-0.2,2.9c-0.8,1.4,0.2,4.1-2.9,3.6c-3.3-3.5-10.4-4-11.8-3.5
				c-6.8,2.6-11.6-3.6-17.7-2.5c-3.5,0.6-5.4-2.3-6.9-5.2c5.1-2.7,10,0.9,15.2,0.5c6.1-0.4,12.2,0.7,18.3,0.4
				C227.8,145,229.3,146.3,230.4,148.9z"/>
			<path class="st16" d="M190.9,144.2c-2.5,0-4.9-0.7-7.3,0.8c-3.4,2.1-3.6-0.8-4-3.1c0.9-3,2.5-5.6,4.8-7.7
				c9.1,2.5,19.8,8.2,27,6.1c8.6-2.5,15,3.6,22.2,0.7c2.9,3.5,1.1,6.2-1.5,8.7c-11.3-0.9-22.6-1.6-33.8-3
				C195.5,146.5,193.2,145.6,190.9,144.2z"/>
			<path class="st17" d="M184.4,134.3c1.9-4.2,4.5-7.9,7.9-11c6-0.4,12.3-2.5,17,3.4c1.8,0.5,3.3,2.4,5.3,0.5
				c0.7-0.2,1.3-0.3,2.1-0.3c6,2,11.6,5.5,18.3,4.8c1.6,0.9,2.3,2.4,2.4,4.1c0.1,1.3,0,2.5-0.3,3.8c-0.5,1.2-1.3,2.1-2.2,2.8
				c-4.4,1.3-8.9,2.8-13.3-0.2c-0.8-0.5-2.2-0.6-3.1-0.2c-11.3,5-21.1-3.1-31.8-3.7C184.9,138.2,183.4,136.6,184.4,134.3z"/>
			<path class="st97" d="M216.2,128.4c5.7-2.7,14.8-0.2,17.4,4.7C225.5,140.1,221.8,130.7,216.2,128.4z"/>
			<path class="st18" d="M197.1,117.1c0.1,0.2,0.3,0.6,0.4,0.6c10.9,2.3,21.8,4.4,33,4.1c2.6-0.1,5.1-0.1,7.6,0.3
				c0.4,0.2,0.8,0.4,1.1,0.6c1.9,2.3,1.4,4.9,1.2,7.5c-1.4,2.4-0.8,6.4-5.2,6.2c-0.5-1.1-1.1-2.1-1.6-3.2
				c-5.8-1.7-11.2-4.6-17.4-4.7c-0.5,0-1.1,0-1.6,0c-2.1,0.6-4.2-2.1-6.3,0c-0.3,1-1.3,2.9-1.3,2.8c-0.5-6.1-5.2-3.9-8.5-4.7
				c-2.2-0.5-4.1-2.1-6.2-3.2C193.3,120.8,194.9,118.7,197.1,117.1z"/>
			<path class="st97" d="M208.3,128.4c2.1-3.7,4.2-1.2,6.3,0C212.5,134.2,210.4,128.2,208.3,128.4z"/>
			<path class="st19" d="M197.1,117.1c1.5-3.1,3.6-5.8,6.2-8c3.1-2.3,7-3.5,10.2-1.7c6.1,3.6,12.3,2.1,18.6,1.9
				c8.5,1.7,9.1,2.5,8,12.3c-5.9,6.5-13.4,4.2-20.4,3.2c-6.2-0.8-12.2-2.5-18.5-2.7C198.1,122,196.1,120.6,197.1,117.1z"/>
			<path class="st98" d="M207.8,103c3.9,2.4,7.6,4.3,12.7,3.7c4.1-0.5,8.1,1.6,10,6c-4.6,1.7-10.9-1.9-14.6,5.6
				c1.9-13-8-6.8-12.5-9.2C204.2,106.6,205.8,104.7,207.8,103z"/>
			<path class="st20" d="M238.1,122c1.8-6.7-1.9-8.9-7.7-9.4c-4.7-4.3-11-3-16.6-4.2c-3.8-0.8-5.4-2.2-6.1-5.5
				c1.7-2.6,3.5-5.3,5.2-7.9c9.7-0.4,19.3-0.3,27.7,5.8c2.8,5.9,1.5,12,1.2,18.1c-0.1,1.8-1.2,3.4-3.5,3.1L238.1,122z"/>
			<path class="st21" d="M238,100c-9,1.6-17.2-0.6-25.1-4.9c1.1-2.1,2.2-4.1,3.3-6.2c8-3.9,15.1-2.3,21.4,3.7
				C238.3,95,241,97.4,238,100z"/>
			<path class="st22" d="M236.8,92.1c-6.9-0.6-14-0.1-20.5-3.2c-0.1-3.1,1.8-5.4,2.9-8c5.1-7.4,5.1-7.4,13.4-0.4
				c0.6,0.4,1.1,0.9,1.5,1.5c1.9,2.5,2.6,5.6,4.1,8.3c0,0.4,0,0.9,0.1,1.3C238,92.5,237.4,92.6,236.8,92.1z"/>
			<path class="st23" d="M232.4,82.4c-4.2-2.6-8.3-6-13.2-1.5c0.1-5.8,0.1-11.6,0.2-17.4c0.5-0.5,1.1-0.7,1.8-0.6
				c1.7,0.7,1.9,2.7,3,3.9c2.3,3.1,5.5,5.7,6.6,9.7C231.4,78.5,234,79.8,232.4,82.4z"/>
			<path class="st99" d="M200.5,276.9c1.7,0,3.3,0,5-0.1c1.2,1.4,1.4,3.1,1.3,4.8C202.7,282.7,202.2,278.9,200.5,276.9z"/>
			<path class="st24" d="M195.7,270.6c-1.1-2.6-2.1-5.3-3.2-7.9c0-0.5,0-1.1,0-1.6c4.7-3.6,8.9-4.6,11.7,2c0.4,3-0.5,6,0.6,9
				c0.2,1.6,0.4,3.1,0.5,4.7c-1.6,1.6-3.3,1.2-5,0.1C198.9,274.8,197.3,272.7,195.7,270.6z"/>
			<path class="st99" d="M203.2,262.8c0.4-2.6,0.9-5.2,1.3-7.7c0.1,5.7,0.2,11.4,0.3,17.1C203,269.2,203.8,265.9,203.2,262.8z"/>
			<path class="st100" d="M203.2,262.8c-2.4-0.8-4.5-3.5-7.2,0c-1.2,1.6-2.3-1-3.5-1.6c-0.5-2.1-1-4.2-1.6-6.3
				c0.7,0.2,1.7,0.8,2.2,0.6c4.4-2.3,8.8-4.7,12.2-8.5c-0.3,2.7-0.5,5.5-0.8,8.2C203.7,257.5,205.7,260.5,203.2,262.8z"/>
			<path class="st6" d="M189.4,250c0-0.5,0-1.1,0-1.6c1.1-1.1,0.6-2.8,1.3-4c4.1-4.4,6.9-10,12.5-12.8c0.8,0.1,1.4,0.5,1.9,1
				c1.1,0.5,2.1,1.1,3.2,1.6c-1,4.2-2,8.4-3,12.6c-0.9,4.3-1.8,8.4-7,10.1c-3.3,1.1-5.6,0.9-7.4-2.1
				C190.4,253.2,189.9,251.6,189.4,250z"/>
			<path class="st5" d="M190.9,235.8c0,3.2,0,6.3,0,9.5c-0.5,1.1-1,2.1-1.6,3.2c0-2.6,0-5.3,0-7.9
				C189.9,239,190.4,237.4,190.9,235.8z"/>
			<path class="st25" d="M205.2,232.7c-0.5,0-1.1,0-1.6,0c-2.4-2.8,0.7-4.3,1.6-6.3c0,0,0,0,0,0
				C212.3,228.5,205.5,230.6,205.2,232.7z"/>
			<path class="st7" d="M214.7,226.4c-2.1,2.6-4.2,5.2-6.3,7.9c-1.5,1.3-2.7,0.8-3.9-0.4c-1.1-2.4,0.1-5.1-1-7.5
				c-0.4-2,0.8-3.6,1.1-5.4c0.9-6,7.9-7.8,9.2-13.4c3.1-2.5,6.1-5.2,8.8-8.1c1.5-1,2.8-2.4,4.9-2.3c1,0.2,1.8,0.6,2.4,1.4
				c0.5,0.4,1.1,0.6,1.9,0.2c4.9-3.9,9.2-8.4,14.6-11.6c2.7-0.9,5.1-0.9,7,1.6c-19.2,14.1-31.6,32.3-34.2,57.5
				c-2.7-5.4-2.3-10-2.7-14.5C217.4,227.2,217.4,227.2,214.7,226.4z"/>
			<path class="st26" d="M230.4,199.5c-0.5,0-1,0-1.5,0c-0.5-0.5-1.1-1.1-1.6-1.6c0-0.5,0-1,0-1.6
				C231.5,194.3,230.8,197.1,230.4,199.5z"/>
			<path class="st27" d="M205.2,226.4c-0.5,2.1-1.1,4.2-1.6,6.3c-1.1,2-2.8,3.9-3.3,6c-1.2,5.2-4.6,6.7-9.3,6.6
				c-1.3-3.1-1.2-6.3,0-9.5c0-0.5,0-1,0-1.6c0.5-2.6,1.1-5.3,1.6-7.9c2.7,0.7,3.8,3.2,5.4,5.5C200.4,229.9,201.6,226.4,205.2,226.4z
				"/>
			<path class="st28" d="M197.2,218.4c3.7-0.4,6.1,3,9.5,3.2c-0.5,1.6-1,3.2-1.6,4.7c0,0.4,0,0.7-0.1,1.1c-0.1,0.2-0.1,0.5-0.3,0.7
				c-7.3,8-8.3,7.9-12.4-1.8c0-1.1,0-2.1,0-3.2C192.3,219.8,193.4,217.8,197.2,218.4z"/>
			<path class="st12" d="M198.7,213.7c0.5-2.4,1.5-4.6,3.3-6.3c4.8,0.3,10.1-3.5,14.3,1.7c-2.2,5-6.3,8.5-9.5,12.6
				c-4.6,5-7.9,1.1-11.3-1.8c-0.7-1.4-1.2-2.8-0.6-4.3C195.6,213.9,197.4,214.2,198.7,213.7z"/>
			<path class="st29" d="M216.3,209c-4.8,0.1-10.3,5.3-14.3-1.7c0-1,0.1-2.1,0.1-3.1c6.5-6.8,14-6.9,22-3.2
				C222,204.2,219.4,206.9,216.3,209z"/>
			<path class="st29" d="M230.4,199.5c0.5,0.6,1.1,1.1,1.6,1.7c-1.4,1.7-2.1,4.1-4.6,4.9c-1-2.6,0.7-4.5,1.5-6.5
				C229.4,198.7,229.9,198.7,230.4,199.5z"/>
			<path class="st30" d="M224.1,201.1c-7.4,0.7-14.9,0.4-22,3.2c0.5-1,0.9-2.1,1.4-3.1c0.6-1.1,1.1-2.2,1.7-3.2c0.5,0,1,0,1.5,0.1
				c1.3-1.8,1.3-4.4,3.4-5.8c6.2-1,6.4-0.8,6.2,4.2c3.7,0.1,7.4,1.3,11.1,0c0.4,0.4,0.6,0.7,0.4,1.1c-0.2,0.3-0.3,0.5-0.5,0.5
				C226.2,199,225.1,200,224.1,201.1z"/>
			<path class="st31" d="M227.3,188.4c1,0.1,2.5-0.3,3,0.3c4.9,5.6,10.5,3.6,16,1.4c-4.8,3.7-9.5,7.3-14.3,11
				c-1-0.1-1.8-0.6-2.2-1.5c-0.5-1.8-1.2-3.1-3.3-1.8c-3.9,1.8-7.8,3.3-11.2-1C215.1,188.2,222.8,190.6,227.3,188.4z"/>
			<path class="st32" d="M211.4,186.9c-0.5,2.1-0.9,4.2-1.4,6.3c-1.1,1.6-2.3,3.1-3.4,4.7c-0.3-4.1,2.5-7.2,3.3-10.9
				C210.5,187,211,187,211.4,186.9z"/>
			<path class="st33" d="M216.2,196.3c-0.8-3.6-4.2-1.9-6.1-3.1c-1-2.4,0.8-4.2,1.3-6.3c0.5-0.5,1-0.9,1.6-1.4
				c0.4-0.7,1-0.8,1.7-0.3c1.6,1.1,3.3,3.8,5.1,1.5c4.1-5.4,5.3,0.2,7.5,1.7c1,2.6,0.2,3.9-2.7,3.7
				C220.9,191.8,218.3,193.4,216.2,196.3z"/>
			<path class="st16" d="M253.3,188.5c-2.3,0.6-4.7,1.1-7,1.7c-6.4,6.3-12.9,4.9-19.6,0.6c-1.9-0.8-3.7-1.1-5.9-0.7
				c-3.7,0.8-6.7-0.4-7-4.9c0-1.2,0.6-2.1,1.2-3c3.8-4.9,7.9-6.6,14.8-5.4c7.5,1.3,15.4,0.9,23.1,1.6c3.5,0.3,9.2-0.2,7.5,6.7
				c-0.6,0.5-1.2,0.9-1.9,1.4C256.9,187.1,255.1,187.8,253.3,188.5z"/>
			<path class="st34" d="M260.5,185c-7.8-7.3-17.6-3.2-26.5-4.5c-1.2-0.2-3,1.2-3.6,0.7c-5.9-5.2-10-1-14.3,2.5
				c-2.5-2.9-0.2-5.2,1.1-7.6c0.9-1.3,1.8-2.5,3.3-3.2c5.4-1.7,10.8,0,16.2-0.2c3.9-0.1,7.7-0.7,11.4-2.2c1.1-0.1,2.3-0.1,3.4,0.2
				c3.5,1.4,7,2.7,10.8,3.3c2.8,0.4,4.7,1.7,5.6,4.4c0.5,3.7-2.6,4.9-4.8,6.8c-0.4,0.1-0.7,0.2-1.1,0.2
				C261.5,185.3,261,185.2,260.5,185z"/>
			<path class="st35" d="M214.6,185.3c-0.6,0.1-1.1,0.2-1.7,0.3c-1.3-1.2-0.2-2.3,0.1-3.5c1.6-2.1,3.1-4.3,4.7-6.4
				c0.5,0.5,1,1,1.5,1.5c-1,2.1-2.1,4.3-3.1,6.4C215.6,184.2,215.1,184.7,214.6,185.3z"/>
			<path class="st36" d="M221.2,174.3c-0.7,1-1.3,2-2,3c-1.5,0.4-2.2-0.5-2.7-1.7c-0.3-2.3,0.5-3.9,2.9-4.5c2.3-2.8,3.9-5.9,4.8-9.3
				c1-1.2,1.9-2.4,2.9-3.6c1.3,0,2.2,0.6,2.9,1.7c0.3,0.7,0.5,1.5,0.5,2.3c-0.8,3.8-3.1,6.9-5.7,9.7
				C223.8,172.9,222.2,173.2,221.2,174.3z"/>
			<path class="st37" d="M222.9,171.2c7.6-3.8,15.5-2.6,23.5-1.3c1.9,0.3,1.8,1.4,1.5,2.8c-8.6,5.9-17.6,4.1-26.7,1.6
				C221.7,173.2,222.3,172.2,222.9,171.2z"/>
			<path class="st38" d="M296.8,166.3c-5.1,3.9-10.7,4.9-16.7,2.5c-3.7-1.5-5.7,2.3-9.1,2.7c-5,0.5-9.8,1.1-14.2-1.4
				c-3.8-2.2-4.3,0.8-5.8,2.6c-1.1,0-2.1,0-3.2,0c-7.4,0.2-14.8-1-22.1,0.5c-1.5,0.3-2.3-0.7-2.9-2c2-3.2,3.9-6.4,5.9-9.6
				c3.5-4.1,8.3-1.3,11.7-1c11.5,1.2,22.8-0.3,34.2-0.6c0.5,0,1.1,0,1.6,0c1.8,4.1,5.7,4.9,8.7,3.1c3.6-2.1,5,0.2,7.1,1.6
				C293.6,165.3,295.2,165.8,296.8,166.3z"/>
			<path class="st39" d="M274.7,160c-7,4.1-14.8,4.1-22.4,3.9c-7.8-0.2-15.6-1.5-23.5-2.4c0-0.5,0-1,0-1.5c0.5-0.5,1.1-1.1,1.6-1.6
				c10-0.1,20.1,0,30.1-0.3C265.1,158,272.6,158.6,274.7,160z"/>
			<path class="st40" d="M230.4,158.4c0.6-1.6,1.3-3.1,1.9-4.7c4.3-2.2,9.7,0.5,13.8-3.1c0.8-0.8,2.8-1.4,3.6-0.9
				c8.4,4.6,18.1,0.4,26.6,4c1.1,0.5,2.1,1.1,3.2,1.6c4.3,4,1.5,5.6-2.3,7c-0.8,0.2-1.6,0.2-2.4,0.1c-7.3-1.2-14.5-1.8-22-0.7
				C245.2,162.8,237.4,162.7,230.4,158.4z"/>
			<path class="st41" d="M228.7,160c-0.6-0.6-1.1-1.2-1.7-1.8c0.1-0.9,0.2-1.8,0.3-2.7c1-1.2,1.9-2.4,2.9-3.6
				c0.5,0.6,1.1,1.2,1.6,1.8c0,0,0.5,0,0.5,0c0.4,1.8,0.7,3.6-0.5,5.3C230.9,159.8,229.9,160.1,228.7,160z"/>
			<path class="st42" d="M276.1,145.8c0.1,1.5,0.1,3,0.2,4.5c0.8,0.9,1.1,1.9,0.8,3.1c-5.6,4.8-12.9,2.9-18.3,1.8
				c-7.7-1.5-14.4,0.9-21.6,0.9c-1.8,0-3.6,0.6-5.2-0.7c-0.5-0.6-0.9-1.2-1.2-1.9c-0.2-2.9,2.5-4.6,3.2-7.2c2.5-4.4,6.7-4.4,11-4.2
				c7.2-2.3,14.7-0.9,22.1-1.4C271.6,140.3,273.3,143.8,276.1,145.8z"/>
			<path class="st43" d="M235.3,147.3c-1.2,2.1-2.3,4.2-3.5,6.4c-1.4,0.3-2.1-0.5-2.5-1.7c-0.2-1.2,0.1-2.3,1.1-3.1
				c1.8-2.3,2.7-5,3.1-7.9c0.5-0.6,1.1-1.1,1.6-1.7c1.6,0.4,2.4,1.5,2.7,3.1C237.6,144.4,236.1,145.7,235.3,147.3z"/>
			<path class="st44" d="M236.6,142.6c0.5-0.5,1-1.1,1.5-1.6c5.3-5.3,4.9,1.1,6.5,3.2l0,0c-2.4,3.2-7.1-0.5-9.3,3.1
				C235.8,145.7,236.2,144.2,236.6,142.6z"/>
			<path class="st44" d="M273.1,136.3c1.9-0.6,2.9-2,3.4-3.9c1.6,4.5,0.5,8.9-0.3,13.4c-7.2-1.2-14.3-2.1-21.7-2.1
				c-3.2,0-6.4,6-9.7,0.5c-0.3-0.2-0.6-0.4-1-0.5c-1.5-6.5,1.3-10.7,6-8.4c4.8,2.4,8.9,1.4,13.4,0.6
				C266.4,135.4,269.8,134.6,273.1,136.3z"/>
			<path class="st45" d="M244.6,144.2c-1.8-1.8-3.1-4.6-6.5-3.2c0.6-3.1,1.1-6.3,1.7-9.4c0.1-0.5,0.3-1,0.4-1.5
				c4.4,2,10.1-0.6,13.7,4.1c0.9,1.1,2.4,0.5,3.5-0.4c6.2-4.8,11.1-2.3,15.6,2.6c-8.1,4.5-16.5,5.7-25.2,1.6
				C245.8,137,245.5,137.6,244.6,144.2z"/>
			<path class="st46" d="M236.6,142.6c-0.5-1.1-1-2.1-1.5-3.2c0-1,0-2,0.1-3c1-2.2,2-4.4,2.9-6.6c1.2,0.5,2.2,1.2,3.1,2.1
				c2.6,3.5,0.4,6.4-1.2,9.3C239.1,142.2,237.9,142.6,236.6,142.6z"/>
			<path class="st22" d="M276.1,126.8c0.1,1.9,0.3,3.7,0.4,5.6c0.7,2.1,0.8,4-1.6,5.1c-6.3-1-12.7-5.4-19,0
				c-4.9-3.9-12.9-1.2-16.6-7.8c-0.2-1.5,0-3,1.1-4.2c9.3-5.2,19.8-1.8,29.5-3.9C273.7,121,273.1,126.3,276.1,126.8z"/>
			<path class="st47" d="M239.8,131.6c-0.6-0.6-1.1-1.2-1.7-1.8c0.1-2.6,0.1-5.1,0.2-7.7c2.8-7.4,1.7-14.7-0.3-22.1
				c-0.4-2.6-0.8-5.3-1.3-7.9c0.5-0.1,1-0.3,1.5-0.4c2.9,3.3,3.2,7.4,3.7,11.5c0.5,3.2,0.9,6.3,1.4,9.5c-0.1,2.6-0.2,5.3-0.3,7.9
				c-0.6,2.1-1.2,4.2-1.8,6.3c-1.1,0.8-1.3,2-1.1,3.2C240.5,130.7,240.4,131.2,239.8,131.6z"/>
			<path class="st48" d="M276.1,126.8c-6.7-2.3-13.6-1.7-20.4-1.2c-4.8,0.4-9.4,2.8-14.3,1.1c-1.9-2.8-0.5-4.6,1.8-6.3
				c6.6-5.4,13.2,2.2,20.3-0.3c3.6-1.3,7-2.3,9.8-4.8C276.3,118.7,274.2,123.3,276.1,126.8z"/>
			<path class="st49" d="M271.7,111c1.5,1.1,1.6,2.8,1.6,4.4c0.2,4.7-2.2,6.4-6.8,7.5c-7.4,1.7-14.5-1-21.7-0.6
				c-1.3,0.1-2.4-0.9-3-2.2c-0.5-2.3-0.3-4.6-0.2-6.9c5.7-9.7,14.1-7.2,22.4-4.8c0.7,0.1,1.4,0.2,2.1,0.3
				C268,109.2,269.7,110.4,271.7,111z"/>
			<path class="st49" d="M265.2,111c-1.2-0.4-2.5-0.7-2.4-2.4c0-0.2,0.4-0.5,0.5-0.5C264.9,108.4,264.8,109.9,265.2,111
				C265.2,111,265.2,111,265.2,111z"/>
			<path class="st50" d="M242,103.2c0.4,0,0.7,0,1.1,0c3.6-3.1,7.9-3.3,12.3-3c3.5,0.3,6.6-1.1,9.9-1.8c4,3.2,3.4,8.9,6.5,12.6
				c-2.2,1-4.3,0.4-6.5,0.1c-0.3-0.3-0.7-0.7-1-1c0.3,0.4,0.7,0.7,1,1c-7.3,0-14.8-2.6-21.8,1.6C241.2,109.7,240.1,106.7,242,103.2z
				"/>
			<path class="st51" d="M265.2,98.4c-2.2,6.5-7.1,7.7-12.6,5.1c-3.4-1.6-6.5,2.4-9.5-0.3c0.9-5.2,3.3-8.2,9-5.8
				c4.2,1.7,8-1.5,12.1-0.6C264.5,97.3,264.8,97.8,265.2,98.4z"/>
			<path class="st52" d="M252.5,87.3c0.5-0.9,1.1-1.8,1.6-2.7c4.3,3.2,7.5,7.3,10,12c-2.2,3.6-5.9,4.8-9.4,3.7
				c-5-1.5-8.2,0.5-11.5,3.6c-0.8,0.1-1.5-0.1-2.2-0.5c-1.2-3.7-3.5-6.9-4.7-10.6c-0.2-0.8-0.3-1.5-0.3-2.3c0-1.1,0.1-2.3,0.4-3.4
				C241.9,81.8,247.2,85.8,252.5,87.3z"/>
			<path class="st53" d="M252.5,87.3c-3.9,3.6-7.2-0.9-10.8-0.8c-1.3,0-2.4,0-3.4,0.8c-2.9,0.1-2.7-1.3-1.5-3.1
				C242.5,83.2,248.2,81.8,252.5,87.3z"/>
			<path class="st54" d="M236.8,84.2c0.5,1,1,2.1,1.5,3.1c0,1-0.1,2-0.1,3.1c-3.1-1.6-4-4.6-4.7-7.7c-0.7-1.6,0-1.9,1.4-1.4
				C235.6,82.3,236.2,83.2,236.8,84.2z"/>
			<path class="st55" d="M234.9,81.3c-0.5,0.5-0.9,0.9-1.4,1.4c-0.4-0.1-0.8-0.2-1.2-0.2c-0.6-2-1.1-3.9-1.7-5.9
				C232.8,77.5,234.2,79.1,234.9,81.3z"/>
			<path class="st56" d="M226.1,63.5c10.5,5.6,20.3,12,28,21.2c1.3,1.7,0.4,2.7-1.2,3.5c-5.4-1.8-11-1.5-16.6-2.1
				c-1.4-0.7-2.4-1.9-3.3-3.1c-1.3-2.3-3.4-4-4.9-6.2c-1.8-3.9-7.5-5.6-5.9-11.2C223.2,64.1,223.9,62.4,226.1,63.5z"/>
			<path class="st101" d="M224.1,66.9c-1.1-1-2.2-2.1-3.3-3.1c-0.1-1.6,0.2-2.8,2.3-1.9c1,0.5,2,1.1,3,1.6
				C225.4,64.6,224.8,65.7,224.1,66.9z"/>
			<path class="st57" d="M223.1,61.8c-0.8,0.6-1.5,1.3-2.3,1.9c-0.5,0-1-0.1-1.6-0.1c-0.7-1.2-2.3-2.9-0.6-3.8
				C220,59.1,222,60.4,223.1,61.8z"/>
			<path class="st58" d="M273.1,269c6.9,1.7,14.4-0.3,20.8,3.8c-2.8,3.6-6.7,5.7-10.3,8.3c-4.6,3.4-8.1,3-10.2-2.7
				c0.3-2.8-1.8-5-1.5-7.8C272.2,270,272.6,269.4,273.1,269z"/>
			<path class="st59" d="M270.4,273.7c1.5-0.5,2.4-1.6,2.7-3.1c1.9,2.5,1.9,5.1,0.4,7.8C272.4,276.8,271.4,275.3,270.4,273.7z"/>
			<path class="st59" d="M303.2,262.8c-2.3,4-5.4,7.4-9.2,10c-8,2.4-15.7,2.8-22.9-2.5c-1.5-1.6-2.1-3.5-1.9-5.7
				c3.6-5.3,7.5-10.3,15.1-8.7c3.9,3.3,8.3,2.7,12.8,1.5c1.6,0.2,3.1,0.7,4.5,1.4C302.9,259.8,303.9,260.9,303.2,262.8z"/>
			<path class="st24" d="M273.1,269c0,0.5,0,1.1,0,1.6c1.2,2.9,0.9,4.4-2.7,3.1c-1.7-2.7-3.4-5.5-5.1-8.2c-2.2-2.6-1.7-6.2-3-9.1
				c1.5-1.8,3.4-2.7,5.8-2c6.5,1.4,4.2,5.9,3.5,9.9C272,265.8,272.6,267.4,273.1,269z"/>
			<path class="st2" d="M284.1,257.9c4.5-2.1,8.9-3.1,12.6,1.6C292.3,260.9,287.6,264.5,284.1,257.9z"/>
			<path class="st60" d="M268.4,256.4c0.5-0.5,1-1.1,1.5-1.6c3.8-4,6.6-8.3,14.2-5.5c3.4,1.2,9.4-1,14.4-0.9
				c4.5,0.1,4.1,1.9,3.1,4.8c-3.6,2-2.1,5-1.6,7.9c-1.1-0.5-2.1-1-3.2-1.6c-4.2-0.8-8.6,0.5-12.6-1.6c-4.8,1-8.9,3.2-12.6,6.3
				C268.8,262.3,272.7,257.7,268.4,256.4z"/>
			<path class="st2" d="M303.2,262.8c-1.1-0.6-2.2-1.1-3.2-1.7c-3.8-5.7-3.7-6.3,1.6-7.9c2.7,0,5.4-1.1,8.1,0.1
				C308.3,257,306.1,260.1,303.2,262.8z"/>
			<path class="st24" d="M314.6,243.9c-0.9,3.6-2.5,6.7-5,9.4c-2.6,1.7-5.3,3.3-8.6,1.6c-8.3-5.4-16.8-1.8-25.1-0.5
				c-2.8,0.4-5.3,2.4-7.9-0.2c-1.8-2.6-1.6-5.5-0.9-8.4c0.9-2.3,1.9-4.6,2.5-7c3.3-4.7,9.2-5,12.5-2.9c6.3,3.9,11.9,2.1,17.9,1.1
				C307.7,235.7,311.2,237.3,314.6,243.9z"/>
			<path class="st61" d="M268.4,256.4c-2,0-4.1,0-6.1,0c-0.9-4.8-3.2-9.2-3.1-14.2c4.5-1.9,8.1-0.9,10.8,3.2c0,3.2,0,6.3,0,9.5
				C269.9,255.8,268.8,255.7,268.4,256.4z"/>
			<path class="st8" d="M269.9,245.3c-3.6-1.1-7.2-2.1-10.8-3.2c-0.1-1.5-0.3-3-0.4-4.4c0.4-1.2,1.1-4.2,2.1-2.7
				c4.9,7.3,8.3,0.5,12.3-0.7c-0.5,1.6-1,3.2-1.5,4.8C271,241.1,270.5,243.2,269.9,245.3z"/>
			<path class="st62" d="M314.6,243.9c-7.4-5.5-15.7-4-23.7-2.4c-3.4,0.7-5.6,0.7-8.3-1.9c-3.1-3-7.4,0.6-11-0.6
				c-2-1.5-1.7-3.4-0.8-5.4c0.4-1.2,1.2-2.1,2.4-2.5c3.2,2.4,6.3-1.1,9.4,0c6.7,1.5,13.5,0.6,20.2,1.2c2.4,0.2,4-0.7,5-2.8
				c4.1-2.8,8.2-0.7,12.3,0C319,234.6,317.5,239.5,314.6,243.9z"/>
			<path class="st102" d="M273.1,231.1c0,1-0.1,2.1-0.1,3.1c-0.4,0.3-0.9,0.5-1.2,0.9c-5.5,7.5-5.5,7.5-13.1,2.5
				c-0.3-0.2-0.7-0.3-1.1-0.4c0-3.1,0-6.2,0-9.3c4.9-3.2,10.2-1.5,15.4-1.5c0.6,0.5,1.1,0.9,1.6,1.4
				C274.1,229,273.6,230,273.1,231.1z"/>
			<path class="st103" d="M307.8,229.5c0.8,2.7-1.3,3.9-3,4.9c-4.5,2.5-17.8,0.4-22.2-3.3C290.7,226.3,299.4,230.2,307.8,229.5z"/>
			<path class="st63" d="M311,220c4.8,2,8.2-1.8,12.2-3.2c-0.4,4.4-1.4,8.6-3.1,12.6c-3.3,3.5-7.8,2.8-12,3.4
				c-8.2-0.8-16.4-1.7-24.6,0.4c-4.1,1.2-8.4,3.4-11.7-1.6c-0.8-1.6-0.3-3.1,0-4.7c0.4-2.3,0.8-4.6,2.1-6.7c0.8-1.5,1.8-2.6,3.7-1.9
				c6,1,12-0.4,18.4,2.3C299.5,222.1,306,221,311,220z"/>
			<path class="st104" d="M257.6,220.1c3.5,3.4,8.6,3.3,12.5,3.5c4.8,0.2,2,3,3,4.3c-5.2,1.5-10.3,2.7-15.5,0
				c-0.2-1.1-0.4-2.1-0.6-3.2C257.2,223.2,257.4,221.6,257.6,220.1z"/>
			<path class="st11" d="M258.8,208.6c1.9,9.1,3.1,9.7,15.9,8.3c1.7,1.2,0,3.5,1.6,4.7c-0.5,2.1-1.1,4.2-1.6,6.3c-0.5,0-1,0-1.5,0
				c-1.6-2-3.8-0.7-5.7-0.9c-4.5-0.5-8.5-1.8-9.8-6.9C257.3,216.2,257.2,212.3,258.8,208.6z"/>
			<path class="st64" d="M277.8,212.1c0.5,0.5,1,0.9,1.5,1.4c-0.5,1.6-1,3.3-1.5,4.9c-0.5,1.1-1,2.1-1.5,3.2c-0.5-1.6-1-3.1-1.6-4.7
				C275.7,215.3,276.7,213.7,277.8,212.1z"/>
			<path class="st65" d="M258.9,207.4c4,3.4,8.5,2.6,13,1.4c2-0.5,4.1-2.9,6,0.2c0.9,1,0.8,2.2,0.5,3.3c-0.9,2.2-1.3,4.7-3.7,6
				c-12,4.5-16.9,1.5-15.9-9.8C258.5,208.2,258.6,207.8,258.9,207.4z"/>
			<path class="st63" d="M310,218.3c0-1,0.2-1.7,1.1-1.6c0.2,0,0.5,0.8,0.5,1.2c-0.1,0.7-0.4,1.4-0.6,2.1
				C310.6,219.4,310.3,218.8,310,218.3z"/>
			<path class="st66" d="M324.9,202.7c0.5,4.8-0.9,9.5-1.7,14.2c-2.6,3.7-5.2,7.4-10.6,6.7c-0.7,0.2-1.3,0.3-2,0.4
				c-8.9,1.3-17.6,0.1-26.2-1.7c-2.7-0.6-5.8-0.6-7.7-3.4c-1.2-2-0.6-3.9,0.1-5.9c0.5-2,1.3-3.8,2.8-5.2c4.4-2.5,9.1-3,14-2.3
				c0.7-0.2,1.4-0.2,2.2-0.2c1.4,0.2,2.7,0.9,4,1.5c4.9,1.3,9.3,0.6,13.2-3C316.7,201.6,320.7,201.7,324.9,202.7z"/>
			<path class="st67" d="M285.9,199.6c-1.6,3.1-3.1,6.3-4.7,9.4c-0.7,1.5-1.3,3-2,4.5c-1.4,0.5-2.1,0.2-1.5-1.4c0-1,0.1-2,0.1-3.1
				c1.7-1.8,2.7-4,3.1-6.4c2.4-2.7,3.9-5.9,4.7-9.5c0.5-0.5,1.1-1,1.6-1.6c0.8-0.5,1.5-0.4,2.2,0.2
				C291.7,196,289.5,198.2,285.9,199.6z"/>
			<path class="st68" d="M258.9,207.4c-0.2-2.9-0.3-5.8,1.3-8.4c5.9-4.7,12.3-1.5,18.4-1.1c2.6,0.2,3.6,2.7,4.3,5
				c0.5,3.3-2.1,4.8-4,6.8c-3.3,1.4-6.7,2.9-10.3,3.6C263.9,214.2,260,212.9,258.9,207.4z"/>
			<path class="st69" d="M295.2,208.9c-4.6,1.3-9.3-0.5-13.9,0.1c-0.9-4.2,2.3-6.8,4-10c3.4-1,6.7-2.3,9.8,0.7
				C297.3,202.8,294.4,205.8,295.2,208.9z"/>
			<path class="st70" d="M298.3,202.6c4,0.1,7.6,3.8,12-0.1c2.2-1.9,1.4,3.4,3.8,3.3c-4.3,6-9.6,6.7-15.8,3.1
				c-0.7-1.8-1.3-3.6-0.7-5.6C297.9,203.1,298.1,202.9,298.3,202.6z"/>
			<path class="st71" d="M295.2,207.4c1-1.6,2.1-3.2,3.1-4.8c2.6,2.1,1.6,4.2,0,6.3C297.3,208.5,296.3,207.9,295.2,207.4z"/>
			<path class="st72" d="M295.2,208.9c-2.1-2.9-1.4-6.2-1.6-9.4c-0.9-0.8-1.3-1.9-1.1-3.1c0.3-1.2,1-2.1,2-2.7c2.1-1,3.7-0.1,5.4,1
				c0,0.5,0.1,1.1,0.1,1.6c-0.6,2.1-1.1,4.2-1.7,6.3c0,0,0,0,0,0c-0.7,1.8-0.5,4.2-3.1,4.8C295.2,207.9,295.2,208.4,295.2,208.9z"/>
			<path class="st71" d="M324.9,202.7c-2.4,3.3-3.3,3.6-10.7,3.1c-6.4,2.4-12.3,2.7-17.2-3.2c-1-2.6-0.2-4.7,1.5-6.7
				c6.6,1.1,12.2-4.6,18.9-3c2.8,0.7,5.6,0.9,7.6,3.4C325,198.5,324.9,200.6,324.9,202.7z"/>
			<path class="st73" d="M288.9,191.6c0.5,0,1,0,1.5,0c5.3-1.3,4.1,1.9,3.2,4.8c0,1.1,0,2.1,0,3.2c-2.5,2.2-5.1,2.4-7.7,0.1
				C286.9,196.9,287.9,194.3,288.9,191.6z"/>
			<path class="st74" d="M281,202.7c-1.4-1.1-2.8-3.4-4.5-2.4c-4.8,2.5-9.8-2.1-14.4,0.8c-0.1,0.1-1.2-1.3-1.9-2
				c0.1-2.7,0-5.4,1.7-7.7c7.8,2.7,15.6,5.5,23.8,1.9C288.1,198.3,286.9,201.6,281,202.7z"/>
			<path class="st75" d="M261.9,191.3c0-2,0.1-4,0.1-6c0,0,0.3-0.3,0.3-0.3c6.2-3.1,13-3.3,19.5-2.8c5.8,0.4,7.2,5.2,7.1,10.3
				c-0.5,1.2-1.3,2.1-2.5,2.6c-7.4,4.3-14.8,2-22.3,0.3C262.4,195.1,261,193.6,261.9,191.3z"/>
			<path class="st76" d="M293.6,196.4c-0.1-2.3-0.8-4.1-3.2-4.8c1.1-3.1,2.2-6.2,3.3-9.3c2.6,3.9,1.1,8.3,1.6,12.4
				C294.7,195.3,294.2,195.8,293.6,196.4z"/>
			<path class="st15" d="M303.1,185.3c-0.5,2.1-1.1,4.2-1.6,6.3c-0.5,1.1-1.1,2.1-1.6,3.2c-1.6,0.7-3.1,0.7-4.7,0
				c-3.8-3.4-2.3-8.2-3.5-12.3c0.5-2.4,1.8-3.9,4.2-4.6c3.5-0.4,5,2.5,7.2,4.3c0,0.5,0,1.1,0,1.6
				C303.1,184.3,303.1,184.8,303.1,185.3z"/>
			<path class="st77" d="M325,196.3c-3.2,1-6.3,3.1-9.6-0.2c-1.8-1.7-3.9-0.6-5.7,0.5c-3.3,1.8-6.5,1.2-9.6-0.3
				c-0.7-0.5-1.1-1.1-1.3-2c-0.2-1.8,0.4-3.1,1.8-4.1c6.8-1.1,13.2-4.9,20.4-4c1.5,0.4,2.8,1.3,4,2.2
				C324.9,191.1,325,193.7,325,196.3z"/>
			<path class="st76" d="M303.1,185.3c6.3-1.9,12-0.2,17.3,3.2c-6.6-0.7-12,6.4-19,3.1C299.4,188.8,300.4,186.8,303.1,185.3z"/>
			<path class="st78" d="M266.8,179c0.3,0,0.6,0.2,0.8,0.1c7-3.3,14.9,1.3,21.9-2.6c2.7-1.5,5.5-0.1,7.4,2.5c-1,1.1-2.1,2.2-3.1,3.4
				c1.1,3.7-0.2,6.8-2.6,9.6c-0.8,0.4-1.5,0.3-2.2-0.3c-0.5,0-1.1,0-1.6,0c-3.1-5.2-6-9.5-13.4-5.1c-3.1,1.8-8,0.7-11.7-1.4
				C261.1,181.1,264,180.1,266.8,179z"/>
			<path class="st79" d="M303.1,183.7c4.6-4.3,9.1-8.9,16.3-4.6c1.5,0.9,2.9-0.7,4.1-1.7c1.5,3.5-1.1,7.6,1.4,11c-1.5,0-3,0-4.4,0
				c-4.4-0.1-8.8-2-13.3-0.4c-1.8,0.6-3.4-0.5-4.4-2.3C302.5,185.1,302.7,184.4,303.1,183.7z"/>
			<path class="st68" d="M322.3,170.6c1.4,2.1,1.5,4.4,1.2,6.8c-1,1.4-0.8,4.4-2.8,4.2c-6.4-0.7-12.2,2.5-18.5,2.4
				c-0.6-0.6-1-1.2-1.3-2c-1.3-3-0.7-5.7,0.9-8.3C308.8,166,315.6,165,322.3,170.6z"/>
			<g>
				<path class="st80" d="M303.1,182.1c-2.9,0.6-6.2,1.8-6.3-3.2c-2.7-1.2-4.8,0.7-7.2,1.3c-7.6,1.7-15.5,4.2-22.9-1.3
					c-3.3-2.3-7.2-3.3-11-2.8c-3.4,0.4-4.2-1-4.8-3.5c-1.5-3.2-0.2-6,2.9-5.6c8.2,1.1,16-0.8,23.9-1.2c6.1-0.3,12.6,0.5,19,0.5
					c2.6,1.6,5.3,3.1,7.9,4.7c0,1.1,0,2.1,0.1,3.2C304.2,176.9,303.6,179.5,303.1,182.1z"/>
			</g>
			<path class="st81" d="M292,164.7c0.1-2.1,0.8-3.7,3.3-3.3c3.1,0.4,5.6-0.7,7.7-2.9c0.5,1.6,1.1,3.1,1.6,4.7c0.5,0.5,1,1,1.6,1.6
				c-0.5,2.1-1.1,4.2-1.6,6.3c-3.9,2.5-6.8,0.7-9.4-2.3C294.1,167.5,292.2,166.8,292,164.7z"/>
			<path class="st82" d="M322.3,170.6c-6.2-0.3-12.8-2.7-17.6,3.6c-1.3-0.7-1.9-1.8-2.1-3.2c-0.1-2.9,0.7-5.2,3.7-6.3
				c6,1.3,10.4-0.7,12.7-6.6C321.2,162,322.1,166.2,322.3,170.6z"/>
			<path class="st16" d="M304.7,163.2c0-3.1,0-6.3,0.1-9.4c2.8-1.6,4.7-4.8,8.5-4.8c1.2,0.2,2,1,3,1.4c1.6,2.4,2.7,4.9,2.8,7.8
				c-0.3,8.7-3.1,10.5-12.8,8.6C305.1,165.8,304.6,164.6,304.7,163.2z"/>
			<path class="st39" d="M276.2,160c2.7-0.5,4.3-1.7,3.2-4.7c0.5,0,1.1,0,1.6,0c2.1-2.4,4.2,1.7,6.3,0c5.7-1.2,11.8-4.1,15.8,3.2
				c-0.9,6.5-6.9,5.6-10.8,7.6c-3.3,0.1-6.7,0.6-10,0.4C278.5,166.2,274.5,165.5,276.2,160z"/>
			<path class="st40" d="M287.3,155.3c-2.1,4.5-4.2-0.4-6.3,0C283.1,153.4,285.2,154.3,287.3,155.3z"/>
			<path class="st83" d="M276.2,153.7c0-1.1,0.1-2.3,0.1-3.4c1.5-2.6,3-5.3,4.5-7.9c6.4,1.2,13-0.2,19.4,1.7c2,1.3,3.4,3.3,5.4,4.6
				c1.5,1.5,2.1,3.3,2,5.5c-0.1,3,1.1,6.2-1.6,8.8c-2.3,1.6-3.9,0.4-5.2-1.5c-3.4-6.8-9.8-1.9-14.4-3.7c-1.8-0.4-3.6-0.2-5.3-0.2
				c-0.8,0-1.5-0.1-2.2-0.3C277.3,156.5,276.3,155.4,276.2,153.7z"/>
			<path class="st84" d="M312.6,150.5c-1.1-2,0.8-3,1.5-4.3c1.9,0.8,1.8,2.6,2.2,4.2C315,150.4,313.8,150.5,312.6,150.5z"/>
			<path class="st85" d="M312.6,150.5c-1.8,3-4,5.1-7.8,3.2c-0.5-1.6-1-3.3-1.6-4.9c-1-0.8-1.1-1.8-0.7-3c3.4-0.7,6.5-2.5,9.9-3.2
				c0.5,1.2,1.1,2.4,1.6,3.5C314.8,148.1,313.4,149.2,312.6,150.5z"/>
			<path class="st86" d="M303.1,144.2c0,0.5,0.1,1.1,0.1,1.6c0,1,0,2,0,3.1c-0.2,0.7-0.1,1.7-0.5,2c-1,0.7-1-0.4-1.2-1
				c-0.5-1.3-1-2.7-1.5-4.1c0-0.5,0-1.1,0-1.6c0.6-1.1,1.1-1.1,1.7,0C302.1,144.2,302.6,144.2,303.1,144.2z"/>
			<path class="st84" d="M312.4,142.7c-2.4,3.1-5.3,4.4-9.2,3.1c-0.4-0.3-0.6-0.7-0.5-1c0.1-0.4,0.2-0.6,0.4-0.6
				c4.5-0.7,6.6-3.3,6.3-7.8C311,138.2,312.6,140,312.4,142.7z"/>
			<path class="st87" d="M305,129.4c2.1,2,3.6,4.2,4.4,7c2.6,5.6,1,8.8-5.1,9.7c-0.9-0.1-1.7-0.4-2.4-0.9c-1.6-3.8-2.7-7.7-4.2-11.4
				c-0.1-1.1-0.4-2.3-0.6-3.4C298.7,122.6,302,127.4,305,129.4z"/>
			<path class="st88" d="M299.9,145.8c-5.2,3-11-0.6-16.6,1.4c-2.1,0.8-2.1-2.9-2.5-4.8c0-1.7,0.1-3.3,1.4-4.6
				c4.9-4.1,10-6.9,16.2-2.4c2,2.6,4,5.1,3.1,8.7C301.2,144.8,300.7,145.4,299.9,145.8z"/>
			<path class="st89" d="M301.6,144.2c-0.6,0-1.1,0-1.7,0c-1.1-2.6-2.1-5.3-3.2-7.9c0-0.5,0-1.1,0-1.6c0.6-0.5,0.7-1.5,1.7-1.6
				C300.8,136.4,301.5,140.2,301.6,144.2z"/>
			<path class="st90" d="M298.5,133.1c-0.6,0.5-1.1,1.1-1.7,1.6c0-0.5-0.1-1-0.1-1.5c-1.3-3.6-4.3-6.8-3.1-11.2
				c1.6,2.7,3.1,5.3,4.7,8C298.4,131,298.4,132,298.5,133.1z"/>
			<path class="st91" d="M305,129.4c-1.9,3.3-4.9-4.8-6.7,0.6c-4.5-0.9-3-5.4-4.7-8c0.5-1.5,1-3,1.5-4.5
				C299.9,120.3,302.4,124.8,305,129.4z"/>
			<path class="st86" d="M284.3,128.4c5.8-2.7,7.4,5.5,12.4,4.8c0.5,0.4,0.8,0.9,0.9,1.5c-0.1,0.6-0.4,1.2-0.9,1.6
				c-4.9-0.2-9.3,4.4-14.5,1.5C282.9,134.7,283.6,131.5,284.3,128.4z"/>
			<path class="st92" d="M287.1,109.5c2.7,2.7,5.3,5.4,8,8c0.6,1.6,1.2,3.3,1.9,4.9c-0.7,3.8,2.2,7.5,0.2,11.3
				c-5.7,1.6-10-0.2-12.9-5.3c0-0.5,0.1-1.1,0.1-1.6c1.2-4.4,0.2-8.9,0.6-13.3C285.1,112,284,109.5,287.1,109.5z"/>
			<path class="st105" d="M287.1,109.5c-2.9,5.4,0.4,11.9-2.8,17.3c0-5.7-0.2-11.4,0.1-17.1C284.7,106.2,286.1,107.3,287.1,109.5z"
				/>
		</g>
		<g>
			<path class="st93" d="M371.9,225.4c-5.5,23.6-16,45.2-27.2,66.5c-11.9,22.6-25.2,44.3-39.2,65.6c-2.1,3.2-3.7,3.5-7,1.8
				c-6.2-3.2-12.8-5.8-19.1-8.9c-2.2-1.1-3.5-1.1-5.1,1c-0.7,0.9-1.4,1.7-2.1,2.6c-3,3.6-6.1,7.1-9.3,10.6c-1.2,1.3-2.4,2.7-3.7,4
				c-0.3,0.4-0.6,0.7-0.8,1l-20.1,22.9c-0.4,0.3-0.7,0.7-1.2,1.2c-7.5,8.8-15.2,17.4-23.3,26.6c-4-9-7.8-17.5-11.4-26
				c-0.8-2,1-2.9,2-4c18.5-20.5,37.1-40.9,55.6-61.3c36.8-40.5,73.6-81,110.5-121.5c0.9-1,1.8-1.9,3.2-3.4
				C374.8,211.8,373.5,218.6,371.9,225.4z"/>
		</g>
	</g>
</g>
</svg>
