<?xml version="1.0" encoding="utf-8"?>
<!-- Generator: Adobe Illustrator 22.0.1, SVG Export Plug-In . SVG Version: 6.00 Build 0)  -->
<svg version="1.1" id="Layer_1" xmlns="http://www.w3.org/2000/svg" xmlns:xlink="http://www.w3.org/1999/xlink" x="0px" y="0px"
	 viewBox="0 0 96 96" style="enable-background:new 0 0 96 96;" xml:space="preserve">
<style type="text/css">
	.st0{fill:#626871;}
</style>
<path class="st0" d="M47.8,2.9c-25,0-45.3,20.3-45.3,45.3s20.3,45.3,45.3,45.3s45.3-20.3,45.3-45.3S72.9,2.9,47.8,2.9z M47.8,8.6
	c1.3,0,2.6,0.1,3.9,0.2c-5.1,1.9-6.2,8-9.2,8.8c-2.8,0.7-6.4,1.1-9.7,1.1c-3.3,0-9.9,1.5-8.8,3.9c1.2,2.9,4.2,0.9,6.3,2
	c2,1.1,1,3.6,1.6,4.9c1.5,3.5,13.6-1.7,22.4,0.4c9.4,2.4,13.7,14.1,16.5,15.2c2.8,1.1,6.4,2,5.5,5.9c-1.2,5.1-3.7,4-3.9,7.2
	c-0.2,3.1-2,7.8-6.5,9.7C61.3,69.8,55.8,78,51.4,78.6c-4.4,0.6-6.8,4-5,6.2c0.7,0.8,2.2,1.9,3.2,3c-0.6,0-1.1,0.1-1.7,0.1
	c-2.6,0-5.2-0.3-7.6-0.8c-1-0.9-1.9-1.9-2.4-2.5c-1.4-1.9-2.6-5.2-0.5-8.8c2.2-3.6,2.7-5.5,2.9-10.1c0.5-9.5-13.2-8.1-11.5-19.3
	c0.6-4.1,5-9.2,2-9.9c-4.2-1-5.6-6.1-8.4-6.1c-2.8,0-5.6-0.7-7-3.5c-0.2-0.4-0.3-0.7-0.3-1.1C22.2,15.4,34.3,8.6,47.8,8.6z"/>
</svg>
