<?xml version="1.0" encoding="utf-8"?>
<!-- Generator: Adobe Illustrator 22.0.1, SVG Export Plug-In . SVG Version: 6.00 Build 0)  -->
<svg version="1.1" id="Layer_1" xmlns="http://www.w3.org/2000/svg" xmlns:xlink="http://www.w3.org/1999/xlink" x="0px" y="0px"
	 viewBox="0 0 30 30" style="enable-background:new 0 0 30 30;" xml:space="preserve">
<style type="text/css">
	.st0{fill:#FFDA73;}
	.st1{fill:#FFFFFF;}
	.st2{fill:#262C38;}
	.st3{fill:#F05469;}
</style>
<g>
	<g>
		<path class="st0" d="M15.1,26.7c-6.5,0-11.8-5.3-11.8-11.8C3.3,8.3,8.6,3,15.1,3c6.5,0,11.8,5.3,11.8,11.8
			C26.9,21.4,21.6,26.7,15.1,26.7z"/>
		<path class="st1" d="M15.1,4c6,0,10.8,4.8,10.8,10.8s-4.8,10.8-10.8,10.8S4.3,20.8,4.3,14.8S9.1,4,15.1,4 M15.1,2
			C8,2,2.3,7.8,2.3,14.8S8,27.7,15.1,27.7s12.8-5.8,12.8-12.8S22.2,2,15.1,2L15.1,2z"/>
	</g>
	<g>
		<path class="st2" d="M8,15.3C8,19,11.2,22,15.1,22s7.1-3,7.1-6.7H8z"/>
	</g>
	<g>
		<path class="st3" d="M15.1,17c-2.3,0-4.4,0.4-6.4,1.2c1.1,2.3,3.6,3.8,6.4,3.8c2.8,0,5.3-1.6,6.4-3.8C19.6,17.5,17.4,17,15.1,17z"
			/>
	</g>
	<g>
		<path class="st2" d="M21.5,13.2c-0.1,0-0.1,0-0.2,0l-2.8-1.4c-0.2-0.1-0.3-0.2-0.3-0.4c0-0.2,0.1-0.4,0.3-0.4l2.8-1.4
			c0.2-0.1,0.5,0,0.7,0.2c0.1,0.2,0,0.5-0.2,0.7l-1.9,1l1.9,0.9c0.2,0.1,0.3,0.4,0.2,0.7C21.9,13.1,21.7,13.2,21.5,13.2z"/>
	</g>
	<g>
		<path class="st2" d="M8.6,13.2c-0.2,0-0.4-0.1-0.4-0.3c-0.1-0.2,0-0.5,0.2-0.6l2-0.9l-2-1C8.1,10.3,8,10,8.1,9.7
			c0.1-0.2,0.4-0.3,0.7-0.2l2.9,1.5c0.2,0.1,0.3,0.3,0.3,0.4c0,0.2-0.1,0.4-0.3,0.4l-2.9,1.3C8.7,13.2,8.6,13.2,8.6,13.2z"/>
	</g>
</g>
</svg>
