<?xml version="1.0" encoding="utf-8"?>
<!-- Generator: Adobe Illustrator 22.0.1, SVG Export Plug-In . SVG Version: 6.00 Build 0)  -->
<svg version="1.1" id="Layer_1" xmlns="http://www.w3.org/2000/svg" xmlns:xlink="http://www.w3.org/1999/xlink" x="0px" y="0px"
	 viewBox="0 0 30 30" style="enable-background:new 0 0 30 30;" xml:space="preserve">
<style type="text/css">
	.st0{fill:#F05469;}
	.st1{fill:#FFFFFF;}
</style>
<g>
	<g>
		<path class="st0" d="M15.3,27.7c-6.8,0-12.4-5.5-12.4-12.4c0-6.8,5.5-12.4,12.4-12.4c6.8,0,12.4,5.5,12.4,12.4
			C27.7,22.1,22.1,27.7,15.3,27.7z"/>
		<path class="st1" d="M15.3,3.9c6.3,0,11.4,5.1,11.4,11.4s-5.1,11.4-11.4,11.4S3.9,21.6,3.9,15.3S9,3.9,15.3,3.9 M15.3,1.9
			c-7.4,0-13.4,6-13.4,13.4s6,13.4,13.4,13.4s13.4-6,13.4-13.4S22.7,1.9,15.3,1.9L15.3,1.9z"/>
	</g>
	<path class="st1" d="M21.8,13.5c0-0.3-0.2-3.5-3.2-3.5c-3,0-3.3,2.3-3.3,2.3S15,10,12,10c-3,0-3.2,3.2-3.2,3.5
		c0,3.5,4.3,6.7,6.5,7.9l0,0h0l0,0l0,0C17.5,20.2,21.8,17,21.8,13.5z"/>
</g>
</svg>
