<?xml version="1.0" encoding="utf-8"?>
<!-- Generator: Adobe Illustrator 22.0.1, SVG Export Plug-In . SVG Version: 6.00 Build 0)  -->
<svg version="1.1" id="Layer_1" xmlns="http://www.w3.org/2000/svg" xmlns:xlink="http://www.w3.org/1999/xlink" x="0px" y="0px"
	 viewBox="0 0 30 30" style="enable-background:new 0 0 30 30;" xml:space="preserve">
<style type="text/css">
	.st0{fill:#FFD877;}
	.st1{fill:none;stroke:#FFFFFF;stroke-width:2;}
	.st2{fill:#5478BB;}
	.st3{fill:#FFFFFF;}
</style>
<g id="Like_1_">
	<g id="Outline_1_">
		<g>
			<path id="path-21" class="st0" d="M26.2,15.3c0,6.3-5.1,11.4-11.4,11.4S3.5,21.6,3.5,15.3S8.6,3.9,14.8,3.9S26.2,9,26.2,15.3"/>
		</g>
		<path class="st1" d="M27.6,15.3c0,7.1-5.7,12.8-12.8,12.8S2.1,22.4,2.1,15.3S7.8,2.5,14.8,2.5S27.6,8.2,27.6,15.3z"/>
	</g>
	<path id="Fill-70_1_" class="st2" d="M26.2,15.3c0,6.3-5.1,11.4-11.4,11.4S3.5,21.6,3.5,15.3S8.6,3.9,14.8,3.9S26.2,9,26.2,15.3"/>
	<path id="Fill-82_1_" class="st3" d="M20.7,15.4c0-0.6-0.2-0.8-0.4-0.9c0.1-0.2,0.2-0.5,0.2-0.8c0-0.7-0.6-1.2-1.5-1.2h-2.3
		c0.1-0.4,0.1-1.1,0.1-1.5c0-0.8-0.2-1.7-0.9-2.1c-0.2-0.1-0.4-0.2-0.6-0.2c-0.4,0-0.7,0.2-0.8,0.3c-0.1,0.1-0.1,0.2-0.1,0.2
		l0.1,1.6c0,1.2-1.8,2.7-1.8,3.9v3.8c0,0.6,0.9,1,2.1,1h3.4c0.6,0,1-0.2,1.2-0.6c0.2-0.4,0.2-0.7,0.1-1c0.3-0.1,0.7-0.4,0.7-0.8
		c0.1-0.3,0-0.6-0.1-0.7C20.4,16.2,20.7,16,20.7,15.4"/>
	<path id="Fill-84_1_" class="st3" d="M11.4,13.9H9.7c-0.3,0-0.6,0.3-0.6,0.6v5.2c0,0.3,0.3,0.6,0.6,0.6h1.7c0.3,0,0.6-0.3,0.6-0.6
		v-5.2C12,14.1,11.7,13.9,11.4,13.9"/>
</g>
</svg>
