<?xml version="1.0" encoding="utf-8"?>
<!-- Generator: Adobe Illustrator 22.0.1, SVG Export Plug-In . SVG Version: 6.00 Build 0)  -->
<svg version="1.1" id="Layer_1" xmlns="http://www.w3.org/2000/svg" xmlns:xlink="http://www.w3.org/1999/xlink" x="0px" y="0px"
	 viewBox="0 0 200 48" style="enable-background:new 0 0 200 48;" xml:space="preserve">
<style type="text/css">
	.st0{fill:#616771;}
	.st1{fill:#6B7179;}
	.st2{font-family:'Roboto-Bold';}
	.st3{font-size:28.4071px;}
</style>
<g>
	<g>
		<path class="st0" d="M85.3,30.6c1.2-1.1,1.5-2.9,0.7-4.2c-0.2-0.4-0.2-0.6,0.1-1c1-0.9,1.4-2.1,1-3.4c-0.4-1.7-1.8-2.6-3.7-2.6
			c-3.8,0-7.6,0-11.4,0c-0.6,0-0.8-0.1-0.6-0.7c0.2-0.6,0.4-1.3,0.6-1.9c0.8-2.6,0.8-5.1-0.4-7.6c-1.2-2.7-2.6-3.7-5.4-3.6
			c-1.2,0-1.4,0.3-1.4,1.4c0,1.8,0,3.7,0,5.5c0,0.3,0,0.6-0.1,0.9c-1.3,2.6-2.6,5.3-4,7.9c-0.1,0-0.1,0-0.2,0c0-0.1,0-0.2,0-0.3
			c0-1.4-0.2-1.6-1.6-1.6c-3.4,0-6.7,0-10.1,0c-1,0-1.3,0.3-1.2,1.3c0.2,1.5,0.4,3,0.6,4.5c0.4,3,0.7,6,1.1,9
			c0.3,2.2,0.6,4.4,0.8,6.6c0.1,0.7,0.4,1,1.1,1c2.7,0,5.5,0,8.2,0c0.7,0,1-0.3,1.1-1c0-0.3-0.2-0.6,0.3-0.7
			c0.4-0.1,0.7,0.1,0.9,0.5c0.5,0.8,1.1,1.3,2.1,1.3c5.5,0,11.1,0,16.6,0c2.3,0,3.9-2.3,3.1-4.5c-0.2-0.6-0.2-0.8,0.4-1.2
			c1.6-1,2-2.9,1.1-4.5C84.9,31.1,85,30.9,85.3,30.6z M58.1,40c-1.9,0-3.7,0-5.6,0c-0.5,0-0.7-0.1-0.7-0.7
			c-0.5-4.2-1.1-8.5-1.6-12.7c-0.2-1.7-0.4-3.3-0.6-5c-0.1-0.5,0.1-0.6,0.6-0.6c2.7,0,5.3,0,8,0c0.6,0,0.8,0.2,0.7,0.8
			c0,2.9,0,5.8,0,8.7c0,2.9,0,5.8,0,8.7C58.9,39.8,58.8,40.1,58.1,40z M83.9,24.6c-0.3,0-0.7,0-1,0c-0.4,0.1-0.7,0.3-0.8,0.8
			c0,0.5,0.2,0.8,0.6,0.9c0.2,0,0.4,0.1,0.6,0.1c0.9,0.2,1.4,0.9,1.3,1.8c-0.1,0.8-0.7,1.5-1.6,1.5c-0.3,0-0.7,0-1,0
			c-0.5,0-0.7,0.3-0.8,0.8c0,0.4,0.2,0.7,0.6,0.9c0.2,0.1,0.5,0.1,0.7,0.2c0.8,0.2,1.3,1,1.2,1.8c-0.1,0.9-0.8,1.5-1.7,1.5
			c-0.5,0-0.9,0-1.4,0c-0.6,0-1.1,0.1-1.2,0.8c-0.1,0.7,0.4,0.9,1,1c1.3,0.3,1.9,1.3,1.4,2.4c-0.3,0.7-0.9,1-1.6,1c-2.7,0-5.3,0-8,0
			c-2.6,0-5.2,0-7.9,0c-0.7,0-1.2-0.2-1.3-1c-0.1-0.7-0.7-0.8-1.3-0.8c-1.3,0-1.3,0-1.3-1.3c0-4.2,0-8.4,0-12.6c0-0.5,0-0.8,0.6-0.8
			c0.4,0,0.5-0.3,0.7-0.6c1.5-3,3-6.1,4.5-9.1c0.2-0.3,0.2-0.6,0.2-0.9c0-1.5,0-3,0-4.6c0-0.4-0.2-0.9,0.2-1
			c0.5-0.2,1.1-0.2,1.6,0.2c0.5,0.3,0.8,0.8,1.1,1.2c1.5,2.4,1.8,4.8,0.9,7.5c-0.4,1.1-0.7,2.2-1,3.4c-0.3,1,0,1.5,1.1,1.5
			c4.3,0,8.6,0,12.9,0c0.4,0,0.7,0,1.1,0.1c0.8,0.3,1.2,1.1,1.1,1.8C85.5,23.9,84.7,24.5,83.9,24.6z M55.8,35.8
			c-0.7,0-1.3,0.6-1.3,1.3c0,0.7,0.6,1.3,1.3,1.2c0.7,0,1.3-0.6,1.3-1.3C57.1,36.3,56.5,35.8,55.8,35.8z"/>
		<path class="st0" d="M57.1,37c0,0.7-0.6,1.3-1.3,1.3c-0.7,0-1.3-0.5-1.3-1.2c0-0.7,0.6-1.3,1.3-1.3C56.5,35.8,57.1,36.3,57.1,37z"
			/>
		<path class="st0" d="M57.1,37c0,0.7-0.6,1.3-1.3,1.3c-0.7,0-1.3-0.5-1.3-1.2c0-0.7,0.6-1.3,1.3-1.3C56.5,35.8,57.1,36.3,57.1,37z"
			/>
	</g>
	<text transform="matrix(1 0 0 1 99.1611 34.9355)" class="st1 st2 st3">Like</text>
</g>
</svg>
