<?xml version="1.0" encoding="utf-8"?>
<!-- Generator: Adobe Illustrator 22.0.1, SVG Export Plug-In . SVG Version: 6.00 Build 0)  -->
<svg version="1.1" xmlns="http://www.w3.org/2000/svg" xmlns:xlink="http://www.w3.org/1999/xlink" x="0px" y="0px"
	 viewBox="0 0 503 469.1" style="enable-background:new 0 0 503 469.1;" xml:space="preserve">
<style type="text/css">
	.st0{display:none;}
	.st1{display:inline;fill:#EB363D;}
	.st2{opacity:9.000000e-02;}
	.st3{display:inline;fill:none;stroke:#FFFFFF;stroke-width:3;stroke-miterlimit:10;}
	.st4{display:inline;fill:#FFFFFF;}
	.st5{font-family:'Roboto-Light';}
	.st6{font-size:24px;}
	.st7{fill:#FFFFFF;}
	.st8{font-family:'Roboto-Black';}
	.st9{font-size:16px;}
	.st10{opacity:0.5;fill:#FFFFFF;}
	.st11{font-family:'LittleJackRegular';}
	.st12{font-size:30px;}
	.st13{opacity:0.5;}
</style>
<g id="Layer_1" class="st0">
	
		<image style="display:inline;overflow:visible;" width="605" height="454" xlink:href="../home/bees-growth.jpg"  transform="matrix(1 0 0 1 -88.9921 66.143)">
	</image>
</g>
<g id="BG" class="st0">
	<rect y="-3" class="st1" width="503" height="472.1"/>
</g>
<g id="Bars">
	<rect x="53" y="306.1" class="st2" width="54.7" height="133.1"/>
	<rect x="121" y="240.5" class="st2" width="54.7" height="198.6"/>
	<rect x="187" y="193.9" class="st2" width="54.7" height="245.3"/>
	<rect x="254" y="186" class="st2" width="54.7" height="253.1"/>
	<rect x="321" y="156.1" class="st2" width="54.7" height="283.1"/>
	<rect x="387" y="105.7" class="st2" width="54.7" height="333.5"/>
</g>
<g id="_x25__1" class="st0">
	<polyline class="st3" points="280,414.1 349,366.1 413,329.1 	"/>
	<circle class="st4" cx="280.2" cy="413.1" r="9"/>
	<circle class="st4" cx="413.2" cy="329.1" r="9"/>
	<circle class="st4" cx="351.2" cy="364.8" r="9"/>
	<text transform="matrix(1 0 0 1 263.6746 381.143)" class="st4 st5 st6">4%</text>
	<text transform="matrix(1 0 0 1 326.6746 349.143)" class="st4 st5 st6">12%</text>
	<text transform="matrix(1 0 0 1 392.6746 311.143)" class="st4 st5 st6">18%</text>
</g>
<g id="_x25__2">
	<text transform="matrix(1 0 0 1 268.6746 211.143)" class="st7 st8 st9">4%</text>
	<text transform="matrix(1 0 0 1 333.6746 177.143)" class="st7 st8 st9">12%</text>
	<text transform="matrix(1 0 0 1 399.6746 128.143)" class="st7 st8 st9">18%</text>
</g>
<g id="Words">
	<g>
		<g>
			<path class="st7" d="M412.5,86.2c0.6-3.7,1-7.4,1.1-11.1c0.1-3.7,0-7.4-0.6-11.1c-0.6-3.6-1.7-7.2-3.5-10.4
				c-1.8-3.2-4.3-6-7.4-8.2c3.4,1.6,6.4,4.3,8.6,7.5c2.2,3.2,3.5,7,4.2,10.8c0.7,3.8,0.8,7.7,0.6,11.5c-0.3,3.8-0.9,7.6-1.9,11.3
				L412.5,86.2z"/>
			<g>
				<polygon class="st7" points="419.1,83.6 413.3,84.5 408.7,81 410.8,94.6 				"/>
			</g>
		</g>
	</g>
	<text transform="matrix(1 0 0 1 241.6981 105.6614)" class="st10 st11 st6">Ramping Up</text>
	<g>
		<g>
			<path class="st7" d="M348.3,121.5c-0.3-5.1-1.2-10.1-2.7-14.8c-0.8-2.4-1.7-4.7-2.9-6.9c-1.2-2.2-2.6-4.2-4.2-6.1
				c-1.6-1.8-3.5-3.5-5.5-4.9c-2.1-1.4-4.3-2.5-6.6-3.4c-4.7-1.8-9.7-2.7-14.8-3c5.1-0.3,10.3,0.1,15.3,1.7c5,1.6,9.6,4.4,13.1,8.4
				c3.6,3.9,6,8.7,7.4,13.7c1.5,5,2,10.2,1.9,15.4L348.3,121.5z"/>
			<g>
				<polygon class="st7" points="354.1,117.7 348.7,119.7 343.5,117.3 348.4,130.1 				"/>
			</g>
		</g>
	</g>
	<text transform="matrix(1 0 0 1 225.1981 87.4025)" class="st7 st11 st12">First Year</text>
	<g>
		<g>
			<path class="st7" d="M272.5,157.2c-1.2-3-2.6-5.8-4.5-8.3c-1.9-2.5-4.2-4.7-6.8-6.2c-2.6-1.6-5.6-2.6-8.7-3.2
				c-3.1-0.5-6.3-0.5-9.6-0.4c3.2-0.8,6.4-1.2,9.8-1c3.3,0.3,6.6,1.2,9.6,2.9c2.9,1.7,5.5,4.1,7.4,6.8c1.9,2.8,3.2,5.9,4.1,9
				L272.5,157.2z"/>
			<g>
				<polygon class="st7" points="277.3,151.9 272.6,155.3 266.9,154.3 274.9,165.4 				"/>
			</g>
		</g>
	</g>
	<text transform="matrix(1 0 0 1 107.6983 145.0685)" class="st7 st11 st12">BeforeAdvertising</text>
	<text transform="matrix(1 0 0 1 158.1743 167.3993)" class="st10 st11 st6">Slowing Down</text>
	<text transform="matrix(1 0 0 1 308.6743 45.402)" class="st7 st11 st12">Second Year</text>
</g>
<g id="Line_2">
	<g class="st13">
		<path class="st7" d="M116,247.1c1.1-3.2,2.7-6.2,4.5-9.1c1.8-2.9,3.8-5.6,6-8.3c4.4-5.2,9.4-9.9,14.8-14
			c10.9-8.2,23.4-14.2,36.3-18.5c6.5-2.2,13.1-3.9,19.8-5.3c6.7-1.4,13.4-2.4,20.2-3.2c13.6-1.5,27.2-1.9,40.8-1.6l0,0l0.1,0
			c6.9,0.7,14,0.8,21,0.7c7-0.2,14-0.7,21-1.6c13.9-1.8,27.7-5.2,40.4-11.1c6.4-2.9,12.4-6.6,17.9-10.9c5.5-4.4,10.4-9.5,14.4-15.2
			c4-5.7,7.2-12.1,9.4-18.8c1.1-3.3,2-6.7,2.7-10.2c0.7-3.4,1.2-7,1.5-10.5c-0.5,7-1.6,14.1-3.7,20.8c-2.1,6.8-5.1,13.3-9.1,19.2
			c-2,3-4.2,5.7-6.6,8.3c-2.4,2.6-5,5.1-7.8,7.3c-5.5,4.5-11.6,8.3-18,11.3c-6.4,3.1-13.1,5.5-20,7.3c-6.9,1.9-13.8,3.2-20.9,4.2
			c-7,0.9-14.1,1.5-21.2,1.7c-7.1,0.2-14.2,0-21.3-0.6l0.1,0c-13.5-0.4-27.1-0.1-40.6,1.4c-13.5,1.4-26.8,4-39.7,8.1
			c-12.9,4.1-25.3,9.9-36.2,17.9c-5.5,4-10.6,8.5-15,13.6c-2.2,2.5-4.3,5.2-6.2,8.1C118.9,241,117.2,244,116,247.1z"/>
	</g>
</g>
</svg>
