<?xml version="1.0" encoding="utf-8"?>
<!-- Generator: Adobe Illustrator 22.0.1, SVG Export Plug-In . SVG Version: 6.00 Build 0)  -->
<svg version="1.1" id="Layer_1" xmlns="http://www.w3.org/2000/svg" xmlns:xlink="http://www.w3.org/1999/xlink" x="0px" y="0px"
	 viewBox="0 0 503 469.1" style="enable-background:new 0 0 503 469.1;" xml:space="preserve">
<style type="text/css">
	.st0{display:none;}
	.st1{display:inline;fill:#EB363D;}
	.st2{opacity:9.000000e-02;enable-background:new    ;}
	.st3{display:inline;fill:none;stroke:#FFFFFF;stroke-width:3;stroke-miterlimit:10;}
	.st4{display:inline;fill:#FFFFFF;}
	.st5{font-family:'Roboto-Light';}
	.st6{font-size:24px;}
	.st7{fill:#FFFFFF;}
	.st8{font-family:'Roboto-Black';}
	.st9{font-size:16px;}
	.st10{opacity:0.5;enable-background:new    ;}
	.st11{enable-background:new    ;}
	.st12{opacity:0.5;}
</style>
<g id="Layer_1_1_" class="st0">
	
		<image style="display:inline;overflow:visible;enable-background:new    ;" width="1509" height="1182" xlink:href="../home/bees-growth.jpg"  transform="matrix(0.3946 0 0 0.3946 -84.2266 59.9275)">
	</image>
</g>
<g id="BG" class="st0">
	<rect y="-3" class="st1" width="503" height="472.1"/>
</g>
<g id="Bars">
	<rect x="53" y="339.1" class="st2" width="54.7" height="133.1"/>
	<rect x="121" y="273.5" class="st2" width="54.7" height="198.6"/>
	<rect x="187" y="226.9" class="st2" width="54.7" height="245.3"/>
	<rect x="254" y="219" class="st2" width="54.7" height="253.1"/>
	<rect x="321" y="189.1" class="st2" width="54.7" height="283.1"/>
	<rect x="387" y="138.7" class="st2" width="54.7" height="333.5"/>
</g>
<g id="_x25__1" class="st0">
	<polyline class="st3" points="280,414.1 349,366.1 413,329.1 	"/>
	<circle class="st4" cx="280.2" cy="413.1" r="9"/>
	<circle class="st4" cx="413.2" cy="329.1" r="9"/>
	<circle class="st4" cx="351.2" cy="364.8" r="9"/>
	<text transform="matrix(1 0 0 1 263.6746 381.143)" class="st4 st5 st6">4%</text>
	<text transform="matrix(1 0 0 1 326.6746 349.143)" class="st4 st5 st6">12%</text>
	<text transform="matrix(1 0 0 1 392.6746 311.143)" class="st4 st5 st6">18%</text>
</g>
<g id="_x25__2">
	<text transform="matrix(1 0 0 1 268.6746 244.143)" class="st7 st8 st9">4%</text>
	<text transform="matrix(1 0 0 1 333.6746 210.143)" class="st7 st8 st9">12%</text>
	<text transform="matrix(1 0 0 1 399.6746 161.143)" class="st7 st8 st9">18%</text>
</g>
<g id="Words">
	<g>
		<g>
			<g>
				<path class="st7" d="M412.5,119.2c0.6-3.7,1-7.4,1.1-11.1s0-7.4-0.6-11.1c-0.6-3.6-1.7-7.2-3.5-10.4s-4.3-6-7.4-8.2
					c3.4,1.6,6.4,4.3,8.6,7.5c2.2,3.2,3.5,7,4.2,10.8s0.8,7.7,0.6,11.5c-0.3,3.8-0.9,7.6-1.9,11.3L412.5,119.2z"/>
			</g>
			<g>
				<g>
					<polygon class="st7" points="419.1,116.6 413.3,117.5 408.7,114 410.8,127.6 					"/>
				</g>
			</g>
		</g>
	</g>
	<g class="st10">
		<path class="st7" d="M253.2,139.1c0.1,0.3-0.1,0.4-0.4,0.4c-0.5,0-1-0.2-1.5-0.5c-0.1-0.1-0.2-0.1-0.2-0.2c-0.1-0.3-0.3-0.6-0.5-1
			c-0.2-0.4-0.4-0.7-0.6-1c-0.2-0.3-0.3-0.6-0.6-1c-0.2-0.4-0.4-0.7-0.6-1c0,0-0.1-0.1-0.2-0.3s-0.2-0.3-0.3-0.4
			c0-0.1-0.1-0.2-0.3-0.4c-0.2-0.2-0.3-0.3-0.3-0.4c-0.1-0.1-0.2-0.2-0.3-0.4c-0.1-0.2-0.3-0.3-0.4-0.4c-0.1-0.1-0.2-0.2-0.3-0.3
			c-0.1-0.1-0.3-0.2-0.4-0.3s-0.2-0.2-0.3-0.2c-0.1,0-0.2,0.1-0.3,0.1c0,0.4,0.1,0.9,0.2,1.6c0.1,0.6,0.1,1.2,0.2,1.6
			c0,0.4,0.1,1,0.1,1.5s0.1,1.1,0.1,1.6c0,0.3-0.2,0.4-0.7,0.2c-0.4-0.1-0.6-0.3-0.7-0.5c-0.4-2.1-0.7-4.2-0.7-6.3
			c-0.2-0.1-0.2-0.3-0.1-0.4l0,0c0-0.3,0-0.7,0-1.1c-0.2-2-0.2-4.1,0-6.1c-0.5,0.2-1,0.4-1.5,0.7c-0.1,0.1-0.3,0-0.5-0.1
			c-0.1-0.1-0.1-0.1,0-0.2c0.7-0.5,1.4-0.9,2.2-1.2v0c0-0.1,0.1-0.2,0.3-0.1c0.7-0.3,1.3-0.5,1.9-0.7c0.6-0.2,1.3-0.3,1.9-0.4
			c0.7-0.1,1.3,0,1.8,0.2c0.6,0.2,1,0.6,1.4,1c0.4,0.6,0.7,1.2,0.7,1.9c0,0.7-0.1,1.3-0.4,1.8c-0.3,0.6-0.7,1.1-1.3,1.7
			c-0.5,0.6-1.1,1-1.7,1.5c-0.6,0.4-1.2,0.8-1.8,1.2c0.8,0.4,1.8,1.2,3,2.5C251.7,135.8,252.8,137.5,253.2,139.1z M244.9,123.8
			c0.1,0.7,0.2,1.3,0.2,2s0.1,1.6,0.2,2.6s0.1,1.7,0.1,2.1c0.7-0.5,1.3-0.9,1.8-1.3s1-0.9,1.5-1.5c0.5-0.6,0.9-1.2,1.2-1.7
			c0.2-0.6,0.3-1.1,0.4-1.5c0-0.4-0.1-0.7-0.3-0.9c-0.2-0.2-0.5-0.3-0.9-0.4c-0.3-0.1-0.8-0.1-1.3,0c-0.5,0.1-1,0.1-1.5,0.3
			C245.9,123.4,245.5,123.6,244.9,123.8z"/>
		<path class="st7" d="M259.1,136.9c0.1,0.4,0.2,0.9,0.3,1.4c0,0.2-0.2,0.3-0.5,0.3c-0.3-0.1-0.6-0.2-0.8-0.4
			c-0.4,0.3-0.9,0.4-1.4,0.5c-0.5,0.1-1.1,0-1.6-0.2c-0.5-0.2-0.9-0.5-1.2-0.9c-0.3-0.5-0.3-1-0.1-1.5c0.2-0.5,0.5-0.9,0.9-1.2
			c0.8-0.6,1.7-0.7,2.7-0.5c0-0.2,0.1-0.5,0.1-0.7c0.1-0.2,0.3-0.2,0.5-0.1c0.3,0.1,0.4,0.2,0.4,0.4c0.1,0.2,0.1,0.4,0.2,0.7
			c0,0.2,0.1,0.5,0.1,0.8c0,0.3,0.1,0.5,0.1,0.7c0,0,0,0.1,0,0.2C259.1,136.6,259.2,136.7,259.1,136.9
			C259.1,136.8,259.1,136.9,259.1,136.9z M255.2,137c0,0.8,0.4,0.9,1.3,0.4c0.4-0.2,0.7-0.5,1-0.8c-0.1-0.5-0.1-1-0.1-1.5
			c-0.5,0-1,0.2-1.5,0.6S255.2,136.4,255.2,137z"/>
		<path class="st7" d="M267.4,135.5c0,0.1,0,0.4,0.1,0.7c0,0.4,0.1,0.6,0.1,0.9c0,0.2,0,0.5,0,0.8c0,0.3-0.1,0.5-0.2,0.8
			c-0.1,0.2-0.3,0.2-0.7,0.1c-0.4-0.1-0.6-0.2-0.6-0.4c-0.1-0.2-0.1-0.3-0.2-0.6c0-0.2-0.1-0.4-0.1-0.6c0-0.2,0-0.4,0-0.6
			s0-0.4,0-0.6c0-0.2,0-0.4,0-0.6c0-0.3,0-0.4,0-0.6c0,0,0-0.1,0-0.3c0-0.2,0-0.3,0-0.4s0-0.2,0-0.3c0-0.1-0.1-0.2-0.1-0.3
			c-0.1-0.1-0.1-0.1-0.2-0.1c-0.2,0-0.7,0.4-1.7,1.2c0,0,0.1,0.3,0.1,0.7c0.2,0.8,0.2,1.5,0,2.2c-0.1,0.2-0.2,0.2-0.4,0.2
			s-0.4-0.1-0.7-0.2c-0.2-0.1-0.4-0.3-0.4-0.4c0-0.3,0-0.7,0-1.4c0-0.6,0-1.1,0-1.4c0,0,0,0,0-0.1c0-0.2,0-0.3,0-0.3
			c0,0-0.1,0-0.2,0c-0.1,0-0.2,0.1-0.3,0.1c-0.3,0.1-0.6,0.2-1.1,0.3c0,0.7,0,1.1,0,1.3c0,0.1,0,0.4,0.1,0.9c0,0.4,0.1,0.7,0.1,0.9
			c0,0.1,0,0.4,0,0.9c0,0.1-0.2,0.2-0.3,0.2c-0.2,0-0.3-0.1-0.5-0.2c-0.2-0.1-0.3-0.2-0.3-0.3c-0.1-0.4-0.2-0.9-0.2-1.5
			c0-0.6,0-1.1,0-1.5c0-0.9,0.1-1.7,0.4-2.6c0-0.1,0.2-0.1,0.3,0s0.3,0.1,0.3,0.2c0.1,0.4,0.2,0.8,0.2,1.2c0.3-0.2,0.6-0.3,0.9-0.4
			c0.2-0.1,0.5-0.1,0.8-0.1c0.3,0,0.6,0.1,0.8,0.3c0.2,0.2,0.3,0.4,0.4,0.7c0.2-0.3,0.5-0.5,0.6-0.7c0.2-0.2,0.4-0.3,0.7-0.5
			s0.5-0.2,0.8-0.2c0.3,0,0.5,0.2,0.8,0.5c0.1,0.1,0.1,0.1,0.2,0.2c0.1,0.1,0.1,0.2,0.1,0.2c0,0.1,0.1,0.2,0.1,0.3
			c0,0.1,0.1,0.2,0.1,0.3c0,0.1,0,0.2,0,0.3c0,0.1,0,0.2,0,0.3s0,0.2,0,0.3S267.4,135.5,267.4,135.5z"/>
		<path class="st7" d="M273.5,134.3c0.4,0.8,0.5,1.4,0.3,2.1c-0.3,0.6-0.7,1.1-1.4,1.5c-0.7,0.4-1.4,0.6-2.1,0.5
			c-0.3,0-0.5-0.2-0.8-0.4c0,0.5,0.1,1.1,0.1,1.7c0,0.2,0.1,0.6,0.1,1.3c0.1,0.6,0.1,1.1,0.1,1.5c0,0.4,0,0.8,0,1.3
			c0,0.5,0,1-0.1,1.5s-0.2,0.9-0.3,1.2c-0.1,0.2-0.3,0.2-0.7,0.1c-0.4-0.1-0.6-0.3-0.6-0.5c-0.1-0.5-0.2-1.1-0.2-1.7
			c0-0.6,0-1.2,0-1.8c0-0.5,0.1-1.1,0.1-1.8c0-0.7,0.1-1.3,0.1-1.7c0-0.1-0.1-1.5-0.2-4.4c-0.1-0.1-0.1-0.2,0-0.3h0
			c0-0.9,0-1.6,0-2.3c0-0.2,0.2-0.2,0.5-0.1c0.1,0.1,0.2,0.2,0.2,0.2c0.1,0.4,0.2,0.9,0.3,1.4c0.6-0.4,1.3-0.6,2-0.6
			C272,133.1,272.9,133.5,273.5,134.3z M269.7,137.5c1.8-0.4,2.7-1.1,2.7-2.3c0-0.5-0.1-0.9-0.3-1.1c-0.2-0.2-0.5-0.3-0.9-0.3
			c-0.4,0-0.7,0.1-1.1,0.3s-0.7,0.3-1.1,0.5c0.2,0.9,0.3,1.9,0.4,3C269.6,137.6,269.7,137.5,269.7,137.5z"/>
		<path class="st7" d="M275.8,131.4c-0.3,0.1-0.6,0.2-1,0.1c-0.1,0-0.2-0.1-0.3-0.2c0-0.1,0-0.2,0.1-0.3c0.1-0.1,0.1-0.1,0.2-0.2
			c0,0,0.2-0.2,0.6-0.4c0.4-0.2,0.7-0.1,1,0.1c0.1,0,0.1,0.1,0.2,0.2c0.1,0.1,0.1,0.1,0.1,0.2c0,0.1,0,0.1-0.2,0.2
			C276.2,131.3,275.9,131.4,275.8,131.4z M276.8,136.1c0.1,0.4,0.1,0.8,0.1,1.3c0,0.5-0.1,0.9-0.3,1.2c-0.1,0.2-0.4,0.3-0.7,0.1
			s-0.5-0.3-0.6-0.5c-0.1-0.3-0.2-0.6-0.2-0.9c0-0.3,0-0.7,0-1.2c0-0.5,0.1-0.8,0.1-0.9c0-0.8,0-1.7,0.1-2.5c0-0.1,0.1-0.2,0.3-0.2
			c0.2,0,0.3,0.1,0.5,0.2c0.2,0.1,0.3,0.2,0.3,0.3C276.6,134.1,276.8,135.1,276.8,136.1z"/>
		<path class="st7" d="M281.5,135.7c0.2,0.8,0.2,1.5,0,2.2c-0.1,0.2-0.2,0.2-0.4,0.2c-0.2,0-0.4-0.1-0.7-0.2s-0.4-0.3-0.4-0.4
			c0-0.2,0-0.4,0-0.7s0-0.5,0-0.7c0-0.2,0-0.4,0-0.7s0-0.5,0-0.7c0,0,0,0,0-0.1c0-0.2,0-0.3,0-0.3c0,0-0.1,0-0.2,0c0,0-0.1,0-0.1,0
			c0,0,0,0-0.1,0c0,0-0.1,0-0.1,0c-0.3,0.1-0.6,0.2-1.1,0.3c0,0.7,0,1.1,0,1.3c0,0.1,0,0.4,0.1,0.9c0,0.4,0.1,0.7,0.1,0.9
			c0,0.1,0,0.4,0,0.9c0,0.1-0.2,0.2-0.3,0.2c-0.2,0-0.3-0.1-0.5-0.2s-0.3-0.2-0.3-0.3c-0.1-0.4-0.2-0.9-0.2-1.5c0-0.6,0-1.1,0-1.5
			c0-0.9,0.1-1.7,0.4-2.6c0-0.1,0.2-0.1,0.3,0c0.2,0.1,0.3,0.1,0.3,0.2c0.1,0.4,0.2,0.8,0.2,1.2c0.2-0.1,0.5-0.2,0.6-0.3
			c0.2-0.1,0.4-0.1,0.6-0.2c0.2-0.1,0.4-0.1,0.6,0s0.4,0.2,0.6,0.3c0.1,0.1,0.1,0.1,0.2,0.2c0.1,0.1,0.1,0.2,0.1,0.3
			s0.1,0.2,0.1,0.3c0,0.1,0.1,0.2,0.1,0.3s0,0.2,0.1,0.3C281.5,135.6,281.5,135.7,281.5,135.7z"/>
		<path class="st7" d="M289.6,140.1c0,0.1,0,0.2,0.1,0.4c0.1,0.4,0.1,0.8,0.2,1s0.1,0.6,0.1,1c0,0.4,0,0.8,0,1.1
			c0,0.3-0.1,0.6-0.2,0.9c-0.1,0.3-0.3,0.6-0.5,0.9c-0.2,0.3-0.5,0.5-0.8,0.6c-0.6,0.4-1.4,0.6-2.3,0.7s-1.8,0-2.7-0.1
			c-0.9-0.2-1.7-0.5-2.5-1c-0.8-0.5-1.3-1.1-1.5-1.8c-0.1-0.3,0-0.4,0.3-0.4c0.4,0,0.7,0.1,0.9,0.3c0.7,0.7,1.5,1.2,2.4,1.5
			c0.9,0.3,1.9,0.3,2.8,0.1c0.5-0.1,0.9-0.3,1.3-0.6s0.6-0.6,0.7-0.9c0.1-0.4,0.2-0.8,0.3-1.2c0-0.4,0-0.9,0-1.4
			c-0.1-1.3-0.3-2.9-0.6-4.8c-0.6,0.6-1.3,0.9-2.1,1c-0.7,0.1-1.4,0-2.1-0.2c-0.7-0.3-1.2-0.7-1.3-1.3c-0.1-0.4-0.1-0.7,0-1.1
			c0.1-0.4,0.4-0.7,0.6-0.9c0.3-0.3,0.6-0.5,0.9-0.7s0.7-0.3,1-0.4c0.7-0.3,1.5-0.3,2.3-0.3c-0.1-0.4-0.1-0.8-0.2-1.2
			c0-0.2,0.1-0.2,0.4-0.1c0.3,0.1,0.4,0.2,0.5,0.3c0.1,0.4,0.3,0.9,0.5,1.4c0.1,0,0.3,0.1,0.4,0.2c0.1,0,0.1,0.1,0.1,0.2
			c0,0.1-0.1,0.1-0.2,0.1c0,0-0.1,0-0.2,0C288.7,135.5,289.2,137.8,289.6,140.1z M286.7,134c0-0.1,0.1-0.2,0.2-0.2
			c0-0.1,0-0.2,0-0.3s0-0.2-0.1-0.2c-1.5,0.1-2.6,0.6-3.2,1.7c-0.2,0.3-0.3,0.6-0.2,0.9s0.3,0.5,0.6,0.6c0.5,0,0.9-0.2,1.3-0.5
			C286,135.4,286.4,134.8,286.7,134z"/>
		<path class="st7" d="M301,131.8c0.3,2.7,0.2,4.9-0.3,6.8c-0.1,0.2-0.4,0.3-0.8,0.2c-0.5-0.1-0.8-0.3-0.9-0.5
			c-0.6,0.3-1.2,0.4-1.8,0.5c-0.6,0.1-1.2,0-1.7-0.1c-0.6-0.1-1.1-0.4-1.5-0.9s-0.8-1-1.1-1.6c-0.3-0.7-0.4-1.6-0.5-2.7
			c0-1.1,0-2,0-2.8c0-0.9,0.1-1.6,0.1-2.1c0-0.5,0.1-1.1,0.2-1.8c0.1-0.8,0.3-1.4,0.5-2c0-0.1,0.1-0.1,0.3-0.1
			c0.2,0.1,0.3,0.2,0.3,0.3c0.1,0.6,0.2,1.8,0.1,3.6c-0.1,1.8-0.1,3,0,3.6c0,1.2,0.2,2.4,0.5,3.6c0.2,0.5,0.4,0.9,0.6,1.2
			c0.3,0.3,0.6,0.5,0.9,0.5c0.3,0.1,0.7,0.1,1.1,0c0.4-0.1,0.8-0.2,1.1-0.3c0.3-0.1,0.7-0.3,1.1-0.5c0.2-1.8,0.3-3.7,0.3-5.5
			c0-0.4-0.1-1.3-0.4-2.8c-0.2-1.4-0.3-2.5-0.1-3.2c0,0,0.1-0.1,0.1,0c0.1,0,0.1,0.1,0.2,0.1c0.6,0.8,1,1.8,1.3,2.9
			C300.7,129.1,300.9,130.4,301,131.8z"/>
		<path class="st7" d="M307.1,134.3c0.4,0.8,0.5,1.4,0.3,2.1c-0.3,0.6-0.7,1.1-1.4,1.5c-0.7,0.4-1.4,0.6-2.1,0.5
			c-0.3,0-0.5-0.2-0.8-0.4c0,0.5,0.1,1.1,0.1,1.7c0,0.2,0.1,0.6,0.1,1.3c0.1,0.6,0.1,1.1,0.1,1.5c0,0.4,0,0.8,0,1.3
			c0,0.5,0,1-0.1,1.5s-0.2,0.9-0.3,1.2c-0.1,0.2-0.3,0.2-0.7,0.1c-0.4-0.1-0.6-0.3-0.6-0.5c-0.1-0.5-0.2-1.1-0.2-1.7
			c0-0.6,0-1.2,0-1.8c0-0.5,0.1-1.1,0.1-1.8c0-0.7,0.1-1.3,0.1-1.7c0-0.1-0.1-1.5-0.2-4.4c-0.1-0.1-0.1-0.2,0-0.3h0
			c0-0.9,0-1.6,0-2.3c0-0.2,0.2-0.2,0.5-0.1c0.1,0.1,0.2,0.2,0.2,0.2c0.1,0.4,0.2,0.9,0.3,1.4c0.6-0.4,1.3-0.6,2-0.6
			C305.6,133.1,306.5,133.5,307.1,134.3z M303.3,137.5c1.8-0.4,2.7-1.1,2.7-2.3c0-0.5-0.1-0.9-0.3-1.1c-0.2-0.2-0.5-0.3-0.9-0.3
			c-0.4,0-0.7,0.1-1.1,0.3s-0.7,0.3-1.1,0.5c0.2,0.9,0.3,1.9,0.4,3C303.2,137.6,303.3,137.5,303.3,137.5z"/>
	</g>
	<g>
		<g>
			<g>
				<path class="st7" d="M348.3,154.5c-0.3-5.1-1.2-10.1-2.7-14.8c-0.8-2.4-1.7-4.7-2.9-6.9c-1.2-2.2-2.6-4.2-4.2-6.1
					c-1.6-1.8-3.5-3.5-5.5-4.9c-2.1-1.4-4.3-2.5-6.6-3.4c-4.7-1.8-9.7-2.7-14.8-3c5.1-0.3,10.3,0.1,15.3,1.7s9.6,4.4,13.1,8.4
					c3.6,3.9,6,8.7,7.4,13.7c1.5,5,2,10.2,1.9,15.4L348.3,154.5z"/>
			</g>
			<g>
				<g>
					<polygon class="st7" points="354.1,150.7 348.7,152.7 343.5,150.3 348.4,163.1 					"/>
				</g>
			</g>
		</g>
	</g>
	<g class="st11">
		<path class="st7" d="M240.4,99.9c0.3,0,0.7,0.1,1.2,0.5c0.4,0.3,0.4,0.5,0.1,0.6c-3.5,0.9-7,1.7-10.6,2.5c0.1,0.7,0.2,1.8,0.2,3.1
			c0.1,1.3,0.1,2.2,0.2,2.6c2.3-0.8,4.7-1.4,7.1-1.8c0.3-0.1,0.6,0.1,1.1,0.4c0.3,0.3,0.4,0.5,0.1,0.6c-0.4,0.1-1.6,0.5-3.6,1.1
			c-2,0.6-3.5,1-4.5,1.3c0.5,4.8,0.8,8,0.8,9.4c0,0.4-0.3,0.5-0.9,0.3c-0.6-0.2-1-0.4-1.1-0.8c-0.3-1.9-0.5-4.8-0.7-8.5
			c-0.8,0.2-1.4,0.3-2,0.4c-0.1,0-0.2,0-0.4-0.2c-0.1,0-0.1-0.1,0-0.1c0.7-0.5,1.5-1,2.3-1.4c0-0.2,0-0.4,0-0.7c0-0.4-0.1-1-0.1-1.6
			c-0.1-0.6-0.1-1.3-0.2-2c-0.1-0.7-0.1-1.3-0.1-1.8c-1.3,0.2-2.4,0.4-3.3,0.6c-0.1,0-0.3,0-0.5-0.2c-0.1-0.1-0.1-0.1,0-0.2
			c1.1-0.5,2.4-0.9,3.7-1.3c0-1,0.2-2,0.5-3c0-0.1,0.1-0.1,0.2,0c0.1,0,0.2,0.1,0.2,0.2c0.3,0.8,0.5,1.5,0.7,2.4
			C234,101.2,237.2,100.4,240.4,99.9z"/>
		<path class="st7" d="M243.1,111.3c-0.4,0.2-0.8,0.2-1.2,0.1c-0.2,0-0.3-0.1-0.4-0.3c0-0.2,0-0.3,0.1-0.4c0.1-0.1,0.2-0.2,0.3-0.2
			c0,0,0.3-0.2,0.8-0.5c0.4-0.2,0.8-0.2,1.2,0.1c0.1,0.1,0.2,0.1,0.3,0.2c0.1,0.1,0.1,0.2,0.1,0.3c0,0.1-0.1,0.2-0.2,0.2
			C243.5,111.2,243.2,111.3,243.1,111.3z M244.3,117.2c0.1,0.5,0.1,1,0.1,1.6c0,0.6-0.1,1.1-0.4,1.5c-0.2,0.3-0.5,0.3-0.9,0.2
			c-0.4-0.2-0.7-0.4-0.8-0.6c-0.1-0.4-0.2-0.7-0.2-1.1c0-0.4,0-0.8,0-1.5s0.1-1,0.1-1.1c0-1.1,0-2.1,0.1-3.2
			c0.1-0.2,0.2-0.2,0.4-0.2c0.2,0,0.4,0.1,0.6,0.2c0.2,0.1,0.3,0.3,0.4,0.4C244.1,114.7,244.3,115.9,244.3,117.2z"/>
		<path class="st7" d="M251,114.8c0.3,0.2,0.3,0.4,0.1,0.5c-0.4,0.1-0.7,0.1-1.1,0.1c-0.5,0.1-0.9,0.2-1.3,0.5
			c-0.8,0.5-1.4,1.2-1.7,2.1c0,0-0.1,0.1-0.1,0.1c0,0.7,0,1.3,0,2c0,0.2-0.2,0.3-0.4,0.3s-0.5-0.1-0.8-0.2c-0.3-0.2-0.4-0.3-0.5-0.5
			c-0.3-1.9-0.4-3.8-0.1-5.7c0-0.3,0.3-0.3,0.8-0.1c0.3,0.1,0.5,0.3,0.5,0.5c0.1,0.5,0.2,1,0.3,1.5c0.5-0.7,1.2-1.1,2-1.3
			C249.5,114.2,250.2,114.3,251,114.8z"/>
		<path class="st7" d="M255.3,117.4c0.7,1,1,1.7,0.9,2.2c-0.1,0.5-0.4,0.8-1,0.8c-0.6,0-1.2-0.1-1.8-0.3c-0.6-0.2-1-0.5-1.3-0.7
			c-0.4-0.3-0.4-0.5,0-0.6c0.4-0.1,0.7,0,1,0.2c0.5,0.3,0.8,0.4,1.1,0.2c0.3-0.2,0.3-0.5,0.1-0.9c-0.1-0.3-0.3-0.5-0.5-0.8
			c-0.4-0.4-0.8-0.9-1.2-1.3c-0.7-0.8-0.8-1.4-0.5-1.9c0.2-0.3,0.6-0.5,1.1-0.6c0.5,0,0.9,0.1,1.3,0.4c0.4,0.3,0.5,0.6,0.4,1.1
			c0,0.1-0.1,0.1-0.3,0.1s-0.2-0.1-0.3-0.2c-0.5-0.3-0.7-0.3-0.7,0.1c-0.1,0.2,0,0.4,0.1,0.5c0.2,0.3,0.4,0.5,0.6,0.7
			C254.7,116.8,255,117.1,255.3,117.4z"/>
		<path class="st7" d="M260.9,119.4c0.2,0,0.3,0.1,0.5,0.2s0.3,0.3,0.2,0.4c-0.1,0.3-0.3,0.4-0.7,0.5c-0.3,0-0.6,0-0.9,0
			c-0.3-0.1-0.6-0.2-0.8-0.3c-0.9-0.4-1.5-1.3-1.7-2.6c-0.1-1-0.2-2-0.2-3.1c-0.4,0-0.8,0-1.1,0c-0.2,0-0.4-0.1-0.6-0.3
			c-0.1-0.1-0.1-0.2,0.1-0.3c0.5-0.2,1.1-0.4,1.6-0.5c0-1.4,0.3-2.7,0.8-4c0.1-0.1,0.2-0.2,0.5-0.1s0.4,0.2,0.4,0.3
			c0.2,1.2,0.3,2.3,0.3,3.5c0.3,0,0.8,0,1.3-0.1c0.3,0,0.6,0.1,1,0.4c0.3,0.2,0.2,0.4-0.1,0.5h-0.1c-0.7,0.2-1.4,0.3-2.1,0.4
			c0,0.2,0,0.3,0,0.3c0,0.1,0,0.3,0,0.5c0,0.2,0,0.4,0,0.6s0,0.4,0,0.6c0,0.2,0,0.5,0.1,0.7c0,0.2,0.1,0.4,0.1,0.6s0.1,0.4,0.2,0.6
			s0.2,0.3,0.3,0.5c0.1,0.2,0.2,0.3,0.4,0.4C260.5,119.3,260.7,119.4,260.9,119.4z"/>
		<path class="st7" d="M282.6,101.2c0.3,1.7,0.6,3.3,0.7,4.8c0.1,1.5,0.1,3.1-0.1,4.7c-0.2,1.6-0.6,3.2-1.2,4.6s-1.6,2.8-2.8,3.9
			c-1.9,1.8-4.2,2.9-6.8,3.4s-5.2,0.3-7.7-0.6c-0.5-0.2-0.8-0.4-0.9-0.8c-0.1-0.3,0.1-0.5,0.5-0.5c0.1,0,0.3,0,0.5,0.1
			c2.4,0.6,4.8,0.6,7.2-0.2c2.4-0.7,4.4-2,6-3.9c2.2-2.5,3.2-5.9,3.2-10.3c-0.2,0.3-0.4,0.7-0.6,1.2c-0.3,0.5-0.4,0.8-0.5,0.9
			c-0.4,0.7-0.7,1.3-1,1.8c-0.3,0.5-0.6,1-1.1,1.7c-0.5,0.7-1,1.2-1.5,1.6c-0.5,0.4-1.1,0.7-1.7,0.9c-1,0.4-2,0.3-2.9-0.2
			c-0.9-0.5-1.6-1.3-2-2.3c-0.7-1.7-0.7-3.7-0.1-5.8c0.6-2.1,1.5-3.9,2.8-5.1c0,0,0.1,0,0.1,0c0.1,0,0.1,0.1,0.1,0.1
			c-0.1,0.8-0.3,1.8-0.7,3c-0.4,1.2-0.7,2.4-0.9,3.5c-0.2,1.1-0.2,2.1,0,3.1c0.1,0.4,0.2,0.9,0.4,1.3c0.2,0.4,0.4,0.8,0.7,1.1
			c0.3,0.3,0.7,0.4,1.1,0.3c0.1,0,0.2-0.1,0.3-0.1s0.2-0.1,0.3-0.2c0.1-0.1,0.2-0.2,0.3-0.2c0.1-0.1,0.2-0.2,0.3-0.3
			c0.1-0.1,0.2-0.2,0.3-0.3c0,0,0.1-0.1,0.3-0.3c0.1-0.1,0.2-0.2,0.2-0.2c0.6-0.7,1.3-1.4,1.9-2.3c0.6-0.8,1.2-1.8,1.8-2.8
			s1-2,1.3-3.1c0.3-1.1,0.4-2,0.3-2.9c0-0.3,0.2-0.4,0.7-0.4c0.6,0.1,1,0.3,1.2,0.6C282.6,101.1,282.6,101.1,282.6,101.2z"/>
		<path class="st7" d="M289.6,117.5c0.1-0.2,0.4-0.3,0.9-0.1c0.4,0.2,0.6,0.4,0.6,0.6c-0.2,1.3-1,2.1-2.3,2.3
			c-1.2,0.2-2.3-0.2-3.4-0.9c-1.2-0.8-1.7-1.8-1.4-2.9c0.1-0.5,0.4-1.1,0.9-1.6c0.2-0.3,0.6-0.5,1-0.7c0.4-0.2,0.8-0.3,1.2-0.4
			c0.4-0.1,0.8,0,1.2,0.1c0.4,0.2,0.7,0.4,0.9,0.8c0.3,0.6-0.1,1.3-1.1,2.1c-0.6,0.5-1.3,0.8-2.1,1c0.1,0.4,0.4,0.7,0.7,0.9
			c0.4,0.3,1,0.2,1.5-0.1C288.8,118.4,289.3,118,289.6,117.5z M286,115.7c-0.2,0.5-0.3,1-0.2,1.6c0.6-0.4,1.2-0.8,1.7-1.2
			c0.2-0.2,0.4-0.3,0.5-0.6c0.1-0.2,0.2-0.4,0.3-0.5c0-0.2,0-0.3-0.2-0.5c-0.1-0.1-0.5-0.1-1,0C286.6,114.8,286.2,115.2,286,115.7z"
			/>
		<path class="st7" d="M298.4,118.2c0.2,0.6,0.3,1.1,0.4,1.7c0,0.3-0.3,0.4-0.7,0.3s-0.7-0.2-1-0.5c-0.5,0.3-1.1,0.6-1.7,0.6
			c-0.7,0.1-1.3,0-2-0.2c-0.7-0.2-1.2-0.6-1.5-1.1c-0.3-0.6-0.4-1.2-0.2-1.8s0.6-1.1,1.2-1.5c1-0.7,2.2-0.9,3.4-0.6
			c0-0.3,0.1-0.6,0.2-0.9c0.1-0.2,0.3-0.3,0.6-0.1c0.3,0.1,0.5,0.3,0.6,0.5c0.1,0.3,0.2,0.5,0.2,0.9c0.1,0.3,0.1,0.6,0.2,1
			c0.1,0.4,0.1,0.6,0.1,0.9c0,0.1,0,0.2,0.1,0.3C298.5,117.8,298.5,117.9,298.4,118.2C298.5,118.1,298.4,118.2,298.4,118.2z
			 M293.5,118.3c-0.1,1,0.5,1.2,1.6,0.5c0.4-0.3,0.9-0.6,1.3-1c-0.1-0.6-0.2-1.3-0.1-1.9c-0.7,0-1.3,0.3-1.8,0.8
			C293.8,117.1,293.5,117.6,293.5,118.3z"/>
		<path class="st7" d="M305.4,114.8c0.3,0.2,0.3,0.4,0.1,0.5c-0.4,0.1-0.7,0.1-1.1,0.1c-0.5,0.1-0.9,0.2-1.3,0.5
			c-0.8,0.5-1.4,1.2-1.7,2.1c0,0-0.1,0.1-0.1,0.1c0,0.7,0,1.3,0,2c0,0.2-0.2,0.3-0.4,0.3c-0.3,0-0.5-0.1-0.8-0.2s-0.4-0.3-0.5-0.5
			c-0.3-1.9-0.4-3.8-0.1-5.7c0-0.3,0.3-0.3,0.8-0.1c0.3,0.1,0.5,0.3,0.5,0.5c0.1,0.5,0.2,1,0.3,1.5c0.5-0.7,1.2-1.1,2-1.3
			S304.7,114.3,305.4,114.8z"/>
	</g>
	<g>
		<g>
			<g>
				<path class="st7" d="M272.5,190.2c-1.2-3-2.6-5.8-4.5-8.3s-4.2-4.7-6.8-6.2c-2.6-1.6-5.6-2.6-8.7-3.2c-3.1-0.5-6.3-0.5-9.6-0.4
					c3.2-0.8,6.4-1.2,9.8-1c3.3,0.3,6.6,1.2,9.6,2.9c2.9,1.7,5.5,4.1,7.4,6.8c1.9,2.8,3.2,5.9,4.1,9L272.5,190.2z"/>
			</g>
			<g>
				<g>
					<polygon class="st7" points="277.3,184.9 272.6,188.3 266.9,187.3 274.9,198.4 					"/>
				</g>
			</g>
		</g>
	</g>
	<g class="st11">
		<path class="st7" d="M115.7,166.9c0.6-0.2,1.1-0.3,1.5-0.4c0.5-0.1,1-0.2,1.5-0.3c0.5-0.1,1-0.1,1.4,0c0.4,0.1,0.8,0.2,1.1,0.4
			c0.3,0.2,0.6,0.5,0.7,0.9s0.2,1,0.2,1.6c-0.1,1.9-1.5,4.2-4,6.9c-1.2,1.3-2.5,2.3-4,3.2c-0.1,0.1-0.2,0.2-0.3,0.2
			c-0.9,0.5-1.8,0.9-2.7,1.2c-0.3,0.1-0.8,0-1.4-0.3c-0.6-0.3-0.6-0.6-0.2-0.8c1-0.5,1.9-1.1,2.7-1.6c-0.2-0.7-0.4-1.6-0.5-2.6
			c-0.1-1-0.2-1.7-0.2-2.3c0-0.6-0.1-1.5-0.1-2.8c0-1.3,0-2.1,0-2.4c-0.6-0.3-0.9-0.5-0.9-0.8c0.1-0.1,0.1-0.2,0.3-0.2
			c0.2,0,0.4-0.1,0.6-0.2c0-0.2,0-0.8-0.1-2c-0.1-1.2-0.1-2.1-0.1-2.7c-0.9,0.2-1.8,0.5-2.8,0.9c-0.1,0-0.3,0-0.4-0.1
			c0,0,0-0.1,0-0.1c1-0.7,2-1.3,3.2-1.7c0-1.3,0.1-2.6,0.3-4c0,0,0.1-0.1,0.1,0c0,0,0.1,0,0.2,0.1c0,0,0.1,0.1,0.1,0.1
			c0.3,1.1,0.5,2.3,0.7,3.5c2.6-0.6,4.5-0.3,5.8,1c0.3,0.3,0.5,0.6,0.7,1c0.1,0.3,0.1,0.7,0.1,1c-0.1,0.3-0.2,0.6-0.4,0.9
			c-0.2,0.3-0.4,0.6-0.8,0.9c-0.3,0.3-0.7,0.6-1,0.8S116.1,166.7,115.7,166.9z M112.6,161.7c0.1,0.5,0.2,2,0.4,4.5
			c2.1-0.8,3.4-1.8,3.8-3c0.2-0.6-0.1-1-0.7-1.3c-0.7-0.3-1.3-0.5-1.9-0.4C113.7,161.6,113.2,161.6,112.6,161.7z M118,173.4
			c0,0,0.1-0.2,0.4-0.4c0.2-0.3,0.4-0.4,0.5-0.5c0.1-0.1,0.2-0.3,0.4-0.6c0.2-0.3,0.4-0.5,0.5-0.6c0.1-0.1,0.2-0.3,0.4-0.6
			s0.3-0.5,0.3-0.6s0.2-0.4,0.2-0.6c0.1-0.2,0.1-0.4,0.1-0.6c0.1-2.1-2.2-2.5-6.9-1.1c-0.2,0.1-0.5,0.2-0.8,0.2
			c0.1,0.5,0.1,0.8,0.1,0.8c0.1,0.4,0.2,1.6,0.6,3.5c0.3,1.9,0.5,3.4,0.5,4.4C115.7,175.8,116.9,174.7,118,173.4z"/>
		<path class="st7" d="M128.5,175.2c0.1-0.2,0.4-0.3,0.9-0.1c0.4,0.2,0.6,0.4,0.6,0.6c-0.2,1.3-1,2.1-2.3,2.3
			c-1.2,0.2-2.3-0.2-3.4-0.9c-1.2-0.8-1.7-1.8-1.4-2.9c0.1-0.5,0.4-1.1,0.9-1.6c0.2-0.3,0.6-0.5,1-0.7c0.4-0.2,0.8-0.3,1.2-0.4
			c0.4-0.1,0.8,0,1.2,0.1c0.4,0.2,0.7,0.4,0.9,0.8c0.3,0.6-0.1,1.3-1.1,2.1c-0.6,0.5-1.3,0.8-2.1,1c0.1,0.4,0.4,0.7,0.7,0.9
			c0.4,0.3,1,0.2,1.5-0.1C127.7,176.1,128.1,175.6,128.5,175.2z M124.8,173.4c-0.2,0.5-0.3,1-0.2,1.6c0.6-0.4,1.2-0.8,1.7-1.2
			c0.2-0.2,0.4-0.3,0.5-0.6c0.1-0.2,0.2-0.4,0.3-0.5c0-0.2,0-0.3-0.2-0.5c-0.1-0.1-0.5-0.1-1,0C125.5,172.4,125.1,172.8,124.8,173.4
			z"/>
		<path class="st7" d="M136.7,173.7c0.3,0,0.6,0.1,1.1,0.4c0.4,0.3,0.4,0.5,0.1,0.6c-1.5,0.6-3.1,1.1-4.7,1.4
			c0.1,0.8,0.2,1.4,0.2,1.9c0.4,4.1,0.8,7,1.1,8.9c0,0.2-0.1,0.3-0.4,0.4c-0.5,0.1-1-0.1-1.5-0.4c-0.2-0.2-0.3-0.3-0.3-0.5
			c-0.3-2.1-0.6-5.4-0.9-9.9v-0.1h-0.1c-0.2,0-0.5,0-0.8-0.3c-0.2-0.2-0.2-0.3,0-0.4c0.2-0.1,0.5-0.2,0.8-0.4
			c-0.2-1.2-0.2-2.4-0.2-3.6l0,0v0c-0.2-0.8,0-1.6,0.5-2.2c0.5-0.6,1.1-0.9,2-0.9c0.4,0,0.9,0.1,1.3,0.2c0.4,0.2,0.8,0.4,1.1,0.6
			c0.3,0.3,0.6,0.6,0.8,1s0.4,0.8,0.4,1.2c0.1,0.3-0.2,0.4-0.8,0.4c-0.6-0.1-1-0.3-1.2-0.6c0-0.1-0.1-0.1-0.1-0.2
			c0-0.6-0.2-1.1-0.6-1.4c-0.4-0.3-0.8-0.4-1.4-0.2c-0.2,0.1-0.3,0.2-0.5,0.3c-0.2,1.6-0.1,3.2,0.2,4.8
			C134.2,174.2,135.5,173.9,136.7,173.7z"/>
		<path class="st7" d="M144.2,171.9c0.4,0.5,0.7,1.1,0.7,1.7s-0.1,1.2-0.4,1.7c-0.3,0.5-0.6,1-1.1,1.5c-0.8,0.9-1.5,1.3-2.3,1.3
			c-0.9,0-1.6-0.3-2.2-1.1c-0.2-0.3-0.3-0.7-0.4-1.2c0-0.4,0-0.9,0.1-1.3c0.1-0.4,0.3-0.9,0.5-1.3c0.2-0.4,0.4-0.8,0.6-1.1
			c0-0.1,0-0.1,0-0.2c0.1-0.5,0.5-0.9,1.1-1c0.6-0.1,1.2-0.1,1.9,0.1C143.5,171.2,143.9,171.5,144.2,171.9z M141.6,176.1
			c0.4-0.4,0.6-0.7,0.8-0.9c0.2-0.2,0.3-0.5,0.6-0.9c0.2-0.4,0.3-0.8,0.3-1.1c0-0.4-0.1-0.8-0.3-1c-0.2-0.2-0.6-0.3-1-0.1
			c-0.4,0.2-0.8,0.4-1.2,0.5c0,0-0.1,0-0.1,0c-0.3,1-0.5,2.1-0.5,3.1c0,0.8,0.1,1.2,0.3,1.3C140.6,177,141,176.7,141.6,176.1z"/>
		<path class="st7" d="M151.5,172.5c0.3,0.2,0.3,0.4,0.1,0.5c-0.4,0.1-0.7,0.1-1.1,0.1c-0.5,0.1-0.9,0.2-1.3,0.5
			c-0.8,0.5-1.4,1.2-1.7,2.1c0,0-0.1,0.1-0.1,0.1c0,0.7,0,1.3,0,2c0,0.2-0.2,0.3-0.4,0.3s-0.5-0.1-0.8-0.2c-0.3-0.2-0.4-0.3-0.5-0.5
			c-0.3-1.9-0.4-3.8-0.1-5.7c0-0.3,0.3-0.3,0.8-0.1c0.3,0.1,0.5,0.3,0.5,0.5c0.1,0.5,0.2,1,0.3,1.5c0.5-0.7,1.2-1.1,2-1.3
			C150,171.9,150.8,172,151.5,172.5z"/>
		<path class="st7" d="M157.9,175.2c0.1-0.2,0.4-0.3,0.9-0.1c0.4,0.2,0.6,0.4,0.6,0.6c-0.2,1.3-1,2.1-2.3,2.3
			c-1.2,0.2-2.3-0.2-3.4-0.9c-1.2-0.8-1.7-1.8-1.4-2.9c0.1-0.5,0.4-1.1,0.9-1.6c0.2-0.3,0.6-0.5,1-0.7c0.4-0.2,0.8-0.3,1.2-0.4
			c0.4-0.1,0.8,0,1.2,0.1c0.4,0.2,0.7,0.4,0.9,0.8c0.3,0.6-0.1,1.3-1.1,2.1c-0.6,0.5-1.3,0.8-2.1,1c0.1,0.4,0.4,0.7,0.7,0.9
			c0.4,0.3,1,0.2,1.5-0.1C157.1,176.1,157.6,175.6,157.9,175.2z M154.3,173.4c-0.2,0.5-0.3,1-0.2,1.6c0.6-0.4,1.2-0.8,1.7-1.2
			c0.2-0.2,0.4-0.3,0.5-0.6c0.1-0.2,0.2-0.4,0.3-0.5c0-0.2,0-0.3-0.2-0.5c-0.1-0.1-0.5-0.1-1,0C154.9,172.4,154.5,172.8,154.3,173.4
			z"/>
		<path class="st7" d="M176.5,166.7c0.3-0.1,0.7,0.1,1.2,0.5c0.4,0.3,0.4,0.5,0.1,0.6c-1.5,0.4-3,0.8-4.5,1.1
			c0.5,1.3,0.9,2.4,1.1,3.1c0.2,0.7,0.5,1.6,0.7,2.8c0.2,1.2,0.4,2.2,0.3,3.1c0,0.2-0.1,0.3-0.3,0.3c-0.2,0-0.4,0-0.6-0.2
			c-0.2-0.1-0.3-0.2-0.4-0.3c-0.4-0.8-0.7-1.6-0.9-2.5c-0.3-0.9-0.5-2-0.9-3.2s-0.5-2.2-0.6-2.6c-1.8,0.4-3.5,0.8-5.3,1.1
			c-0.1,0.5-0.1,1.1-0.2,1.9c-0.1,0.8-0.2,1.5-0.3,2c-0.1,0.6-0.2,1.2-0.3,1.9c-0.1,0.7-0.2,1.3-0.4,2c-0.1,0.6-0.3,1.2-0.5,1.8
			c-0.1,0.3-0.4,0.3-0.9,0.2s-0.8-0.4-0.8-0.7c-0.1-1.3,0-2.6,0.2-3.9c0.2-1.3,0.5-2.9,0.9-4.7c-1.5,0.3-2.7,0.5-3.7,0.7
			c-0.1,0-0.3,0-0.5-0.2c-0.1-0.1-0.1-0.1,0-0.2c1.4-0.5,2.8-1,4.4-1.5c0.1-0.4,0.1-0.7,0.1-0.8c0-0.1,0.1-0.7,0.3-1.5
			s0.3-1.5,0.4-1.7c0.1-0.3,0.2-0.8,0.4-1.5c0.2-0.8,0.3-1.3,0.4-1.7c0.1-0.4,0.3-0.9,0.4-1.5c0.2-0.6,0.4-1.1,0.6-1.6
			c0.2-0.5,0.4-1,0.7-1.4c0.1-0.1,0.2-0.2,0.5-0.1s0.4,0.2,0.4,0.3c0,0,0,0.1,0,0.2s0,0.1,0,0.2c0.6,0.8,1.1,1.8,1.7,2.9
			c0.5,1.1,1,2.1,1.3,2.9c0.3,0.8,0.7,1.9,1.2,3.2C174,167.1,175.3,166.9,176.5,166.7z M166.7,168.6c0,0,0,0.1,0,0.2
			c0,0.1,0,0.1,0,0.2c1.5-0.4,3-0.8,4.6-1.2c-0.2-0.7-0.7-2-1.4-3.8c-0.7-1.8-1.2-3.2-1.5-4.2c-0.1,1.2-0.4,2.8-0.9,5
			C167.1,166.9,166.8,168.2,166.7,168.6z"/>
		<path class="st7" d="M184.6,175.3c0.3,0.1,0.5,0.2,0.7,0.3c0.2,0.1,0.2,0.3,0,0.5c-0.2,0.2-0.5,0.4-0.7,0.6c0,1.2-0.1,2.3-0.5,3.4
			c-0.1,0.3-0.4,0.3-0.8,0.2s-0.6-0.4-0.7-0.6c-0.2-0.6-0.4-1.3-0.4-1.9c-0.7,0.1-1.4,0.1-2.2,0c-0.9-0.2-1.6-0.5-2.2-1.1
			c-0.6-0.6-0.9-1.3-0.9-2.1c0-0.7,0.2-1.2,0.6-1.7c0.3-0.5,0.8-0.8,1.3-1.1c0.5-0.2,1.1-0.3,1.7-0.4c0.6,0,1.2,0.1,1.7,0.4
			c0.1-1.2,0.1-2.1,0.1-2.6c0-0.3,0-1.1,0.1-2.3c0-1.2,0-2.1,0.1-2.6c0-0.5,0.1-1.3,0.2-2.2c0.1-0.9,0.2-1.8,0.3-2.5
			c0-0.2,0.2-0.2,0.6,0c0.2,0.1,0.3,0.2,0.3,0.3c0.1,1,0.2,2.1,0.2,3.3c0,1.2,0.1,2.5,0.1,4c0,1.5,0,2.6,0,3.3
			c0,0.5,0.1,1.3,0.2,2.5S184.5,174.9,184.6,175.3z M182,176.2c0-1.2,0-2.4,0.1-3.7c-0.5-0.2-1-0.2-1.5,0s-0.9,0.5-1.2,0.9
			c-0.3,0.5-0.5,1-0.5,1.6c0,0.4,0.1,0.8,0.3,1c0.2,0.3,0.4,0.4,0.7,0.4c0.3,0,0.6,0,1,0C181.3,176.4,181.6,176.3,182,176.2z"/>
		<path class="st7" d="M191.5,169.8c0,0.6,0,1.2-0.1,1.8c-0.1,0.7-0.3,1.5-0.5,2.5s-0.4,1.6-0.5,1.8c-0.1,0.3-0.1,0.5-0.2,0.7
			c-0.1,0.2-0.1,0.4-0.3,0.7c-0.1,0.2-0.3,0.4-0.5,0.6s-0.4,0.2-0.7,0.2c-0.2,0-0.4,0-0.6-0.1c-0.2-0.1-0.3-0.2-0.5-0.3
			c-0.1-0.1-0.2-0.3-0.4-0.4c-0.1-0.2-0.2-0.3-0.3-0.5s-0.1-0.3-0.2-0.5c-0.8-1.8-1-3.4-0.7-4.7c0-0.1,0.1-0.1,0.2-0.1
			c0.1,0,0.2,0,0.4,0.1c0.1,0.1,0.2,0.1,0.2,0.2c0,1.3,0.2,2.6,0.8,3.8c0.2,0.5,0.5,1,0.8,1.5c0,0,0.1-0.3,0.3-0.9
			c0.1-0.5,0.3-1.2,0.4-2.1s0.2-1.8,0.4-2.5s0.4-1.5,0.7-2c0.1-0.2,0.4-0.3,0.8-0.1S191.4,169.6,191.5,169.8z"/>
		<path class="st7" d="M197.7,175.2c0.1-0.2,0.4-0.3,0.9-0.1c0.4,0.2,0.6,0.4,0.6,0.6c-0.2,1.3-1,2.1-2.3,2.3
			c-1.2,0.2-2.3-0.2-3.4-0.9c-1.2-0.8-1.7-1.8-1.4-2.9c0.1-0.5,0.4-1.1,0.9-1.6c0.2-0.3,0.6-0.5,1-0.7c0.4-0.2,0.8-0.3,1.2-0.4
			c0.4-0.1,0.8,0,1.2,0.1c0.4,0.2,0.7,0.4,0.9,0.8c0.3,0.6-0.1,1.3-1.1,2.1c-0.6,0.5-1.3,0.8-2.1,1c0.1,0.4,0.4,0.7,0.7,0.9
			c0.4,0.3,1,0.2,1.5-0.1C196.9,176.1,197.4,175.6,197.7,175.2z M194,173.4c-0.2,0.5-0.3,1-0.2,1.6c0.6-0.4,1.2-0.8,1.7-1.2
			c0.2-0.2,0.4-0.3,0.5-0.6c0.1-0.2,0.2-0.4,0.3-0.5c0-0.2,0-0.3-0.2-0.5c-0.1-0.1-0.5-0.1-1,0C194.7,172.4,194.3,172.8,194,173.4z"
			/>
		<path class="st7" d="M205.7,172.5c0.3,0.2,0.3,0.4,0.1,0.5c-0.4,0.1-0.7,0.1-1.1,0.1c-0.5,0.1-0.9,0.2-1.3,0.5
			c-0.8,0.5-1.4,1.2-1.7,2.1c0,0-0.1,0.1-0.1,0.1c0,0.7,0,1.3,0,2c0,0.2-0.2,0.3-0.4,0.3s-0.5-0.1-0.8-0.2c-0.3-0.2-0.4-0.3-0.5-0.5
			c-0.3-1.9-0.4-3.8-0.1-5.7c0-0.3,0.3-0.3,0.8-0.1c0.3,0.1,0.5,0.3,0.5,0.5c0.1,0.5,0.2,1,0.3,1.5c0.5-0.7,1.2-1.1,2-1.3
			C204.2,171.9,205,172,205.7,172.5z"/>
		<path class="st7" d="M210.6,177.1c0.2,0,0.3,0.1,0.5,0.2c0.2,0.1,0.3,0.3,0.2,0.4c-0.1,0.3-0.3,0.4-0.7,0.5c-0.3,0-0.6,0-0.9,0
			c-0.3-0.1-0.6-0.2-0.8-0.3c-0.9-0.4-1.5-1.3-1.7-2.6c-0.1-1-0.2-2-0.2-3.1c-0.4,0-0.8,0-1.1,0c-0.2,0-0.4-0.1-0.6-0.3
			c-0.1-0.1-0.1-0.2,0.1-0.3c0.5-0.2,1.1-0.4,1.6-0.5c0-1.4,0.3-2.7,0.8-4c0.1-0.1,0.2-0.2,0.5-0.1c0.2,0.1,0.4,0.2,0.4,0.3
			c0.2,1.2,0.3,2.3,0.3,3.5c0.3,0,0.8,0,1.3-0.1c0.3,0,0.6,0.1,1,0.4c0.3,0.2,0.2,0.4-0.1,0.5h-0.1c-0.7,0.2-1.4,0.3-2.1,0.4
			c0,0.2,0,0.3,0,0.3c0,0.1,0,0.3,0,0.5c0,0.2,0,0.4,0,0.6s0,0.4,0,0.6c0,0.2,0,0.5,0.1,0.7c0,0.2,0.1,0.4,0.1,0.6s0.1,0.4,0.2,0.6
			c0.1,0.2,0.2,0.3,0.3,0.5c0.1,0.2,0.2,0.3,0.4,0.4C210.3,177,210.4,177,210.6,177.1z"/>
		<path class="st7" d="M213.8,169c-0.4,0.2-0.8,0.2-1.2,0.1c-0.2,0-0.3-0.1-0.4-0.3c0-0.2,0-0.3,0.1-0.4c0.1-0.1,0.2-0.2,0.3-0.2
			c0,0,0.3-0.2,0.8-0.5c0.4-0.2,0.8-0.2,1.2,0.1c0.1,0.1,0.2,0.1,0.3,0.2c0.1,0.1,0.1,0.2,0.1,0.3c0,0.1-0.1,0.2-0.2,0.2
			C214.2,168.9,213.9,169,213.8,169z M214.9,174.9c0.1,0.5,0.1,1,0.1,1.6c0,0.6-0.1,1.1-0.4,1.5c-0.2,0.3-0.5,0.3-0.9,0.2
			c-0.4-0.2-0.7-0.4-0.8-0.6c-0.1-0.4-0.2-0.7-0.2-1.1c0-0.4,0-0.8,0-1.5s0.1-1,0.1-1.1c0-1.1,0-2.1,0.1-3.2
			c0.1-0.2,0.2-0.2,0.4-0.2c0.2,0,0.4,0.1,0.6,0.2c0.2,0.1,0.3,0.3,0.4,0.4C214.7,172.4,214.9,173.6,214.9,174.9z"/>
		<path class="st7" d="M219.1,175.1c0.7,1,1,1.7,0.9,2.2c-0.1,0.5-0.4,0.8-1,0.8c-0.6,0-1.2-0.1-1.8-0.3c-0.6-0.2-1-0.5-1.4-0.7
			c-0.4-0.3-0.4-0.5,0-0.6c0.4-0.1,0.7,0,1,0.2c0.5,0.3,0.8,0.4,1.1,0.2c0.3-0.2,0.3-0.5,0.1-0.9c-0.1-0.3-0.3-0.5-0.4-0.8
			c-0.4-0.4-0.8-0.9-1.2-1.3c-0.7-0.8-0.8-1.4-0.5-1.9c0.2-0.3,0.6-0.5,1.1-0.6c0.5,0,0.9,0.1,1.3,0.4c0.4,0.3,0.5,0.6,0.4,1.1
			c0,0.1-0.1,0.1-0.3,0.1c-0.1,0-0.2-0.1-0.3-0.2c-0.5-0.3-0.7-0.3-0.7,0.1c-0.1,0.2,0,0.4,0.1,0.5c0.2,0.3,0.4,0.5,0.6,0.7
			C218.6,174.4,218.9,174.8,219.1,175.1z"/>
		<path class="st7" d="M222.4,169c-0.4,0.2-0.8,0.2-1.2,0.1c-0.2,0-0.3-0.1-0.4-0.3c0-0.2,0-0.3,0.1-0.4c0.1-0.1,0.2-0.2,0.3-0.2
			c0,0,0.3-0.2,0.8-0.5c0.4-0.2,0.8-0.2,1.2,0.1c0.1,0.1,0.2,0.1,0.3,0.2c0.1,0.1,0.1,0.2,0.1,0.3c0,0.1-0.1,0.2-0.2,0.2
			C222.8,168.9,222.5,169,222.4,169z M223.6,174.9c0.1,0.5,0.1,1,0.1,1.6c0,0.6-0.1,1.1-0.4,1.5c-0.2,0.3-0.5,0.3-0.9,0.2
			c-0.4-0.2-0.7-0.4-0.8-0.6c-0.1-0.4-0.2-0.7-0.2-1.1c0-0.4,0-0.8,0-1.5s0.1-1,0.1-1.1c0-1.1,0-2.1,0.1-3.2
			c0.1-0.2,0.2-0.2,0.4-0.2c0.2,0,0.4,0.1,0.6,0.2c0.2,0.1,0.3,0.3,0.4,0.4C223.4,172.4,223.6,173.6,223.6,174.9z"/>
		<path class="st7" d="M229.5,174.3c0.2,0.9,0.2,1.9,0.1,2.8c-0.1,0.2-0.3,0.3-0.5,0.3c-0.3,0-0.6-0.1-0.9-0.3
			c-0.3-0.2-0.5-0.3-0.5-0.5c0-0.3,0-0.5,0-0.9c0-0.3,0-0.6,0-0.9s0-0.5,0-0.9c0-0.3,0-0.6,0-0.9c0,0,0-0.1,0-0.1
			c0-0.2,0-0.4-0.1-0.4c0,0-0.1,0-0.2,0c-0.1,0-0.1,0-0.1,0.1c0,0-0.1,0-0.1,0c-0.1,0-0.1,0-0.2,0c-0.3,0.1-0.8,0.2-1.3,0.4
			c0,0.9,0.1,1.4,0.1,1.6c0,0.2,0.1,0.5,0.1,1.1c0.1,0.6,0.1,0.9,0.1,1.1c0,0.2,0,0.5-0.1,1.1c-0.1,0.2-0.2,0.3-0.4,0.2
			c-0.2,0-0.4-0.1-0.7-0.3c-0.2-0.1-0.4-0.3-0.4-0.4c-0.2-0.5-0.3-1.2-0.3-1.9c0-0.7,0-1.3,0-1.9c0-1.1,0.1-2.2,0.5-3.2
			c0.1-0.1,0.2-0.1,0.4-0.1c0.2,0.1,0.3,0.2,0.4,0.3c0.1,0.5,0.2,1,0.2,1.5c0.3-0.2,0.6-0.3,0.8-0.4c0.2-0.1,0.5-0.2,0.8-0.3
			c0.3-0.1,0.5-0.1,0.8,0c0.2,0.1,0.5,0.2,0.7,0.4c0.1,0.1,0.2,0.2,0.3,0.3c0.1,0.1,0.1,0.2,0.2,0.3c0,0.1,0.1,0.2,0.1,0.4
			c0,0.2,0.1,0.3,0.1,0.4c0,0.1,0,0.2,0.1,0.4C229.4,174.2,229.5,174.3,229.5,174.3z"/>
		<path class="st7" d="M239.6,179.9c0,0.1,0,0.3,0.1,0.5c0.1,0.6,0.2,1,0.2,1.3c0,0.3,0.1,0.7,0.1,1.3c0,0.5,0,1,0,1.3
			c-0.1,0.3-0.1,0.7-0.3,1.2c-0.1,0.4-0.3,0.8-0.6,1.1c-0.3,0.3-0.6,0.6-1,0.8c-0.8,0.5-1.8,0.7-2.9,0.9c-1.2,0.1-2.3,0-3.4-0.2
			c-1.1-0.2-2.2-0.7-3.1-1.3c-0.9-0.6-1.6-1.4-1.9-2.3c-0.1-0.3,0-0.5,0.4-0.4c0.5,0,0.9,0.2,1.1,0.4c0.9,0.9,1.9,1.5,3,1.8
			c1.2,0.3,2.3,0.4,3.5,0.1c0.6-0.1,1.2-0.4,1.6-0.7c0.4-0.3,0.7-0.7,0.9-1.2c0.2-0.4,0.3-0.9,0.4-1.5c0.1-0.6,0.1-1.1,0-1.7
			c-0.1-1.6-0.4-3.7-0.8-6c-0.7,0.7-1.6,1.2-2.7,1.3c-0.8,0.1-1.7,0-2.6-0.3c-0.9-0.3-1.4-0.8-1.7-1.6c-0.2-0.4-0.2-0.9,0-1.3
			c0.2-0.4,0.4-0.8,0.8-1.2c0.4-0.3,0.8-0.6,1.2-0.9c0.4-0.2,0.8-0.4,1.2-0.5c0.9-0.3,1.9-0.4,2.9-0.3c-0.1-0.5-0.2-1-0.2-1.6
			c0-0.2,0.1-0.3,0.5-0.2c0.3,0.1,0.5,0.2,0.6,0.4c0.2,0.5,0.4,1.1,0.6,1.8c0.2,0.1,0.3,0.1,0.5,0.2c0.1,0.1,0.2,0.1,0.1,0.2
			c0,0.1-0.1,0.1-0.2,0.1c0,0-0.1,0-0.2,0C238.5,174.1,239.2,177,239.6,179.9z M235.9,172.2c0-0.2,0.1-0.3,0.3-0.3
			c0-0.1,0-0.2,0-0.4c0-0.2-0.1-0.3-0.1-0.3c-1.9,0.1-3.2,0.8-4,2.2c-0.2,0.3-0.3,0.7-0.3,1.1c0,0.4,0.3,0.6,0.8,0.7
			c0.6,0,1.2-0.2,1.6-0.6C235.1,174,235.6,173.2,235.9,172.2z"/>
	</g>
	<g class="st10">
		<path class="st7" d="M164.1,192.8c0.6,0.3,1.2,0.7,1.8,1.2c0.3,0.3,0.6,0.6,0.8,1c0.2,0.4,0.4,0.7,0.5,1.2
			c0.1,0.4,0.1,0.8,0.1,1.3c-0.1,0.6-0.4,1.1-0.9,1.5c-0.5,0.4-1.1,0.8-1.7,1c-0.7,0.2-1.3,0.4-2,0.4s-1.3,0.1-1.8,0
			c-0.6-0.1-1-0.2-1.4-0.4c-0.4-0.2-0.6-0.5-0.8-0.8s-0.2-0.6-0.2-1c0-0.4,0-0.7,0.2-1.2c0.1-0.4,0.3-0.8,0.4-1.2
			c0.2-0.4,0.4-0.8,0.6-1.2c0-0.1,0.1-0.2,0.3-0.2c0.2,0,0.3,0,0.5,0c0.2,0,0.3,0.1,0.5,0.2s0.3,0.2,0.4,0.3
			c0.1,0.1,0.1,0.2,0.1,0.4c0,0.2-0.2,0.7-0.5,1.6c-0.3,0.9-0.5,1.5-0.4,1.9c0,0.1,0.1,0.2,0.1,0.3c0,0.1,0.1,0.1,0.1,0.2
			c0,0,0.1,0.1,0.2,0.1s0.1,0,0.2,0s0.2,0,0.3,0c0.1,0,0.3,0,0.3-0.1c0.7-0.1,1.3-0.2,1.9-0.4c0.9-0.3,1.5-0.8,1.8-1.4
			c0.3-0.6,0.4-1.3,0.1-2c-0.3-0.7-0.8-1.3-1.5-1.8c-0.2-0.2-0.6-0.4-1-0.6s-0.9-0.5-1.2-0.7s-0.7-0.5-1.1-0.8
			c-0.4-0.3-0.7-0.6-0.9-0.9s-0.3-0.7-0.2-1.1s0.2-0.8,0.5-1.3c0.2-0.3,0.5-0.6,0.9-1c0.4-0.4,0.8-0.8,1.4-1.2
			c0.5-0.4,1.1-0.8,1.6-1.1s1.1-0.5,1.6-0.7s1-0.1,1.3,0.2c1.2,0.8,0.7,3.1-1.4,7c0,0.1-0.1,0.1-0.2,0c-0.1,0-0.2-0.1-0.1-0.2
			c0,0,0.1-0.1,0.1-0.4c0.1-0.2,0.2-0.5,0.2-0.7c0.1-0.2,0.1-0.5,0.3-0.8s0.2-0.6,0.3-0.9c0.1-0.3,0.1-0.6,0.2-0.9s0.1-0.6,0.2-0.9
			s0-0.5,0.1-0.8c0-0.2,0-0.5-0.1-0.6s-0.1-0.3-0.2-0.4c-0.2-0.1-1.3,0.6-3.2,2.1c-0.3,0.3-0.6,0.5-0.7,0.6
			c-0.2,0.1-0.4,0.4-0.6,0.7c-0.3,0.3-0.4,0.6-0.5,0.8c-0.1,0.2-0.1,0.5-0.2,0.8c0,0.3,0.1,0.7,0.3,1c0.1,0.2,0.4,0.5,0.7,0.7
			c0.4,0.2,0.8,0.5,1.4,0.7S163.9,192.7,164.1,192.8z"/>
		<path class="st7" d="M170.8,199.1c0.3,0.3,0.6,0.5,1,0.6c0.4,0.1,0.6,0.3,0.6,0.6c0,0.3-0.2,0.3-0.6,0.3c-0.7-0.1-1.3-0.4-1.8-0.7
			c-0.5-0.3-0.9-0.8-1.2-1.3c-0.3-0.5-0.5-1-0.7-1.6c-0.2-0.6-0.3-1.2-0.3-1.9c-0.1-0.7-0.1-1.5-0.1-2.4s0-1.6,0-2.2
			s0.1-1.4,0.1-2.5s0.1-1.8,0.1-2.3c0-0.2,0.2-0.2,0.4,0c0.1,0,0.2,0.1,0.2,0.2c0.2,0.6,0.3,1.3,0.5,2.1s0.2,1.4,0.2,1.8
			s0,1.1,0.1,2.2c0,0.2,0,0.5,0,1.1c0,0.5,0,1,0,1.3c0,0.3,0.1,0.8,0.1,1.3c0.1,0.5,0.1,1,0.3,1.3c0.1,0.4,0.3,0.7,0.4,1.1
			C170.3,198.5,170.5,198.8,170.8,199.1z"/>
		<path class="st7" d="M176.5,195.4c0.4,0.4,0.5,0.9,0.5,1.4s-0.1,1-0.3,1.4c-0.2,0.4-0.5,0.8-0.9,1.2c-0.6,0.7-1.2,1.1-1.8,1.1
			c-0.7,0-1.3-0.3-1.7-0.9c-0.2-0.3-0.3-0.6-0.3-0.9c0-0.4,0-0.7,0.1-1.1c0.1-0.4,0.2-0.7,0.4-1c0.2-0.3,0.3-0.6,0.5-0.9
			c0,0,0-0.1,0-0.2c0.1-0.4,0.4-0.7,0.9-0.8c0.5-0.1,1-0.1,1.5,0.1C175.9,194.9,176.3,195.2,176.5,195.4z M174.4,198.8
			c0.3-0.3,0.5-0.6,0.6-0.7c0.1-0.1,0.3-0.4,0.4-0.7c0.2-0.3,0.3-0.6,0.3-0.9c0-0.4,0-0.6-0.2-0.8c-0.2-0.2-0.4-0.2-0.8-0.1
			c-0.3,0.2-0.6,0.3-0.9,0.4c0,0-0.1,0-0.1,0c-0.2,0.8-0.4,1.6-0.4,2.5c0,0.6,0.1,1,0.3,1C173.6,199.5,173.9,199.3,174.4,198.8z"/>
		<path class="st7" d="M185,196.5c0.4,0.5,0.5,1,0.4,1.6s-0.4,1-0.9,1.3c-0.5,0.3-1.1,0.4-1.8,0.3s-1.3-0.3-1.8-0.7
			c-0.1,0.4-0.3,0.7-0.5,0.9c-0.2,0.2-0.5,0.4-0.8,0.4c-0.3,0-0.7-0.1-1.1-0.3c-0.5-0.3-0.8-0.8-0.9-1.5c-0.1-0.7-0.1-1.3,0.1-2
			c0.2-0.7,0.5-1.2,0.9-1.6c0,0,0.1,0,0.2,0c0.1,0,0.2,0.1,0.2,0.2c-0.1,0.7-0.2,1.4-0.2,2.1c0,0.2,0,0.4,0.1,0.6
			c0,0.2,0.1,0.4,0.1,0.6c0,0.2,0.1,0.4,0.1,0.6c0,0.1,0,0.2,0,0.3c0-0.1,0.1-0.2,0.1-0.3c0.1-0.3,0.2-0.6,0.3-0.9
			c0.1-0.6,0.3-1.2,0.5-1.7c0.1-0.1,0.2-0.2,0.4-0.2c0.2,0,0.4,0.1,0.5,0.2c0.2,0.1,0.3,0.2,0.3,0.3c0,0.3,0,0.5,0.1,0.8
			c0.1,0.3,0.2,0.5,0.3,0.8c0.1,0.2,0.3,0.4,0.5,0.5c0.2,0.1,0.5,0,0.8-0.1c0.5-0.3,0.8-0.8,0.8-1.3c0-0.3-0.1-0.5-0.2-0.6
			c-0.1-0.1-0.2-0.2-0.4-0.1c-0.2,0-0.5-0.1-0.8-0.3c-0.2-0.2-0.3-0.3-0.1-0.4c0.2-0.2,0.5-0.3,0.8-0.3c0.3,0,0.6,0,0.9,0.1
			c0.3,0.1,0.5,0.2,0.8,0.4S184.8,196.3,185,196.5z"/>
		<path class="st7" d="M187.3,193.2c-0.3,0.1-0.6,0.2-1,0.1c-0.1,0-0.2-0.1-0.3-0.2c0-0.1,0-0.2,0.1-0.3c0.1-0.1,0.1-0.1,0.2-0.2
			c0,0,0.2-0.2,0.6-0.4c0.4-0.2,0.7-0.1,1,0.1c0.1,0,0.1,0.1,0.2,0.2c0.1,0.1,0.1,0.1,0.1,0.2c0,0.1,0,0.1-0.2,0.2
			C187.6,193,187.4,193.1,187.3,193.2z M188.2,197.8c0.1,0.4,0.1,0.8,0.1,1.3c0,0.5-0.1,0.9-0.3,1.2c-0.1,0.2-0.4,0.3-0.7,0.1
			c-0.3-0.1-0.5-0.3-0.6-0.5c-0.1-0.3-0.2-0.6-0.2-0.9c0-0.3,0-0.7,0-1.2c0-0.5,0.1-0.8,0.1-0.9c0-0.8,0-1.7,0.1-2.5
			c0-0.1,0.1-0.2,0.3-0.2c0.2,0,0.3,0.1,0.5,0.2c0.2,0.1,0.3,0.2,0.3,0.3C188.1,195.8,188.2,196.8,188.2,197.8z"/>
		<path class="st7" d="M192.9,197.4c0.2,0.8,0.2,1.5,0,2.2c-0.1,0.2-0.2,0.2-0.4,0.2c-0.2,0-0.4-0.1-0.7-0.2
			c-0.2-0.1-0.4-0.3-0.4-0.4c0-0.2,0-0.4,0-0.7c0-0.3,0-0.5,0-0.7c0-0.2,0-0.4,0-0.7s0-0.5,0-0.7c0,0,0,0,0-0.1c0-0.2,0-0.3,0-0.3
			c0,0-0.1,0-0.2,0c0,0-0.1,0-0.1,0c0,0,0,0-0.1,0c0,0-0.1,0-0.1,0c-0.3,0.1-0.6,0.2-1.1,0.3c0,0.7,0,1.1,0,1.3c0,0.1,0,0.4,0.1,0.9
			c0,0.4,0.1,0.7,0.1,0.9c0,0.1,0,0.4,0,0.9c0,0.1-0.2,0.2-0.3,0.2c-0.2,0-0.3-0.1-0.5-0.2c-0.2-0.1-0.3-0.2-0.3-0.3
			c-0.1-0.4-0.2-0.9-0.2-1.5c0-0.6,0-1.1,0-1.5c0-0.9,0.1-1.7,0.4-2.6c0-0.1,0.2-0.1,0.3,0c0.2,0.1,0.3,0.1,0.3,0.2
			c0.1,0.4,0.2,0.8,0.2,1.2c0.2-0.1,0.5-0.2,0.6-0.3s0.4-0.1,0.6-0.2c0.2-0.1,0.4-0.1,0.6,0c0.2,0,0.4,0.2,0.6,0.3
			c0.1,0.1,0.1,0.1,0.2,0.2c0.1,0.1,0.1,0.2,0.1,0.3c0,0.1,0.1,0.2,0.1,0.3c0,0.1,0.1,0.2,0.1,0.3c0,0.1,0,0.2,0.1,0.3
			C192.9,197.3,192.9,197.4,192.9,197.4z"/>
		<path class="st7" d="M201.1,201.8c0,0.1,0,0.2,0.1,0.4c0.1,0.4,0.1,0.8,0.2,1c0,0.2,0.1,0.6,0.1,1c0,0.4,0,0.8,0,1.1
			c0,0.3-0.1,0.6-0.2,0.9c-0.1,0.3-0.3,0.6-0.5,0.9c-0.2,0.3-0.5,0.5-0.8,0.6c-0.6,0.4-1.4,0.6-2.3,0.7c-0.9,0.1-1.8,0-2.7-0.1
			c-0.9-0.2-1.7-0.5-2.5-1c-0.8-0.5-1.3-1.1-1.5-1.8c-0.1-0.3,0-0.4,0.3-0.4c0.4,0,0.7,0.1,0.9,0.3c0.7,0.7,1.5,1.2,2.4,1.5
			c0.9,0.3,1.9,0.3,2.8,0.1c0.5-0.1,0.9-0.3,1.3-0.6s0.6-0.6,0.7-0.9c0.1-0.4,0.2-0.8,0.3-1.2c0-0.4,0-0.9,0-1.4
			c-0.1-1.3-0.3-2.9-0.6-4.8c-0.6,0.6-1.3,0.9-2.1,1c-0.7,0.1-1.4,0-2.1-0.2c-0.7-0.3-1.2-0.7-1.3-1.3c-0.1-0.4-0.1-0.7,0-1.1
			c0.1-0.4,0.4-0.7,0.6-0.9c0.3-0.3,0.6-0.5,0.9-0.7s0.7-0.3,1-0.4c0.7-0.3,1.5-0.3,2.3-0.3c-0.1-0.4-0.1-0.8-0.2-1.2
			c0-0.2,0.1-0.2,0.4-0.1c0.3,0.1,0.4,0.2,0.5,0.3c0.1,0.4,0.3,0.9,0.5,1.4c0.1,0,0.3,0.1,0.4,0.2c0.1,0,0.1,0.1,0.1,0.2
			c0,0.1-0.1,0.1-0.2,0.1c0,0-0.1,0-0.2,0C200.2,197.2,200.7,199.5,201.1,201.8z M198.1,195.7c0-0.1,0.1-0.2,0.2-0.2
			c0-0.1,0-0.2,0-0.3c0-0.1,0-0.2-0.1-0.2c-1.5,0.1-2.6,0.6-3.2,1.7c-0.2,0.3-0.3,0.6-0.2,0.9s0.3,0.5,0.6,0.6
			c0.5,0,0.9-0.2,1.3-0.5C197.4,197.1,197.9,196.5,198.1,195.7z"/>
		<path class="st7" d="M215.4,190.2c0.1,0.3,0.1,0.7,0.1,1c0,0.3,0,0.7-0.1,0.9c-0.1,0.3-0.2,0.6-0.3,0.9c-0.2,0.3-0.3,0.6-0.5,0.8
			c-0.2,0.2-0.4,0.5-0.6,0.8s-0.5,0.5-0.7,0.7c-0.2,0.2-0.4,0.4-0.7,0.7c-1.6,1.6-3.4,3.1-5.4,4.4c0,0.5-0.1,1-0.2,1.4
			c0,0.1-0.1,0.2-0.3,0.1c-0.1,0-0.3-0.1-0.4-0.2c-0.2-0.1-0.2-0.2-0.3-0.3c0,0,0-0.1,0-0.2c0-0.1,0-0.1,0-0.2
			c-0.3,0.2-0.5,0.3-0.5,0.3c-0.3,0.2-0.7,0.1-1.3-0.2c-0.4-0.3-0.6-0.5-0.4-0.6c0.6-0.4,1.3-0.8,1.9-1.3c0-1,0-1.8,0-2.2
			s0-1.2,0.1-2.2c0-1,0.1-1.8,0.1-2.2c0-0.4,0-1.2,0-2.5s0-2.2,0-2.6c-0.4,0.1-0.7,0.1-0.9,0.1c-0.2,0-0.4-0.1-0.7-0.3
			c-0.2-0.1-0.2-0.2,0-0.3c0.5-0.2,1.1-0.3,1.7-0.4c0.1-0.6,0.2-1.3,0.4-1.9c0,0,0.1,0,0.1,0c0.1,0,0.1,0.1,0.1,0.1
			c0.1,0.5,0.2,1.1,0.3,1.6c0.7-0.1,1.4-0.1,2.1-0.1c0.7,0,1.4,0.1,2,0.2c0.7,0.2,1.3,0.4,1.8,0.6c0.6,0.3,1,0.6,1.5,1.1
			C214.9,189,215.2,189.6,215.4,190.2z M212.3,194.1c0.5-0.5,0.9-1.1,1.2-1.7c0.3-0.6,0.4-1.2,0.4-1.9s-0.2-1.3-0.7-1.8
			c-0.3-0.4-0.7-0.7-1.2-0.9c-0.5-0.2-1-0.4-1.5-0.4c-0.6,0-1.1-0.1-1.5,0s-1,0.1-1.7,0.2c0.1,0.4,0.1,1.5,0.1,3.3s0,2.8,0,3.2
			c0,0.5,0,1.2,0.1,2.2c0,1,0.1,1.8,0.1,2.3C209.2,197.2,210.8,195.7,212.3,194.1z"/>
		<path class="st7" d="M220.5,195.4c0.4,0.4,0.5,0.9,0.5,1.4s-0.1,1-0.3,1.4c-0.2,0.4-0.5,0.8-0.9,1.2c-0.6,0.7-1.2,1.1-1.8,1.1
			c-0.7,0-1.3-0.3-1.7-0.9c-0.2-0.3-0.3-0.6-0.3-0.9c0-0.4,0-0.7,0.1-1.1c0.1-0.4,0.2-0.7,0.4-1c0.2-0.3,0.3-0.6,0.5-0.9
			c0,0,0-0.1,0-0.2c0.1-0.4,0.4-0.7,0.9-0.8c0.5-0.1,1-0.1,1.5,0.1C219.8,194.9,220.2,195.2,220.5,195.4z M218.3,198.8
			c0.3-0.3,0.5-0.6,0.6-0.7c0.1-0.1,0.3-0.4,0.4-0.7c0.2-0.3,0.3-0.6,0.3-0.9c0-0.4,0-0.6-0.2-0.8c-0.2-0.2-0.4-0.2-0.8-0.1
			c-0.3,0.2-0.6,0.3-0.9,0.4c0,0-0.1,0-0.1,0c-0.2,0.8-0.4,1.6-0.4,2.5c0,0.6,0.1,1,0.3,1C217.6,199.5,217.8,199.3,218.3,198.8z"/>
		<path class="st7" d="M228.9,196.5c0.4,0.5,0.5,1,0.4,1.6s-0.4,1-0.9,1.3c-0.5,0.3-1.1,0.4-1.8,0.3s-1.3-0.3-1.8-0.7
			c-0.1,0.4-0.3,0.7-0.5,0.9c-0.2,0.2-0.5,0.4-0.8,0.4c-0.3,0-0.7-0.1-1.1-0.3c-0.5-0.3-0.8-0.8-0.9-1.5c-0.1-0.7-0.1-1.3,0.1-2
			c0.2-0.7,0.5-1.2,0.9-1.6c0,0,0.1,0,0.2,0c0.1,0,0.2,0.1,0.2,0.2c-0.1,0.7-0.2,1.4-0.2,2.1c0,0.2,0,0.4,0.1,0.6
			c0,0.2,0.1,0.4,0.1,0.6c0,0.2,0.1,0.4,0.1,0.6c0,0.1,0,0.2,0,0.3c0-0.1,0.1-0.2,0.1-0.3c0.1-0.3,0.2-0.6,0.3-0.9
			c0.1-0.6,0.3-1.2,0.5-1.7c0.1-0.1,0.2-0.2,0.4-0.2c0.2,0,0.4,0.1,0.5,0.2c0.2,0.1,0.3,0.2,0.3,0.3c0,0.3,0,0.5,0.1,0.8
			c0.1,0.3,0.2,0.5,0.3,0.8c0.1,0.2,0.3,0.4,0.5,0.5c0.2,0.1,0.5,0,0.8-0.1c0.5-0.3,0.8-0.8,0.8-1.3c0-0.3-0.1-0.5-0.2-0.6
			c-0.1-0.1-0.2-0.2-0.4-0.1c-0.2,0-0.5-0.1-0.8-0.3c-0.2-0.2-0.3-0.3-0.1-0.4c0.2-0.2,0.5-0.3,0.8-0.3c0.3,0,0.6,0,0.9,0.1
			c0.3,0.1,0.5,0.2,0.8,0.4S228.8,196.3,228.9,196.5z"/>
		<path class="st7" d="M234,197.4c0.2,0.8,0.2,1.5,0,2.2c-0.1,0.2-0.2,0.2-0.4,0.2c-0.2,0-0.4-0.1-0.7-0.2c-0.2-0.1-0.4-0.3-0.4-0.4
			c0-0.2,0-0.4,0-0.7c0-0.3,0-0.5,0-0.7c0-0.2,0-0.4,0-0.7s0-0.5,0-0.7c0,0,0,0,0-0.1c0-0.2,0-0.3,0-0.3c0,0-0.1,0-0.2,0
			c0,0-0.1,0-0.1,0c0,0,0,0-0.1,0c0,0-0.1,0-0.1,0c-0.3,0.1-0.6,0.2-1.1,0.3c0,0.7,0,1.1,0,1.3c0,0.1,0,0.4,0.1,0.9
			c0,0.4,0.1,0.7,0.1,0.9c0,0.1,0,0.4,0,0.9c0,0.1-0.2,0.2-0.3,0.2c-0.2,0-0.3-0.1-0.5-0.2c-0.2-0.1-0.3-0.2-0.3-0.3
			c-0.1-0.4-0.2-0.9-0.2-1.5c0-0.6,0-1.1,0-1.5c0-0.9,0.1-1.7,0.4-2.6c0-0.1,0.2-0.1,0.3,0c0.2,0.1,0.3,0.1,0.3,0.2
			c0.1,0.4,0.2,0.8,0.2,1.2c0.2-0.1,0.5-0.2,0.6-0.3s0.4-0.1,0.6-0.2c0.2-0.1,0.4-0.1,0.6,0c0.2,0,0.4,0.2,0.6,0.3
			c0.1,0.1,0.1,0.1,0.2,0.2c0.1,0.1,0.1,0.2,0.1,0.3c0,0.1,0.1,0.2,0.1,0.3c0,0.1,0.1,0.2,0.1,0.3c0,0.1,0,0.2,0.1,0.3
			C234,197.3,234,197.4,234,197.4z"/>
	</g>
	<g class="st11">
		<path class="st7" d="M316,68.9c0.8,0.4,1.5,0.9,2.2,1.5c0.4,0.4,0.7,0.8,1,1.2c0.3,0.4,0.5,0.9,0.7,1.5c0.2,0.5,0.2,1.1,0.1,1.6
			c-0.1,0.7-0.5,1.4-1.1,1.9c-0.6,0.6-1.3,1-2.2,1.2c-0.8,0.3-1.7,0.4-2.5,0.5c-0.8,0.1-1.6,0.1-2.3,0c-0.7-0.1-1.3-0.2-1.7-0.5
			c-0.5-0.2-0.8-0.6-1-0.9c-0.2-0.4-0.3-0.8-0.3-1.2c0-0.4,0-0.9,0.2-1.5c0.2-0.5,0.3-1,0.6-1.5c0.2-0.5,0.5-1,0.8-1.5
			c0.1-0.1,0.2-0.2,0.4-0.3c0.2,0,0.4,0,0.6,0c0.2,0,0.4,0.1,0.6,0.2c0.2,0.1,0.3,0.2,0.5,0.4c0.1,0.2,0.2,0.3,0.1,0.5
			c0,0.2-0.3,0.9-0.7,2c-0.4,1.1-0.6,1.9-0.5,2.4c0,0.2,0.1,0.3,0.1,0.4c0,0.1,0.1,0.2,0.1,0.2c0,0,0.1,0.1,0.2,0.1s0.2,0,0.3,0
			c0.1,0,0.2,0,0.4-0.1s0.3-0.1,0.4-0.1c0.8-0.1,1.6-0.2,2.4-0.5c1.1-0.4,1.9-1,2.3-1.8c0.4-0.8,0.5-1.6,0.1-2.5
			c-0.3-0.9-1-1.7-1.9-2.3c-0.3-0.2-0.7-0.5-1.3-0.8c-0.6-0.3-1.1-0.6-1.5-0.9s-0.9-0.6-1.4-1c-0.5-0.4-0.8-0.8-1.1-1.1
			c-0.2-0.4-0.3-0.8-0.3-1.3c0-0.5,0.3-1,0.7-1.6c0.3-0.3,0.6-0.8,1.1-1.2s1-1,1.7-1.6c0.7-0.5,1.3-1,2-1.4c0.7-0.4,1.3-0.7,2-0.8
			c0.7-0.1,1.2-0.1,1.6,0.2c1.5,1,0.9,3.9-1.8,8.7c0,0.1-0.1,0.1-0.3,0c-0.1,0-0.2-0.1-0.2-0.2c0,0,0.1-0.2,0.2-0.5
			c0.1-0.3,0.2-0.6,0.3-0.8c0.1-0.2,0.2-0.6,0.3-1s0.2-0.8,0.3-1.1c0.1-0.3,0.2-0.7,0.3-1.1c0.1-0.4,0.2-0.8,0.2-1.1
			c0-0.3,0.1-0.6,0.1-0.9c0-0.3,0-0.6-0.1-0.8s-0.2-0.3-0.3-0.5c-0.3-0.2-1.6,0.7-4,2.7c-0.4,0.3-0.7,0.6-0.9,0.8
			c-0.2,0.2-0.5,0.5-0.8,0.8s-0.6,0.7-0.7,1s-0.2,0.6-0.2,1c0,0.4,0.1,0.8,0.3,1.2c0.1,0.3,0.4,0.6,0.9,0.9c0.5,0.3,1,0.6,1.7,0.9
			C315.4,68.6,315.8,68.8,316,68.9z"/>
		<path class="st7" d="M326.4,75.5c0.1-0.2,0.4-0.3,0.9-0.1c0.4,0.2,0.6,0.4,0.6,0.6c-0.2,1.3-1,2.1-2.3,2.3
			c-1.2,0.2-2.3-0.2-3.4-0.9c-1.2-0.8-1.7-1.8-1.4-2.9c0.1-0.5,0.4-1.1,0.9-1.6c0.2-0.3,0.6-0.5,1-0.7c0.4-0.2,0.8-0.3,1.2-0.4
			c0.4-0.1,0.8,0,1.2,0.1c0.4,0.2,0.7,0.4,0.9,0.8c0.3,0.6-0.1,1.3-1.1,2.1c-0.6,0.5-1.3,0.8-2.1,1c0.1,0.4,0.4,0.7,0.7,0.9
			c0.4,0.3,1,0.2,1.5-0.1C325.6,76.4,326.1,76,326.4,75.5z M322.7,73.7c-0.2,0.5-0.3,1-0.2,1.6c0.6-0.4,1.2-0.8,1.7-1.2
			c0.2-0.2,0.4-0.3,0.5-0.6c0.1-0.2,0.2-0.4,0.3-0.5c0-0.2,0-0.3-0.2-0.5s-0.5-0.1-1,0C323.4,72.8,323,73.2,322.7,73.7z"/>
		<path class="st7" d="M332.7,75.1c0.2-0.2,0.5-0.2,1,0c0.5,0.2,0.7,0.4,0.6,0.7c-0.1,1-0.5,1.7-1.2,2.2c-0.7,0.5-1.5,0.6-2.4,0.3
			c-0.8-0.2-1.4-0.6-1.8-1.3c-0.4-0.6-0.6-1.3-0.5-2.2c0.1-0.9,0.3-1.8,0.7-2.6c0.4-0.8,1-1.3,1.8-1.5c0.3,0,0.7,0,1.2,0
			c0.5,0,0.9,0.2,1.2,0.4c0.4,0.3,0.6,0.6,0.6,1c0,0.1-0.2,0.2-0.3,0.1c-0.2,0-0.3-0.1-0.4-0.2c-0.8-0.9-1.5-0.6-2.1,0.8
			c-0.4,0.9-0.5,1.7-0.5,2.5c0,0.4,0.1,0.7,0.2,1.1c0,0.1,0,0.1,0,0.2c0,0.1,0,0.2,0.1,0.2c0,0,0.1-0.1,0.3-0.2
			c0.1-0.1,0.3-0.3,0.4-0.4c0.2-0.1,0.3-0.3,0.4-0.4c0.1-0.1,0.3-0.3,0.4-0.4C332.4,75.4,332.6,75.3,332.7,75.1z"/>
		<path class="st7" d="M340.4,72.2c0.4,0.5,0.7,1.1,0.7,1.7s-0.1,1.2-0.4,1.7c-0.3,0.5-0.6,1-1.1,1.5c-0.8,0.9-1.5,1.3-2.3,1.3
			c-0.9,0-1.6-0.3-2.2-1.1c-0.2-0.3-0.3-0.7-0.4-1.2c0-0.4,0-0.9,0.1-1.3c0.1-0.4,0.3-0.9,0.5-1.3c0.2-0.4,0.4-0.8,0.6-1.1
			c0-0.1,0-0.1,0-0.2c0.1-0.5,0.5-0.9,1.1-1c0.6-0.1,1.2-0.1,1.9,0.1C339.6,71.6,340.1,71.9,340.4,72.2z M337.7,76.4
			c0.4-0.4,0.6-0.7,0.8-0.9c0.2-0.2,0.3-0.5,0.6-0.9c0.2-0.4,0.3-0.8,0.3-1.1c0-0.4,0-0.8-0.3-1c-0.2-0.2-0.6-0.3-1-0.1
			c-0.4,0.2-0.8,0.4-1.2,0.5c0,0-0.1,0-0.1,0c-0.3,1-0.5,2.1-0.5,3.1c0,0.8,0.1,1.2,0.3,1.3C336.8,77.3,337.1,77,337.7,76.4z"/>
		<path class="st7" d="M346.9,74.7c0.2,0.9,0.2,1.9,0.1,2.8c-0.1,0.2-0.3,0.3-0.5,0.3c-0.3,0-0.6-0.1-0.9-0.3
			c-0.3-0.2-0.5-0.3-0.5-0.5c0-0.3,0-0.5,0-0.9s0-0.6,0-0.9c0-0.3,0-0.5,0-0.9c0-0.3,0-0.6,0-0.9c0,0,0-0.1,0-0.1
			c0-0.2,0-0.4-0.1-0.4c0,0-0.1,0-0.2,0c-0.1,0-0.1,0-0.1,0.1c0,0-0.1,0-0.1,0c-0.1,0-0.1,0-0.2,0c-0.3,0.1-0.8,0.2-1.3,0.4
			c0,0.9,0.1,1.4,0.1,1.6c0,0.2,0.1,0.5,0.1,1.1c0.1,0.6,0.1,0.9,0.1,1.1c0,0.2,0,0.5-0.1,1.1c-0.1,0.2-0.2,0.3-0.4,0.2
			c-0.2,0-0.4-0.1-0.7-0.3s-0.4-0.3-0.4-0.4c-0.2-0.5-0.3-1.2-0.3-1.9c0-0.7,0-1.3,0-1.9c0-1.1,0.1-2.2,0.5-3.2
			c0.1-0.1,0.2-0.1,0.4-0.1c0.2,0.1,0.3,0.2,0.4,0.3c0.1,0.5,0.2,1,0.2,1.5c0.3-0.2,0.6-0.3,0.8-0.4c0.2-0.1,0.5-0.2,0.8-0.3
			c0.3-0.1,0.5-0.1,0.8,0c0.2,0.1,0.5,0.2,0.7,0.4c0.1,0.1,0.2,0.2,0.3,0.3c0.1,0.1,0.1,0.2,0.2,0.3c0,0.1,0.1,0.2,0.1,0.4
			c0,0.2,0.1,0.3,0.1,0.4c0,0.1,0,0.2,0.1,0.4C346.9,74.5,346.9,74.7,346.9,74.7z"/>
		<path class="st7" d="M355.2,75.7c0.3,0.1,0.5,0.2,0.7,0.3c0.2,0.1,0.2,0.3,0,0.5c-0.2,0.2-0.5,0.4-0.7,0.6c0,1.2-0.1,2.3-0.5,3.4
			c-0.1,0.3-0.4,0.3-0.8,0.2c-0.4-0.2-0.6-0.4-0.7-0.6c-0.2-0.6-0.4-1.3-0.5-1.9c-0.7,0.1-1.4,0.1-2.2,0c-0.9-0.2-1.6-0.5-2.2-1.1
			c-0.6-0.6-0.9-1.3-0.9-2.1c0-0.7,0.2-1.2,0.6-1.7s0.8-0.8,1.3-1.1c0.5-0.2,1.1-0.3,1.7-0.4c0.6,0,1.2,0.1,1.7,0.4
			c0.1-1.2,0.1-2.1,0.2-2.6c0-0.3,0-1.1,0.1-2.3c0-1.2,0-2.1,0.1-2.6c0-0.5,0.1-1.3,0.2-2.2c0.1-0.9,0.2-1.8,0.3-2.5
			c0-0.2,0.2-0.2,0.6,0c0.2,0.1,0.3,0.2,0.3,0.3c0.1,1,0.2,2.1,0.2,3.3c0,1.2,0.1,2.5,0.1,4c0,1.5,0,2.6,0,3.3
			c0,0.5,0.1,1.3,0.2,2.5C355.1,74.4,355.1,75.2,355.2,75.7z M352.7,76.5c0-1.2,0-2.4,0.1-3.7c-0.5-0.2-1-0.2-1.5,0
			s-0.9,0.5-1.2,0.9c-0.3,0.5-0.5,1-0.5,1.6c0,0.4,0.1,0.8,0.3,1c0.2,0.3,0.4,0.4,0.7,0.4s0.6,0,1,0
			C351.9,76.7,352.3,76.7,352.7,76.5z"/>
		<path class="st7" d="M377,59.2c0.3,1.7,0.6,3.3,0.7,4.8s0.1,3.1-0.1,4.7c-0.2,1.6-0.6,3.2-1.2,4.6s-1.6,2.8-2.8,3.9
			c-1.9,1.8-4.2,2.9-6.8,3.4c-2.6,0.5-5.2,0.3-7.7-0.6c-0.5-0.2-0.8-0.4-0.9-0.8c-0.1-0.3,0.1-0.5,0.5-0.5c0.1,0,0.3,0,0.5,0.1
			c2.4,0.6,4.8,0.6,7.2-0.2c2.4-0.7,4.4-2,6-3.9c2.2-2.5,3.2-5.9,3.2-10.3c-0.2,0.3-0.4,0.7-0.6,1.2c-0.3,0.5-0.4,0.8-0.5,0.9
			c-0.4,0.7-0.7,1.3-1,1.8c-0.3,0.5-0.7,1-1.1,1.7c-0.5,0.7-1,1.2-1.5,1.6c-0.5,0.4-1.1,0.7-1.7,0.9c-1,0.4-2,0.3-2.9-0.2
			c-0.9-0.5-1.6-1.3-2-2.3c-0.7-1.7-0.7-3.7-0.1-5.8c0.6-2.1,1.5-3.9,2.8-5.1c0,0,0.1,0,0.1,0c0.1,0,0.1,0.1,0.1,0.1
			c-0.1,0.8-0.3,1.8-0.7,3c-0.4,1.2-0.7,2.4-0.9,3.5c-0.2,1.1-0.2,2.1,0,3.1c0.1,0.4,0.2,0.9,0.4,1.3c0.2,0.4,0.4,0.8,0.7,1.1
			c0.3,0.3,0.7,0.4,1.1,0.3c0.1,0,0.2-0.1,0.3-0.1c0.1,0,0.2-0.1,0.3-0.2s0.2-0.2,0.3-0.2c0.1-0.1,0.2-0.2,0.3-0.3
			c0.1-0.1,0.2-0.2,0.3-0.3c0,0,0.1-0.1,0.3-0.3c0.1-0.1,0.2-0.2,0.2-0.2c0.6-0.7,1.3-1.4,1.9-2.3c0.6-0.8,1.2-1.8,1.8-2.8
			s1-2,1.3-3.1c0.3-1.1,0.4-2,0.3-2.9c0-0.3,0.2-0.4,0.7-0.4c0.6,0.1,1,0.3,1.2,0.6C377,59.1,377,59.1,377,59.2z"/>
		<path class="st7" d="M384,75.5c0.1-0.2,0.4-0.3,0.9-0.1s0.6,0.4,0.6,0.6c-0.2,1.3-1,2.1-2.3,2.3c-1.2,0.2-2.3-0.2-3.4-0.9
			c-1.2-0.8-1.7-1.8-1.4-2.9c0.1-0.5,0.4-1.1,0.9-1.6c0.2-0.3,0.6-0.5,1-0.7c0.4-0.2,0.8-0.3,1.2-0.4c0.4-0.1,0.8,0,1.2,0.1
			c0.4,0.2,0.7,0.4,0.9,0.8c0.3,0.6-0.1,1.3-1.1,2.1c-0.6,0.5-1.3,0.8-2.1,1c0.1,0.4,0.4,0.7,0.7,0.9c0.4,0.3,1,0.2,1.5-0.1
			C383.2,76.4,383.7,76,384,75.5z M380.4,73.7c-0.2,0.5-0.3,1-0.2,1.6c0.6-0.4,1.2-0.8,1.7-1.2c0.2-0.2,0.4-0.3,0.5-0.6
			c0.1-0.2,0.2-0.4,0.3-0.5s0-0.3-0.2-0.5c-0.1-0.1-0.5-0.1-1,0C381,72.8,380.6,73.2,380.4,73.7z"/>
		<path class="st7" d="M392.8,76.2c0.2,0.6,0.3,1.1,0.4,1.7c0,0.3-0.3,0.4-0.7,0.3c-0.4-0.1-0.7-0.2-1-0.5c-0.5,0.3-1.1,0.6-1.7,0.6
			c-0.7,0.1-1.3,0-2-0.2c-0.7-0.2-1.2-0.6-1.5-1.1c-0.3-0.6-0.4-1.2-0.2-1.8s0.6-1.1,1.2-1.5c1-0.7,2.2-0.9,3.4-0.6
			c0-0.3,0.1-0.6,0.2-0.9c0.1-0.2,0.3-0.3,0.6-0.1c0.3,0.1,0.5,0.3,0.6,0.5c0.1,0.3,0.2,0.5,0.2,0.9c0.1,0.3,0.1,0.6,0.2,1
			c0.1,0.4,0.1,0.6,0.1,0.9c0,0.1,0,0.2,0.1,0.3C392.9,75.8,392.9,75.9,392.8,76.2C392.9,76.1,392.8,76.2,392.8,76.2z M387.9,76.3
			c-0.1,1,0.5,1.2,1.6,0.5c0.4-0.3,0.9-0.6,1.3-1c-0.1-0.6-0.2-1.3-0.1-1.9c-0.7,0-1.3,0.3-1.8,0.8
			C388.2,75.1,387.9,75.6,387.9,76.3z"/>
		<path class="st7" d="M399.8,72.8c0.3,0.2,0.3,0.4,0.1,0.5c-0.4,0.1-0.7,0.1-1.1,0.1c-0.5,0.1-0.9,0.2-1.3,0.5
			c-0.8,0.5-1.4,1.2-1.7,2.1c0,0-0.1,0.1-0.1,0.1c0,0.7,0,1.3,0,2c0,0.2-0.2,0.3-0.4,0.3c-0.3,0-0.5-0.1-0.8-0.2
			c-0.3-0.2-0.4-0.3-0.5-0.5c-0.3-1.9-0.4-3.8-0.1-5.7c0-0.3,0.3-0.3,0.8-0.1c0.3,0.1,0.5,0.3,0.5,0.5c0.1,0.5,0.2,1,0.3,1.5
			c0.5-0.7,1.2-1.1,2-1.3C398.3,72.2,399.1,72.3,399.8,72.8z"/>
	</g>
</g>
<g id="Line_2">
	<g class="st12">
		<path class="st7" d="M150.2,280.1c1.1-3.2,2.7-6.2,4.5-9.1c1.8-2.9,3.8-5.6,6-8.3c4.4-5.2,9.4-9.9,14.8-14
			c10.9-8.2,23.4-14.2,36.3-18.5c6.5-2.2,13.1-3.9,19.8-5.3c6.7-1.4,13.4-2.4,20.2-3.2c13.6-1.5,27.2-1.9,40.8-1.6l0,0h0.1
			c6.9,0.7,14,0.8,21,0.7c7-0.2,14-0.7,21-1.6c13.9-1.8,27.7-5.2,40.4-11.1c6.4-2.9,12.4-6.6,17.9-10.9c5.5-4.4,10.4-9.5,14.4-15.2
			s7.2-12.1,9.4-18.8c1.1-3.3,2-6.7,2.7-10.2c0.7-3.4,1.2-7,1.5-10.5c-0.5,7-1.6,14.1-3.7,20.8c-2.1,6.8-5.1,13.3-9.1,19.2
			c-2,3-4.2,5.7-6.6,8.3s-5,5.1-7.8,7.3c-5.5,4.5-11.6,8.3-18,11.3c-6.4,3.1-13.1,5.5-20,7.3c-6.9,1.9-13.8,3.2-20.9,4.2
			c-7,0.9-14.1,1.5-21.2,1.7s-14.2,0-21.3-0.6h0.1c-13.5-0.4-27.1-0.1-40.6,1.4c-13.5,1.4-26.8,4-39.7,8.1s-25.3,9.9-36.2,17.9
			c-5.5,4-10.6,8.5-15,13.6c-2.2,2.5-4.3,5.2-6.2,8.1C153.1,274,151.4,277,150.2,280.1z"/>
	</g>
</g>
</svg>
