<?xml version="1.0" encoding="utf-8"?>
<!-- Generator: Adobe Illustrator 20.0.0, SVG Export Plug-In . SVG Version: 6.00 Build 0)  -->
<svg version="1.1" id="Layer_1" xmlns="http://www.w3.org/2000/svg" xmlns:xlink="http://www.w3.org/1999/xlink" x="0px" y="0px"
	 viewBox="0 0 960 85.9" enable-background="new 0 0 960 85.9" xml:space="preserve">
<path fill="#C8C8C8" d="M960,22v63.9H0.1V22c0-12.2,9.8-22,22-22H938C950.1,0,960,9.8,960,22z"/>
<path fill="#E5E5E9" d="M960,44.3v41.6H0.1V44.3h85.6L99,20.4c1.6-2.9,5.2-5.2,8.1-5.2h192.5c2.9,0,6.6,2.3,8.3,5.2l14.4,23.9H960z"
	/>
<path fill="#D6D5D5" d="M315.1,20.4l14.4,23.9h201.9L517,20.4c-1.7-2.9-5.4-5.2-8.3-5.2H316.2c-1.5,0-3.1,0.6-4.6,1.6
	C313,17.7,314.3,19,315.1,20.4z"/>
<path fill="#919090" d="M15.1,65.3l8.4,8.3l2.2-2.1c-0.1-0.1-4.5-4.5-4.6-4.6l12.1,0c0-0.2,0-2.6,0-3.1c-2.1,0-10,0-12.1,0
	c0.1-0.1,4.6-4.5,4.6-4.6L23.5,57L15.1,65.3z"/>
<path fill="#C8C8C8" d="M65.8,65.3l-8.4,8.3l-2.2-2.1c0.1-0.1,4.5-4.5,4.6-4.6l-12.1,0c0-0.2,0-2.6,0-3.1c2.1,0,10,0,12.1,0
	c-0.1-0.1-4.6-4.5-4.6-4.6l2.2-2.2L65.8,65.3z"/>
<g>
	<path fill="#919090" d="M946.9,11.9l0,9.1l-2.8,0c-0.1-0.1,0-4.1,0-4.2l-4.8,4.8c-0.2-0.1-1.7-1.7-2-2c1.4-1.4,3.5-3.4,4.8-4.8
		c-0.1,0-4.1,0.1-4.2,0l0-2.8L946.9,11.9z"/>
	<path fill="#919090" d="M928.4,30.6l0-9.1l2.8,0c0.1,0.1,0,4.1,0,4.2l4.8-4.8c0.2,0.1,1.7,1.7,2,2c-1.4,1.4-3.5,3.4-4.8,4.8
		c0.1,0,4.1-0.1,4.2,0l0,2.8L928.4,30.6z"/>
</g>
<circle fill="#E96A63" cx="23.1" cy="23.3" r="8.1"/>
<circle fill="#E8B433" cx="48.2" cy="23.3" r="8.1"/>
<circle fill="#58BD84" cx="72" cy="23.3" r="8.1"/>
<circle fill="#C8C8C8" cx="295.6" cy="29.8" r="8.1"/>
<path fill="#FFFFFF" d="M915.3,73.6c0,2.9-2.3,5.2-5.2,5.2H112.6c-2.9,0-5.2-2.3-5.2-5.2V55.4c0-2.9,2.3-5.2,5.2-5.2h797.4
	c2.9,0,5.2,2.3,5.2,5.2V73.6z"/>
<g>
	<path fill="#C8C8C8" d="M908.4,62c-0.1-0.4-0.5-0.6-0.9-0.6l-6.8-0.1l-2.2-6.4c-0.3-0.7-1.5-0.7-1.7,0l-2.2,6.4l-6.8,0.1
		c-0.4,0-0.7,0.3-0.9,0.6c-0.1,0.4,0,0.8,0.3,1l5.4,4.1l-2,6.5c-0.1,0.4,0,0.8,0.3,1c0.3,0.2,0.7,0.2,1.1,0l5.6-3.9l5.6,3.9
		c0.2,0.1,0.3,0.2,0.5,0.2c0.2,0,0.4-0.1,0.5-0.2c0.3-0.2,0.4-0.6,0.3-1l-2-6.5l5.4-4.1C908.4,62.8,908.5,62.3,908.4,62z M901.1,66
		c-0.3,0.2-0.4,0.6-0.3,1l1.4,4.6l-3.9-2.7c-0.2-0.1-0.3-0.2-0.5-0.2s-0.4,0-0.5,0.2l-3.9,2.7l1.4-4.6c0.1-0.4,0-0.8-0.3-1l-3.8-2.9
		l4.8-0.1c0.4,0,0.7-0.2,0.8-0.6l1.6-4.5l1.6,4.5c0.1,0.4,0.5,0.6,0.9,0.6l4.8,0.1L901.1,66z"/>
</g>
<path fill="#919090" d="M947.9,58.5c0,0.9-0.7,1.6-1.6,1.6h-16.9c-0.9,0-1.6-0.7-1.6-1.6l0,0c0-0.9,0.7-1.6,1.6-1.6h16.9
	C947.2,56.9,947.9,57.7,947.9,58.5L947.9,58.5z"/>
<path fill="#919090" d="M947.9,65.1c0,0.9-0.7,1.6-1.6,1.6h-16.9c-0.9,0-1.6-0.7-1.6-1.6l0,0c0-0.9,0.7-1.6,1.6-1.6h16.9
	C947.2,63.5,947.9,64.2,947.9,65.1L947.9,65.1z"/>
<path fill="#919090" d="M947.9,71.6c0,0.9-0.7,1.6-1.6,1.6h-16.9c-0.9,0-1.6-0.7-1.6-1.6l0,0c0-0.9,0.7-1.6,1.6-1.6h16.9
	C947.2,70.1,947.9,70.8,947.9,71.6L947.9,71.6z"/>
<path fill="#E5E5E9" d="M297.8,29.8l2.5-2.5c0.1,0.1-2.3-2.2-2.2-2.2c-0.5,0.5-1.4,1.4-2.5,2.5c-1.1-1.1-2-2-2.5-2.5
	c-0.3,0.3-2,2-2.2,2.2l2.5,2.5c-1.1,1.1-2,2-2.5,2.5c0.3,0.3,2,2,2.2,2.2l2.5-2.5l2.5,2.5c-0.1,0.1,2.2-2.3,2.2-2.2
	C299.8,31.8,298.9,30.8,297.8,29.8z"/>
<circle fill="#C8C8C8" cx="503.3" cy="29.8" r="8.1"/>
<path fill="#E5E5E9" d="M505.5,29.8l2.5-2.5c0.1,0.1-2.3-2.2-2.2-2.2c-0.5,0.5-1.4,1.4-2.5,2.5c-1.1-1.1-2-2-2.5-2.5
	c-0.3,0.3-2,2-2.2,2.2l2.5,2.5c-1.1,1.1-2,2-2.5,2.5c0.3,0.3,2,2,2.2,2.2l2.5-2.5l2.5,2.5c-0.1,0.1,2.2-2.3,2.2-2.2
	C507.5,31.8,506.5,30.8,505.5,29.8z"/>
<path fill="#919090" d="M86.8,71.4c-3.4,0-6.1-2.7-6.1-6.1c0-3.4,2.7-6.1,6.1-6.1c2.1,0,3.9,1,5.1,2.7c-1,0-3.8,0-3.9,0.1l0,2
	l7.6-0.1l-0.2-7.6l-2,0c0,0.1,0.1,2.7,0.1,3.7c-1.6-2-4.1-3.3-6.8-3.3c-4.8,0-8.7,3.9-8.7,8.7c0,4.8,3.9,8.7,8.7,8.7
	c3.1,0,6-1.7,7.6-4.4l-2.2-1.3C91,70.2,89,71.4,86.8,71.4z"/>
<path fill="#D6D5D5" d="M525.2,20.4l11.1,18.5h40.3l-11.1-18.5c-1.7-2.9-5.4-5.2-8.3-5.2h-40.3C519.8,15.2,523.5,17.5,525.2,20.4z"
	/>
</svg>
