<?xml version="1.0" encoding="utf-8"?>
<!-- Generator: Adobe Illustrator 22.0.1, SVG Export Plug-In . SVG Version: 6.00 Build 0)  -->
<svg version="1.1" xmlns="http://www.w3.org/2000/svg" xmlns:xlink="http://www.w3.org/1999/xlink" x="0px" y="0px"
	 viewBox="0 0 1080 1080" style="enable-background:new 0 0 1080 1080;" xml:space="preserve">
<style type="text/css">
	.st0{fill:#F2F2F2;}
	.st1{fill:#AF2222;}
</style>
<g id="Dollar_Small_Left">
	<ellipse class="st0" cx="541.2" cy="768.7" rx="484.8" ry="94.9"/>
</g>
<g id="Dollar_Large_Left">
</g>
<g id="Video">
</g>
<g id="Dollar_Large_Right">
</g>
<g id="Dollar_Small_Right">
	<g>
		<path class="st1" d="M555.6,414.4c0.1,6.1-1.9,13.4,0.8,17.9c3.1,5.2,11.2,1.7,17.1,2.9c12.6,2.4,25,5,36.9,10.2
			c3.9,1.7,4.9,3.4,3.6,7.6c-3,9.6-5.6,19.2-7.9,29c-1.3,5.5-3.5,5.9-8.2,3.6c-19.3-9.6-39.9-12.7-61.2-10.7
			c-20.1,1.9-32.9,14.8-31.9,31.7c0.6,10.8,7.1,17.8,15.4,23.5c13,8.8,27.7,13.8,42.2,19.5c12.5,4.9,24.6,10.5,35.5,18.6
			c44.3,33.1,40.9,98.2-6.7,126.4c-8.4,5-17.2,9.4-26.9,11.1c-5.6,1-7.6,3.2-7.2,8.9c0.6,8.8,0.1,17.7,0.6,26.5
			c0.3,5.7-1.8,7.5-7.4,7.2c-8.7-0.4-20.2,3.1-25.5-1.2c-5.7-4.6-2.4-16.6-1.8-25.3c0.7-10.1-3.7-12.4-12.5-12.6
			c-17.9-0.4-34.6-6-51.1-12.6c-6.3-2.5-9.2-5.7-6.5-13.1c3-8.2,5-16.9,7-25.4c1.3-5.4,2.9-6.9,8.5-4c14.5,7.3,29.8,11.9,46,14.2
			c13.4,1.9,26.2,0.1,38.6-4.2c11.2-3.9,19.2-12,21.5-24c2.5-13.4-2-24.6-12.9-33c-11.8-9-25.3-14.4-39.2-19.2
			c-15.6-5.5-30.5-12.3-43.7-22.3c-37.7-28.6-35.9-86.7,3.3-113.2c9.7-6.5,20.2-11.5,31.6-13.9c5.4-1.1,6.9-3.7,6.7-8.7
			c-0.4-9.4-0.1-18.9-0.6-28.3c-0.3-5.2,1.6-7.3,6.7-7c2.7,0.2,5.5,0,8.2-0.1C554.8,393.9,554.8,393.9,555.6,414.4z"/>
	</g>
</g>
</svg>
