<?xml version="1.0" encoding="utf-8"?>
<!-- Generator: Adobe Illustrator 22.0.1, SVG Export Plug-In . SVG Version: 6.00 Build 0)  -->
<svg version="1.1" id="phone" xmlns="http://www.w3.org/2000/svg" xmlns:xlink="http://www.w3.org/1999/xlink" x="0px" y="0px"
	 viewBox="0 0 1080 1080" style="enable-background:new 0 0 1080 1080;" xml:space="preserve">
<style type="text/css">
	.st0{fill:#F2F2F2;}
	.st1{fill:url(#SVGID_1_);}
</style>
<ellipse class="st0" cx="541.2" cy="768.7" rx="484.8" ry="94.9"/>
<g>
	<g>
		<path d="M607.9,330.5c5.4-5.5,10.4-8.2,11.7-8.7c2.8-0.9,6.4,1.4,10.8,6.5V216.8c0-6.6-5.4-12-12-12h-210c-6.6,0-12,5.4-12,12V398
			l16.8,16.8c2.4,2.4,4.3,5.1,5.7,8c3.9,8.1,3.9,17.6,0,25.6c-1.4,2.9-3.3,5.6-5.7,8c-4.6,4.6-10.4,7.5-16.8,8.3v7.2l21.3,21.3
			c0.4,0.4,0.8,0.8,1.2,1.3c4.8,5.4,7.4,12.3,7.4,19.6c0,7.3-2.6,14.2-7.4,19.6c-0.4,0.4-0.8,0.9-1.2,1.3
			c-5.3,5.3-12.2,8.3-19.7,8.6c1.8,1.1,3.5,2.5,5,4l15.9,15.9l4.6,4.6c11.5,11.5,11.5,30.2,0,41.7c-1.4,1.4-3,2.7-4.6,3.8
			c-4.8,3.1-10.4,4.8-16.2,4.8c-2.1,0-4.2-0.2-6.2-0.7v25.9c0,6.6,5.4,12,12,12h202.5c13-4.6,17.7-13.7,19.5-19.9v-163
			c-4.6-10.3-10.9-20.3-16.6-29.2c-2.2-3.4-4.2-6.5-5.9-9.4c-2.9-4.8-5-8.9-5.9-12.3c-12.7-29.2-14.6-54.3-5.6-74.6
			C599.7,340.1,603.9,334.6,607.9,330.5z M492.4,216.1c0.5-0.5,1.3-0.9,2.1-0.9h37.8c1.7,0,3,1.3,3,3c0,0.8-0.3,1.6-0.9,2.1
			c-0.5,0.5-1.3,0.9-2.1,0.9h-37.8c-1.6,0-3-1.4-3-3C491.5,217.4,491.8,216.7,492.4,216.1z"/>
		<path d="M629.3,648.7c-1.2,2.6-3.3,4.7-5.9,5.9C625.7,652.8,627.7,650.8,629.3,648.7z"/>
	</g>
	<g>
		<linearGradient id="SVGID_1_" gradientUnits="userSpaceOnUse" x1="561.9791" y1="640.8425" x2="464.7409" y2="219.6576">
			<stop  offset="0" style="stop-color:#1A5499"/>
			<stop  offset="1" style="stop-color:#9133D3"/>
		</linearGradient>
		<path class="st1" d="M596.4,347.5c-9,20.3-7.1,45.4,5.6,74.6c0.9,3.4,3,7.5,5.9,12.3v195.9h-189v-16.6c1.7-1.1,3.2-2.4,4.6-3.8
			c11.5-11.5,11.5-30.2,0-41.7l-4.6-4.6v-29.8c4.8-5.4,7.4-12.3,7.4-19.6c0-7.3-2.6-14.2-7.4-19.6v-46.1c3.9-8.1,3.9-17.6,0-25.6
			V230.2h189v100.3C603.9,334.6,599.7,340.1,596.4,347.5z"/>
	</g>
</g>
<g>
	<path d="M735.9,642.3v150.4c-10.5,0-52.5-0.1-94.4-0.2c-18.1,0-33.8,0-47,0c-7.3,0-13.9,0-19.7,0c-9.1,0-16.7,0-22,0.1
		c-2.7,0-4.6,0-6.1,0.1c-0.9-13.1,0.3-26.9,1.3-38c1.4-15.9,1.9-23.1-1.6-25.8l-0.4-0.3l-0.5-0.1c-36.1-8.5-48.8-28-61.2-46.9
		c-4.8-7.3-9.3-14.2-15-20.2l136.9,1l0.3-0.1c7.3-1.6,12.8-4.3,17-7.5c2.6-1.2,4.7-3.3,5.9-5.9c0,0,0,0,0,0c6.9-9,7.1-18.8,7.1-19
		c0-1-1-103.6,0-154.9l0-0.5l-0.2-0.5c-1.7-4.1-3.7-8.2-5.8-12.2c-3.9-7.3-8.3-14.2-12.4-20.6c-4.3-6.8-8.2-12.8-10.1-17.3
		c-0.5-1.1-0.8-2.2-1.1-3.1l-0.1-0.4c-12-27.5-14.1-51-6.1-69.9c2.1-5,4.7-9,7.3-12.3c5.9-7.4,12-10.8,13.1-11.4
		c1.3,0.4,4.5,2.9,9.4,9.9c4.9,7,11.5,18.5,19.7,36.6c7.9,17.5,15.4,29.4,23.4,42.1c10.2,16.2,20.8,33,32.6,62.8
		C726.4,529.5,735.5,638.5,735.9,642.3z"/>
	<path d="M629.3,648.7c-1.2,2.6-3.3,4.7-5.9,5.9C625.7,652.8,627.7,650.8,629.3,648.7z"/>
</g>
<g>
	<g>
		<path d="M419.9,606.3c-0.3,0.4-0.7,0.7-1.1,1c-2.1,1.9-4.5,3.3-7,4.3c-3,1.2-6.1,1.8-9.2,1.8c-2.1,0-4.2-0.3-6.2-0.8
			c-4.1-1-7.9-3.2-11.1-6.3l-20.5-20.5c-9.5-9.5-9.5-25.1,0-34.7c2.4-2.4,5.1-4.2,8.1-5.3c3-1.2,6.1-1.8,9.2-1.8
			c5,0,10,1.5,14.2,4.5c1.1,0.8,2.1,1.6,3.1,2.6l20.5,20.5C429.5,581.2,429.5,596.8,419.9,606.3z"/>
	</g>
</g>
<path d="M418.9,524.8c-1.2,2.4-2.7,4.7-4.8,6.7c-4.8,4.8-11,7.1-17.3,7.1c-0.1,0-0.3,0-0.4,0c-6.1-0.1-12.2-2.5-16.9-7.1l-30.7-30.7
	c-9.5-9.5-9.5-25.1,0-34.7c2.4-2.4,5.1-4.2,8.1-5.3c3-1.2,6.1-1.8,9.2-1.8c6.3,0,12.6,2.4,17.3,7.1l30.7,30.7c2,2,3.6,4.3,4.8,6.7
	C422.1,510.2,422.1,518.1,418.9,524.8z"/>
<g>
	<g>
		<path d="M409.6,453c-2.4,2.4-5.1,4.2-8.1,5.4c-1.7,0.7-3.4,1.2-5.2,1.5c-1.3,0.2-2.7,0.3-4.1,0.3c-6.3,0-12.6-2.4-17.3-7.1
			l-17.2-17.2c-9.5-9.5-9.5-25.1,0-34.7c2.4-2.4,5.1-4.2,8.1-5.3c3-1.2,6.1-1.8,9.2-1.8c6.3,0,12.6,2.4,17.3,7.1l17.2,17.2
			C419.1,427.9,419.1,443.5,409.6,453z"/>
	</g>
</g>
<g>
	<g>
		<path d="M388.4,369.4l-40-40c-11-11-11-29.1,0-40.1c5.5-5.5,12.8-8.3,20-8.3c7.2,0,14.5,2.7,20,8.2V369.4z"/>
	</g>
</g>
</svg>
