<?xml version="1.0" encoding="utf-8"?>
<!-- Generator: Adobe Illustrator 22.0.1, SVG Export Plug-In . SVG Version: 6.00 Build 0)  -->
<svg version="1.1" xmlns="http://www.w3.org/2000/svg" xmlns:xlink="http://www.w3.org/1999/xlink" x="0px" y="0px"
	 viewBox="0 0 1080 1080" style="enable-background:new 0 0 1080 1080;" xml:space="preserve">
<style type="text/css">
	.st0{fill:#F2F2F2;}
	.st1{fill:none;stroke:#000000;stroke-width:3;stroke-miterlimit:10;}
	.st2{fill:none;stroke:#000000;stroke-width:2;stroke-miterlimit:10;}
	.st3{font-family:'MyriadPro-Regular';}
	.st4{font-size:50.8514px;}
	.st5{fill:#AF2222;}
</style>
<g id="Cirlce">
	<ellipse class="st0" cx="541.2" cy="768.7" rx="484.8" ry="94.9"/>
	<ellipse class="st1" cx="541.2" cy="768.7" rx="484.8" ry="94.9"/>
</g>
<g id="Raius">
	<line class="st2" x1="50.5" y1="768.7" x2="542.9" y2="769.5"/>
</g>
<g id="Miles">
	<text transform="matrix(1 0 0 1 237.6973 750.4668)" class="st3 st4">3 Miles</text>
</g>
<g id="Marker">
	<g>
		<path class="st5" d="M541.2,192.4c-15.5,0.4-31,1-46.2,5.3c-90.7,25.1-149.6,104.3-144.8,195.3c2.1,39.7,11.2,77.9,25.4,114.8
			c35.4,92.4,89.6,173.4,152,249.4c9,10.9,17.4,10.9,26.4-0.2c50.6-61.6,95.3-127.1,130.4-199c23.4-48.1,41.7-97.8,47.2-151.5
			C743.4,290.7,656.1,192.5,541.2,192.4z M540.4,466.5c-39.5-0.2-71.5-33.3-71.1-73.8c0.4-37.8,33.3-69.4,72.2-69.3
			c40,0.1,72,32.7,71.8,73.1C613,434.4,579.5,466.6,540.4,466.5z"/>
	</g>
</g>
</svg>
