<?xml version="1.0" encoding="utf-8"?>
<!-- Generator: Adobe Illustrator 22.0.1, SVG Export Plug-In . SVG Version: 6.00 Build 0)  -->
<svg version="1.1" xmlns="http://www.w3.org/2000/svg" xmlns:xlink="http://www.w3.org/1999/xlink" x="0px" y="0px"
	 viewBox="0 0 1080 1080" style="enable-background:new 0 0 1080 1080;" xml:space="preserve">
<style type="text/css">
	.st0{fill:#F2F2F2;}
	.st1{fill:#AF2222;}
</style>
<g id="Cirlce">
	<ellipse class="st0" cx="541.2" cy="768.7" rx="484.8" ry="94.9"/>
</g>
<g id="Raius">
</g>
<g id="Miles">
</g>
<g id="Marker">
	<g>
		<path class="st1" d="M541.2,321.6c-12.3,0.3-24.6,0.8-36.7,4.2c-71.9,19.9-118.6,82.7-114.9,154.9c1.6,31.5,8.9,61.8,20.1,91.1
			c28.1,73.3,71.1,137.6,120.6,197.8c7.1,8.7,13.8,8.6,21-0.1c40.1-48.9,75.6-100.8,103.4-157.8c18.6-38.1,33.1-77.6,37.4-120.1
			C701.6,399.6,632.3,321.7,541.2,321.6z M540.5,539c-31.4-0.1-56.7-26.4-56.4-58.5c0.3-30,26.4-55.1,57.2-55
			c31.7,0,57.1,25.9,56.9,58C598.2,513.6,571.6,539.1,540.5,539z"/>
	</g>
</g>
</svg>
