<?xml version="1.0" encoding="utf-8"?>
<!-- Generator: Adobe Illustrator 22.0.1, SVG Export Plug-In . SVG Version: 6.00 Build 0)  -->
<svg version="1.1" id="phone" xmlns="http://www.w3.org/2000/svg" xmlns:xlink="http://www.w3.org/1999/xlink" x="0px" y="0px"
	 viewBox="0 0 1080 1080" style="enable-background:new 0 0 1080 1080;" xml:space="preserve">
<style type="text/css">
	.st0{fill:#F2F2F2;}
	.st1{fill:#AF2222;}
	.st2{fill:#FEFEFE;}
	.st3{fill:#FBFBFB;}
	.st4{fill:#FAFAFA;}
</style>
<ellipse class="st0" cx="541.2" cy="768.7" rx="484.8" ry="94.9"/>
<g>
	<path class="st1" d="M541.9,270.3c85.9,0,171.7,0,257.6,0c17.1,0,19.5,2.4,19.5,19.9c0,148.2,0,296.5,0,444.7
		c0,17.5-2.3,19.9-19.5,19.9c-171.7,0-343.5,0-515.2,0c-17.1,0-19.5-2.4-19.5-19.9c0-148.2,0-296.5,0-444.7
		c0-17.5,2.4-19.9,19.5-19.9C370.2,270.3,456.1,270.3,541.9,270.3z"/>
	<path class="st2" d="M496,581.7c0-46.7,0-91.6,0-138.3c7.4,4.4,13.8,8.3,20.2,12.2c29.2,17.5,58.4,35,87.6,52.5
		c4.1,2.5,8.3,4.1,1,8.4C568.9,537.7,533.2,559.3,496,581.7z"/>
	<path class="st3" d="M369.8,293.4c22,0,21.4,0,22.3,22.5c0.4,10.4-2.9,13.8-12.8,12.3c-3.2-0.5-6.6,0.1-9.9-0.1
		c-7.6-0.6-19.5,3.4-21.8-1.6c-3.8-8.2-1.5-19.3-1.7-29.1c-0.1-4.5,3.3-3.9,6.2-3.9C358.1,293.4,363.9,293.4,369.8,293.4z"/>
	<path class="st3" d="M437.7,328.1c-23.3,0-22.8,0-23.4-23.4c-0.2-9,2-12.3,11.3-11.5c9.4,0.8,19.2-1,28.5,0.4
		c14.7,2.2,4.3,14,6.2,21.1c1,3.8,5.7,13.6-6.1,13.4C448.7,328,443.2,328.1,437.7,328.1z"/>
	<path class="st4" d="M507.6,328.1c-23.4,0-22.8,0-23.6-23.2c-0.4-10.1,2.8-13.1,12.2-11.7c3.2,0.5,6.6,0.1,9.9,0.1
		c26.4,0,28.6,2.9,24.6,29.8c-0.6,3.8-2,5.1-5.5,5C519.3,328,513.5,328.1,507.6,328.1z"/>
	<path class="st3" d="M576.6,293.4c23.1,0,22.6,0,23.2,23.5c0.2,9-2.1,12.3-11.4,11.4c-9.4-0.9-19.4,1.6-28.4-0.6
		c-14.6-3.5-3.7-16.2-6.4-24.3c-1.4-4.1-2.3-10.8,6.5-10.1C565.5,293.8,571.1,293.4,576.6,293.4z"/>
	<path class="st3" d="M647.5,293.4c21.8,0,21,0,22.1,21.5c0.6,11.6-3.1,14.6-13.9,13.5c-8.7-0.9-17.5-0.4-26.3-0.1
		c-4.7,0.1-6.9-1.4-6.4-6.2c0.1-1.1,0-2.2,0-3.3C622.7,293.4,622.7,293.4,647.5,293.4z"/>
	<path class="st3" d="M714.6,328.1c-22.6,0-22,0-22.8-23.1c-0.4-10.1,2.7-12.8,12.2-11.8c7.6,0.8,15.4,0.2,23.1,0.2
		c1.8,0,4-0.6,5.5,0.1c12.3,5.8,2.7,16.5,5.1,24.7c1,3.4,3.2,10.3-5.4,10C726.3,327.9,720.4,328.1,714.6,328.1z"/>
	<path class="st3" d="M369,696.9c22.9,0,22.4,0,23.1,22.8c0.3,9.5-1.8,13.8-11.9,12c-2.8-0.5-5.9-0.1-8.8-0.1
		c-25.8,0-25.5,0-25.6-25.5c0-6.9,1.3-10.3,8.9-9.3C359.4,697.4,364.2,696.9,369,696.9z"/>
	<path class="st3" d="M437.7,731.6c-23.3,0-22.8,0-23.4-23.3c-0.2-8.9,1.9-12.4,11.3-11.6c9.4,0.8,19,0.4,28.5,0.1
		c11-0.3,7.2,8.4,6.2,12.4c-1.8,7.5,7.5,18.8-6.2,22.2C449,732.7,443.2,731.6,437.7,731.6z"/>
	<path class="st3" d="M507,731.6c-22.7,0-22.1,0-23-22.7c-0.4-10.6,3.3-13,12.8-12.2c9.1,0.8,18.3,0.3,27.4,0.1
		c4.7-0.1,6.9,1.5,6.3,6.3c-0.2,1.4,0,2.9,0,4.4C530.7,731.6,530.7,731.6,507,731.6z"/>
	<path class="st3" d="M576.2,696.9c23.4,0,22.8,0,23.6,23.1c0.4,10.1-2.7,13.1-12.2,11.7c-3.2-0.5-6.6-0.1-9.9-0.1
		c-26.4,0-28.6-2.8-24.6-29.7c0.6-3.8,1.9-5.1,5.5-5C564.5,697,570.3,696.9,576.2,696.9z"/>
	<path class="st3" d="M647.3,696.9c22,0,21.4,0,22.2,22.4c0.4,10.1-2.5,13.5-12.6,12.5c-9.1-0.9-18.7,1.4-27.3-0.6
		c-14-3.2-4.2-15.4-6.3-23.2c-1-4-3.6-11.9,6.4-11.2C635.6,697.2,641.4,696.9,647.3,696.9z"/>
	<path class="st3" d="M714.5,731.6c-22.5,0-21.9,0-22.8-23.1c-0.4-10.2,2.9-12.7,12.3-11.8c8.7,0.8,17.6,0.5,26.4,0.1
		c5.6-0.3,8.4,1.3,7.5,7.3c-0.2,1.4,0,2.9,0,4.4C737.9,731.6,737.9,731.6,714.5,731.6z"/>
	<path class="st4" d="M288.3,310.8c0-17.4,0-17.4,21.3-17.4c13.3,0,13.3,0,13.3,21.1c0,13.7,0,13.7-21.9,13.7
		C288.3,328.1,288.3,328.1,288.3,310.8z"/>
	<path class="st4" d="M778.9,293.4c16.6,0,16.6,0,16.6,21c0,13.7,0,13.7-21.7,13.7c-12.9,0-12.9,0-12.8-22.7
		C761,293.4,761,293.4,778.9,293.4z"/>
	<path class="st4" d="M288.3,713.1c0-16.2,0-16.2,20.3-16.2c14.3,0,14.3,0,14.2,21.4c0,13.4,0,13.4-22,13.4
		C288.3,731.6,288.3,731.6,288.3,713.1z"/>
	<path class="st4" d="M778.7,731.6c-17.7,0-17.7,0-17.7-21c0-13.8,0-13.8,21.8-13.8c12.8,0,12.8,0,12.7,21.6
		C795.5,731.6,795.5,731.6,778.7,731.6z"/>
</g>
</svg>
