<?xml version="1.0" encoding="utf-8"?>
<!-- Generator: Adobe Illustrator 22.0.1, SVG Export Plug-In . SVG Version: 6.00 Build 0)  -->
<svg version="1.1" xmlns="http://www.w3.org/2000/svg" xmlns:xlink="http://www.w3.org/1999/xlink" x="0px" y="0px"
	 viewBox="0 0 1080 1080" style="enable-background:new 0 0 1080 1080;" xml:space="preserve">
<style type="text/css">
	.st0{opacity:0.74;fill:#377705;}
	.st1{fill:#F2F2F2;}
	.st2{fill:#377705;}
	.st3{fill:#FEFEFE;}
	.st4{fill:#FBFBFB;}
	.st5{fill:#FAFAFA;}
</style>
<g id="Dollar_Small_Left">
	<path class="st0" d="M59.7,499.1c1.5,3.1,2.1,7.4,4.6,9.1c2.8,2,6.2-1.7,9.5-2.5c7.1-1.7,14.1-3.2,21.5-3.3c2.4,0,3.3,0.6,3.6,3.1
		c0.7,5.6,1.6,11.3,2.7,16.9c0.6,3.2-0.4,3.9-3.4,3.8c-12.2-0.5-23.7,2.7-34.3,8.7c-10,5.7-13.6,15.3-9.2,23.9
		c2.8,5.5,7.8,7.6,13.5,8.6c8.8,1.5,17.6,0.7,26.4,0.3c7.6-0.3,15.2-0.3,22.7,1.4c30.7,6.9,44.1,41.4,25.9,67.1
		c-3.2,4.5-6.7,8.9-11.3,12c-2.7,1.8-3.2,3.4-1.7,6.3c2.4,4.4,4.2,9.1,6.5,13.6c1.5,2.9,0.8,4.3-2.1,5.5c-4.6,1.8-9.7,6.3-13.5,5.3
		c-4-1.1-5.1-8.1-6.8-12.7c-2-5.4-4.8-5.5-9.4-3.6c-9.4,4-19.4,5-29.4,5.4c-3.8,0.2-6.1-0.8-6.4-5.3c-0.4-5-1.3-9.9-2.3-14.8
		c-0.6-3.1-0.1-4.2,3.5-4.1c9.2,0.4,18.2-0.7,27.1-3.4c7.4-2.2,13.6-6,19-11.2c4.9-4.6,7.2-10.7,5.5-17.5
		c-1.8-7.5-6.8-12.3-14.4-14.1c-8.2-1.9-16.5-1.6-24.8-0.8c-9.4,0.8-18.7,0.7-27.9-1.4c-26.2-6.1-38.8-36.6-24.6-59.5
		c3.5-5.6,7.8-10.7,13.1-14.6c2.5-1.8,2.7-3.5,1.4-6.1c-2.4-4.8-4.4-9.8-6.9-14.5c-1.3-2.6-0.9-4.2,1.9-5.2c1.5-0.5,2.8-1.3,4.2-2
		C54.6,488.6,54.6,488.6,59.7,499.1z"/>
	<ellipse class="st1" cx="541.2" cy="768.7" rx="484.8" ry="94.9"/>
</g>
<g id="Dollar_Large_Left">
	<path class="st2" d="M231.5,422.7c0.4,4.3-0.5,9.6,1.7,12.6c2.5,3.5,8.1,0.5,12.3,1c9.1,0.9,18.1,2,26.8,5c2.8,1,3.7,2.1,3,5.2
		c-1.5,7-2.8,14-3.8,21.1c-0.6,4-2.1,4.4-5.6,3.1c-14.3-5.6-29.1-6.6-44.2-3.8c-14.2,2.6-22.4,12.5-20.7,24.5
		c1.1,7.7,6.2,12.2,12.4,15.7c9.8,5.4,20.6,8.1,31.1,11.2c9.2,2.7,18.1,5.9,26.3,11c33.5,20.8,35.1,67.2,3,90.2
		c-5.7,4.1-11.6,7.7-18.4,9.6c-3.9,1.1-5.2,2.7-4.6,6.8c1,6.2,1.2,12.5,2.1,18.8c0.6,4-0.8,5.4-4.8,5.6c-6.2,0.2-14.2,3.5-18.2,0.7
		c-4.3-2.9-2.8-11.7-2.9-17.8c-0.1-7.2-3.4-8.6-9.6-8.1c-12.7,0.8-25-2.1-37.1-5.8c-4.6-1.4-6.9-3.5-5.4-8.9
		c1.6-6,2.5-12.3,3.4-18.5c0.6-3.9,1.6-5.1,5.8-3.4c10.7,4.3,21.9,6.6,33.5,7.2c9.7,0.5,18.6-1.5,27.1-5.4
		c7.7-3.5,12.9-9.7,13.8-18.4c0.9-9.7-2.9-17.4-11.2-22.6c-8.9-5.7-18.9-8.6-29-11.2C207.1,545,196,541,186,534.7
		c-28.5-18-30.9-59.3-4.6-80.6c6.5-5.2,13.6-9.4,21.6-11.8c3.8-1.1,4.7-3,4.2-6.6c-0.9-6.7-1.2-13.4-2.1-20.1
		c-0.5-3.7,0.7-5.3,4.3-5.4c1.9,0,3.9-0.4,5.8-0.6C229.7,408.2,229.7,408.2,231.5,422.7z"/>
</g>
<g id="Video">
	<g>
		<path d="M541.9,337.5c72.7,0,145.4,0,218,0c14.5,0,16.5,2,16.5,16.8c0,125.5,0,251,0,376.5c0,14.8-2,16.8-16.5,16.8
			c-145.4,0-290.7,0-436.1,0c-14.5,0-16.5-2-16.5-16.8c0-125.5,0-251,0-376.5c0-14.8,2-16.8,16.5-16.8
			C396.6,337.5,469.2,337.5,541.9,337.5z"/>
		<path class="st3" d="M503,601c0-39.5,0-77.6,0-117.1c6.2,3.8,11.7,7,17.1,10.3c24.7,14.8,49.4,29.6,74.2,44.4
			c3.5,2.1,7.1,3.4,0.8,7.1C564.8,563.8,534.6,582.1,503,601z"/>
		<path class="st4" d="M396.2,357c18.6,0,18.1,0,18.9,19c0.3,8.8-2.5,11.7-10.8,10.4c-2.7-0.4-5.6,0.1-8.4-0.1
			c-6.4-0.5-16.5,2.9-18.5-1.4c-3.2-7-1.3-16.3-1.4-24.6c-0.1-3.8,2.8-3.3,5.3-3.3C386.3,357,391.3,357,396.2,357z"/>
		<path class="st4" d="M453.7,386.4c-19.7,0-19.3,0-19.8-19.8c-0.2-7.6,1.7-10.4,9.6-9.7c8,0.7,16.2-0.8,24.1,0.4
			c12.4,1.9,3.6,11.8,5.2,17.8c0.9,3.2,4.9,11.5-5.1,11.3C463,386.4,458.4,386.4,453.7,386.4z"/>
		<path class="st5" d="M512.9,386.4c-19.8,0-19.3,0-20-19.6c-0.3-8.5,2.4-11.1,10.3-9.9c2.7,0.4,5.6,0.1,8.4,0.1
			c22.3,0,24.2,2.4,20.8,25.2c-0.5,3.2-1.7,4.3-4.6,4.2C522.8,386.4,517.8,386.4,512.9,386.4z"/>
		<path class="st4" d="M571.2,357c19.5,0,19.1,0,19.7,19.9c0.2,7.7-1.7,10.4-9.6,9.7c-8-0.7-16.4,1.3-24.1-0.5
			c-12.3-3-3.1-13.7-5.4-20.6c-1.2-3.5-2-9.2,5.5-8.5C561.9,357.3,566.6,357,571.2,357z"/>
		<path class="st4" d="M631.3,357c18.4,0,17.8,0,18.7,18.2c0.5,9.8-2.7,12.4-11.8,11.4c-7.4-0.8-14.9-0.3-22.3-0.1
			c-3.9,0.1-5.8-1.2-5.4-5.3c0.1-0.9,0-1.9,0-2.8C610.3,357,610.3,357,631.3,357z"/>
		<path class="st4" d="M688.1,386.4c-19.1,0-18.6,0-19.3-19.5c-0.3-8.5,2.3-10.9,10.3-10c6.5,0.7,13,0.1,19.6,0.1
			c1.6,0,3.4-0.5,4.6,0.1c10.4,4.9,2.3,14,4.3,20.9c0.8,2.9,2.7,8.7-4.6,8.4C698,386.3,693,386.4,688.1,386.4z"/>
		<path class="st4" d="M395.5,698.6c19.4,0,18.9,0,19.5,19.3c0.2,8-1.6,11.7-10.1,10.2c-2.4-0.4-5-0.1-7.4-0.1
			c-21.8,0-21.6,0-21.7-21.6c0-5.8,1.1-8.7,7.6-7.9C387.4,699,391.5,698.6,395.5,698.6z"/>
		<path class="st4" d="M453.7,728c-19.7,0-19.3,0-19.8-19.8c-0.2-7.5,1.6-10.5,9.6-9.8c8,0.7,16.1,0.3,24.1,0.1
			c9.3-0.3,6.1,7.1,5.3,10.5c-1.5,6.3,6.4,15.9-5.3,18.8C463.3,728.9,458.4,728,453.7,728z"/>
		<path class="st4" d="M512.3,728c-19.2,0-18.7,0-19.5-19.2c-0.4-9,2.8-11,10.9-10.3c7.7,0.6,15.5,0.3,23.2,0.1
			c4-0.1,5.8,1.3,5.4,5.4c-0.1,1.2,0,2.5,0,3.7C532.4,728,532.4,728,512.3,728z"/>
		<path class="st4" d="M570.9,698.6c19.8,0,19.3,0,20,19.6c0.3,8.5-2.3,11.1-10.3,9.9c-2.7-0.4-5.6-0.1-8.4-0.1
			c-22.3,0-24.2-2.4-20.9-25.2c0.5-3.2,1.6-4.3,4.6-4.3C561,698.7,566,698.6,570.9,698.6z"/>
		<path class="st4" d="M631.1,698.6c18.6,0,18.1,0,18.8,19c0.3,8.6-2.1,11.4-10.6,10.6c-7.7-0.8-15.8,1.2-23.1-0.5
			c-11.9-2.7-3.6-13-5.3-19.7c-0.9-3.4-3.1-10,5.4-9.5C621.2,698.9,626.2,698.6,631.1,698.6z"/>
		<path class="st4" d="M688,728c-19.1,0-18.5,0-19.3-19.5c-0.3-8.7,2.5-10.7,10.4-10c7.4,0.7,14.9,0.4,22.3,0.1
			c4.7-0.2,7.1,1.1,6.4,6.2c-0.2,1.2,0,2.5,0,3.7C707.8,728,707.8,728,688,728z"/>
		<path class="st5" d="M327.2,371.8c0-14.8,0-14.8,18-14.8c11.2,0,11.2,0,11.2,17.8c0,11.6,0,11.6-18.5,11.6
			C327.2,386.4,327.2,386.4,327.2,371.8z"/>
		<path class="st5" d="M742.5,357c14.1,0,14.1,0,14.1,17.8c0,11.6,0,11.6-18.4,11.6c-10.9,0-10.9,0-10.9-19.3
			C727.3,357,727.3,357,742.5,357z"/>
		<path class="st5" d="M327.2,712.3c0-13.7,0-13.7,17.2-13.7c12.1,0,12.1,0,12.1,18.1c0,11.4,0,11.4-18.6,11.3
			C327.2,728,327.2,728,327.2,712.3z"/>
		<path class="st5" d="M742.3,728c-15,0-15,0-15-17.8c0-11.7,0-11.7,18.5-11.6c10.8,0,10.8,0,10.8,18.3
			C756.6,728,756.6,728,742.3,728z"/>
	</g>
</g>
<g id="Dollar_Large_Right">
	<path class="st2" d="M873.7,424.4c-0.2,4.3-2,9.4-0.3,12.7c2,3.9,7.9,1.8,12,2.9c8.8,2.3,17.6,4.8,25.7,9c2.7,1.4,3.3,2.7,2.2,5.6
		c-2.6,6.7-4.9,13.4-7,20.2c-1.2,3.9-2.8,4.1-6,2.2c-13.3-7.7-27.8-11-43-10.6c-14.4,0.4-24.1,8.9-24.2,21c-0.1,7.7,4.2,13,9.8,17.4
		c8.8,6.9,19.1,11.1,29.1,15.9c8.6,4.1,17,8.6,24.3,14.9c29.9,25.7,24.4,71.8-10.8,89.6c-6.2,3.1-12.7,5.9-19.6,6.6
		c-4,0.4-5.6,1.9-5.6,6c0,6.3-0.8,12.6-0.8,18.9c0,4.1-1.7,5.2-5.6,4.8c-6.2-0.7-14.5,1.3-18.1-2.1c-3.8-3.5-0.9-11.9-0.1-18
		c1-7.1-2.1-9-8.3-9.5c-12.7-1.1-24.4-5.9-35.7-11.4c-4.3-2.1-6.3-4.5-4-9.6c2.5-5.7,4.4-11.8,6.2-17.8c1.2-3.7,2.4-4.7,6.3-2.5
		c9.9,5.9,20.6,9.9,32,12.3c9.5,2,18.6,1.4,27.6-1.1c8.2-2.3,14.3-7.6,16.4-16.1c2.4-9.4-0.2-17.6-7.6-24.1
		c-7.9-7-17.3-11.4-26.9-15.6c-10.8-4.6-21.1-10.2-30-18c-25.4-22.1-21.4-63.4,7.8-80.4c7.2-4.2,14.9-7.2,23.1-8.4
		c3.9-0.5,5.1-2.3,5.2-5.9c0.2-6.7,0.8-13.4,1-20.2c0.1-3.7,1.5-5.1,5.1-4.6c1.9,0.3,3.9,0.2,5.8,0.3
		C874.1,409.8,874.1,409.8,873.7,424.4z"/>
</g>
<g id="Dollar_Small_Right">
	<path class="st0" d="M1018.7,504.3c-1.2,3.2-3.7,6.7-3.2,9.7c0.6,3.4,5.6,3.2,8.5,5c6.2,3.8,12.3,7.7,17.5,12.9
		c1.7,1.7,1.9,2.8,0.4,4.8c-3.5,4.5-6.9,9.1-10.1,13.8c-1.8,2.7-3.1,2.4-5.1,0.3c-8.3-9-18.6-14.8-30.4-18.1
		c-11.1-3.1-20.4,1.2-23.4,10.4c-1.9,5.9,0.2,10.9,3.5,15.6c5.1,7.3,12,12.9,18.5,18.9c5.6,5.1,11,10.5,15.1,17
		c16.8,26.5,1.9,60.4-29.1,65.8c-5.5,1-11,1.5-16.5,0.5c-3.2-0.6-4.7,0.1-5.6,3.3c-1.5,4.8-3.5,9.4-5,14.2c-1,3.1-2.5,3.6-5.4,2.3
		c-4.6-2-11.4-2.4-13.3-5.8c-2.1-3.6,2.1-9.3,4.1-13.8c2.4-5.2,0.5-7.3-4.1-9.2c-9.4-3.8-17.2-10.2-24.6-17
		c-2.8-2.6-3.7-4.9-0.8-8.3c3.3-3.8,6.1-8,8.9-12.1c1.8-2.6,2.9-3.1,5.3-0.4c6.2,6.8,13.4,12.3,21.6,16.8c6.8,3.7,13.9,5.4,21.3,5.6
		c6.8,0.2,12.6-2.5,16.3-8.4c4-6.6,3.9-13.5-0.2-20.1c-4.4-7.2-10.6-12.8-16.9-18.1c-7.2-6.1-13.7-12.7-18.7-20.7
		c-14.2-22.8-1.6-53.3,24.6-59.5c6.5-1.5,13-2,19.6-1c3.1,0.5,4.4-0.5,5.3-3.3c1.7-5.1,3.8-10.1,5.4-15.1c0.9-2.8,2.3-3.6,5-2.3
		c1.4,0.6,2.9,1.1,4.4,1.6C1022.5,493.2,1022.5,493.2,1018.7,504.3z"/>
</g>
</svg>
