<?xml version="1.0" encoding="utf-8"?>
<!-- Generator: Adobe Illustrator 22.0.1, SVG Export Plug-In . SVG Version: 6.00 Build 0)  -->
<svg version="1.1" xmlns="http://www.w3.org/2000/svg" xmlns:xlink="http://www.w3.org/1999/xlink" x="0px" y="0px"
	 viewBox="0 0 320 392" style="enable-background:new 0 0 320 392;" xml:space="preserve">
<style type="text/css">
	.st0{fill:#FFFFFF;}
</style>
<g id="Layer_2">
	<g>
		<path class="st0" d="M211.3,179.6c0,10.3-5.1,19.4-13,24.9L160,242.8l-38.3-38.3c-7.9-5.5-13-14.6-13-24.9
			c0-16.8,13.6-30.3,30.3-30.3c8.1,0,15.5,3.2,20.9,8.4c5.4-5.2,12.8-8.4,20.9-8.4C197.7,149.2,211.3,162.8,211.3,179.6z"/>
	</g>
</g>
<g id="Layer_4">
	<g>
		<path class="st0" d="M116.2,111.7c9.8-10.3,19.5-23.8,19.8-30.4c0-0.7,0-1.3-0.2-1.9c-0.2-0.5-0.7-0.6-1.3-0.6
			c-1.1,0-2.7,0.7-3,0.9c0.8-0.6,3.3-2.4,4.9-2.5c1.6-0.1,2.8,0.6,3.1,1.6c0.2,0.6,0.3,1.4,0.3,2.2c-0.3,7.5-11.8,21.8-23,32.5
			c-7.9,7.6-15.1,12.8-17.5,13.4c-3.2,0.7-3.9-1.1-3.7-2.8c1.1-8,11.9-23,16-28.2c-6,4.1-35.5,29.7-36.6,34.1c0,0.1,0.3,0.1,0.5,0.1
			c0.2,0,0.5-0.1,0.7-0.2c0.1,0-0.6,0.9-1.7,1c-1,0.1-2.1-0.7-1.9-1.4c1.5-6.2,27.8-38.5,28.1-44c0.3-2.2-1.8-2.5-3.8-2.3
			c-11.5,1.1-33.6,23.4-34.4,26.4c-0.1,0.6-0.1,1,1.1,0.8c1-0.1,1.6-0.6,1.6-0.4c-0.1,0.3-2.4,1.7-3.6,1.9c-2.2,0.3-2.6-1.4-2.4-2.5
			c1.8-7.6,26.3-26.4,37.2-27.4c4-0.4,7.2,1.1,6.7,5.1c-0.9,8.4-15.4,26-20.9,33.1C93,108.8,115,89.6,116.9,89.6
			c1.3-0.1,4.1,1.7,4.1,2.8c-0.5-0.4-1-0.3-1.3-0.2c-2.4,0.1-24.5,34-20.6,33.2C102.1,124.8,108.9,119.4,116.2,111.7z"/>
		<path class="st0" d="M127.1,115.7c-0.1,0.6,0.4,0.9,1.5,0.8c3.8-0.2,13.5-7,18.6-11c0.2-0.1,0.5,0.1,0.3,0.3
			c-3.8,3.3-14.4,12.5-21.3,12.9c-1.6,0.1-3.5-1.5-3.4-2.7c0.1-1.1,0.5-2.1,0.9-3.1c1.4-2.7,4.2-5.8,7.5-8.4c4.3-3.4,8.8-5,10.9-5
			c0.7,0,3,1,3,2.3c0,2.9-10,9.9-15.8,10.3C128.4,112.9,127.3,114.5,127.1,115.7z M130.1,110.9c4.5-0.7,13.2-8.5,13.5-10.3
			C138,102.5,131.9,108.4,130.1,110.9z"/>
		<path class="st0" d="M191.3,121.5c-2.8-0.1-5.6-0.1-8.4,0.1c-16.8,1.3-26.1,7.7-23.6,9.2c-1.1,0-3.8-1.6-4-3.7
			c-0.2-2.5,5.9-4.9,12.6-6.4c4.4-2.7,9.7-8.3,13.8-12.8c-2,0.2-4,0.2-5.9,0.2c-8.7-0.2-15.8-3.5-16.3-7.7c-0.1-0.6,0.5-1.8,1.2-2.6
			c1.4-1.6,3.7-1.7,4.1-1.5c-0.9,0.3-1.9,1.1-2,1.9c-0.2,3.2,5.9,7.5,15.2,7.8c0.9,0,1.9,0,2.9-0.1c0.9-0.1,1.8-0.1,2.6-0.2
			c9.4-11.1,18-25.5,26.4-25c2.7,0.2,5,2,5,5c0.2,8-11.7,17.8-27.2,21.2c-4.5,5.1-10,10.3-14.1,12.8c2.6-0.4,5.1-0.6,7.4-0.6
			c1.2,0,2.4,0,3.7,0c11.2,0.4,25.8,3.6,31.3,7.7C209.7,124.1,200.7,121.9,191.3,121.5z M189.6,104.4c15.9-4.3,23.3-16.5,22.4-20.6
			c-0.3-1.2-1.1-2.1-2.3-1.9C206,82.8,198.6,94.1,189.6,104.4z"/>
		<path class="st0" d="M221.3,102.9c-8.8-0.9-17.8,14.2-14.9,15.5c3,1.3,9.5-5.6,12.3-10.1c-0.3-0.4-1-1.9-0.8-2.3
			c0.1-0.5,1.4-1.7,2-1.7c0.5,0,1.1,0.4,1.2,0.6c1.1,1.5,2.5,2.7,4.5,2.8c3.3,0.1,4.9-1.6,5.4-1.5c-0.1,0.6-1.9,2-4.3,2.5
			c-1.1,0.2-2.1,0.2-2.9,0.1c-0.8-0.1-1.3-0.2-1.5-0.3c-0.5,6.1-10.3,11.9-15.8,11.2c-2.4-0.3-4.1-2.2-4.2-4
			c-0.6-7.6,9.6-14.5,17.3-13.8c1.9,0.2,2.7,0.8,3.1,1.1c0.3,0.2,0.1,0.2-0.1,0.1C222.1,103,221.7,102.9,221.3,102.9z"/>
		<path class="st0" d="M225.8,110.2c1.3-3.2,2.6-5.6,3.9-6.6c0.3-0.2,0.5-0.2,0.6-0.2c1.2,0.1,3.3,2.1,3.6,3.4
			c0,0.1-0.1-0.1-0.5-0.1c-1-0.2-2.1,2-3.5,4.8c-1.4,2.8-1.8,6-1.9,6.5c4.2-2.5,12.5-11.1,15.9-15.1c0.3-0.3,0.5-0.3,0.3,0.1
			c-3.3,7.8-16.1,18.4-17.8,18.3c-1-0.1-2.4-1.7-2.5-2.1C223.7,117.3,224.3,113.9,225.8,110.2z"/>
		<path class="st0" d="M242.6,120.1c0,0.6,0.6,0.9,1.7,1.1c3.8,0.5,11.8-4.8,16-8c0.1-0.1,0.5,0.2,0.4,0.3
			c-3,2.7-11.3,10.3-18.2,9.4c-1.6-0.2-3.9-2.1-4.1-3.4c-0.2-1.1,0-2,0.2-3c0.8-2.5,2.9-5.2,5.5-7.3c3.6-2.7,7.6-3.5,9.7-3.2
			c0.7,0.1,3.2,1.5,3.5,2.9c0.7,2.9-7.6,8.3-13.3,7.7C243.3,117.5,242.6,118.9,242.6,120.1z M244.5,115.8c4.4,0.1,11.2-6.3,11-8.1
			C250.5,108.6,245.8,113.5,244.5,115.8z"/>
	</g>
	<g>
		<path class="st0" d="M121.9,283.5c8.7-8.2,18.1-20.3,18-26.7c0-0.7-0.1-1.3-0.4-1.8c-0.2-0.5-0.8-0.7-1.5-0.7
			c-1.3-0.1-3,0.3-3.3,0.5c0.9-0.5,3.5-1.9,5.3-1.8c1.8,0.1,3.3,0.9,3.7,1.9c0.3,0.6,0.4,1.4,0.5,2.1c0.1,7.3-11.5,20.2-21.5,28.5
			c-7.1,6-13.3,9.4-15.6,9.4c-3-0.1-4.1-2.2-4.2-3.8c-0.5-7.7,8.1-19.7,11.8-24c-6.5,3.2-31.6,19.5-31.1,23.2c0,0.1,0.4,0.3,0.6,0.3
			c0.2,0.1,0.4,0.1,0.6,0c0.1,0-0.4,0.7-1.4,0.5c-0.9-0.2-2.2-1.5-2.3-2.2c-0.7-5.6,19.9-29.4,19.8-35c-0.1-2.1-2.6-3-4.7-3.5
			c-13.3-2.5-31.3,10.7-30.9,13.4c0.1,0.6,0.2,1,1.4,1.4c1,0.3,1.5,0.1,1.6,0.3c0,0.3-2.1,0.7-3.3,0.3c-2.3-0.7-3.2-2.8-3.3-3.8
			c-0.8-7.1,21-15.2,33.6-12.9c4.4,0.9,8.4,3.3,8.6,7.2c0.3,8.2-11.6,21.6-15.3,26.8c7.9-7.7,28.4-21.2,30.8-21.1
			c1.5,0.2,4.7,2.5,4.9,3.6c-0.5-0.5-1.2-0.4-1.4-0.5c-3.2-0.2-20.6,28-16.4,28.2C109.5,293.3,115.4,289.6,121.9,283.5z"/>
		<path class="st0" d="M131,291.7c-0.8-0.3-2.1-1.6-2.2-2.4c-0.1-2.6,7.2-11.7,10.5-13.8c0.3-0.2,0.6-0.2,0.8-0.2
			c1.2,0.1,3.3,2,3.3,3.1c0,0.2-0.3-0.1-0.7-0.1c-2.2-0.3-9.1,9.5-9.6,11.2c3.1-0.4,10.5-6.2,13.7-8.7c0.4-0.2,0.6,0.2,0.5,0.3
			c-4.5,4.1-12.5,10.8-15.7,10.7C131.4,291.8,131.2,291.8,131,291.7z M147.9,270.2c0.5,0.5,0.8,1.2,0.6,1.1c-0.1,0-0.5-0.2-1.1,0
			c-0.9,0.3-3.3,2-3.9,2.7c-0.7,0.8-1.8-0.2-1.9-1.1c-0.1-1.3,1.9-4.1,3.2-4.4C146.1,268.6,147.2,269.5,147.9,270.2z"/>
		<path class="st0" d="M157.9,290.7c3.2-0.7,10.7-7,14.1-9.8c0.3-0.2,0.6,0.1,0.4,0.3c-4.6,4.5-13,12-16.1,11.9
			c-0.5,0-1.1-0.4-1.6-1c-0.6-0.6-0.9-1.3-0.9-1.8c0-2.6,6-10,8.7-12.1c-4.3,1.7-11.9,7-15.7,10.4c-0.7,0.6-1.3,1.2-1.8,1.8
			c-1.4,1.4-1.7,2.6-0.9,2.9c-1.5,0.2-2.8-1.3-3.2-2.6c-0.1-0.3,0.1-1.5,1.4-3.5c1.2-2,3.1-4.6,4.8-6.6c1.8-2.2,4.1-4.5,5.5-5.4
			c0.2-0.2,0.5-0.2,0.7-0.2c1.3,0,3.3,1.8,3.3,2.9c0,0.2-0.2,0-0.6-0.1c-0.7-0.1-2.6,1.8-4.2,3.5c-2.4,2.7-5.1,5.9-5.8,7.2
			c0.6-0.7,1.5-1.6,2.6-2.4c5.7-4.7,15-10.8,16.8-10.8c1.3,0,2.9,2.4,2.2,2.9C166.1,279,158,288.6,157.9,290.7z"/>
		<path class="st0" d="M169.1,290.1c-0.1,0.5,0.4,0.8,1.5,0.8c3.8-0.1,13.3-6.9,18.7-11.2c0.2-0.1,0.5,0.1,0.4,0.2
			c-4,3.6-14.4,12.9-21.3,13c-1.6,0-3.7-1.5-3.6-2.8c0-1.1,0.3-2,0.7-3c1.3-2.6,3.9-5.5,7.2-8c4.4-3.3,9.1-5,11.3-5.1
			c0.8-0.1,3.2,0.8,3.1,2c-0.1,2.8-10.2,10.1-16,10.4C170.3,287.5,169.3,288.9,169.1,290.1z M171.9,285.6
			c4.5-0.6,13.3-8.5,13.6-10.2C179.7,277.4,173.6,283.1,171.9,285.6z"/>
		<path class="st0" d="M194.6,273.4c0.3-0.2,0.5-0.3,0.7-0.3c1.3-0.1,3.2,1.4,3.1,2.5c0,0.2-0.2,0-0.6,0c-0.8,0-2.7,2-4.3,4
			c-1.5,1.8-3.3,4.1-4.5,5.8c2.8-3.4,8.1-7.7,12.7-11.1c2.1-1.5,3.7-2.5,4.8-2.8c0.6-0.1,2.6,1.5,2.2,1.9c-1.2,1.2-5.6,5.1-7.5,8.9
			c2.5-0.5,6.1-3,9.4-6.1c0.1-0.1,0.4-0.1,0.4-0.1c-1,1.3-7.4,7.3-10.9,7.7c-0.9,0.1-2.4-1.3-2.4-1.8c0-1.3,1.8-4.1,3.2-5.6
			c-4.9,3-7.4,5.1-11,8.8c-2.7,2.7-5.9,6.9-4.8,7.3c-1.5,0.4-2.7-0.9-3-2.1c-0.1-0.4,0.2-1.3,0.8-2.4c1.3-2.7,3.7-6,5.9-8.7
			C191,277,193.3,274.5,194.6,273.4z"/>
		<path class="st0" d="M205.3,289.8c-0.8-0.1-2-1.1-2-1.9c0.1-2.6,8-13.5,11.4-16.5c0.3-0.3,0.6-0.4,0.8-0.4
			c1.2-0.2,3.2,1.2,3.1,2.3c0,0.2-0.3,0-0.7,0c-2.1,0.2-9.7,11.7-10.4,13.6c3.1-1.2,10.9-8.8,14.2-12.1c0.4-0.3,0.6,0,0.4,0.2
			c-4.7,5.2-13.2,13.9-16.4,14.6C205.7,289.8,205.6,289.8,205.3,289.8z M223.7,264.1c0.4,0.4,0.7,1,0.5,1c-0.1,0-0.5-0.1-1.1,0.3
			c-0.9,0.5-3.4,2.8-4,3.7c-0.8,1-1.8,0.2-1.8-0.6c0-1.3,2.1-4.6,3.5-5.2C221.9,262.9,223,263.5,223.7,264.1z"/>
		<path class="st0" d="M219.4,284.6c-0.1,0.6,0.4,0.8,1.5,0.6c3.7-0.7,13.4-9.1,18.8-14.3c0.2-0.1,0.5,0,0.3,0.2
			c-4.1,4.2-14.7,15.3-21.5,16.5c-1.6,0.3-3.5-1-3.5-2.2c0.1-1.1,0.4-2,0.9-3.1c1.4-2.8,4.1-6.1,7.5-9.2c4.5-4,9.1-6.5,11.3-7
			c0.8-0.2,3.1,0.3,3,1.5c-0.2,2.9-10.4,11.8-16.1,13C220.7,281.8,219.6,283.4,219.4,284.6z M222.3,279.6
			c4.5-1.3,13.4-10.7,13.9-12.5C230.4,270.2,224.2,276.9,222.3,279.6z"/>
		<path class="st0" d="M240.8,272.5c-0.3,0.8,0.9,1.2,1.4,1.5c8.4-6.3,15-9.4,15.6-9.6c0.1,0,0.3,0,0.3,0.1c0.4,0-9.7,5.6-15.5,9.9
			c0.6,0.3,1.8,1.2,1.6,2.2c-0.9,3.2-7.7,7.4-11,8.1c-1.1,0.3-1.6-0.4-1.8-1.4c0.3-2,8-7.6,9.8-8.7c-0.5-0.5-3.4-1.3-2.8-3.5
			c1.1-3.6,8.7-9,13.1-10.4c1.4-0.4,1.9,1.5,1.6,2.8c-0.1,0.7-3.5,4.4-4.9,4.7c-0.1,0-0.1-0.1-0.1-0.2c0.2,0,3.8-4.2,4-5.2
			C249.8,263.7,241.6,270.3,240.8,272.5z M232.7,282.7c2-0.9,8.5-5.5,8.6-7.2C238.1,277.8,234.2,281,232.7,282.7z"/>
	</g>
</g>
</svg>
