<?xml version="1.0" encoding="utf-8"?>
<!-- Generator: Adobe Illustrator 22.0.1, SVG Export Plug-In . SVG Version: 6.00 Build 0)  -->
<svg version="1.1" xmlns="http://www.w3.org/2000/svg" xmlns:xlink="http://www.w3.org/1999/xlink" x="0px" y="0px"
	 viewBox="0 0 488 92.9" style="enable-background:new 0 0 488 92.9;" xml:space="preserve">
<style type="text/css">
	.st0{fill:#FFFFFF;}
</style>
<g id="Layer_4">
	<g>
		<path class="st0" d="M264.9,36.3c0,4.2-2.1,7.9-5.3,10.1L244,62l-15.6-15.6c-3.2-2.2-5.3-5.9-5.3-10.1c0-6.8,5.5-12.4,12.4-12.4
			c3.3,0,6.3,1.3,8.5,3.4c2.2-2.1,5.2-3.4,8.5-3.4C259.3,23.9,264.9,29.4,264.9,36.3z"/>
	</g>
</g>
<g id="Layer_2">
	<g>
		<path class="st0" d="M69.2,56.5c7.3-10.9,14.9-25.4,14.2-32.1c-0.1-0.7-0.2-1.4-0.5-1.9c-0.2-0.5-0.8-0.6-1.5-0.5
			c-1.2,0.1-2.7,0.9-3,1.1c0.8-0.7,3-2.7,4.8-2.9c1.7-0.2,3.1,0.4,3.6,1.4c0.3,0.6,0.5,1.4,0.6,2.2c0.8,7.7-8.7,23.2-17.2,34.5
			c-6,8.1-11.5,13.6-13.6,14.2c-2.8,0.8-4-1-4.2-2.7c-1.1-8.1,5.8-23.6,8.8-29.1c-5.7,4.6-27.7,31.1-26.9,35.4
			c0,0.1,0.4,0.1,0.6,0.1c0.2,0,0.4-0.1,0.6-0.2c0,0-0.3,0.9-1.3,1.1c-0.9,0.1-2.2-0.7-2.3-1.4c-1-6.1,16-39.2,15.4-44.9
			c-0.3-2.2-2.6-2.4-4.7-2.1c-12.5,1.6-28.2,24.3-27.6,27.2c0.1,0.6,0.3,1,1.5,0.8c1-0.2,1.4-0.6,1.5-0.4c0,0.3-1.9,1.7-3,1.9
			c-2.2,0.3-3.3-1.4-3.4-2.5C10.1,48.1,29.8,29,41.6,27.4c4.2-0.6,8.1,0.8,8.6,4.9c1.1,8.6-8.8,26.8-11.9,34
			c6.7-11.7,24.5-32,26.8-32.3c1.4-0.2,4.6,1.5,4.9,2.7c-0.5-0.4-1.1-0.2-1.4-0.2C65.6,36.9,52.1,72,56,71
			C58.6,70.4,63.7,64.7,69.2,56.5z"/>
		<path class="st0" d="M80.4,60c0,0.6,0.5,0.9,1.6,0.7c3.5-0.4,11.7-8,16.2-12.5c0.1-0.1,0.5,0.1,0.4,0.3
			c-3.4,3.7-12.1,13.8-18.5,14.5c-1.5,0.2-3.6-1.3-3.8-2.6c-0.1-1.1,0.1-2.1,0.3-3.2c0.9-2.9,3-6.1,5.8-9c3.7-3.7,7.9-5.7,10-5.9
			c0.7-0.1,3.1,0.8,3.2,2.1c0.3,3-8.4,10.8-13.8,11.5C81.2,57.1,80.4,58.8,80.4,60z M82.4,55c4.2-0.9,11.5-9.5,11.6-11.4
			C88.8,45.9,83.8,52.3,82.4,55z"/>
		<path class="st0" d="M141.2,60.5c-2.6,0.2-5.2,0.5-7.8,1c-15.6,3.1-23.5,10.3-21.1,11.6c-1,0.1-3.6-1.4-4-3.4
			c-0.5-2.5,4.9-5.5,11.1-7.7c3.9-3.2,8.6-9.5,12.4-14.5c-1.9,0.4-3.8,0.7-5.7,0.8c-8.4,0.7-15.5-2-16.5-6.3
			c-0.2-0.6,0.3-1.9,0.9-2.7c1.3-1.8,3.6-2.1,3.9-1.9c-0.9,0.4-1.8,1.3-1.8,2.1c0.1,3.3,6.4,7.2,15.4,6.5c0.9-0.1,1.8-0.2,2.8-0.4
			c0.9-0.2,1.7-0.3,2.6-0.5c8.7-12.5,18.2-28.6,27.2-29.2c2.8-0.2,5.2,1.4,4.9,4.4c-0.5,8.3-13.1,20.2-28,25.5
			c-4.3,5.7-9.3,11.8-13,14.7c2.4-0.6,4.8-1.1,6.9-1.4c1.1-0.1,2.2-0.3,3.4-0.4c10.5-0.8,24.2,0.6,29.1,4.1
			C158.4,61,150,59.9,141.2,60.5z M139.5,43.1c15.4-6.3,23.9-20.2,23.3-24.3c-0.2-1.2-1-2.1-2.3-1.6
			C156.4,18.6,148.1,31.4,139.5,43.1z"/>
		<path class="st0" d="M170.8,37.2c-8.9,0.4-18.2,17.2-15.4,18.2c2.8,0.9,9.3-7.1,12.3-12.2c-0.3-0.4-0.8-1.8-0.7-2.3
			c0.1-0.5,1.5-2,2.2-2.1c0.5-0.1,1,0.3,1.2,0.4c1,1.4,2.2,2.5,4.2,2.2c3.3-0.4,5-2.4,5.5-2.4c-0.2,0.7-2.1,2.3-4.5,3.2
			c-1.1,0.4-2.1,0.5-2.9,0.6c-0.7,0-1.2,0-1.5-0.1c-1,6.4-10.7,13.9-15.9,13.9c-2.2,0-3.8-1.7-3.9-3.6c-0.5-7.8,9.8-16.3,17.6-16.7
			c1.9-0.1,2.7,0.4,3,0.7c0.3,0.1,0.1,0.1-0.1,0.1C171.6,37.3,171.2,37.2,170.8,37.2z"/>
		<path class="st0" d="M174.7,44.2c1.6-3.5,3.2-6.2,4.5-7.5c0.3-0.3,0.5-0.3,0.6-0.3c1.2-0.1,3.1,1.7,3.2,3c0,0.1-0.1,0-0.5,0
			c-0.9-0.1-2.4,2.5-3.9,5.6c-1.7,3.2-2.3,6.5-2.5,7.1c4.2-3.3,13.4-13.5,17.6-18.4c0.3-0.4,0.6-0.5,0.3,0.1
			c-4.8,8.8-18.2,21.9-19.7,22c-1,0.1-2.2-1.4-2.2-1.8C172,51.9,172.9,48.2,174.7,44.2z"/>
		<path class="st0" d="M190,51.9c0,0.6,0.4,0.9,1.5,0.9c3.5-0.1,12.2-7.1,17.1-11.2c0.1-0.1,0.5,0.1,0.3,0.3
			c-3.6,3.4-13,12.9-19.5,13.1c-1.5,0.1-3.5-1.6-3.6-2.9c0-1.2,0.2-2.1,0.6-3.2c1.1-2.8,3.4-5.9,6.4-8.5c4-3.5,8.3-5.1,10.4-5.1
			c0.7,0,3,1,3.1,2.4c0.1,3-9.1,10.1-14.6,10.5C191,49,190.1,50.6,190,51.9z M192.4,47c4.2-0.6,12.1-8.6,12.4-10.5
			C199.4,38.4,194,44.4,192.4,47z"/>
		<path class="st0" d="M348.2,49.7c9.2-9.3,19.4-22.1,20-28.9c0.1-0.7,0-1.4-0.1-1.9c-0.2-0.5-0.7-0.7-1.3-0.8
			c-1.2-0.1-2.8,0.4-3.1,0.5c0.9-0.6,3.5-2,5.2-1.9c1.7,0.1,3,1,3.2,2.1c0.2,0.7,0.3,1.5,0.2,2.3c-0.7,7.7-12.9,21.1-23.4,30.7
			c-7.4,6.8-13.8,11.2-16,11.4c-2.9,0.3-3.7-1.8-3.6-3.5c0.4-8.2,10.1-22.1,14.1-27c-6.5,3.5-33,25.4-33,29.7c0,0.1,0.3,0.2,0.5,0.2
			c0.2,0,0.4,0,0.6-0.1c0,0-0.5,0.8-1.4,0.8c-0.9,0-2-1.1-2-1.8c0.1-6.1,23-35.5,23.5-41.3c0.1-2.3-2.1-2.9-4.2-3
			c-12.6-0.7-32.2,18.5-32.2,21.5c0,0.6,0.1,1,1.3,1.1c1,0,1.5-0.3,1.5-0.1c0,0.3-2.2,1.4-3.3,1.3c-2.2-0.1-2.9-2-2.9-3.1
			c0.2-7.6,23.1-22.7,34.9-22c4.2,0.2,7.8,2.3,7.5,6.4c-0.6,8.6-13.7,24.7-18,31.2c8.8-10.2,30.1-26.9,32.3-26.7
			c1.4,0.1,4.2,2.3,4.3,3.5c-0.5-0.5-1.1-0.4-1.3-0.4c-3-0.2-22.9,31.7-18.9,31.5C335.2,61.3,341.3,56.7,348.2,49.7z"/>
		<path class="st0" d="M356,58c-0.8-0.3-1.9-1.6-1.8-2.4c0.2-2.8,8.1-12.7,11.4-14.9c0.3-0.2,0.6-0.2,0.8-0.2
			c1.1,0.1,2.9,2.2,2.8,3.4c0,0.2-0.2-0.1-0.6-0.1c-2-0.4-9.6,10-10.3,11.9c3-0.5,10.7-6.6,13.9-9.2c0.4-0.2,0.6,0.2,0.4,0.3
			c-4.7,4.1-13,11.3-16,11.3C356.4,58.1,356.3,58.1,356,58z M374.3,35.4c0.4,0.5,0.6,1.3,0.4,1.2c-0.1,0-0.5-0.2-1,0
			c-0.9,0.3-3.3,2-4,2.8c-0.8,0.8-1.7-0.3-1.7-1.2c0.1-1.4,2.2-4.3,3.5-4.6C372.7,33.5,373.7,34.6,374.3,35.4z"/>
		<path class="st0" d="M381.6,57.7c3.1-0.5,10.7-6.4,14.1-8.9c0.3-0.2,0.5,0.2,0.4,0.3c-4.7,4.1-13.4,11.2-16.3,11
			c-0.5,0-1-0.5-1.4-1.1c-0.5-0.7-0.8-1.4-0.7-1.9c0.2-2.7,6.6-10.2,9.4-12.2c-4.2,1.4-11.9,6.5-15.8,10c-0.7,0.6-1.3,1.2-1.9,1.9
			c-1.4,1.4-1.9,2.7-1.2,3.1c-1.5,0.2-2.5-1.4-2.8-2.8c-0.1-0.3,0.3-1.6,1.7-3.7c1.4-2.2,3.4-4.8,5.2-6.9c2-2.3,4.3-4.6,5.7-5.5
			c0.2-0.2,0.5-0.2,0.7-0.2c1.2,0.1,2.9,2.1,2.8,3.3c0,0.2-0.2-0.1-0.6-0.2c-0.6-0.1-2.6,1.7-4.3,3.5c-2.6,2.8-5.4,6.1-6.2,7.4
			c0.6-0.7,1.6-1.6,2.7-2.5c5.9-4.8,15.1-10.4,16.8-10.3c1.2,0.1,2.5,2.9,1.8,3.3C390.4,46.1,381.9,55.4,381.6,57.7z"/>
		<path class="st0" d="M392.2,58.2c-0.1,0.6,0.3,0.9,1.4,1.1c3.5,0.3,13.1-5.3,18.5-8.8c0.2-0.1,0.5,0.2,0.3,0.3
			c-4.1,2.9-14.7,11-21.1,10.3c-1.5-0.2-3.3-2.1-3.1-3.3c0.1-1.1,0.5-2.1,1-3.1c1.4-2.6,4.2-5.4,7.6-7.6c4.4-2.9,8.9-3.9,11-3.7
			c0.7,0.1,2.9,1.4,2.7,2.8c-0.3,2.9-10.4,8.8-15.9,8.4C393.5,55.6,392.4,57,392.2,58.2z M395.2,53.8c4.3-0.1,13.2-6.9,13.7-8.7
			C403.3,46.2,397.1,51.4,395.2,53.8z"/>
		<path class="st0" d="M417.5,45c0.3-0.2,0.5-0.2,0.7-0.2c1.2,0.1,2.8,2.2,2.7,3.4c0,0.2-0.1-0.1-0.5-0.2c-0.7-0.1-2.7,1.5-4.3,3.3
			c-1.5,1.6-3.5,3.6-4.7,5.3c2.9-3,8.3-6.4,12.8-8.9c2.1-1.1,3.6-1.7,4.7-1.7c0.5,0,2.3,2.3,1.9,2.7c-1.2,1-5.7,3.9-7.7,7.5
			c2.4,0.1,6-1.6,9.3-3.9c0.1,0,0.4-0.1,0.4,0c-1,1-7.5,5.6-10.9,5.2c-0.9-0.1-2.1-1.9-2.1-2.5c0.2-1.3,2-3.9,3.5-5.2
			c-4.8,2-7.3,3.7-11,6.9c-2.8,2.3-6.1,6.2-5.1,6.8c-1.4,0.2-2.4-1.4-2.6-2.8c-0.1-0.4,0.3-1.3,1-2.4c1.5-2.6,4.1-5.6,6.3-8.1
			C413.8,48,416.2,45.8,417.5,45z"/>
		<path class="st0" d="M426,65c-0.7-0.3-1.8-1.7-1.7-2.5c0.3-2.8,8.7-12.3,12.1-14.3c0.3-0.2,0.6-0.2,0.8-0.2
			c1.1,0.1,2.8,2.3,2.7,3.5c0,0.2-0.2-0.1-0.6-0.2c-2-0.5-10,9.5-10.9,11.4c3-0.4,11-6.1,14.3-8.5c0.4-0.2,0.6,0.2,0.4,0.3
			c-4.9,3.9-13.5,10.7-16.6,10.5C426.3,65.1,426.2,65.1,426,65z M445.3,43.2c0.4,0.5,0.6,1.3,0.4,1.3c-0.1,0-0.5-0.3-1-0.1
			c-0.9,0.2-3.4,1.9-4.1,2.6c-0.8,0.8-1.7-0.4-1.6-1.2c0.1-1.4,2.4-4.2,3.7-4.4C443.8,41.3,444.8,42.4,445.3,43.2z"/>
		<path class="st0" d="M439.5,63.8c-0.1,0.6,0.3,1,1.3,1.1c3.5,0.5,13.3-4.9,18.8-8.2c0.2-0.1,0.5,0.2,0.3,0.3
			c-4.2,2.8-15.1,10.5-21.4,9.7c-1.5-0.2-3.2-2.2-3-3.4c0.1-1.1,0.6-2.1,1.1-3.1c1.5-2.6,4.4-5.2,7.8-7.3c4.5-2.7,9.1-3.6,11.2-3.3
			c0.7,0.1,2.8,1.5,2.6,2.9c-0.4,2.9-10.7,8.4-16.2,7.9C441,61.2,439.8,62.6,439.5,63.8z M442.7,59.4c4.3,0.1,13.4-6.5,14-8.2
			C451.1,52.1,444.7,57.1,442.7,59.4z"/>
		<path class="st0" d="M460.6,58.9c-0.3,0.8,0.7,1.7,1.2,2.2c8.4-3.1,14.8-3.2,15.4-3.1c0.1,0,0.3,0.1,0.3,0.3
			c0.4,0.2-9.6,1.2-15.3,3.5c0.6,0.6,1.6,2.1,1.3,3.1c-1.1,3-7.9,4.6-11,4.1c-1.1-0.2-1.5-1.1-1.6-2.2c0.4-2,8.1-5,9.9-5.4
			c-0.4-0.7-3-2.9-2.3-4.9c1.3-3.5,8.9-6,13.2-5.4c1.4,0.2,1.7,2.5,1.3,3.8c-0.2,0.7-3.7,3-5,2.8c0,0-0.1-0.2-0.1-0.2
			c0.1,0,3.9-2.8,4.2-3.7C469.7,53.4,461.5,56.8,460.6,58.9z M452.1,66.5c2-0.3,8.4-2.4,8.7-4.2C457.6,63.5,453.7,65.3,452.1,66.5z"
			/>
	</g>
</g>
</svg>
