<?xml version="1.0" encoding="utf-8"?>
<!-- Generator: Adobe Illustrator 22.0.1, SVG Export Plug-In . SVG Version: 6.00 Build 0)  -->
<svg version="1.1" xmlns="http://www.w3.org/2000/svg" xmlns:xlink="http://www.w3.org/1999/xlink" x="0px" y="0px"
	 viewBox="0 0 880.5 1851.1" style="enable-background:new 0 0 880.5 1851.1;" xml:space="preserve">
<style type="text/css">
	.st0{fill:#FFFFFF;}
	.st1{fill:#A51111;}
	.st2{font-family:'Blacksword';}
	.st3{font-size:115.9248px;}
	.st4{font-family:'Roboto-Light';}
	.st5{font-size:60px;}
	.st6{fill:none;stroke:#FFFFFF;stroke-width:1.4323;stroke-miterlimit:10;}
</style>
<g id="Glass">
	<path class="st0" d="M622.6,1747.8c-24.6-5.3-32.6-9.2-88.2-28.6c-54.9-19.1-66.6-43.9-73.7-82.2c-7.1-38.3-8.5-540,0-606.6
		c8.5-66.6,47-78.1,72.6-93.7c25.5-15.6,155.9-93.6,239.6-180c83.6-86.5,112-198.5,103.5-300.5C867.8,354,785.5,184.5,760.1,140
		c-3.2-5.7-636.4-5.7-639.7,0C94.9,184.5,12.6,354,4.1,456.1C-4.4,558.2,24,670.2,107.6,756.7c83.6,86.5,214.1,164.5,239.6,180
		c25.5,15.6,48.2,25.5,56.7,92.2c8.5,66.6,4.2,569.9-2.8,608.2c-7.1,38.3-17,69.5-73.7,82.2c-56.7,12.8-76.6,19.8-102.1,26.9
		c-25.5,7.1-133.3,5.7-141.8,31.2c-8.5,25.5,22.7,26.9,32.6,31.2c9.9,4.2,116.2,12.8,154.5,14.2c16.8,0.6,86.8,0.7,160.2,0.6
		c73.4,0.1,143.4,0,160.2-0.6c38.3-1.4,121.8-4.9,132.5-5.6c16.3-1,62.2-14.6,57.1-31.6C774.6,1765.2,665.4,1757,622.6,1747.8z
		 M456,1690.7c0,3.9-10.3,7.1-23,7.1c-12.7,0-23-3.2-23-7.1c0-3.9,10.3-7.2,23-7.2C445.8,1683.6,456,1686.8,456,1690.7z
		 M418.6,991.9h26.9l-4.3,675.3h-18.4L418.6,991.9z M433.1,978.7c-12.7,0-23-3.2-23-7.1c0-3.9,10.3-7.1,23-7.1c12.7,0,23,3.2,23,7.1
		C456,975.5,445.8,978.7,433.1,978.7z M323.6,834.1C218.1,815.9,94.4,734.7,52,654.7c-42.4-80-36.4-161.2-31.5-231.6
		c4.8-70.3,91.4-258.1,110.3-272.8c10.9-8.5,624.4-4.9,624.4-4.9s14.6,38.8,63,145.5s55.7,196.9,32.7,298.2
		c-23,101.8-103.1,190.3-183.1,223.1C603.8,838.5,429.1,852.3,323.6,834.1z M434.1,1729.5c-20.3,0-36.7-5.3-36.7-11.7
		c0-6.5,16.4-11.7,36.7-11.7s36.7,5.3,36.7,11.7C470.8,1724.2,454.4,1729.5,434.1,1729.5z"/>
</g>
<g id="wine">
	<path class="st1" d="M843.6,558.8c0,0-3.4,18.2-5.5,27.4c-22.3,98.6-99.8,184.4-177.3,216.1c-62.1,25.4-231.4,38.8-333.5,21.2
		c-102.2-17.6-221.9-96.3-263.1-173.8c-16.1-30.3-25-60.9-29.6-90.9C34.6,558.8,484.8,501.4,843.6,558.8z"/>
</g>
<g id="Title">
	<text transform="matrix(1 0 0 1 121.0738 340.3965)" class="st0 st2 st3">Wine Lovers</text>
	<g>
		<text transform="matrix(1 0 0 1 364.5518 474.3945)" class="st0 st4 st5">NEAR</text>
		<g>
			<line class="st6" x1="554.2" y1="452.4" x2="626.2" y2="452.4"/>
			<line class="st6" x1="254.2" y1="452.4" x2="326.2" y2="452.4"/>
		</g>
	</g>
</g>
</svg>
