<?xml version="1.0" encoding="utf-8"?>
<!-- Generator: Adobe Illustrator 20.0.0, SVG Export Plug-In . SVG Version: 6.00 Build 0)  -->
<svg version="1.1" xmlns="http://www.w3.org/2000/svg" xmlns:xlink="http://www.w3.org/1999/xlink" x="0px" y="0px"
	 viewBox="0 0 438 200" style="enable-background:new 0 0 438 200;" xml:space="preserve">
<style type="text/css">
	.st0{display:none;}
	.st1{display:inline;}
	.st2{font-family:'HelveticaNeue-Bold';}
	.st3{font-size:48px;}
	.st4{letter-spacing:-2;}
	.st5{fill:none;stroke:#231F20;stroke-miterlimit:10;}
	.st6{fill:#FFFFFF;}
	.st7{display:inline;fill:none;stroke:#231F20;stroke-miterlimit:10;}
	.st8{letter-spacing:-4;}
	.st9{font-family:'HelveticaNeue-Thin';}
	.st10{font-size:16px;}
	.st11{letter-spacing:1;}
</style>
<g id="Layer_3" class="st0">
	<g class="st1">
		<text transform="matrix(1 3.757393e-03 -3.757393e-03 1 65.3515 124.684)" class="st2 st3 st4">WINE LOVERS</text>
		<g>
			<line class="st5" x1="67.5" y1="165.4" x2="197.5" y2="165.4"/>
			<line class="st5" x1="240.5" y1="165.4" x2="370.5" y2="165.4"/>
			<g>
				<path class="st6" d="M218.9,158.5c-0.3-0.3-0.5-0.6-0.7-0.8c-2.6-2.3-5.4-2.5-7.9-0.5c-2.4,2-2.8,4.8-1,7.8c2.5,4,6,7,9.6,10.1
					c3.8-3.3,7.6-6.4,10-10.8c1.4-2.5,0.8-5.2-1.3-7c-2.2-1.8-5-1.9-7.3-0.1C219.9,157.5,219.5,157.9,218.9,158.5z"/>
				<path d="M218.9,158.5c0.6-0.6,1-1,1.5-1.4c2.3-1.8,5.1-1.7,7.3,0.1c2.1,1.8,2.7,4.5,1.3,7c-2.4,4.4-6.2,7.5-10,10.8
					c-3.6-3-7.1-6.1-9.6-10.1c-1.8-3-1.5-5.8,1-7.8c2.4-2,5.3-1.8,7.9,0.5C218.4,157.9,218.6,158.1,218.9,158.5z"/>
			</g>
		</g>
	</g>
</g>
<g id="Layer_2" class="st0">
	<line class="st7" x1="67.5" y1="165.4" x2="197.5" y2="165.4"/>
	<line class="st7" x1="240.5" y1="165.4" x2="370.5" y2="165.4"/>
	<g class="st1">
		<text transform="matrix(1 3.757393e-03 -3.757393e-03 1 66.9292 124.684)" class="st2 st3 st8">W  NE  L    VERS</text>
		<g>
			<path class="st6" d="M239.9,96.1c-0.5-0.6-0.8-1.1-1.2-1.4c-4.5-4-9.5-4.3-13.8-0.9c-4.2,3.4-4.9,8.5-1.7,13.7
				c4.4,7,10.5,12.3,16.9,17.6c6.7-5.8,13.3-11.3,17.6-19c2.4-4.4,1.4-9.2-2.3-12.3c-3.9-3.2-8.8-3.3-12.8-0.2
				C241.7,94.4,241,95.2,239.9,96.1z"/>
			<path d="M239.9,96.1c1.1-1,1.8-1.7,2.6-2.4c4-3.1,8.9-3.1,12.8,0.2c3.7,3.1,4.8,7.9,2.3,12.3c-4.2,7.7-10.9,13.1-17.6,19
				c-6.3-5.4-12.5-10.6-16.9-17.6c-3.2-5.2-2.5-10.2,1.7-13.7c4.3-3.5,9.3-3.2,13.8,0.9C239.1,95.1,239.4,95.5,239.9,96.1z"/>
		</g>
		<g>
			<path d="M123.5,102.4c-1-0.9-1.9-1.3-1.9-2.6v-9.5c0-0.2-1.2-0.4-2.6-0.4c-1.5,0-2.6,0.2-2.6,0.4v9.5c0,1.3-1,1.7-1.9,2.6
				c-1.4,1.2-1.7,2.4-1.7,5l0,15.9c0,0.7,0.5,2.2,6.2,2.2c5.7,0,6.2-1.4,6.2-2.2v-15.9C125.2,104.8,124.9,103.6,123.5,102.4z
				 M114.4,105.1c0-1.5,1.7-2.5,3-4c0.9,0.7-1.3,2.9-1.6,4.1c-0.3,0.9-1.4,1.2-1.4,1.2C114.4,105.8,114.4,105.3,114.4,105.1z
				 M123.9,119.2c0,0.3-2.2,0.5-5,0.5c-2.7,0-5-0.2-5-0.5v-9.9c0,0.3,2.2,0.5,5,0.5c2.7,0,5-0.2,5-0.5V119.2z"/>
			<path d="M116.9,90.4c-0.4,0-0.8,0.6-0.8,1.2c0,0.7,0.4,1.2,0.8,1.2s0.8-0.6,0.8-1.2C117.7,90.9,117.3,90.4,116.9,90.4z
				 M121.1,90.4c-0.4,0-0.8,0.6-0.8,1.2c0,0.7,0.4,1.2,0.8,1.2c0.4,0,0.8-0.6,0.8-1.2C121.9,90.9,121.6,90.4,121.1,90.4z"/>
		</g>
	</g>
	<text transform="matrix(1 0 0 1 210.6162 169.5)" class="st1 st9 st10 st11">IN</text>
</g>
<g id="Layer_4">
	<g>
		<path class="st6" d="M233.7,140.1c0-0.2,0-0.4-0.1-0.6c0-0.1,0-0.3-0.1-0.4c-0.1-0.3-0.1-0.5-0.2-0.8c0-0.1-0.1-0.2-0.2-0.4
			c-0.2-0.4-0.3-0.8-0.6-1.1c-0.3-0.5-0.7-0.9-1.1-1.3c-0.2-0.2-0.4-0.4-0.7-0.6c-3.1-2.5-7-2.6-10.1-0.1c-0.6,0.5-1.1,1-1.8,1.6
			c-0.1,0.1-0.2,0.2-0.3,0.3v0c-0.1-0.1-0.1-0.2-0.2-0.2c-0.2-0.2-0.4-0.5-0.5-0.6c-0.1-0.1-0.1-0.2-0.2-0.2h0
			c-3.5-3.2-7.5-3.4-10.9-0.7c-3.3,2.7-3.9,6.7-1.3,10.8c1.3,2.1,2.8,4,4.4,5.7c0.5,0.6,1.1,1.2,1.7,1.7c2.3,2.3,4.7,4.4,7.2,6.5
			c5.3-4.6,10.5-8.9,13.9-15c0.2-0.3,0.3-0.6,0.5-1s0.2-0.6,0.3-1c0.1-0.3,0.2-0.7,0.2-1c0-0.3,0.1-0.5,0.1-0.8
			C233.7,140.7,233.7,140.4,233.7,140.1z M214.3,148.5h-1.8v-8.2h1.8V148.5z M224,148.5h-1.8l-3.4-5.5h0v5.5H217v-8.2h1.8l3.4,5.5h0
			v-5.5h1.7V148.5z"/>
		<path class="st6" d="M233.7,140.1c0-0.2,0-0.4-0.1-0.6c0-0.1,0-0.3-0.1-0.4c-0.1-0.3-0.1-0.5-0.2-0.8c0-0.1-0.1-0.2-0.2-0.4
			c-0.2-0.4-0.4-0.8-0.6-1.1c-0.3-0.5-0.7-0.9-1.1-1.3c-0.2-0.2-0.4-0.4-0.7-0.6c-3.1-2.5-7-2.6-10.1-0.1c-0.6,0.5-1.1,1-1.8,1.6
			c-0.1,0.1-0.2,0.2-0.3,0.3v0h0c-0.1-0.1-0.1-0.2-0.2-0.2c-0.2-0.2-0.4-0.5-0.5-0.6c-0.1-0.1-0.1-0.1-0.2-0.2
			c-3.5-3.2-7.5-3.4-10.9-0.7c-3.3,2.7-3.9,6.7-1.3,10.8c1.3,2.1,2.8,4,4.4,5.7c0.5,0.6,1.1,1.2,1.7,1.7c2.3,2.3,4.7,4.4,7.2,6.5
			c5.3-4.6,10.5-8.9,13.9-15c0.2-0.3,0.3-0.6,0.5-1s0.2-0.6,0.3-1c0.1-0.3,0.2-0.7,0.2-1C233.7,141.2,233.7,140.7,233.7,140.1z
			 M214.3,148.5h-1.8v-8.2h1.8V148.5z M224,148.5h-1.8l-3.4-5.5h0v5.5H217v-8.2h1.8l3.4,5.5h0v-5.5h1.7V148.5z"/>
		<g>
			<rect x="14.5" y="144.7" class="st6" width="173.3" height="1.4"/>
		</g>
		<g>
			<rect x="249.9" y="144.7" class="st6" width="173.3" height="1.4"/>
		</g>
		<g>
			<path class="st6" d="M53,86.8l-8.3-33.7l-0.1,0l-8.4,33.7l-11,0L12.3,37.2l10.9,0l7.7,33.7l0.1,0l8.7-33.7l10.2,0l8.3,34.1l0.1,0
				l8.2-34.1l10.7,0L63.8,86.9L53,86.8z"/>
			<path class="st6" d="M111.6,37.6l20.5,33.3l0.1,0l0.1-33.2l10.2,0l-0.2,49.5l-10.9,0l-20.5-33.2l-0.1,0L110.8,87l-10.2,0
				l0.2-49.5L111.6,37.6z"/>
			<path class="st6" d="M182.5,37.8l0,9.1l-26.1-0.1l0,10.6l24,0.1l0,8.5l-24-0.1l0,12.1l26.7,0.1l0,9.1l-37.6-0.1l0.2-49.5
				L182.5,37.8z"/>
			<path class="st6" d="M219.9,38l-0.2,40.3l24.1,0.1l0,9.1l-35-0.1l0.2-49.5L219.9,38z"/>
			<path class="st6" d="M279.2,87.7l-15.8-49.5l11.2,0L285.5,73l0.1,0l11.3-34.8l11.2,0l-16.6,49.4L279.2,87.7z"/>
			<path class="st6" d="M342.7,38.4l0,9.1l-26.1-0.1l0,10.6l24,0.1l0,8.5l-24-0.1l0,12.1l26.7,0.1l0,9.1l-37.6-0.1l0.2-49.5
				L342.7,38.4z"/>
			<path class="st6" d="M370.6,38.5c2.2,0,4.2,0.4,6,1.1c1.8,0.7,3.3,1.7,4.6,3s2.2,2.7,2.9,4.3c0.7,1.6,1,3.4,1,5.3
				c0,2.9-0.6,5.4-1.9,7.5c-1.2,2.1-3.2,3.7-6,4.8v0.1c1.3,0.4,2.4,0.9,3.3,1.7c0.9,0.8,1.6,1.7,2.1,2.7c0.6,1,1,2.2,1.2,3.4
				c0.2,1.2,0.4,2.5,0.5,3.7c0,0.8,0.1,1.7,0.1,2.8c0,1.1,0.1,2.1,0.2,3.3c0.1,1.1,0.3,2.2,0.5,3.2c0.2,1,0.6,1.8,1.1,2.5l-10.9,0
				c-0.6-1.6-1-3.4-1.1-5.6c-0.1-2.2-0.3-4.3-0.6-6.2c-0.4-2.6-1.1-4.5-2.3-5.7c-1.2-1.2-3.2-1.8-5.9-1.8l-10.9,0L354.6,88l-10.9,0
				l0.2-49.5L370.6,38.5z M366.7,60.9c2.5,0,4.4-0.5,5.6-1.6c1.3-1.1,1.9-2.9,1.9-5.4c0-2.4-0.6-4.1-1.9-5.2
				c-1.2-1.1-3.1-1.6-5.6-1.6l-11.9,0l-0.1,13.9L366.7,60.9z"/>
			<path class="st6" d="M395.5,75.9c0.6,1.2,1.4,2.1,2.4,2.8c1,0.7,2.2,1.3,3.5,1.6c1.3,0.4,2.7,0.5,4.2,0.5c1,0,2-0.1,3.1-0.2
				c1.1-0.2,2.2-0.5,3.1-0.9c1-0.5,1.8-1.1,2.4-1.9c0.6-0.8,1-1.8,1-3.1c0-1.3-0.4-2.4-1.3-3.3s-2-1.5-3.4-2.1
				c-1.4-0.6-3-1.1-4.7-1.5c-1.8-0.4-3.5-0.9-5.3-1.4c-1.8-0.5-3.6-1-5.4-1.7c-1.8-0.7-3.3-1.5-4.7-2.6c-1.4-1.1-2.5-2.4-3.3-4
				c-0.9-1.6-1.3-3.5-1.3-5.8c0-2.5,0.6-4.7,1.7-6.6s2.5-3.4,4.3-4.7c1.8-1.2,3.8-2.2,6-2.7c2.2-0.6,4.4-0.9,6.7-0.9
				c2.6,0,5.1,0.3,7.4,0.9c2.4,0.6,4.5,1.5,6.3,2.8c1.8,1.3,3.3,3,4.4,5c1.1,2,1.6,4.5,1.6,7.3l-10.5,0c-0.1-1.5-0.4-2.7-0.9-3.7
				c-0.5-1-1.2-1.7-2.1-2.3c-0.9-0.6-1.9-1-3-1.2c-1.1-0.2-2.4-0.4-3.7-0.4c-0.9,0-1.8,0.1-2.6,0.3c-0.9,0.2-1.7,0.5-2.4,1
				c-0.7,0.5-1.3,1-1.8,1.7c-0.5,0.7-0.7,1.6-0.7,2.6c0,1,0.2,1.8,0.5,2.4c0.4,0.6,1.1,1.2,2.2,1.7c1.1,0.5,2.6,1,4.5,1.5
				c1.9,0.5,4.4,1.2,7.5,2c0.9,0.2,2.2,0.5,3.8,1c1.6,0.5,3.3,1.3,4.9,2.3c1.6,1.1,3,2.5,4.2,4.3c1.2,1.8,1.8,4.1,1.7,6.8
				c0,2.3-0.5,4.4-1.3,6.3s-2.2,3.6-3.9,5c-1.7,1.4-3.9,2.5-6.5,3.3s-5.5,1.2-8.9,1.1c-2.7,0-5.4-0.4-7.9-1
				c-2.6-0.7-4.8-1.7-6.8-3.2c-2-1.4-3.5-3.3-4.7-5.5c-1.1-2.2-1.7-4.9-1.6-7.9l10.5,0C394.6,73.4,394.9,74.8,395.5,75.9z"/>
		</g>
		<g>
			<g>
				<path class="st6" d="M93.6,54.5c-1.4-1.2-2.8-1.8-2.8-3.7V37c0-0.3-1.7-0.6-3.8-0.6c-2.1,0-3.8,0.3-3.8,0.6v13.7
					c0,1.9-1.4,2.5-2.8,3.7c-2,1.8-2.4,3.4-2.4,7.2l0,23c0,1.1,0.8,3.1,9,3.1s9-2.1,9-3.1v-23C96,58,95.6,56.3,93.6,54.5z
					 M80.4,58.4c0.1-2.2,2.5-3.5,4.4-5.8c1.3,1.1-1.8,4.2-2.4,5.9c-0.4,1.4-2.1,1.8-2.1,1.8C80.4,59.4,80.4,58.7,80.4,58.4z
					 M94.2,78.7c0,0.4-3.2,0.7-7.2,0.7c-4,0-7.2-0.3-7.2-0.7V64.4c0,0.4,3.2,0.7,7.2,0.7c4,0,7.2-0.3,7.2-0.7V78.7z"/>
			</g>
			<g>
				<path class="st6" d="M84,37.2c-0.6,0-1.2,0.8-1.2,1.8c0,1,0.5,1.8,1.2,1.8s1.2-0.8,1.2-1.8C85.1,38,84.6,37.2,84,37.2z
					 M90.1,37.2c-0.6,0-1.2,0.8-1.2,1.8c0,1,0.5,1.8,1.2,1.8c0.6,0,1.2-0.8,1.2-1.8C91.3,38,90.8,37.2,90.1,37.2z"/>
			</g>
		</g>
		<g>
			<g>
				<path class="st6" d="M271.2,73.7c0,0-8.1,1.9-9.4,1.9c-0.4-0.1-3.8-5.2-4.7-6.4c-2-2.8-1.2-4.5,0-7c0.4-0.9,0.8-1.8,1.1-2.8
					c1.2-4.2,0.5-6.5-1-8.8c-1.5-2.3-8.4-9.1-12-12.1l-0.7-0.6l-0.9,0.4c-0.2,0.1-4.1,1.6-7.8,4.3c-3.7,2.6-6.6,5.8-6.7,5.9
					l-0.6,0.7l0.4,0.9c1.7,4.4,5.8,13.2,7.4,15.4c1.6,2.2,3.5,3.7,7.9,3.9c1.1,0.1,2.1,0,3.1-0.1c0.7-0.1,1.3-0.1,2-0.1
					c1.7,0,3.1,0.4,4.5,2.5c0.8,1.2,4.5,6.2,4.4,6.6c-0.2,0.8-5,8.3-5,8.3l2.9,1.4l15.5-10.9L271.2,73.7z M238.3,55.2
					c0.8,2,2.3,5.9,4.7,8.2c1,1,2.8,1.1,4.5,1.7l0.1,0.9c-0.7,0.1-2.3,0.4-3.4,0.3c-3.5-0.2-4.4-1.1-5.5-2.6
					c-1.2-1.6-4.6-8.8-6.6-13.7c1-1,3-3,5.4-4.7c2.4-1.7,5-2.9,6.3-3.5c4,3.5,9.6,9.2,10.6,10.8c0.5,0.8,1,1.6,1.1,2.6L238.3,55.2z"
					/>
			</g>
		</g>
	</g>
</g>
</svg>
