<?xml version="1.0" encoding="utf-8"?>
<!-- Generator: Adobe Illustrator 22.0.1, SVG Export Plug-In . SVG Version: 6.00 Build 0)  -->
<svg version="1.1" id="Layer_1" xmlns="http://www.w3.org/2000/svg" xmlns:xlink="http://www.w3.org/1999/xlink" x="0px" y="0px"
	 viewBox="0 0 96 96" style="enable-background:new 0 0 96 96;" xml:space="preserve">
<g>
	<path d="M11,85.1c1-3.1,2-6.1,3-9.1c7-21.2,14-42.3,20.9-63.5c0.4-1.2,0.9-1.6,2.2-1.6c7.2,0.1,14.5,0,21.7,0c0.6,0,1.1,0,1.9,0
		c-1.2,3.7-2.4,7.3-3.6,10.9c-6.1,18.5-12.2,37.1-18.3,55.6c-1.7,5-5.3,7.7-10.6,7.7C22.4,85.1,16.8,85.1,11,85.1z"/>
	<path d="M62.5,16.7C70,39.6,77.5,62.2,85,85c-6.4,0-12.5,0.2-18.7-0.1c-4.1-0.2-7.2-2.6-8.6-6.6c-2.6-7.6-5.1-15.2-7.6-22.9
		c-0.2-0.5-0.1-1.2,0-1.8c4-12.2,8-24.3,12-36.5C62.1,17.1,62.2,17.1,62.5,16.7z"/>
</g>
</svg>
