<?xml version="1.0" encoding="utf-8"?>
<!-- Generator: Adobe Illustrator 20.0.0, SVG Export Plug-In . SVG Version: 6.00 Build 0)  -->
<svg version="1.1" id="Layer_1" xmlns="http://www.w3.org/2000/svg" xmlns:xlink="http://www.w3.org/1999/xlink" x="0px" y="0px"
	 viewBox="0 0 96 96" style="enable-background:new 0 0 96 96;" xml:space="preserve">
<style type="text/css">
	.st0{fill:#FFFFFF;}
</style>
<g>
	<path class="st0" d="M87.7,48.6c-12-8-23.3-15.5-35.3-23.5c0,5.9,0,10.6,0,15.8c-14.4,0-28.5,0-42.5,0c0,5.5,0,10.4,0,15.7
		c14.3,0,28.2,0,42.7,0c0,5.1,0,9.8,0,15.4C64.5,64,75.7,56.5,87.7,48.6z"/>
	<path d="M87.7,48.6c-11.9,8-23.1,15.4-35.1,23.4c0-5.6,0-10.3,0-15.4c-14.5,0-28.4,0-42.7,0c0-5.3,0-10.2,0-15.7
		c14,0,28.1,0,42.5,0c0-5.2,0-9.9,0-15.8C64.4,33.1,75.6,40.6,87.7,48.6z"/>
</g>
</svg>
