<?xml version="1.0" encoding="utf-8"?>
<!-- Generator: Adobe Illustrator 20.0.0, SVG Export Plug-In . SVG Version: 6.00 Build 0)  -->
<svg version="1.1" id="Layer_1" xmlns="http://www.w3.org/2000/svg" xmlns:xlink="http://www.w3.org/1999/xlink" x="0px" y="0px"
	 viewBox="0 0 96 96" style="enable-background:new 0 0 96 96;" xml:space="preserve">
<style type="text/css">
	.st0{fill:#FFFFFF;}
</style>
<g>
	<path class="st0" d="M84.1,76.6c-2.2,0-2.9-0.6-2.8-2.8c0.2-5.8-0.2-11.7,0.1-17.5c0.3-5.5-2.1-11.7,3.3-16.2
		c0.4-0.4,0.3-1.5,0.3-2.2c0.1-0.9,0.1-1.4,1.3-2c3.6-1.8,3.6-7.8,0-9.8C74.3,19.7,62.3,13.5,50.4,7.3c-1.2-0.6-2.4-1.2-3.9-0.4
		C34.1,13.5,21.7,19.8,9.4,26.4c-3.3,1.8-2.8,7.6,0.5,9.5c2.4,1.4,0.3,4.9,2.9,6.1c2.1,1,2,2.8,2,4.6c0,8.8-0.1,17.5,0,26.3
		c0,2.6-0.3,3.8-3.4,3.7c-5.4-0.2-6,0.7-5.9,6.7c0.1,5.1,1,6.1,6.3,6.1c12,0,24,0,36,0h36c5.4,0,6.4-1,6.5-5.9
		C90.5,77.7,89.8,76.7,84.1,76.6z M79.4,39.6h-11c-1.3,0-1.9-0.6-2-1.9c-0.1-1.9,1.1-1.8,2.3-1.8h5.5c1.7,0,3.3,0,5,0
		c1.2,0,2,0.1,2,1.7C81.3,38.9,80.8,39.6,79.4,39.6z M77.6,60.3c0,4-0.1,8,0,12c0.1,2.7,0.1,4.4-3.7,4.4c-3.5,0-3.9-1.3-3.8-4.2
		c0.2-8.6,0.2-17.2,0-25.9c-0.1-3.1,1.2-3.5,3.7-3.4c2.3,0.1,4.1-0.2,3.9,3.2C77.3,51,77.6,55.7,77.6,60.3z M51.7,60.1
		c0,4.6-0.2,9.2,0.1,13.8c0.2,3.1-1.8,2.7-3.5,2.5c-1.7-0.1-4.1,1.1-4-2.5c0.2-9.4,0.2-18.8,0-28.1c-0.1-3.1,1.8-2.7,3.5-2.5
		c1.7,0.1,4.2-1.1,4,2.5C51.6,50.6,51.7,55.4,51.7,60.1z M47.9,39.6c-1.7,0-3.4,0-5.1,0c-1.5,0-2.1-0.6-2.2-2.1c0-1.7,1-1.5,2.1-1.5
		h10.5c1,0,2.2-0.3,2.2,1.5c0,1.5-0.5,2.3-2.1,2.2C51.5,39.6,49.7,39.6,47.9,39.6z M14,32.2c-1,0-2.6,0.9-2.9-1.2
		c-0.2-1.4,0.9-1.8,1.8-2.3c11-5.8,22-11.5,32.9-17.4c1.7-0.9,3.1-0.7,4.7,0.2c10.7,5.7,21.4,11.3,32.1,17c1.2,0.6,2.8,1.1,2.2,2.9
		c-0.5,1.7-2.1,0.8-3.1,0.8c-11.2,0.1-22.4,0-33.6,0C36.7,32.2,25.4,32.2,14,32.2z M14.8,37.2c0-1.4,1-1.2,1.9-1.3
		c1.8,0,3.7,0,5.5,0c1.8,0,3.7,0,5.5,0c0.9,0,1.9-0.1,1.9,1.3c0,1.1,0.1,2.3-1.5,2.3c-3.9,0.1-7.9,0.1-11.9,0
		C14.7,39.5,14.8,38.3,14.8,37.2z M26,73.8c0.1,3.5-2,2.7-3.8,2.7c-2,0-3.9,0.5-3.7-2.8c0.3-4.4,0.1-8.9,0.1-13.4
		c0-4.8,0.2-9.6-0.1-14.3c-0.2-3.5,1.9-2.7,3.8-2.7c2,0,3.8-0.5,3.7,2.8C25.7,55.3,25.7,64.6,26,73.8z M82.9,85.7
		c-23.3,0-46.6,0-70,0c-2.1,0-3.7,0.3-3.7-2.9c0-3.4,2.1-2.7,3.9-2.7h70c2,0,3.8-0.4,3.8,2.9C86.8,86.5,84.7,85.7,82.9,85.7z"/>
	<path class="st0" d="M40.7,59.7c0,4.6-0.1,9.2,0.1,13.8c0.1,2.4-0.6,3-3,3.1c-8.1,0.1-8.1,0.2-8.1-7.6c0-4.8,0.5-9.6-0.1-14.2
		c-0.9-6.6,1.6-12.2,3.8-17.9c0.4-1,1.1-0.8,1.8-0.9c0.9,0,2-0.1,1.8,1.3c-0.2,2.6,0.9,4.4,3,5.7c1.2,0.8,0.7,2.3,0.7,3.4
		C40.7,50.8,40.7,55.3,40.7,59.7z"/>
	<path class="st0" d="M66.5,59.7c0,4.6-0.1,9.2,0.1,13.8c0.1,2.4-0.6,3-3,3.1c-8.1,0.1-8.1,0.2-8.1-7.6c0-4.8,0.5-9.6-0.1-14.2
		c-0.9-6.6,1.6-12.2,3.8-17.9c0.4-1,1.1-0.8,1.8-0.9c0.9,0,2-0.1,1.8,1.3c-0.2,2.6,0.9,4.4,3,5.7c1.2,0.8,0.7,2.3,0.7,3.4
		C66.6,50.8,66.5,55.3,66.5,59.7z"/>
</g>
</svg>
