<?xml version="1.0" encoding="utf-8"?>
<!-- Generator: Adobe Illustrator 22.0.1, SVG Export Plug-In . SVG Version: 6.00 Build 0)  -->
<svg version="1.1" xmlns="http://www.w3.org/2000/svg" xmlns:xlink="http://www.w3.org/1999/xlink" x="0px" y="0px"
	 viewBox="0 0 96 96" style="enable-background:new 0 0 96 96;" xml:space="preserve">
<style type="text/css">
	.st0{display:none;}
	.st1{display:inline;}
	.st2{fill:#FFFFFF;}
</style>
<g id="Layer_2" class="st0">
	<path class="st1" d="M71.1,74.6c-2.2,0-2.9-0.6-2.8-2.8c0.2-5.8-0.2-11.7,0.1-17.5c0.3-5.5-2.1-11.7,3.3-16.2
		c0.4-0.4,0.3-1.5,0.3-2.2c0.1-0.9,0.1-1.4,1.3-2c3.6-1.8,3.6-7.8,0-9.8c-12-6.4-24-12.6-35.9-18.8c-1.2-0.6-2.4-1.2-3.9-0.4
		C21.1,11.5,8.7,17.8-3.6,24.4c-3.3,1.8-2.8,7.6,0.5,9.5c2.4,1.4,0.3,4.9,2.9,6.1c2.1,1,2,2.8,2,4.6c0,8.8-0.1,17.5,0,26.3
		c0,2.6-0.3,3.8-3.4,3.7c-5.4-0.2-6,0.7-5.9,6.7c0.1,5.1,1,6.1,6.3,6.1c12,0,24,0,36,0h36c5.4,0,6.4-1,6.5-5.9
		C77.5,75.7,76.8,74.7,71.1,74.6z M66.4,37.6h-11c-1.3,0-1.9-0.6-2-1.9c-0.1-1.9,1.1-1.8,2.3-1.8h5.5c1.7,0,3.3,0,5,0
		c1.2,0,2,0.1,2,1.7C68.3,36.9,67.8,37.6,66.4,37.6z M64.6,58.3c0,4-0.1,8,0,12c0.1,2.7,0.1,4.4-3.7,4.4c-3.5,0-3.9-1.3-3.8-4.2
		c0.2-8.6,0.2-17.2,0-25.9c-0.1-3.1,1.2-3.5,3.7-3.4c2.3,0.1,4.1-0.2,3.9,3.2C64.3,49,64.6,53.7,64.6,58.3z M38.7,58.1
		c0,4.6-0.2,9.2,0.1,13.8c0.2,3.1-1.8,2.7-3.5,2.5c-1.7-0.1-4.1,1.1-4-2.5c0.2-9.4,0.2-18.8,0-28.1c-0.1-3.1,1.8-2.7,3.5-2.5
		c1.7,0.1,4.2-1.1,4,2.5C38.6,48.6,38.7,53.4,38.7,58.1z M34.9,37.6c-1.7,0-3.4,0-5.1,0c-1.5,0-2.1-0.6-2.2-2.1c0-1.7,1-1.5,2.1-1.5
		h10.5c1,0,2.2-0.3,2.2,1.5c0,1.5-0.5,2.3-2.1,2.2C38.5,37.6,36.7,37.6,34.9,37.6z M1,30.2c-1,0-2.6,0.9-2.9-1.2
		c-0.2-1.4,0.9-1.8,1.8-2.3c11-5.8,22-11.5,32.9-17.4c1.7-0.9,3.1-0.7,4.7,0.2c10.7,5.7,21.4,11.3,32.1,17c1.2,0.6,2.8,1.1,2.2,2.9
		c-0.5,1.7-2.1,0.8-3.1,0.8c-11.2,0.1-22.4,0-33.6,0C23.7,30.2,12.4,30.2,1,30.2z M1.8,35.2c0-1.4,1-1.2,1.9-1.3c1.8,0,3.7,0,5.5,0
		s3.7,0,5.5,0c0.9,0,1.9-0.1,1.9,1.3c0,1.1,0.1,2.3-1.5,2.3c-3.9,0.1-7.9,0.1-11.9,0C1.7,37.5,1.8,36.3,1.8,35.2z M13,71.8
		c0.1,3.5-2,2.7-3.8,2.7c-2,0-3.9,0.5-3.7-2.8c0.3-4.4,0.1-8.9,0.1-13.4c0-4.8,0.2-9.6-0.1-14.3c-0.2-3.5,1.9-2.7,3.8-2.7
		c2,0,3.8-0.5,3.7,2.8C12.7,53.3,12.7,62.6,13,71.8z M69.9,83.7c-23.3,0-46.6,0-70,0c-2.1,0-3.7,0.3-3.7-2.9c0-3.4,2.1-2.7,3.9-2.7
		h70c2,0,3.8-0.4,3.8,2.9C73.8,84.5,71.7,83.7,69.9,83.7z"/>
</g>
<g id="Layer_1">
	<g>
		<path class="st2" d="M25.9,42.4c-0.3,9.2-0.3,18.5,0,27.7c0.1,3.5-2,2.7-3.8,2.7c-2,0-3.9,0.5-3.7-2.8c0.3-4.4,0.1-8.9,0.1-13.4
			c0-4.8,0.2-9.6-0.1-14.3c-0.2-3.5,1.9-2.7,3.8-2.7C24.2,39.6,26,39.1,25.9,42.4z"/>
		<path class="st2" d="M28,37.8c-3.9,0.1-7.9,0.1-11.9,0c-1.5,0-1.4-1.2-1.4-2.3c0-1.4,1-1.2,1.9-1.3h11c0.9,0,1.9-0.1,1.9,1.3
			C29.5,36.6,29.6,37.8,28,37.8z"/>
		<path class="st2" d="M44.2,70.2c0.2-9.4,0.2-18.8,0-28.1c-0.1-3.1,1.8-2.7,3.5-2.5c1.7,0.1,4.2-1.1,4,2.5
			c-0.2,4.8-0.1,9.6-0.1,14.3c0,4.6-0.2,9.2,0.1,13.8c0.2,3.1-1.8,2.7-3.5,2.5C46.5,72.6,44.1,73.8,44.2,70.2z"/>
		<path class="st2" d="M53.2,38c-1.8-0.1-3.6-0.1-5.4-0.1h-5.1c-1.5,0-2.1-0.6-2.2-2.1c0-1.7,1-1.5,2.1-1.5h10.5
			c1,0,2.2-0.3,2.2,1.5C55.4,37.3,54.9,38.1,53.2,38z"/>
		<path class="st2" d="M77.6,42.7c-0.4,4.6-0.1,9.3-0.1,13.9c0,4-0.1,8,0,12c0.1,2.7,0.1,4.4-3.7,4.4c-3.5,0-3.9-1.3-3.8-4.2
			c0.2-8.6,0.2-17.2,0-25.9c-0.1-3.1,1.2-3.5,3.7-3.4C76,39.6,77.9,39.3,77.6,42.7z"/>
		<path class="st2" d="M79.4,37.9h-11c-1.3,0-1.9-0.6-2-1.9c-0.1-1.9,1.1-1.8,2.3-1.8h10.5c1.2,0,2,0.1,2,1.7
			C81.2,37.2,80.7,37.9,79.4,37.9z"/>
		<path class="st2" d="M86.9,82.3c-0.1,3.5-2.2,2.7-4,2.7h-70c-2.1,0-3.7,0.3-3.7-2.9c0-3.4,2.1-2.7,3.9-2.7h70
			C85,79.4,86.9,79,86.9,82.3z"/>
		<path class="st2" d="M11,31.3c-0.2-1.4,0.9-1.8,1.8-2.3c11-5.8,22-11.5,32.9-17.4c1.7-0.9,3.1-0.7,4.7,0.2
			c10.7,5.7,21.4,11.3,32.1,17c1.2,0.6,2.8,1.1,2.2,2.9c-0.5,1.7-2.1,0.8-3.1,0.8c-11.2,0.1-22.4,0-33.6,0H13.9
			C12.9,32.5,11.4,33.4,11,31.3z"/>
		<path class="st2" d="M28,77.8c-3.9,0.1-7.9,0.1-11.9,0c-1.5,0-1.4-1.2-1.4-2.3c0-1.4,1-1.2,1.9-1.3h11c0.9,0,1.9-0.1,1.9,1.3
			C29.5,76.6,29.6,77.8,28,77.8z"/>
		<path class="st2" d="M53.2,78c-1.8-0.1-3.6-0.1-5.4-0.1h-5.1c-1.5,0-2.1-0.6-2.2-2.1c0-1.7,1-1.5,2.1-1.5h10.5
			c1,0,2.2-0.3,2.2,1.5C55.4,77.3,54.9,78.1,53.2,78z"/>
		<path class="st2" d="M79.4,77.9h-11c-1.3,0-1.9-0.6-2-1.9c-0.1-1.9,1.1-1.8,2.3-1.8h10.5c1.2,0,2,0.1,2,1.7
			C81.2,77.2,80.7,77.9,79.4,77.9z"/>
	</g>
</g>
</svg>
