<?xml version="1.0" encoding="utf-8"?>
<!-- Generator: Adobe Illustrator 20.0.0, SVG Export Plug-In . SVG Version: 6.00 Build 0)  -->
<svg version="1.1" id="Layer_1" xmlns="http://www.w3.org/2000/svg" xmlns:xlink="http://www.w3.org/1999/xlink" x="0px" y="0px"
	 viewBox="0 0 96 96" style="enable-background:new 0 0 96 96;" xml:space="preserve">
<style type="text/css">
	.st0{fill:#FFFFFF;}
</style>
<path class="st0" d="M37.8,39.2c0,1.3-0.4,2.4-1.6,3c-1.7,0.9-3.2,0.5-4.5-0.8c-2.6-2.5-5.1-5.1-7.7-7.7c-4.9-4.9-9.8-9.8-14.7-14.7
	c-1.7-1.7-3.2-3.6-1-5.8c2.1-2.1,4.1-0.9,5.8,0.8c7.2,7.3,14.5,14.5,21.7,21.7C36.7,36.8,37.8,37.7,37.8,39.2z"/>
<path class="st0" d="M90,15.6c-0.2,1.5-1.2,2.5-2.1,3.5c-7.1,7.1-14.3,14.3-21.4,21.4c-1.8,1.9-3.9,3.3-6.2,1
	c-2.1-2.2-0.6-4.1,1.1-5.8c7.2-7.2,14.5-14.5,21.7-21.7c1.4-1.4,2.8-2.3,4.8-1.5C89.4,13.1,90,14.3,90,15.6z"/>
<path class="st0" d="M82.1,36c-4.7-0.7-8,1.4-10.7,4.8c-0.7,0.9-1.7,1.7-2.5,2.6c-2.7,3-5.9,5-9.9,3c-4.1-2.1-4.8-5.8-3.3-10.2H41.4
	c1.7,4.4,0.9,8-3.2,10.2c-4,2.1-7.2,0.1-9.9-3c-0.8-0.9-1.7-1.7-2.6-2.6c-2.7-3-5.5-5.7-10.3-4.9c-4,0.7-8.4-0.9-12.1,1.7v13.6
	c0.7,1,0.6,2.5,2,2.8c3.4,0.8,3.9,3.5,4.6,6.4c1.5,7.2,3.4,14.3,5.3,21.4c0.7,2.7,1.7,5.2,4.4,6.4h57.9c2.8-1.3,3.7-3.8,4.4-6.4
	c1.7-6.4,3.3-12.8,4.8-19.2c0.9-3.7,0.8-8,5.8-9.2c0.9-0.2,0.7-1.6,1.3-2.3V37.7C90.2,35.1,86.1,36.5,82.1,36z M38.1,77.6
	c0,2.2-1.1,3.8-3.6,3.7c-2.5-0.1-3.3-1.8-3.2-4v-9.9c0-3.3,0-6.6,0-9.9c0-2.1,0.9-3.5,3.1-3.7c2.5-0.2,3.7,1.3,3.7,3.6
	C38.2,64,38.2,70.8,38.1,77.6z M52.1,67.6c0,3.1,0,6.3,0,9.5c0,2.4-1,4.2-3.7,4.1c-2.4-0.1-3.3-1.8-3.3-4c0-6.5,0-12.9,0-19.4
	c0-2.4,1-4.2,3.7-4.1c2.4,0.1,3.3,1.8,3.3,4C52.2,61,52.1,64.3,52.1,67.6z M65.9,77.2c0,2.2-0.7,3.9-3.2,4c-2.7,0.1-3.6-1.7-3.6-4.1
	c0-6.4,0-12.9,0-19.4c0-2.4,0.9-4.2,3.7-4c2.5,0.2,3.2,1.9,3.2,4.1V77.2z"/>
</svg>
