<?xml version="1.0" encoding="utf-8"?>
<!-- Generator: Adobe Illustrator 23.1.1, SVG Export Plug-In . SVG Version: 6.00 Build 0)  -->
<svg version="1.1" id="Layer_1" xmlns="http://www.w3.org/2000/svg" xmlns:xlink="http://www.w3.org/1999/xlink" x="0px" y="0px"
	 viewBox="0 0 96 96" style="enable-background:new 0 0 96 96;" xml:space="preserve">
<style type="text/css">
	.st0{fill:#E5E3F2;}
	.st1{fill:#F1BD1E;}
	.st2{fill:#FCCE5B;}
	.st3{fill:#8F90BD;}
	.st4{fill:#FCD065;}
	.st5{fill:#FEFDF0;}
	.st6{fill:#4E3532;}
	.st7{fill:#4B312D;}
	.st8{fill:#FBF9ED;}
	.st9{fill:#FCFCFD;}
	.st10{fill:#503634;}
	.st11{fill:#5E4642;}
	.st12{fill:#FEF6AC;}
	.st13{fill:#B3A69D;}
	.st14{fill:#9C8D85;}
	.st15{fill:#725B48;}
	.st16{fill:#86736D;}
	.st17{fill:#8C795B;}
	.st18{fill:#7E6B65;}
	.st19{fill:#E7E2D6;}
	.st20{fill:#6D5652;}
	.st21{fill:#998981;}
	.st22{fill:#4C3230;}
	.st23{fill:#F9F0A8;}
	.st24{fill:#F1DE5F;}
	.st25{fill:#F0ECE5;}
	.st26{fill:#87C8D1;}
	.st27{fill:#E87A95;}
</style>
<g>
	<path class="st0" d="M6.7,58.5c-0.2-2.5-0.4-5-0.7-7.6C4,30,19.3,10.5,39.7,6.6c20.1-3.9,38.9,6.6,46.8,23.8
		c6.8,14.7,4.1,34.9-7.9,46.9c-8.5,8.5-18.5,12.9-30.2,13c-10.8,0.1-20.6-3.4-28.7-11c-3.8-3.6-6.8-7.8-9.7-12.1c0-0.3,0-0.7,0.1-1
		c2.4-4.6,2.2-5.1-2.7-7.1C7,59,6.8,58.8,6.7,58.5z"/>
	<path class="st1" d="M85.8,3.4c2.6,0,4.6,2.2,4.6,4.7c-0.1,2.4-2.2,4.4-4.6,4.4c-2.5,0-4.6-2.2-4.5-4.7C81.4,5.3,83.4,3.4,85.8,3.4
		z"/>
	<path class="st2" d="M6.7,58.5c2.5-0.1,4.6,0.4,5.5,3.1c0.9,2.6-0.7,4.1-2.4,5.6c-2.8,0.4-5.4,0-6.3-3.1
		C2.8,61.4,4.2,59.5,6.7,58.5z"/>
	<path class="st3" d="M90.4,16c1.5,0.2,2.3,0.9,2.2,2.2c-0.1,1.4-0.9,2.3-2.3,2.2c-1.2-0.1-2.2-0.8-2.1-2.2
		C88.2,16.8,89.2,16.2,90.4,16z"/>
	<path class="st4" d="M85.8,78c-0.3,1.2-1,2.1-2.5,2c-1.3-0.1-2-0.8-2-2.1c0-1.4,0.9-2.3,2.2-2.3C84.9,75.6,85.8,76.5,85.8,78z"/>
	<path class="st3" d="M17.3,90.8c-0.1-1.8,0.7-2.6,2.1-2.6c1.2,0,2,0.8,2,2.1c0,1.4-0.7,2.3-2.1,2.3C18,92.6,17.4,91.8,17.3,90.8z"
		/>
	<path class="st5" d="M70,50c0,0.7,0,1.3,0,2c0.4,1.2-0.5,1.8-1.2,2.5C63.4,60.1,58,65.7,52.4,71c-1.7,1.6-2,4.2-4.4,5
		c-0.7,0-1.3,0-2,0c-3.9,0-7.8,0.1-11.6,0c-4.7-0.1-7.3-2.4-7.3-7.1c-0.1-14.2-0.1-28.4,0-42.5c0.1-4.9,2.4-6.9,7.4-6.9
		c5.8,0,11.5,0.1,17.3,0c2.7-0.1,3.9,1.1,3.8,3.7c0,1,0,2,0,3c0.2,4.8,2.5,7.1,7.2,7.1c8.5,0,7,0.4,7.1,7.3C70,43.6,70,46.8,70,50z"
		/>
	<path class="st6" d="M70,50c-1.5-3.9-0.6-7.9-0.6-11.8c0.1-3.3-0.8-4.7-4.2-4.1c-0.9,0.2-1.8,0-2.7,0c-5.2-0.1-7.7-2.5-7.8-7.8
		C54.7,20,54.7,20,48.2,20c-4.8,0-9.5,0-14.3,0c-4,0-5.9,2-5.9,6c0,14.3,0,28.6,0,42.9c0,4.1,2,6.1,6.1,6.2c3,0.1,6,0,9,0
		c1,0,2.3-0.4,3,0.8c-5.1,1.3-10.2,1.2-15.3,0.1c-3.2-0.7-4.5-3.6-4.5-6.7c-0.1-14.5-0.1-29,0-43.6c0-4.8,2.8-7.3,7.6-7.4
		c6.8-0.1,13.5,0,20.3,0c1.4,0,2.5,0.4,3.5,1.5c1.6,1.8,3.2,3.9,5.2,5.1c9,5.7,8.7,14.5,8.1,23.4C70.9,49.1,70.8,49.8,70,50z"/>
	<path class="st7" d="M48,76c1.1-3.2,3.6-5.5,5.9-7.8C59.3,62.8,64.7,57.4,70,52c2.2-0.9,4.2-0.8,5.6,1.3c1.4,2.3,0.4,4.2-1.3,5.9
		c-1.5,1.5-2.9,3-4.4,4.5c-3.2,4.9-7.2,8.9-12.1,12.1c-2.5,2.6-5.9,3.6-9.2,4.9c-0.6,0.2-1.2,0.9-1.7,0.2c-0.5-0.6-0.1-1.2,0.1-1.9
		C47.4,78.1,47.7,77,48,76z"/>
	<path class="st8" d="M57.8,75.9c3.8-4.2,7.9-8.3,12.1-12.1c0,0.7,0.1,1.5,0.1,2.2c0,1.1,0,2.2,0,3.3c-0.1,4-2.7,6.5-6.7,6.7
		c-1.1,0-2.2,0-3.3,0C59.2,76,58.5,75.9,57.8,75.9z"/>
	<path class="st9" d="M14.7,49.6c-0.1,1.7-0.9,3-2.7,3c-1.7,0-2.5-1.1-2.6-2.8c-0.1-1.6,0.7-3,2.3-3C13.2,46.9,14.8,47.6,14.7,49.6z
		"/>
	<path class="st10" d="M59.9,76c0.7-1.3,1.9-0.8,2.9-0.8c4.5-0.2,6.3-1.9,6.5-6.5c0-1-0.3-2,0.7-2.7c2.4,4.3,0,9.9-4.7,10.6
		C63.6,76.8,61.6,77.4,59.9,76z"/>
	<path class="st11" d="M51.8,24.8c-3.2,0.8-6.5,0.3-9.7,0.3c-10,0.1-10,0-10,9.9c0,10.6,0.1,21.3-0.1,31.9c0,3,1.1,4,3.9,3.8
		c3-0.1,6,0,9,0c0,0.4,0,0.8,0,1.2c-3.8,0-7.6,0.2-11.3-0.1c-1.8-0.1-2.8-1.8-2.8-3.6c0-13.5,0-27.1,0-40.6c0-2.1,1.2-3.7,3.4-3.7
		c5.9-0.1,11.7,0,17.6,0C51.8,24.3,51.8,24.5,51.8,24.8z"/>
	<path class="st12" d="M54.9,48.6c-1.1,0.1-2.3,0.1-3.4,0.2c-1.4-3-0.6-6.1-0.5-9.1c0-1.3,1.3-1.3,2.3-1.3c2.4,0,4.9-0.1,7.3,0.1
		c1.1,2.8,0.3,5.8,0.5,8.7c0.1,1-0.7,1.1-1.6,1.2C57.9,48.4,56.3,48.1,54.9,48.6z"/>
	<path class="st13" d="M61,52.4c-4.9,0-9.8,0-14.7,0c0-0.2,0-0.4,0-0.7c4.9,0,9.8,0,14.7,0C61,51.9,61,52.1,61,52.4z"/>
	<path class="st14" d="M36.3,56.2c3.6,0,7.2,0,10.7,0c0,0.2,0,0.4,0,0.5c-3.6,0-7.1,0-10.7,0C36.4,56.5,36.3,56.4,36.3,56.2z"/>
	<path class="st15" d="M60.6,38.8c-3,0-6.8-1.3-8.6,0.5c-1.9,1.7-0.4,5.6-0.6,8.5c0,0.3,0,0.7,0.1,1c-0.2,0.2-0.3,0.3-0.5,0.5
		c-1.1-3.7-0.7-7.5-0.2-11.2c3.5,0.4,7.2-0.9,10.6,0.7C61.1,39.1,60.9,39.1,60.6,38.8z"/>
	<path class="st14" d="M58.7,56.6c-2.9,0.8-5.9,0.8-8.8,0C52.9,55.9,55.8,55.9,58.7,56.6z"/>
	<path class="st16" d="M54.2,61.2c-5.9,0-11.8,0-17.8,0c0-0.1,0-0.2,0-0.3c5.9,0,11.8,0,17.8,0C54.2,61,54.2,61.1,54.2,61.2z"/>
	<path class="st13" d="M43.7,52c-2.4,0.9-4.9,0.8-7.4,0C38.8,51.1,41.3,51.1,43.7,52z"/>
	<path class="st17" d="M60.6,38.8c0.3,0,0.5,0,0.8-0.1c0,1.4,0.1,2.8,0.1,4.3c0,6.4,0,6.4-6.6,5.6c1.7-1.4,4.7,0.6,5.4-1.1
		C61.4,44.9,60.7,41.7,60.6,38.8z"/>
	<path class="st18" d="M36.6,42.8c3.5,0,7,0,10.5,0c0,0.1,0,0.2,0,0.4c-3.6,0-7.2,0-10.8,0C36.4,43,36.5,42.9,36.6,42.8z"/>
	<path class="st19" d="M50.7,38c0.1,3.7,0.1,7.5,0.2,11.2C49.3,45.6,49.7,41.8,50.7,38z"/>
	<path class="st20" d="M36.5,38.2c3.5,0,7,0,10.5,0c0,0.1,0,0.2,0,0.3c-3.5,0-7,0-10.5,0C36.5,38.4,36.5,38.3,36.5,38.2z"/>
	<path class="st21" d="M36.5,47.3c3.5,0,7,0,10.4,0c0,0.1,0,0.3,0,0.4c-3.5,0-7,0-10.5,0C36.5,47.6,36.5,47.5,36.5,47.3z"/>
	<path class="st22" d="M65.8,43.8c0.7,2.9,0.6,5.8,0,8.7C65.2,49.5,65.1,46.6,65.8,43.8z"/>
	<path class="st23" d="M67.7,33c-10.4,0.9-12.4-0.7-11.6-11.5C59.8,25.2,63.8,29.2,67.7,33z"/>
	<path class="st24" d="M66.7,57.9c0.8,1.1,1.4,2.1,2.1,3.1c0.9,1.2-0.3,1.6-0.8,2.1c-3.7,3.8-7.6,7.5-11.2,11.3
		c-1.4,1.4-2.1,0.9-3.2-0.2c-0.9-1-1.9-1.6-0.4-3.1c3.9-3.6,7.6-7.5,11.3-11.3C65,59.4,65.5,59,66.7,57.9z"/>
	<path class="st25" d="M50.9,73.7c1.2,1.3,2,2.2,3,3.2c-1.7,0.7-3,1.6-5,1.7C49.6,76.9,50.2,75.5,50.9,73.7z"/>
	<path class="st26" d="M70.5,60.1c-1-0.9-2.4-1.6-2.8-3.2c-0.1-0.3,1.1-1.3,1.3-1.2c1.3,0.8,2.6,1.7,3,3.2
		C72.1,59.4,71.4,60,70.5,60.1z"/>
	<path class="st27" d="M72.2,53.2c1.4,0,2.3,0.7,2.4,2.1c0.1,0.8-0.3,1.9-1,1.7c-1.4-0.4-2.5-1.5-2.9-2.9
		C70.5,53.4,71.6,53.3,72.2,53.2z"/>
</g>
</svg>
