<?xml version="1.0" encoding="utf-8"?>
<!-- Generator: Adobe Illustrator 23.1.1, SVG Export Plug-In . SVG Version: 6.00 Build 0)  -->
<svg version="1.1" id="Layer_1" xmlns="http://www.w3.org/2000/svg" xmlns:xlink="http://www.w3.org/1999/xlink" x="0px" y="0px"
	 viewBox="0 0 96 96" style="enable-background:new 0 0 96 96;" xml:space="preserve">
<style type="text/css">
	.st0{fill:#22222C;}
	.st1{fill:#31333A;}
	.st2{fill:#2D2E36;}
	.st3{fill:#FEFDF0;}
	.st4{fill:#F05C6D;}
	.st5{fill:#F9F8EC;}
	.st6{fill:#F7F5EA;}
	.st7{fill:#CCC9BB;}
	.st8{fill:#CBC9BB;}
	.st9{fill:#545E9E;}
	.st10{fill:#3B3C42;}
	.st11{fill:#3A3B42;}
	.st12{fill:#3B3D42;}
	.st13{fill:#3C3D43;}
	.st14{fill:#393A41;}
	.st15{fill:#3E3F44;}
	.st16{fill:#414248;}
	.st17{fill:#34353C;}
	.st18{fill:#47484D;}
	.st19{fill:#38393F;}
	.st20{fill:#414247;}
	.st21{fill:#22242E;}
	.st22{fill:#4C4D52;}
	.st23{fill:#525256;}
	.st24{fill:#48494E;}
	.st25{fill:#494A4F;}
	.st26{fill:#48484D;}
	.st27{fill:#393B41;}
</style>
<g>
	<path class="st0" d="M72.7,14.8c1.3-0.1,2.5,0,3.8-0.2c3.2-0.6,5.4,0.5,6.6,3.6c0.5,1.3,1.5,1.6,3,1.7c4,0.3,5.7,2.2,5.7,6.3
		c0,15.3,0,30.5,0,45.8c0,4.4-1.9,6.2-6.4,6.2c-9.4,0-18.8,0-28.2,0c-1.4,0-2.5,0.2-3.6,1.3c-2.8,2.7-8,2.8-10.9,0.1
		c-1.2-1.2-2.4-1.4-3.9-1.4c-9.2,0-18.4,0-27.6,0c-5,0-6.9-1.8-6.9-6.7c0-15,0-29.9,0-44.9c0-4.4,1.7-6.4,6.1-6.7
		c1.3-0.1,2.2-0.4,2.7-1.6c1.2-3.3,3.6-4.2,6.9-3.6c1,0.2,2.1,0.1,3.1,0.2c-0.7,2-2.5,1.1-3.8,1.5c-1.8,0.2-2.1,1.5-2.1,2.9
		c0,14.1,0,28.2,0,42.3c0,3.1,2,3.1,4.2,3.1c9.2,0.1,18.1,1.6,26.4,5.7c0.8,0.4,1.5,0.7,2.4,0.7c10.3-0.1,20.6,0,31-0.1
		c0.3,0,0.6-0.1,1-0.5c-1-2.5-3-3.5-5.6-3.2c-5.9,0.6-11.8,0.9-17.6,2.4c-1.3,0.3-3.1,1.3-3.8-1.1c0.8-1.3,2.2-1.5,3.5-1.8
		c5.5-1.4,11.1-2.1,16.7-2.1c3.6,0,4-0.4,4-4c0-13.5,0-26.9,0-40.4c0-1.6,0.2-3.5-2.1-3.9C75.6,15.8,73.6,17,72.7,14.8z"/>
	<path class="st1" d="M72.7,14.8c1.4,1,3.1,0.1,4.6,0.6c-1,1.9-2.9,1.4-4.4,1.4c-6.6,0.4-13.1,1.4-19.4,3.6
		c-2.6,0.9-3.8,2.5-3.7,5.4c0.1,8.8,0.1,17.6,0,26.4c0,2.2,1,6.3-1.4,6.2c-2.9-0.1-1.5-4.1-1.6-6.4c-0.2-8.4-0.1-16.7-0.1-25.1
		c0-4.8-0.2-5.1-4.8-6.7c-3.4-1.2-6.9-1.9-10.4-2.5c-1.1-0.2-2.3-0.2-3.2-1c-0.4-1.8,1.3-0.6,1.8-1.2c5.8,0.7,11.5,1.9,16.7,4.6
		c1.2,0.6,2,0.4,3.1-0.1C57,16.5,64.7,15.3,72.7,14.8z"/>
	<path class="st2" d="M29.9,15.5c-0.5,0.6-1.3,0.5-2,0.6c-3,1.1-6,1.9-8.8-0.6c1.3-0.4,2.7,0.3,3.9-0.6
		C25.3,14.6,27.6,15.3,29.9,15.5z"/>
	<path class="st3" d="M19,15.4c2.9,0.6,5.9,0.5,8.8,0.6c5.3,1.1,10.6,1.8,15.7,3.8c2.8,1.1,4.1,2.5,4,5.9
		c-0.3,9.9-0.1,19.9-0.1,29.8c0,1,0,2,0,3.3c1.8-0.9,1.2-2.2,1.2-3.1c0-10.3,0.1-20.7,0-31c0-2.4,0.8-3.5,2.9-4.4
		c6.4-2.6,13-3.7,19.8-4.3c2-0.2,3.9-0.4,5.9-0.5c2.1-0.1,2.8,0.6,2.8,2.9c-0.1,14.8-0.1,29.5,0,44.3c0,2.2-0.6,2.8-2.8,2.9
		c-7.5,0-15,0.8-22.2,3.3c-2.2,1.8-4.5,3-7.5,2.5c-8.9-4.4-18.5-5.7-28.2-5.7c-2.6,0-3.3-0.7-3.3-3.3c0.1-14.5,0.1-29,0-43.5
		C16.1,16.3,16.6,15.1,19,15.4z"/>
	<path class="st4" d="M9.7,22.2c0,16.2,0,32.3,0,48.3c0,2,0.7,2.5,2.5,2.4c9-0.1,18,0,27-0.1c1.7,0,3.1,0.3,4.5,1.6
		c2.4,2.3,6.4,2.3,8.8-0.1c1.3-1.3,2.6-1.5,4.2-1.5c8.8,0,17.6-0.1,26.4,0.1c2.5,0,3.4-0.5,3.4-3.2c-0.2-15.5-0.1-31-0.3-46.4
		c0-1.3,0.5-1.2,1.1-1c1.6,0.5,2.3,1.7,2.3,3.3c0,15.6,0,31.2,0,46.8c0,3.1-2.1,3.7-4.7,3.7c-9.6,0-19.3,0-28.9,0
		c-1.5,0-2.7,0.2-3.8,1.5c-2.1,2.4-6.3,2.4-8.4,0c-1.2-1.3-2.3-1.5-3.8-1.5c-9.4,0-18.8,0-28.3,0c-4.3,0-5.2-0.8-5.2-5
		c0-14.9,0-29.7,0-44.6C6.5,24.2,7,22.4,9.7,22.2z"/>
	<path class="st5" d="M80.9,17.2c3,3.7,4.6,7,4.5,11.3c-0.3,12.7-0.1,25.5-0.1,38.3c0,1,0,2,0,3.4c-3.1-2.6-4.5-5.2-4.5-9
		C81.1,46.8,80.9,32.4,80.9,17.2z"/>
	<path class="st6" d="M10.7,70.4c0-15.4,0-30.3,0-45.1c0-3,2.6-4.8,4.2-7.2c0,1.1,0.1,2.2,0.1,3.2c0,13.4-0.1,26.8,0.1,40.2
		C15.2,65.3,13.8,67.8,10.7,70.4z"/>
	<path class="st7" d="M47.5,71.2c2.7-0.1,4.8-2.2,7.5-2.5c0.3,1.1,1.2,0.7,1.8,0.5c5.8-1.7,11.9-2,17.9-2.8c4.7-0.7,7.5,1.1,9.6,5.4
		c-1.8,0-3.4,0-5,0c-9.5,0-19,0-28.5,0C49.7,71.8,48.5,72.2,47.5,71.2z"/>
	<path class="st8" d="M44.8,71.7c-10.9,0-21.8,0-32.8,0c2.5-5,3.7-5.6,8.9-5.3C28,67,35,67.7,41.8,70c1.1,0.4,2.1,0.8,3.1,1.2
		C44.9,71.4,44.9,71.6,44.8,71.7z"/>
	<path class="st9" d="M51.7,73.3c-2.8,2.4-4.3,2.4-7.5,0C46.9,73.3,49.3,73.3,51.7,73.3z"/>
	<path class="st10" d="M42.9,63.5c-6.9-2-14-3.2-21.5-3.8C24.6,58.1,38.6,60.5,42.9,63.5z"/>
	<path class="st11" d="M53.2,40.7c6.7-3.3,13.8-4.1,21.2-4.2C67.3,37.9,60.1,38.6,53.2,40.7z"/>
	<path class="st12" d="M53.2,63.3c6.7-3.1,13.8-4.2,21.2-4C67.2,60.4,60.1,61.4,53.2,63.3z"/>
	<path class="st11" d="M43,33.2c-6.9-2-14.1-3-21.2-4.1C29.2,28.9,36.3,29.9,43,33.2z"/>
	<path class="st13" d="M21.8,44.3c7.3-0.2,14.5,0.8,21.2,4C36.1,46.5,29,45,21.8,44.3z"/>
	<path class="st14" d="M53.1,55.8c6.7-3.2,13.8-4.3,21.2-4C67.2,52.8,60.1,53.9,53.1,55.8z"/>
	<path class="st15" d="M67.6,22.8c-4.9,0.5-9.7,1.8-14.4,3.1C56.1,23.1,65.5,21.2,67.6,22.8z"/>
	<path class="st16" d="M21.9,51.2c4.6,0.3,9.1,0.7,13.6,1.9c0,0.3-0.1,0.5-0.1,0.8c-4.5-0.6-9-1.1-13.6-1.7
		C21.8,51.8,21.9,51.5,21.9,51.2z"/>
	<path class="st17" d="M60.8,45.5c4.4-1.2,9-1.6,13.5-1.9c0,0.3,0.1,0.6,0.1,0.8c-4.5,0.6-9,1.2-13.6,1.8
		C60.8,46.1,60.8,45.8,60.8,45.5z"/>
	<path class="st18" d="M42.9,41.1C39,40,35.2,39,31.3,38c4.3-0.5,8.1,0.9,11.9,2.2C43.1,40.4,43,40.8,42.9,41.1z"/>
	<path class="st19" d="M33,23.2c-3.7-0.4-7.5-0.8-11.2-1.2c0-0.3,0-0.5,0.1-0.8C25.6,21.7,29.5,21,33,23.2z"/>
	<path class="st20" d="M60.3,31.4c-2.3,0.7-4.6,1.4-7,2.1c1.8-2.3,4.3-2.4,6.7-3C60.1,30.8,60.2,31.1,60.3,31.4z"/>
	<path class="st21" d="M21.9,36.7c2-0.8,4-0.1,5.9,0.3C25.8,37.6,23.8,37.4,21.9,36.7z"/>
	<path class="st22" d="M75.3,21.3c-2.3,1.4-3.9,1-6.2,0.5C71.3,20.8,72.8,20.9,75.3,21.3z"/>
	<path class="st23" d="M43,56c-1.5-0.1-2.8-0.3-4.1-1.3C41.1,54.2,41.1,54.2,43,56z"/>
	<path class="st24" d="M74.4,28.9c-1.3,1.2-2.7,1-4.3,0.7C71.4,27.9,73,28.8,74.4,28.9z"/>
	<path class="st25" d="M40.5,24.5c-2.4,0.5-3.6-0.3-4.8-1C37.3,22.8,38.6,23.4,40.5,24.5z"/>
	<path class="st26" d="M64,30.2c1.2-0.8,2.5-1.2,4.2-0.8C66.8,30.9,65.4,30.5,64,30.2z"/>
	<path class="st27" d="M57.2,46.9c-1.2,1.4-2.6,1.6-4.6,1.7C54.2,47.1,55.4,46.5,57.2,46.9z"/>
</g>
</svg>
