<?xml version="1.0" encoding="utf-8"?>
<!-- Generator: Adobe Illustrator 23.1.1, SVG Export Plug-In . SVG Version: 6.00 Build 0)  -->
<svg version="1.1" id="Layer_1" xmlns="http://www.w3.org/2000/svg" xmlns:xlink="http://www.w3.org/1999/xlink" x="0px" y="0px"
	 viewBox="0 0 96 96" style="enable-background:new 0 0 96 96;" xml:space="preserve">
<style type="text/css">
	.st0{fill:#E6E3F1;}
	.st1{fill:#F1BD1E;}
	.st2{fill:#FCCE5A;}
	.st3{fill:#F04D5E;}
	.st4{fill:#FCD065;}
	.st5{fill:#F04B5D;}
	.st6{fill:#F04C5E;}
	.st7{fill:#79CDD4;}
	.st8{fill:#4C332F;}
	.st9{fill:#503B38;}
	.st10{fill:#604843;}
	.st11{fill:#543932;}
	.st12{fill:#543831;}
	.st13{fill:#FFFEFC;}
	.st14{fill:#F4C53E;}
	.st15{fill:#FFFDF4;}
	.st16{fill:#DF9A6D;}
	.st17{fill:#E29C6E;}
</style>
<g>
	<path class="st0" d="M7,58.5C6.8,53.7,5.6,49,6.2,44.1C8.2,27.2,17,15.3,32.7,9c25.2-10.2,52.2,5.8,56.8,31.9
		c3.8,22.1-10.1,42.8-31.9,48c-17.7,4.3-35.8-3.5-45.6-19.3c-0.6-1-0.8-2.4-2.3-2.6C12.7,61.3,12.7,61.3,7,58.5z"/>
	<path class="st1" d="M90,8.3c0,2.3-2.1,4.4-4.4,4.5c-2.5,0.1-4.6-2.1-4.6-4.6c0-2.4,2-4.4,4.4-4.4C88,3.7,90.1,5.7,90,8.3z"/>
	<path class="st2" d="M7,58.5c2.5-0.1,4.8-0.1,5.6,3.1c0.8,2.9-1.1,4.1-3,5.5c-2.7,0.4-4.9-0.3-5.7-3C3.2,61.4,4.3,59.5,7,58.5z"/>
	<path class="st3" d="M92.3,18.5c-0.2,1.4-1,2.3-2.4,2.1c-1.3-0.1-2.2-1-2-2.4c0.2-1.1,0.9-2,2.2-1.9C91.5,16.3,92.2,17.1,92.3,18.5
		z"/>
	<path class="st4" d="M83.2,75.3c1.3,0.3,2.4,0.9,2.3,2.4c-0.1,1.3-1,2.1-2.4,2.1c-1.3-0.1-2-0.8-2-2.1
		C81.1,76.2,81.9,75.5,83.2,75.3z"/>
	<path class="st5" d="M8.2,24.2c-0.3,1.3-1,2.2-2.5,2.1c-1.3-0.1-2-0.8-2-2.1c0-1.5,0.9-2.2,2.2-2.2C7.4,21.9,8,22.9,8.2,24.2z"/>
	<path class="st6" d="M19.7,92.3c-1.6-0.3-2.3-1.1-2.2-2.5c0.1-1.3,1-2,2.2-2c1.4,0.1,2.2,1,2,2.5C21.6,91.6,20.7,92.1,19.7,92.3z"
		/>
	<path class="st7" d="M56,36.3c0.7,0,1.4,0,2.1,0c3.7,0.3,7.5,0.1,11.2,0.1c4,0.1,4.4,0.5,3.8,4.4c-0.6,3.8-1.5,7.5-2.1,11.3
		c-0.4,2.7-1.6,4.2-4.6,3.3c0.8,0.5,2.3-0.4,2.6,0.8c0.3,1.2-0.7,2-1.7,2.6c-1.1,0.6-2.3,0.7-3.5,0.7c-8.5,0-16.9,0-25.4,0
		c-0.6,0-1.1,0-1.6-0.1c-1.4-0.2-2.6-0.7-2.5-2.4c0.2-1.6,1.5-1.3,2.5-1.4c0.7,0,1.3-0.1,2,0c0.2,0,0.1-0.1-0.2-0.1
		c-5.1,0-5.1,0-5.8-5c-0.5-3.3-1.1-6.5-1.5-9.8c-0.5-3.6,0-4.2,3.8-4.3c4.3-0.1,8.6,0.1,12.9-0.2c0.7,0,1.3,0,2,0
		c1.6,2.3,0.8,4.8,0.6,7.3c-0.1,1.4-1.2,1.7-2.4,1c-1.2-0.7-2.3-1.6-3.5-2.4c-0.9-0.7-1.9-0.6-2.7,0.2c-1,0.9-0.6,1.9,0.1,2.6
		c2.9,3,6,5.7,9.4,8.2c1.1,0.8,2.2,0.7,3.3-0.2c3.1-2.5,5.9-5.2,8.9-7.7c0.8-0.7,1.6-1.7,0.7-2.9c-0.8-1-1.9-0.8-3-0.2
		c-1,0.5-1.8,1.2-2.7,1.8c-0.9,0.6-1.8,1.4-3,0.5C54.8,41.7,54.3,38.9,56,36.3z"/>
	<path class="st8" d="M47.9,36.3c-0.7,1.2-1.8,1-2.9,1c-3.7,0-7.5,0-11.2,0c-1.6,0-2.4,0.1-1.9,2.1c0.9,4.2,1.6,8.4,2,12.7
		c0.2,2.8,1.4,3.6,3.9,3.2c0.8-0.1,1.7,0.1,3,0.1c-1.6,0.8-2.9,0.3-4.2,0.5c-0.8,0.1-1.9-0.3-1.8,1.2c0,1.2,0.5,1.7,1.8,1.7
		c4.8,0,9.7,0,14.5,0c4.3,0,8.6,0,12.9,0c2,0,3.9-0.4,5.1-2.7c-1.7-0.1-3.2-0.2-4.8-0.4c5.3-0.8,5.3-0.8,6.5-6.4
		c0.7-3.1,1-6.3,1.9-9.3c0.7-2.6-0.4-2.7-2.4-2.6c-3.1,0.1-6.2,0-9.2,0c-1.1,0-2.2,0.2-2.9-1C63,34.7,68,35.6,73,35.9
		c1.4,0.1,1.6,1.6,1.4,2.9C73.3,44.4,72.3,50,71,55.6c-0.8,3.2-3.4,4.9-7.3,4.9c-8.6,0-17.2,0.1-25.8,0c-2.7,0-2.9,1-2.2,3.1
		c1,2.9,2.8,4.5,6.1,4.5c7.7-0.1,15.4-0.1,23.1,0c0.9,0,2.3-0.5,2.3,1c0,1.1-1.4,0.7-2.2,0.7c-7.8,0-15.6,0.1-23.5,0
		c-4.1,0-6.7-2.1-7.5-6.5C32.3,52.8,30.7,42.4,29,32c-0.7-4.3-1.6-4.9-5.8-5c-1.8,0-3.6,0.3-5.7-0.5c7.1-3.4,12.5-0.7,13.3,6.5
		c0.2,2.2,1.2,2.7,3.2,2.6c3.6-0.1,7.3,0,10.9,0C45.9,35.5,47,35.4,47.9,36.3z"/>
	<path class="st9" d="M56.6,44.7c1.4-1.2,2.8-2.4,4.3-3.5c1.4-1.1,2.9-1.1,4.1,0.3c1.2,1.5,0.8,2.9-0.5,4.1
		c-3.2,2.8-6.4,5.7-9.7,8.4c-1.2,1-2.6,1.1-3.9,0c-3.2-2.7-6.3-5.4-9.4-8.2c-1.3-1.2-1.6-2.7-0.4-4.1c1.2-1.4,2.7-1.3,4.1-0.2
		c1.4,1,2.8,2.1,4.5,3.3c0.6-3.1,0.3-5.8,0.2-8.6c0-4.9,0.1-9.8,0.1-14.7c0-1.5,0.4-2.9,2-3.4c1.3-0.4,2.6-0.3,3.3,1.2
		c0.3,0.6-0.1,0.8-0.6,1c-2.6-0.5-2.6,1.3-2.6,3c0,6.2,0,12.3,0,18.5c0,1.7,0.7,3.9-1.2,4.8c-1.8,0.9-3.2-1-4.7-1.9
		c-1-0.6-1.8-1.6-3.8-1.4c3.1,3.5,6.2,6.3,9.7,8.6c0.6,0.4,1.4,0.3,1.9-0.1c3-2.8,6.6-5,9.4-8.9c-2.8,0.1-4,2.4-6,2.6
		C56.9,45.6,56.5,45.4,56.6,44.7z"/>
	<path class="st10" d="M54.7,20.2c0.2-0.2,0.4-0.5,0.6-0.7c1.4,2.8,0.4,5.8,0.6,8.6c0.2,2.7,0.1,5.4,0.1,8.2
		c0.2,2.8-0.9,5.7,0.6,8.5c0.2,0.2,0.5,0.4,0.7,0.6c0,1.3-0.7,1.8-1.9,1.7c-0.9-0.1-1.3-0.8-1.5-1.5c-0.3-0.8-0.3-1.7-0.3-2.6
		c0-6.3,0-12.7,0-19C53.6,22.6,53.6,21.2,54.7,20.2z"/>
	<path class="st11" d="M60.3,72.4c2.5,0.1,3.9,1.4,3.9,3.6c0,2.2-1.3,3.7-3.7,3.7c-2.2,0-3.5-1.4-3.6-3.5
		C56.8,73.9,58.1,72.6,60.3,72.4z"/>
	<path class="st12" d="M43.5,72.4c2.3,0.3,3.5,1.6,3.4,3.9c-0.1,2.2-1.4,3.4-3.6,3.4c-2.3,0-3.7-1.5-3.7-3.7
		C39.6,73.7,41,72.4,43.5,72.4z"/>
	<path class="st13" d="M12.6,49.3c1,0,2.2,0.8,2.2,2.5c0.1,1.9-1.1,2.8-2.9,2.8c-1.7,0-2.3-1-2.4-2.5C9.6,50.4,10.1,49.3,12.6,49.3z
		"/>
	<path class="st14" d="M14.9,68.4c-0.7-0.1-1.1-0.6-1-1.3c0.1-0.5,0.5-1,1.1-0.9c0.7,0.1,1.2,0.6,1.1,1.3C16,68,15.6,68.4,14.9,68.4
		z"/>
	<path class="st15" d="M54.7,20.2c0,8,0,16.1,0,24.1c0,0.8-0.5,2,0.6,2.3c0.9,0.3,1.6-0.5,2.1-1.3c1.5-1.1,3-2.2,4.5-3.3
		c0.8-0.6,1.7-0.6,2.3,0.2c0.7,0.8,0.5,1.6-0.3,2.3c-3.2,2.8-6.4,5.7-9.6,8.5c-1,0.9-2,0.7-2.9-0.2c-2.9-2.5-5.8-5-8.7-7.6
		c-0.7-0.7-1.6-1.4-0.8-2.5c0.9-1.2,1.9-0.9,2.9-0.1c1.4,1,2.8,2.1,4.2,3.1c0.6,0.4,1.1,1.3,2,0.8c0.8-0.4,0.4-1.4,0.4-2.1
		c0-7.6,0-15.2,0-22.7C51.4,19,52.2,18.7,54.7,20.2z"/>
	<path class="st16" d="M62.5,75.8c0,1.4-0.7,2.2-1.9,2.2c-1,0.1-1.9-0.6-2-1.7c-0.2-1.3,0.6-2.2,1.7-2.3
		C61.5,73.9,62.3,74.6,62.5,75.8z"/>
	<path class="st17" d="M43.2,73.9c1.3,0.3,2.1,1,2,2.2c-0.1,1.2-1,2-2.2,1.9c-1.1-0.1-1.7-0.8-1.8-2C41.3,74.7,42.2,74.2,43.2,73.9z
		"/>
</g>
</svg>
