<?xml version="1.0" encoding="utf-8"?>
<!-- Generator: Adobe Illustrator 22.0.1, SVG Export Plug-In . SVG Version: 6.00 Build 0)  -->
<svg version="1.1" id="Layer_1" xmlns="http://www.w3.org/2000/svg" xmlns:xlink="http://www.w3.org/1999/xlink" x="0px" y="0px"
	 viewBox="0 0 96 96" style="enable-background:new 0 0 96 96;" xml:space="preserve">
<style type="text/css">
	.st0{fill:#FFFFFF;}
</style>
<g>
	<path class="st0" d="M29.7,53.8c-1.2,2.2-2.6,4.2-4.1,6.7h44.6c0.8,0,1.6,0,2.3,0c2.3,0.2,3.9,1.9,3.9,4c0,2.4-1.6,4.1-4,4.2
		c-1.6,0.1-3.1,0-4.7,0c-13.5,0-26.9,0-40.4,0c-3.8,0-6.8-1.3-8.7-4.6c-1.9-3.3-1.7-6.8,0.8-9.7c4-4.7,4-9.1,1.3-14.6
		c-3.8-7.5-6.7-15.5-9.9-23.3c-0.6-1.5-1.3-2.3-2.9-2c-0.8,0.1-1.7,0.1-2.6,0c-2.3-0.2-4-1.9-4-4c0-2.2,1.8-4.2,4-4.3
		c2.5-0.1,5,0,7.6,0c2.2,0,3.6,1.3,3.9,3.1c1,4.7,3.8,5.4,8.1,5.3c18.1-0.3,36.1-0.1,54.2-0.1c5.2,0,6.9,2.8,4.4,7.4
		c-4.6,8.4-9.3,16.8-13.9,25.2c-1.9,3.4-4.7,5.1-8.7,5c-9.4-0.1-18.8,0-28.2-0.1C31.3,52.1,30.4,52.5,29.7,53.8z"/>
	<path class="st0" d="M26.4,89.7c-4.6,0-8.4-3.7-8.4-8.4c0-4.5,3.8-8.3,8.2-8.3c4.5,0,8.4,3.7,8.5,8.1C34.8,85.8,31,89.7,26.4,89.7z
		"/>
	<path class="st0" d="M68.2,89.7c-4.6,0-8.4-3.7-8.4-8.3c0-4.5,3.8-8.3,8.2-8.3c4.6,0,8.5,3.8,8.5,8.4
		C76.4,85.9,72.6,89.7,68.2,89.7z"/>
</g>
</svg>
