<?xml version="1.0" encoding="utf-8"?>
<!-- Generator: Adobe Illustrator 22.0.1, SVG Export Plug-In . SVG Version: 6.00 Build 0)  -->
<svg version="1.1" id="Layer_1" xmlns="http://www.w3.org/2000/svg" xmlns:xlink="http://www.w3.org/1999/xlink" x="0px" y="0px"
	 viewBox="0 0 96 96" style="enable-background:new 0 0 96 96;" xml:space="preserve">
<path d="M78.5,12.8c0-7-4.7-11.6-11.6-11.6c-12.6,0-25.2,0-37.7,0c-7.2,0-11.7,4.5-11.7,11.6c0,23.4,0,46.8,0,70.1
	c0,7.2,4.5,11.7,11.7,11.7c12.4,0,24.9,0,37.3,0c7.7,0,12.2-4.4,12.2-12.2c0-11.5,0-23,0-34.5C78.6,36.3,78.6,24.6,78.5,12.8z
	 M42.7,6.6c0.2-0.7,1-1.5,1.8-1.6c1.2-0.3,2.4-0.1,3.7-0.1c0,0,0,0,0,0c1.1,0,2.3-0.2,3.4,0.1c0.6,0.2,1.5,1,1.6,1.5
	c0,0.6-0.8,1.7-1.3,1.8c-2.6,0.2-5.2,0.2-7.8,0.1C43.5,8.3,42.6,7.1,42.7,6.6z M48.3,90.2c-2.8,0-4.8-1.8-4.9-4.4
	c0-2.5,2-4.6,4.4-4.6c2.6-0.1,4.8,2,4.8,4.6C52.6,88.2,50.6,90.2,48.3,90.2z M71.3,44.3c0,9.8,0,19.6,0,29.4c0,2.2-0.7,3-2.9,3
	c-13.6-0.1-27.2-0.1-40.8,0c-2.2,0-3-0.8-3-3c0-19.6,0-39.2,0-58.8c0-2.1,0.8-2.9,2.9-2.9c13.7,0,27.3,0,41,0c2,0,2.9,0.7,2.9,2.9
	C71.2,24.7,71.3,34.5,71.3,44.3z"/>
</svg>
