<?xml version="1.0" encoding="utf-8"?>
<!-- Generator: Adobe Illustrator 22.0.1, SVG Export Plug-In . SVG Version: 6.00 Build 0)  -->
<svg version="1.1" id="Layer_1" xmlns="http://www.w3.org/2000/svg" xmlns:xlink="http://www.w3.org/1999/xlink" x="0px" y="0px"
	 viewBox="0 0 96 96" style="enable-background:new 0 0 96 96;" xml:space="preserve">
<style type="text/css">
	.st0{fill:#FFFFFF;}
</style>
<g>
	<path class="st0" d="M70.3,29.5c3.7,0.2,7.2,0.1,10.6,0.5c3.2,0.5,5.9,3.7,5.9,7c0.2,6.7,0.2,13.4,0.2,20.1c0,3.2,0.1,6.5-0.2,9.7
		c-0.3,4-3.5,7.1-7.5,7.4c-2.9,0.2-5.9,0-9,0c0,3.7,0,7.2,0,11c-0.8-0.4-1.2-0.6-1.5-0.8c-4-3-7.9-6-12-8.8
		c-0.9-0.7-2.1-1.1-3.2-1.1c-4.9-0.2-9.8,0-14.7-0.2c-3-0.1-4.2-0.9-6.3-3.7c3.1-2.3,6-4.7,9.2-6.9c0.6-0.4,1.6-0.3,2.4-0.3
		c4.8-0.1,9.9,0.3,14.6-0.4c6.7-0.9,11.1-6.4,11.4-13.2c0.2-5.8,0.1-11.6,0.1-17.4C70.3,31.5,70.3,30.7,70.3,29.5z"/>
	<path class="st0" d="M64.7,22.2c0-5.7-3.1-9.2-8.8-9.2c-12.7-0.2-25.5-0.2-38.1,0c-5.6,0-8.7,3.3-8.8,8.9c-0.1,8.8-0.1,17.6,0,26.4
		c0.1,6,3.4,9.2,9.5,9.3c2.3,0,4.7,0,7.1,0v11.2c4.8-3.7,9.2-6.9,13.5-10c0.9-0.7,2.1-1.1,3.2-1.1c4.5-0.1,9,0,13.6-0.1
		c5.4-0.1,8.7-3.6,8.8-9C64.7,39.7,64.7,30.9,64.7,22.2z M59.2,48.2c0,2.9-0.8,3.7-3.8,3.7c-4.7,0-9.3,0.1-14,0
		c-1.9,0-3.5,0.3-4.9,1.6c-1.5,1.4-3.2,2.5-5.3,4V52c-4.5,0-8.8,0-13.2,0c-2.7,0-3.5-0.8-3.5-3.5c0-8.8,0-17.6,0-26.4
		c0-2.7,0.8-3.6,3.7-3.6c12.4,0,24.8,0,37.2,0c2.8,0,3.7,0.9,3.8,3.8C59.3,30.9,59.3,39.6,59.2,48.2z"/>
</g>
</svg>
