<?xml version="1.0" encoding="utf-8"?>
<!-- Generator: Adobe Illustrator 22.0.1, SVG Export Plug-In . SVG Version: 6.00 Build 0)  -->
<svg version="1.1" id="Layer_1" xmlns="http://www.w3.org/2000/svg" xmlns:xlink="http://www.w3.org/1999/xlink" x="0px" y="0px"
	 viewBox="0 0 96 96" style="enable-background:new 0 0 96 96;" xml:space="preserve">
<g>
	<path d="M74.3,25c4.4,0.2,8.5,0.1,12.5,0.6c3.8,0.6,6.9,4.3,7,8.3C94,41.8,94,49.7,94,57.6c0,3.8,0.1,7.6-0.2,11.4
		c-0.3,4.7-4.1,8.4-8.8,8.7c-3.4,0.2-6.9,0-10.6,0c0,4.4,0,8.5,0,12.9c-0.9-0.5-1.4-0.7-1.8-1c-4.7-3.5-9.3-7.1-14.1-10.4
		c-1.1-0.8-2.5-1.3-3.8-1.3c-5.8-0.2-11.5,0-17.3-0.2c-3.5-0.1-5-1.1-7.4-4.4c3.6-2.7,7.1-5.5,10.8-8.1c0.7-0.5,1.9-0.4,2.8-0.4
		c5.7-0.1,11.6,0.3,17.2-0.5c7.9-1.1,13.1-7.5,13.4-15.5c0.2-6.8,0.1-13.6,0.1-20.5C74.3,27.4,74.3,26.4,74.3,25z"/>
	<path d="M67.7,16.4c0-6.7-3.7-10.8-10.4-10.8c-15-0.2-30-0.2-44.9,0C5.8,5.6,2.1,9.5,2,16.1C1.9,26.5,1.9,36.8,2,47.2
		C2.1,54.3,6,58,13.2,58.1c2.7,0,5.5,0,8.4,0v13.2c5.7-4.3,10.8-8.1,15.9-11.8c1.1-0.8,2.5-1.3,3.8-1.3c5.3-0.1,10.6,0,16-0.1
		c6.4-0.1,10.3-4.2,10.4-10.6C67.7,37.1,67.7,26.7,67.7,16.4z M61.2,47.1c0,3.4-1,4.3-4.5,4.4c-5.5,0-11,0.1-16.5,0
		c-2.2,0-4.1,0.4-5.8,1.9c-1.8,1.6-3.8,2.9-6.2,4.7v-6.6c-5.3,0-10.4,0-15.6,0c-3.2,0-4.1-0.9-4.1-4.1c0-10.4,0-20.7,0-31.1
		c0-3.2,1-4.2,4.3-4.2c14.6,0,29.2,0,43.8,0c3.3,0,4.4,1.1,4.5,4.5C61.3,26.7,61.3,36.9,61.2,47.1z"/>
</g>
</svg>
