<?xml version="1.0" encoding="utf-8"?>
<!-- Generator: Adobe Illustrator 22.0.1, SVG Export Plug-In . SVG Version: 6.00 Build 0)  -->
<svg version="1.1" id="Layer_1" xmlns="http://www.w3.org/2000/svg" xmlns:xlink="http://www.w3.org/1999/xlink" x="0px" y="0px"
	 viewBox="0 0 96 96" style="enable-background:new 0 0 96 96;" xml:space="preserve">
<style type="text/css">
	.st0{fill:#5DB436;}
	.st1{fill:#5FB538;}
</style>
<g>
	<path class="st0" d="M48.8,89.6c-8.4,0-16.9,0.1-25.3,0C13,89.4,8.5,85.2,8.4,75c-0.2-17.2-0.2-34.5,0-51.7
		C8.5,12.9,12.9,8.6,23.3,8.4c9.1-0.2,18.2-0.1,27.4,0c2.7,0,6.3-1.2,6.5,3.8c0.2,5-3.2,4.2-6.1,4.2c-8.4,0.1-16.9,0.3-25.3-0.1
		c-6.2-0.2-9.4,1.4-9.2,8.4c0.3,16.2,0.2,32.4,0,48.7c-0.1,5.5,1.8,8.1,7.6,8c16.6-0.2,33.1-0.2,49.7,0c5.6,0.1,8-2,7.9-7.7
		c-0.2-7.4-0.2-14.9,0-22.3c0.1-2.7-1.3-6.4,3.7-6.6c4.9-0.2,4.3,3.1,4.3,6c0,8.4,0.2,16.9,0,25.3c-0.2,8.5-4.8,13.1-13.3,13.2
		C67.1,89.7,58,89.6,48.8,89.6z"/>
	<path class="st1" d="M47.1,67.9C45,66.4,31.9,53.7,27.1,49l7-4.5c4.4,3.1,10.7,9.3,10.7,9.3s26.7-25.5,33.5-32.4
		c0,0,4.6,3.1,5.4,4.2C73.7,37.5,59.9,50.5,47.1,67.9z"/>
</g>
</svg>
