<?xml version="1.0" encoding="utf-8"?>
<!-- Generator: Adobe Illustrator 22.0.1, SVG Export Plug-In . SVG Version: 6.00 Build 0)  -->
<svg version="1.1" id="Layer_1" xmlns="http://www.w3.org/2000/svg" xmlns:xlink="http://www.w3.org/1999/xlink" x="0px" y="0px"
	 viewBox="0 0 96 96" style="enable-background:new 0 0 96 96;" xml:space="preserve">
<style type="text/css">
	.st0{fill:#020202;}
	.st1{fill:#FEFEFE;}
	.st2{fill:#0B0B0B;}
	.st3{fill:#090909;}
</style>
<path class="st0" d="M37.6,63.8c0.5,0.6,1.5,1.5,0.6,2.5c-0.5,0.6-1.3,0.8-2,1.2c-0.4-0.2-0.8-0.2-0.9-0.4c-1.8-3-4.7-5.9-5.1-9.1
	c-0.4-3.5,3.2-6.3,4.9-9.5c0.6-1.2,1.7-0.3,2.5,0.1c0.8,0.4,1.2,1,0.5,1.9c-0.3,0.4-0.4,0.9-0.7,1.3C33.5,55.9,34.2,59.8,37.6,63.8z
	"/>
<path class="st0" d="M53.5,44.7c-2.2,8.7-4.3,17.4-6.5,26.1c-0.4,1.6-1.4,1.9-2.8,1.7c-2.2-0.3-0.8-1.8-0.6-2.5
	c1.9-8.2,4-16.5,6-24.7c0.3-1.2,0.4-2.7,2.3-2.5C53.3,42.7,53.9,43.1,53.5,44.7z"/>
<path class="st0" d="M62.9,50.3c4.9,7.5,4.8,9-0.7,15.8c-0.5,0.6-0.7,1.5-1.8,1.2c-0.7-0.8-2.8-0.5-1.7-2.6c0.3-0.6,0.6-1.2,1-1.6
	c3.1-3.6,3.4-7.1,0.2-10.9c-0.8-0.9-2.8-2.3-0.4-3.8C61.8,47,62.1,49.2,62.9,50.3z"/>
<path class="st0" d="M81.9,32.6c0-2.5-0.8-4.2-2.5-5.9c-6.1-5.9-12.1-11.9-18-18.1c-1.9-2-3.8-2.9-6.7-2.8C43,5.9,31.2,6,19.5,5.8
	c-3.5-0.1-4.7,0.7-4.6,4.4C15.2,22.9,15,35.6,15,48.2c0,13,0.1,26-0.1,39c0,3,0.8,3.8,3.8,3.8c19.7-0.1,39.5-0.2,59.2,0
	c3.3,0,4-1,3.9-4.1C81.8,68.8,81.8,50.7,81.9,32.6z M59.5,13.3c5,5,9.8,9.8,14.9,14.8c-4.2,0-8.2,0-12.2,0c-1.6,0-2.8-0.2-2.7-2.2
	C59.6,21.7,59.5,17.4,59.5,13.3z M78.2,83.5c0,3.1-0.9,3.8-3.8,3.7c-17.4-0.1-34.7-0.1-52.1,0c-3.1,0-3.7-1-3.7-3.8
	c0.2-11.7,0.1-23.5,0.1-35.2c0-11.4,0.1-22.8-0.1-34.3c0-3.2,0.5-4.5,4.1-4.4c9.8,0.3,19.6,0.2,29.4,0c2.9,0,4,0.7,3.8,3.7
	c-0.3,4.7,0.2,9.3-0.1,14c-0.2,3.5,0.6,4.9,4.4,4.6c4.8-0.4,9.7,0,14.5-0.2c2.8-0.1,3.5,0.9,3.5,3.6C78.1,51.4,78.1,67.5,78.2,83.5z
	"/>
<path class="st1" d="M37.6,63.8c0.5,0.6,1.5,1.5,0.6,2.5c-0.5,0.6-1.3,0.8-2,1.2c-0.4-0.2-0.8-0.2-0.9-0.4c-1.8-3-4.7-5.9-5.1-9.1
	c-0.4-3.5,3.2-6.3,4.9-9.5c0.6-1.2,1.7-0.3,2.5,0.1c0.8,0.4,1.2,1,0.5,1.9c-0.3,0.4-0.4,0.9-0.7,1.3C33.5,55.9,34.2,59.8,37.6,63.8z
	"/>
<path class="st1" d="M53.5,44.7c-2.2,8.7-4.3,17.4-6.5,26.1c-0.4,1.6-1.4,1.9-2.8,1.7c-2.2-0.3-0.8-1.8-0.6-2.5
	c1.9-8.2,4-16.5,6-24.7c0.3-1.2,0.4-2.7,2.3-2.5C53.3,42.7,53.9,43.1,53.5,44.7z"/>
<path class="st1" d="M62.2,66.2c-0.5,0.6-0.7,1.5-1.8,1.2c-0.7-0.8-2.8-0.5-1.7-2.6c0.3-0.6,0.6-1.2,1-1.6c3.1-3.6,3.4-7.1,0.2-10.9
	c-0.8-0.9-2.8-2.3-0.4-3.8c2.3-1.5,2.7,0.7,3.4,1.9C67.7,57.8,67.7,59.4,62.2,66.2z"/>
<path class="st2" d="M53.5,44.7c-2.2,8.7-4.3,17.4-6.5,26.1c-0.4,1.6-1.4,1.9-2.8,1.7c-2.2-0.3-0.8-1.8-0.6-2.5
	c1.9-8.2,4-16.5,6-24.7c0.3-1.2,0.4-2.7,2.3-2.5C53.3,42.7,53.9,43.1,53.5,44.7z"/>
<path class="st3" d="M38.2,66.3c-0.5,0.6-1.3,0.8-2,1.2c-0.4-0.2-0.8-0.2-0.9-0.4c-1.8-3-4.7-5.9-5.1-9.1c-0.4-3.5,3.2-6.3,4.9-9.5
	c0.6-1.2,1.7-0.3,2.5,0.1c0.8,0.4,1.2,1,0.5,1.9c-0.3,0.4-0.4,0.9-0.7,1.3c-3.9,4.1-3.2,8,0.1,12.1C38.1,64.4,39.1,65.3,38.2,66.3z"
	/>
<path class="st3" d="M62.2,66.2c-0.5,0.6-0.7,1.5-1.8,1.2c-0.7-0.8-2.8-0.5-1.7-2.6c0.3-0.6,0.6-1.2,1-1.6c3.1-3.6,3.4-7.1,0.2-10.9
	c-0.8-0.9-2.8-2.3-0.4-3.8c2.3-1.5,2.7,0.7,3.4,1.9C67.7,57.8,67.7,59.4,62.2,66.2z"/>
</svg>
