<?xml version="1.0" encoding="utf-8"?>
<!-- Generator: Adobe Illustrator 23.1.1, SVG Export Plug-In . SVG Version: 6.00 Build 0)  -->
<svg version="1.1" id="Layer_1" xmlns="http://www.w3.org/2000/svg" xmlns:xlink="http://www.w3.org/1999/xlink" x="0px" y="0px"
	 viewBox="0 0 96 96" style="enable-background:new 0 0 96 96;" xml:space="preserve">
<style type="text/css">
	.st0{fill:#20222C;}
	.st1{fill:#1AADE4;}
	.st2{fill:#3589C9;}
	.st3{fill:#43A6DC;}
	.st4{fill:#34C5F2;}
	.st5{fill:#3071B8;}
	.st6{fill:#1BACE2;}
	.st7{fill:#1F2F3F;}
	.st8{fill:#1D3242;}
	.st9{fill:#1F3141;}
	.st10{fill:#213243;}
	.st11{fill:#1F3645;}
</style>
<g>
	<path class="st0" d="M47.1,11.3c9.9,0,19.9,0.1,29.8,0c2.1,0,3.5,0.4,4.6,2.4c3.8,7.3,7.7,14.6,11.7,21.8c1.1,1.9,0.9,3-0.6,4.5
		C77.7,54.5,63,69,48.3,83.6c-1.5,1.4-2.3,1.7-3.8,0c-13.7-15-27.4-29.9-41.2-44.7c-1.3-1.4-1.4-2.5-0.5-4.2
		c3.6-6.8,7.1-13.7,10.4-20.7c0.9-1.9,2-2.5,4.1-2.5c9.9,0.1,19.9,0,29.8,0C47.1,11.5,47.1,11.4,47.1,11.3z"/>
	<path class="st1" d="M77.4,16.5c0.8-0.8,1.4-1.7,2.3,0c3.1,6,6.6,11.9,9.5,17.9c1.9,3.9-2.7,1-3.1,2.9c0.7,1.5,2.3-0.2,2.6,0.1
		C75.8,51.1,62.9,64.8,49.9,78.5c-0.2-0.2-0.4-0.3-0.6-0.5c0.5-1.6,0.9-3.3,1.4-4.9c1.2-7.8,4.9-14.7,7.5-21.9
		c1.2-3.2,1.6-6.9,4.4-9.4c0.7-3.4,2.8-4.4,6.1-4.1c2.9,0.3,5.9,0.1,8.9,0.1c0-0.3,0-0.7,0-1c-3.3,0-6.6,0-10,0
		c-1.7,0-2.8-0.2-1.6-2.2C68.8,27.9,72.6,21.8,77.4,16.5z"/>
	<path class="st2" d="M49.9,72.1c-1.1,2.7-2.2,5.4-3.6,8.8c-2.1-5.6-3.9-10.5-5.7-15.4c-1-0.5-1.6-1.5-1.9-2.5
		c-1.6-5.8-4.7-11.2-5.2-17.4c0-0.3,0-0.5-0.1-0.8c-2-7.1-2-7.1,5.6-7.1c6.8,0,13.6,0.1,20.4-0.1c2.8-0.1,3.3,0.7,2.4,3.1
		c-2.2,8.5-5.9,16.5-9,24.8C52.1,67.8,52,70.4,49.9,72.1z"/>
	<path class="st1" d="M39.8,66.6c0.3,3.4,2.9,6.3,2.4,10.3c-12-13-23.7-25.7-36-39.1c7.8,0,14.9,0,22,0c1.4,0,1.7,1,2.1,2.1
		c0.8,2.3,1.7,4.6,2.5,6.9C36.2,52.9,38,59.8,39.8,66.6z"/>
	<path class="st3" d="M61.1,34.6c0.7,1.4,0.8,2.2-1.2,2.1c-9.2-0.1-18.4,0-28.5,0c5.2-7.2,10-13.7,14.7-20.3c1-1.4,1.7-0.9,2.4,0.2
		c0.9,1.3,1.9,2.6,2.9,3.9C55.9,24.4,58.7,29.4,61.1,34.6z"/>
	<path class="st4" d="M17.8,16.2c-0.6-1.8,0.1-2.2,1.8-2.1c8.5,0.1,17,0,25.9,0c-1,3.1-3.3,5.2-5,7.7c-2.4,3.5-4.9,6.8-7.4,10.2
		c-2.9,4-2.9,4-5.6,0.1c-2.7-1.7-3.5-4.8-5.2-7.1c-1-1.3-1.6-2.8-2.9-3.9C18.7,19.5,17.1,18.2,17.8,16.2z"/>
	<path class="st5" d="M52.2,19.7c-1-1.7-2.1-3.4-3.5-5.7c9.5,0,18.3,0,27.2,0c1.4,0,1,0.9,0.8,1.7c-3.1,6.4-6.8,12.5-11.3,18.1
		c-1.2,2-2.4,2-3.6,0C57.9,29.6,54.9,24.8,52.2,19.7z"/>
	<path class="st6" d="M17.8,16.2c0.9,1.5,1.7,3,2.6,4.4c1.7,4.3,5.1,7.8,6.5,12.3c0.5,1.1,1,2.1,1.8,3.8c-7.4,0-14.3,0-21.3,0
		c-1.9,0-1.9-0.9-1.2-2.3c2.9-5.8,5.9-11.5,8.7-17.4C15.6,15.2,16.7,16,17.8,16.2z"/>
	<path class="st7" d="M49.9,72.1c3.8-10.5,7.5-21,12-31.3c0.3,0.3,0.5,0.7,0.8,1c-3.8,10.5-7.5,21.1-12,31.3
		C50.4,72.8,50.2,72.4,49.9,72.1z"/>
	<path class="st8" d="M65.4,33.7c3.6-6.1,7.1-12.3,11.3-18.1c0.2,0.3,0.5,0.5,0.7,0.8c-3.6,6.1-7.1,12.3-11.3,18.1
		C65.9,34.3,65.6,34,65.4,33.7z"/>
	<path class="st9" d="M39.8,66.6c-2.9-6.5-4.9-13.2-7.1-19.9c0.3-0.3,0.5-0.7,0.8-1c2.8,6.5,4.9,13.2,7,19.9
		C40.3,65.9,40.1,66.3,39.8,66.6z"/>
	<path class="st10" d="M52.2,19.7c3.5,4.5,6.7,9.1,9.6,14c-0.2,0.3-0.5,0.6-0.7,0.9c-3.6-4.4-6.7-9.2-9.6-14
		C51.7,20.3,52,20,52.2,19.7z"/>
	<path class="st11" d="M26.9,32.9c-2.4-4-5.9-7.4-6.5-12.3c3.2,3.3,5,7.5,7.2,11.5C27.4,32.3,27.1,32.6,26.9,32.9z"/>
</g>
</svg>
