<?xml version="1.0" encoding="utf-8"?>
<!-- Generator: Adobe Illustrator 22.0.1, SVG Export Plug-In . SVG Version: 6.00 Build 0)  -->
<svg version="1.1" id="Layer_1" xmlns="http://www.w3.org/2000/svg" xmlns:xlink="http://www.w3.org/1999/xlink" x="0px" y="0px"
	 viewBox="0 0 96 96" style="enable-background:new 0 0 96 96;" xml:space="preserve">
<style type="text/css">
	.st0{fill:#FFFFFF;}
</style>
<path class="st0" d="M88.6,29.7c-0.1-6.3-4-9.8-10.3-9.8c-10.1,0-20.2,0-30.4,0c-10.4,0-20.7,0-31,0c-5.4,0-9.5,3.9-9.6,9.2
	C7.3,41.6,7.3,54,7.4,66.4c0,6,4,9.7,10,9.7c20.4,0,40.7,0,61.2,0c5.9,0,9.9-3.7,10-9.7C88.7,54.2,88.7,41.9,88.6,29.7z M80.3,65.2
	c-0.3,0.4-0.6,0.6-0.9,1c-7.3-5.1-14.5-10.3-21.9-15.4c-2.7,1.8-5.4,3.5-8.2,5.1c-0.7,0.4-2,0.4-2.7,0c-2.7-1.6-5.4-3.3-8.2-5.2
	C31.1,55.9,23.9,61,16.7,66.2c-0.2-0.2-0.4-0.4-0.4-0.5c6.1-5.7,12.3-11.3,18.4-17c-0.3-0.4-0.4-0.7-0.7-1.1
	c-7.2-5.6-14.4-11.3-21.6-16.9c0.1-0.1,0.2-0.3,0.2-0.4c0.7,0.4,1.4,0.7,2.1,1.1C25.2,37,35.7,42.7,46.2,48.4c1.3,0.7,2.2,0.7,3.5,0
	C60.3,42.7,70.8,37,81.4,31.3c0.7-0.4,1.4-0.7,2.4-0.7c-7.2,5.6-14.4,11.2-22,17.2C68,53.8,74.2,59.5,80.3,65.2z"/>
</svg>
