<?xml version="1.0" encoding="utf-8"?>
<!-- Generator: Adobe Illustrator 22.0.1, SVG Export Plug-In . SVG Version: 6.00 Build 0)  -->
<svg version="1.1" id="Layer_1" xmlns="http://www.w3.org/2000/svg" xmlns:xlink="http://www.w3.org/1999/xlink" x="0px" y="0px"
	 viewBox="0 0 96 96" style="enable-background:new 0 0 96 96;" xml:space="preserve">
<path d="M94.2,27.2C94.1,20,89.6,16,82.5,16c-11.5,0-23,0-34.6,0c-11.8,0-23.6,0-35.3,0C6.5,16,1.8,20.4,1.7,26.5
	C1.6,40.7,1.6,54.8,1.8,69C1.8,75.8,6.4,80,13.2,80c23.2,0,46.4,0,69.7,0c6.7,0,11.3-4.2,11.4-11C94.4,55.1,94.4,41.1,94.2,27.2z
	 M84.8,67.6c-0.3,0.4-0.7,0.7-1,1.1c-8.3-5.8-16.5-11.7-24.9-17.6c-3.1,2-6.1,4-9.3,5.8c-0.8,0.5-2.3,0.5-3.1,0
	c-3.1-1.8-6.1-3.8-9.3-5.9C28.8,57,20.6,62.8,12.3,68.7c-0.2-0.2-0.4-0.4-0.5-0.6c7-6.5,14-12.9,21-19.4c-0.3-0.4-0.5-0.8-0.8-1.2
	c-8.2-6.4-16.4-12.9-24.6-19.3c0.1-0.1,0.2-0.3,0.2-0.4c0.8,0.4,1.6,0.8,2.4,1.2C22,35.5,34,42,46,48.5c1.5,0.8,2.5,0.8,4,0
	c12-6.5,24-13,36-19.5c0.8-0.4,1.6-0.8,2.7-0.8c-8.2,6.4-16.4,12.8-25.1,19.6C70.8,54.6,77.8,61.1,84.8,67.6z"/>
</svg>
