<?xml version="1.0" encoding="utf-8"?>
<!-- Generator: Adobe Illustrator 22.0.1, SVG Export Plug-In . SVG Version: 6.00 Build 0)  -->
<svg version="1.1" id="Layer_1" xmlns="http://www.w3.org/2000/svg" xmlns:xlink="http://www.w3.org/1999/xlink" x="0px" y="0px"
	 viewBox="0 0 96 96" style="enable-background:new 0 0 96 96;" xml:space="preserve">
<g>
	<path d="M48.2,37c-4.7-0.1-8.5,3.8-8.4,8.5c0.1,4.5,3.9,8.2,8.4,8.1c4.5,0,8.2-3.8,8.2-8.3S52.7,37.1,48.2,37z M48.2,37
		c-4.7-0.1-8.5,3.8-8.4,8.5c0.1,4.5,3.9,8.2,8.4,8.1c4.5,0,8.2-3.8,8.2-8.3S52.7,37.1,48.2,37z M89.3,46.4
		C77.9,34.8,65,26.6,48.3,25.8c-17.1,0.6-30.1,9.1-41.4,20.9c-1.7,1.7-0.5,2.6,0.6,3.7c5.4,5.5,11.4,10.3,18.3,13.9
		c8.3,4.3,17.1,7,26.6,5.8c14.7-1.9,26.4-9.6,36.6-19.9C90.3,48.9,90.8,48,89.3,46.4z M14.6,49.2c-1.2-1.1-0.5-1.9,0.4-2.6
		c2.4-2.1,4.9-4.1,7.3-6.2c0.3,0.2,0.7,0.4,1,0.5c-0.6,5.6,0,11,3.2,17C21.2,55.4,17.9,52.3,14.6,49.2z M60,60.7
		c-6.9,5.4-16.7,5.5-23.7,0.2s-9.6-14.7-6.4-22.8c0.7-1.8,1.7-3.2,3.7-3.8c4.8-1.6,9.5-3,14.5-2.9c5-0.1,9.7,1.4,14.4,2.9
		c2,0.6,2.9,2.1,3.6,3.9C69.3,46.1,66.8,55.4,60,60.7z M81.2,49.7c-3.2,2.9-6.4,5.7-10.9,8.1c1.8-5.9,4-11.1,1.9-17.5
		c4.4,1.5,6.7,4.4,9.5,6.8C83,48.2,82,49,81.2,49.7z M48.2,37c-4.7-0.1-8.5,3.8-8.4,8.5c0.1,4.5,3.9,8.2,8.4,8.1
		c4.5,0,8.2-3.8,8.2-8.3S52.7,37.1,48.2,37z"/>
	<path d="M56.4,45.3c0,4.5-3.7,8.3-8.2,8.3c-4.5,0.1-8.3-3.6-8.4-8.1c-0.1-4.7,3.7-8.6,8.4-8.5C52.7,37.1,56.4,40.8,56.4,45.3z"/>
	<path d="M56.4,45.3c0,4.5-3.7,8.3-8.2,8.3c-4.5,0.1-8.3-3.6-8.4-8.1c-0.1-4.7,3.7-8.6,8.4-8.5C52.7,37.1,56.4,40.8,56.4,45.3z"/>
</g>
</svg>
