<?xml version="1.0" encoding="utf-8"?>
<!-- Generator: Adobe Illustrator 23.1.1, SVG Export Plug-In . SVG Version: 6.00 Build 0)  -->
<svg version="1.1" id="Layer_1" xmlns="http://www.w3.org/2000/svg" xmlns:xlink="http://www.w3.org/1999/xlink" x="0px" y="0px"
	 viewBox="0 0 96 96" style="enable-background:new 0 0 96 96;" xml:space="preserve">
<style type="text/css">
	.st0{fill:#BA9B49;}
	.st1{fill:#FFFFFF;}
	.st2{fill:#4F7BB6;}
	.st3{fill:#90B6E1;}
	.st4{fill:#37414E;}
	.st5{fill:#FDFEFE;}
</style>
<g>
	<path class="st0" d="M47.3,78.2C38.2,78,29.8,73.9,22,68.1C15,62.9,9.1,56.6,3.9,49.6c-0.6-0.8-1.4-1.5-0.4-2.7
		C11.5,36.3,20.7,27,32.9,21.3c10.7-5,21.4-4.5,31.9,0.8c11.4,5.8,20,14.7,27.6,24.7c0.6,0.8,0.8,1.4,0.1,2.3
		c-8.4,11-18,20.7-31,26.2C57.3,77.2,52.8,78.2,47.3,78.2z"/>
	<path class="st1" d="M49.1,75.1c-9.6,0-16.7-3.4-23.4-8c-7.1-4.9-13-11-18.3-17.7c-0.6-0.7-1.3-1.3-0.4-2.5
		c7.9-9.8,16.6-18.6,28.5-23.6c10.6-4.5,20.8-2.9,30.5,2.8c9,5.3,16.2,12.5,22.7,20.6c0.6,0.8,1,1.3,0.2,2.3
		c-8,10-16.9,18.8-29,23.8C56.1,74.4,52.1,75.3,49.1,75.1z"/>
	<path class="st2" d="M69.1,47.9c0,11.7-9.4,21.2-21,21.2c-11.7,0.1-21.3-9.5-21.2-21.2c0-11.7,9.4-21,21.1-21
		C59.7,26.9,69.1,36.3,69.1,47.9z"/>
	<path class="st3" d="M66,48c0.6,9.9-8.7,18.1-17.9,18.1c-9.2,0-18.5-8.1-18.1-18.3c0.4-9.9,8.3-18.3,18.1-18.1
		C58,30,66.5,38.3,66,48z"/>
	<path class="st4" d="M55.4,43.3c2.3,3.2,2.1,7.3-0.5,10.4c-2.7,3.2-6.7,4.2-10.4,2.6c-3.8-1.6-6.1-5.7-5.5-9.8
		c0.5-3.6,3.7-6.9,7.3-7.3c1-0.1,2.1,0,3.1,0C50.7,41.7,52.9,42.7,55.4,43.3z"/>
	<path class="st5" d="M55.4,43.3c-3.8,0.3-5.1-0.6-5.9-4.1c0.3-3.1,1.6-4.6,4.1-4.8c2.5-0.2,4,1.1,4.8,3.3
		C59.2,39.9,58.1,41.9,55.4,43.3z"/>
</g>
</svg>
