<?xml version="1.0" encoding="utf-8"?>
<!-- Generator: Adobe Illustrator 20.0.0, SVG Export Plug-In . SVG Version: 6.00 Build 0)  -->
<svg version="1.1" id="Layer_1" xmlns="http://www.w3.org/2000/svg" xmlns:xlink="http://www.w3.org/1999/xlink" x="0px" y="0px"
	 viewBox="0 0 96 96" style="enable-background:new 0 0 96 96;" xml:space="preserve">
<style type="text/css">
	.st0{fill:#FEFEFE;}
	.st1{fill:#FAFAFA;}
	.st2{fill:#010101;}
</style>
<g>
	<path d="M48.3,25.8c16.7,0.8,29.6,9,41,20.6c1.5,1.6,1,2.5-0.3,3.8c-10.2,10.3-21.9,18-36.6,19.9c-9.5,1.2-18.3-1.5-26.6-5.8
		c-6.9-3.6-12.9-8.4-18.3-13.9c-1.1-1.1-2.3-2-0.6-3.7C18.2,34.9,31.2,26.4,48.3,25.8z"/>
	<path class="st0" d="M48.1,31.4c5-0.1,9.7,1.4,14.4,2.9c2,0.6,2.9,2.1,3.6,3.9c3.2,7.9,0.7,17.2-6.1,22.5
		c-6.9,5.4-16.7,5.5-23.7,0.2c-7-5.3-9.6-14.7-6.4-22.8c0.7-1.8,1.7-3.2,3.7-3.8C38.4,32.7,43.1,31.3,48.1,31.4z"/>
	<path class="st1" d="M72.2,40.3c4.4,1.5,6.7,4.4,9.5,6.8c1.3,1.1,0.3,1.9-0.5,2.6c-3.2,2.9-6.4,5.7-10.9,8.1
		C72.1,51.9,74.3,46.7,72.2,40.3z"/>
	<path class="st1" d="M23.3,40.9c-0.6,5.6,0,11,3.2,17c-5.3-2.5-8.6-5.6-11.9-8.7c-1.2-1.1-0.5-1.9,0.4-2.6c2.4-2.1,4.9-4.1,7.3-6.2
		C22.6,40.6,23,40.8,23.3,40.9z"/>
	<path class="st2" d="M56.4,45.3c0,4.5-3.7,8.3-8.2,8.3c-4.5,0.1-8.3-3.6-8.4-8.1c-0.1-4.7,3.7-8.6,8.4-8.5
		C52.7,37.1,56.4,40.8,56.4,45.3z"/>
</g>
</svg>
