<?xml version="1.0" encoding="utf-8"?>
<!-- Generator: Adobe Illustrator 22.0.1, SVG Export Plug-In . SVG Version: 6.00 Build 0)  -->
<svg version="1.1" id="Layer_1" xmlns="http://www.w3.org/2000/svg" xmlns:xlink="http://www.w3.org/1999/xlink" x="0px" y="0px"
	 viewBox="0 0 96 96" style="enable-background:new 0 0 96 96;" xml:space="preserve">
<style type="text/css">
	.st0{fill:#FFFFFF;}
</style>
<g>
	<path class="st0" d="M48.2,35.8c-5.2-0.1-9.4,4.2-9.3,9.4c0.1,5,4.3,9.1,9.3,8.9c5,0,9.1-4.2,9.1-9.2S53.2,36,48.2,35.8z
		 M48.2,35.8c-5.2-0.1-9.4,4.2-9.3,9.4c0.1,5,4.3,9.1,9.3,8.9c5,0,9.1-4.2,9.1-9.2S53.2,36,48.2,35.8z M93.6,46.2
		C81,33.4,66.8,24.4,48.3,23.5C29.4,24.1,15.1,33.5,2.6,46.6c-1.9,1.9-0.6,2.9,0.7,4.1C9.2,56.7,15.8,62,23.5,66
		c9.2,4.7,18.9,7.7,29.4,6.4c16.2-2.1,29.2-10.6,40.4-22C94.7,49,95.3,48,93.6,46.2z M11.1,49.3c-1.3-1.2-0.6-2.1,0.4-2.9
		c2.7-2.3,5.4-4.5,8.1-6.8c0.3,0.2,0.8,0.4,1.1,0.6c-0.7,6.2,0,12.2,3.5,18.8C18.4,56.2,14.7,52.7,11.1,49.3z M61.2,62
		c-7.6,6-18.4,6.1-26.2,0.2C27.3,56.4,24.5,46,28,37.1c0.8-2,1.9-3.5,4.1-4.2c5.3-1.8,10.5-3.3,16-3.2c5.5-0.1,10.7,1.5,15.9,3.2
		c2.2,0.7,3.2,2.3,4,4.3C71.5,45.9,68.8,56.2,61.2,62z M84.7,49.9c-3.5,3.2-7.1,6.3-12,8.9c2-6.5,4.4-12.3,2.1-19.3
		c4.9,1.7,7.4,4.9,10.5,7.5C86.6,48.2,85.5,49.1,84.7,49.9z M48.2,35.8c-5.2-0.1-9.4,4.2-9.3,9.4c0.1,5,4.3,9.1,9.3,8.9
		c5,0,9.1-4.2,9.1-9.2S53.2,36,48.2,35.8z"/>
	<path class="st0" d="M57.3,45c0,5-4.1,9.2-9.1,9.2c-5,0.1-9.2-4-9.3-8.9c-0.1-5.2,4.1-9.5,9.3-9.4C53.2,36,57.3,40,57.3,45z"/>
	<path class="st0" d="M57.3,45c0,5-4.1,9.2-9.1,9.2c-5,0.1-9.2-4-9.3-8.9c-0.1-5.2,4.1-9.5,9.3-9.4C53.2,36,57.3,40,57.3,45z"/>
</g>
</svg>
