<?xml version="1.0" encoding="utf-8"?>
<!-- Generator: Adobe Illustrator 22.0.1, SVG Export Plug-In . SVG Version: 6.00 Build 0)  -->
<svg version="1.1" id="Layer_1" xmlns="http://www.w3.org/2000/svg" xmlns:xlink="http://www.w3.org/1999/xlink" x="0px" y="0px"
	 viewBox="0 0 96 96" style="enable-background:new 0 0 96 96;" xml:space="preserve">
<style type="text/css">
	.st0{fill:#FFFFFF;}
</style>
<path class="st0" d="M47.4,88c-9.8,0-19.6,0-29.4,0c-5.9,0-10-4-10-9.9c0-20,0-40,0-60c0-6,4.1-10,10.4-10c12.4,0,24.9,0,37.3,0
	c7.5,0,15,0,22.4,0c5.5,0,9.8,4,9.8,9.5c0.1,20.2,0.1,40.5,0,60.7c0,5.7-4.3,9.6-10.3,9.6C67.5,88,57.5,88,47.4,88z M61.3,84.1
	c0-9.5,0-18.9,0-28.5c2.3,0,4.3,0,6.4,0c0.5,0,1.3-0.4,1.4-0.8c0.6-2.8,1.2-5.6,1.7-8.7c-3.2,0-6.3,0-9.5,0c0-1.7,0-3.2,0-4.7
	c0-3.6,1.1-4.7,4.7-4.8c1.5,0,3.1,0,4.8,0c0-2.5,0.1-4.7-0.1-6.8c0-0.5-0.6-1.2-1.1-1.5c-2.5-1.3-5.2-1.3-7.9-1.1
	c-3.9,0.3-6.9,2.2-8.3,5.8c-1,2.6-1.2,5.5-1.6,8.2c-0.2,1.6,0,3.2,0,4.9c-2.7,0-5,0-7.4,0c0,3.2,0,6.2,0,9.5c2.5,0,4.9,0,7.5,0
	c0,9.6,0,19,0,28.4C55.1,84.1,58.1,84.1,61.3,84.1z"/>
</svg>
