<?xml version="1.0" encoding="utf-8"?>
<!-- Generator: Adobe Illustrator 22.0.1, SVG Export Plug-In . SVG Version: 6.00 Build 0)  -->
<svg version="1.1" id="Layer_1" xmlns="http://www.w3.org/2000/svg" xmlns:xlink="http://www.w3.org/1999/xlink" x="0px" y="0px"
	 viewBox="0 0 96 96" style="enable-background:new 0 0 96 96;" xml:space="preserve">
<style type="text/css">
	.st0{fill:#FFFFFF;}
</style>
<path class="st0" d="M90.7,40.6c0-3.6-2.1-6.3-5.4-6.9c-1.4-0.3-1.5-0.8-1.5-2c0-5.6,0-11.3,0-16.9c0-1.3-0.2-1.8-1.7-1.8
	C67.3,13,52.5,13,37.6,13c-1.4,0-1.7,0.4-1.7,1.7c0.1,5.7,0,11.4,0.1,17.2c0,1.1-0.2,1.5-1.4,1.8c-3.4,0.8-5.3,3.2-5.4,6.7
	c-0.1,11.4,0,22.7,0,34.1c0,2,0.7,3.8,2.3,5.1c0.8,0.6,1.1,1.3,1,2.3c-0.1,3.2-2,5.5-5,6.2c-3.4,0.7-6.5-0.6-7.9-3.4
	c-1.1-2.4-0.8-3.1,1.8-3.1c3.2-0.1,4.3-1,4.3-3.7c0-16.9,0-33.9,0-50.8c0-2.5-1.2-3.6-3.7-3.6c-4.2,0-8.5,0-12.7,0
	c-3,0-4.1,1.1-4.1,4.2c0,8.3,0,16.6,0,25c0,8.2,0,16.5,0,24.7c0,3.1,1,4.4,4,4.2c2.4-0.1,2.9,0.8,3.2,2.9c0.9,6,6.8,10.8,12.9,10.8
	c7.3,0,12.7-4.6,13.9-11.8c0.2-1.5,0.8-1.9,2.3-1.8c2.4,0.1,4.9,0,7.3,0c11.4,0,22.7,0,34.1,0c4.8,0,7.8-2.6,7.8-7.2
	C90.8,63.1,90.8,51.8,90.7,40.6z M46.3,71c-2.1,0-3.6-1.4-3.5-3.4c0-1.9,1.5-3.3,3.4-3.4c2,0,3.5,1.4,3.5,3.4
	C49.7,69.7,48.3,71,46.3,71z M42.8,54c0-1.9,1.5-3.4,3.4-3.4c2,0,3.5,1.5,3.5,3.5c0,2-1.6,3.5-3.6,3.4C44.2,57.4,42.8,55.9,42.8,54z
	 M60,71c-2.1,0-3.5-1.3-3.5-3.4c0-1.9,1.4-3.3,3.4-3.4c2.1,0,3.4,1.3,3.4,3.4C63.3,69.8,62.1,71,60,71z M59.8,57.5
	c-2,0-3.4-1.6-3.3-3.7c0.1-1.9,1.6-3.3,3.5-3.3c2,0,3.3,1.5,3.3,3.6C63.2,56.1,61.7,57.5,59.8,57.5z M73.6,71
	c-2.2,0-3.4-1.2-3.4-3.4c0-1.9,1.4-3.3,3.3-3.3c2,0,3.4,1.4,3.4,3.5C77,69.8,75.7,71,73.6,71z M73.6,57.5c-2,0-3.4-1.4-3.4-3.6
	c0-2,1.4-3.4,3.3-3.4c2,0,3.4,1.5,3.4,3.6C76.9,56,75.5,57.5,73.6,57.5z M77,38.7c0,1.3-0.3,1.6-1.6,1.6c-5.2-0.1-10.4,0-15.6,0
	c-5.1,0-10.3,0-15.4,0c-1.4,0-1.7-0.4-1.7-1.8c0.1-5.6,0.1-11.3,0-16.9c0-1.5,0.4-1.9,1.9-1.9c10.2,0.1,20.5,0,30.7,0
	c1.2,0,1.7,0.2,1.7,1.6C76.9,27.1,77,32.9,77,38.7z"/>
</svg>
