<?xml version="1.0" encoding="utf-8"?>
<!-- Generator: Adobe Illustrator 22.0.1, SVG Export Plug-In . SVG Version: 6.00 Build 0)  -->
<svg version="1.1" id="Layer_1" xmlns="http://www.w3.org/2000/svg" xmlns:xlink="http://www.w3.org/1999/xlink" x="0px" y="0px"
	 viewBox="0 0 96 96" style="enable-background:new 0 0 96 96;" xml:space="preserve">
<style type="text/css">
	.st0{stroke:#231F20;stroke-width:2;stroke-miterlimit:10;}
</style>
<path class="st0" d="M72.5,80.1H23.3c-4,0-4.6-0.7-3.5-4.7c1.4-5,5.2-7.7,9.6-9.8c3.4-1.6,7.3-2.2,10-5.9C36.7,59.1,34.2,59,32,58
	c-1.6-0.8-3.6-1.9-2.9-3.7c2.8-7.1,1-14.7,2.5-21.9c0.6-3,1.3-5.9,2.8-8.6c3.9-6.9,12.5-9.4,19.5-5.9c0.8,0.4,1.7,0.7,2.6,0.9
	c4.5,0.9,7.1,3.7,8.4,7.9c1.3,4.2,1.3,8.6,1.5,12.9c0.2,4.7-0.9,9.5,1.3,14c0.9,1.7-0.9,2.8-2.3,3.6c-2.4,1.5-5.2,1.7-8.1,2.4
	c0.8,2.3,2.7,2.9,4.3,3.7c2.5,1.2,5.1,2.1,7.6,3.4c3.2,1.7,5.8,4,7.1,7.6C78.1,79.3,77.6,80.1,72.5,80.1z"/>
</svg>
