<?xml version="1.0" encoding="utf-8"?>
<!-- Generator: Adobe Illustrator 22.0.1, SVG Export Plug-In . SVG Version: 6.00 Build 0)  -->
<svg version="1.1" id="Layer_1" xmlns="http://www.w3.org/2000/svg" xmlns:xlink="http://www.w3.org/1999/xlink" x="0px" y="0px"
	 viewBox="0 0 96 96" style="enable-background:new 0 0 96 96;" xml:space="preserve">
<style type="text/css">
	.st0{fill:#FEFEFE;}
</style>
<path class="st0" d="M48.1,76.7c-7.5,0-15.1-0.1-22.6,0.1c-3.1,0.1-3-1.1-1.9-3.2c1.4-2.6,3.7-4.1,6.3-5.2c2.6-1.2,5.3-2.4,7.9-3.6
	c1.8-0.9,3.4-2.1,4.2-4c1-2.3,1.1-4.1-2.2-4.5c-2.3-0.3-5.3,0-6.8-1.6c-1.6-1.8,0.6-4.3,0.6-6.6c0.2-5.3,0.1-10.6,1-15.8
	c1.4-8.9,6-13.4,13.5-13.2C57.3,19.4,62.2,23.8,63,33c0.3,3,0.1,6.1,0.2,9.1c0,2,0.3,4,0,5.9c-0.4,2.3,2.5,4.7,0.1,6.5
	c-1.7,1.2-4.2,1.3-6.4,1.8c-3.3,0.7-4,2.4-2.3,5.3c1,1.6,2.5,2.7,4.2,3.5c2.6,1.2,5.3,2.3,7.9,3.6c2.5,1.2,4.8,2.8,6,5.5
	c0.9,2,0.7,2.8-1.7,2.8C63.4,76.7,55.8,76.7,48.1,76.7z"/>
</svg>
