<?xml version="1.0" encoding="utf-8"?>
<!-- Generator: Adobe Illustrator 22.0.1, SVG Export Plug-In . SVG Version: 6.00 Build 0)  -->
<svg version="1.1" id="Layer_1" xmlns="http://www.w3.org/2000/svg" xmlns:xlink="http://www.w3.org/1999/xlink" x="0px" y="0px"
	 viewBox="0 0 96 96" style="enable-background:new 0 0 96 96;" xml:space="preserve">
<style type="text/css">
	.st0{fill:#CB2027;}
</style>
<path class="st0" d="M84,12.1c-24.1,0.1-48.3,0.1-72.5,0c-3.1-0.1-4,0.8-4,4c0.1,21.2,0.1,42.4,0,63.6c-0.1,3.1,0.8,4,4,4
	c12.1-0.2,24.1-0.1,36.2-0.1s24.1-0.1,36.2,0.1c3.1,0.1,4-0.8,4-4c-0.1-21.2-0.1-42.4,0-63.6C88.1,12.9,87.2,12,84,12.1z M16.2,79.1
	c-4.5,0.6-3.9-2-4.2-5c-0.5-4.4,2-3.9,5-4.2c4.2-0.4,4.7,1.7,3.9,4.7C22.2,79.5,19,78.7,16.2,79.1z M16.4,61.3
	c-4,0.3-4.2-1.5-4.4-4.7c-0.3-4,1.5-4.2,4.7-4.4c4-0.2,5,1.3,4.2,4.8C22,61.1,19.6,61.1,16.4,61.3z M20.9,39.1
	c1.3,4.7-1.8,4-4.7,4.3c-4.4,0.6-3.8-2-4.2-5c-0.5-4.4,2-3.9,5-4.2C21.2,33.9,21.6,36,20.9,39.1z M16.4,25.6
	c-4.2,0.4-4.1-1.7-4.3-4.8c-0.3-4.2,1.7-4.1,4.8-4.3c4.1-0.3,4.9,1.4,4.1,4.9C22.1,25.6,19.4,25.3,16.4,25.6z M79.2,16.5
	c4-0.2,5,1.3,4.2,4.8c1.1,4.2-1.3,4.1-4.5,4.3c-4,0.3-4.2-1.5-4.4-4.7C74.2,16.9,76,16.6,79.2,16.5z M79.1,34.3
	c3.7-0.1,5.1,1.1,4.2,4.7c1.1,4-1.1,4.3-4.5,4.5c-3.8,0.2-4.3-1.3-4.5-4.7C74.3,34.9,75.7,34.4,79.1,34.3z M78.9,79.1
	c-4,0.3-4.2-1.5-4.4-4.7c-0.2-4,1.3-5,4.8-4.2c4.2-1.1,4.1,1.3,4.3,4.5C83.9,78.7,82.1,79,78.9,79.1z M83.3,56.6
	c1.2,4.5-1.2,4.5-4.4,4.7c-4,0.3-4.2-1.5-4.4-4.7c-0.3-4,1.4-4.3,4.7-4.4C83,52,84.5,53,83.3,56.6z"/>
</svg>
