<?xml version="1.0" encoding="utf-8"?>
<!-- Generator: Adobe Illustrator 20.0.0, SVG Export Plug-In . SVG Version: 6.00 Build 0)  -->
<svg version="1.1" id="Layer_1" xmlns="http://www.w3.org/2000/svg" xmlns:xlink="http://www.w3.org/1999/xlink" x="0px" y="0px"
	 viewBox="0 0 96 96" style="enable-background:new 0 0 96 96;" xml:space="preserve">
<style type="text/css">
	.st0{fill:#FFFFFF;}
</style>
<path class="st0" d="M37.8,90.9c-8.5,0-17-0.2-25.5,0.1c-4.4,0.2-4-2.4-3.9-5.1c0.1-2.7-0.7-5.3,3.8-5.2c17.3,0.2,34.6,0.2,51.9,0
	c4.4-0.1,4,2.4,3.9,5.1c-0.1,2.7,0.7,5.4-3.8,5.2C55.3,90.7,46.6,90.9,37.8,90.9z"/>
<path class="st0" d="M66.3,49.1c4.4,1.9,6.5,5,6.7,9.3c0.1,3-0.1,6,0.1,8.9c0.2,4,3.1,6.7,6.9,6.6c3.6-0.1,6.4-2.6,6.6-6.4
	c0.2-4,0-7.9,0.1-11.9c0-2.1-1.5-3.1-2.8-4c-6.1-4.6-8.8-10.5-7.5-18.1c0.8-4.8-0.9-8.4-4.8-11.3c-1.5-1.1-2.6-2.6-3.9-3.9
	c-0.8-0.8-0.7-1.4,0-2.1c0.7-0.7,1.3-1.4,2.4-0.3c6.1,6.3,12.3,12.5,18.5,18.8c1.1,1.1,1.4,2.7,1.4,4.4c0,9.5,0.1,19-0.1,28.5
	c-0.1,5.7-4.7,9.9-10.2,9.8c-5.5-0.1-9.7-4.2-10.1-10c-0.3-5.2,1.5-10.8-3.3-15.2C65.9,51.7,66.3,50.3,66.3,49.1z"/>
<path class="st0" d="M65.8,16.4c-0.1-6.5-2-8.9-8.1-10.6H18.6c-6.2,1.7-8.1,4.1-8.1,11c-0.1,18.3-0.1,36.6,0,54.8c0,6,0.9,6.9,6.9,7
	c13.9,0.1,27.8,0.1,41.7,0c6,0,6.9-1,6.9-7C65.8,53.2,66,34.8,65.8,16.4z M56,33.9c0,3.1-1.5,4.3-4.5,4.3c-4.5-0.1-9.1,0-13.6,0
	c-4.2,0-8.5-0.1-12.7,0c-3.4,0.1-5-1.2-4.9-4.7c0.1-4.8,0.1-9.6,0-14.4c-0.1-3.2,1.2-4.7,4.5-4.7c8.9,0.1,17.8,0,26.8,0
	c3,0,4.5,1.2,4.5,4.3C56,23.7,56,28.8,56,33.9z"/>
</svg>
