<?xml version="1.0" encoding="utf-8"?>
<!-- Generator: Adobe Illustrator 22.0.1, SVG Export Plug-In . SVG Version: 6.00 Build 0)  -->
<svg version="1.1" xmlns="http://www.w3.org/2000/svg" xmlns:xlink="http://www.w3.org/1999/xlink" x="0px" y="0px"
	 viewBox="0 0 96 96" style="enable-background:new 0 0 96 96;" xml:space="preserve">
<style type="text/css">
	.st0{display:none;}
	.st1{display:inline;}
</style>
<g id="Layer_1" class="st0">
	<g id="_x30_PeF1k.tif" class="st1">
		
			<image style="overflow:visible;" width="245" height="243" id="Layer_0_1_" xlink:href="F8384BCCCB5364B8.png"  transform="matrix(1 0 0 1 -75 -74)">
		</image>
	</g>
</g>
<g id="Layer_2">
	<path d="M76.5,17.2c-3.8,3.9-7.6,7.7-11.5,11.6c-5.6-4.5-12.1-6.5-19.3-5.7c-5.4,0.6-10,3-14,6.6c-7.8,7.1-10.1,18.8-5.6,28.7
		C30.7,68.4,41,74.1,52,72.9c9.4-1.1,17.6-8,19.2-16.3c-7.4,0-14.7,0-22.2,0c0-5.2,0-10.3,0-15.6c12.9,0,25.8,0,39.1,0
		c1.7,12.3-0.5,23.7-7.9,33.9C73.5,84,64.1,88.2,53,89.3c-9.9,0.9-19-1.3-27.2-6.8c-25.1-16.9-25-54.6,2.5-70.4
		C44.1,3.1,63.1,5.3,76.5,17.2z"/>
</g>
</svg>
