<?xml version="1.0" encoding="utf-8"?>
<!-- Generator: Adobe Illustrator 23.1.1, SVG Export Plug-In . SVG Version: 6.00 Build 0)  -->
<svg version="1.1" id="Layer_1" xmlns="http://www.w3.org/2000/svg" xmlns:xlink="http://www.w3.org/1999/xlink" x="0px" y="0px"
	 viewBox="0 0 96 96" style="enable-background:new 0 0 96 96;" xml:space="preserve">
<style type="text/css">
	.st0{fill:#8E6D9F;}
	.st1{fill:#F9F0DF;}
	.st2{fill:#F0D9BF;}
	.st3{fill:#FEF6F0;}
	.st4{fill:#9576A4;}
	.st5{fill:#8F6FA0;}
	.st6{fill:#8F6EA0;}
	.st7{fill:#8E6EA0;}
</style>
<g>
	<path class="st0" d="M36,56c0-1.4,0-2.2,0-2.9c0.2-11.4,0.4-22.8,0.7-34.2c0-2.1,0.1-4.1,1.6-5.8c2.2-2.4,4.7-2.6,8.9-0.5
		c0.5-5,2.1-6.9,5.5-6.9c3.4,0,5,1.9,5.7,6.9c2.9-1.8,5.8-2.3,8.5,0.2c2.7,2.5,1.4,5.9,1.9,8.8c0.7,0.4,1.1-0.2,1.5-0.5
		c4.3-2.1,8.8,0.4,9.1,5.2c0.5,8.8,1,17.7,1.4,26.5c0.2,3.8,0.2,7.7,0.6,11.5c0.5,6-0.6,11.7-2.6,17.4c-1.9,5.5-6,8.6-11.8,8.6
		c-7.3,0-14.6,0-21.9,0c-4.1,0-7.4-1.5-10.1-4.7c-5.1-6-9.8-12.3-13.2-19.5c-2.1-4.4-4.4-8.8-6.8-13.1c-0.7-1.3-0.6-2.4,0.1-3.7
		c2.3-3.8,7.3-4.7,10.9-1.8c2.5,2,4.9,4.2,7.3,6.2C34,54.5,34.8,55,36,56z"/>
	<path class="st1" d="M36,82.6c-3.8-4.2-7.3-8.6-9.9-13.7c-2.5-5-5.2-10-7.8-15c-1.8-3.4-0.9-4.8,2.9-5.3c0.1,0.1,0.3,0.1,0.4,0.2
		c4.6,4.8,9.7,9.2,13.8,14.5c0.4,0.7,0.9,1.2,1.8,1c1.1-0.3,0.8-1.3,0.9-2.1c0.3-13.9,0.6-27.9,1-41.8c0-1.2,0.1-2.5,0.3-3.7
		c0.2-2.1,1.5-3.2,3.4-3.1c2,0.1,3.1,1.4,3.1,3.4c0,3.4,0,6.7,0,10.1c0,5.7,0,11.3,0,17c0,1-0.2,2.4,1.3,2.4
		c1.8,0.1,1.5-1.4,1.5-2.5c0.3-10.7,0.7-21.3,1-32c0.1-1.9,0.5-3.6,2.6-3.8c2.3-0.2,3,1.6,3,3.6c0.2,7.9,0.5,15.9,0.8,23.8
		c0.1,3,0.3,6.1,0.4,9.1c0,1,0.2,1.9,1.4,1.8c1.2-0.1,1.2-1.1,1.2-2c0-8.4,0-16.7,0-25.1c0-0.7,0-1.3,0-2c0.1-2.4,1.4-3.7,3.4-3.6
		c2.1,0,3.3,1.3,3.4,3.7c0.2,6.3,0.4,12.6,0.5,18.9c0.1,2.5,0,4.9,0.2,7.4c0.1,1.1-0.3,2.8,1.6,2.7c1.8-0.1,1.5-1.6,1.5-2.8
		c0-5.6,0-11.2,0-16.7c0-1.3,0-2.5,1.1-3.4c1-0.9,2.2-1.1,3.4-0.7c1.6,0.6,2.2,1.9,2.3,3.4c0.2,2.9,0.3,5.9,0.5,8.8
		c0.5,9.7,0.9,19.5,1.6,29.2c0.4,5.7-0.5,11.1-2.6,16.4c-2.3,0.1-4.5-0.8-6.9-0.8c-8.4,0.2-16.8,0.1-25.2,0
		C41.1,80.2,38.3,80.3,36,82.6z"/>
	<path class="st2" d="M36,82.6c0.8-2.2,2.4-3.1,4.7-3.1c10.3,0.1,20.7,0.1,31,0c1.8,0,3.1,0.9,4.6,1.5c-1.8,4.8-4.7,6.9-9.8,6.9
		c-7,0-13.9,0-20.9,0C41.3,87.9,38.1,86.2,36,82.6z"/>
	<path class="st3" d="M35.5,63.2c-5-4.6-9.9-9.4-14.2-14.7c1.4-0.2,2.5,0.5,3.5,1.4c3.3,2.7,6.4,5.6,9.7,8.3
		C36.4,59.7,35.4,61.5,35.5,63.2z"/>
	<path class="st4" d="M62.1,57.2c-0.1,1.1,0.2,2.5-1.3,2.5c-1.7,0.1-1.5-1.4-1.5-2.5c0-1-0.1-2.4,1.3-2.5
		C62.3,54.7,62,56.2,62.1,57.2z"/>
	<path class="st5" d="M46.2,57.3c0.2-1-0.4-2.5,1.3-2.5c1.5,0,1.3,1.4,1.3,2.4c0,1.1,0.3,2.6-1.4,2.5C45.9,59.6,46.4,58.2,46.2,57.3
		z"/>
	<path class="st6" d="M55.3,57.3c-0.1,1,0.3,2.5-1.3,2.4c-1.7,0-1.3-1.6-1.3-2.6c0-1-0.2-2.4,1.4-2.3C55.8,55,55.1,56.4,55.3,57.3z"
		/>
	<path class="st7" d="M68.6,57.4c-0.1,1.1,0.2,2.5-1.4,2.3C65.5,59.6,66.1,58,66,57c-0.1-1-0.1-2.2,1.3-2.1
		C69.1,54.9,68.4,56.5,68.6,57.4z"/>
</g>
</svg>
