<?xml version="1.0" encoding="utf-8"?>
<!-- Generator: Adobe Illustrator 20.0.0, SVG Export Plug-In . SVG Version: 6.00 Build 0)  -->
<svg version="1.1" id="Layer_1" xmlns="http://www.w3.org/2000/svg" xmlns:xlink="http://www.w3.org/1999/xlink" x="0px" y="0px"
	 viewBox="0 0 96 96" style="enable-background:new 0 0 96 96;" xml:space="preserve">
<style type="text/css">
	.st0{fill:#FEFEFE;}
</style>
<g>
	<path d="M34.7,49.1c0-8,0-16,0-24c0-5.1,2.5-8.1,6.6-8.2c4.2-0.1,6.8,3,6.8,8.3c0,0.5,0,1.5,0,1.5s-0.1,6.4,2.1,5.7
		c2.3,0.1,4.2,2.2,6.9,0.6c2.9-1.7,5.8-0.1,7.6,2.6c0.8,1.2,1.4,1.5,2.9,1.4c4.5-0.3,7.2,2.4,7.3,6.9c0.1,6.1,0.2,12.1-0.1,18.2
		c-0.3,8.8-7.3,16.1-16.1,17c-7.8,0.8-14.9-0.6-20.4-7c-4.2-4.8-9.1-9.1-13.6-13.6c-3.8-3.8-4.3-7.3-1.6-10.4
		c2.8-3.2,6.4-2.9,10.7,0.7C33.9,49,34.2,49,34.7,49.1z"/>
	<path class="st0" d="M39.2,59.6c0-11.4,0-22.7,0-34.1c0-1.8-0.4-4.2,2.4-4.1c2.4,0.1,2,2.3,2,4c0,6.4,0,12.8,0,19.3
		c0,1.6-0.7,3.4,2.3,3.3c3.2,0,2-2.1,2.1-3.5c0.1-1.7,0-3.5,0.1-5.2c0-1.4,0.7-2.4,2.2-2.4c1.5,0,2.2,1,2.2,2.4c0,2.1,0.1,4.2,0,6.3
		c-0.1,1.7,0.3,2.4,2.2,2.4c1.7,0,2.5-0.3,2.3-2.2c-0.2-2.1,0-4.2,0-6.3c0-1.4,0.6-2.5,2.1-2.6c1.7-0.1,2.4,1.1,2.4,2.7
		c0,1.7-0.1,3.5,0,5.2c0.1,1.3-1,3.2,2,3.3c2.6,0.1,2.8-1.1,2.6-3.1c-0.1-1.4,0-2.9,1.5-3.4c2.2-0.7,2.9,0.7,2.9,2.6
		c0,6.2,0.1,12.4-0.1,18.5c-0.2,3.9-2.2,7-5.3,9.3c-6.2,4.5-16.4,3.7-21.9-1.6c-5.2-5.1-10.4-10.2-15.6-15.4c-1.1-1.1-2.8-2.2-1-4
		c1.7-1.8,2.9-0.3,4,0.9c2.6,2.7,5.2,5.5,7.8,8.3C38.6,60,38.9,59.8,39.2,59.6z"/>
</g>
</svg>
