<?xml version="1.0" encoding="utf-8"?>
<!-- Generator: Adobe Illustrator 23.1.1, SVG Export Plug-In . SVG Version: 6.00 Build 0)  -->
<svg version="1.1" id="Layer_1" xmlns="http://www.w3.org/2000/svg" xmlns:xlink="http://www.w3.org/1999/xlink" x="0px" y="0px"
	 viewBox="0 0 96 96" style="enable-background:new 0 0 96 96;" xml:space="preserve">
<style type="text/css">
	.st0{fill:#FECD81;}
	.st1{fill:#FECF8C;}
	.st2{fill:#F2A35B;}
	.st3{fill:#FDECED;}
	.st4{fill:#FEEBEC;}
	.st5{fill:#FDEBEC;}
	.st6{fill:#FDEBED;}
</style>
<g>
	<path class="st0" d="M59.7,12.1c1.5-3.5,3.8-4.8,7.6-4.1c3,0.5,4.9,3,5,6.5c0,2,0,3.9,0,5.9c1,0.3,1-0.5,1.4-1
		c1.9-2.5,4.5-3.3,7.4-2.4c3,0.9,4.5,3.2,4.7,6.3c0.1,1.6,0,3.3,0,5c0,13.7,0,27.5,0,41.2c0,13-6.5,21.1-19.3,22.6
		c-8.5,1-17.1,1.1-25.6-0.9c-5.9-1.4-11.2-4.2-15.5-8.6c-4.1-4.2-8.4-8.2-12.6-12.4c-2.8-2.9-3.4-6.2-1.7-9.3
		c2.2-4.1,6.7-5.3,10.4-2.6c2.2,1.6,4.2,3.7,6.2,5.6c1.4,1.2,2.6,2.7,4.7,3.7c0-1.3,0-2.4,0-3.5c0-16,0-32,0-48.1
		c0-4.2,1.5-7,4.3-7.8c3.3-1,5.8,0.1,8.7,4c0.2-5,1.9-8.7,7.1-8.8c2.9-0.1,5.4,1.3,6.1,4.6c0.6,7.6,0.9,15.2,0.9,22.8
		c0,4.6-0.3,9.3,0.2,13.9c0.2,0.7,0.2,1.4,0.4,2.1c0.2,0.8,0.2,1.8,1.4,1.6c1-0.2,1.1-1.2,1-2c-0.3-3.6-0.9-7.2-1.3-10.8
		c-0.7-6.2-1.8-12.5-2.1-18.8C59.4,15.3,58.1,13.6,59.7,12.1z"/>
	<path class="st1" d="M59.1,45.3c-0.8-0.7-0.6-1.7-0.6-2.6c0-11.6,0-23.1,0-34.7c1.3,1.1-0.2,3,1.2,4.2c-1,1.5,0.1,3.1,0,4.6
		c-0.6,4.3,0.5,8.5,0.4,12.8c-0.1,4,0,8,0,12C60.1,42.8,60.2,44.2,59.1,45.3z"/>
	<path class="st2" d="M59.1,45.3c0-8.4,0-16.9,0.1-25.3c0-1.1-0.5-2.3,0.6-3.2c0.9,7.6,1.9,15.3,2.8,22.9c0.3,2.2,0.6,4.5,0.9,6.7
		c0.2,1.7-0.1,3.4-2.1,3.4c-2,0-2.3-1.6-2.2-3.3C59.2,46.1,59.1,45.7,59.1,45.3z"/>
	<path class="st2" d="M73.3,27.4c1.1,7.6,2.1,15.2,3.4,22.8c0.3,1.7,0,2.7-1.6,3.1c-1.7,0.4-2.3-0.9-2.8-2.2c-0.1-0.5-0.2-1-0.1-1.5
		C73.1,42.1,72.7,34.7,73.3,27.4z"/>
	<path class="st2" d="M46.6,19.9c1.1,8.2,2.2,16.4,3.3,24.6c0.2,1.7,0,3-1.9,3.2c-1.9,0.2-2-1.3-2-2.8c0-8.3,0-16.6,0-25
		C46.3,19.9,46.4,19.9,46.6,19.9z"/>
	<path class="st3" d="M12.7,64.5c0-2.7,2.1-4.9,4.9-4.9c1.8,0,3.7,0.2,3.8,2.6c0.1,2-3.9,6.1-5.8,6.1C14.1,68.3,12.7,66.4,12.7,64.5
		z"/>
	<path class="st4" d="M39.2,16.7c-1.8-0.3-4,0-4.5-2.5c-0.4-2,2.2-4.4,4.4-4.4c2.2,0,4.7,2.3,4.4,4.3C43.2,16.8,40.9,16.3,39.2,16.7
		z"/>
	<path class="st5" d="M52.6,5.5c2.3,0.1,4.3,2,4.1,4.1c-0.2,2.8-2.7,2.6-4.4,2.5c-1.6-0.1-4,0.1-4.2-2.5C47.9,7.6,50.4,5.5,52.6,5.5
		z"/>
	<path class="st5" d="M65.8,16.8c-1.9-0.4-4-0.1-4.2-2.7c-0.1-2,2.1-4.1,4.2-4.1c2.2,0,4.7,2.2,4.5,4.3C69.9,17,67.4,16.2,65.8,16.8
		z"/>
	<path class="st6" d="M79,25.4c-1.6-0.2-3.9,0.3-4.2-2.5c-0.2-1.9,2.1-4.1,4.2-4.2c2.3-0.1,4.5,2,4.5,4.2
		C83.4,24.8,82.4,25.4,79,25.4z"/>
</g>
</svg>
