<?xml version="1.0" encoding="utf-8"?>
<!-- Generator: Adobe Illustrator 22.0.1, SVG Export Plug-In . SVG Version: 6.00 Build 0)  -->
<svg version="1.1" id="Layer_1" xmlns="http://www.w3.org/2000/svg" xmlns:xlink="http://www.w3.org/1999/xlink" x="0px" y="0px"
	 viewBox="0 0 670 200" style="enable-background:new 0 0 670 200;" xml:space="preserve">
<g>
	<path d="M599,149c0.2,4-3.1,3.8-5.9,4.2c-3.3,0.4-4.1-1.1-3.5-4c-0.7-3,0.4-4.2,3.6-3.8C595.8,145.7,598.8,145.4,599,149z"/>
	<path d="M623.8,131.5c-193.2,0-386.5,0-579.8,0c-2.3,0-4.7,0.1-7,0.5c-9.8,1.9-15.2,8.7-18.6,17.5v10c1.8,10.2,7.8,16.2,18,18h595
		c10-2,16.3-7.7,18-18v-9C644,136.4,637.4,131.5,623.8,131.5z M79.8,145.7c-1.7,0.7-1.2,2.2-1.3,3.4c0,4.7,0.1,9.3-0.1,14
		c0,1.4,1.2,3.6-1.4,4.1c-2.2,0.4-4.1,0.1-5.5-2.3c-3.2-5.6-6.7-11-10.1-16.4c-0.3,0.1-0.6,0.3-0.9,0.4c0,3.5,0,7,0,10.5
		c0,2.4-0.8,5.3,3.3,5.2c0.8,0,1.2,0.7,1,1.3c-0.2,0.5-0.8,1.2-1.3,1.2c-3.2,0.1-6.3,0.1-9.5,0c-0.7,0-1.2-0.4-1.4-1.1
		c-0.2-1.1,0.5-1.5,1.4-1.5c1.2-0.1,2.5,0,2.5-1.7c0.1-5.2,0.1-10.3,0-15.5c0-0.8-0.3-1.6-1.3-1.8c-1-0.2-2.8,0.4-2.6-1.4
		c0.2-1.9,2-1.2,3.2-1.4c5.3-0.8,9.2,0.7,11.5,6c1.6,3.6,4.1,6.8,7.1,10c0-3.7,0-7.4,0-11.1c0-1.7-1-2.3-2.6-2.2
		c-1,0-1.6-0.5-1.4-1.5c0.2-1,1-1.2,1.9-1.2c2.2,0,4.3-0.1,6.5,0c1.2,0.1,3-0.8,3.5,1C83,146.2,80.8,145.3,79.8,145.7z M95.5,150.2
		c-0.1,1.1-0.8,2.9,1.4,3c1.6,0.1,3-0.5,3.5-2.2c0.3-1,0.1-2.6,1.9-2.3c1.7,0.3,1.1,1.8,1.1,2.8c0.1,1.3,0.2,2.7,0,4
		c-0.2,1.7,1.1,4.2-0.9,4.9c-2.8,1-1.4-2.3-2.5-3.3c-1.1-1-2.2-1.6-3.6-1.2c-1.3,0.3-1.1,1.7-0.8,2.5c0.8,2-2.2,5.3,2,6
		c6.2,1.1,8.8-0.1,10-4.4c0.3-1.2,0.1-3.1,1.9-3c2,0.1,1.2,2.1,1.2,3.2c0.3,7,0.3,7-6.7,7c-4.8,0-9.7,0-14.5,0c-1.1,0-2.5,0.5-3-1
		c-0.6-1.9,1-1.6,2.1-1.8c0.9-0.1,1.5-0.8,1.5-1.7c0.1-5.1,0.1-10.3,0-15.4c0-0.3-0.3-0.6-0.4-0.9c-0.5-1.6-4.3,0.1-3.1-2.6
		c0.9-2.1,3.6-0.8,5.5-1c2.1-0.2,4.3,0,6.5,0h6.5c5.1,0,7.5,3.7,5.6,8.6c-0.3,0.7-0.6,1.1-1.4,1c-1-0.1-1.2-0.8-1.5-1.7
		c-1.8-4.6-6.2-6.7-10.8-5.2C94.3,146.5,95.7,148.6,95.5,150.2z M128.4,166c-0.2,1.7-1.7,1.2-2.7,1.3c-1.3,0.1-2.7,0-4,0
		c-1,0-2,0.1-3,0c-1.2-0.1-3,0.7-3.2-1.3c-0.2-1.9,1.6-1.1,2.4-1.6c2.5-1.4,2.1-17.4-0.5-18.7c-0.8-0.4-2.1-0.1-1.9-1.6
		c0.2-1.7,1.7-1.2,2.8-1.3c1.8-0.1,3.7-0.2,5.5,0c1.5,0.1,3.7-1,4.5,0.9c1,2.5-1.9,1.4-2.8,2.2c-1.1,0.9-0.9,2.1-0.9,3.2
		c0,4,0,8,0,11.9c0,1.5-0.3,3.2,1.9,3.4C127.4,164.6,128.6,164.5,128.4,166z M157.8,156.9c-3,1.3-1.4,4-1.8,6.1
		c-0.4,2.1,1.1,6.2-3.6,3c-1.2-0.8-2.1,0.5-3.1,0.9c-5.8,2-11.4,0.7-14.4-3.5c-3.3-4.4-3.2-12.5,0.2-16.9c3.3-4.2,8.3-5.3,14.4-3
		c0.6,0.2,1.2,0.7,1.8,0.7c1.4,0,2.9-3.1,3.9-0.3c0.8,2.2,0.4,5,0,7.4c-0.2,1.5-1.7,1.4-2.6,0.2c-0.6-0.8-0.9-1.8-1.4-2.6
		c-1.2-1.9-2.8-3.2-5.2-3.5c-3-0.3-5.1,0.7-6.5,3.5c-1.9,3.8-1.5,11.2,0.9,13.8c2.1,2.3,4.7,2.3,7.4,1.6c2-0.5,2.9-2,3-4.1
		c0.1-1.6,0-3-2-3.4c-0.9-0.2-2.3,0.1-2.1-1.4c0.2-1.8,1.8-1,2.8-1.1c1.3-0.1,2.7,0,4,0c1.2,0,2.3-0.1,3.5,0c0.9,0,2.2-0.4,2.6,0.8
		C160,156.6,158.6,156.5,157.8,156.9z M192.7,166c-0.2,1-1,1.2-1.9,1.2c-3,0-6,0-9,0c-1,0-2.1,0.1-2.3-1.3c-0.2-1.5,0.9-1.4,1.9-1.5
		c4.3-0.6,1.7-3.9,2.1-6c0.6-2.6-1.5-2.4-3.2-2.4c-1.3,0-2.7,0-4,0c-1.7,0.1-4.2-0.5-3.7,2.5c0.4,2-2,5.3,2.3,5.9
		c1,0.1,2.2,0.1,1.9,1.5c-0.2,0.9-1,1.2-1.9,1.2c-3.2,0-6.3,0-9.5,0c-0.8,0-1.7,0-1.9-1.1c-0.3-1.4,0.6-1.7,1.7-1.7
		c2.3,0.1,2.1-1.5,2.1-3c0-4.3,0-8.6,0-13c0-0.8-0.2-1.7-0.5-2.4c-0.6-1.4-4.3,0.5-3.2-2.3c0.8-2.1,3.6-0.7,5.4-1c0.3-0.1,0.7,0,1,0
		c1.2,0,2.3,0,3.5,0c1.2,0.1,3-0.5,3.2,1.4c0.1,1.8-1.7,1-2.6,1.4c-3,1.1-1.3,3.7-1.6,5.6c-0.4,2.2,1.2,2.3,2.8,2.3
		c1.3,0,2.7,0.2,4,0c1.5-0.2,4.3,1.2,4-1.9c-0.2-2.1,2.1-5.8-2.7-6c-1,0-1.5-0.5-1.3-1.6c0.1-0.8,0.7-1.1,1.4-1.1c3.3,0,6.7,0,10,0
		c0.9,0,1.7,0.4,1.7,1.4c0.1,1.1-0.7,1.3-1.6,1.4c-0.3,0-0.7,0-1,0.2c-2.6,1.7-1.7,17.4,1.2,18.8C192.1,164.8,192.8,165,192.7,166z
		 M221,162.6c-1.4,4.2-5,4.5-8.5,4.7c-4.3,0.2-8.7,0-13,0c-1,0-2.1,0-2.4-1.2c-0.3-1.5,0.8-1.6,1.8-1.6c2.6,0,2.3-1.9,2.3-3.5
		c0-4,0-8,0-12c0-1.6,0.3-3.5-2.3-3.5c-1,0-2.2-0.1-1.8-1.6c0.2-0.9,1.1-1.2,2-1.1c5.2,0.2,10.3-0.4,15.5,0.4
		c2.8,0.4,5.2,1.5,5.8,4.5c0.6,3.1-1.1,4.9-3.9,6.4C219.8,156.1,222.3,158.4,221,162.6z M239.9,167.8c-8,0-13.5-5.2-13.5-12.8
		c0-7.6,5.6-12.8,13.6-12.7c7.8,0.1,13.5,5.6,13.3,13.1C253.1,162.6,247.5,167.8,239.9,167.8z M283.5,166.2
		c-1.5,1.8-3.5,1.7-5.5,1.4c-2-0.3-2.7-1.8-3-3.5c-0.3-1.8-0.2-3.7-0.7-5.4c-0.7-2.6-3-2.8-5.2-3c-1.8-0.1-2.6,0.8-2.3,2.4
		c0.5,2.2-1.7,5.1,1.8,6.4c1,0.3,2.7-0.2,2.3,1.6c-0.3,1.5-1.8,1.2-2.9,1.2c-2.8,0-5.6,0-8.5,0c-1,0-2-0.1-2-1.5
		c0-1.2,0.9-1.3,1.7-1.2c2.2,0.2,2.3-1.3,2.3-2.9c0-4.5,0-9,0-13.5c0-1.4-0.1-2.7-2.1-2.6c-1,0-2.2,0-1.9-1.5
		c0.2-1.3,1.4-1.2,2.4-1.2c4.5,0,9-0.1,13.5,0c3.3,0.1,7,0.3,8,4.5c1.1,4.4-1.9,6.3-5.8,7.8c5.5,1.2,2.7,6.5,4.9,9.1
		c0.5-0.1,0.8-0.1,1-0.2c1.4-0.7-0.2-3.2,2-3.4c0.3,0,0.9,0.5,0.9,0.9C284.7,163.1,284.6,164.8,283.5,166.2z M314.2,161.6
		c0,0.8,0.1,1.7,0.5,2.4c0.6,1.4,4.3-0.6,3.1,2.3c-0.9,2.2-3.6,0.6-5.5,1c-0.5,0.1-1,0-1.5,0c-1,0-2,0.1-3,0c-1.2-0.1-3,0.6-3.2-1.3
		c-0.2-1.9,1.5-1.2,2.5-1.5c3.2-1.2,1.4-3.9,1.7-5.9c0.4-2.1-1.1-2.4-2.8-2.4c-1.2,0-2.4-0.2-3.5,0c-1.7,0.3-4.7-1.2-4.5,2.1
		c0.1,2.3-2.2,6.2,3,6.3c1,0,1.5,0.6,1.3,1.6c-0.2,0.8-0.7,1.1-1.4,1.1c-3.5,0-7,0-10.5,0c-0.9,0-1.6-0.4-1.6-1.5
		c0-0.8,0.5-1.3,1.2-1.2c2.8,0.2,2.7-1.6,2.7-3.6c-0.1-4.2,0-8.3,0-12.5c0-1.1,0.4-2.4-1.2-2.9c-1-0.3-3.2,0.5-2.5-1.8
		c0.5-1.6,2.3-0.9,3.5-1c2.7-0.1,5.3,0,8,0c0.8,0,1.7,0.2,1.8,1.2c0.1,1.1-0.6,1.4-1.5,1.5c-4.7,0.2-2.7,3.8-2.8,5.9
		c-0.2,3.1,2.5,1.9,4.1,1.9c3.3,0,7.9,1.6,6.9-4.8c-0.3-1.8-0.4-3.3-2.8-3.1c-0.9,0.1-1.7-0.3-1.6-1.4c0.1-1.1,0.9-1.3,1.8-1.3
		c3.3,0,6.6,0,10,0c0.9,0,1.6,0.4,1.7,1.4c0.1,1.2-0.8,1.3-1.7,1.3c-2.3,0-2.2,1.5-2.2,3.1C314.2,152.9,314.2,157.2,314.2,161.6z
		 M335.8,167.8c-8,0-13.5-5.2-13.4-12.8c0-7.6,5.5-12.8,13.5-12.7c7.7,0.1,13.2,5.3,13.3,12.6C349.4,162.3,343.7,167.8,335.8,167.8z
		 M367.1,167.8c-7.9,0-13.6-5.4-13.5-12.9c0.1-7.5,5.8-12.7,13.7-12.6c7.9,0.1,13.4,5.5,13.2,13.1
		C380.3,162.7,374.8,167.8,367.1,167.8z M402.8,166.7c-3.1,0.6-6.3,0.5-9.4,0.8c0-0.1,0-0.2,0-0.2c-2.3,0-4.7,0-7,0
		c-0.9,0-1.7-0.3-1.7-1.3c-0.1-1.1,0.6-1.4,1.5-1.4c0.3,0,0.9,0.1,1-0.1c3.1-4.8,0.8-10.2,1.4-15.2c0.2-1.5,0.7-3.6-2-3.7
		c-1,0-2.1-0.1-1.8-1.6c0.2-1,1.1-1.1,1.9-1.1c5.3,0.1,10.7-0.5,16,0.4c6.2,1.1,9.2,5,9.3,11.6C411.8,161.6,408.9,165.6,402.8,166.7
		z M454.8,157c-2.6,1.8-1,4.5-1.3,6.8c-0.3,2.4,0,4.9-3.5,2.4c-1.7-1.2-2.7,0.5-4,0.9c-5.4,1.7-11.1,0.2-14-3.9
		c-3.4-4.8-3.2-12.3,0.4-16.9c3.2-4.1,8.5-5.2,14-3c1.1,0.4,1.9,1.7,3.4,0.2c1.5-1.5,2.8-0.6,2.6,1.5c-0.2,2.4,1.4,5.8-0.9,6.9
		c-2.7,1.3-2.5-2.7-3.9-4.1c-3.7-4-9.2-3.2-11.3,1.8c-1.5,3.7-1.5,7.5,0.1,11.2c1.5,3.5,6,5,9.3,3.2c1.6-0.9,2.2-2.4,2.4-4.1
		c0.2-1.8-0.6-2.9-2.4-3.2c-1-0.2-2.2-0.2-1.8-1.6c0.3-1.2,1.6-0.8,2.6-0.9c1.3-0.1,2.7,0,4,0c1.2,0,2.3-0.1,3.5,0
		c1.1,0.1,2.6-0.6,3,0.9C457.6,157.1,455.7,156.5,454.8,157z M487.1,166c-1.3,1.9-3.4,1.9-5.4,1.6c-2.2-0.3-3-1.8-3.2-3.8
		c-0.2-1.6-0.2-3.3-0.6-4.9c-0.7-2.8-3.1-3.1-5.5-3.2c-1.7-0.1-2.2,1.1-1.8,2.2c0.7,2.2-2.2,5.5,2,6.6c1,0.2,2.1,0.1,2,1.5
		c-0.2,1.3-1.3,1.3-2.3,1.3c-3,0-6,0-9,0c-0.9,0-1.7-0.2-1.9-1.2c-0.2-1,0.4-1.6,1.4-1.5c2.9,0.1,2.6-1.9,2.6-3.7c0-4,0-8,0-12
		c0-1.5,0.2-3.1-2.1-3.2c-1,0-2.2-0.1-1.9-1.5c0.2-1.3,1.4-1.2,2.4-1.2c4.5,0,9-0.1,13.5,0c3.4,0.1,6.9,0.5,7.8,4.7
		c0.9,4.2-2,5.9-5.5,7.5c4.7,1.7,2.9,6.2,4.4,9.2c0.6-0.1,1,0,1.2-0.2c1.2-0.8-0.1-3.2,2.1-3.5c0.3,0,1.1,0.4,1.1,0.7
		C488.5,163,488.1,164.7,487.1,166z M505.9,167.8c-7.9,0-13.5-5.4-13.4-13c0.1-7.5,5.8-12.7,13.8-12.5c7.6,0.1,13.1,5.4,13.1,12.7
		C519.5,162.5,513.8,167.8,505.9,167.8z M546.3,147.3c0,1.4,0,2.4,0,3.4c0,0.9-0.2,1.6-1.3,1.7c-1,0.1-1.4-0.4-1.7-1.3
		c-0.7-2.3-1.8-4.3-4.1-5.3c-3.7-1.5-7.4,0.1-8.8,4c-1.2,3.4-1.2,6.8,0,10.3c0.9,2.8,2.7,4.5,5.8,4.6c3,0.1,5.2-1.1,6.4-3.9
		c0.6-1.3,0.7-3.4,2.8-2.5c2,0.9,0.5,2.7,0.1,3.9c-1.5,3.8-4.6,5.4-8.6,5.6c-4.9,0.2-8.9-1.1-11.3-5.7c-2.7-5.2-2.3-12,1.4-15.9
		c4-4.2,8.8-5,14.1-2.6c0.5,0.2,1.1,0.7,1.3,0.6C548.3,140,545.6,145.8,546.3,147.3z M559.9,149.8c-0.1,1.3-0.8,3.3,1.6,3.5
		c1.6,0.1,2.8-0.6,3.4-2.3c0.3-0.9,0.2-2.7,2-2.1c1.4,0.5,0.8,2,0.9,3.1c0.1,1.5,0.1,3,0,4.5c-0.1,1.4,0.8,3.5-0.9,4
		c-2.3,0.7-1.5-2-2.3-3c-0.9-1.3-2.1-1.7-3.5-1.5c-1.5,0.2-1.6,1.7-1.3,2.8c0.5,2-1.7,4.9,1.8,5.7c5.5,1.3,8.9-0.2,10.4-4.1
		c0.4-1.2-0.4-3.7,1.9-3.3c2,0.3,1.2,2.4,1.2,3.8c0.2,6.4,0.2,6.4-6.4,6.4h-6.5c-3,0-6,0-9,0c-1.1,0-2.5,0.4-2.8-1.3
		c-0.2-1.5,1-1.4,2-1.5c0.2,0,0.4,0,0.5-0.1c3.1-4.7,0.8-9.9,1.4-14.8c0.2-1.6,0.7-3.9-2.3-4c-0.9,0-1.7-0.2-1.6-1.3
		c0.1-1.4,1.2-1.4,2.2-1.4c6.7,0,13.3,0,20,0c1.6,0,2.6,0.6,2.4,2.3c-0.3,2.4,1.1,5.2-0.8,7.1c-1,1.1-1.7-0.2-2.2-1.5
		c-1.6-4.5-6.4-6.6-11-5.1C558.8,146.4,560,148.3,559.9,149.8z M606.3,165.7c-1.3,2.3-3.5,2.3-5.7,1.9c-2.2-0.4-3-1.9-3.1-3.9
		c-0.1-1.8,0-3.7-0.8-5.4c-1.1-2.4-3.3-2.5-5.5-2.6c-1.7-0.1-2,1.1-1.7,2.3c0.5,2.2-1.7,5.1,1.6,6.5c0.9,0.4,2.7-0.3,2.3,1.6
		c-0.3,1.6-1.8,1.2-2.8,1.2c-2.8,0-5.7,0-8.5,0c-0.9,0-1.7-0.3-1.8-1.3c-0.1-1,0.5-1.5,1.5-1.5c0.3,0,0.9,0.1,1-0.1
		c3.3-4.6,0.8-9.8,1.5-14.7c0.2-1.6,0.8-3.9-2.1-4.1c-1-0.1-2.1-0.2-1.8-1.6c0.3-1.2,1.5-1.1,2.5-1.1c4.3,0,8.7-0.1,13,0
		c3.5,0.1,7.3,0.4,8.2,4.8c0.9,4.2-2.2,5.8-5.6,7.4c5.1,1.4,2.6,6.4,4.7,9.2c0.5-0.1,0.8-0.1,1.1-0.2c1.2-0.9-0.3-3.3,2-3.4
		c0.3,0,1,0.5,1,0.8C607.6,162.9,607.1,164.4,606.3,165.7z M616.2,145.5C616.2,145.5,616.3,145.5,616.2,145.5
		C616.3,145.5,616.3,145.5,616.2,145.5C616.3,145.5,616.2,145.5,616.2,145.5z"/>
	<path d="M117.4,23.7c0,1.7-0.2,3.4,0.1,5c0.8,4.5-1.2,6.1-5.4,5.8c-2.6-0.2-3.4,0.9-3.4,3.5c0.1,21.8,0.1,43.7,0,65.5
		c0,3.7,1.9,4.2,4.6,4.1c6.8-0.3,3.4,4.9,4.1,7.8c0.9,3.9-2.1,3.2-4.3,3.2c-12.5,0-25,0-37.5,0c-2.3,0-4.7,0-3.9-3.2
		c0.7-2.7-2.9-7.8,3.6-7.7c4.1,0.1,5.4-1.4,5.3-5.5c-0.3-8.3-0.2-16.7,0-25c0.1-2.8-0.6-3.8-3.5-3.7c-6.2,0.2-12.3,0.2-18.5,0
		c-2.5-0.1-3.1,0.7-3,3.1c0.1,8.8,0.2,17.7,0,26.5c-0.1,3.4,1.1,4.7,4.2,4.4c6.6-0.6,4.1,4.3,4.6,7.4c0.7,4.6-2.7,3.5-5.1,3.6
		c-13.5,0.1-27,0.1-40.5,0.1c0-3.7,0-7.3,0-11c7.3-1.2,7.7-6.2,7.6-12.4c-0.4-17-0.2-33.9-0.1-50.9c0-4.4,0-8.4-5.8-9.1
		c-0.8-0.1-1.3-1-1.7-1.7c0-3.3,0-6.7,0-10c6.4-1.1,12.8-0.3,19.2-0.4c8.4-0.1,16.8,0,25.3,0c4,1.1,2.7,4.4,2.8,7
		c0.1,2.8-1.4,5-4.2,5.4c-4.2,0.7-4.8,3.3-4.7,6.8c0.1,5,0.1,10,0,14.9c0,3.3,1.3,4.9,4.7,4.8c4.3-0.1,8.6,0,12.9,0
		c2.9,0,4.3-1.2,4.3-4.2c0-6,0.1-12,0-17.9c0-2-0.9-3.2-3-4c-6.4-2.5-7.7-6.5-4.2-12.8c14.4-0.3,28.9-0.1,43.3-0.1
		C115.9,23,116.7,23,117.4,23.7z"/>
	<path d="M485,42.5c-6.8-10.5-16.6-16.8-28.5-20h-14c-6.2,2.1-12.5,4-17.8,8.1c-22,17-25.7,51.7-7.8,73.8
		c17.4,21.4,48.1,21.2,65.3-0.3C496,86.8,497.1,61.2,485,42.5z M460.6,97.7c-0.6,2.2-1.4,4.5-2.5,6.5c-1.9,3.6-4.8,5.8-9.2,5.6
		c-4.2-0.2-6.7-2.4-8.5-5.9c-3.3-6.5-3.8-13.7-4.2-20.8c-0.9-13-0.7-25.9,2.2-38.7c0.6-2.5,1.5-4.8,2.9-6.8
		c4.2-6.3,12.5-6.1,16.5,0.4c3.8,6.2,4.3,13.2,4.8,20.1c0.3,4.6,0.1,9.3,0.1,14C462.7,80.6,463,89.3,460.6,97.7z"/>
	<path d="M295.9,107.6c-2.9,0-4.4-1.3-5.7-3.8c-4.6-9.2-9.4-18.3-14.3-27.3c-1.3-2.4-1-3.3,1.7-3.9c8-2,13.5-7,15.9-15
		c4.5-14.6-2.8-26.8-18.4-31c-12.3-3.3-24.8-1.9-35.5-2.3c-10,0-18.1-0.1-26.3,0.1c-1.9,0-5.3-1.5-4.7,2.8c0.4,3.2-2.4,8.5,4.3,8.1
		c4.1-0.2,4.4,1.8,4.3,5.1c-0.1,20.5-0.2,41,0,61.5c0,4.3-0.9,5.9-5.4,5.8c-6.1-0.1-2.6,4.8-3.3,7.4c-0.8,3.1,1.2,3.4,3.7,3.4
		c11.8-0.1,23.7,0,35.5-0.1c2.5,0,5.7,1,5.1-3.6c-0.5-3.2,1.7-8-4.7-7.3c-3.5,0.4-4.1-1.4-4-4.5c0.2-7.8,0-15.7,0.1-23.5
		c0-1.4-1.2-3.5,1.4-4c2.6-0.6,3.8,0.8,4.7,3.1c5.2,12.2,10.7,24.3,16,36.5c1,2.4,2.2,3.5,5,3.5c8-0.2,16-0.1,24,0
		c2.5,0,4.6-0.2,3.8-3.3C298.5,112.5,301.9,107.7,295.9,107.6z M265.2,52.5c-0.7,10.1-8.3,15.7-18.8,14.2c-2.2-0.3-2.2-1.5-2.1-3
		c0-4.3,0-8.7,0-13c0-3.8,0.2-7.7-0.1-11.5c-0.3-3.6,0.7-4.9,4.6-4.8C259.4,34.6,266,41.6,265.2,52.5z"/>
	<path d="M509.5,51.8c0,16.7-0.1,32,0.1,47.3c0.1,4.5,2.3,7.7,7.3,8.7c5.1,1.1,1.9,5.4,2.5,8.3c0.6,3-2,2.3-3.7,2.4
		c-7.7,0-15.3-0.1-23,0.1c-2.4,0-3.3-0.6-3.1-3.1c0.2-3.7-1.2-7.9,4.9-8.8c3.2-0.5,4.1-4.2,4.1-7.3c0.1-18.8,0.1-37.6,0.1-56.5
		c0-4-2.2-6.5-6-7.6c-5.5-1.5-2.6-6-2.9-9.1c-0.3-3.4,3-1.8,4.5-1.8c8.3-0.2,16.7,0.1,25-0.2c3.3-0.1,5,1.1,6.7,3.8
		c10.2,16.1,20.6,32.2,30.9,48.2c1.6-0.4,1-1.6,1-2.4c0-9.7-0.1-19.3-0.1-29c0-5.3-2.3-8.7-7.7-10.1c-5.1-1.3-1.9-5.4-2.4-8.2
		c-0.6-3.1,2.3-2.1,3.8-2.1c7.3-0.1,14.7-0.1,22,0c1.3,0,3.6-0.8,3.3,1.7c-0.4,2.8,2.2,7.1-1.6,8.3c-5.7,1.9-6.8,5.6-6.8,10.7
		c0,22.6-0.1,45.3,0.1,67.9c0,4.1-0.7,5.2-5.3,5.7c-8.7,1-13.3-2.6-17.6-9.8C534.3,90,522.1,71.6,509.5,51.8z"/>
	<path d="M207.5,112.6c-0.4-1.8,1.5-5-2.2-4.9c-4,0.1-4.9-2.1-5.9-5.2c-7.9-25.2-15.9-50.3-23.8-75.4c-0.6-2-0.8-3.7-3.7-3.6
		c-9,0.2-18,0.1-27.3,1.1c1.5,3.1,2.7,5.7,4,8.1c1,1.9,1,3.6,0.3,5.7c-6.1,19.5-12.1,38.9-18.1,58.4c-1.5,5-4.1,8.8-9.3,10.8
		c-4.3,1.7-1.4,5.8-1.8,8.8c-0.5,3.1,2.4,2,3.9,2c7.3,0.1,14.7,0.1,22,0c1.5,0,4.5,1.1,3.8-2.1c-0.6-2.9,2.8-7.1-2.4-8.8
		c-5.6-1.8-7.3-4.1-6.6-9.3c0.9-6.7,2.1-7.7,8.6-7.7h5c13.8,0,13.7,0,17.6,13.2c0.8,2.8,0.7,3.7-2.5,3.9c-5.7,0.5-2.3,5.1-3,7.8
		c-0.8,2.9,1.3,3,3.6,3c10.7-0.1,21.3-0.3,32,0.1C206.6,118.8,208.5,117.4,207.5,112.6z M160,79.9c-3.6-0.3-7.3-0.1-11,0
		c-1.7,0-3.1-0.1-2.4-2.4c2.6-8.8,5.3-17.6,8.2-27.3c2.9,9.1,5.3,17.4,8.1,25.5C164,78.8,163.9,80.2,160,79.9z"/>
	<path d="M276.4,149.2c-0.1,4.5-3.8,3.7-6.6,4c-4,0.4-2.9-2.5-3.1-5.2c-0.6-3.5,2.4-2.5,4.5-2.6
		C273.9,145.5,276.5,145.8,276.4,149.2z"/>
	<path d="M480,149.4c-0.1,4-3.6,3.5-6.3,3.8c-3.3,0.5-3.3-1.5-3.3-3.9c0-2.5-0.2-5,3-3.9C476.9,145.5,480.1,145.4,480,149.4z"/>
	<path d="M599,149c0.2,4-3.1,3.8-5.9,4.2c-3.3,0.4-4.1-1.1-3.5-4c-0.7-3,0.4-4.2,3.6-3.8C595.8,145.7,598.8,145.4,599,149z"/>
	<path d="M206.4,148.9c-0.3-2.9,0.8-4,3.2-3.3c3.3,0,5.8,0.7,5.7,3.9c-0.1,3.7-3.1,3.6-5.8,3.9C205.5,153.8,206.6,151,206.4,148.9z"
		/>
	<path d="M216.1,160.5c-0.2,3.9-3.2,3.8-6.2,4.1c-4.2,0.5-3.6-2.1-3.5-4.8c-0.4-2.5-0.1-4.5,3.5-4.1
		C213,156.1,216.2,156.2,216.1,160.5z"/>
	<path d="M405.2,160.3c-1.6,3.6-4.7,4.2-8.2,4.2c-2.5,0-3.7-0.6-3.4-3.3c0.2-2.1,0-4.3,0-6.5c0-1.2-0.2-2.4,0-3.5
		c0.4-1.9-1.5-4.8,1.3-5.6c2.8-0.8,6-0.7,8.5,1.5C406.1,149.4,407,156.3,405.2,160.3z"/>
	<path d="M247.5,155c0,6.6-2.8,10.2-7.8,10.1c-4.9-0.1-7.4-3.5-7.5-9.8c-0.1-6.8,2.4-10.2,7.4-10.3
		C244.7,144.9,247.5,148.5,247.5,155z"/>
	<path d="M343.4,155.5c-0.1,6.3-2.9,9.7-7.8,9.6c-5-0.1-7.5-3.7-7.5-10.4c0.1-6.5,2.6-9.7,7.5-9.8
		C340.8,144.9,343.6,148.7,343.4,155.5z"/>
	<path d="M513.5,155.5c-0.1,6.4-2.8,9.8-7.6,9.7c-4.7-0.1-7.4-3.3-7.5-9.3c-0.2-6.9,2-10.4,6.8-10.9
		C510.8,144.6,513.6,148.2,513.5,155.5z"/>
	<path d="M374.6,155.1c0,6.7-2.7,10.2-7.7,10c-4.8-0.1-7.4-3.6-7.4-9.9c0-6.7,2.6-10.2,7.6-10.2
		C372.1,144.9,374.6,148.3,374.6,155.1z"/>
	<path d="M276.4,149.2c-0.1,4.5-3.8,3.7-6.6,4c-4,0.4-2.9-2.5-3.1-5.2c-0.6-3.5,2.4-2.5,4.5-2.6
		C273.9,145.5,276.5,145.8,276.4,149.2z"/>
	<path d="M480,149.4c-0.1,4-3.6,3.5-6.3,3.8c-3.3,0.5-3.3-1.5-3.3-3.9c0-2.5-0.2-5,3-3.9C476.9,145.5,480.1,145.4,480,149.4z"/>
	<path d="M599,149c0.2,4-3.1,3.8-5.9,4.2c-3.3,0.4-4.1-1.1-3.5-4c-0.7-3,0.4-4.2,3.6-3.8C595.8,145.7,598.8,145.4,599,149z"/>
	<path d="M216.1,160.5c-0.2,3.9-3.2,3.8-6.2,4.1c-4.2,0.5-3.6-2.1-3.5-4.8c-0.4-2.5-0.1-4.5,3.5-4.1
		C213,156.1,216.2,156.2,216.1,160.5z"/>
	<path d="M215.2,149.5c-0.1,3.7-3.1,3.6-5.8,3.9c-4,0.4-2.9-2.4-3.1-4.5c-0.3-2.9,0.8-4,3.2-3.3
		C212.8,145.5,215.3,146.2,215.2,149.5z"/>
	<path d="M405.2,160.3c-1.6,3.6-4.7,4.2-8.2,4.2c-2.5,0-3.7-0.6-3.4-3.3c0.2-2.1,0-4.3,0-6.5c0-1.2-0.2-2.4,0-3.5
		c0.4-1.9-1.5-4.8,1.3-5.6c2.8-0.8,6-0.7,8.5,1.5C406.1,149.4,407,156.3,405.2,160.3z"/>
	<path d="M247.5,155c0,6.6-2.8,10.2-7.8,10.1c-4.9-0.1-7.4-3.5-7.5-9.8c-0.1-6.8,2.4-10.2,7.4-10.3
		C244.7,144.9,247.5,148.5,247.5,155z"/>
	<path d="M343.4,155.5c-0.1,6.3-2.9,9.7-7.8,9.6c-5-0.1-7.5-3.7-7.5-10.4c0.1-6.5,2.6-9.7,7.5-9.8
		C340.8,144.9,343.6,148.7,343.4,155.5z"/>
	<path d="M513.5,155.5c-0.1,6.4-2.8,9.8-7.6,9.7c-4.7-0.1-7.4-3.3-7.5-9.3c-0.2-6.9,2-10.4,6.8-10.9
		C510.8,144.6,513.6,148.2,513.5,155.5z"/>
	<path d="M374.6,155.1c0,6.7-2.7,10.2-7.7,10c-4.8-0.1-7.4-3.6-7.4-9.9c0-6.7,2.6-10.2,7.6-10.2
		C372.1,144.9,374.6,148.3,374.6,155.1z"/>
	<path d="M649.5,94.5c-3.9,12.9-12.1,21.4-25.5,24.5c-8.7,2-17.2,1.4-25.5-1.7c-5-1.8-9.7-2.3-14.3,0.4c-2.5,1.4-3.1,0.4-3.5-1.9
		c-1.3-8.4-2.7-16.7-4-25.1c-0.2-1.7-1.4-4.2,1.9-4.5c2.8-0.2,5.7-3.1,8,1.4c3.1,6.3,7.4,11.9,12.8,16.4c5.4,4.5,11.5,6.7,18.5,5.5
		c4.7-0.8,8.5-3,9.7-8c1.2-5-0.7-8.8-4.8-11.6c-5.5-3.8-11.9-5.8-18-8.4c-5.2-2.2-10.3-4.5-14.9-8c-10.1-7.6-14.1-18.2-11.2-29.8
		c2.7-10.7,12.5-18.9,24.5-20.5c1.7-0.9,3.7,0.3,5.3-0.8c1,0,2,0,3,0c2,1.1,4.2,0.3,6.2,0.5c7.1,0.2,14.3,2.2,21.4,0.1
		c1.7,0.9,2,2.6,2.3,4.2c1.4,6.5,2.7,13,3.9,19.6c0.6,3.2,0.4,6-3.4,7.2c-3.5,1.2-6.7,1.9-9-2.3c-2.8-5.1-6.6-9.6-11.1-13.3
		c-3.9-3.1-8.1-5.2-13.3-4.5c-3.6,0.5-6.4,2.1-7.2,5.9c-0.8,3.7,0.9,6.5,4,8.4c4.1,2.5,8.7,4.2,13.3,5.7c5.9,1.9,11.4,4.6,16.7,7.7
		c7.6,4.5,13.2,10.5,14.1,19.8C649.5,85.8,649.5,90.2,649.5,94.5z"/>
	<path d="M372.6,46.7c-5.9,17.4-11.7,34.9-17.6,52.3c-0.6,1.8-1.4,2.5-3.5,2.6c-10.6,0.5-10.6,0.6-14-9.5
		c-4.7-14.1-9.5-28.3-14.2-42.4c-2.5-0.2-1.3,1.8-1.4,2.7c-0.3,4.8,0.4,9.6-0.4,14.3c-0.1,10-0.3,20-0.2,30
		c0.1,7.1,1.7,8.9,8.4,10.9c4.9,1.5,1.9,5.6,2.4,8.4c0.6,3-1.9,2.4-3.6,2.4c-8.2,0-16.3,0-24.5,0c-1.8,0-4.2,0.3-3.4-2.6
		c0.7-2.7-2.6-7.1,2.1-7.9c5.7-1,7.5-4.6,7.7-9.4c0.8-20,1.4-39.9,2.2-59.9c0.1-2.3-0.4-3.3-2.9-3.3c-6.8,0-3.7-5.2-4.1-8.4
		c-0.5-4.3,3-2.5,4.9-2.6c8.7-0.2,17.3,0.1,26-0.2c3.5-0.1,5.2,0.7,6.3,4.4c3.6,11.7,7.7,23.3,11.7,34.9c0.3,0.9,0.7,1.8,1.5,3.6
		c4.4-13.3,8.7-25.6,12.7-38.1c1.1-3.5,2.7-4.9,6.6-4.8c9.5,0.3,19,0.2,28.5,0c2.9-0.1,4,0.5,4,3.7c-0.1,4.2,0.3,8.1-5.8,7.5
		c-1.9-0.2-2,1.1-1.9,2.6c0.8,22,1.6,43.9,2.2,65.9c0.1,3,1.5,3.5,4,3.6c6.2,0.4,2.6,5.2,3.3,8c0.8,3.1-1.6,2.9-3.6,2.9
		c-12,0-24-0.1-36,0c-2.4,0-4.2-0.4-3.4-3.2c0.8-2.6-2.9-7.7,3.1-7.6c5.8,0.2,6.2-2.4,6-7.1c-0.6-13.6-0.8-27.3-1.1-40.9
		c-0.7-3.6-0.1-7.2-0.4-10.9C373.9,48,374.8,46.3,372.6,46.7z"/>
</g>
</svg>
