<?xml version="1.0" encoding="utf-8"?>
<!-- Generator: Adobe Illustrator 20.0.0, SVG Export Plug-In . SVG Version: 6.00 Build 0)  -->
<svg version="1.1" id="Layer_1" xmlns="http://www.w3.org/2000/svg" xmlns:xlink="http://www.w3.org/1999/xlink" x="0px" y="0px"
	 viewBox="0 0 96 96" style="enable-background:new 0 0 96 96;" xml:space="preserve">
<style type="text/css">
	.st0{fill:#FEFEFE;}
</style>
<g>
	<path d="M32.7,20.5c5.2,0.1,9.6,1.9,13.1,5.7c1.4,1.5,2,1.6,3.4,0c5.1-5.3,11.3-7.1,18.4-5c7.2,2.2,11.5,7.1,13.2,14.4
		c0.9,3.9,0.1,7.5-1.7,11C73.7,57.1,65.4,65.1,57,72.9c-3,2.8-6,7.7-9.6,7.4C44.1,80.1,41,75.7,38,73C29.8,65.2,21.8,57.1,16,47.2
		C9.5,36.1,18.4,20.4,32.7,20.5z"/>
	<path class="st0" d="M33.3,27.2c4.3,0.3,8,2.9,10.9,6.4c2.3,2.7,3.9,3.6,6.2,0.1c1.5-2.2,3.7-3.8,6.2-5c5-2.6,10.4-1.8,14.3,2.1
		c3.9,3.9,4.6,8.9,1.7,13.9c-6.1,10.5-14.9,18.6-23.8,26.5c-1.1,1-1.8,0.8-2.8-0.1C37.3,63.4,29,55.3,22.6,45.3
		c-2.6-4-2.9-8.2-0.3-12.3C24.7,29.2,28.3,27.3,33.3,27.2z"/>
</g>
</svg>
