<?xml version="1.0" encoding="utf-8"?>
<!-- Generator: Adobe Illustrator 24.3.0, SVG Export Plug-In . SVG Version: 6.00 Build 0)  -->
<svg version="1.1" id="Layer_1" xmlns="http://www.w3.org/2000/svg" xmlns:xlink="http://www.w3.org/1999/xlink" x="0px" y="0px"
	 viewBox="0 0 96 96" style="enable-background:new 0 0 96 96;" xml:space="preserve">
<g>
	<path d="M85.4,30.9c-2.1-8.3-9.3-14.8-18.7-15.3c-6.9-0.4-12.8,2.3-17.8,7c-0.8,0.8-1.2,0.7-2,0c-5.8-5.4-12.6-8.1-20.7-6.6
		C17.2,17.7,10,26.2,10,35.6c0.1,1.1,0.1,2.4,0.4,3.6c1.2,4.3,3.7,7.8,6.8,10.9c9.5,9.5,19,19.1,28.5,28.6c2.3,2.3,2.3,2.3,4.6,0
		c9.8-9.9,19.8-19.7,29.6-29.8C84.8,43.9,87.2,38.1,85.4,30.9z M77.7,42.9c-2.4,3.5-5.6,6.2-8.5,9.1C62.5,58.9,55.7,65.6,49,72.4
		c-0.8,0.8-1.2,0.7-2,0c-8.6-8.7-17.3-17.4-25.9-26c-2.4-2.4-4.4-5.1-5.3-8.4c-0.3-0.9-0.4-1.8-0.4-2.8c0.4-5.1,2.6-9.2,7-11.9
		c4.9-3,10-3,15.1-0.5c3.7,1.8,6.9,4.2,9.5,7.3c0.8,0.9,1.2,0.8,1.9,0c3.6-4.1,7.9-7.2,13.2-8.6c7.6-2.1,16.1,3.2,18,10.9
		C81.2,36.4,79.9,39.7,77.7,42.9z"/>
</g>
</svg>
