<?xml version="1.0" encoding="utf-8"?>
<!-- Generator: Adobe Illustrator 23.1.1, SVG Export Plug-In . SVG Version: 6.00 Build 0)  -->
<svg version="1.1" id="Layer_1" xmlns="http://www.w3.org/2000/svg" xmlns:xlink="http://www.w3.org/1999/xlink" x="0px" y="0px"
	 viewBox="0 0 96 96" style="enable-background:new 0 0 96 96;" xml:space="preserve">
<style type="text/css">
	.st0{fill:#21232C;}
	.st1{fill:#FEFDF0;}
	.st2{fill:#78A1D0;}
	.st3{fill:#E5D1C4;}
	.st4{fill:#3E3F47;}
	.st5{fill:#3E4045;}
	.st6{fill:#1F212B;}
	.st7{fill:#2F3039;}
	.st8{fill:#21222C;}
	.st9{fill:#272932;}
	.st10{fill:#20222C;}
	.st11{fill:#2F313A;}
	.st12{fill:#2F3139;}
	.st13{fill:#43444A;}
	.st14{fill:#2D2E36;}
	.st15{fill:#20212B;}
	.st16{fill:#2C2D34;}
	.st17{fill:#292B33;}
	.st18{fill:#393B43;}
	.st19{fill:#20222B;}
	.st20{fill:#21232D;}
	.st21{fill:#303239;}
	.st22{fill:#34363D;}
	.st23{fill:#3C3C42;}
	.st24{fill:#41434C;}
	.st25{fill:#2B2D36;}
	.st26{fill:#4A4C50;}
	.st27{fill:#22242D;}
	.st28{fill:#313239;}
	.st29{fill:#25262F;}
</style>
<g>
	<path class="st0" d="M80.8,48.1c0,9.9,0,19.9,0,29.8c0,7.3-4.4,12-11.7,12.1c-14,0.1-28,0.1-42,0c-7.5-0.1-11.8-4.8-11.8-12.3
		c0-19.9,0-39.7,0-59.6c0-7.3,4.4-12,11.7-12.1c14-0.1,28-0.1,42,0c7.5,0.1,11.8,4.8,11.8,12.3C80.8,28.2,80.8,38.2,80.8,48.1z"/>
	<path class="st1" d="M17.2,47.8c0-9.6,0-19.3,0-28.9C17.2,11.5,20.6,8,28.1,8c13.5,0,27,0,40.5,0c6.4,0,10.2,3.7,10.2,10.2
		c0,19.9,0,39.7,0,59.6c0,6.5-3.8,10.2-10.2,10.2c-13.7,0-27.4,0-41.1,0c-6.6,0-10.3-3.6-10.3-10.3C17.1,67.7,17.2,57.8,17.2,47.8z"
		/>
	<path class="st2" d="M30.7,36.6c0.2-0.7,0.6-1.2,1.2-1.6c0.9-0.9,2-1.7,3.1-2.3c0.6-0.2,1.2-0.2,1.8-0.1c1.1,0.3,2.1,0.3,3.2,0.1
		c1.4-0.3,2.5,0.3,3.3,1.4c0.7,0.9,2.2,0.9,2.5,2.3c1.6,1.8,2,4.1,2.6,6.3c0.2,0.8,0.5,1.6-0.4,2.2c-5.5,0-11.1,0-16.6,0
		c-1,0-2-0.1-2.9,0.5c-0.9-0.9-0.2-2.1-0.4-3.1C28.6,40.3,29.5,38.4,30.7,36.6z"/>
	<path class="st3" d="M44.4,28.7L44.4,28.7c-0.6,1.1-1.5,2.1-2.3,3.1c-1.4,1.1-3,1.5-4.7,1.3c-0.9-0.3-1.7-0.4-2.6-0.8
		c-0.8-0.9-1.6-1.7-2.2-2.7c-0.5-1.6-0.7-3.1-0.2-4.7c0.2-0.9,0.9-1.5,1.5-2.1c0.6-0.6,1.2-1.3,2.1-1.5c1.6-0.4,3.2-0.6,4.7,0.3
		c1.3,0.5,2.2,1.5,2.8,2.8C44.6,25.6,44.4,27.2,44.4,28.7z"/>
	<path class="st4" d="M68.2,52c-13.5,0-27,0-40.5,0c0-0.2,0-0.4,0-0.6c13.5,0,27,0,40.5,0C68.2,51.6,68.2,51.8,68.2,52z"/>
	<path class="st5" d="M22.5,20c-0.1-1.1,0.3-2,1.3-3.2c0,21,0,41.5,0,62c-0.2,0-0.4,0.1-0.6,0.1c-0.2-1-0.4-2-0.6-2.9
		c0.3-0.7,0.2-1.4,0.2-2.1c0-17.3,0-34.6,0-51.9C22.7,21.4,22.7,20.7,22.5,20z"/>
	<path class="st6" d="M22.5,20c0.7,0.8,0.4,1.7,0.4,2.6c0,17,0,33.9,0,50.9c0,0.9,0.3,1.8-0.4,2.6C22.5,57.3,22.5,38.7,22.5,20z"/>
	<path class="st7" d="M44.1,58.4c8,0,16,0,24.1,0c0,0.2,0,0.3,0,0.5c-8,0-16.1,0-24.1,0C44.1,58.8,44.1,58.6,44.1,58.4z"/>
	<path class="st8" d="M27.8,72.9c8,0,16,0,24,0c0,0.2,0,0.4,0,0.5c-8,0-16,0-24,0C27.8,73.3,27.8,73.1,27.8,72.9z"/>
	<path class="st6" d="M29,81.9c12.7,0,25.3,0,38,0c0.6-0.2,1.2-0.6,1.3,0.5c-2.5,0.6-5.1,0.3-7.7,0.3c-9.5,0-19.1,0-28.6,0
		c-1.4,0-2.8-0.2-4.1-0.3C27.8,81.4,28.5,81.7,29,81.9z"/>
	<ellipse class="st9" cx="36.2" cy="66" rx="11.9" ry="0.4"/>
	<path class="st10" d="M68.2,22.6c-5.3,1-10.6,1-15.8,0C57.6,22.6,62.9,22.6,68.2,22.6z"/>
	<path class="st9" d="M52.3,29.8c5.3,0,10.6,0,15.9,0c0,0.2,0,0.4,0,0.6c-5.3,0-10.6,0-15.8,0C52.4,30.1,52.3,29.9,52.3,29.8z"/>
	<path class="st11" d="M52.3,36.9c5.3,0,10.6,0,15.9,0c-5.3,1.1-10.6,1-15.9,0.7C52.3,37.4,52.3,37.2,52.3,36.9z"/>
	<path class="st4" d="M68.2,44.7c-5.3,0-10.6,0-15.9,0c0-0.2,0-0.4,0-0.6c5.3,0,10.6,0,15.9,0C68.2,44.4,68.2,44.5,68.2,44.7z"/>
	<path class="st6" d="M54.6,72.8c4.5,0,9,0,13.6,0c0,0.2,0,0.3,0,0.5c-4.5,0-9.1,0-13.6,0C54.6,73.1,54.6,73,54.6,72.8z"/>
	<path class="st12" d="M41.5,59.1c-4.6,0-9.1,0-13.7,0c0-0.2,0-0.3,0-0.5c4.6,0,9.1,0,13.7,0C41.4,58.8,41.5,59,41.5,59.1z"/>
	<path class="st13" d="M73.5,76c-0.3,1.7-0.3,1.7-1.4,3c0.8-6.8,0.2-13.5,0.4-20.2c0-0.5-0.1-1,0.6-1.2c0.6,4.6,0.1,9.3,0.3,13.9
		C73.4,73,73.1,74.5,73.5,76z"/>
	<path class="st14" d="M58,66.3c-3.6,0-7.2,0-10.7,0c0-0.2,0-0.4,0-0.5c3.6,0,7.2,0,10.7,0C58,65.9,58,66.1,58,66.3z"/>
	<path class="st15" d="M73.5,76c-1-3.4-0.3-7-0.4-10.5c-0.1-2.6,0-5.3,0-7.9c0.7,0.1,0.6,0.7,0.6,1.1C73.6,64.5,73.6,70.2,73.5,76z"
		/>
	<path class="st9" d="M68.2,65.9c-2.5,0.5-5.1,0.8-7.6,0C63.1,65,65.7,65.4,68.2,65.9z"/>
	<path class="st16" d="M37.2,32.6c1.8,0.1,3.3-0.4,4.8-1.3c0.3-0.1,0.5,0.1,0.5,0.4c-0.5,1,1,1.5,0.6,2.4c-2-1.9-4.7,0.4-6.8-1
		C36.6,32.8,37,32.8,37.2,32.6z"/>
	<path class="st17" d="M73.4,49.3c0,2.2,0,4.4,0,6.6C72.3,53.7,72.6,51.5,73.4,49.3z"/>
	<path class="st18" d="M47.9,42.7c-0.8-2.1-1.5-4.1-2.3-6.2c2.5,0.8,2.1,3.2,2.8,5C48.2,41.8,48.5,42.5,47.9,42.7z"/>
	<path class="st15" d="M30.7,36.6c-0.4,2-1.4,3.7-2.3,5.5c-0.2-0.1-0.4-0.4-0.5-0.6C28.4,39.6,28.8,37.7,30.7,36.6z"/>
	<path class="st19" d="M33,24.7c-0.6,1.6-0.4,3.2,0.1,4.8c0.2,0.6-0.1,0.8-0.6,0.6c-1.1-2.2-1.1-4.3,0.1-6.5
		C32.9,23.9,32.8,24.4,33,24.7z"/>
	<path class="st0" d="M40.8,21.8c-1.6-0.5-3.1-0.6-4.7-0.1c-0.4-0.1-0.6-0.4-0.6-0.9c2-0.4,4-0.8,5.9,0.5
		C41.5,21.8,41.4,22.1,40.8,21.8z"/>
	<path class="st20" d="M44.4,28.7c-1.1-1.3-0.2-3.2-1.2-4.6c-0.3-0.5,0-0.6,0.5-0.5C44.7,25.2,45.6,26.8,44.4,28.7z"/>
	<path class="st21" d="M73.3,43.4c0.5,2,0.5,3.2,0.1,5.1C72.3,46.5,72.4,45.3,73.3,43.4z"/>
	<path class="st19" d="M47.9,42.7c0.2-0.4,0.4-0.8,0.6-1.3c0.2,1.1,0.5,2.3,0.5,3.4c0,1.1-0.6,1.1-1.1,0.1
		C47.9,44.2,47.9,43.5,47.9,42.7z"/>
	<path class="st22" d="M29,14.1c-1.4,0.6-2.8,1.2-4.6,2.1c0.9-1.8,2-2.2,3.3-2.6C28.1,13.8,28.7,13.6,29,14.1z"/>
	<path class="st23" d="M43.7,23.6c-0.2,0.2-0.3,0.3-0.5,0.5c-0.8-0.8-1.6-1.5-2.5-2.3c0.2-0.2,0.4-0.3,0.6-0.5
		C42.6,21.7,43.4,22.3,43.7,23.6z"/>
	<path class="st24" d="M35,33.2c-1,0.7-1.9,1.7-3.2,1.8c0.1-1.5,1.5-1.7,2.3-2.5c0.1,0,0.2,0,0.3,0C34.8,32.7,35,32.9,35,33.2z"/>
	<path class="st15" d="M42.6,31.8c-0.2-0.1-0.3-0.3-0.5-0.4c0.7-0.9,1.1-2.3,2.4-2.7C44.5,30,43.5,30.9,42.6,31.8z"/>
	<path class="st15" d="M33,24.7c-0.2-0.4-0.3-0.7-0.5-1.1c0.3-0.5,0.5-1.1,1.2-1.3c0.3-0.1,0.4,0.1,0.5,0.4
		C33.8,23.4,33.4,24.1,33,24.7z"/>
	<path class="st15" d="M34.2,22.7c-0.2-0.1-0.3-0.2-0.5-0.4c0.4-0.7,0.7-1.5,1.8-1.6c0.2,0.3,0.4,0.6,0.6,0.9
		C35.4,22,34.8,22.4,34.2,22.7z"/>
	<path class="st25" d="M32.5,30.1c0.2-0.2,0.4-0.4,0.6-0.6c0.6,0.7,1.3,1.4,1.9,2.2c0.3,0.5,0.1,0.7-0.5,0.8l-0.1,0c0,0-0.1,0-0.1,0
		C33.6,31.7,33,30.9,32.5,30.1z"/>
	<path class="st26" d="M29,81.9c-0.4,0.2-0.8,0.4-1.3,0.5c-0.8-0.2-1.7-0.3-2-1.5C27.1,80.9,28.1,81.4,29,81.9z"/>
	<path class="st27" d="M27.8,41.4c0.2,0.2,0.3,0.4,0.5,0.6c0,1.1,0.1,2.2,0.1,3.4C26.5,44.4,28.2,42.8,27.8,41.4z"/>
	<path class="st26" d="M68.2,82.5c-0.4-0.2-0.8-0.4-1.3-0.5c0.3-0.2,0.7-0.4,1-0.5c0.6-0.1,1.5-0.9,1.7,0
		C70,82.3,68.9,82.3,68.2,82.5z"/>
	<path class="st28" d="M29,14.1c-0.4-0.2-0.9-0.3-1.3-0.5c0.5-0.1,0.9-0.3,1.4-0.3c0.4,0,1.1-0.2,1.1,0.5
		C30.2,14.3,29.5,14.1,29,14.1z"/>
	<path class="st29" d="M34.5,32.5c0.2-0.3,0.3-0.5,0.5-0.8c0.8,0.3,1.5,0.6,2.3,0.9c-0.3,0.2-0.5,0.4-0.8,0.6c-0.5,0-1,0-1.4,0
		C34.8,33,34.7,32.7,34.5,32.5z"/>
</g>
</svg>
