<?xml version="1.0" encoding="utf-8"?>
<!-- Generator: Adobe Illustrator 22.0.1, SVG Export Plug-In . SVG Version: 6.00 Build 0)  -->
<svg version="1.1" id="Layer_1" xmlns="http://www.w3.org/2000/svg" xmlns:xlink="http://www.w3.org/1999/xlink" x="0px" y="0px"
	 viewBox="0 0 96 96" style="enable-background:new 0 0 96 96;" xml:space="preserve">
<style type="text/css">
	.st0{fill:#FFFFFF;}
</style>
<g>
	<path class="st0" d="M47.8,5.6c5.7,0,11.3,0,17,0c14.4,0.1,25.5,11.1,25.6,25.5c0.1,11.3,0.1,22.6,0,33.9
		c-0.1,14.6-11.1,25.5-25.7,25.5c-11.2,0-22.3,0-33.5,0c-12.3,0-22.4-8-25.1-20c-0.4-1.9-0.6-3.9-0.6-5.9c-0.1-11.1,0-22.2,0-33.3
		c0-13.5,9-24,22.4-25.7c4.8-0.6,9.7-0.2,14.5-0.2C44.2,5.6,46,5.6,47.8,5.6z M69.2,48.3C69.4,36.6,60,27,48.1,26.9
		c-11.7-0.1-21.1,9.2-21.3,21C26.6,59.6,36,69.2,47.9,69.3C59.5,69.4,69,60,69.2,48.3z M71.2,28.7c2.1,0,3.8-1.7,3.8-3.7
		c0-2.2-1.8-3.9-4.1-3.9c-1.9,0-3.6,1.8-3.6,3.7C67.2,26.9,69,28.7,71.2,28.7z"/>
	<path class="st0" d="M65.3,48.1c0,9.7-7.7,17.3-17.4,17.3c-9.6,0-17.1-7.7-17.2-17.3c-0.1-9,7.6-17.6,18.2-17.3
		C57.7,31,65.3,38.9,65.3,48.1z"/>
</g>
</svg>
