<?xml version="1.0" encoding="utf-8"?>
<!-- Generator: Adobe Illustrator 22.0.1, SVG Export Plug-In . SVG Version: 6.00 Build 0)  -->
<svg version="1.1" id="Layer_1" xmlns="http://www.w3.org/2000/svg" xmlns:xlink="http://www.w3.org/1999/xlink" x="0px" y="0px"
	 viewBox="0 0 96 96" style="enable-background:new 0 0 96 96;" xml:space="preserve">
<style type="text/css">
	.st0{fill:#FBFBFB;}
</style>
<path d="M76.1,19.5c0-9.2,0.6-12.4-7.1-12.4H28.4c-6.6,0-6.6,3.2-6.6,10.6c0,20.6,0,41.1,0.1,61.7C21.9,86.5,25.7,90,33,90
	c10.5,0,21,0,31.4,0C72.6,90,76,86.6,76,78.5C76,58.8,76.1,39.1,76.1,19.5z M49,85.9c-2.4,0-3.9-1.3-4-3.6c-0.2-2.5,1.3-4.1,3.8-4.3
	c2.6-0.2,3.9,1.4,4.3,3.9C52.8,84.4,51.6,85.9,49,85.9z M69.8,70.3c0,2.8-0.9,3.9-3.7,3.8c-11.4-0.1-22.8-0.2-34.1,0
	c-3.2,0.1-3.8-1.3-3.7-4.1c0.2-8.3,0-16.7,0-25c0-8.1,0.2-16.1,0-24.2c-0.1-3.1,0.7-4.3,4.1-4.3c11.2,0.2,22.4,0.1,33.6,0
	c2.8,0,3.9,0.8,3.9,3.7C69.7,36.9,69.7,53.6,69.8,70.3z"/>
<path class="st0" d="M49.2,13.3c-0.8,0-1.4,0-2,0c-1.2-0.1-2.9,0.2-2.9-1.6c0-1.4,1.5-1.4,2.7-1.4c0.6,0,1.2-0.1,1.7,0
	c1.6,0.4,4.5-1.1,4.6,1.4C53.5,14.6,50.4,12.7,49.2,13.3z"/>
</svg>
