<?xml version="1.0" encoding="utf-8"?>
<!-- Generator: Adobe Illustrator 20.0.0, SVG Export Plug-In . SVG Version: 6.00 Build 0)  -->
<svg version="1.1" id="Layer_1" xmlns="http://www.w3.org/2000/svg" xmlns:xlink="http://www.w3.org/1999/xlink" x="0px" y="0px"
	 viewBox="0 0 1920 1080" style="enable-background:new 0 0 1920 1080;" xml:space="preserve">
<style type="text/css">
	.st0{fill:#FFFFFF;}
</style>
<g>
	<polygon class="st0" points="-50,682 -37,695 -50,695 	"/>
	<polygon class="st0" points="275.3,682 272.1,685.2 269,682 	"/>
	<polygon class="st0" points="272.1,685.2 282,695 262.3,695 	"/>
	<polygon class="st0" points="594.2,682 591.1,685.2 587.9,682 	"/>
	<polygon class="st0" points="591.1,685.2 600.9,695 581.2,695 	"/>
	<polygon class="st0" points="913.2,682 910,685.2 906.8,682 	"/>
	<polygon class="st0" points="910,685.2 919.8,695 900.2,695 	"/>
	<polygon class="st0" points="1232.1,682 1228.9,685.2 1225.8,682 	"/>
	<polygon class="st0" points="1228.9,685.2 1238.8,695 1219.1,695 	"/>
	<polygon class="st0" points="1551.1,682 1547.9,685.2 1544.7,682 	"/>
	<polygon class="st0" points="1547.9,685.2 1557.7,695 1538.1,695 	"/>
	<polygon class="st0" points="1920,682 1920,695 1907,695 	"/>
	<polygon class="st0" points="0,385 14,385 0,399 	"/>
	<polygon class="st0" points="369,399 372.1,395.8 375.3,399 	"/>
	<polygon class="st0" points="383,385 372.1,395.8 361.3,385 	"/>
	<polygon class="st0" points="687.9,399 691.1,395.8 694.2,399 	"/>
	<polygon class="st0" points="701.9,385 691.1,395.8 680.2,385 	"/>
	<polygon class="st0" points="1006.8,399 1010,395.8 1013.2,399 	"/>
	<polygon class="st0" points="1020.8,385 1010,395.8 999.2,385 	"/>
	<polygon class="st0" points="1325.8,399 1328.9,395.8 1332.1,399 	"/>
	<polygon class="st0" points="1339.8,385 1328.9,395.8 1318.1,385 	"/>
	<polygon class="st0" points="1644.7,399 1647.9,395.8 1651.1,399 	"/>
	<polygon class="st0" points="1658.7,385 1647.9,395.8 1637.1,385 	"/>
	<polygon class="st0" points="1970,385 1970,399 1956,385 	"/>
</g>
<g>
	<polygon class="st0" points="269,682 275.3,682 272.1,685.2 	"/>
	<polygon class="st0" points="594.2,682 591.1,685.2 587.9,682 	"/>
	<polygon class="st0" points="587.9,682 594.2,682 591.1,685.2 	"/>
	<polygon class="st0" points="913.2,682 910,685.2 906.8,682 	"/>
	<polygon class="st0" points="1970,399 1920,682 1707.4,844.6 1557.7,695 1547.9,685.2 1551.1,682 1544.7,682 1547.9,685.2 
		1388.4,844.6 1238.8,695 1228.9,685.2 1232.1,682 1225.8,682 1228.9,685.2 1219.1,695 1069.5,844.6 919.8,695 910,685.2 913.2,682 
		906.8,682 910,685.2 900.2,695 750.5,844.6 600.9,695 591.1,685.2 594.2,682 587.9,682 591.1,685.2 581.2,695 431.6,844.6 
		272.1,685.2 275.3,682 269,682 272.1,685.2 262.3,695 112.6,844.6 -50,682 0,399 212.6,236.4 361.3,385 372.1,395.8 369,399 
		375.3,399 372.1,395.8 383,385 531.6,236.4 680.2,385 691.1,395.8 687.9,399 694.2,399 691.1,395.8 701.9,385 850.5,236.4 
		999.2,385 1010,395.8 1006.8,399 1013.2,399 1010,395.8 1020.8,385 1169.5,236.4 1318.1,385 1328.9,395.8 1325.8,399 1332.1,399 
		1328.9,395.8 1339.8,385 1488.4,236.4 1637.1,385 1647.9,395.8 1644.7,399 1651.1,399 1647.9,395.8 1658.7,385 1807.4,236.4 	"/>
	<polygon class="st0" points="275.3,682 272.1,685.2 269,682 	"/>
	<polygon class="st0" points="1225.8,682 1232.1,682 1228.9,685.2 	"/>
	<polygon class="st0" points="1551.1,682 1547.9,685.2 1544.7,682 	"/>
	<polygon class="st0" points="1551.1,682 1547.9,685.2 1544.7,682 	"/>
	<polygon class="st0" points="906.8,682 913.2,682 910,685.2 	"/>
	<polygon class="st0" points="1232.1,682 1228.9,685.2 1225.8,682 	"/>
	<polygon class="st0" points="1328.9,395.8 1332.1,399 1325.8,399 	"/>
	<polygon class="st0" points="1651.1,399 1644.7,399 1647.9,395.8 	"/>
	<polygon class="st0" points="1010,395.8 1013.2,399 1006.8,399 	"/>
	<polygon class="st0" points="1332.1,399 1325.8,399 1328.9,395.8 	"/>
	<polygon class="st0" points="1651.1,399 1644.7,399 1647.9,395.8 	"/>
	<polygon class="st0" points="372.1,395.8 375.3,399 369,399 	"/>
	<polygon class="st0" points="694.2,399 687.9,399 691.1,395.8 	"/>
	<polygon class="st0" points="375.3,399 369,399 372.1,395.8 	"/>
	<polygon class="st0" points="691.1,395.8 694.2,399 687.9,399 	"/>
	<polygon class="st0" points="1013.2,399 1006.8,399 1010,395.8 	"/>
</g>
</svg>
