<?xml version="1.0" encoding="utf-8"?>
<!-- Generator: Adobe Illustrator 22.0.1, SVG Export Plug-In . SVG Version: 6.00 Build 0)  -->
<svg version="1.1" id="Layer_1" xmlns="http://www.w3.org/2000/svg" xmlns:xlink="http://www.w3.org/1999/xlink" x="0px" y="0px"
	 viewBox="0 0 96 96" style="enable-background:new 0 0 96 96;" xml:space="preserve">
<path d="M93.1,80.7c-0.1-0.8-0.4-1.5-0.7-2.3c-1.7-5.1-3.3-10.1-5-15.2c-0.3-0.9-0.4-1.9-0.4-2.8c0.1-15.2,0.2-30.5,0.3-45.7
	c0-4.6-1.1-5.7-5.8-5.7c-22.1,0-44.1,0-66.2,0c-4.7,0-5.9,1.1-5.8,5.7c0,15.2,0.2,30.5,0.3,45.7c0,1-0.1,1.9-0.4,2.9
	c-1.6,5.1-3.2,10.2-5,15.2c-2.4,6.9-0.1,10.3,7,10.3c12.3,0,24.6,0,37,0c12.6,0,25.3,0,37.9,0C92,88.7,94,86.2,93.1,80.7z
	 M12.4,15.7c0-3.7,0.2-3.9,3.9-3.9c10.7,0,21.4,0,32.1,0h30.2c1.3,0,2.7-0.1,3.9,0.2c0.7,0.2,1.5,1.1,1.8,1.8
	c0.3,0.8,0.2,1.9,0.2,2.9v38c0,0.6,0,1.3,0,1.9c0.1,2-0.9,3-2.9,2.9c-1,0-1.9,0-2.9,0H18.3c-1,0-1.9,0-2.9,0c-2,0.1-3-0.9-2.9-2.9
	c0-0.3,0-0.7,0-1C12.4,42.3,12.4,29,12.4,15.7z M25.6,69.3c-1.3,0-2.6,0-3.9-0.2c-0.5-0.1-1.2-0.7-1.3-1.2c-0.5-2.4,1.7-5.2,4.1-5.4
	c1.1-0.1,2.3,0,3.4,0h40.8c1.1,0,2.3,0,3.4,0c2.5,0.2,4.7,3,4.2,5.4c-0.1,0.5-0.8,1.1-1.3,1.2c-1.3,0.2-2.6,0.2-3.9,0.2H25.6z
	 M56.2,76c-2.6,0.1-5.1,0-7.7,0c-2.6,0-5.1,0.1-7.7,0c-1.5,0-1.9-0.9-1.3-2.3c0.6-1.4,1.6-2.4,3.3-2.5c3.8,0,7.7,0,11.6,0
	c1.7,0,2.6,1,3.3,2.5C58.1,75.1,57.6,76,56.2,76z M88.3,85.8c-1.3,0.1-2.6,0.1-3.9,0.1c-12,0-24,0-36,0c-12,0-24,0-36,0
	c-1.3,0-2.6,0-3.9-0.1c-1.4-0.1-1.9-1.1-1.9-2.3c0-1.3,0.5-2.2,1.9-2.3C9.6,81,10.8,81,11.9,81h73c1.1,0,2.3,0,3.4,0.1
	c1.4,0.1,1.9,1.1,1.9,2.3S89.8,85.7,88.3,85.8z"/>
</svg>
