<?xml version="1.0" encoding="utf-8"?>
<!-- Generator: Adobe Illustrator 22.0.1, SVG Export Plug-In . SVG Version: 6.00 Build 0)  -->
<svg version="1.1" id="Layer_1" xmlns="http://www.w3.org/2000/svg" xmlns:xlink="http://www.w3.org/1999/xlink" x="0px" y="0px"
	 viewBox="0 0 395.7 200" style="enable-background:new 0 0 395.7 200;" xml:space="preserve">
<g>
	<path d="M259.1,132.6c-11.7,6.3-20.3,13-33.2,12.2c-56.2-3.2-111.4,5.6-166.1,17.3c-2.2,0.5-4.4,0.8-7.9,1.5
		c5.6-17.1,10.9-33.4,16.2-49.5c5.7-17.1,11.4-34.1,17.3-51.1c1.5-4.2,2.7-8.1-0.9-12.2c16.2-2.5,31.8-4.8,47.2-7.5
		c5.6-1,6.1,0.3,4.4,5.4c-8.3,25.1-16.3,50.4-24.3,75.6c-0.6,1.9-1.1,3.9-2,6.7C159.4,127.9,208.3,125,259.1,132.6z"/>
	<path d="M246.3,145.5c11.4-9,22.9-13.9,36.9-9.7c5.1,1.5,10.7,1.9,16.1,1.1c4.3-0.6,8.5-2.3,9.2-7c0.6-4.2-3.4-6-6.7-7.5
		c-6.1-2.8-12.4-5-17.9-9c-13.8-9.9-14.2-24.6-1.1-35.6c14-11.6,43.8-11.8,58.2-0.6c3.1,2.4,3.8,4.1,0.7,7.2
		c-4.2,4.2-7.8,8.8-11.8,13.3c-5.9-8.2-13.7-10.2-22.7-8.8c-3.5,0.5-6.6,2.6-6.9,6.3c-0.3,3.4,2.9,4.5,5.5,5.6
		c5.4,2.3,11.1,4.1,16.4,6.7c8.9,4.3,15.9,10.8,15.3,21.2c-0.6,10.4-6.7,18.1-16.8,22.1c-7.9,3.1-16.1,3.4-24.3,2.6
		c-0.8-0.1-1.5-0.1-2.3-0.3C278.5,150.8,262.8,148.2,246.3,145.5z"/>
	<path d="M169.8,121.3c5.1-15.2,10.1-29.8,14.8-44.4c1.1-3.3,3.3-6.6,1.2-10.3c-1.6-2.8,1.2-3,2.6-3.4c16.6-4.6,33.5-6.1,50.4-1.9
		c12,3,17.1,11.6,13.8,23.6c-3.2,11.9-7.8,23.4-11.8,35.1c-0.3,0.9-0.8,1.9-1.5,2.6c-0.8,0.8-23.4-0.1-24.5-0.7
		c-2.5-1.5-0.5-3.3,0-4.7c3.2-9.8,6.7-19.5,9.9-29.3c1.2-3.6,3.2-8.2-2.7-9.3c-4.7-0.9-10.3-2.8-12.6,4.7
		c-3.3,11.1-7.4,21.9-10.9,33c-1.2,3.7-2.9,5.4-7,5.1C184.6,121,177.7,121.3,169.8,121.3z"/>
	<path d="M128.4,122.1c5.4-16.1,10.8-32.1,16-48.2c0.8-2.6,2.3-3.6,4.9-4c5.6-0.7,11.2-1.8,16.7-2.7c5.3-0.8,7.6,1.6,5.9,6.6
		c-4.9,14.9-10.1,29.7-15.1,44.5c-1,3.1-3.2,3.7-5.9,3.7C143.8,122.1,136.6,122.1,128.4,122.1z"/>
	<path d="M285.9,50.6c-0.5,8-10.6,21.5-17.4,24c-4,1.4-5.2-2.4-7.6-4c-2.8-2-0.4-3.3,0.8-4.9c3.6-4.8,7.3-9.6,3.4-16
		c-0.3-0.4-0.5-1.3-0.4-1.4c5.1-3.6,11.3-5.1,17.1-5.5C286.9,42.5,285.2,48,285.9,50.6z"/>
	<path d="M149.2,63.2c0.2-8.8,3.9-12.8,11.8-12.9c3.1-0.1,6.1-1.1,9.1-1.4c3.1-0.3,7.4-2,8.2,2.9c0.8,4.5-2.2,7.3-6.5,8
		C164.5,61,157.1,62,149.2,63.2z"/>
	<path d="M127.4,171.5c-3.3,2.1-7-5.6-9.1,1.3c-0.1,0.2-1.9,0.3-2,0.1c-1.4-3.8-3.4-8.1-1.8-11.8c1.4-3.2,5.8-3,9-2.3
		c3.8,0.8,4.4,3.9,2.6,7.2C124.7,168.4,128.5,169.3,127.4,171.5z"/>
	<path d="M174.3,166.5c-3.9,1.7-4.5-11.8-8.3,0c-0.7,2.2-3.1,1.4-3.5-1c-0.4-2.3-0.4-4.6-0.5-6.9c0-1.4-0.7-3.4,1-4.1
		c2-0.9,2.3,1,3.1,2.4c1.3,2.4,2.9,3,3.9-0.2c0.5-1.5,0.6-3.2,2.8-2.5c1.5,0.5,1.5,2,1.5,3.2C174.3,160.5,174.3,163.7,174.3,166.5z"
		/>
	<path d="M149.4,163.3c-3.6-0.2-5.8-2.7-4.2-5.5c2.6-4.6,7.4-2.7,11.6-2.3c-0.5,4.2-4.2,2.2-6.3,4c1.3,0.3,2.2,0.5,3.2,0.6
		c2.4,0.3,4.6,1.2,5,3.9c0.6,3.7-2.8,3.9-4.9,4.7c-2.4,0.9-5.3,1.8-7.2-1.2c-0.1-0.2,0.8-1.1,1.2-1.7
		C148.9,165.4,150.4,165.1,149.4,163.3z"/>
	<path d="M220.6,155.1c4-3.8,7.8-1.4,10.6,1.2c2.9,2.7-1.7,5.7-1.4,9.1c0.1,1.4-2.1,1.5-2.8,0.3c-2.6-4.3-4.3-1.1-6.2,0.5
		C219.5,162.5,219.7,158.8,220.6,155.1z"/>
	<path d="M245.8,160.1c-0.5,1.6,0,2.9,0.7,4.4c0.6,1.3,3.2,3,0.5,4.4c-1.6,0.9-2.6-0.8-3.6-2.1c-0.6-0.8-0.4-2.7-2.3-2.1
		c-4.9,1.4-4.9,1.4-4.5-3.4c0.5-6.7,0.5-6.7,7.3-3.2C244.9,158.4,245.6,159,245.8,160.1z"/>
	<path d="M193.1,160.8c-3.9-0.2-4.7,3.2-6.6,7.2c-1.8-5.9-2.1-10.1-0.6-14.5c3.7,2.4,9.2-1.2,11.2,1.1c2.1,2.5,3,7.9-1,11.3
		c-1.3-1.3-0.5-2.9-0.9-4.4C194.9,160.6,194.8,158.8,193.1,160.8z"/>
	<path d="M215.1,166.4c-4.1-0.6-7.5-3.4-10.7-0.2c-0.3,0.3-1.1,0.3-1.4,0.1c-1.4-0.8-1.3-2.5-0.7-3.3c2.2-3.2,1.8-8.3,6.3-9.8
		c2.2-0.8,3.4,1.4,3.3,3.2C211.7,159.7,214.1,162.3,215.1,166.4z"/>
	<path d="M100.2,166.3c-0.1-3.4,4.8-6.5,8.1-5c0.6,0.3,1.2,1.6,1.2,1.6c-3.7,3-2.2,7.9-4.2,11.5c-0.3,0.6-1,1.1-1.6,1.2
		c-1.2,0.2-1.7-0.7-2-1.8C101.2,171.3,100.7,168.8,100.2,166.3z"/>
	<path d="M282.6,161.1c-3.5,1.8-6.2,4.2-6,8.4c0,1.6-0.8,3.1-2.8,2.7c-1.6-0.3-1.7-1.7-1.4-3c0.7-3.1,2.2-6-1.9-8.6
		c-1.6-1,0.7-2.5,2.3-2.3C275.9,158.7,279.4,158.1,282.6,161.1z"/>
	<path d="M255.3,169.2c-0.2-1.3-0.4-2.5-0.4-3.8c-0.2-9.5,2.3-10.9,11.6-6.7c-1.4,3.4-4.7,0.3-6.6,2.1c-0.5,3.5,3.4,1,4.1,3
		c-0.9,2.2-4,0.3-5,2.2c-0.1,2.7,7-0.5,3.6,4.7C260.3,169.1,257.4,171.2,255.3,169.2z"/>
	<path d="M140.1,164.3c-1,1.2-3.2-0.1-3.9,1.8c1.4,2.9,5.3-1.7,6.3,2.1c-6.5,3.9-8.4,3.5-10.1-1.8c-0.7-3-1.9-6,0.9-8.5
		c1.5-0.1,2.7,0.2,2.3,2.1l0,0c-1,2.5,1,2.1,2.3,2.3C139.2,162.5,140.6,162.3,140.1,164.3z"/>
	<path d="M296.4,167.9c4.2,0.3,8.4,0.9,12.1,3.5c-5.8,0.6-11.4-0.5-17-2C292.8,167.7,295.1,169.2,296.4,167.9z"/>
	<path d="M245.8,160.1c-0.7-0.7-1.3-1.3-2-2c1.3-2.2,2.9-3.4,6.1-2.4C249.8,158.4,247.5,159.1,245.8,160.1z"/>
	<path d="M296.4,167.9c-1.6,0.5-3.2,1-4.9,1.5c-2-0.6-4.5,0.8-6.6-2.7C289.3,167.2,292.9,167.6,296.4,167.9z"/>
	<path d="M83.3,174c-2.3,1.6-5,1.3-7.5,1.7c-1.7,0.7-2.1-0.1-1.9-1.6c2.6-0.5,5.1-1.1,7.7-1.6C82.3,172.9,83.2,173,83.3,174z"/>
	<path d="M135.7,160c-0.5-0.6-1.1-1.1-1.6-1.7c-0.5-0.3-0.7-0.6-0.5-0.9c0.2-0.3,0.4-0.4,0.6-0.4c2.3-0.2,4.5-0.4,7-0.7
		C140.9,160.8,138.1,160,135.7,160z"/>
	<path d="M83.3,174c-0.6-0.5-1.2-1-1.7-1.5c2.3-0.6,4.8-3.2,7.1,0.4C87,174.3,85.1,173.9,83.3,174z"/>
	<path d="M73.9,174.1c0.6,0.5,1.2,1.1,1.9,1.6c-2.7,1.9-5.5,1.6-8.7,0.8C69.1,174.5,71.4,174,73.9,174.1z"/>
	<path d="M134.1,157.1c0,0.4,0,0.8-0.1,1.3c-2.2,2.4-0.7,5.4-1.6,8.1C132.3,163.2,127.9,159.2,134.1,157.1z"/>
	<path d="M140.1,164.3c-0.6-2.3-6.7,1.1-4.4-4.2c0.5,2.2,2.3,1.2,3.6,1.6C141,162.1,142.4,162.6,140.1,164.3z"/>
	<path d="M149.4,163.3c1.5-0.2,4.1-0.3,3.9,0.9c-0.6,3.1-3.5,1.4-5.4,1.7C148.4,165,148.9,164.2,149.4,163.3z"/>
	<path d="M220.6,155.1c0,3.7,0.1,7.4,0.1,11.1C218.4,162.5,219.4,158.8,220.6,155.1z"/>
	<path d="M193.1,160.8c2.8-0.7,2.8-0.7,2.9,5.2C193,165.4,196,161.5,193.1,160.8z"/>
	<path d="M255.3,169.2c2.5,0.1,5.1-0.3,7.3,1.4C260,170.6,257.3,171.5,255.3,169.2z"/>
	<path d="M121.3,162.1c0.2,0.2,0.9,0.6,1,1.2c0.3,1.4-1,1.5-1.8,1.6c-0.9,0.1-2.1,0-1.7-1.5C119,162.3,119.8,161.8,121.3,162.1z"/>
</g>
</svg>
