<?xml version="1.0" encoding="utf-8"?>
<!-- Generator: Adobe Illustrator 23.1.1, SVG Export Plug-In . SVG Version: 6.00 Build 0)  -->
<svg version="1.1" id="Layer_1" xmlns="http://www.w3.org/2000/svg" xmlns:xlink="http://www.w3.org/1999/xlink" x="0px" y="0px"
	 viewBox="0 0 96 96" style="enable-background:new 0 0 96 96;" xml:space="preserve">
<style type="text/css">
	.st0{fill:#20222B;}
	.st1{fill:#F9E7E6;}
	.st2{fill:#FDD5B4;}
	.st3{fill:#FDD4B4;}
	.st4{fill:#EF5C6D;}
	.st5{fill:#20222C;}
	.st6{fill:#272831;}
	.st7{fill:#272832;}
	.st8{fill:#FDFCF0;}
	.st9{fill:#4C2C37;}
	.st10{fill:#4A353D;}
	.st11{fill:#4B2C37;}
	.st12{fill:#462B36;}
	.st13{fill:#23242E;}
	.st14{fill:#22232D;}
	.st15{fill:#502E39;}
	.st16{fill:#2A252F;}
	.st17{fill:#4C2D38;}
	.st18{fill:#4D3C43;}
	.st19{fill:#21232D;}
	.st20{fill:#20212B;}
	.st21{fill:#22222C;}
	.st22{fill:#21232C;}
	.st23{fill:#342B35;}
	.st24{fill:#2A2932;}
	.st25{fill:#5F323E;}
	.st26{fill:#542F3A;}
	.st27{fill:#26262F;}
	.st28{fill:#25232C;}
	.st29{fill:#21222C;}
	.st30{fill:#522E39;}
</style>
<g>
	<path class="st0" d="M4.9,56.1c0-9.9,0.1-19.9-0.1-29.8c0-2.1,0.5-3.2,2.6-3.9c7.5-2.2,15.1-4.5,22.5-7c1.6-0.5,3-0.4,4.6,0.1
		c5.7,1.8,11.4,3.4,17.1,5.3c1.9,0.6,2.6,0.2,3.3-1.7C58.7,9.2,68.8,4.4,78.5,7.8c9.6,3.3,15.5,13.8,11.4,23.4
		c-3.7,8.4-3.5,16.8-3.5,25.4c0,7.3-0.1,14.7,0.1,22c0,2-0.7,2.8-2.4,3.3c-7.9,2.4-15.7,4.8-23.5,7.3c-1.2,0.4-2.1,0.2-3.2-0.1
		c-7.3-2.3-14.6-4.4-21.9-6.7c-2.1-0.7-4-0.7-6.2,0c-7,2.3-14.2,4.3-21.2,6.7c-2.7,0.9-3.1,0-3.1-2.4C4.9,76.4,4.9,66.3,4.9,56.1z"
		/>
	<path class="st1" d="M32.6,50.8c0-11,0-22,0-33.4c6.9,2.1,13.3,4.1,19.7,6c1,0.3,1.4,0.8,1.4,1.9c0,3.8,1.1,7.4,2.9,10.6
		c1.4,2.6,1.9,5.2,1.8,8c-0.1,6.9-0.1,13.8,0,20.6c0,0.8-1,2.5,1.2,2.3c0.9,0.7,0.8,1.6,0.6,2.6c-1.3,3-1.5,5.9-0.2,9
		c0.4,1,0.4,2-0.1,2.9c-1,1.2-0.6,2.4,0.1,3.6c0.2,0.7,0.1,1.3-0.4,1.7c-1,0.5-2,0.1-2.9-0.2c-7.2-2.2-14.4-4.4-21.6-6.5
		c-1.9-0.6-2.5-1.5-2.5-3.5c-0.1-4.2,0.8-8.5-0.6-12.6c-1.8-0.3-1.1-1.5-0.9-2.5c1.1-2.3,0.5-4.7,0.5-7
		C31.1,52.9,30.4,51.5,32.6,50.8z"/>
	<path class="st2" d="M32.1,61.6c-0.9,0.7-0.9,1.5,0,2.3c-1.2,4.1-0.4,8.3-0.5,12.4c0,2.1-0.5,3.2-2.7,3.8
		c-7.2,2.1-14.4,4.4-21.9,6.7c0-6.4,0-12.5,0-18.6c0-13.3,0.1-26.6-0.1-40c0-2.5,0.8-3.5,3.1-4.1c6.4-1.8,12.7-3.8,19-5.9
		c2-0.7,2.5-0.2,2.4,1.8c-0.1,9.3-0.1,18.5,0,27.8c0,1-0.9,2.6,1,3.1c-1.1,0.9-1.2,1.8,0,2.7C31.4,56.1,32.3,58.9,32.1,61.6z"/>
	<path class="st3" d="M59.2,81.4c0.9-0.8,0.5-1.9,0.5-2.9c-0.9-2.8-0.9-5.6,0-8.4c0-1.1,0-2.1,0-3.2c0-8.1,0-16.1,0-25
		c3.5,5,6.8,9.1,10.3,13c2,2.3,3.2,2.1,4.9-0.1c2.8-3.6,5.8-7,9.2-11c0,11.8,0,22.9,0,34.1c0,1.4-0.8,1.8-1.8,2.1
		c-7.5,2.3-15.1,4.5-22.6,6.8c0-0.7-0.1-1.4-0.1-2.2C59,83.5,59,82.5,59.2,81.4z"/>
	<path class="st4" d="M56.2,25.5c0.1-6.8,3.1-11.8,9.1-14.7c6.1-3,12.1-2.3,17.4,2.1c5.3,4.3,7.1,10.2,5.3,16.7
		c-2.5,9.2-8.5,16.3-14.6,23.3c-0.6,0.7-1.2,1-1.9,0.1c-6.4-7.3-12.6-14.8-15.1-24.5C56.2,27.5,56.3,26.4,56.2,25.5z"/>
	<path class="st5" d="M59.7,70c0,2.8,0,5.6,0,8.4c-0.5,0.1-1.2,0.3-1.2-0.5c0-2.4,0-4.9,0-7.3C58.5,69.7,59.2,70,59.7,70z"/>
	<path class="st6" d="M32.1,61.6c-0.6-2.7-1.7-5.5,0.5-8C32.6,56.2,33.4,59,32.1,61.6z"/>
	<path class="st7" d="M59.2,81.4c0.7,1,0.3,2.1,0.5,3.2C58.1,84,58,83.3,59.2,81.4z"/>
	<path class="st8" d="M69.6,34.5L69.6,34.5c-3-0.3-4.6-2.3-6.1-4.7c-0.4-0.9-0.7-1.9-1-2.9c-0.2-1.9,0-3.8,0.8-5.5
		c0.5-1.3,1.4-2.2,2.3-3.2c0.7-0.8,1.5-1.2,2.4-1.7c0.9-0.3,1.8-0.9,2.8-0.9c1,0,2,0,3.1,0c1.8,0.5,3.7,1,4.8,2.7l0,0
		c1,0.5,1.6,1.4,2.2,2.2c2.1,3.8,1.5,7.4-0.8,10.9c-0.2,0.1-0.3,0.3-0.4,0.5c-1.1,0.9-2,2.1-3.5,2.5C74.1,35.2,71.9,35.8,69.6,34.5z
		"/>
	<path class="st9" d="M70.7,39.2c-3.4,0.1-5.9-1.8-8.3-3.9c0.1-0.5,0.4-0.8,0.9-0.9c3,3,6.7,3.9,10.8,3.6c0.2,0.3,0.2,0.6-0.1,0.8
		C72.9,39.1,71.7,38.7,70.7,39.2z"/>
	<path class="st10" d="M80.2,31.4c1.1-3.7,2.4-7.4,0.1-11.2c0.1-0.4,0.1-0.7,0.6-0.8c1.2,1.2,1.7,2.6,1.8,4.3
		c-0.4,1.1-0.4,2.2,0,3.3C82.1,28.7,82.5,30.8,80.2,31.4z"/>
	<path class="st11" d="M63.3,34.4c-0.3,0.3-0.6,0.6-0.9,0.9c-2-2.4-3.9-4.8-3.8-8.2c0.1-0.2,0.3-0.3,0.6-0.4c0.2,0,0.4,0.2,0.6,0.4
		C60.1,29.9,61.4,32.3,63.3,34.4z"/>
	<path class="st12" d="M70,12.8c-1.8,0.7-3.8,1-5.3,2.4c-0.3,0.3-0.8,0.5-1.2,0.1c-0.5-0.6,0-0.9,0.5-1.2c1.8-1.3,3.8-2.2,6-2.4
		c0.2,0.1,0.3,0.3,0.4,0.6C70.3,12.5,70.2,12.6,70,12.8z"/>
	<path class="st13" d="M69.6,34.5c2.4,0.1,4.8,0.2,7.1-0.7c0.7-0.4,0.8,0,0.7,0.6C74.8,35.6,72.2,37.3,69.6,34.5z"/>
	<path class="st14" d="M63.9,21.1c-0.8,1.9-0.8,4-0.8,6c-0.2,0.3-0.3,0.7-0.7,0.8c-1.2-2.7-0.5-5.2,0.9-7.6
		C63.9,20.3,64.3,20.3,63.9,21.1z"/>
	<path class="st11" d="M82.2,34.6c0.7-2.6,2.1-5,3.7-7.2C85.4,30.1,85.3,33.1,82.2,34.6L82.2,34.6z"/>
	<path class="st15" d="M59.3,21.7c-0.3-2.4,1.2-3.9,2.9-5.3c-0.3,2-1.2,3.6-2.4,5.2C59.7,22,59.5,22,59.3,21.7z"/>
	<path class="st16" d="M63.9,29.7c1.4,2.2,3.5,3.6,5.7,4.8c-3.5,0.9-4.8-1.9-6.3-4.1C63.5,30.1,63.5,29.8,63.9,29.7z"/>
	<path class="st17" d="M70,12.8c0-0.2,0-0.4,0-0.6c1.5-0.8,3.2,0.1,4.7-0.6c1.3,0,2.5,0.4,3.3,1.6C75.3,12.8,72.7,12.7,70,12.8z"/>
	<path class="st11" d="M74.1,38.6c0-0.2,0-0.4,0-0.6c1.6-0.5,3.1-1,4.7-1.6c0.4,0.1,0.7,0.4,0.8,0.8c-1.6,1.3-3.4,1.9-5.5,1.9
		c-0.2-0.1-0.3-0.3-0.2-0.4C73.9,38.7,74,38.6,74.1,38.6z"/>
	<path class="st18" d="M74.1,16.1c-1.1,0-2.3,0-3.4,0c-0.4-0.4-1.1,0-1.4-0.6c2.1-1,4.2-1,6.3,0C75.2,16.1,74.5,15.8,74.1,16.1z"/>
	<path class="st19" d="M74.1,16.1c0.5-0.2,1-0.4,1.4-0.6c1.3,0.7,3.5,0.4,3.3,2.8C77.2,17.6,75.7,16.9,74.1,16.1z"/>
	<path class="st20" d="M79.5,37.3c-0.3-0.3-0.5-0.5-0.8-0.8c1.1-0.8,2.1-1.8,3.5-1.9c0,0-0.1-0.1-0.1-0.1
		C82,36.2,80.7,36.7,79.5,37.3z"/>
	<path class="st21" d="M59.3,21.7c0.2,0,0.3,0,0.5-0.1c0,0.7-0.1,1.4-0.1,2c-0.6,1.1,0.2,2.3-0.5,3.4c-0.2,0-0.4,0-0.6,0
		C58.6,25.3,57.8,23.3,59.3,21.7z"/>
	<path class="st22" d="M63.9,29.7c-0.2,0.3-0.4,0.5-0.6,0.8c-0.6-0.7-1-1.5-0.9-2.5c0.2-0.3,0.4-0.6,0.7-0.8
		C63.4,28,63.7,28.8,63.9,29.7z"/>
	<path class="st23" d="M77.4,34.5c-0.2-0.2-0.5-0.4-0.7-0.6c1-0.7,1.7-1.8,3.1-1.9C79.7,33.4,78.6,34,77.4,34.5z"/>
	<path class="st24" d="M63.9,21.1c-0.2-0.2-0.4-0.5-0.6-0.7c0.2-0.9,0.8-1.6,1.6-2.2c0.4-0.3,0.7-0.2,1.1,0.1
		C65.3,19.2,64.6,20.2,63.9,21.1z"/>
	<path class="st5" d="M69.2,15.5c0.5,0.2,0.9,0.4,1.4,0.6c-0.9,0.3-1.8,0.5-2.6,0.8c-0.7,0.4-0.8,0-0.7-0.6
		C67.8,15.8,68.5,15.5,69.2,15.5z"/>
	<path class="st25" d="M80.2,13.8c0.5,0.2,1,0.4,1.2,1c0.1,0.6-0.4,0.8-0.8,0.7c-0.5-0.2-1-0.5-1-1.1C79.6,14,79.8,13.7,80.2,13.8z"
		/>
	<path class="st21" d="M74.7,11.6c-1.5,1.1-3.1,0.3-4.7,0.6c0-0.2,0-0.4,0-0.6C71.6,11.6,73.1,11.6,74.7,11.6z"/>
	<path class="st26" d="M85.6,21.2c-0.2,0.1-0.4,0.4-0.6,0.4c-0.6-0.1-0.8-0.6-0.7-1.2c0-0.2,0.4-0.5,0.6-0.5
		C85.6,19.9,85.6,20.5,85.6,21.2z"/>
	<path class="st20" d="M80.9,19.5c-0.2,0.3-0.4,0.5-0.6,0.8c-0.5-0.7-1.1-1.3-1.6-2C80.2,17.4,80.4,18.7,80.9,19.5z"/>
	<path class="st27" d="M67.3,16.4c0.2,0.2,0.5,0.4,0.7,0.6c-0.6,0.5-1.3,0.9-1.9,1.4c-0.4,0-0.7-0.1-1.1-0.1
		C65.6,17.3,66.3,16.6,67.3,16.4z"/>
	<path class="st28" d="M82.7,27c-0.8-1.1-0.8-2.2,0-3.3C82.8,24.9,82.7,26,82.7,27z"/>
	<path class="st29" d="M74.1,38.6c0,0.2,0,0.4,0,0.6c-1.1,0-2.2,0-3.3,0C71.7,38.2,72.9,38.8,74.1,38.6z"/>
	<path class="st30" d="M59.2,27.1c0.1-1.1-0.4-2.4,0.5-3.4c0,1.1,0,2.3,0,3.4c0,0-0.3,0-0.3,0L59.2,27.1z"/>
</g>
</svg>
