<?xml version="1.0" encoding="utf-8"?>
<!-- Generator: Adobe Illustrator 22.0.1, SVG Export Plug-In . SVG Version: 6.00 Build 0)  -->
<svg version="1.1" id="Layer_1" xmlns="http://www.w3.org/2000/svg" xmlns:xlink="http://www.w3.org/1999/xlink" x="0px" y="0px"
	 viewBox="0 0 96 96" style="enable-background:new 0 0 96 96;" xml:space="preserve">
<style type="text/css">
	.st0{fill:#871212;}
	.st1{fill:#AF1B14;}
</style>
<g>
	<path class="st0" d="M76,28.3c-2.5-14-16.3-24.6-30.3-23.1C30.3,6.8,18.9,19.3,19.4,35.5c0,2.7,0.7,6.7,1.8,10.6
		c3.5,12.5,10,23.5,17.4,34c2.4,3.4,5,6.6,7.6,9.8c0.9,1.2,2,1.7,3.3,0.2c9.7-11.9,18.2-24.4,23.6-38.9C75.8,43.8,77.5,36.2,76,28.3
		z M48,46.2c-5.9,0-10.6-4.8-10.7-10.9c0-5.8,4.7-10.5,10.6-10.6c6-0.1,10.8,4.7,10.8,10.8C58.7,41.3,53.8,46.2,48,46.2z"/>
	<polygon class="st0" points="44,92 48,91 50.4,87.8 48.2,87.8 45.5,91.1 	"/>
	<path class="st1" d="M72,29.3c-2.5-14-16.3-24.6-30.3-23.1C26.3,7.8,14.9,20.3,15.4,36.5c0,2.7,0.7,6.7,1.8,10.6
		c3.5,12.5,10,23.5,17.4,34c2.4,3.4,5,6.6,7.6,9.8c0.9,1.2,2,1.7,3.3,0.2c9.7-11.9,18.2-24.4,23.6-38.9C71.8,44.8,73.5,37.2,72,29.3
		z M44,47.2c-5.9,0-10.6-4.8-10.7-10.9c0-5.8,4.7-10.5,10.6-10.6c6-0.1,10.8,4.7,10.8,10.8C54.7,42.3,49.8,47.2,44,47.2z"/>
</g>
</svg>
