<?xml version="1.0" encoding="utf-8"?>
<!-- Generator: Adobe Illustrator 23.1.1, SVG Export Plug-In . SVG Version: 6.00 Build 0)  -->
<svg version="1.1" id="Layer_1" xmlns="http://www.w3.org/2000/svg" xmlns:xlink="http://www.w3.org/1999/xlink" x="0px" y="0px"
	 viewBox="0 0 96 96" style="enable-background:new 0 0 96 96;" xml:space="preserve">
<style type="text/css">
	.st0{fill:#20222C;}
	.st1{fill:#60BF93;}
	.st2{fill:#A1D2A3;}
	.st3{fill:#FCF4AB;}
	.st4{fill:#293437;}
	.st5{fill:#2C3C3C;}
	.st6{fill:#2A3739;}
	.st7{fill:#353634;}
	.st8{fill:#363634;}
	.st9{fill:#9DCB9E;}
	.st10{fill:#9BC99C;}
	.st11{fill:#F9E65D;}
	.st12{fill:#F8E55D;}
</style>
<g>
	<path class="st0" d="M64,58.5c6.2,7,7.1,14.1,2.4,20.2c-4.2,5.5-12,7.2-18.1,3.8c-6.5-3.5-8.9-10.5-6.2-18.8
		c-5.3,1.3-10.4,2.6-15.5,3.8c-2.9,0.7-5.7,1.5-8.6,2.1c-3.9,0.8-6.1-0.6-7.1-4.4c-2.6-9.8-5.1-19.7-7.5-29.5
		c-1.2-4.6,0.3-7,5.1-8.2c19.2-4.8,38.5-9.6,57.7-14.4c1.5-0.4,3-0.9,4.6-1.2c3.9-0.7,6,0.6,7.1,4.4c1.8,6.6,3.5,13.2,5.1,19.8
		c0.3,1.3,0.8,2,2,2.6c5.6,3,8.7,8.5,8,14C92.1,59,88,64,82.4,65.4c-6.1,1.6-11.9-0.7-15.8-6.1C65.6,57.9,65.6,57.9,64,58.5z"/>
	<path class="st1" d="M27.2,29.8c0.9,1.3,1.9,0.4,2.9,0.2c11.7-2.9,23.4-5.8,35-8.8c1.5-0.4,2.6-0.6,3.5,1c0.3,0.6,1,1.2,1.6,1.2
		c3.3,0,3.2,2.6,3.8,4.7c0.6,2.4,1.2,4.8,1.8,7.2c0.4,1.4,0.1,2.1-1.4,2.6c-5.3,1.7-8.6,5.4-9.8,10.9c-0.3,1.2-0.9,1.6-2,1.8
		c-13.2,3.3-26.4,6.6-39.6,10c-1.2,0.3-2.1,0.2-2.8-1c-0.4-0.6-1.2-1.4-1.8-1.4c-3.2-0.1-3.2-2.6-3.8-4.7c-1-3.8-1.9-7.7-2.9-11.5
		c-0.4-1.4-0.6-2.7,1-3.6c0.3-0.2,0.7-0.6,0.7-0.9c0.4-2.9,2.1-4.4,4.9-4.8c0.5-0.1,0.2-0.7,0.1-1C21.2,29.9,24,28.9,27.2,29.8z"/>
	<path class="st2" d="M27.2,29.8c-2.8,0.6-5.7,1.3-8.5,1.9c-1,0.3-2.1,0.7-3.1,0.9c-1.4,0.2-2.4,0.6-2.2,2.4c0.1,0.9-0.3,2-1,2.4
		c-2.8,1.4-1.8,3.4-1.3,5.5c1.2,4.5,2.3,9,3.4,13.5c0.5,1.9,7,5.7,8.8,5.3c12.6-3.2,25.3-6.4,37.9-9.5c1.1-0.3,2.7-2,3.3,0.9
		c0.5,2.6-0.6,3.3-2.8,3.5c-0.9,0.1-1.7-0.2-2.6-0.4c-5.3-1.3-10.1-0.4-14,3.5c-1.1,1.1-2.4,1.6-3.9,2c-7.7,1.9-15.3,3.8-23,5.7
		c-3.5,0.9-4.7,0.2-5.6-3.3c-2.5-9.7-5-19.5-7.4-29.3c-0.8-3,0.1-4.4,3.2-5.2C29.3,24.5,50,19.2,70.8,14c2.9-0.7,4.3,0.1,5.1,2.9
		c1.6,6,3.1,12,4.6,18.1c0.2,0.7,1.1,2.1-0.7,2.2c-1.2,0.1-2.5,0.3-2.9-1.6c-0.8-3.7-1.9-7.2-2.7-10.9c-0.3-1.3-0.6-1.9-2.1-1.8
		c-1.1,0-2.3-0.4-2.7-1.5c-0.9-2.2-2.3-1.8-4.1-1.4C52.6,23.4,39.9,26.6,27.2,29.8z"/>
	<path class="st3" d="M90.8,51.7c-0.1,6.8-5.4,12.1-12.4,12c-6.8-0.1-12.1-5.5-12.1-12.4c0.1-6.7,5.6-12.1,12.4-12.1
		C85.6,39.4,90.9,44.8,90.8,51.7z"/>
	<path class="st3" d="M54.9,82.2c-6.7-0.1-12.3-5.7-12.1-12.4c0.2-6.8,5.7-12.1,12.5-12c6.7,0.1,12.3,5.8,12.1,12.4
		C67.3,76.9,61.7,82.2,54.9,82.2z"/>
	<path class="st4" d="M44.9,32.1c5.2,0,9.1,4,9.1,9.2c0,5.2-4.1,9.3-9.2,9.2c-5,0-9.3-4.4-9.3-9.3C35.6,36.2,39.8,32.1,44.9,32.1z"
		/>
	<path class="st5" d="M60.8,33.2c2.3,0.1,3.5,1.5,3.5,3.6c0,2.1-1.4,3.4-3.5,3.6c-2,0.2-3.9-1.8-3.7-3.8
		C57.4,34.5,58.6,33.2,60.8,33.2z"/>
	<path class="st6" d="M31.6,44.8c-0.2,2.1-1.2,3.5-3.5,3.6c-2.1,0.1-3.9-1.6-3.7-3.6c0.2-2.1,1.5-3.5,3.6-3.5
		C30.1,41.3,31.4,42.7,31.6,44.8z"/>
	<path class="st7" d="M87.8,51.4c0,5.1-4,9.2-9.1,9.3c-5.1,0-9.3-4-9.4-9.1c-0.1-5,4.2-9.3,9.2-9.4C83.5,42.2,87.8,46.4,87.8,51.4z"
		/>
	<path class="st8" d="M55.1,79.2c-5.1,0-9.2-4-9.2-9.2c0-5.1,4.1-9.2,9.1-9.2c5.1,0,9.2,4.1,9.2,9.2C64.3,75,60.2,79.1,55.1,79.2z"
		/>
	<path class="st2" d="M52.9,41.4c0,4.6-3.6,8-8.1,8c-4.4,0-8.1-3.7-8.1-8.1c0-4.5,3.6-8,8.2-8C49.5,33.3,53,36.8,52.9,41.4z"/>
	<path class="st9" d="M63.3,36.7c-0.2,1.4-0.9,2.4-2.4,2.5c-1.6,0.1-2.6-0.9-2.7-2.5c0-1.4,1-2.4,2.4-2.4
		C62.2,34.3,63,35.2,63.3,36.7z"/>
	<path class="st10" d="M30.5,44.8c-0.2,1.4-1,2.5-2.4,2.5c-1.6,0-2.6-1-2.6-2.6c0-1.4,1.1-2.4,2.5-2.4
		C29.5,42.4,30.3,43.4,30.5,44.8z"/>
	<path class="st11" d="M86.7,51.6c0,4.6-3.5,8-8.1,8c-4.7,0-8.2-3.6-8.1-8.3c0.1-4.5,3.7-7.9,8.3-7.8C83.3,43.5,86.7,47.1,86.7,51.6
		z"/>
	<path class="st12" d="M55,78c-4.4,0-8.1-3.7-8.1-8.1c0-4.5,3.9-8.1,8.5-8c4.4,0.1,8,3.9,7.9,8.3C63.2,74.6,59.5,78.1,55,78z"/>
</g>
</svg>
