<?xml version="1.0" encoding="utf-8"?>
<!-- Generator: Adobe Illustrator 20.0.0, SVG Export Plug-In . SVG Version: 6.00 Build 0)  -->
<svg version="1.1" id="Layer_1" xmlns="http://www.w3.org/2000/svg" xmlns:xlink="http://www.w3.org/1999/xlink" x="0px" y="0px"
	 viewBox="0 0 96 96" style="enable-background:new 0 0 96 96;" xml:space="preserve">
<style type="text/css">
	.st0{fill:#FEFEFE;}
	.st1{fill:#010101;}
	.st2{fill:#030303;}
</style>
<g>
	<path d="M12,63.5c0-14.2,0-28.3,0-42.5c1.5-1.3,3.3-1.2,5-1.2c20.9,0,41.8,0,62.8,0c1.8,0,3.6-0.1,5,1.2c0,14.2,0,28.3,0,42.5
		c-1.5,1.3-3.3,1.2-5,1.2c-20.9,0-41.8,0-62.8,0C15.2,64.7,13.4,64.8,12,63.5z"/>
	<path class="st0" d="M84.8,21.1c-24.3,0-48.5,0-72.8,0"/>
	<path class="st1" d="M12,66.6c11.3,2.9,22.9,1.9,34.3,3.4c5.5,0.7,11,1.3,16.6,1.9c2.7,0.3,5,0.2,5.6-3.3c0.4-2.6,2.9-1.9,4.7-1.9
		c5.7,0,5.7,0,5.7,5.7c0,6.5,0,6.5-6.4,5.5c-20-3.1-40.1-5.1-60.3-5.1C12,70.6,12,68.6,12,66.6z"/>
	<path class="st0" d="M48.4,25.6c6.1,0,12.1,0.1,18.2,0c2.8,0,4.8,0.7,5.5,3.8c0.5,2,2,3,4.1,3.3c2.7,0.3,4.2,1.8,4,4.8
		c-0.1,3.1-0.1,6.3,0,9.5c0.1,3-1.3,4.5-4,4.9c-2.3,0.3-3.7,1.5-4.3,3.6c-0.7,2.6-2.4,3.5-5,3.5c-12.4-0.1-24.7-0.1-37.1,0
		c-2.6,0-4.3-0.9-5-3.5c-0.6-2.1-2-3.4-4.3-3.7c-2.7-0.4-4.2-1.9-4-4.8c0.1-3.2,0.2-6.3,0-9.5c-0.1-3,1.3-4.5,4-4.8
		c2.3-0.3,3.7-1.5,4.3-3.7c0.7-2.6,2.5-3.5,5-3.5C36,25.6,42.2,25.6,48.4,25.6z"/>
	<path d="M48.5,52.4c-6.1,0.1-11-4.4-11-10c-0.1-5.7,4.6-10.2,10.8-10.3c6.1-0.1,11,4.4,11.1,10C59.4,47.8,54.5,52.4,48.5,52.4z"/>
	<path class="st2" d="M28.7,38.2c2.6,0.2,4.5,1.4,4.4,4.2c0,2.8-2,4-4.5,4c-2.6,0-4.5-1.3-4.4-4.1C24.2,39.5,26.1,38.4,28.7,38.2z"
		/>
	<path class="st2" d="M68.2,38.2c2.6,0.3,4.4,1.5,4.3,4.3c-0.1,2.7-2.1,4-4.6,3.9c-2.6-0.1-4.4-1.5-4.3-4.2
		C63.7,39.4,65.7,38.3,68.2,38.2z"/>
</g>
</svg>
