<?xml version="1.0" encoding="utf-8"?>
<!-- Generator: Adobe Illustrator 22.0.1, SVG Export Plug-In . SVG Version: 6.00 Build 0)  -->
<svg version="1.1" id="Layer_1" xmlns="http://www.w3.org/2000/svg" xmlns:xlink="http://www.w3.org/1999/xlink" x="0px" y="0px"
	 viewBox="0 0 96 96" style="enable-background:new 0 0 96 96;" xml:space="preserve">
<style type="text/css">
	.st0{fill:#CB2027;}
</style>
<path class="st0" d="M33.1,42.4c0,2.8-2,4-4.5,4c-2.6,0-4.5-1.3-4.4-4.1c0-2.8,1.9-3.9,4.5-4.1C31.3,38.4,33.2,39.6,33.1,42.4z"/>
<path class="st0" d="M59.4,42.1c0,5.7-4.9,10.3-10.9,10.3c-6.1,0.1-11-4.4-11-10c-0.1-5.7,4.6-10.2,10.8-10.3
	C54.4,32,59.3,36.5,59.4,42.1z"/>
<path class="st0" d="M72.5,42.5c-0.1,2.7-2.1,4-4.6,3.9c-2.6-0.1-4.4-1.5-4.3-4.2c0.1-2.8,2.1-3.9,4.6-4
	C70.8,38.5,72.6,39.7,72.5,42.5z"/>
<path class="st0" d="M79.8,19.8H17c-1.7,0-3.5-0.1-5,1.2v42.5c1.4,1.3,3.2,1.2,5,1.2h62.8c1.7,0,3.5,0.1,5-1.2V21
	C83.4,19.7,81.6,19.8,79.8,19.8z M80.2,47c0.1,3-1.3,4.5-4,4.9c-2.3,0.3-3.7,1.5-4.3,3.6c-0.7,2.6-2.4,3.5-5,3.5
	c-12.4-0.1-24.7-0.1-37.1,0c-2.6,0-4.3-0.9-5-3.5c-0.6-2.1-2-3.4-4.3-3.7c-2.7-0.4-4.2-1.9-4-4.8c0.1-3.2,0.2-6.3,0-9.5
	c-0.1-3,1.3-4.5,4-4.8c2.3-0.3,3.7-1.5,4.3-3.7c0.7-2.6,2.5-3.5,5-3.5c6.2,0.1,12.4,0.1,18.6,0.1c6.1,0,12.1,0.1,18.2,0
	c2.8,0,4.8,0.7,5.5,3.8c0.5,2,2,3,4.1,3.3c2.7,0.3,4.2,1.8,4,4.8C80.1,40.6,80.1,43.8,80.2,47z"/>
<path class="st0" d="M84.8,21.1c-24.3,0-48.5,0-72.8,0"/>
<path class="st0" d="M12,66.6c11.3,2.9,22.9,1.9,34.3,3.4c5.5,0.7,11,1.3,16.6,1.9c2.7,0.3,5,0.2,5.6-3.3c0.4-2.6,2.9-1.9,4.7-1.9
	c5.7,0,5.7,0,5.7,5.7c0,6.5,0,6.5-6.4,5.5c-20-3.1-40.1-5.1-60.3-5.1C12,70.6,12,68.6,12,66.6z"/>
<path class="st0" d="M33.1,42.4c0,2.8-2,4-4.5,4c-2.6,0-4.5-1.3-4.4-4.1c0-2.8,1.9-3.9,4.5-4.1C31.3,38.4,33.2,39.6,33.1,42.4z"/>
<path class="st0" d="M59.4,42.1c0,5.7-4.9,10.3-10.9,10.3c-6.1,0.1-11-4.4-11-10c-0.1-5.7,4.6-10.2,10.8-10.3
	C54.4,32,59.3,36.5,59.4,42.1z"/>
<path class="st0" d="M72.5,42.5c-0.1,2.7-2.1,4-4.6,3.9c-2.6-0.1-4.4-1.5-4.3-4.2c0.1-2.8,2.1-3.9,4.6-4
	C70.8,38.5,72.6,39.7,72.5,42.5z"/>
<path class="st0" d="M59.4,42.1c0,5.7-4.9,10.3-10.9,10.3c-6.1,0.1-11-4.4-11-10c-0.1-5.7,4.6-10.2,10.8-10.3
	C54.4,32,59.3,36.5,59.4,42.1z"/>
<path class="st0" d="M33.1,42.4c0,2.8-2,4-4.5,4c-2.6,0-4.5-1.3-4.4-4.1c0-2.8,1.9-3.9,4.5-4.1C31.3,38.4,33.2,39.6,33.1,42.4z"/>
<path class="st0" d="M72.5,42.5c-0.1,2.7-2.1,4-4.6,3.9c-2.6-0.1-4.4-1.5-4.3-4.2c0.1-2.8,2.1-3.9,4.6-4
	C70.8,38.5,72.6,39.7,72.5,42.5z"/>
</svg>
