<?xml version="1.0" encoding="utf-8"?>
<!-- Generator: Adobe Illustrator 24.3.0, SVG Export Plug-In . SVG Version: 6.00 Build 0)  -->
<svg version="1.1" id="Layer_1" xmlns="http://www.w3.org/2000/svg" xmlns:xlink="http://www.w3.org/1999/xlink" x="0px" y="0px"
	 viewBox="0 0 96 96" style="enable-background:new 0 0 96 96;" xml:space="preserve">
<style type="text/css">
	.st0{fill:#FFFFFF;}
</style>
<g>
	<path class="st0" d="M8.7,55.4c0-8.7,0-17.3,0-26c0-4.8,3-7.8,7.7-7.8c14.3,0,28.6,0,42.9,0c0.3,0,0.8-0.2,1,0.2
		c0.2,0.4-0.3,0.6-0.5,0.8c-1.7,1.7-3.5,3.4-5.2,5.2c-0.7,0.7-1.4,0.9-2.3,0.9c-11.6,0-23.3,0-34.9,0c-1.2,0-1.6,0.2-1.6,1.5
		c0,16.8,0,33.7,0,50.5c0,1.3,0.3,1.7,1.6,1.7c16.8,0,33.6,0,50.3,0c1.4,0,1.7-0.4,1.7-1.8c-0.1-11.5,0-23.1,0-34.6
		c0-1,0.2-1.7,1-2.4c1.6-1.5,3.1-3.1,4.7-4.6c0.4-0.4,0.7-1.2,1.3-0.9c0.5,0.2,0.2,0.9,0.2,1.4c0,7.1,0,14.2,0,21.3
		c0,6.8,0,13.6,0,20.4c0,5.2-3,8.2-8.2,8.2c-17.2,0-34.4-0.1-51.6,0.1c-5,0-8.3-3.8-8.2-8.1C8.9,72.7,8.7,64,8.7,55.4z"/>
	<path class="st0" d="M83.5,19.6c-6.2,6.2-12.4,12.4-18.6,18.6c-5.6,5.7-11.3,11.3-17,17c-0.6,0.6-1.2,1.2-1.9,1.6
		c-1.5,0.8-2.9,0.6-4.1-0.5c-1.1-1-1.3-2.5-0.6-4c0.4-0.8,1-1.3,1.6-1.9c11.4-11.4,22.8-22.8,34.3-34.3c0.2-0.2,0.4-0.3,0.5-0.6
		c0.2-0.3,0.8-0.5,0.5-1c-0.2-0.4-0.7-0.2-1-0.2c-3.4,0-6.8,0-10.1,0c-0.6,0-1.1,0-1.7-0.1c-1.6-0.2-2.9-1.5-2.9-3.1
		c-0.1-1.9,0.9-3.4,2.6-3.8c0.7-0.2,1.4-0.2,2.2-0.2c6.4,0,12.9,0,19.3,0c3.2,0,4.5,1.3,4.5,4.5c0,6.5,0,13.1,0,19.6
		c0,1.5-0.2,3-1.8,3.9c-2.4,1.4-5.3,0-5.3-2.8c-0.1-3.9,0-7.8-0.1-11.7c0-0.3,0-0.7,0-1C83.7,19.7,83.6,19.7,83.5,19.6z"/>
</g>
</svg>
