<?xml version="1.0" encoding="utf-8"?>
<!-- Generator: Adobe Illustrator 22.0.1, SVG Export Plug-In . SVG Version: 6.00 Build 0)  -->
<svg version="1.1" id="Layer_1" xmlns="http://www.w3.org/2000/svg" xmlns:xlink="http://www.w3.org/1999/xlink" x="0px" y="0px"
	 viewBox="0 0 96 96" style="enable-background:new 0 0 96 96;" xml:space="preserve">
<style type="text/css">
	.st0{fill:#010101;}
</style>
<g>
	<path class="st0" d="M69.2,31C69.1,42.3,63,50.6,52.3,52.8c-13.5,2.9-23.6-6.9-25.1-17C26.1,27.7,26.8,20,32.9,14
		c6.4-6.3,14-8.1,22.4-5c7.9,2.9,12.3,8.8,13.5,17.1C69,27.7,69.1,29.3,69.2,31z"/>
	<path class="st0" d="M47.9,88.5c-10.4,0-20.8-0.1-31.3,0c-5.7,0.1-8-4.6-7.2-7.9c0.6-2.5,2.4-4.3,4.4-5.6
		c14.9-9.9,30.9-13.9,48.6-9c6.3,1.7,12.2,4.2,17.7,7.7c1.6,1.1,3.1,2.3,4.5,3.8c1.8,1.9,2.5,4.2,1.5,6.7c-1,2.6-2.9,4.3-5.8,4.3
		c-8.3,0.1-16.6,0.1-24.9,0.1C52.9,88.5,50.4,88.5,47.9,88.5z"/>
</g>
</svg>
