<?xml version="1.0" encoding="utf-8"?>
<!-- Generator: Adobe Illustrator 22.0.1, SVG Export Plug-In . SVG Version: 6.00 Build 0)  -->
<svg version="1.1" id="Layer_1" xmlns="http://www.w3.org/2000/svg" xmlns:xlink="http://www.w3.org/1999/xlink" x="0px" y="0px"
	 viewBox="0 0 96 96" style="enable-background:new 0 0 96 96;" xml:space="preserve">
<style type="text/css">
	.st0{fill:#FFFFFF;}
</style>
<path class="st0" d="M23.3,10c2.6,0,5.2,0.1,7.8,0c2.4-0.1,3.2,1.3,3.7,3.2c1.2,4.9,2.3,9.8,3.6,14.7c0.6,2.1,0.7,3.9-0.9,5.6
	c-2.2,2.4-4.4,4.8-6.6,7.1c-0.9,0.9-1,1.7-0.3,2.8c6.1,9.2,13.6,16.8,23.4,22.2c1.2,0.6,1.8,0.3,2.6-0.4c2.4-2.4,4.9-4.7,7.3-7.1
	c1.1-1.1,2.2-1.1,3.7-0.7c5,1.3,10,2.4,15,3.5c2.4,0.5,3.7,1.8,3.8,4.1c0.1,5.1,0.5,10.3-0.1,15.2c-0.6,5-0.7,5.8-5.8,5.7
	c-12.4-0.2-23.7-4-34.2-10.4C27.4,64.1,15.9,47.2,10.9,25.9c-0.8-3.5-1.1-7-1.5-10.5c-0.3-2.9,2-5.1,5.4-5.2
	C17.6,10,20.5,10,23.3,10z"/>
</svg>
