<?xml version="1.0" encoding="utf-8"?>
<!-- Generator: Adobe Illustrator 23.0.3, SVG Export Plug-In . SVG Version: 6.00 Build 0)  -->
<svg version="1.1" id="Layer_1" xmlns="http://www.w3.org/2000/svg" xmlns:xlink="http://www.w3.org/1999/xlink" x="0px" y="0px"
	 viewBox="0 0 96 96" style="enable-background:new 0 0 96 96;" xml:space="preserve">
<path d="M18.7,2.9c3.1,0,6.2,0.1,9.3,0c2.8-0.1,3.8,1.5,4.4,3.8c1.4,5.8,2.7,11.7,4.3,17.5c0.7,2.5,0.8,4.6-1.1,6.6
	c-2.6,2.8-5.2,5.7-7.9,8.4c-1.1,1.1-1.2,2-0.4,3.3c7.3,10.9,16.2,20,27.8,26.4c1.4,0.7,2.1,0.4,3.1-0.5c2.8-2.9,5.8-5.6,8.7-8.4
	c1.3-1.3,2.6-1.3,4.4-0.8c5.9,1.6,11.9,2.8,17.8,4.1c2.9,0.6,4.4,2.1,4.5,4.9c0.1,6,0.6,12.2-0.1,18.1s-0.8,6.9-6.9,6.8
	C71.9,92.9,58.5,88.3,46,80.7C23.5,67.1,9.9,47.1,3.9,21.7c-1-4.1-1.3-8.3-1.8-12.5C1.7,5.7,4.5,3.1,8.5,3
	C11.9,2.9,15.3,2.9,18.7,2.9z"/>
</svg>
