<?xml version="1.0" encoding="utf-8"?>
<!-- Generator: Adobe Illustrator 22.0.1, SVG Export Plug-In . SVG Version: 6.00 Build 0)  -->
<svg version="1.1" xmlns="http://www.w3.org/2000/svg" xmlns:xlink="http://www.w3.org/1999/xlink" x="0px" y="0px"
	 viewBox="0 0 96 96" style="enable-background:new 0 0 96 96;" xml:space="preserve">
<style type="text/css">
	.st0{fill:#FFFFFF;}
	.st1{display:none;}
	.st2{display:inline;}
</style>
<g id="Layer_1">
	<g>
		<path class="st0" d="M80.8,46.1c-15.2-8.7-30.4-17.4-45.6-26.2c-4.3-2.5-8.7-4.9-13.3-7.5v70.9c0.5,0,0.8,0,1.1-0.1
			c19.4-11,38.7-22.1,58.2-33C84.6,48.3,83.2,47.5,80.8,46.1z M37,61c-2.1,1.3-2.9,0.8-2.9-1.6c0-7.5,0-14.9,0-22.3
			c0-2,0.5-2.8,2.6-1.6c7.1,4.2,14.3,8.3,22.3,12.8C51.1,52.8,44.1,56.8,37,61z"/>
		<path class="st0" d="M80.8,46.1c-15.2-8.7-30.4-17.4-45.6-26.2c-4.3-2.5-8.7-4.9-13.3-7.5v70.9c0.5,0,0.8,0,1.1-0.1
			c19.4-11,38.7-22.1,58.2-33C84.6,48.3,83.2,47.5,80.8,46.1z M37,61c-2.1,1.3-2.9,0.8-2.9-1.6c0-7.5,0-14.9,0-22.3
			c0-2,0.5-2.8,2.6-1.6c7.1,4.2,14.3,8.3,22.3,12.8C51.1,52.8,44.1,56.8,37,61z"/>
		<path class="st0" d="M80.8,46.1c-15.2-8.7-30.4-17.5-45.6-26.2c-4.3-2.5-8.7-4.9-13.3-7.5v70.9c0.5-0.1,0.8,0,1.1-0.1
			c19.4-11,38.7-22.1,58.2-33C84.6,48.3,83.2,47.5,80.8,46.1z M37,61c-2.1,1.3-2.9,0.8-2.9-1.6c0.1-7.5,0-14.9,0-22.4
			c0-2,0.5-2.8,2.6-1.6c7.1,4.2,14.3,8.3,22.3,12.8C51.1,52.8,44.1,56.8,37,61z"/>
	</g>
</g>
<g id="Layer_2" class="st1">
	<g class="st2">
		<path class="st0" d="M77.8,34.1c-0.8-4.7-3.7-7.4-8.4-8.2c-6.1-1-12.3-1.3-19-1.7c-7.3,0-15.1,0.4-22.9,1.5
			c-5.8,0.8-8.6,3.7-9.4,9C16.8,43.3,16.7,52,18,60.6c1,6.2,3.7,9,10,9.8c3.8,0.5,7.6,0.8,11.5,1.1C49.8,72.2,60,71.7,70.2,70
			c3.9-0.6,6.5-3.2,7.3-7.1C79.4,53.3,79.3,43.7,77.8,34.1z"/>
		<path class="st0" d="M73,61.4c-0.5,2.6-2,3.9-4.8,4.2C61.6,66.4,55,67.1,48.4,67c-6.9,0.1-13.8-0.6-20.6-1.4
			c-3.1-0.3-4.5-1.8-4.9-4.9c-1.4-8.6-1.3-17.1,0-25.6c0.4-2.7,1.6-4.1,4.4-4.5c11-1.7,22-2.1,33.1-1c2.8,0.3,5.6,0.6,8.4,1
			c2.4,0.4,3.8,1.7,4.2,4C74.5,43.5,74.6,52.5,73,61.4z"/>
	</g>
	<g class="st2">
		<path class="st0" d="M63.3,47.2c-5.8-3.3-11.5-6.6-17.3-9.9c-1.6-0.9-3.3-1.9-5-2.9v26.9c0.2,0,0.3,0,0.4,0
			c7.4-4.2,14.7-8.4,22.1-12.5C64.7,48,64.2,47.7,63.3,47.2z M46.7,52.8c-0.8,0.5-1.1,0.3-1.1-0.6c0-2.8,0-5.6,0-8.5
			c0-0.8,0.2-1.1,1-0.6c2.7,1.6,5.4,3.1,8.4,4.9C52,49.7,49.3,51.3,46.7,52.8z"/>
		<path class="st0" d="M63.3,47.2c-5.8-3.3-11.5-6.6-17.3-9.9c-1.6-0.9-3.3-1.9-5-2.9v26.9c0.2,0,0.3,0,0.4,0
			c7.4-4.2,14.7-8.4,22.1-12.5C64.7,48,64.2,47.7,63.3,47.2z M46.7,52.8c-0.8,0.5-1.1,0.3-1.1-0.6c0-2.8,0-5.6,0-8.5
			c0-0.8,0.2-1.1,1-0.6c2.7,1.6,5.4,3.1,8.4,4.9C52,49.7,49.3,51.3,46.7,52.8z"/>
		<path class="st0" d="M63.3,47.2c-5.8-3.3-11.5-6.6-17.3-9.9c-1.6-1-3.3-1.9-5-2.9v26.9c0.2,0,0.3,0,0.4,0
			c7.4-4.2,14.7-8.4,22.1-12.5C64.7,48,64.2,47.7,63.3,47.2z M46.7,52.8c-0.8,0.5-1.1,0.3-1.1-0.6c0-2.8,0-5.7,0-8.5
			c0-0.8,0.2-1.1,1-0.6c2.7,1.6,5.4,3.1,8.4,4.9C52,49.7,49.3,51.3,46.7,52.8z"/>
	</g>
</g>
</svg>
