<?xml version="1.0" encoding="utf-8"?>
<!-- Generator: Adobe Illustrator 20.0.0, SVG Export Plug-In . SVG Version: 6.00 Build 0)  -->
<svg version="1.1" id="Layer_1" xmlns="http://www.w3.org/2000/svg" xmlns:xlink="http://www.w3.org/1999/xlink" x="0px" y="0px"
	 viewBox="0 0 96 96" style="enable-background:new 0 0 96 96;" xml:space="preserve">
<style type="text/css">
	.st0{fill:#FFFFFF;}
</style>
<g>
	<path class="st0" d="M38.2,34.9c7.5,4.3,14.7,8.3,22.6,12.8c-7.6,4.4-14.8,8.6-22.6,13V34.9z"/>
	<path class="st0" d="M78.8,31.9c-1-5-4-7.6-9.1-8.4c-14.5-2.1-29.1-2.2-43.6,0c-5.3,0.8-8.4,3.3-9.4,8.6c-2,10.5-1.9,21,0,31.4
		c1,5.1,4,7.9,9,8.5c7.2,1,14.5,1.8,21.8,1.7c7.5,0.1,14.8-0.7,22.2-1.7c5.1-0.7,8.2-3.3,9.1-8.4C80.8,53.1,80.8,42.5,78.8,31.9z
		 M72.8,60.8c-0.5,3-2,4.8-5.2,5.2c-6.6,0.8-13.2,1.3-19.8,1.3c-6.6,0-13.2-0.5-19.8-1.3c-3.2-0.4-4.8-2.2-5.2-5.2
		c-1.2-8.6-1.2-17.2,0-25.8c0.4-3,1.9-4.9,5.1-5.3c13.3-1.8,26.6-1.8,39.9,0c3.1,0.4,4.5,2.2,4.9,5C74.1,43.3,74.1,52.1,72.8,60.8z"
		/>
	<path class="st0" d="M60.7,47.7c-7.6,4.4-14.8,8.6-22.6,13V34.9C45.7,39.2,52.9,43.3,60.7,47.7z"/>
	<path class="st0" d="M60.7,47.7c-7.6,4.4-14.8,8.6-22.6,13V34.9C45.7,39.2,52.9,43.3,60.7,47.7z"/>
</g>
</svg>
