<?xml version="1.0" encoding="utf-8"?>
<!-- Generator: Adobe Illustrator 22.0.1, SVG Export Plug-In . SVG Version: 6.00 Build 0)  -->
<svg version="1.1" id="Layer_1" xmlns="http://www.w3.org/2000/svg" xmlns:xlink="http://www.w3.org/1999/xlink" x="0px" y="0px"
	 viewBox="0 0 96 96" style="enable-background:new 0 0 96 96;" xml:space="preserve">
<style type="text/css">
	.st0{display:none;}
	.st1{display:inline;}
	.st2{fill:#FFFFFF;}
</style>
<g id="Layer_1_1_" class="st0">
	<g class="st1">
		<path class="st2" d="M80.8,46.1c-15.2-8.7-30.4-17.4-45.6-26.2c-4.3-2.5-8.7-4.9-13.3-7.5v70.9c0.5,0,0.8,0,1.1-0.1
			c19.4-11,38.7-22.1,58.2-33C84.6,48.3,83.2,47.5,80.8,46.1z M37,61c-2.1,1.3-2.9,0.8-2.9-1.6c0-7.5,0-14.9,0-22.3
			c0-2,0.5-2.8,2.6-1.6C43.8,39.7,51,43.8,59,48.3C51.1,52.8,44.1,56.8,37,61z"/>
		<path class="st2" d="M80.8,46.1c-15.2-8.7-30.4-17.4-45.6-26.2c-4.3-2.5-8.7-4.9-13.3-7.5v70.9c0.5,0,0.8,0,1.1-0.1
			c19.4-11,38.7-22.1,58.2-33C84.6,48.3,83.2,47.5,80.8,46.1z M37,61c-2.1,1.3-2.9,0.8-2.9-1.6c0-7.5,0-14.9,0-22.3
			c0-2,0.5-2.8,2.6-1.6C43.8,39.7,51,43.8,59,48.3C51.1,52.8,44.1,56.8,37,61z"/>
		<path class="st2" d="M80.8,46.1c-15.2-8.7-30.4-17.5-45.6-26.2c-4.3-2.5-8.7-4.9-13.3-7.5v70.9c0.5-0.1,0.8,0,1.1-0.1
			c19.4-11,38.7-22.1,58.2-33C84.6,48.3,83.2,47.5,80.8,46.1z M37,61c-2.1,1.3-2.9,0.8-2.9-1.6c0.1-7.5,0-14.9,0-22.4
			c0-2,0.5-2.8,2.6-1.6C43.8,39.6,51,43.7,59,48.2C51.1,52.8,44.1,56.8,37,61z"/>
	</g>
</g>
<g id="Layer_2_1_">
	<g>
		<path class="st2" d="M67.9,47c-7.5-4.3-15-8.6-22.5-12.9c-2.1-1.3-4.3-2.5-6.5-3.8v35h0.5C49,59.8,58.5,54.4,68.2,49
			C69.8,48,69.1,47.6,67.9,47z M46.3,54.2c-1,0.7-1.4,0.4-1.4-0.8V42.4c0-1,0.3-1.4,1.3-0.8c3.5,2.1,7,4,10.9,6.4
			C53.2,50.2,49.7,52.3,46.3,54.2z"/>
		<path class="st2" d="M86.8,29.9c-1-6.1-4.8-9.6-10.9-10.7c-8-1.3-16-1.7-24.7-2.2c-9.5,0-19.7,0.5-29.8,2
			c-7.5,1-11.2,4.8-12.2,11.7C7.4,41.9,7.2,53.2,8.9,64.4c1.3,8.1,4.8,11.7,13,12.8c4.9,0.7,9.9,1,15,1.4c13.4,0.9,26.7,0.3,40-1.9
			c5.1-0.8,8.5-4.2,9.5-9.2C88.9,54.9,88.8,42.4,86.8,29.9z M80.6,65.5c-0.7,3.4-2.6,5.1-6.3,5.5c-8.6,1-17.2,2-25.8,1.8
			c-9,0.1-18-0.8-26.8-1.8c-4-0.4-5.9-2.3-6.4-6.4c-1.8-11.2-1.7-22.3,0-33.3c0.5-3.5,2.1-5.3,5.7-5.9c14.3-2.2,28.7-2.7,43.1-1.3
			c3.6,0.4,7.3,0.8,10.9,1.3c3.1,0.5,4.9,2.2,5.5,5.2C82.5,42.1,82.6,53.9,80.6,65.5z"/>
		<path class="st2" d="M67.9,47c-7.5-4.3-15-8.6-22.5-12.9c-2.1-1.3-4.3-2.5-6.5-3.8v35h0.5C49,59.8,58.5,54.4,68.2,49
			C69.8,48,69.1,47.6,67.9,47z M46.3,54.2c-1,0.7-1.4,0.4-1.4-0.8V42.4c0-1,0.3-1.4,1.3-0.8c3.5,2.1,7,4,10.9,6.4
			C53.2,50.2,49.7,52.3,46.3,54.2z"/>
	</g>
	<g>
		<path class="st2" d="M67.9,47c-7.5-4.3-15-8.6-22.5-12.9c-2.1-1.2-4.3-2.5-6.5-3.8v35h0.5C49,59.8,58.5,54.4,68.2,49
			C69.8,48,69.1,47.6,67.9,47z M46.3,54.2c-1,0.7-1.4,0.4-1.4-0.8V42.4c0-1,0.3-1.4,1.3-0.8c3.5,2.1,7,4,10.9,6.4
			C53.2,50.2,49.7,52.3,46.3,54.2z"/>
		<path class="st2" d="M67.9,47c-7.5-4.3-15-8.6-22.5-12.9c-2.1-1.2-4.3-2.5-6.5-3.8v35h0.5C49,59.8,58.5,54.4,68.2,49
			C69.8,48,69.1,47.6,67.9,47z M46.3,54.2c-1,0.7-1.4,0.4-1.4-0.8V42.4c0-1,0.3-1.4,1.3-0.8c3.5,2.1,7,4,10.9,6.4
			C53.2,50.2,49.7,52.3,46.3,54.2z"/>
		<path class="st2" d="M67.9,47c-7.5-4.3-15-8.6-22.5-12.9c-2.1-1.3-4.3-2.5-6.5-3.8v35h0.5C49,59.8,58.5,54.4,68.2,49
			C69.8,48,69.1,47.6,67.9,47z M46.3,54.2c-1,0.7-1.4,0.4-1.4-0.8V42.4c0-1,0.3-1.4,1.3-0.8c3.5,2.1,7,4,10.9,6.4
			C53.2,50.2,49.7,52.3,46.3,54.2z"/>
	</g>
</g>
</svg>
