<?xml version="1.0" encoding="utf-8"?>
<!-- Generator: Adobe Illustrator 23.0.3, SVG Export Plug-In . SVG Version: 6.00 Build 0)  -->
<svg version="1.1" id="Layer_1" xmlns="http://www.w3.org/2000/svg" xmlns:xlink="http://www.w3.org/1999/xlink" x="0px" y="0px"
	 viewBox="0 0 96 96" style="enable-background:new 0 0 96 96;" xml:space="preserve">
<style type="text/css">
	.st0{fill:#FFFFFF;}
</style>
<g>
	<path class="st0" d="M65.1,37.3c-0.1,9.1-5,15.9-13.7,17.6c-10.9,2.3-19.1-5.6-20.3-13.8c-0.9-6.6-0.3-12.8,4.6-17.6
		c5.2-5.1,11.3-6.6,18.1-4c6.4,2.3,10,7.1,10.9,13.8C65,34.6,65.1,35.9,65.1,37.3z"/>
	<path class="st0" d="M47.9,90.8c-8.4,0-19.8-6.7-25.3-10c-4.6,0.1-6.5-3.7-5.8-6.4c0.5-2,1.9-3.5,3.6-4.5c12.1-8,25-11.2,39.3-7.3
		C64.7,64,69.5,66,74,68.8c1.3,0.9,2.5,1.9,3.6,3.1c1.5,1.5,2,3.4,1.2,5.4c-0.8,2.1-2.3,3.5-4.7,3.5C68.8,85.4,60.7,90.9,54,90.9
		C51.9,90.8,49.9,90.8,47.9,90.8z"/>
</g>
<g>
	<path class="st0" d="M48,93.1C23.2,93.1,2.9,72.8,2.9,48C2.9,23.2,23.2,2.9,48,2.9c24.8,0,45.1,20.2,45.1,45.1
		C93.1,72.8,72.8,93.1,48,93.1z M48,7.9C25.9,7.9,7.9,25.9,7.9,48c0,22.1,18,40.1,40.1,40.1c22.1,0,40.1-18,40.1-40.1
		C88.1,25.9,70.1,7.9,48,7.9z"/>
</g>
</svg>
