<?xml version="1.0" encoding="utf-8"?>
<!-- Generator: Adobe Illustrator 23.1.1, SVG Export Plug-In . SVG Version: 6.00 Build 0)  -->
<svg version="1.1" id="Layer_1" xmlns="http://www.w3.org/2000/svg" xmlns:xlink="http://www.w3.org/1999/xlink" x="0px" y="0px"
	 viewBox="0 0 96 96" style="enable-background:new 0 0 96 96;" xml:space="preserve">
<style type="text/css">
	.st0{fill:#20222C;}
	.st1{fill:#ECECEC;}
	.st2{fill:#A3A3CB;}
	.st3{fill:#797AB5;}
	.st4{fill:#5760A0;}
	.st5{fill:#7979B5;}
	.st6{fill:#F7F5E9;}
	.st7{fill:#2E3041;}
	.st8{fill:#323441;}
	.st9{fill:#333544;}
	.st10{fill:#1F212B;}
	.st11{fill:#353649;}
	.st12{fill:#343449;}
</style>
<g>
	<path class="st0" d="M39.3,68.2c-1.8,1.6-1.6,3.2-0.6,5.2c1.7,3.8,3.3,7.6,4.7,11.5c1.6,4.3,0.1,8.4-3.2,9.6
		c-3.2,1.1-6.9-0.8-8.6-4.9c-3.4-8.4-6.8-16.9-10-25.4c-0.7-1.9-1.6-2.6-3.7-2.7C8.3,60.6,5.2,57.3,4.6,47.6
		c-0.3-5.5-0.3-11,2.4-16.1c1.5-2.8,3.5-4.5,6.9-4.8c7.5-0.6,15-1.7,22.5-2c6.1-0.2,11.5-1.8,16.7-4.8c6.4-3.7,13-6.9,19.6-10.3
		c1.7-0.9,2.9-1.7,3.2-4c0.5-3.1,2.8-4.9,6.1-4.5c3.1,0.4,4.6,2.4,4.9,5.5c0,0.1,0,0.3,0,0.4C87,17,86.9,26.7,90,36.5
		c2.6,8,2.2,17-2.7,24.8c-0.5,0.8-0.3,2.1-0.3,3.2c0,5.5,0,11,0,16.5c0,3.7-2.3,6.2-5.4,6.3c-3.1,0.1-5.6-2.2-5.8-5.9
		c-0.1-1.9-0.7-2.9-2.3-3.7c-8.8-4.3-17.6-8.6-26.3-13c-2.4-1.2-4.5-1.4-6.2,1c-1.5-0.3-2.3-2.4-4.3-1.4
		C36.1,66.7,38.3,67,39.3,68.2z"/>
	<path class="st1" d="M39.3,68.2c-4.2,0.9-3.1-2.9-5.2-5.2c3.2,0.6,6.3-1.2,6.8,2.9C40.4,66.7,39.8,67.5,39.3,68.2z"/>
	<path class="st2" d="M13.6,29.4c9.1-0.8,18.2-1.6,27.3-2.4c2.3-0.2,5-0.8,5.1,3.5c0-4,2.4-5.2,5.1-6.6c8.6-4.3,17.1-8.8,26.3-13.6
		c0,20,0,39.3,0,58.6c0.6,0.5,1.2,0.9,1.1,1.8c-0.3,1.5-0.1,2.9,0.3,4.3c0,0.8,0,1.6-0.8,2.1c-9.4-4.6-18.7-9.4-28.1-13.9
		c-2.4-1.1-3.4-2.4-3.3-5.1c0.2-6.8,0.1-13.6,0.1-20.6c-2,0.6-1.4,1.9-1.4,2.8c-0.1,5.6-0.2,11.3,0,16.9c0.1,2.9-0.5,4-3.7,3.7
		c-9.3-1-18.7-1.8-28.1-2.6c-0.8-0.3-1.2-0.9-1.1-1.8c0.3-1.9,0.2-3.8-0.1-5.7c0-0.9,0.2-1.7,0.2-2.6c0-4.6,0-9.3,0-13.9
		C12.4,32.6,12.3,30.8,13.6,29.4z"/>
	<path class="st3" d="M78,70.5c-0.2-0.5-0.4-1-0.7-1.6c2-0.1,1.4-1.7,1.4-2.7c0-18.4,0-36.8,0-55.2c0-1.2-0.5-2.3-0.6-3.5
		c-0.1-1.9,0.6-3.5,2.7-3.9c2-0.4,2.9,1.1,3.4,2.7c0.3,1.1,0.3,2.4,0.3,3.6c0,23,0,45.9,0,68.9c0,0.3,0,0.5,0,0.8
		c-0.1,2.4,0,5.4-3.3,5.4c-3.4,0-3-3.1-3.1-5.5c0-0.8-0.1-1.6-0.1-2.4c0-0.8,0-1.6,0.1-2.3C78.1,73.3,78.1,71.9,78,70.5z"/>
	<path class="st4" d="M23.4,61.4c5.7-0.6,8.8,1.6,10.4,7c1.6,5.6,4.2,11,6.4,16.4c0.5,1.3,0.8,2.5,0.8,3.9c0,1.5-0.6,2.6-2,3.2
		c-1.3,0.5-2.4-0.2-3.3-1c-0.6-0.5-1.1-1.2-1.4-1.9C30.7,79.8,27.1,70.7,23.4,61.4z"/>
	<path class="st5" d="M13.4,49.5c-0.2,0.5-0.4,1-0.6,1.5c-0.1,1.9-0.1,3.9,0,5.8c0.2,0.5,0.5,0.9,0.7,1.4c-2.3,0.3-4-1-4.8-2.9
		c-3.4-7.6-3.4-15.3,0.2-22.9c0.5-1.1,1.3-2.4,3-2.3c1.5,2.2,0.6,4.7,0.8,7C13.1,41.3,11.9,45.5,13.4,49.5z"/>
	<path class="st6" d="M87.1,58.4c0-9,0-17.9,0-26.9C90.4,40.5,90.3,49.4,87.1,58.4z"/>
	<path class="st7" d="M13.4,49.5c-2.3,0-1.4-1.8-1.5-2.9c-0.1-5.5-0.1-10.9-0.1-16.4c0.6-0.3,1.2-0.5,1.8-0.8
		C13.5,36.1,13.5,42.8,13.4,49.5z"/>
	<path class="st8" d="M40.8,41.1c-7.2,0-14.3,0-21.5,0c0-0.2,0-0.4,0-0.6c7.2,0,14.3,0,21.5,0C40.8,40.7,40.8,40.9,40.8,41.1z"/>
	<path class="st9" d="M40.8,46.7c-7.1,0-14.3,0-21.4,0c0-0.2,0-0.5,0-0.7c7.1,0,14.3,0,21.4,0C40.7,46.2,40.8,46.5,40.8,46.7z"/>
	<path class="st10" d="M19.5,33.4c7,0,14,0,21,0c0,0.2,0,0.4,0,0.6c-7,0-14.1,0-21.1,0C19.4,33.8,19.5,33.6,19.5,33.4z"/>
	<path class="st10" d="M19.6,52.8c7,0,14,0,21,0c0,0.2,0,0.4,0,0.6c-7,0-14.1,0-21.1,0C19.4,53.3,19.5,53,19.6,52.8z"/>
	<path class="st11" d="M12.7,56.9c-1.3-1.9-1.4-3.9,0-5.8C14,53,14,54.9,12.7,56.9z"/>
	<path class="st12" d="M78,70.5c1.2,1.4,1.3,2.9,0,4.3C76.7,73.3,76.7,71.9,78,70.5z"/>
</g>
</svg>
