<?xml version="1.0" encoding="utf-8"?>
<!-- Generator: Adobe Illustrator 22.0.1, SVG Export Plug-In . SVG Version: 6.00 Build 0)  -->
<svg version="1.1" id="Layer_1" xmlns="http://www.w3.org/2000/svg" xmlns:xlink="http://www.w3.org/1999/xlink" x="0px" y="0px"
	 viewBox="0 0 96 96" style="enable-background:new 0 0 96 96;" xml:space="preserve">
<style type="text/css">
	.st0{fill:#010101;}
</style>
<g>
	<path class="st0" d="M78.6,40.8C78.4,45.6,79,51.3,77.9,57c-1.3,6.9-4.5,12.8-9.6,17.7c-1.2,1.1-2.5,2-4.1,0.7
		c-1.5-1.3-0.9-2.7-0.1-4.1c3.3-6.1,4.2-12.8,4.3-19.6c0-1.1-0.5-1.1-1.4-1.1c-2.8,0-5.6,0-8.5,0c-3.4,0-5.5-1.9-5.6-5.3
		C53,38.7,53,32,53,25.4c0-3.3,2.2-5.3,5.5-5.4c4.8-0.1,9.5,0,14.3,0c3.6,0,5.6,2.1,5.7,5.8C78.6,30.5,78.6,35.2,78.6,40.8z"/>
	<path class="st0" d="M42.9,40.1c-0.2,4.6,0.5,10.2-0.4,15.8c-1.2,7.5-4.6,13.9-10.2,19.1c-1.1,1-2.4,1.4-3.6,0.4
		c-1.3-1-1.2-2.3-0.4-3.7c3.4-6.1,4.4-12.8,4.6-19.7c0-1.3-0.4-1.5-1.6-1.5c-2.8,0.1-5.6,0-8.5,0c-3.2,0-5.3-2.1-5.3-5.3
		c0-6.7,0-13.3,0-20c0-3.1,2-5.3,5.1-5.3c5.1-0.1,10.2-0.1,15.3,0c3.1,0.1,5,2.2,5,5.4C42.9,29.9,42.9,34.5,42.9,40.1z"/>
</g>
</svg>
