<?xml version="1.0" encoding="utf-8"?>
<!-- Generator: Adobe Illustrator 22.0.1, SVG Export Plug-In . SVG Version: 6.00 Build 0)  -->
<svg version="1.1" xmlns="http://www.w3.org/2000/svg" xmlns:xlink="http://www.w3.org/1999/xlink" x="0px" y="0px"
	 viewBox="0 0 96 96" style="enable-background:new 0 0 96 96;" xml:space="preserve">
<style type="text/css">
	.st0{display:none;}
	.st1{display:inline;}
</style>
<g id="Layer_1" class="st0">
	<g class="st1">
		<path d="M53.4,56.8c-0.2,0.3-0.4,0.6-0.7,0.8c1.3,1.1,2.1,2.7,2.1,4.5c0,3.3-2.7,6-6,6s-6-2.7-6-6c0-1.9,0.9-3.6,2.3-4.7
			c-0.2-0.3-0.4-0.6-0.6-0.8c-1.6,1.3-2.7,3.3-2.7,5.5c0,3.9,3.2,7.1,7.1,7.1S56,66,56,62.1C55.8,60,54.9,58.1,53.4,56.8z"/>
	</g>
	<g class="st1">
		<path d="M59.1,49.1c-0.5,0.7-0.9,1.4-1.4,2c3.2,2.6,5.3,6.6,5.3,11.1c0,7.8-6.4,14.2-14.2,14.2S34.6,70,34.6,62.2
			c0-4.6,2.2-8.7,5.5-11.3c-0.5-0.7-1-1.3-1.4-2c-4,3.1-6.6,7.9-6.6,13.3c0,9.2,7.5,16.7,16.7,16.7s16.7-7.5,16.7-16.7
			C65.5,56.9,63,52.1,59.1,49.1z"/>
	</g>
	<g class="st1">
		<path d="M67.1,35.6c-0.7,1.5-1.5,2.9-2.2,4.3c6.9,5,11.4,13.1,11.4,22.3c0,15.2-12.3,27.5-27.5,27.5S21.3,77.4,21.3,62.2
			c0-9.3,4.6-17.5,11.7-22.5c-0.8-1.4-1.5-2.9-2.2-4.3C22.1,41.2,16.4,51,16.4,62.2c0,17.8,14.5,32.3,32.3,32.3S81,80,81,62.2
			C81.1,51.2,75.6,41.4,67.1,35.6z"/>
	</g>
	<path class="st1" d="M68.9,18.1c-1.4-7.4-5.5-12.7-12.5-15.5S42.7,0.8,36.7,5.3c-7.6,5.8-9.8,14.6-6.3,24.2
		c4.1,11,11.1,20.2,18.4,29.3c0.3-0.2,0.6-0.4,0.8-0.6c6.5-7.9,12.5-16.1,16.8-25.5C68.4,28.1,69.9,23.3,68.9,18.1z M49,28.5
		c-4,0-7.2-3.3-7.2-7.4c0-3.9,3.3-7.1,7.3-7.1c3.9,0,7.1,3.3,7.1,7.3C56.3,25.2,52.9,28.5,49,28.5z"/>
</g>
<g id="Layer_2">
	<g>
		<path d="M60.7,62.4c-0.5,0.8-1,1.6-1.6,2.5c14.3,1.2,22.7,4.8,22.7,7.4c0,3.3-12.9,7.9-33.8,7.9s-33.8-4.6-33.8-7.9
			c0-2.7,8.5-6.2,23-7.5c-0.5-0.8-1-1.6-1.5-2.5c-15.8,1.5-24.1,5.7-24.1,9.9c0,5.2,12.5,10.5,36.3,10.5s36.3-5.3,36.3-10.5
			C84.3,68.1,76.3,63.9,60.7,62.4z"/>
	</g>
	<path d="M68.1,31.6c-1.4-7.4-5.5-12.7-12.5-15.5s-13.7-1.8-19.7,2.7c-7.6,5.8-9.8,14.6-6.3,24.2C33.7,54,40.7,63.2,48,72.3
		c0.3-0.2,0.6-0.4,0.8-0.6c6.5-7.9,12.5-16.1,16.8-25.5C67.6,41.6,69.1,36.8,68.1,31.6z M48.2,42c-4,0-7.2-3.3-7.2-7.4
		c0-3.9,3.3-7.1,7.3-7.1c3.9,0,7.1,3.3,7.1,7.3C55.5,38.7,52.1,42,48.2,42z"/>
</g>
</svg>
