<?xml version="1.0" encoding="utf-8"?>
<!-- Generator: Adobe Illustrator 20.0.0, SVG Export Plug-In . SVG Version: 6.00 Build 0)  -->
<svg version="1.1" id="Layer_1" xmlns="http://www.w3.org/2000/svg" xmlns:xlink="http://www.w3.org/1999/xlink" x="0px" y="0px"
	 viewBox="0 0 96 96" style="enable-background:new 0 0 96 96;" xml:space="preserve">
<style type="text/css">
	.st0{fill:#FFFFFF;}
</style>
<path class="st0" d="M59.6,5.3h-1.7C56.6,6.8,57,8.5,57,10.2c0,20.4,0.5,40.7-1.5,61c-0.5,5-0.6,10,0.2,15c0.4,2.3,1.1,4.7,3.8,5.1
	c2.7,0.4,4.8-1,6.1-3.2c0.9-1.6,1.7-3.3,2.1-5.1c1.6-6.9,2.5-14.2,0-20.8C65,55,66.4,49.2,70,42.9C78.5,27.7,74.5,14.1,59.6,5.3z
	 M64.4,46.2c-2.3,4.1-2.8,8.3-1.1,12.8c2.8,7.2,2.8,14.6,1.4,22c-0.1,0.7-0.3,1.4-0.5,2.1c-0.7,2-1.2,5-3.6,4.7
	c-2.2-0.3-1.6-3.2-1.8-5.1C58.4,75.7,59,68.9,59.6,62c1.6-17,0.5-34.1,0.9-51.6c9.4,6.2,12.7,16.5,8.7,26.3
	C67.9,40,66.2,43.1,64.4,46.2z"/>
<path class="st0" d="M50,29.7c-0.5-5.9-1.2-11.7-1.3-17.6C48.7,7.7,46.7,6,42.5,6c-4.4,0-8.8,0-13.3,0c-3.7,0-5.2,1.7-5.4,5.5
	c-0.5,6.4-1.3,12.8-1.4,19.3c0,3.4,0.6,7.2,3.4,8.9c5.8,3.6,5.5,8.6,4.6,14.1c-0.6,3.5-0.7,7.1-0.8,10.7c-0.2,7.6-1,15.2,1.3,22.6
	c0.8,2.6,2.4,4.2,5.3,4.2c2.8,0,4.5-1.5,5.3-4.1c1.1-3.4,1.4-7,1.6-10.6c0.3-9.5-0.7-18.9-1.6-28.3c-0.3-2.6,0.2-4.5,2.6-6.2
	C48.6,39.4,50.5,35,50,29.7z M46.5,33.1c-0.2,3.1-2.3,5.2-4.8,6.8c-3,2-3.9,4.5-3.6,8.1c0.9,9.3,1.9,18.6,1.6,27.9
	c-0.1,2.6-0.4,5.1-0.7,7.7c-0.2,1.8-0.2,4.3-2.5,4.3c-2.7,0-2.4-2.7-2.8-4.5c-0.8-3.8-0.7-7.7-0.9-11.6c0.6-8,1.1-16,1.9-24
	c0.3-3.3-0.5-5.9-3.4-7.7c-4-2.6-5.6-6.3-5.1-11c0.6-5.7,1-11.4,1.4-17.1c0.1-1.9,1-2.6,2.7-2.5c1.9,0.1,1,1.7,1.1,2.6
	c0.1,4.3,0,8.6,0,12.9c0,1.4,0.1,2.8,1.9,2.7c1.4-0.1,1.5-1.4,1.5-2.6c0-4.6,0-9.2,0-13.8c0-1.3-0.2-2.5,1.9-2.4
	C38.3,8.8,38,10,38,11c0,4.5,0,8.9,0,13.3c0,1.4-0.2,3.3,1.9,3.1c1.7-0.1,1.6-1.7,1.6-3c0-4.3,0-8.6,0-12.9c0-0.8-0.7-2.3,1.1-2.2
	c1.1,0.1,2.3,0.2,2.4,1.8C45.8,18.5,46.9,25.8,46.5,33.1z"/>
</svg>
