<?xml version="1.0" encoding="utf-8"?>
<!-- Generator: Adobe Illustrator 22.0.1, SVG Export Plug-In . SVG Version: 6.00 Build 0)  -->
<svg version="1.1" id="Layer_1" xmlns="http://www.w3.org/2000/svg" xmlns:xlink="http://www.w3.org/1999/xlink" x="0px" y="0px"
	 viewBox="0 0 96 96" style="enable-background:new 0 0 96 96;" xml:space="preserve">
<style type="text/css">
	.st0{fill:#FFFFFF;}
</style>
<path class="st0" d="M34.1,22.7c3.6,0,7,0,10.3,0c0.8,0,1.2,0.3,1.6,0.9c5.2,7.9,10.5,15.8,15.7,23.6c0.4,0.6,0.5,1,0,1.7
	c-5.3,7.9-10.5,15.7-15.7,23.6c-0.4,0.6-0.9,0.9-1.7,0.9c-3.3-0.1-6.6,0-9.9,0c-0.1-0.7,0.4-1.1,0.7-1.5c5-7.5,9.9-15,15-22.4
	c0.7-1,0.7-1.7,0-2.7c-5-7.4-9.9-14.8-14.9-22.3C34.8,23.9,34.5,23.4,34.1,22.7z"/>
<path class="st0" d="M48,7.4c22.4,0,40.6,18.2,40.6,40.6S70.4,88.6,48,88.6S7.4,70.4,7.4,48S25.6,7.4,48,7.4 M48,1.4
	C22.3,1.4,1.4,22.3,1.4,48S22.3,94.6,48,94.6S94.6,73.7,94.6,48S73.7,1.4,48,1.4L48,1.4z"/>
</svg>
