<?xml version="1.0" encoding="utf-8"?>
<!-- Generator: Adobe Illustrator 23.1.1, SVG Export Plug-In . SVG Version: 6.00 Build 0)  -->
<svg version="1.1" id="Layer_1" xmlns="http://www.w3.org/2000/svg" xmlns:xlink="http://www.w3.org/1999/xlink" x="0px" y="0px"
	 viewBox="0 0 96 96" style="enable-background:new 0 0 96 96;" xml:space="preserve">
<style type="text/css">
	.st0{fill:#E5E3F2;}
	.st1{fill:#F1BD1E;}
	.st2{fill:#FCCE5B;}
	.st3{fill:#A3A4D1;}
	.st4{fill:#FCD065;}
	.st5{fill:#A2A4D1;}
	.st6{fill:#4E3532;}
	.st7{fill:#FBFBFD;}
	.st8{fill:#C1D078;}
	.st9{fill:#FEFCEF;}
	.st10{fill:#776953;}
	.st11{fill:#766751;}
	.st12{fill:#776852;}
	.st13{fill:#776752;}
	.st14{fill:#634E45;}
	.st15{fill:#634F45;}
	.st16{fill:#776853;}
	.st17{fill:#574734;}
	.st18{fill:#725E59;}
	.st19{fill:#654F4B;}
	.st20{fill:#553D3A;}
	.st21{fill:#5D4541;}
	.st22{fill:#88AE44;}
	.st23{fill:#72803B;}
	.st24{fill:#DCDAD3;}
	.st25{fill:#A8DCDC;}
	.st26{fill:#7D7572;}
</style>
<g>
	<path class="st0" d="M6.8,58.4c-0.2-2.5-0.4-5-0.7-7.6c-2-20.8,13.2-40.3,33.6-44.2c20.1-3.8,38.8,6.6,46.7,23.7
		c6.8,14.7,4.1,34.8-7.9,46.8C70,85.7,60,90.1,48.3,90.2c-10.8,0.1-20.5-3.4-28.7-10.9c-3.8-3.6-6.8-7.8-9.7-12.1c0-0.3,0-0.7,0.1-1
		c2.4-4.6,2.2-5.1-2.7-7.1C7.1,59,6.9,58.8,6.8,58.4z"/>
	<path class="st1" d="M90.3,7.9c0.1,2.5-2.1,4.7-4.6,4.7c-2.4,0-4.4-2.1-4.4-4.5c0-2.4,1.8-4.5,4.2-4.6C88,3.4,90.2,5.4,90.3,7.9z"
		/>
	<path class="st2" d="M6.8,58.4c2.5-0.1,4.6,0.4,5.5,3.1c0.9,2.6-0.7,4.1-2.4,5.6c-2.8,0.4-5.4,0-6.3-3.1
		C2.9,61.4,4.3,59.5,6.8,58.4z"/>
	<path class="st3" d="M90.4,20.6c-1.4-0.2-2.3-1-2.3-2.3c0.1-1.3,1-2.2,2.4-2.2c1.3,0,2,0.7,2,2C92.5,19.6,91.6,20.3,90.4,20.6z"/>
	<path class="st4" d="M85.8,77.7c-0.3,1.3-0.9,2.2-2.3,2.2c-1.3,0-2.1-0.7-2.2-1.9c-0.1-1.4,0.7-2.4,2-2.4
		C84.7,75.5,85.5,76.3,85.8,77.7z"/>
	<path class="st3" d="M17.5,91.2c-0.1-2.2,0.7-3,1.9-3.1c1.2-0.1,2.1,0.6,2.1,2c0,1.4-0.6,2.4-2.1,2.4C18,92.5,17.5,91.6,17.5,91.2z
		"/>
	<path class="st5" d="M8,24c-0.4,1.5-1.3,2.2-2.7,2.1c-1.3-0.1-1.9-1-1.8-2.3C3.7,22.5,4.6,22,5.9,22C7.3,22,7.7,23,8,24z"/>
	<path class="st6" d="M48,21.7c5.3,0,10.6-0.1,15.9,0c6.8,0.1,10.3,3.5,10.3,10.2c0.1,10.7,0.1,21.5,0,32.2c0,6.6-3.5,10.1-10,10.2
		c-10.8,0.1-21.7,0.1-32.5,0c-6.5-0.1-10-3.6-10-10.2c-0.1-10.7-0.1-21.5,0-32.2c0-6.7,3.6-10.1,10.4-10.2
		C37.4,21.7,42.7,21.7,48,21.7z"/>
	<path class="st7" d="M9.5,52.1c-0.1-1.7,0.5-2.8,2.4-2.7c1.7,0.1,2.8,0.9,2.8,2.6c0,1.7-1,2.6-2.7,2.7C10.2,54.8,9.4,53.9,9.5,52.1
		z"/>
	<path class="st8" d="M48,72.6c-5.4,0-10.8,0-16.3,0c-5.4,0-8.3-2.8-8.3-8.1c0-11,0-21.9,0-32.9c0-5.3,2.9-8.2,8.2-8.2
		c11,0,21.9,0,32.9,0c5.3,0,8.1,2.9,8.1,8.3c0,10.8,0,21.7,0,32.5c0,5.6-2.8,8.3-8.4,8.4C58.8,72.7,53.4,72.6,48,72.6z"/>
	<path class="st9" d="M61.6,26.7c4.5-1,7.9,1.8,8.2,6.8c0.1,2.2,0,4.3,0,6.5c-0.9,1.5-0.7,3.1,0,4.6c-0.1,0.4-0.3,0.8-0.4,1.2
		c-0.3,5.9,0,11.7-0.2,17.6c-0.5,3.4-2.5,5.3-5.9,5.8c-10.2,0.1-20.4,0.1-30.7,0c-3.4-0.5-5.4-2.4-5.9-5.9
		c-0.1-10.2-0.1-20.5,0-30.7c0.5-3.4,2.4-5.4,5.9-5.9C42.3,26.7,52,26.9,61.6,26.7z"/>
	<path class="st10" d="M32.1,68.7c10.6,0,21.3,0,31.9,0c0.3,0.2,0.7,0.2,0.8,0.6C64.1,70,63.4,70,62.6,70c-9.7,0-19.4,0-29.1,0
		c-0.8,0-1.6,0-2.2-0.6C31.4,69,31.8,68.9,32.1,68.7z"/>
	<path class="st11" d="M27.3,32.1c0,10.6,0,21.3,0,31.9c-0.2,0.3-0.2,0.7-0.6,0.8c-0.6-0.6-0.6-1.4-0.6-2.2c0-9.7,0-19.4,0-29.1
		c0-0.8,0-1.6,0.6-2.2C27.1,31.4,27.1,31.8,27.3,32.1z"/>
	<path class="st12" d="M61.6,26.7c-0.9,1-2.1,0.6-3.1,0.6c-8.8,0-17.6,0-26.4,0c-0.3-0.2-0.7-0.2-0.8-0.6c0.6-0.6,1.4-0.6,2.2-0.6
		c8.7,0,17.3,0,26,0C60.2,26.1,61,26,61.6,26.7z"/>
	<path class="st13" d="M68.8,64c0-5.1,0-10.3,0-15.4c0-0.9-0.4-2,0.7-2.7c0.8,6.3,0.9,12.6,0,18.9C69,64.7,68.9,64.3,68.8,64z"/>
	<path class="st14" d="M26.7,64.8c0.2-0.3,0.4-0.5,0.6-0.8c0.6,2.5,2.2,4.1,4.8,4.8c-0.3,0.2-0.5,0.4-0.8,0.6
		C28.8,68.8,27.2,67.3,26.7,64.8z"/>
	<path class="st15" d="M68.8,64c0.2,0.3,0.4,0.5,0.6,0.8c-0.6,2.5-2.1,4-4.6,4.6c-0.3-0.2-0.5-0.4-0.8-0.6
		C66.5,68.1,68.1,66.5,68.8,64z"/>
	<path class="st15" d="M31.3,26.7c0.3,0.2,0.5,0.4,0.8,0.6c-2.5,0.6-4.1,2.2-4.8,4.8c-0.2-0.3-0.4-0.5-0.6-0.8
		C27.2,28.8,28.8,27.2,31.3,26.7z"/>
	<path class="st16" d="M69.8,44.6c-1.7-1.5-1.8-3.1,0-4.6C69.8,41.5,69.8,43.1,69.8,44.6z"/>
	<path class="st17" d="M44.1,52c0.7,5.5-4.2,7.4-7.1,10.5c-0.7,0.7-2.1,0.4-3-0.5c-0.8-0.8-1.1-2-0.6-2.7c2.3-3,4.7-6,8.2-7.8
		c0.3-0.2,1,0.3,1.5,0.4C43.5,51.7,43.8,51.7,44.1,52z"/>
	<path class="st18" d="M44.3,49.4c-3.8-5.7-2.4-11.7,3.8-15.2c0.5,0.2,0.9,0.4,0.7,1.1c-1.5,2.1-4.2,3.4-4.5,6.4
		c-0.2,1.9-0.4,3.7,0.5,5.5c0.4,0.7,1.1,1.5,0.3,2.4C44.9,49.6,44.6,49.6,44.3,49.4z"/>
	<path class="st18" d="M61.8,48c-3.5,6.1-9.5,7.6-15.2,3.8c-0.2-0.3-0.2-0.6-0.2-0.9c0.6-0.6,1.2-0.2,1.8,0c4.2,1.9,7.9,1.3,11-2.3
		c0.4-0.5,0.8-1,1.5-1.3C61.4,47.1,61.7,47.4,61.8,48z"/>
	<path class="st19" d="M55.3,33.6c3.8,1,6.1,3.5,7.2,7.2C62.2,40.9,62,41,61.6,41c-2-2.4-4.2-4.6-6.6-6.6
		C55,34.1,55.1,33.8,55.3,33.6z"/>
	<path class="st20" d="M61.8,40.7c0.2,0,0.5,0,0.7,0c0.6,2.5,0.5,4.9-0.7,7.2c-0.2-0.2-0.3-0.4-0.5-0.6
		C60.7,45.1,60.9,42.9,61.8,40.7z"/>
	<path class="st20" d="M55.3,33.6c0,0.2,0,0.5,0,0.7c-2.1,0.9-4.3,1.2-6.6,0.5c-0.2-0.2-0.4-0.3-0.6-0.5C50.4,33,52.8,33,55.3,33.6z
		"/>
	<path class="st21" d="M46.7,50.8c0,0.3,0,0.6,0,0.9c-1-0.8-1.7,0.5-2.5,0.3c-0.3,0-0.7-0.1-1-0.1c0.6-0.8,2.1-1.1,1.2-2.5
		c0.3,0,0.6,0,0.9,0C46.1,49.5,46.6,49.9,46.7,50.8z"/>
	<path class="st22" d="M36.7,57.3c0.8-0.9,1.6-1.8,2.4-2.7c0.9-1.1,1.6-1,2.6,0c0.9,1,0.8,1.6-0.1,2.4c-1.6,1.5-3.2,3-4.8,4.6
		C34.8,60.2,36.9,58.7,36.7,57.3z"/>
	<path class="st23" d="M36.7,57.3c1.6,1.3-0.8,2.8,0.1,4.2c-1.1,0.8-2.2,0.1-2.5-0.7C33.8,59,35.6,58.3,36.7,57.3z"/>
	<path class="st24" d="M46.7,50.8c-0.5-0.5-1-1-1.4-1.4c-3.4-6.2-2.5-10.2,3.5-14.6c2.2-0.8,4.4-0.8,6.6-0.5c3,1.3,5.2,3.5,6.5,6.5
		c0.3,2.2,0.3,4.4-0.5,6.6C56.9,53.3,52.9,54.2,46.7,50.8z"/>
	<path class="st25" d="M51.3,35.4c5.4,0,9.3,3.9,9.3,9.3c-1.2,1.9-2,4.2-4,5.6c-3.2,0.9-6.4,1.7-9.2-1.2c-2.8-2.9-2.5-6.2-1.4-9.6
		C47,37.2,49.5,36.8,51.3,35.4z"/>
	<path class="st26" d="M56.7,50.3c1.2-1.9,2.3-4,4-5.6C60.1,47.2,59.1,49.2,56.7,50.3z"/>
	<path class="st26" d="M51.3,35.4c-1.8,1.4-3.5,2.7-5.3,4.1C46.6,36.7,49,36.1,51.3,35.4z"/>
</g>
</svg>
