<?xml version="1.0" encoding="utf-8"?>
<!-- Generator: Adobe Illustrator 22.0.1, SVG Export Plug-In . SVG Version: 6.00 Build 0)  -->
<svg version="1.1" id="Layer_1" xmlns="http://www.w3.org/2000/svg" xmlns:xlink="http://www.w3.org/1999/xlink" x="0px" y="0px"
	 viewBox="0 0 96 96" style="enable-background:new 0 0 96 96;" xml:space="preserve">
<style type="text/css">
	.st0{fill:#010101;}
	.st1{fill:#FFFFFF;}
	.st2{fill:#040404;}
</style>
<g>
	<path class="st0" d="M32.2,49.2c3.9,3,7.5,4.1,13.9,4.2c-2,3.5-11.9,4-17.4,0.5c-7-4.6-9.5-13.7-5.3-22.4
		C23.9,39.2,26.6,44.9,32.2,49.2z"/>
	<path class="st0" d="M84.8,74.4c-4.5-4.6-9.1-9-13.6-13.6c-1.2-1.2-2.7-1.8-4.2-1.5c-1.9,0.5-3.2,0-4.2-1.5c-1-1.6,0.7-2.4,1.3-3.5
		c6.1-10.8,6.3-21.5-0.6-31.9c-6.8-10.2-16.7-14.4-28.6-13c-15.8,1.9-26.6,16-25.4,32.6c1,14.3,14.4,26.4,29.7,26.3
		c5.5,0.1,10.8-1.7,15.8-4.8c0.8-0.5,1.5-1.9,2.7-1c1.2,0.9,2.4,1.8,1.9,3.8c-0.4,1.6,0,3.2,1.3,4.5c4.7,4.7,9.3,9.4,14,14
		c2.4,2.4,5.5,2.2,8-0.1c0.7-0.7,1.4-1.3,2.1-2.1C87.3,80.1,87.4,77.1,84.8,74.4z M38.8,63c-13.3,0-24.2-11-24.1-24.4
		c0-13.1,11-23.9,24.3-23.9c13.1,0,24,11,24,24.2C63,52,52,63,38.8,63z"/>
	<path class="st1" d="M46.1,53.4c-2,3.5-11.9,4-17.4,0.5c-7-4.6-9.5-13.7-5.3-22.4c0.4,7.7,3.1,13.5,8.7,17.7
		C36.1,52.2,39.7,53.3,46.1,53.4z"/>
	<path class="st2" d="M46.1,53.4c-2,3.5-11.9,4-17.4,0.5c-7-4.6-9.5-13.7-5.3-22.4c0.4,7.7,3.1,13.5,8.7,17.7
		C36.1,52.2,39.7,53.3,46.1,53.4z"/>
</g>
</svg>
