<?xml version="1.0" encoding="utf-8"?>
<!-- Generator: Adobe Illustrator 20.0.0, SVG Export Plug-In . SVG Version: 6.00 Build 0)  -->
<svg version="1.1" id="Layer_1" xmlns="http://www.w3.org/2000/svg" xmlns:xlink="http://www.w3.org/1999/xlink" x="0px" y="0px"
	 viewBox="0 0 96 96" style="enable-background:new 0 0 96 96;" xml:space="preserve">
<style type="text/css">
	.st0{fill:#FFFFFF;}
</style>
<path class="st0" d="M90.1,68.3c-2.9-10.5-5.8-20.9-8.5-31.5c-1-4.1-3.2-5.8-7.4-5.7c-16.8,0.2-33.6,0.1-50.5,0.1
	c-7.3,0-7.5,0.3-9.5,7.3c-2.8,10-4.9,20.2-8.5,30v7.6c1.7,1,3,2.6,5.4,2.6c24.7-0.1,49.5-0.1,74.2-0.1c3.2,0,5-1.7,5.2-4.9
	C90.7,72,90.6,70.1,90.1,68.3z M31.5,58.3c-1.3,9.5-1.5,9.5-11.3,8.6c-1.9-0.2-2-0.9-1.7-2.3c0-0.1,0-0.3,0.1-0.4
	c1.8-9.6,2.9-10.4,13.3-8.8C31.8,56.3,31.7,57.3,31.5,58.3z M26.9,51.6c-1.3-0.9-4.4,1.7-4.8-1.4c-0.7-5.4,2.3-9,6.6-8.7
	c1.5,0.1,4.3-1.7,4.6,1.4C33.8,50.2,32.7,51.6,26.9,51.6z M46.5,59.8c0,7.1,0,7.2-7.6,7c-1.5-0.1-4.7,2.2-4.7-1.7
	c0-10,0.2-9.7,7.7-10.2C47.1,54.5,46.8,57.2,46.5,59.8z M40.5,51.3c-0.9-0.6-4.2,2-4.4-1.5c-0.4-7.8,0.3-7.9,5.9-8.6
	c5.6-0.7,4.2,2.8,4.6,5.8C47.2,51.7,44.7,52.1,40.5,51.3z M49.8,43.2c0.1-1.1,0.3-1.9,1.6-1.8c0.3,0,0.6,0,0.9,0
	c7.1-0.4,7.1-0.4,8.2,10.2h-3.3C49,51.6,48.8,51.3,49.8,43.2z M55.8,66.8c-1.1,0-2.2-0.1-3.4,0c-1.9,0.2-3-0.3-2.6-2.5
	c0.1-0.6,0-1.1,0-1.7c0-7.9,0-7.7,7.8-7.8c2.8-0.1,3.7,1,3.8,3.4c0,0.7,0.2,1.4,0.2,2.1C62.3,66.8,62.3,66.8,55.8,66.8z M74.3,51.3
	c-10.1,1-10.1,1-11.4-9.5C72.2,40.3,73.1,41.1,74.3,51.3z M68.1,66.9c-1.8-0.1-2.5-0.7-2.6-2.4c-0.3-3.1-0.7-6.1-1-9.6
	c3.2,0,6.2,0.1,9.3,0c1.4,0,1.9,0.7,2.3,1.9C79.3,66.4,78.4,67.5,68.1,66.9z"/>
<path class="st0" d="M49,5.8c0.5,0.9,1,1.7,1.5,2.6c3.4,6.7,3.4,6.7,10.3,4.1c0.9-0.4,1.8-1,2.7-0.2c1.2,0.9,0.7,2,0.1,3
	c-0.3,0.6-0.5,1.3-0.8,2c-1.8,3.8-1,6.5,3.2,7.8c1.1,0.3,2.1,0.9,3.1,1.4c0.7,0.3,1.1,0.9,1,1.7c-0.1,1-0.8,1.5-1.7,1.5
	c-3.4,0-6.8,0-10.2,0.1c-1.4,0-1.4-0.7-1.6-1.8c-1-5.7-3.8-8.3-8.3-8.4c-4.6,0-7.7,2.8-8.5,8.2c-0.2,1.3-0.3,2-1.9,2
	c-3.1-0.1-6.2,0-9.3,0c-1.1,0-2-0.2-2.3-1.4c-0.3-1.2,0.6-1.7,1.5-2.2c2.2-1.4,5.7-1.5,6.6-4.1c0.7-2.3-1.1-4.8-1.9-7.2
	c-0.8-2.3,0.1-3.2,2.5-2.6c8.1,2.1,8.1,2.1,12-5.6C47,6.2,47.2,6,47.3,5.8C47.9,5.8,48.5,5.8,49,5.8z"/>
<path class="st0" d="M48.2,90.6c-4.1,0-8.2,0.1-12.3,0c-1.7-0.1-4.3,1.1-4.6-2.1c-0.3-2.8,0.7-5,3.5-6.1c6.6-2.5,13.5-2.4,20.2-1.7
	c2.1,0.2,4.8,1,7.1,1.9c2.6,1,3.4,3.3,3.1,5.9c-0.4,3.2-2.9,2-4.7,2.1C56.4,90.7,52.3,90.6,48.2,90.6z"/>
</svg>
