<?xml version="1.0" encoding="utf-8"?>
<!-- Generator: Adobe Illustrator 23.1.1, SVG Export Plug-In . SVG Version: 6.00 Build 0)  -->
<svg version="1.1" id="Layer_1" xmlns="http://www.w3.org/2000/svg" xmlns:xlink="http://www.w3.org/1999/xlink" x="0px" y="0px"
	 viewBox="0 0 96 96" style="enable-background:new 0 0 96 96;" xml:space="preserve">
<style type="text/css">
	.st0{fill:#E6E3F1;}
	.st1{fill:#F1BD1E;}
	.st2{fill:#FBCE5B;}
	.st3{fill:#FCD066;}
	.st4{fill:#81A6D2;}
	.st5{fill:#80A5D1;}
	.st6{fill:#80A5D2;}
	.st7{fill:#F3C237;}
	.st8{fill:#492E2C;}
	.st9{fill:#FEFEFF;}
	.st10{fill:#4C312D;}
	.st11{fill:#EBC347;}
	.st12{fill:#FAFCFE;}
	.st13{fill:#FDF5AB;}
	.st14{fill:#F7E45D;}
	.st15{fill:#F8E55D;}
	.st16{fill:#654E38;}
	.st17{fill:#67503B;}
	.st18{fill:#5F483A;}
	.st19{fill:#6C553C;}
	.st20{fill:#492D2A;}
	.st21{fill:#634B36;}
	.st22{fill:#492D2B;}
	.st23{fill:#644D3E;}
	.st24{fill:#624B3D;}
	.st25{fill:#6A5342;}
	.st26{fill:#624938;}
	.st27{fill:#604833;}
	.st28{fill:#6C543C;}
</style>
<g>
	<path class="st0" d="M10.4,57.5c-1.3-6.7-1.4-13.3,0.5-20c4-14.5,17.7-26.5,33.1-27.9c10.1-0.9,19,1.4,27,7.4
		c8.8,6.7,14.1,15.5,15.4,26.7c2.3,19.1-10.2,35.6-25.7,40.7c-14.2,4.7-27,2-38.3-7.7c-3.7-3.2-6.4-7.2-9.1-11.2
		C15,60.5,15,60.5,10.4,57.5z"/>
	<path class="st1" d="M86.6,11.5c0,2.3-2.1,4.2-4.4,4.1c-2.1-0.1-3.9-2.1-3.9-4.2c0-2.3,2-4.2,4.3-4.1C84.9,7.5,86.7,9.3,86.6,11.5z
		"/>
	<path class="st2" d="M10.4,57.5c2.3-0.1,4.2,0.4,5,2.9c0.8,2.4-0.7,3.7-2.1,5.1c-2.6,0.4-4.9,0.1-5.8-2.8
		C6.8,60.2,8.1,58.5,10.4,57.5z"/>
	<path class="st3" d="M82.5,75.1c-0.2,1.2-0.8,2-2.1,2c-1.2,0-1.9-0.6-2-1.8c-0.1-1.3,0.6-2.2,1.9-2.2
		C81.5,73.1,82.3,73.9,82.5,75.1z"/>
	<path class="st4" d="M86.9,23c-1.3-0.3-2.4-0.7-2.3-2.1c0.1-1.1,0.8-1.9,2-2c1.2-0.1,2,0.5,2.1,1.7C88.8,21.9,87.9,22.6,86.9,23z"
		/>
	<path class="st5" d="M11.5,26.1c-0.3,1.2-0.8,1.9-2,1.9c-1.3,0-2.1-0.7-2.1-2c0-1.2,0.9-1.8,1.9-1.9C10.7,24,11.2,25,11.5,26.1z"/>
	<path class="st6" d="M23.8,86.7c-0.1,1.3-0.8,2-2.1,2c-1.2-0.1-1.7-0.9-1.7-2c0-1.4,0.8-2.1,2.1-2C23.2,84.8,23.9,85.5,23.8,86.7z"
		/>
	<path class="st7" d="M76.2,8.5c0.5,0.1,0.9,0.3,0.9,0.9c0,0.5-0.4,0.9-0.9,0.9c-0.6,0-0.9-0.4-0.9-0.9C75.3,8.8,75.7,8.5,76.2,8.5z
		"/>
	<path class="st8" d="M65.1,51.8c-1.3,1.1-1.4,2.5-1.1,4.1c1,5.1,1.9,10.3,2.7,15.5c0.1,0.7,0.6,1.7-0.3,2.2
		c-0.7,0.4-1.3-0.2-1.9-0.6c-4.7-2.5-9.5-4.9-14.2-7.5c-1.4-0.8-2.5-0.7-3.8,0c-4.7,2.6-9.4,5-14.2,7.5c-0.7,0.4-1.4,1.1-2.2,0.4
		c-0.6-0.6,0-1.3,0.1-2c0.9-5.3,1.6-10.6,2.7-15.8c0.3-1.8-0.2-2.8-1.4-3.9c-3.9-3.7-7.7-7.5-11.5-11.3c-0.5-0.5-1.4-0.9-0.9-1.7
		c0.2-0.4,1-0.5,1.6-0.5c5.3-0.8,10.6-1.6,15.9-2.3c1.7-0.2,2.7-0.8,3.4-2.4c2.3-4.8,4.6-9.6,7-14.4c0.3-0.7,0.4-1.8,1.4-1.6
		c0.8,0.1,0.9,1,1.2,1.6c2.3,4.7,4.7,9.4,6.9,14.1c0.8,1.8,1.9,2.5,3.9,2.7c5.2,0.6,10.4,1.5,15.6,2.2c2.3,0.3,2,1.1,0.7,2.3
		c-2.1,1.9-4.1,3.9-6.2,5.8c-0.5,0.3-0.8,0-1-0.4c0-2.4,2.5-3.1,3.3-5c0-0.6-0.3-0.9-0.8-1.1c-4.3-0.5-8.6-1.4-12.9-1.9
		c-2.1-0.2-3.3-1.2-4.2-3c-1.8-3.7-3.7-7.4-5.5-11.1c-0.2-0.4-0.7,0.2-0.3,0c0.1-0.1,0.2,0,0.2,0.1c0.9,2.6,0.5,5.3,0.2,8
		c-0.1,0.9-0.6,1.7-1.8,1.6c-1-2.6-1.1-8.2-0.2-10.6c-1.8,3.8-3.8,7.5-5.6,11.2c-1.1,2.3-2.7,3.6-5.3,3.9c-3.9,0.6-7.9,1-11.8,1.7
		c-0.2,0.5-0.6,0.7-1,1c-0.3,1.4,1,1.6,1.6,2.2c2.9,2.3,5.4,5.2,8.1,7.8c1.4,1.4,1.8,3.1,1.3,5c-0.7,3.4-1.2,6.7-1.8,10.1
		C33.2,67,33,68.2,34,68.9c1,0.8,1.9-0.2,2.7-0.7c2.9-1.5,5.8-3.2,8.8-4.7c2.2-1.1,4.2-1.2,6.3,0.1c3.7,2.5,8.1,3.7,11.6,6.5
		c0,0,0.3,0.3,0.2,0c-0.1-0.4-0.1-0.8-0.1-1.2c0.2-4.7-1.3-9.1-1.8-13.7c-0.2-2.3,0.1-4,2.7-4.6C64.9,50.9,65.3,51.1,65.1,51.8z"/>
	<path class="st9" d="M12.8,51.7c-0.1-1.7,0.7-2.5,2.3-2.4c1.5,0.1,2.5,0.9,2.5,2.5c0,1.5-1.1,2.3-2.6,2.4
		C13.3,54.1,12.7,53.2,12.8,51.7z"/>
	<path class="st10" d="M69.8,45.5c0.3,0.3,0.5,0.5,0.8,0.8c-1.7,2-3.5,3.8-5.6,5.5c-0.3-0.3-0.5-0.5-0.8-0.8
		C65.3,48.3,67.1,46.4,69.8,45.5z"/>
	<path class="st11" d="M18.8,65.9c-0.2,0.6-0.6,1.1-1.2,0.9c-0.5-0.1-0.9-0.5-0.8-1c0.1-0.7,0.6-1,1.2-0.9
		C18.4,64.9,18.8,65.2,18.8,65.9z"/>
	<path class="st12" d="M80.1,31.4c-0.1,0.5-0.3,0.8-0.8,0.7c-0.6,0-0.9-0.4-0.8-1c0.1-0.5,0.4-0.6,0.9-0.6
		C79.9,30.6,80.1,30.9,80.1,31.4z"/>
	<path class="st13" d="M63.7,69.1c0.2,0.6,0.3,1.1,0.6,2.1c-4.7-2.5-9.1-4.7-13.4-7.1c-1.7-1-3-1-4.7,0c-3.3,1.9-6.7,3.6-10.1,5.4
		c-0.9,0.4-1.6,1.3-2.7,1c0.8-1.5-1.3-2.3-0.9-3.9c0.9-3.6,1.3-7.3,2-11c0.4-1.9,0.1-3.2-1.4-4.5c-3.4-3.1-6.7-6.5-10-9.7
		c-1.1-1-0.6-1.2,0.5-1.1c2.5-0.2,4.9,0.7,7.4,0.7c0.3,0,0.6,0.1,0.9,0.2c1.7,1,3.6,1,5.4,1.5c1.7,0.4,3.5,0.8,5.2,1
		c0.3,0,0.6,0.1,0.9,0.2c1,0.3,2.1,0.5,3.1,0.9c1.1,0.5,1.8,1.2,1,2.5c-0.6,0.8-1,1.7-1.7,2.5c-0.7,0.8-1,1.9-1.7,2.7
		c-0.1,0.3-0.5,0.5-0.4,0.9c0-0.3,0.2-0.5,0.3-0.8c0.7-0.8,1.1-1.8,1.6-2.7c0.7-0.7,1.1-1.5,1.7-2.3c2.3-2.9,2.8,0.6,4,1.2
		c0.4,0.4,0.7,0.8,0.9,1.4c0.5,1.5,1.4,2.8,2.3,4.1c0.4,0.6,0.8,1.3,1.3,1.9c0.5,0.7,1.1,1.4,1.7,2c0.2,0.2,0.3,0.4,0.4,0.7
		c0.7,1.4,1.4,2.8,2.6,3.9c0.4,0.4,0.7,0.8,0.9,1.3c0.5,1.4,1.2,2.6,2.1,3.8C63.7,68.3,63.8,68.7,63.7,69.1z"/>
	<path class="st14" d="M60.8,64.4c-0.2-0.5-0.5-1-0.7-1.4c-1.1-1.4-1.9-2.9-3-4.4l0,0.1c-0.4-0.7-0.8-1.4-1.3-2
		c-0.4-0.8-1-1.6-1.5-2.4c-0.8-1.3-1.6-2.6-2.5-3.8c-0.2-0.4-0.5-0.7-0.7-1.1c-0.5-1.3-2.5-2.4-0.8-4.2c2.1-0.9,4.4-1.4,6.6-1.9
		c1-0.3,2-0.2,2.9-0.6c0.4-0.2,0.8-0.3,1.2-0.4c1.7,0,3.3-0.2,4.8-0.9c0.2-0.1,0.5-0.3,0.8-0.3c1.4,0.1,2.8-0.4,4.2-0.6
		c1.2-0.2,2.4-0.7,3.4,0.3c-1.4,1.6-2.8,3.1-4.3,4.7c-2,1.7-3.9,3.5-5.6,5.5c-1.6,1-2.3,2.2-1.8,4.2c0.9,4,1.4,8.1,2,12.2
		c0.1,0.7,0.7,1.7-0.8,1.7c-0.2-0.1-0.3-0.3-0.5-0.4C62.7,67.1,61.8,65.7,60.8,64.4z"/>
	<path class="st13" d="M66.3,41.3c-0.1,0.1-0.1,0.2,0,0.4c-1.8,0.8-3.7,0.4-5.5,0.9c-0.2,0.2-0.3,0.3-0.5,0.5
		c-1.3,0.2-2.6-0.1-3.8,0.6c-1.8,0.3-3.5,0.8-5.3,1.2c-1.6,0.4-2.7-0.1-2.7-1.9c0-0.8-0.3-1.5-0.7-2.2c-0.4-0.9-0.2-1.7,0.2-2.6
		c0.4-0.7,0.6-1.5,0.3-2.3c-0.5-0.9-1.1-1.8-0.1-2.7c1.5-0.4,0.9-1.6,1-2.5c0.1-2.9,0-5.7,0.6-8.7c2.1,4.2,4.2,8.4,6.2,12.6
		c0.7,1.5,1.6,2.2,3.4,2.5c4.8,0.7,9.6,1,14.3,2.3c-1.1,1.4-2.7,1.1-4.2,1.5C68.3,41.4,67.3,41.1,66.3,41.3z"/>
	<path class="st15" d="M48.1,33.3c-0.4,1.1,0.4,1.8,1,2.5c-0.6,0.8-0.4,1.8-0.5,2.6C48,39.2,47.9,40,48,40.8
		c1.1,3.5,0.5,4.3-2.9,3.9c-0.7-0.1-1.4,0.1-2.1-0.3c-0.2,0-0.4,0-0.6,0c-1.7-1.1-3.8-0.9-5.6-1.6c-1.8-0.5-3.8-0.5-5.5-1.4l-0.2,0
		c-2.2,0-4.4-0.4-6.3-1.7c-0.1,0-0.2-0.1-0.3-0.1c-0.5-0.3-0.2-0.5,0.1-0.5c4.3-0.6,8.6-1.4,12.9-1.8c1.7-0.2,2.7-0.9,3.4-2.4
		c2-4.4,4.2-8.7,7-13C48.1,25.6,48.1,29.5,48.1,33.3z"/>
	<path class="st16" d="M24.9,39.6c2.2,0.4,4.3,0.8,6.3,1.7c-2.8,1.2-5.1-0.5-7.7-1.1C24,40,24.4,39.8,24.9,39.6z"/>
	<path class="st17" d="M69.2,40.7c1.4-0.4,2.9-0.8,4.3-1.2c0.2,0.5,0.4,0.9,0.6,1.4c-1.2,0.1-2.4,0.3-3.7,0.4
		C70.1,40.9,69.5,41.2,69.2,40.7z"/>
	<path class="st18" d="M43.1,44.4c0.5-0.1,1-0.3,1.5-0.2c3.1,0.7,3.8-0.8,3.5-3.5c1.6,0.2,1.1,1.4,1,2.2c-0.2,1.8,0.9,1.5,2,1.4
		c0.3,0.6-0.3,0.8-0.6,1.1c-1.5,1.5,1.4,2.4,0.6,3.8c-1.1,0.1-1.2-0.8-1.6-1.4c-0.8-1.6-1.4-0.6-2.1,0c-0.3-0.1-0.5-0.3-0.6-0.6
		c-0.1-0.6,1.4-1.6-0.5-1.9C45.2,45.4,43.9,45.4,43.1,44.4z"/>
	<path class="st19" d="M37.1,42.9c2.1-0.5,4-0.5,5.4,1.4C40.6,44.3,38.6,44.4,37.1,42.9L37.1,42.9z"/>
	<path class="st19" d="M37.1,42.9C37.1,42.9,37.1,42.9,37.1,42.9c-2.1,0.3-4.1,0.3-5.6-1.6C33.4,41.6,35.6,41.1,37.1,42.9z"/>
	<path class="st20" d="M51.7,50.5c1.7,0.6,2.1,2.3,2.9,3.6c-0.1,0.3-0.2,0.5-0.5,0.6C53.1,53.4,51.8,52.3,51.7,50.5z"/>
	<path class="st21" d="M57.1,58.6c1.7,1,2.6,2.5,3,4.4C58.2,62.1,57.4,60.5,57.1,58.6z"/>
	<path class="st20" d="M60.8,64.4c1.5,1,2.9,2.1,2.4,4.2C62.2,67.4,61,66.2,60.8,64.4z"/>
	<path class="st22" d="M39.9,59.1c-0.3,1.2-0.8,2.3-2.1,3.1C37.9,60.5,38.6,59.6,39.9,59.1z"/>
	<path class="st23" d="M44.3,52.8c-0.4,1-1,1.9-2.1,2.8c-0.2-1.8,0.8-2.6,1.6-3.5C44.1,52.2,44.1,52.6,44.3,52.8z"/>
	<path class="st22" d="M46.8,47.4c0.2,0.2,0.4,0.4,0.6,0.6c-0.4,0.8-0.6,1.8-1.8,1.8l0.1,0.1C45.4,48.7,46.3,48.2,46.8,47.4z"/>
	<path class="st20" d="M44.3,52.8c-0.2-0.2-0.4-0.4-0.5-0.7c0.6-0.8,0.6-2.1,1.9-2.3c0,0-0.1-0.1-0.1-0.1
		C45.9,51.2,44.9,51.9,44.3,52.8z"/>
	<path class="st20" d="M54.1,54.7c0.2-0.2,0.3-0.4,0.5-0.6c0.5,0.8,1.1,1.6,1.6,2.4c-0.3,0.3-0.6,0.3-0.8,0
		C54.7,56.1,54.3,55.4,54.1,54.7z"/>
	<path class="st24" d="M42,55.7c-0.2,1.4-0.6,2.2-1.7,2.7C40,57,40.6,56.4,42,55.7z"/>
	<path class="st25" d="M36.4,64.4c0.1,1.2-0.5,1.8-1.7,2.4C34.8,65.5,35,64.8,36.4,64.4z"/>
	<path class="st26" d="M55.4,56.5c0.3,0,0.6,0,0.8,0c0.7,0.6,1,1.3,0.9,2.2C56.2,58.2,55.4,57.6,55.4,56.5z"/>
	<path class="st27" d="M50.5,45.5c0.2-0.4,0.4-0.7,0.6-1.1c1.8-0.4,3.7-0.8,5.5-1.2c0.3,0.2,0.7,0.2,0.8,0.6
		C55.1,44.9,52.8,45.1,50.5,45.5z"/>
	<path class="st28" d="M60.7,42.7c1.7-1.4,3.6-1,5.5-0.9C64.6,43,62.8,43.4,60.7,42.7z"/>
	<path class="st20" d="M69.2,40.7c0.4,0.2,0.9,0.4,1.3,0.6c-1.4,0.1-2.8,1.3-4.2,0.1C67.1,40.5,68.2,40.8,69.2,40.7z"/>
	<path class="st22" d="M57.3,43.9c-0.3-0.2-0.5-0.4-0.8-0.6c1.2-0.3,2.5-1,3.7-0.1C59.5,44.1,58.3,43.7,57.3,43.9z"/>
	<path class="st20" d="M48.5,38.5c-0.4-1-1.6-2.2,0.5-2.6C49,36.8,49.5,37.8,48.5,38.5z"/>
</g>
</svg>
