<?xml version="1.0" encoding="utf-8"?>
<!-- Generator: Adobe Illustrator 23.1.1, SVG Export Plug-In . SVG Version: 6.00 Build 0)  -->
<svg version="1.1" id="Layer_1" xmlns="http://www.w3.org/2000/svg" xmlns:xlink="http://www.w3.org/1999/xlink" x="0px" y="0px"
	 viewBox="0 0 140.5 140.5" style="enable-background:new 0 0 140.5 140.5;" xml:space="preserve">
<style type="text/css">
	.st0{fill:#21232C;}
	.st1{fill:#C8E0F1;}
	.st2{fill:#C6DEEF;}
	.st3{fill:#FCFBEF;}
	.st4{fill:#F8F6EB;}
	.st5{fill:#F7F7F7;}
	.st6{fill:#F7F6F6;}
	.st7{fill:#EB7B95;}
	.st8{fill:#F6F6F6;}
	.st9{fill:#383B42;}
	.st10{fill:#F07D97;}
	.st11{fill:#EF7D97;}
	.st12{fill:#FDFDFD;}
	.st13{fill:#2B2D35;}
	.st14{fill:#262831;}
	.st15{fill:#CECBBD;}
	.st16{fill:#E5E4E5;}
	.st17{fill:#F8F7F7;}
	.st18{fill:#F3F2F3;}
	.st19{fill:#EEEDED;}
	.st20{fill:#E8E7E8;}
	.st21{fill:#E97A94;}
	.st22{fill:#EC7B95;}
	.st23{fill:#E17790;}
	.st24{fill:#463541;}
	.st25{fill:#413642;}
	.st26{fill:#3F3742;}
	.st27{fill:#3F444D;}
	.st28{fill:#3F434C;}
	.st29{fill:#413D49;}
	.st30{fill:#3B3E46;}
	.st31{fill:#3E424A;}
	.st32{fill:#383A42;}
	.st33{fill:#4E5259;}
	.st34{fill:#ABBFCE;}
	.st35{fill:#3C4049;}
	.st36{fill:#22242E;}
	.st37{fill:#2D313B;}
	.st38{fill:#21232D;}
	.st39{fill:#2D303A;}
	.st40{fill:#1F212B;}
	.st41{fill:#383A41;}
	.st42{fill:#2E313A;}
	.st43{fill:#3E434E;}
	.st44{fill:#393A42;}
	.st45{fill:#343944;}
	.st46{fill:#FAF9ED;}
	.st47{fill:#ECEBEC;}
</style>
<path class="st0" d="M68.9,126.3c-17.2,0-34.4,0-51.7,0c-1.7,0-4.1,0.8-4.4-1.8c-0.3-2.2-1.4-5.3,1-6.4c2.4-1.1,2.1-2.6,2.1-4.3
	c0-17.4,0-34.8,0-52.1c0-1.2,0.3-2.8-0.3-3.4c-5.4-4.8-2.8-10.8-2.3-16.3c0.6-7.2,1.9-14.4,2.5-21.7c0.5-5.3,1.9-6.9,7.4-6.9
	c12.3,0,24.5,0,36.8,0c17.9,0,35.8,0,53.6,0c6.7,0,7.9,1.4,8.4,8c0.6,8.9,1.6,17.8,2.5,26.7c0.4,3.8,0.3,7.4-2.9,10
	c-1.5,1.3-1.5,2.8-1.5,4.4c0,17.2,0,34.4,0.1,51.6c0,1.2-1,3.4,1.5,3.4c5.3,0,3.4,3.9,3.4,6.4c0,3.4-3.1,2.3-5,2.3
	C103,126.3,86,126.3,68.9,126.3z"/>
<path class="st1" d="M70.5,57.1c2.6-0.1,5.2-3.1,7.8-0.1c2.1,1.4,4.6-2,6.6,0.5c1,1.7,0.9,3.5,0.9,5.3c0,14.7,0.1,29.5,0,44.2
	c0,6.1-0.9,7-6.9,6.9c-17.5-0.1-35.1,0.4-52.6-0.3c-2.1-0.6-2.9-2.3-3.7-4.2c0.2-1.7,1.2-3.4-0.1-5.1c0.5-1.9,0.7-3.8,0.8-5.7
	c0.3-12.5,0-25.1,0.2-37.6c0-3-0.2-6.2,3.8-7c0.7,1.1,1,2.4,2.5,2.7c2.6-0.7,5.3-0.3,8-0.9c1-1.2,2.1-0.8,3.2-0.1
	c1.8,0.7,3.6,1.1,5.5,0.2c0.8-0.3,1.6-0.8,2.5-0.2c1.2,0,2.5-1.6,3.7,0.1c3,0.9,6,0.4,9,0c1-1,2-1.2,3-0.1
	C66.4,56.7,68.5,56.5,70.5,57.1z"/>
<path class="st2" d="M109.2,56.1c0.7-0.4,1.4-0.8,2.1-1.2c1.5,1.5,1.3,3.3,1.3,5.1c0,15.7,0.1,31.3,0,47c0,6-0.9,6.9-7,6.8
	c-4.7-0.1-9.6,1-14.2-0.9c-1.8-1.9-1.4-4.2-1.4-6.5c-0.1-10,0-19.9,0-29.9c0.2-1.8-0.4-3.4-0.9-5.1c0.4-1.6,1.3-3.1,0-4.7
	c-0.5-1.2,2.2-1.4,0.8-2.8c0.2-2.1,0-4.2,1-6.1c1-1.1,2.5-1.2,3.7-2c0.6-0.3,1.3-0.6,2-0.1c1.9-1,3.4-0.5,4.7,1
	C103.9,56.5,106.5,56.4,109.2,56.1z"/>
<path class="st3" d="M89.3,71c1.2,1.2,2.5,2.3,1.8,4.3c-1.1,1.5-0.8,3.2-0.8,4.8c0,9.4,0,18.9,0,28.3c0,1.6-0.4,3.3,0.9,4.7
	c6,1.2,12.1,0.4,18.2,0.5c3.3,0,2.7-2.7,2.7-4.8c0-14.8,0-29.7,0-44.5c0-1.3-0.1-2.6,0-4c0.3-4,1-4.3,4.8-2c0,18.2-0.2,36.4,0,54.6
	c0,4-1.2,4.8-5,4.8c-30.8-0.1-61.5-0.1-92.3-0.1c-0.9-6.7-0.3-13.5-0.4-20.2c-0.1-11.5-0.1-23.1,0-34.6c0-1.8-1.4-5.1,1.9-5.1
	c3.5,0,2.4,3.4,2.4,5.4c0.1,12.5,0.1,25.1,0,37.6c2.4,1.9-0.2,2.7-0.9,4c1,1.3,1,2.7,0,4.1c1,1.2,2.3,2.2,1.9,4
	c1.4,1.2,3.1,0.9,4.7,0.9c16.9,0,33.7-0.1,50.6,0.1c4.2,0,5.4-1.4,5.3-5.4c-0.2-16-0.1-32.1,0-48.1c0-1.7-0.6-3.7,0.9-5.2
	c1.4-0.7,1.8,1.4,3.1,1c0.2,0.2,0.3,0.4,0.5,0.6c0.8,2.7,0.2,5.5,0.2,8.2c1.4,1.3-1,1.3-0.8,2.1C90.4,68.3,90.3,69.6,89.3,71z"/>
<path class="st4" d="M68.4,23.8c-15,0-30.1,0-45.1-0.1c-1.6,0-4.3,1.3-4.1-2.4c0.2-2.8,0.5-4.5,4.1-4.5c30.4,0.1,60.8,0.1,91.2,0
	c2.6,0,3.9,0.6,3.9,3.5c0.1,3.2-1.5,3.4-3.9,3.4C99.2,23.8,83.8,23.8,68.4,23.8z"/>
<path class="st5" d="M39.7,37.3c0-1.8,0-3.6,0-5.5c0-6.6,2-8,8.5-6.6c1.9,0.4,1.9,1.5,1.9,2.8c0,6.1-0.1,12.2,0.1,18.3
	c0.1,2.7-1.4,2.8-3.4,2.9c-7.1,0.2-7.1,0.3-7.1-6.6C39.7,41,39.7,39.1,39.7,37.3z"/>
<path class="st6" d="M63.6,37.4c0-1.8,0-3.6,0-5.4c0-6.8,1.6-8,8.4-6.7c1.8,0.4,2,1.3,2,2.7c0,6.1,0,12.2,0,18.3c0,2-0.6,2.8-2.8,3
	c-7.5,0.6-7.7,0.6-7.7-7C63.6,40.7,63.6,39.1,63.6,37.4z"/>
<path class="st7" d="M85.9,37.8c0,1.7,0,3.3,0,5c0,6.5-1.7,7.8-8.2,6.5c-1.8-0.4-2-1.3-2-2.8c0-6.1-0.1-12.2,0-18.4
	c0.1-4.7,3.8-2.3,6-2.7c2.1-0.4,4.4-0.5,4.3,3C85.8,31.5,85.9,34.7,85.9,37.8z"/>
<path class="st8" d="M98,37.3c0,1.8,0,3.6,0,5.4c0,6.5-2.1,8-8.6,6.6c-1.8-0.4-1.9-1.5-1.9-2.9c0-6.1,0-12.2,0-18.3
	c0-4.9,3.7-2.4,5.8-2.7c2.1-0.3,4.9-1,4.6,3C97.8,31.4,98,34.3,98,37.3z"/>
<path class="st7" d="M109.8,37.5c0,2.1-0.3,4.3,0.1,6.4c0.7,4.6-1.3,5.4-5.5,5.4c-4,0-5.1-1.3-4.9-5.1c0.3-5.1,0.3-10.3,0-15.4
	c-0.2-4.5,2.8-3.5,5.3-3.6c2.7-0.1,5.5-0.6,5.1,3.7C109.6,31.9,109.8,34.7,109.8,37.5z"/>
<path class="st9" d="M86.3,55c0,18-0.2,36-0.1,53.9c0,4.2-0.8,5.7-5.4,5.7c-17.3-0.3-34.7-0.1-52-0.2c-1.4,0-3.9,1.4-4.1-1.8
	c18.3,0,36.6-0.2,55,0c3.6,0,4.7-0.7,4.7-4.5c-0.3-15.5-0.1-31-0.1-46.5c0-1.5-0.3-2.9-0.4-4.4c-0.9,0.3-1.5,0-1.8-0.8
	c0.4-1.7,1.3-2.8,3.2-2.3C85.6,54.3,86,54.7,86.3,55z"/>
<path class="st10" d="M38,37.6c0,2-0.2,4,0,5.9c0.6,4.4-0.8,6.1-5.6,5.8c-3.5-0.2-5-0.7-4.8-4.6c0.4-5.4,0.2-10.9,0-16.4
	c-0.1-3.6,2.3-3.2,4.3-2.9c2.1,0.4,5.8-2,5.9,2.7C38.1,31.3,38,34.5,38,37.6z"/>
<path class="st11" d="M61.9,37.4c0,2.3-0.2,4.6,0.1,6.9c0.5,3.9-0.9,4.9-4.9,5c-4.4,0.1-5.8-1.1-5.4-5.5c0.4-5.1,0.2-10.2,0.1-15.3
	c-0.2-4.4,2.9-3.1,5.1-3.1c2.2,0,5.3-1.2,5.1,3.1C61.8,31.5,61.9,34.5,61.9,37.4z"/>
<path class="st6" d="M117.4,49c-5,1.3-6.3-0.5-6-4.7c0.3-5.1,0.1-10.2,0.1-15.4c0-1.8-0.3-3.8,2.6-3.6c2.1,0.1,4.3-0.5,4.8,2.7
	c0.9,6.4,2.2,12.7,2.9,19.1C122.2,51.8,117.9,47.5,117.4,49z"/>
<path class="st12" d="M26.1,37.2c0,2.3-0.3,4.7,0.1,6.9c0.7,4.6-1.3,5.2-5.4,5.3c-5,0.2-5.8-1.5-4.7-5.8c1.2-4.8,2.1-9.6,2.6-14.5
	c0.3-3.4,1.9-3.9,4.8-3.8c3.8,0.1,2.5,2.7,2.6,4.5C26.2,32.3,26.1,34.7,26.1,37.2z"/>
<path class="st13" d="M117,58.3c-2.8-1.3-3.9-0.9-3.8,2.7c0.2,16.4,0,32.8,0.2,49.1c0,3.5-1,4.7-4.5,4.4c-6.2-0.5-12.5,0.7-18.7-0.6
	c-0.5-1.3,0.2-1.5,1.2-1.3c5.8,0,11.5,0,17.3,0.1c2.1,0,2.9-0.6,2.9-2.8c-0.2-18.3-0.2-36.6-0.3-54.9c0.3-0.4,0.6-0.8,1-1.1
	c2.5,0.1,4.9,0.7,6.9,2.2C118.4,56.8,117.7,57.5,117,58.3z"/>
<path class="st14" d="M23.7,100.6c-1.7-1.2-0.9-3-0.9-4.5c-0.1-11.4,0-22.8-0.1-34.2c0-1.3,1.3-3.7-1.4-3.9
	c-2.9-0.2-1.8,2.2-1.8,3.6c0,18.7,0.2,37.3,0.3,56c-1.6-1.5-0.9-3.4-0.9-5.1c0-18.7,0-37.5,0-56.2c1.9-1.8,4.3-2.1,6.7-2.3
	c0.6,0.1,1.1,0.2,1.7,0.2c-2,1.7-2.7,3.7-2.7,6.4c0.2,11.6,0.1,23.3,0,34.9C24.5,97.2,25.1,99.1,23.7,100.6z"/>
<path class="st15" d="M121.5,122.4c-35.1,0-70.2,0-105.3,0c0-0.2,0-0.5,0-0.7c35,0,70,0,105.1,0
	C121.4,121.9,121.5,122.1,121.5,122.4z"/>
<path class="st16" d="M25.5,53.9c-1.8,1.9-4.2,2.5-6.7,2.3c-1.8-1-4.2-3-3.1-4.3c2.2-2.3,5.8-0.7,8.7-0.8
	C26.8,51,25.5,52.8,25.5,53.9z"/>
<path class="st17" d="M48.8,55.9c-0.8,0.4-1.5,0.8-2.3,1.2c-2.2,0.8-3.7-0.3-5-1.9c-2.1-3.1-1.7-4.5,2.4-4.2
	C47.2,51.2,51.4,50,48.8,55.9z"/>
<path class="st18" d="M119.1,56c-2.6,0.4-5-0.1-6.9-2.2c-0.2-1.4-0.7-3,1.8-2.8c1.1,0.1,2.3-0.1,3.4,0c1.5,0.2,3.7-1,4.3,0.7
	C122.3,53.5,120.4,54.9,119.1,56z"/>
<path class="st19" d="M96.5,55.9c-0.4,0.3-0.8,0.6-1.2,0.9c-1.6,0.9-3.3,0-4.9,0.1c-0.4-0.2-0.8-0.5-1.2-0.9c0,0,0.2,0.1,0.2,0.1
	c0.4-1.7-2.5-3.8-0.6-4.6c2.4-0.9,5.6-1,8-0.1C99.1,52.1,95.9,54.2,96.5,55.9z"/>
<path class="st20" d="M65.5,55c-0.5-1.3-2.7-3.1-0.4-3.7c2.6-0.7,6.4-1.4,8.4,0.4c1.5,1.3-0.8,3.6-2.9,4.5
	C68.4,57.3,66.7,57.1,65.5,55z"/>
<path class="st21" d="M101.3,54.9c-1.8-2.6-1.6-4.7,2-3.7c1.9,0.5,7.3-3.5,5.6,3.3C106.5,57.6,104,58.1,101.3,54.9z"/>
<path class="st22" d="M29.8,55.8c0.3-1.7-2.9-3.6-0.8-4.4c2.5-1,5.8-1.1,8.4,0.2c1.2,0.6-0.2,2.3-0.7,3.4
	C34.6,57.3,32.3,57.6,29.8,55.8z"/>
<path class="st23" d="M85.3,54c-1,0.7-2,1.4-2.9,2.1c-0.7,0.5-1.4,0.5-2.1,0.1c-1.6-0.2-2.7-1.2-3.6-2.4c-0.3-0.5-0.6-1.6-0.4-1.8
	c2.2-1.9,4.9-0.7,7.4-0.9C86.5,50.8,85.4,52.7,85.3,54z"/>
<path class="st22" d="M53.5,55c-0.3-1.3-2.4-3.1-0.7-3.6c2.5-0.8,5.6-0.7,8.1,0c1.8,0.5,0.1,2.4-0.4,3.6
	C58.2,57.4,55.8,57.9,53.5,55z"/>
<path class="st24" d="M101.3,54.9c2.6,1.6,5.2,1.6,7.6-0.3c0.1,0.5,0.2,1.1,0.3,1.6c-2.4,2.5-5.1,2.6-8,0.7
	C101.2,56.2,101.3,55.5,101.3,54.9z"/>
<path class="st25" d="M53.5,55c2.3,1.2,4.7,1.5,7,0c0.3,0.3,0.7,0.6,1,1c-3,1.9-6,3.5-9,0C52.9,55.7,53.2,55.3,53.5,55z"/>
<path class="st26" d="M29.8,55.8c2.3,0,4.7,0.7,6.9-0.8c0.3,0.3,0.7,0.7,1,1c-2.5,1.8-5,3.1-8,0.9C29.7,56.5,29.7,56.2,29.8,55.8z"
	/>
<path class="st27" d="M65.5,55c1.5,1.1,3.3,1,5,1.2c0,0.3,0,0.7,0,1c-2.5,2.1-4.2,0.6-5.9-1.2C64.8,55.6,65.2,55.3,65.5,55z"/>
<path class="st28" d="M41.5,55.1c1.7,0.6,3.3,1.3,5,1.9c-2.4,2.1-4.2,1-5.7-1.2C41.1,55.6,41.3,55.4,41.5,55.1z"/>
<path class="st29" d="M80.3,56.2c0.7,0,1.4-0.1,2.1-0.1c0.5,0.4,1,0.7,1.5,1.1c-1.9,1.2-3.8,1.4-5.6-0.1
	C78.9,56.8,79.6,56.5,80.3,56.2z"/>
<path class="st30" d="M71.5,75.7c1.7,2.2,1.3,4.9,1.8,7.3c0.6,3-2,2.6-3.9,2.6c-0.9-0.8-2.3,0.1-3.1-1c1.3-2.2,4.8-3.2,3.6-6.7
	C70.1,77,70.5,76.2,71.5,75.7z"/>
<path class="st31" d="M44.3,79.6c2.1-1,4.2-1.9,6.3-2.9c1.2-0.1,2.3,0.1,3.4,0.6c0.8,0.5,1.9,0.9,1.7,2.2c-2.6,2.3-5.8,2.1-8.9,2
	C45.7,81.2,44.8,80.7,44.3,79.6z"/>
<path class="st32" d="M57.5,74.9c2.5,1.4,5.2,1.8,8,1.1c0.6,0.7,2.2-0.1,2.1,1.5c-2.4,2.3-5.5,1.9-8.5,2.1c-1-0.2-1.9-0.6-2.6-1.3
	c-0.5-0.6-0.7-1.3-0.6-2C56.2,75.5,56.8,75.2,57.5,74.9z"/>
<path class="st33" d="M54.7,87.9c-2.9,1.3-6.1,1.3-9.2,1.7c-0.8-0.9-2.7,0.4-3.1-1.5c2.5-2.6,5.8-2.1,8.9-2.2
	C52.6,86.3,53.9,86.6,54.7,87.9z"/>
<path class="st34" d="M56.6,75.8c0,0.7-0.1,1.3-0.1,2c-0.9,0.9-1.8,0.5-2.8,0.2c-1-0.4-2.6,0.6-3-1.3c-0.1-0.3-0.1-0.6,0-0.8
	C52.5,74.3,54.5,73,56.6,75.8z"/>
<path class="st35" d="M42.3,88.6c1.1,0.3,2.4-0.2,3.2,1c-2.2-0.9-6,3.8-6.7-1.9c0.5-0.6,0-1.8,1.2-2.2
	C41.6,85.9,41.8,87.4,42.3,88.6z"/>
<path class="st36" d="M54.7,87.9c-1-0.4-2.3,0.1-3.1-1c1.7-2.2,4-2.4,6.5-2c1.1,0.3,2,0.8,2.5,1.9C58.8,88,56.7,87.7,54.7,87.9z"/>
<path class="st37" d="M56.6,75.8c-2-1.5-4,0.5-6,0.1c1.6-5.4,4.4-2.3,7-1C57.2,75.2,56.9,75.5,56.6,75.8z"/>
<path class="st36" d="M44.3,79.6c0.8,0.3,1.5,0.7,2.3,1c-1.8,2.2-4.1,2.5-6.6,1.9c-0.8-0.4-1.3-1-1.5-1.8
	C40.2,79.4,42.3,79.9,44.3,79.6z"/>
<path class="st36" d="M66.4,84.8c1,0.3,2.2-0.2,2.9,0.9c-2,0.3-4,0.6-6,0.9c-0.8-0.9-2.9,0.6-3-1.6C62.4,83.1,64.4,83.2,66.4,84.8z"
	/>
<path class="st38" d="M38.4,80.7c0.4,0.4,0.8,0.8,1.2,1.2c0.9,1.2,1.1,2.4,0.1,3.6c-0.3,0.7-0.6,1.5-1,2.2
	C39.1,85.3,36.7,83.2,38.4,80.7z"/>
<path class="st39" d="M67.8,77c-0.8-0.3-1.5-0.7-2.3-1c2,0.2,3.9-1.9,6-0.3c-0.3,0.7-0.6,1.4-0.9,2.1C69.5,77.9,68.5,77.9,67.8,77z"
	/>
<path class="st14" d="M22.8,108.6c0-1.4,0-2.7,0-4.1c1.7-0.3,1.8,0.8,1.8,2C24.6,107.8,24.5,108.9,22.8,108.6z"/>
<path class="st40" d="M60.5,85.8c1,0,2.1-0.2,2.9,0.8c-0.9,0.1-1.9,0.2-2.8,0.3c-0.7-0.3-1.4-0.6-2.1-0.9
	C59.1,85.3,59.8,85.2,60.5,85.8z"/>
<path class="st41" d="M91.4,112.5c-0.4,0.4-0.8,0.9-1.2,1.3c-1.4-0.9-0.8-2.4-0.8-3.6c-0.1-10.5-0.1-20.9,0-31.4
	c0-1.3-1.1-3.6,1.7-3.7C91.2,87.7,91.3,100.1,91.4,112.5z"/>
<path class="st41" d="M89.2,55.9c0.4,0.1,0.7,0.1,1.1,0.2c0.7,0.5,1.7,0.8,1,2c-0.6,2.2,0.9,4.8-1.2,6.7
	C88.4,62,89.7,58.9,89.2,55.9z"/>
<path class="st42" d="M109,81.8c0.3,5.2-0.2,5.7-4.9,4.1c-0.3-0.4-0.3-0.8-0.2-1.2c1-1.1,2.6-1.1,3.5-2.4
	C107.9,81.9,108.3,81.5,109,81.8z"/>
<path class="st43" d="M109,81.8c-0.3,0.4-0.6,0.7-1,1.1c-1.3,0.5-2.9,0.4-3.8,1.7c0,0.4-0.1,0.8-0.1,1.3c-1.8-1.5-1.5-3.5-0.1-4.5
	C105.4,80.3,107.6,79.8,109,81.8z"/>
<path class="st44" d="M89.3,71c0-1.3,0-2.7,0.1-4c2-0.3,1.8,1,1.9,2.3C91.3,70.6,90.8,71.4,89.3,71z"/>
<path class="st45" d="M91.3,58c-0.3-0.7-0.7-1.3-1-2c1.7-0.5,3.3,0.3,5,0.6C94.6,59.2,92.6,57.4,91.3,58z"/>
<path class="st46" d="M60.5,85.8c-0.7,0.1-1.4,0.1-2,0.2c-2.3,0.3-4.6,0.7-6.9,1c-3.1,0.5-6.3,0.4-9.3,1.6c-2.5,0.3-1.3-2.4-2.5-3.1
	c0-1.2-0.1-2.4-0.1-3.6c2.3-0.4,4.6-0.8,6.9-1.3c3.1-0.5,6.2-0.4,9.2-1.7c0.8-0.9,1.8-0.6,2.7-0.3c3.1-0.3,6.3-0.5,9.3-1.7
	c0.9,0.3,2.2-0.6,2.8,0.8c1.4,4,0.4,6.6-4.1,7C64.4,84.9,62.4,84.6,60.5,85.8z"/>
<path class="st40" d="M58.5,78.7c-0.9,0.1-1.8,0.2-2.7,0.3c-0.7-0.3-1.4-0.6-2.1-0.9c0.9-0.1,1.9-0.2,2.8-0.2
	C57.1,78.1,57.8,78.4,58.5,78.7z"/>
<path class="st47" d="M104.2,84.7c0.2-2.9,1.6-3.3,3.8-1.7C108,86.2,105.8,84.7,104.2,84.7z"/>
</svg>
