<?xml version="1.0" encoding="utf-8"?>
<!-- Generator: Adobe Illustrator 22.0.1, SVG Export Plug-In . SVG Version: 6.00 Build 0)  -->
<svg version="1.1" id="Layer_1" xmlns="http://www.w3.org/2000/svg" xmlns:xlink="http://www.w3.org/1999/xlink" x="0px" y="0px"
	 viewBox="0 0 96 96" style="enable-background:new 0 0 96 96;" xml:space="preserve">
<style type="text/css">
	.st0{fill:#FFFFFF;}
</style>
<path class="st0" d="M8.8,38c2.1,1,4.2,1.6,7,1.9c-7.7-6.7-9.5-14.4-5.3-23.7c5.2,6.1,11.1,10.8,18.1,13.9
	c5.2,2.4,10.5,3.9,16.2,4.4c1.8,0.2,2-0.3,1.9-2c-0.7-9.4,4.5-16.9,13.4-19c5.9-1.4,11.3,0,16,4.1c0.8,0.7,1.4,1,2.6,0.7
	c3.3-0.8,6.3-2.3,9.6-3.8c-1.3,4.2-3.9,7-7.4,9.5c3.5-0.3,6.3-1.2,9.6-2.5c-2.1,3.4-4.6,5.7-7.3,7.8c-0.9,0.8-1.2,1.5-1.2,2.7
	C82,46.4,77,58.9,66.8,69.1C57,78.9,44.9,83.1,31.2,83c-9.3,0-17.9-2.6-25.8-7.6c9.1,0.4,17.4-1.6,25.1-7.4
	c-7.8-1.1-13.3-4.7-16.1-12.1c2.5-0.4,4.9,0.4,7.1-0.7c-7.6-2.4-12.6-8-13.3-15.2C8.2,39.3,7.6,38.4,8.8,38z"/>
</svg>
