<?xml version="1.0" encoding="utf-8"?>
<!-- Generator: Adobe Illustrator 22.0.1, SVG Export Plug-In . SVG Version: 6.00 Build 0)  -->
<svg version="1.1" id="Layer_1" xmlns="http://www.w3.org/2000/svg" xmlns:xlink="http://www.w3.org/1999/xlink" x="0px" y="0px"
	 viewBox="0 0 96 96" style="enable-background:new 0 0 96 96;" xml:space="preserve">
<style type="text/css">
	.st0{fill:#CB2027;}
</style>
<path class="st0" d="M65.9,26.4c-0.1-5.8-3.2-9.3-8.9-10.1c-4.3-0.7-8.6-0.5-12.9-0.1C40.3,16.6,37,18,34.6,21
	c-5.2,6.7-11.5,10.2-20.2,8.7c-0.4-0.1-0.8,0-1.2,0c-2.6,0.1-4.7,1.1-5.9,3.5V72c1,3.5,3.9,3.5,6.8,3.6c1.9,0,3.5,0.2,3.1,2.9
	c-0.4,3,1.5,4,4.1,4.3c3.9,0.4,7-0.6,9.2-4.3c2.5-4.2,8.3-4.2,11-0.1c2.1,3.2,4.7,4.6,8.4,4.5c2.8-0.1,5.6,0,8.5,0
	c5.5-0.2,7.4-1.9,7.4-7.3C66,59.2,66,42.8,65.9,26.4z M34.3,43.4c-0.1,0.9,0,1.9,0,2.8c0,8.2,0,8.2-8.4,8.2s-8.2,0-8.5-8.3
	c-0.1-3.9,0.6-5.6,4.9-5.1c3.2,0.4,6.4,0.2,9.7,0C33.8,41,34.5,41.6,34.3,43.4z M57.8,28.5c0.3,1.4,0,2.5-2,2.5
	c-6.4-0.1-12.7,0-19.3,0c4.6-9.3,12.7-6.3,19.7-6.5C59.1,24.3,57.5,27,57.8,28.5z"/>
<path class="st0" d="M88.2,68c-5.3,0.7-10.1-0.3-13.5-4.9c-0.6-0.8-1.8-1.6-2.7-1.5c-4.5,0.6-4.2-2.2-4-5.1c0.1-2.3,0.1-4.6,0-6.8
	c-0.1-2.9-0.6-6,4.1-5.3c0.5,0.1,1.3-0.5,1.7-0.9c3.7-4.7,8.7-6.3,14.4-6.1C88.2,47.5,88.2,57.8,88.2,68z"/>
<path class="st0" d="M74.8,30.9c-7,0-8.1-1.4-6.8-8.5c0.2-1.3,0.8-1.5,1.8-1.5c3.3,0,6.7,0,10,0.1c3.2,0.1,5.1,1.9,5,5
	s-2,4.8-5.2,4.9C78,30.9,76.4,30.9,74.8,30.9z"/>
</svg>
