<?xml version="1.0" encoding="utf-8"?>
<!-- Generator: Adobe Illustrator 23.1.1, SVG Export Plug-In . SVG Version: 6.00 Build 0)  -->
<svg version="1.1" id="Layer_1" xmlns="http://www.w3.org/2000/svg" xmlns:xlink="http://www.w3.org/1999/xlink" x="0px" y="0px"
	 viewBox="0 0 96 96" style="enable-background:new 0 0 96 96;" xml:space="preserve">
<style type="text/css">
	.st0{fill:#FEFDF0;}
	.st1{fill:#272932;}
	.st2{fill:#22242D;}
	.st3{fill:#262830;}
	.st4{fill:#2E3037;}
	.st5{fill:#2D2E35;}
	.st6{fill:#292A33;}
	.st7{fill:#2C2E36;}
	.st8{fill:#2C2E35;}
	.st9{fill:#3E4045;}
	.st10{fill:#2F3139;}
	.st11{fill:#8F9EB5;}
	.st12{fill:#3B414E;}
	.st13{fill:#F2F0E6;}
</style>
<g>
	<path class="st0" d="M74.5,24.3c-2.3,2.4-4.5,4.9-6.8,7.3c-0.5,0.7-1,1.4-1.8,1.9C59.2,39.5,53,46,46.8,52.6c-1.1,1.2-2.6,1-4,1
		c-9.7,0-19.5,0.1-29.2,0c-5.7,0-8.7-3-8.9-8.7c-0.2-4.3-0.2-8.6,0-12.9c0.2-5.7,3.3-8.6,9-8.7c19-0.1,38,0,57,0
		C71.9,23.3,73.4,23.1,74.5,24.3z"/>
	<path class="st1" d="M74.5,24.3c-17.3,0-34.7-0.1-52-0.1c-3.3,0-6.6,0-9.9,0c-4.2,0.1-6.9,2.4-7,6.5c-0.2,5.1-0.2,10.3,0,15.4
		c0.1,3.9,2.7,6.5,6.3,6.5c11.6,0,23.2,0,34.8-0.1c0.6,0.3,1.5,0.6,1.1,1.5c-0.3,0.8-1.1,0.8-1.8,0.8c-4.3,0-8.6,0-12.9,0
		c-6.5,0-12.9,0-19.4,0c-6.9,0-10.2-3.3-10.2-10.1c0-4.4,0-8.8,0-13.2c0-6,3.5-9.6,9.5-9.6c11.8-0.1,23.6,0,35.4,0
		c8.8,0,17.7,0,26.5,0c0.6,0,1.2,0,1.8,0c0.8,0,1.8,0,1.9,1c0.1,1.1-0.9,1.2-1.8,1.2C76.2,24.2,75.3,24.2,74.5,24.3z"/>
	<path class="st2" d="M65.9,33.5c0.3-0.9,0.4-2.1,1.8-1.9c7.7,7.2,15.5,14.4,23.2,21.7c0.7,0.6,1.9,1.2,1.4,2.4
		c-0.5,1.1-1.6,0.5-2.5,0.7c-1.3,0.2-2.6,0.4-4,0.5c-4.5,0.3-4.5,0.3-2.7,4.3c1.3,2.8,2.5,5.6,3.8,8.4c0.6,1.3,0.7,2.1-0.9,2.9
		c-4.5,2.4-4.5,2.5-6.5-2.2c-1.4-3.4-2.9-6.7-4.9-11.3c-2,2.4-3.4,4.3-5,6.1c-0.8,0.8-1.5,2.4-2.9,1.7c-1.2-0.5-0.7-2-0.7-3.1
		c0-9.2,0-18.5,0-27.7C66.1,35.1,66,34.3,65.9,33.5z"/>
	<path class="st3" d="M36.4,42.1c-0.1,0.6-0.1,1-0.1,1.4c-0.1,0.8,0.3,1.8-1.1,1.7c-1.1-0.1-0.7-1.1-0.7-1.7c-0.1-1.6-0.1-3.3,0-4.9
		c0.1-1.1-0.5-3,0.4-3c1.8,0,3.8-1.1,5.6,0.3c1.3,1,1.7,2.4,1.3,3.9C41.1,42.6,38.9,42.7,36.4,42.1z"/>
	<path class="st4" d="M15.2,37.1c0-1.1,0-2.3,0-3.4c0-0.6-0.1-1.3,0.8-1.4c0.8-0.1,1.1,0.5,1,1.2c-0.2,1.8,0.7,1.9,2.1,1.7
		c1.2-0.2,2.1,0.5,2.5,1.8c0.4,1.6,0.6,3.2,0.1,4.8c-0.1,0.2-0.5,0.3-0.8,0.4c-0.5,0.1-0.8-0.2-0.8-0.7c0-0.5,0-1,0-1.5
		c-0.1-1.2,0.3-2.8-1.5-2.9c-2-0.1-1.5,1.7-1.7,3c-0.1,0.8,0.5,2.2-1,2.1c-1.4-0.1-0.7-1.4-0.8-2.2C15.1,39,15.2,38.1,15.2,37.1z"/>
	<path class="st5" d="M24.9,33.3c0.9,0.8,1.6,1.9,2.6,2.6c0.6,0.4-0.8,0.8-1.2,1.2c-0.9,1.1-1.1,2.4,0.1,3.4
		c0.5,0.4,1.6,0.6,1.1,1.4C27,42.7,25.8,42.4,25,42c-1.4-0.7-2.1-7.1-1-8.2C24.2,33.6,24.5,33.5,24.9,33.3z"/>
	<path class="st6" d="M30,33.2c1.5,0.7,1.8,2.2,3,2.7c0.5,0.2-0.8,0.8-1.2,1.2c-0.9,1.1-1.2,2.5,0.3,3.5c0.6,0.4,1.2,0.6,0.9,1.3
		c-0.3,0.6-1,0.5-1.7,0.4c-1.2-0.1-1.8-0.9-2-2c-0.2-1.3,0.2-2.6-1-3.9C27.8,35.6,29.8,34.6,30,33.2z"/>
	<path class="st7" d="M46.5,43.4c-0.6-0.1-0.8-0.3-0.6-1c1.4-3.4,2.6-6.8,4-10.3c0.3-0.7,0.9-0.8,1.5-0.5c0.6,0.3,0.2,0.9,0.1,1.3
		c-1.2,3.1-2.4,6.3-3.7,9.4C47.7,43,47.3,43.5,46.5,43.4z"/>
	<path class="st8" d="M58,32.8c-1.2,3.1-2.7,6.7-4.2,10.2c-0.1,0.2-0.8,0.3-1.1,0.3c-0.8-0.1-0.5-0.8-0.3-1.2
		c1.2-3.2,2.5-6.5,3.8-9.7c0.2-0.6,0.6-1,1.4-0.9C58,31.6,58.3,31.8,58,32.8z"/>
	<path class="st9" d="M44.1,36.3c0.5,0.1,0.9,0.4,1,1c0,0.6-0.2,1-0.8,1.1c-0.7,0-1.1-0.4-1.2-1.1C43.1,36.6,43.6,36.4,44.1,36.3z"
		/>
	<path class="st10" d="M45,41.2c0,0.5-0.1,1-0.7,1.1c-0.5,0.1-1-0.1-1.1-0.6c-0.2-0.7,0.2-1.1,0.9-1.3C44.7,40.2,44.9,40.6,45,41.2z
		"/>
	<path class="st11" d="M70.9,40.9c-0.4-1.1-0.8-2.2-1.2-3.4c0.2-0.2,0.4-0.4,0.6-0.5c6.1,5.6,12.1,11.2,18.5,17.1
		c-2.7,0.7-5.2,0.9-7.7,1c-2.2,0-2.7,0.9-1.7,2.9c1.6,3.2,3,6.5,4.4,9.8c0.4,1,2.2,2.2,0.1,3.3c-2.2,1.1-2-1.2-2.4-2.1
		c-1.6-3.2-3-6.5-4.3-9.9c-0.8-2.1-1.7-2.6-3.4-0.8c-1.5,1.6-3.3,3-5.2,4.8c0-8.4,0-16.4,0-24.8c0.7,1,1.2,1.8,1.6,2.5
		c0.2,0.2,0.4,0.5,0.7,0.5C70.9,41.3,70.9,41.1,70.9,40.9z"/>
	<path class="st12" d="M70.9,40.9c0.7,0.6,1.3,1.2,0.5,2.3c-0.8-0.6-1.2-1.3-1.2-2.3C70.4,40.9,70.6,40.9,70.9,40.9z"/>
	<path class="st13" d="M40,38.7c-0.1,1.4-0.9,2-2,1.9c-0.9-0.1-1.7-0.7-1.7-1.8c0-1.3,0.9-1.8,2-1.7C39.4,37.1,40,37.7,40,38.7z"/>
</g>
</svg>
