<?xml version="1.0" encoding="utf-8"?>
<!-- Generator: Adobe Illustrator 20.0.0, SVG Export Plug-In . SVG Version: 6.00 Build 0)  -->
<svg version="1.1" id="Layer_1" xmlns="http://www.w3.org/2000/svg" xmlns:xlink="http://www.w3.org/1999/xlink" x="0px" y="0px"
	 viewBox="0 0 96 96" style="enable-background:new 0 0 96 96;" xml:space="preserve">
<style type="text/css">
	.st0{fill:#010101;}
	.st1{fill:#FEFEFE;}
	.st2{fill:#060606;}
	.st3{fill:#131313;}
	.st4{fill:#171717;}
	.st5{fill:#202020;}
	.st6{fill:#101010;}
	.st7{fill:#0E0E0E;}
	.st8{fill:#0D0D0D;}
	.st9{fill:#FAFAFA;}
</style>
<g>
	<path class="st0" d="M30.6,74.8c-0.6,5.8-4.4,9.3-9.6,9c-2.7-0.2-7.1-5.4-6.8-8.1c0.6-5.5,4.9-9.2,9.9-8.7
		C26.5,67.3,30.8,72.5,30.6,74.8z"/>
	<path class="st0" d="M36,65.1c0.4,0.9-0.6,1.8-1.3,1.7c-2-0.2-3.1-1.6-3.8-3.4c-0.3-0.9,0.3-1.5,1.2-1.8
		C34.1,62.2,35.3,63.5,36,65.1z"/>
	<path class="st0" d="M41.4,59.2c0,1.3-0.3,2.3-1.3,2.1c-1.9-0.4-3.1-1.8-3.8-3.6c-0.2-0.6,0.4-1.3,1.1-1.3
		C39.8,56.2,40.3,58.4,41.4,59.2z"/>
	<path class="st0" d="M47.2,54.3c-0.3,1-1,1.7-1.8,1.4c-1.7-0.6-3.2-1.8-3.4-3.8c-0.1-0.7,0.6-1.7,1.6-1.3
		C45.3,51.4,46.6,52.7,47.2,54.3z"/>
	<path class="st0" d="M52.6,48.7c-0.2,1-0.6,1.9-1.6,1.6c-1.7-0.6-3.2-1.8-3.5-3.8c-0.1-0.8,0.7-1.2,1.3-1.2
		C50.8,45.5,51.8,47.1,52.6,48.7z"/>
	<path class="st0" d="M58.1,43.3c0.2,0.9-0.8,1.6-1.6,1.3c-1.7-0.4-2.9-1.6-3.4-3.3c-0.2-0.8,0.3-1.6,1.3-1.8
		C56.2,40.3,57.6,41.4,58.1,43.3z"/>
	<path class="st0" d="M70.7,37.3c0.8,0.8,1.1,1.8,0.2,2.6c-0.9,0.8-1.8,0.2-2.6-0.5c-3.4-3.4-6.8-6.8-10.2-10.2
		c-1.2-1.2-1.1-2.3,0.8-3c0.4,0.2,1,0.3,1.3,0.6C63.7,30.3,67.2,33.8,70.7,37.3z"/>
	<path class="st0" d="M92.3,21.3c-0.8-2.8-2.2-2.6-3.9-0.9c-2.3,2.2-4.5,4.5-6.7,6.7c-3.2,3.1-6.6,2.8-10.2-0.9
		c-3.6-3.6-3.9-6.8-1-9.8c2.3-2.4,4.7-4.7,7-7.1c1.9-1.9,1.3-3.3-1.2-3.8c-1.3-0.3-2.7-0.2-3.1-0.2C57.3,5.4,48,15.5,49.4,30.4
		c0.2,2-0.6,3-1.8,4.2C40.4,41.8,33.2,49,26,56.3c-1.5,1.6-3.2,1.9-5.3,2.1C12.2,59.1,5.6,66,5.2,74.5C4.8,83.2,11,91,19.4,92.4
		c8.7,1.4,18-3.7,19.1-12.1c0.9-6.9,5-10.5,9.1-14.6c4-4,8.2-7.9,12-12.1C63,49.7,66.4,47,72,49.1c1.4,0.5,3.3-0.1,4.9-0.5
		C86.4,46.2,95.1,30.8,92.3,21.3z M67.5,45.1c-2.3-0.5-3.7-0.1-5.2,1.5c-7.9,8-15.8,15.9-23.7,23.7c-1.5,1.5-2.2,3-2.2,5.2
		c-0.2,8.1-6.3,14-14,13.9c-7.8-0.1-14-6.4-14-14c0-7.7,5.9-13.7,14-14c2.2-0.1,3.7-0.7,5.2-2.2c7.7-7.9,15.6-15.6,23.3-23.4
		c1.2-1.2,2.5-2.2,2.1-4.6C50.5,17.4,58.3,8.7,73.2,8.4c-2.3,4.5-8.1,6-8,11.4c0,3.5,1.7,6.5,4.2,8.8c3,2.8,6.8,5.3,10.8,3.5
		c3.3-1.5,5.7-4.8,8.6-7.4C90.6,37.5,79.8,47.9,67.5,45.1z"/>
	<path class="st1" d="M30.6,74.8c-0.6,5.8-4.4,9.3-9.6,9c-2.7-0.2-7.1-5.4-6.8-8.1c0.6-5.5,4.9-9.2,9.9-8.7
		C26.5,67.3,30.8,72.5,30.6,74.8z"/>
	<path class="st1" d="M36,65.1c0.4,0.9-0.6,1.8-1.3,1.7c-2-0.2-3.1-1.6-3.8-3.4c-0.3-0.9,0.3-1.5,1.2-1.8
		C34.1,62.2,35.3,63.5,36,65.1z"/>
	<path class="st1" d="M41.4,59.2c0,1.3-0.3,2.3-1.3,2.1c-1.9-0.4-3.1-1.8-3.8-3.6c-0.2-0.6,0.4-1.3,1.1-1.3
		C39.8,56.2,40.3,58.4,41.4,59.2z"/>
	<path class="st1" d="M47.2,54.3c-0.3,1-1,1.7-1.8,1.4c-1.7-0.6-3.2-1.8-3.4-3.8c-0.1-0.7,0.6-1.7,1.6-1.3
		C45.3,51.4,46.6,52.7,47.2,54.3z"/>
	<path class="st1" d="M52.6,48.7c-0.2,1-0.6,1.9-1.6,1.6c-1.7-0.6-3.2-1.8-3.5-3.8c-0.1-0.8,0.7-1.2,1.3-1.2
		C50.8,45.5,51.8,47.1,52.6,48.7z"/>
	<path class="st1" d="M58.1,43.3c0.2,0.9-0.8,1.6-1.6,1.3c-1.7-0.4-2.9-1.6-3.4-3.3c-0.2-0.8,0.3-1.6,1.3-1.8
		C56.2,40.3,57.6,41.4,58.1,43.3z"/>
	<path class="st1" d="M70.9,40c-0.9,0.8-1.8,0.2-2.6-0.5c-3.4-3.4-6.8-6.8-10.2-10.2c-1.2-1.2-1.1-2.3,0.8-3c0.4,0.2,1,0.3,1.3,0.6
		c3.5,3.5,7.1,7,10.5,10.5C71.5,38.1,71.8,39.2,70.9,40z"/>
	<path class="st2" d="M30.6,74.8c-0.6,5.8-4.4,9.3-9.6,9c-2.7-0.2-7.1-5.4-6.8-8.1c0.6-5.5,4.9-9.2,9.9-8.7
		C26.5,67.3,30.8,72.5,30.6,74.8z"/>
	<path class="st3" d="M70.9,40c-0.9,0.8-1.8,0.2-2.6-0.5c-3.4-3.4-6.8-6.8-10.2-10.2c-1.2-1.2-1.1-2.3,0.8-3c0.4,0.2,1,0.3,1.3,0.6
		c3.5,3.5,7.1,7,10.5,10.5C71.5,38.1,71.8,39.2,70.9,40z"/>
	<path class="st4" d="M47.2,54.3c-0.3,1-1,1.7-1.8,1.4c-1.7-0.6-3.2-1.8-3.4-3.8c-0.1-0.7,0.6-1.7,1.6-1.3
		C45.3,51.4,46.6,52.7,47.2,54.3z"/>
	<path class="st5" d="M34.7,66.8c-2-0.2-3.1-1.6-3.8-3.4c-0.3-0.9,0.3-1.5,1.2-1.8c1.8,0.5,3,1.8,3.8,3.5
		C36.4,66,35.5,66.9,34.7,66.8z"/>
	<path class="st6" d="M56.5,44.6c-1.7-0.4-2.9-1.6-3.4-3.3c-0.2-0.8,0.3-1.6,1.3-1.8c1.7,0.8,3.1,1.9,3.6,3.8
		C58.3,44.2,57.3,44.8,56.5,44.6z"/>
	<path class="st7" d="M52.6,48.7c-0.2,1-0.6,1.9-1.6,1.6c-1.7-0.6-3.2-1.8-3.5-3.8c-0.1-0.8,0.7-1.2,1.3-1.2
		C50.8,45.5,51.8,47.1,52.6,48.7z"/>
	<path class="st8" d="M41.4,59.2c0,1.3-0.3,2.3-1.3,2.1c-1.9-0.4-3.1-1.8-3.8-3.6c-0.2-0.6,0.4-1.3,1.1-1.3
		C39.8,56.2,40.3,58.4,41.4,59.2z"/>
	<path class="st9" d="M21.2,80.3c-1.5-0.4-3.6-1.9-3.8-4.2c-0.3-3.3,1.8-5.7,5.3-5.6c2.5,0,4.3,1.9,4.4,4.4
		C27.3,78.2,25.6,80.2,21.2,80.3z"/>
</g>
</svg>
