<?xml version="1.0" encoding="utf-8"?>
<!-- Generator: Adobe Illustrator 22.0.1, SVG Export Plug-In . SVG Version: 6.00 Build 0)  -->
<svg version="1.1" id="Layer_1" xmlns="http://www.w3.org/2000/svg" xmlns:xlink="http://www.w3.org/1999/xlink" x="0px" y="0px"
	 viewBox="0 0 96 96" style="enable-background:new 0 0 96 96;" xml:space="preserve">
<style type="text/css">
	.st0{fill:#FFFFFF;}
</style>
<path class="st0" d="M93.1,28.7c-0.9-8.6-4.9-12.2-13.3-13.2c-9.3-1.2-18.7-1.9-28.1-2.1c-8.6-0.2-17.3,0.2-25.9,0.8
	c-5,0.4-10.1,1.2-15,2.6C6.4,18,3.7,21.4,3,26.2C0.8,39.8,0.7,53.6,2.5,67.4c1.1,8.4,4.3,11.9,12.7,13.3c12,2.1,24.1,2,36.1,2
	c2.9,0,5.8,0.2,8.6,0c8-0.7,16-1.3,24-2.7c4.9-0.8,8.3-4.1,9-9.3c0.8-6.1,1.9-12.3,1.9-18.4C94.8,44.4,93.9,36.5,93.1,28.7z
	 M36.2,63.3V33c8.8,5.1,17.4,10,26.4,15.1C53.7,53.3,45.1,58.2,36.2,63.3z"/>
</svg>
