<?xml version="1.0" encoding="utf-8"?>
<!-- Generator: Adobe Illustrator 20.0.0, SVG Export Plug-In . SVG Version: 6.00 Build 0)  -->
<svg version="1.1" id="Layer_1" xmlns="http://www.w3.org/2000/svg" xmlns:xlink="http://www.w3.org/1999/xlink" x="0px" y="0px"
	 viewBox="0 0 420.8 72.8" enable-background="new 0 0 420.8 72.8" xml:space="preserve">
<g>
	<g>
		<path fill="#F3F3F3" d="M236.5,66.5V55.2l-5.2,7.5h-0.1l-5.2-7.5v11.4h-0.9V53.5h0.9l5.3,7.7l5.3-7.7h0.9v13.1H236.5z"/>
		<path fill="#F3F3F3" d="M257.5,66.5V53.5h9.3v0.9h-8.3v5.1h7.5v0.9h-7.5v5.3h8.4v0.9H257.5z"/>
		<path fill="#F3F3F3" d="M290.5,66.5h-4.4V53.5h4.4c4.1,0,7,2.8,7,6.5v0C297.4,63.7,294.6,66.5,290.5,66.5z M296.4,60
			c0-3.1-2.3-5.6-5.9-5.6h-3.4v11.3h3.4C294.1,65.6,296.4,63.2,296.4,60L296.4,60z"/>
		<path fill="#F3F3F3" d="M317,66.5V53.5h1v13.1H317z"/>
		<path fill="#F3F3F3" d="M349,66.5l-1.7-3.7h-7.7l-1.7,3.7h-1l6.1-13.2h0.9l6.1,13.2H349z M343.5,54.4L340,62h6.9L343.5,54.4z"/>
	</g>
	<g>
		<path fill="#FCF7F7" d="M163.8,19.8h-9.4v-9.1H184v9.1h-9.4v23h-10.7V19.8z"/>
		<path fill="#FCF7F7" d="M186.5,10.7h15.7c5.7,0,9.3,1.4,11.6,3.7c1.9,1.9,2.9,4.3,2.9,7.6v0.1c0,4.7-2.4,7.9-6.3,9.8l7.5,10.9
			h-12.2l-6.1-9.2h-0.1h-2.2v9.2h-10.7V10.7z M201.8,26c2.6,0,4.1-1.1,4.1-3.1v-0.1c0-2.1-1.6-3.1-4.1-3.1h-4.7V26H201.8z"/>
		<path fill="#FCF7F7" d="M219,28.4V10.7h10.9v17.6c0,4,2.1,5.7,5,5.7c2.9,0,5-1.6,5-5.5V10.7h10.9v17.5c0,11-6.4,15.3-16,15.3
			C225.2,43.4,219,39,219,28.4z"/>
		<path fill="#FCF7F7" d="M254.1,10.7h27.4v8.8h-16.8v3.3h15.7v7.8h-15.7V34h17.1v8.8h-27.6V10.7z"/>
		<path fill="#FCF7F7" d="M304.5,19.8h-9.4v-9.1h29.6v9.1h-9.4v23h-10.7V19.8z"/>
		<path fill="#FCF7F7" d="M334.2,10.5h10.6l13.5,32.3h-11.6l-1.7-4.3h-11.2l-1.7,4.3h-11.5L334.2,10.5z M342.4,30.9l-2.9-7.8
			l-2.9,7.8H342.4z"/>
		<path fill="#FCF7F7" d="M359.7,10.7h10.7v12l9.1-12h12.5l-11.2,13.9l11.4,18.2h-12.8l-6.3-10.2l-2.8,3.3v6.8h-10.7V10.7z"/>
		<path fill="#FCF7F7" d="M393.2,10.7h27.4v8.8h-16.8v3.3h15.7v7.8h-15.7V34h17.1v8.8h-27.6V10.7z"/>
	</g>
	<g>
		<path fill="#D4272A" d="M135.9,16.2L123,63.3c-1.5,5.6-6.6,9.5-12.4,9.5H96.4L116.2,0l7.3,0C132,0,138.1,8.1,135.9,16.2z"/>
		<path fill="#FCF7F7" d="M96.9,19.6h9.4L111.6,0H12.8C5.8,0,0,5.8,0,12.8v6.8h14.7L0.3,72.8h24.2l11.9-43.7
			c1.5-5.6,6.6-9.5,12.4-9.5h13.8L48.2,72.8l24.4,0l11.9-43.7C86,23.5,91.1,19.6,96.9,19.6z"/>
	</g>
</g>
</svg>
