<?xml version="1.0" encoding="utf-8"?>
<!-- Generator: Adobe Illustrator 20.0.0, SVG Export Plug-In . SVG Version: 6.00 Build 0)  -->
<svg version="1.1" id="Layer_1" xmlns="http://www.w3.org/2000/svg" xmlns:xlink="http://www.w3.org/1999/xlink" x="0px" y="0px"
	 viewBox="0 0 266 150" enable-background="new 0 0 266 150" xml:space="preserve">
<path fill="#FDF8F8" d="M9.2,102.5h-9.4v-9.1h29.6v9.1H20v23H9.2V102.5z"/>
<path fill="#FDF8F8" d="M31.9,93.5h15.7c5.7,0,9.3,1.4,11.6,3.7c1.9,1.9,2.9,4.3,2.9,7.6v0.1c0,4.7-2.4,7.9-6.3,9.8l7.5,10.9H50.9
	l-6.1-9.2h-0.1h-2.2v9.2H31.9V93.5z M47.2,108.7c2.6,0,4.1-1.1,4.1-3.1v-0.1c0-2.1-1.6-3.1-4.1-3.1h-4.7v6.3H47.2z"/>
<path fill="#FDF8F8" d="M64.4,111.2V93.5h10.9V111c0,4,2.1,5.7,5,5.7s5-1.6,5-5.5V93.5h10.9v17.5c0,11-6.4,15.3-16,15.3
	C70.6,126.2,64.4,121.8,64.4,111.2z"/>
<path fill="#FDF8F8" d="M99.5,93.5h27.4v8.8h-16.8v3.3h15.7v7.8h-15.7v3.5h17.1v8.8H99.5V93.5z"/>
<path fill="#FDF8F8" d="M149.9,102.5h-9.4v-9.1h29.6v9.1h-9.4v23h-10.7V102.5z"/>
<path fill="#FDF8F8" d="M179.6,93.2h10.6l13.5,32.3h-11.6l-1.7-4.3h-11.2l-1.7,4.3h-11.5L179.6,93.2z M187.8,113.6l-2.9-7.8
	l-2.9,7.8H187.8z"/>
<path fill="#FDF8F8" d="M205.1,93.5h10.7v12l9.1-12h12.5l-11.2,13.9l11.4,18.2h-12.8l-6.3-10.2l-2.8,3.3v6.8h-10.7V93.5z"/>
<path fill="#FDF8F8" d="M238.6,93.5H266v8.8h-16.8v3.3h15.7v7.8h-15.7v3.5h17.1v8.8h-27.6V93.5z"/>
<g>
	<path fill="#FDF8F8" d="M81.9,149.6v-11.4l-5.2,7.5h-0.1l-5.2-7.5v11.4h-0.9v-13.1h0.9l5.3,7.7l5.3-7.7h0.9v13.1H81.9z"/>
	<path fill="#FDF8F8" d="M102.9,149.6v-13.1h9.3v0.9h-8.3v5.1h7.5v0.9h-7.5v5.3h8.4v0.9H102.9z"/>
	<path fill="#FDF8F8" d="M135.9,149.6h-4.4v-13.1h4.4c4.1,0,7,2.8,7,6.5v0C142.8,146.7,140,149.6,135.9,149.6z M141.8,143
		c0-3.1-2.3-5.6-5.9-5.6h-3.4v11.3h3.4C139.5,148.7,141.8,146.2,141.8,143L141.8,143z"/>
	<path fill="#FDF8F8" d="M162.4,149.6v-13.1h1v13.1H162.4z"/>
	<path fill="#FDF8F8" d="M194.4,149.6l-1.7-3.7H185l-1.7,3.7h-1l6.1-13.2h0.9l6.1,13.2H194.4z M188.9,137.4l-3.5,7.6h6.9
		L188.9,137.4z"/>
</g>
<path fill="#D4282A" d="M200.7,16.7l-12.9,47.1c-1.5,5.6-6.6,9.5-12.4,9.5h-14.3L181,0.4l7.3,0C196.8,0.4,203,8.5,200.7,16.7z"/>
<path fill="#FDF8F8" d="M161.7,20.1h9.4l5.3-19.6H77.7c-7.1,0-12.8,5.8-12.8,12.8v6.8h14.7L65.1,73.2h24.2l11.9-43.7
	c1.5-5.6,6.6-9.5,12.4-9.5h13.8L113,73.2l24.4,0l11.9-43.7C150.8,23.9,155.9,20.1,161.7,20.1z"/>
</svg>
