<?xml version="1.0" encoding="utf-8"?>
<!-- Generator: Adobe Illustrator 22.0.1, SVG Export Plug-In . SVG Version: 6.00 Build 0)  -->
<svg version="1.1" id="Layer_1" xmlns="http://www.w3.org/2000/svg" xmlns:xlink="http://www.w3.org/1999/xlink" x="0px" y="0px"
	 viewBox="0 0 564 576" style="enable-background:new 0 0 564 576;" xml:space="preserve">
<style type="text/css">
	.st0{enable-background:new    ;}
	.st1{fill:none;stroke:#000000;stroke-miterlimit:10;}
	.st2{font-family:'MyriadPro-Bold';}
	.st3{font-size:12px;}
	.st4{font-family:'MyriadPro-Regular';}
</style>
<g>
	<g>
		<g>
			<path d="M293.9,92.1c-4-1.2-18.5-17-19.4-18.4c2.1-20.7-15.9-26-15.9-26l-12.2,12.2c0,0,5.4,18,26,15.9
				c1.3,0.9,17.2,15.5,18.4,19.4c-2.4,2.8-4.6,6.5-3.8,7.3l0,0L301.5,88l0,0C300.6,87.2,296.8,89.6,293.9,92.1z"/>
			<path d="M270.1,92.1c4-1.2,18.5-17,19.4-18.4c-2.1-20.7,15.9-26,15.9-26l12.2,12.2c0,0-5.4,18-26,15.9
				c-1.3,0.9-17.2,15.5-18.4,19.4c2.4,2.8,4.6,6.5,3.8,7.3l0,0L262.5,88l0,0C263.5,87.2,267.2,89.6,270.1,92.1z"/>
		</g>
		<g class="st0">
			<path d="M212.1,134.7c-1.4-0.2-2.6-0.6-3.5-1.3s-1.6-1.6-2-2.7c-0.4-1.1-0.7-2.3-0.7-3.6s0.1-2.7,0.4-4c0.3-1.4,0.8-2.7,1.4-3.9
				c0.6-1.3,1.4-2.4,2.2-3.4c0.9-1,1.8-1.8,2.9-2.4c1.1-0.6,2.2-0.9,3.3-0.9c1.6,0,2.8,0.3,3.6,0.9c0.8,0.6,1.3,1.4,1.5,2.3
				s0.1,2-0.2,3.1s-0.8,2.2-1.6,3.2c-0.7,1-1.6,1.9-2.6,2.7s-2.1,1.3-3.3,1.5c-0.2,0-0.4-0.2-0.6-0.4c-0.2-0.3-0.3-0.6-0.4-0.9
				s0-0.7,0.1-1.2c0.1-0.4,0.4-0.8,0.9-1.1c1-0.2,1.8-0.5,2.5-1s1.2-1.1,1.5-1.7c0.3-0.6,0.5-1.2,0.5-1.8s-0.2-1-0.6-1.3
				c-0.7-0.4-1.4-0.4-2.1-0.1c-0.8,0.3-1.5,0.8-2.2,1.5s-1.3,1.6-1.9,2.6c-0.6,1-1,2.1-1.2,3.1c-0.3,1.1-0.3,2.1-0.2,3.1
				s0.5,1.8,1.1,2.4c0.6,0.4,1.2,0.7,1.8,0.8s1.3,0,2-0.2s1.3-0.5,1.9-0.8c0.6-0.4,1.1-0.7,1.7-1.2c0.5-0.4,0.9-0.8,1.3-1.3
				c0.3-0.4,0.6-0.8,0.7-1.1c0.2,0,0.4,0,0.5,0.1s0.2,0.1,0.3,0.2c0.1,0.1,0.1,0.2,0.1,0.3c-0.6,1.6-1.2,2.9-1.9,3.9
				c-0.6,1-1.3,1.9-1.9,2.5c-0.6,0.6-1.2,1.1-1.8,1.4c-0.6,0.3-1.1,0.5-1.5,0.6c-0.5,0.1-0.9,0.2-1.2,0.2
				C212.5,134.7,212.2,134.7,212.1,134.7z"/>
			<path d="M231,125.9c-0.2,0.9-0.5,1.8-0.8,2.6s-0.7,1.6-1.2,2.2c-0.5,0.7-1,1.2-1.6,1.6c-0.6,0.4-1.2,0.7-2,0.7
				c-0.9,0.1-1.7,0-2.3-0.1c-0.6-0.2-1.1-0.4-1.5-0.7c-0.8-0.5-1.3-1.1-1.8-2c-0.4-0.8-0.5-1.9-0.3-3.1c0.2-1,0.4-2,0.7-3
				s0.7-1.9,1.2-2.7s1-1.4,1.7-2c0.6-0.5,1.4-0.8,2.2-0.9c0.8-0.1,1.5,0,2.2,0.2s1.3,0.5,1.9,0.8c0.5,0.4,1,0.9,1.3,1.4
				c0.3,0.6,0.5,1.3,0.6,2c0.2-0.1,0.5-0.2,0.8-0.3s0.5-0.3,0.8-0.4c0.3-0.2,0.5-0.3,0.8-0.5c0.2-0.2,0.4-0.3,0.6-0.5
				c0.2,0,0.3,0.1,0.4,0.3c0.1,0.2,0.2,0.3,0.3,0.6c0.1,0.2,0.1,0.4,0.1,0.6c0,0.2,0,0.3-0.1,0.4c-0.3,0.3-0.6,0.5-1,0.8
				s-0.7,0.5-1.1,0.7c-0.4,0.2-0.7,0.4-1.1,0.6C231.6,125.6,231.3,125.7,231,125.9z M225.7,126.2c-0.3-0.2-0.6-0.4-0.9-0.6
				c0.7-0.4,1.2-0.8,1.5-1.3s0.6-0.9,0.7-1.3c0.1-0.4,0.1-0.8,0-1c-0.1-0.3-0.3-0.5-0.6-0.6c-0.2-0.1-0.4,0-0.7,0.1
				s-0.5,0.4-0.8,0.8c-0.3,0.4-0.6,1-0.9,1.7c-0.3,0.7-0.6,1.6-0.8,2.6c-0.2,0.9-0.2,1.6,0,2.1s0.6,0.9,1.1,1.2
				c0.4,0.1,0.8,0.1,1.2,0s0.7-0.3,1-0.7c0.3-0.3,0.6-0.7,0.8-1.2s0.4-0.9,0.6-1.5c-0.4,0-0.7,0-1,0s-0.5-0.1-0.8-0.2
				C226.1,126.5,225.9,126.4,225.7,126.2z"/>
			<path d="M235.1,118.7c0.3-0.1,0.7-0.1,1-0.1c0.4,0,0.8,0,1.1,0.1s0.7,0.2,0.9,0.3c0.3,0.1,0.4,0.2,0.5,0.4
				c-0.8,1.3-1.4,2.5-1.9,3.6c0.6-1,1.3-1.8,2.1-2.6s1.7-1.3,2.8-1.6l0,0c0.7-0.1,1.2-0.1,1.7-0.1s0.8,0.1,1,0.3s0.3,0.5,0.3,0.9
				s-0.2,0.9-0.5,1.5c-0.1,0.2-0.2,0.4-0.3,0.6c-0.1,0.2-0.2,0.4-0.3,0.6c0.6-0.9,1.2-1.7,2-2.3c0.7-0.7,1.6-1.2,2.6-1.4
				c0.9-0.1,1.6-0.1,2,0s0.7,0.3,0.8,0.6s0.1,0.7,0,1.1c-0.1,0.5-0.4,1-0.7,1.6c-0.6,1.2-1.1,2.4-1.4,3.4c-0.3,1.1-0.5,2.2-0.5,3.4
				c0,0.7,0.1,1.1,0.4,1.2c0.3,0.1,0.6,0.1,0.9-0.1c0.4-0.2,0.7-0.6,1.1-1.1c0.4-0.5,0.6-1.1,0.8-1.7c0.1,0,0.2,0,0.2,0
				c0.2,0,0.2,0.1,0.3,0.3c-0.1,0.7-0.2,1.4-0.5,2.1c-0.2,0.7-0.6,1.3-1,1.8s-0.9,1-1.5,1.3s-1.3,0.5-2,0.5c-0.8,0-1.3-0.3-1.6-0.9
				c-0.3-0.6-0.5-1.4-0.5-2.3c0-0.9,0.1-2,0.3-3.1s0.5-2.2,0.8-3.2c0-0.4-0.2-0.5-0.5-0.4s-0.8,0.3-1.2,0.7
				c-0.5,0.4-0.9,0.9-1.4,1.5s-0.8,1.3-1,2c-0.1,0.8-0.2,1.7-0.2,2.6c0,0.9,0,2,0.1,3.1c0,0-0.2,0-0.5,0s-0.7,0-1.1-0.1
				c-0.4,0-0.7-0.1-1.1-0.2c-0.3-0.1-0.5-0.2-0.6-0.3c-0.3-1.5-0.3-3-0.1-4.6s0.5-3,1-4.3c0-0.4-0.2-0.5-0.5-0.4s-0.7,0.3-1.2,0.7
				s-0.9,0.9-1.4,1.4c-0.5,0.6-0.8,1.2-1,1.9c-0.2,0.9-0.2,1.8-0.3,2.7c0,0.9,0,2,0.1,3.2c0,0-0.2,0-0.5,0s-0.7,0-1-0.1
				c-0.4,0-0.7-0.1-1.1-0.2c-0.3-0.1-0.5-0.2-0.6-0.3c-0.2-0.9-0.3-1.9-0.2-2.9c0-1,0.1-1.9,0.3-2.9c0.2-0.9,0.4-1.8,0.6-2.7
				c0.3-0.9,0.5-1.6,0.8-2.3s0.6-1.3,0.8-1.8C234.7,119.4,234.9,119,235.1,118.7z"/>
			<path d="M251,127.1c0.2-1,0.4-2,0.7-3s0.7-1.9,1.2-2.7s1-1.4,1.7-2c0.6-0.5,1.4-0.8,2.2-0.9c1-0.1,1.9,0,2.5,0.2
				c0.7,0.2,1.1,0.6,1.5,1c0.3,0.4,0.5,1,0.6,1.5c0.1,0.6,0,1.1-0.1,1.7c-0.1,0.6-0.4,1.2-0.7,1.7c-0.3,0.6-0.6,1-1,1.4
				c-0.7,0.7-1.5,1.2-2.4,1.3c-0.9,0.2-1.8,0.2-2.8,0.1c0,0.7,0.1,1.2,0.5,1.6c0.3,0.4,0.8,0.7,1.3,0.9s1.1,0.2,1.7,0.1
				c0.6-0.1,1.2-0.2,1.8-0.5c0.6-0.3,1.1-0.6,1.6-1.1s0.8-1,1-1.6c0.1,0,0.2,0,0.2,0c0.2,0,0.2,0.1,0.3,0.3
				c-0.1,1.3-0.5,2.4-1.2,3.3c-0.7,0.9-1.5,1.5-2.4,1.9s-1.9,0.6-2.9,0.6s-1.9-0.3-2.8-0.8c-0.8-0.5-1.5-1.1-1.9-2
				C250.9,129.5,250.8,128.4,251,127.1z M258,124.4c0.2-0.3,0.4-0.7,0.5-1s0.1-0.6,0-0.9c0-0.3-0.1-0.5-0.3-0.7
				c-0.2-0.2-0.3-0.3-0.6-0.3c-0.2,0-0.4,0-0.6,0.1s-0.5,0.3-0.7,0.6s-0.5,0.7-0.8,1.2s-0.5,1.2-0.8,2.1c0.6,0.1,1.2,0.1,1.8,0
				C257.1,125.3,257.6,125,258,124.4z"/>
			<path d="M272.4,134.5c-0.1,0.1-0.3,0.1-0.4,0.1c-0.2,0-0.4,0.1-0.6,0.1c-0.7,0-1.3-0.3-1.6-1c-0.3-0.7-0.5-1.5-0.5-2.6
				s0.1-2.3,0.3-3.7c0.2-1.4,0.5-2.8,0.9-4.2s0.8-2.8,1.2-4.2c0.5-1.4,0.9-2.6,1.3-3.6c-0.5-0.1-1.1-0.1-1.6-0.1
				c-0.6,0-1.1,0.2-1.7,0.4s-1.2,0.5-1.9,1c-0.7,0.4-1.4,1-2.1,1.7c-0.4-0.7-0.6-1.5-0.3-2.2c0.2-0.8,0.7-1.5,1.4-2.1
				c0.7-0.6,1.5-1.2,2.6-1.6c1-0.4,2.1-0.7,3.3-0.7c0.7,0,1.3,0,2.1,0.2c0.7,0.1,1.4,0.3,2.2,0.5c0.7,0.2,1.4,0.3,2.2,0.5
				c0.7,0.1,1.4,0.2,2.1,0.2s1.3-0.2,2-0.4c0.6-0.3,1.2-0.7,1.7-1.3c0.2,0.3,0.3,0.7,0.3,1.2s0,0.8-0.1,1.3
				c-0.1,0.4-0.2,0.8-0.4,1.2c-0.2,0.4-0.5,0.7-0.8,1c-0.8,0.3-1.5,0.5-2.1,0.6c-0.7,0.1-1.3,0.2-1.9,0.1c-0.6,0-1.2-0.1-1.8-0.2
				c-0.6-0.1-1.1-0.2-1.6-0.4c-1,2.3-1.7,4.4-2.3,6.6c-0.6,2.1-0.9,4.2-1.2,6.2c0,0.7,0.2,1.1,0.5,1.2c0.3,0.1,0.7,0.1,1.1-0.1
				c0.4-0.2,0.8-0.6,1.3-1.1c0.4-0.5,0.7-1,0.9-1.7c0.1,0,0.2,0,0.2,0c0.2,0,0.2,0.1,0.3,0.3c-0.1,0.6-0.2,1.3-0.5,2s-0.6,1.4-1,2.1
				c-0.4,0.7-0.9,1.3-1.5,1.8C273.6,133.9,273,134.3,272.4,134.5z"/>
			<path d="M285.6,128.8c0,0.7,0.1,1.1,0.4,1.2c0.3,0.1,0.6,0.1,0.9-0.1c0.3-0.2,0.7-0.6,1-1.1s0.6-1.1,0.8-1.7c0.1,0,0.2,0,0.2,0
				c0.2,0,0.2,0.1,0.3,0.3c-0.1,0.7-0.2,1.4-0.4,2.1c-0.2,0.7-0.6,1.3-1,1.8s-0.9,1-1.5,1.3s-1.2,0.5-2,0.5c-0.3,0-0.6-0.1-0.9-0.3
				c-0.2-0.2-0.4-0.5-0.6-0.8c-0.1-0.4-0.2-0.8-0.2-1.3s0-1,0-1.6c-0.6,0.9-1,1.7-1.4,2.2s-0.7,0.9-1,1.2s-0.7,0.4-1,0.5
				c-0.4,0.1-0.8,0.1-1.3,0.1c-0.1,0-0.1,0-0.2,0s-0.1,0-0.2-0.1c-0.4-0.1-0.7-0.4-1-0.9s-0.5-1.1-0.6-1.8c-0.1-0.8,0-1.6,0.1-2.6
				s0.4-1.9,0.7-2.9c0.3-1,0.6-1.9,1.1-2.8c0.4-0.9,0.9-1.6,1.3-2.3c0.4-0.6,0.9-0.9,1.4-1.1c0.5-0.2,1-0.2,1.5-0.1
				c0.5,0.1,1,0.3,1.5,0.7c0.5,0.3,0.9,0.7,1.3,1.2c0.3-0.7,0.5-1.2,0.7-1.6c0.3-0.1,0.7-0.1,1-0.1s0.8,0,1.1,0.1
				c0.3,0.1,0.7,0.2,0.9,0.3s0.4,0.2,0.5,0.4c-0.5,0.9-0.9,1.6-1.3,2.3s-0.7,1.4-1,2.1c-0.3,0.7-0.5,1.5-0.7,2.2
				C285.7,127.1,285.6,127.9,285.6,128.8z M279,128.8c0.1,0.2,0.2,0.4,0.3,0.4c0.1,0.1,0.3,0,0.6-0.2c0.6-0.6,1.2-1.3,1.6-2
				c0.5-0.7,0.9-1.3,1.2-1.9c0.3-0.6,0.6-1,0.7-1.4c0.2-0.4,0.2-0.6,0.2-0.6c-0.4-0.9-0.8-1.4-1.2-1.5c-0.4-0.1-0.8,0-1.2,0.3
				c-0.4,0.3-0.7,0.8-1,1.5s-0.6,1.3-0.8,2c-0.2,0.7-0.4,1.4-0.5,2C279,128.1,279,128.6,279,128.8z"/>
			<path d="M290.6,133.1c-0.6,0-1.1-0.1-1.7-0.4s-1.1-0.5-1.5-0.9s-0.6-0.8-0.7-1.4c-0.1-0.5,0.1-1.1,0.6-1.7l3.8-5.2
				c-0.5-0.8-0.8-1.6-0.8-2.2c0-0.6,0.2-1.2,0.6-1.6c0.4-0.4,0.8-0.7,1.4-0.9s1.1-0.2,1.7-0.2c0.6,0.1,1,0.3,1.4,0.6
				s0.6,0.8,0.6,1.5c0,0.3-0.1,0.6-0.3,0.9c-0.2,0.3-0.4,0.6-0.6,0.8c-0.3,0.3-0.5,0.5-0.8,0.8c0.8,1,1.4,1.9,1.8,2.8
				c0.3,0.9,0.5,1.7,0.4,2.4s-0.3,1.4-0.7,2c-0.4,0.6-0.8,1.1-1.4,1.5s-1.2,0.7-1.9,0.9C292,133,291.3,133.1,290.6,133.1z
				 M288.6,129.8c0.4,0.5,0.8,0.7,1.3,0.8s0.9,0,1.3-0.2s0.8-0.5,1.1-0.9c0.3-0.4,0.5-0.8,0.7-1.3c0.1-0.5,0.1-1,0-1.5
				s-0.4-1-0.9-1.5L288.6,129.8z"/>
			<path d="M299.7,133.1c-0.7,0-1.2-0.3-1.5-0.8s-0.5-1.2-0.6-2c0-0.8,0-1.8,0.2-2.9c0.2-1.1,0.4-2.2,0.7-3.4c0.3-1.2,0.6-2.4,1-3.5
				c0.4-1.2,0.8-2.3,1.1-3.3h-4.9c0.1-0.6,0.1-1,0.3-1.3c0.1-0.3,0.3-0.5,0.6-0.7l5.1-0.6c0.2-0.4,0.3-0.7,0.4-1s0.2-0.5,0.3-0.7
				c0.7-0.3,1.4-0.4,2-0.4c0.7,0,1.3,0.1,1.7,0.4c-0.3,0.4-0.5,0.9-0.7,1.3l5.1-0.6c-0.1,0.7-0.2,1.3-0.3,1.9
				c-0.1,0.6-0.5,1.1-1.1,1.6h-5c-0.7,1.8-1.3,3.7-1.9,5.7s-1,4.1-1.3,6c0,0.2-0.1,0.3-0.1,0.4c0.1,0.5,0.2,0.8,0.5,0.8
				s0.6,0,0.9-0.3c0.3-0.2,0.7-0.6,1-1.1s0.6-1,0.7-1.6c0.1,0,0.2,0,0.2,0c0.1,0,0.1,0.1,0.2,0.1s0.1,0.1,0.1,0.2
				c-0.1,0.7-0.2,1.4-0.5,2.1c-0.2,0.7-0.6,1.3-1,1.8s-0.9,1-1.5,1.3C301.1,132.9,300.5,133.1,299.7,133.1z"/>
			<path d="M303.5,127.1c0.2-1,0.4-2,0.7-3c0.3-1,0.7-1.9,1.2-2.7s1-1.4,1.7-2c0.6-0.5,1.4-0.8,2.2-0.9c1-0.1,1.9,0,2.5,0.2
				c0.7,0.2,1.1,0.6,1.5,1c0.3,0.4,0.5,1,0.6,1.5c0.1,0.6,0,1.1-0.1,1.7c-0.1,0.6-0.4,1.2-0.7,1.7c-0.3,0.6-0.6,1-1,1.4
				c-0.7,0.7-1.5,1.2-2.4,1.3c-0.9,0.2-1.8,0.2-2.8,0.1c0,0.7,0.1,1.2,0.5,1.6c0.3,0.4,0.8,0.7,1.3,0.9s1.1,0.2,1.7,0.1
				c0.6-0.1,1.2-0.2,1.8-0.5c0.6-0.3,1.1-0.6,1.6-1.1s0.8-1,1-1.6c0.1,0,0.2,0,0.2,0c0.2,0,0.2,0.1,0.3,0.3
				c-0.1,1.3-0.5,2.4-1.2,3.3c-0.7,0.9-1.5,1.5-2.4,1.9s-1.9,0.6-2.9,0.6s-1.9-0.3-2.8-0.8c-0.8-0.5-1.5-1.1-1.9-2
				C303.4,129.5,303.3,128.4,303.5,127.1z M310.5,124.4c0.2-0.3,0.4-0.7,0.5-1s0.1-0.6,0-0.9c0-0.3-0.2-0.5-0.3-0.7
				c-0.2-0.2-0.3-0.3-0.6-0.3c-0.2,0-0.4,0-0.6,0.1s-0.5,0.3-0.7,0.6s-0.5,0.7-0.8,1.2s-0.5,1.2-0.8,2.1c0.6,0.1,1.2,0.1,1.8,0
				C309.6,125.3,310.1,125,310.5,124.4z"/>
			<path d="M327.3,112.4c1.7,0.2,3,0.8,3.9,1.8s1.6,2.3,1.9,3.7c0.2,0.8,0.3,1.6,0.3,2.4c0,0.8,0,1.7-0.1,2.5s-0.3,1.7-0.5,2.5
				s-0.5,1.6-0.8,2.3c-0.4,0.9-0.8,1.7-1.4,2.6c-0.6,0.9-1.2,1.6-2,2.3s-1.6,1.2-2.5,1.6c-0.9,0.4-1.9,0.6-2.9,0.5
				c-0.8,0-1.5-0.1-2.1-0.4c-0.6-0.3-1-0.7-1.4-1.1c-0.4-0.5-0.6-1-0.8-1.6c-0.2-0.6-0.2-1.2-0.2-1.9s0.1-1.3,0.3-2
				c0.2-0.7,0.4-1.3,0.8-1.8c-0.7-0.7-1.2-1.5-1.4-2.3c-0.2-0.8-0.3-1.7-0.2-2.7c0.1-1.1,0.4-2.1,1-3.2c0.5-1.1,1.2-2,2-2.8
				s1.7-1.4,2.8-1.9C325.1,112.4,326.2,112.3,327.3,112.4z M326.2,125.9c0,0.1-0.1,0.3-0.1,0.4c0,0.2-0.1,0.4-0.2,0.6
				c-0.1,0.2-0.2,0.4-0.4,0.6c-0.2,0.2-0.4,0.3-0.6,0.4c-0.4-0.1-0.8-0.2-1.2-0.3c-0.3-0.1-0.7-0.3-1.1-0.4c-0.1,0.3-0.1,0.6-0.2,1
				s-0.1,0.8-0.1,1.2s0.1,0.7,0.3,1c0.2,0.3,0.5,0.5,0.9,0.6c0.6,0.1,1.2-0.1,1.8-0.4c0.6-0.3,1.1-0.8,1.6-1.3s0.9-1.1,1.3-1.7
				c0.4-0.6,0.7-1.2,0.9-1.6c0.3-0.6,0.5-1.3,0.7-2s0.3-1.3,0.4-2c0.2-1.5,0-2.7-0.4-3.6c-0.4-0.9-1-1.5-1.7-1.8s-1.5-0.4-2.4-0.2
				s-1.6,0.5-2.3,1.1c-0.7,0.6-1.2,1.3-1.6,2.2s-0.4,1.9-0.2,3.1c0.2-0.3,0.5-0.7,0.8-1.1c0.3-0.4,0.6-0.9,0.9-1.3
				c0.3-0.4,0.6-0.8,1-1.2c0.3-0.4,0.7-0.7,0.9-0.8c0.3-0.1,0.5-0.1,0.8,0c0.3,0,0.5,0.1,0.8,0.2c0.2,0.1,0.4,0.3,0.6,0.5
				s0.3,0.4,0.4,0.7c0,0.1,0,0.1,0,0.3c-0.5,0.4-1,0.8-1.3,1.1s-0.7,0.7-1,1.1c-0.3,0.4-0.6,0.8-0.9,1.2s-0.6,0.9-0.9,1.4
				c0.3,0.3,0.8,0.5,1.3,0.6C325.3,125.8,325.8,125.9,326.2,125.9z"/>
			<path d="M336.8,118.7c0.3-0.1,0.7-0.1,1.1-0.1s0.8,0,1.1,0.1c0.3,0.1,0.7,0.2,0.9,0.3c0.3,0.1,0.4,0.2,0.5,0.4
				c-0.6,1-1,1.8-1.4,2.7c-0.4,0.8-0.7,1.6-1,2.3s-0.5,1.5-0.6,2.2s-0.2,1.5-0.3,2.3l0,0c0,0.6,0.1,1,0.4,1.1
				c0.3,0.2,0.6,0.2,0.9,0.1c0.4-0.1,0.7-0.4,1.1-0.7c0.4-0.4,0.7-0.8,1-1.3c0.1-0.9,0.3-1.9,0.6-2.9c0.3-1,0.5-1.9,0.8-2.8
				c0.3-0.8,0.6-1.6,0.9-2.2c0.3-0.6,0.5-1.1,0.7-1.4c0.3-0.1,0.7-0.1,1.1-0.1s0.8,0,1.1,0.1c0.3,0.1,0.7,0.2,0.9,0.3
				c0.3,0.1,0.4,0.2,0.5,0.4c-0.6,1-1,1.8-1.4,2.7c-0.4,0.8-0.7,1.6-1,2.3s-0.5,1.5-0.6,2.2s-0.2,1.5-0.3,2.3l0,0
				c0,0.7,0.1,1.1,0.4,1.2c0.3,0.1,0.6,0.1,0.9-0.1c0.3-0.2,0.7-0.6,1.1-1.1s0.6-1.1,0.8-1.7c0.1,0,0.2,0,0.2,0c0.1,0,0.1,0,0.2,0.1
				c0.1,0,0.1,0.1,0.1,0.2c-0.1,0.7-0.2,1.4-0.5,2.1c-0.2,0.7-0.6,1.3-1,1.8s-0.9,1-1.5,1.3s-1.3,0.5-2,0.5s-1.2-0.3-1.6-0.8
				c-0.3-0.5-0.5-1.2-0.6-2.1c-0.2,0.3-0.4,0.6-0.6,0.9c-0.2,0.3-0.5,0.6-0.8,0.8l0,0c-0.4,0.3-0.8,0.6-1.3,0.8s-1.1,0.3-1.8,0.3
				c-0.8,0-1.3-0.3-1.7-0.9c-0.3-0.6-0.5-1.4-0.5-2.4s0.1-2,0.4-3.2s0.6-2.3,0.9-3.3c0.3-1.1,0.7-2,1-2.8
				C336.3,119.6,336.6,119,336.8,118.7z"/>
			<path d="M352.1,118.9c0.1,0.1,0.2,0.1,0.4,0.1c0.2,0,0.4,0,0.6,0s0.5,0,0.7-0.1c0.2,0,0.4-0.1,0.6-0.1c0.3-0.1,0.6-0.1,1,0
				s0.6,0.3,0.9,0.4c0.3,0.2,0.5,0.4,0.8,0.6c0.2,0.2,0.4,0.4,0.4,0.5c-0.5,0.8-0.9,1.6-1.3,2.2c-0.4,0.7-0.7,1.3-1,1.9
				c-0.3,0.6-0.5,1.3-0.7,2s-0.3,1.4-0.3,2.3c0,0.6,0.2,1,0.5,1.1s0.7,0.1,1.1-0.2c0.4-0.2,0.8-0.6,1.2-1.1c0.4-0.5,0.7-1,0.9-1.7
				c0.1,0,0.2,0,0.2,0c0.2,0,0.2,0.1,0.3,0.3c-0.1,0.5-0.2,1.1-0.4,1.6c-0.2,0.5-0.4,1-0.7,1.5c-0.3,0.5-0.7,1-1.3,1.5
				c-0.4,0.3-0.8,0.6-1.3,0.8s-1.1,0.3-1.7,0.3c-0.7,0-1.2-0.2-1.5-0.6c-0.3-0.4-0.6-0.9-0.6-1.5c-0.1-0.6-0.1-1.4,0-2.2
				s0.3-1.7,0.5-2.5c0.2-0.9,0.5-1.7,0.8-2.6c0.3-0.9,0.6-1.6,0.9-2.3c-0.3,0-0.7,0.1-1,0c-0.3,0-0.7-0.1-1-0.2
				c-0.3,0.7-0.6,1.5-1,2.4c-0.4,1-0.8,1.9-1.3,2.9s-1,2-1.6,2.9s-1.2,1.7-1.8,2.3c-0.3,0-0.5-0.1-0.7-0.2c-0.2-0.1-0.3-0.2-0.4-0.3
				s-0.2-0.4-0.1-0.6c0.3-0.2,0.7-0.6,1.2-1.1c0.4-0.6,0.9-1.3,1.3-2.2s0.9-2,1.3-3.2s0.7-2.5,1-4c-0.4-0.4-0.6-0.9-0.6-1.3
				c0-0.4,0.1-0.8,0.3-1.1c0.2-0.3,0.5-0.6,0.9-0.8s0.7-0.3,1.1-0.2c0.4,0,0.7,0.2,1,0.6C351.8,117.7,352,118.2,352.1,118.9z"/>
		</g>
		<g>
			<path d="M222,142.7c0.5,0,1,0.1,1,0.5c0,0.3-0.1,0.7-0.6,1.2l-3.1,3.5c-0.5,0.6-0.7,1.6-0.6,2.4l5.5,42.5h0.3l4.8-42.5
				c0.1-0.9-0.1-1.7-0.6-2.2l-3.7-3.7c-0.3-0.3-0.7-0.7-0.7-1.2c0-0.3,0.3-0.5,1-0.5h15.1c0.5,0,0.9,0.1,0.9,0.5
				c0,0.5-0.3,0.9-0.7,1.3l-3.8,3.8c-0.3,0.3-0.5,1.1-0.3,2l5.9,42.3h0.3l4.7-42.5c0.1-1,0-1.8-0.3-2.2l-3.7-3.7
				c-0.3-0.3-0.6-0.7-0.6-1.2c0-0.3,0.6-0.5,1.1-0.5h15.3c0.5,0,0.9,0.1,0.9,0.5c0,0.5-0.3,0.9-0.5,1.1l-4.1,4.3
				c-0.6,0.7-1,1.8-1.1,2.8l-8.9,80.6c0,0.5-0.3,0.7-1,0.7H241c-0.5,0-0.9-0.3-1-0.7l-7.8-56.4h-0.3l-6.3,56.4c0,0.5-0.3,0.7-1,0.7
				h-3.5c-0.5,0-0.9-0.3-1-0.7l-10.6-80.6c-0.1-1-0.6-1.9-1.3-2.8l-3.2-4c-0.5-0.6-0.9-1-0.9-1.5c0-0.3,0.5-0.5,1-0.5L222,142.7
				L222,142.7z"/>
			<path d="M267,151.3c0-1.5-0.3-2.5-1.1-3.4l-3.6-3.5c-0.3-0.3-0.9-0.7-0.9-1.1c0-0.3,0.3-0.7,0.7-0.7h18.8c0.5,0,0.7,0.3,0.7,0.7
				c0,0.3-0.6,0.7-0.9,1.1l-3.6,3.5c-0.9,0.9-1.1,1.9-1.1,3.4V224c0,1.5,0.3,2.5,1.1,3.4l3.6,3.5c0.3,0.3,0.9,0.7,0.9,1.1
				c0,0.3-0.3,0.7-0.7,0.7H262c-0.5,0-0.7-0.3-0.7-0.7c0-0.3,0.6-0.7,0.9-1.1l3.6-3.5c0.9-0.9,1.1-1.9,1.1-3.4L267,151.3L267,151.3z
				"/>
			<path d="M289.5,151.3c0-1.5-0.3-2.4-1.1-3.4l-3-3.5c-0.3-0.3-0.9-0.7-0.9-1.2c0-0.3,0.3-0.6,0.7-0.6h14.4c0.9,0,1.2,0.9,1.5,2
				l11,51.6h0.3v-45c0-1.5-0.3-2.4-1.1-3.2l-3.4-3.6c-0.3-0.3-0.9-0.7-0.9-1.2c0-0.3,0.3-0.6,0.7-0.6h15.9c0.5,0,0.7,0.3,0.7,0.6
				c0,0.5-0.5,0.9-0.9,1.2l-3,3.5c-0.7,1-1.1,1.9-1.1,3.4v80c0,0.9-0.3,1.3-1.2,1.3h-5c-1.1,0-2-1.2-2.4-3l-14-65.4h-0.3v59.7
				c0,1.5,0.3,2.4,1.2,3.2l3.2,3.6c0.3,0.3,0.9,0.7,0.9,1.2c0,0.3-0.3,0.6-0.7,0.6h-15.9c-0.5,0-0.7-0.3-0.7-0.6
				c0-0.5,0.6-0.9,0.9-1.2l3-3.5c0.7-1,1.1-1.9,1.1-3.4L289.5,151.3L289.5,151.3z"/>
			<path d="M342.1,183.8h2.6c0.6,0,1.1-0.3,1.3-0.9l4.2-8.4c0.3-0.5,0.3-0.7,0.7-0.7c0.3,0,0.5,0.3,0.5,0.7v25.4
				c0,0.3-0.1,0.6-0.5,0.6c-0.5,0-0.6-0.3-0.9-0.9l-4.1-8.8c-0.3-0.6-0.7-0.9-1.3-0.9H342v36.5h6.9c1.6,0,2.8-0.7,3.2-2.2l6.5-23.1
				c0.1-0.5,0.5-0.7,0.9-0.7c0.3,0,0.6,0.3,0.6,0.7v30.1c0,0.6-0.3,1.1-1,1.1h-31c-0.5,0-0.7-0.3-0.7-0.7c0-0.3,0.6-0.6,0.9-1.1
				l3.6-3.5c0.9-0.9,1.1-1.9,1.1-3.4v-72.7c0-1.5-0.3-2.5-1.1-3.4l-3.6-3.5c-0.3-0.3-0.9-0.7-0.9-1.1s0.3-0.7,0.7-0.7h31
				c0.5,0,1,0.5,1,1.1v29.9c0,0.5-0.3,0.7-0.6,0.7c-0.5,0-0.9-0.3-1-0.9l-6.5-22.5c-0.5-1.6-1.6-2.2-3.1-2.2H342L342.1,183.8
				L342.1,183.8z"/>
		</g>
	</g>
	<g>
		<g>
			<rect x="158.4" y="255.3" class="st1" width="247.3" height="39"/>
			<text transform="matrix(1 0 0 1 169.35 279.3)" class="st2 st3">SUN</text>
			<text transform="matrix(1 0 0 1 294.9077 278.3)" class="st2 st3">12:00 </text>
			<text transform="matrix(1 0 0 1 327.1077 278.3)" class="st4 st3">AM</text>
			<text transform="matrix(1 0 0 1 344.1077 278.3)" class="st2 st3"> - 7:00 </text>
			<text transform="matrix(1 0 0 1 378.3077 278.3)" class="st4 st3">PM</text>
		</g>
		<g>
			<rect x="158.4" y="294.3" class="st1" width="247.3" height="39"/>
			<text transform="matrix(1 0 0 1 169.35 318.3)" class="st2 st3">MON</text>
			<text transform="matrix(1 0 0 1 358.2905 317.3)" class="st2 st3">Closed</text>
		</g>
		<g>
			<rect x="158.4" y="333.3" class="st1" width="247.3" height="39"/>
			<text transform="matrix(1 0 0 1 169.35 357.3)" class="st2 st3">TUE</text>
			<text transform="matrix(1 0 0 1 306.4394 356.3)" class="st2 st3">By Appointment</text>
		</g>
		<g>
			<rect x="158.4" y="372.3" class="st1" width="247.3" height="39"/>
			<text transform="matrix(1 0 0 1 169.35 396.3)" class="st2 st3">WED</text>
			<text transform="matrix(1 0 0 1 306.4394 395.3)" class="st2 st3">By Appointment</text>
		</g>
		<g>
			<rect x="158.4" y="411.3" class="st1" width="247.3" height="39"/>
			<text transform="matrix(1 0 0 1 169.35 435.3)" class="st2 st3">THU</text>
			<text transform="matrix(1 0 0 1 306.4394 434.3)" class="st2 st3">By Appointment</text>
		</g>
		<g>
			<rect x="158.4" y="450.3" class="st1" width="247.3" height="39"/>
			<text transform="matrix(1 0 0 1 169.35 474.3)" class="st2 st3">FRI</text>
			<text transform="matrix(1 0 0 1 294.9077 473.3)" class="st2 st3">12:00 </text>
			<text transform="matrix(1 0 0 1 327.1077 473.3)" class="st4 st3">AM</text>
			<text transform="matrix(1 0 0 1 344.1077 473.3)" class="st2 st3"> - 7:00 </text>
			<text transform="matrix(1 0 0 1 378.3077 473.3)" class="st4 st3">PM</text>
		</g>
		<g>
			<rect x="158.4" y="489.3" class="st1" width="247.3" height="39"/>
			<text transform="matrix(1 0 0 1 169.35 513.3)" class="st2 st3">SAT</text>
			<text transform="matrix(1 0 0 1 294.9077 512.3)" class="st2 st3">12:00 </text>
			<text transform="matrix(1 0 0 1 327.1077 512.3)" class="st4 st3">AM</text>
			<text transform="matrix(1 0 0 1 344.1077 512.3)" class="st2 st3"> - 7:00 </text>
			<text transform="matrix(1 0 0 1 378.3077 512.3)" class="st4 st3">PM</text>
		</g>
	</g>
</g>
</svg>
