<?xml version="1.0" encoding="utf-8"?>
<!-- Generator: Adobe Illustrator 20.0.0, SVG Export Plug-In . SVG Version: 6.00 Build 0)  -->
<svg version="1.1" id="Layer_1" xmlns="http://www.w3.org/2000/svg" xmlns:xlink="http://www.w3.org/1999/xlink" x="0px" y="0px"
	 viewBox="0 0 96 96" style="enable-background:new 0 0 96 96;" xml:space="preserve">
<style type="text/css">
	.st0{fill:#FFFFFF;}
</style>
<path class="st0" d="M90.6,44.2c-2.5-7-5.3-9.5-11.4-9.2c-1.6,0.1-3.4,0.4-5.5,0.9c-0.2-1.8-0.3-3.5,0.1-5.2
	c0.2-0.9,0.5-1.9,1.1-2.8c3.1-5,2.5-10.9-1.2-15.3C69.9,8,65.1,7.3,58.9,8.1c-4.6,0.6-9.6,0.4-14.2-1.8c-2.4-2.4-7.5-3.6-11.6-2
	c0,0-1.6,0.6-2.1,1.1c-2.9,2.3-5.8,2.6-9.7,2.2c-9.9-1-16.7,10.8-11.8,19.9c1.3,2.3,1.7,4.6,1.7,7.1c0,14.3,0.1,28.6-0.1,42.9
	c-0.1,7.4,2.1,13,9.4,15.8h43c7.2-2.4,9.7-7.6,9.7-14.2c0-0.6,0-1.2,0-1.8c-0.2-3,0.3-4.5,3.7-5.5c0.6-0.2,1-0.3,1.5-0.5h0
	c6.8-2.8,8.5-9,10.6-15.6C91.8,48.6,90.6,44.2,90.6,44.2z M34.4,41.7c-3,0-5.1,0-6.4,0.3l-2.8,19.7c0,3.8,0,7.7,0,11.5
	c0,4.5-0.1,8.9,3.2,12.7c-2.9,0.4-5,0.5-6.6,0c-2.7-0.8-3.5-3.2-3.6-7.8c0-13.4,0-26.8,0-40.2c0-2.4,0.8-2.5,3.1-3.4
	c2.7-1.1,5.3-1.2,7.9-0.9c4,0.3,7.8,1.5,11.8,0.7C41.3,41.5,41.1,41.7,34.4,41.7z M63.9,41.8c-4.4,0-3-3.4-3.3-5.4
	c-0.6-3.6,2.5-1.2,3.7-1.6c3.5-1.2,1.6,1.9,2.2,3C66.3,39.8,67.3,41.8,63.9,41.8z M68.9,24.8c-0.3,0.5-0.6,0.9-0.9,1.2
	c-1.5,1.7-3.7,2.2-6.3,1.7c-5-0.9-8.3,2.1-7.9,7.4c0.4,6.1,1.7,12.1,2.2,18.2c0.4,4.9-2.8,7-7.5,5.3c-2.4-0.8-3-2.2-2.7-8
	c0.6-3.9,1.6-9,2.2-14.2c1-7.2-2-10-9-8.6c-2.2,0.4-4.3,0.1-5.9-1.2c-1-0.7-1.8-1.1-2.6-1.3c-1.5-0.3-3,0.2-4.7,1.3
	c-4,2.5-8.7,1.2-10.2-2.5c-1.1-2.7-0.9-5.3,0.9-7.6c2-2.3,4.7-2.9,7.3-1.8c3.1,1.3,5.1,1,7.5-1.4c0.3-0.2,0.5-0.5,0.8-0.7
	c3.3-2.8,7.3-2.5,10.8,0.5c1.9,1.7,3.6,2.4,6,1.5c1.5-0.6,3.3-0.6,4.8,0.1c0.2,0.1,0.4,0.2,0.6,0.3c2.2,0.9,4.3,0.5,6.6-0.3
	c2.8-1,5.7-0.5,7.6,2.1C70.3,19.4,70.5,22.2,68.9,24.8z M77.9,64.1c-1,0.9-2.2,2-3.5,1.6c-1.8-0.5-0.8-2.2-0.9-3.4
	c-0.2-2.5-0.1-5-0.1-7.5V48c0-4.2,2.4-6.4,6.6-6.3c1.8,0,2.7,1,3.2,2.5C84.9,49.5,82,60.7,77.9,64.1z"/>
</svg>
