<?xml version="1.0" encoding="utf-8"?>
<!-- Generator: Adobe Illustrator 20.0.0, SVG Export Plug-In . SVG Version: 6.00 Build 0)  -->
<svg version="1.1" xmlns="http://www.w3.org/2000/svg" xmlns:xlink="http://www.w3.org/1999/xlink" x="0px" y="0px"
	 viewBox="0 0 612 792" enable-background="new 0 0 612 792" xml:space="preserve">
<g id="Layer_2">
	<polygon fill="#CB2027" points="121.9,336 146.7,406.7 159.7,428.3 163.5,433.5 173.3,442 184.3,449.8 200.2,455 210,455 215,455 
		224.7,452.2 232.2,447.8 241.2,441.2 247.3,433.7 250.2,426.7 254,415.3 256.5,405.7 256.5,398.5 249,378 246.8,371.5 253.7,365.5 
		259.8,362 268.5,359.8 271,358 274,331.4 264.3,335.2 259.7,337.8 250.3,341.8 237.3,345.3 227.7,348.2 216,349 199.2,349.3 
		184.3,348.2 174.2,348.5 153.7,345.2 135,340.5 	"/>
	<polygon fill="#CB2027" points="124,334.8 138.3,327.7 161.3,321 181.5,317.2 206.8,316.5 221.7,316.5 238.2,319.5 256.2,323.5 
		272.7,329.2 259.7,337.8 257.8,336.2 251.2,333.7 241,330.5 230.5,328.7 215.7,327.2 198.3,327.2 179.5,329.2 162.7,331.4 
		146.2,336 138.3,337.8 132.7,339.7 126.7,339.7 	"/>
	<path fill="#CB2027" d="M276.2,329.5c0,0,11.8-6.2,20.3,3.7c8.5,9.8,1.8,19,1.8,19l-7.7,1l2.8-11.2c0,0-3-11-14-7l-4.8,3.5
		l-4.3,1.9L276.2,329.5z"/>
	<polygon fill="#CB2027" points="256.5,405.7 252,418.8 256.5,420 260.3,420 262.2,418.5 261.2,414.7 258.2,406 	"/>
	<path fill="#2C150E" d="M133.5,338.1c0,0,82.2-22.6,126.9-1.8L247,343l-27.4,5.8l-22.6,0.4l-24.7-1.8l-18.5-2.2l-21-5.5
		L133.5,338.1z"/>
</g>
<g id="Layer_5">
	<line fill="#B2252D" x1="253.7" y1="421.4" x2="270.3" y2="349.2"/>
	<path opacity="0.9" fill="#B2252D" d="M270.3,349.2c0,0-30.7,7.4-38.7,21.1c0,0,0.2,17.8,23.9,51.1"/>
	<path fill="#B2252D" d="M145,405.7"/>
</g>
<g id="Layer_3">
	<polygon fill="#CB2027" points="248.4,371.5 252,366.9 258.5,362.8 274,358.2 290.7,353.2 322.5,349.8 348.5,350.8 365.3,353.2 
		386.8,358 399.2,362.5 402.5,365.3 398.2,368.8 392.8,371.5 385.7,368.5 366.8,363.7 351.5,361.5 333.9,360.7 318.5,360.7 
		304.5,362.3 287.3,365.2 272.7,369.3 262.2,373.5 256,375.7 	"/>
	<polygon fill="#CB2027" points="248.7,368.8 247.5,371.9 249,378 255,394.9 265.4,426 270.3,442.3 277.9,458.8 284.8,471.2 
		294.3,479.8 301.5,484.5 312.2,489.7 328.3,492.8 340.8,492.8 349.2,490 356.5,486.8 362.7,482.7 369.8,477.2 376.8,469.2 
		382.7,455.8 387.3,439.8 392.7,410 399,379.3 402.5,367 392.8,371.5 378.8,377.8 355.3,383.2 340.1,385 322,386 304,385.2 
		285.6,383.2 274,381 265.7,378.8 258,375.7 	"/>
	<path fill="#2C150E" d="M258.3,374c0,0,35.2-13.8,60.2-13.3c0,0,25.9,0.1,39.2,2.1c13.3,2,29.6,6.4,29.6,6.4l5.5,2.4l-14,6.3
		l-33.7,6.6l-29.4,1.3l-22.5-1.7l-23.6-4.1l-13.6-4.2L258.3,374z"/>
	<path fill="#CB2027" d="M399.7,373.2l6.8-2.9h7.6l7.4,5.4l4.5,5.6l3.5,11.1c0,0,3.4,20.9-8.2,36s-35.1,18.8-35.1,18.8l3.6-15.2
		l8.4-0.4l9.9-5.7l6.3-8.1l3.1-9.5l0.6-12.2l-3.4-9.3l-3.1-2.4l-4.1-1.1l-6.9,0.8l-1.9,1.8l-1.9-0.3L399.7,373.2z"/>
</g>
<g id="Layer_4">
	<polygon fill="#CB2027" points="372.2,323.3 391.3,316.2 414.5,310.2 438.3,306.8 456.8,305.7 476.3,306.5 495,308.5 517,313.3 
		523.3,315.8 518.8,320.2 510.2,324.3 504.7,325.3 491.7,321.5 468.2,317.5 442.2,316.8 418,319 406.5,321.8 396,325.3 389.3,330.7 
		373.8,327 	"/>
	<path fill="#CB2027" d="M372.2,327.5l10.8,26.3l17.8,51.7l7.2,16.3c0,0,8.1,18.2,39.6,19.2s45.2-20.8,45.2-20.8l8.8-14.8l10.2-29
		l7.5-33.7l4-26.8l-22.2,11.5c0,0-32,8.3-50.2,8.3s-41.2,0.3-55.7-3.8C380.8,327.7,372.2,327.5,372.2,327.5z"/>
	<path fill="#CB2027" d="M521.4,333.8l6.6-5.5l7.1-1.6l7.4,2.2l6.5,4l4.8,6.9l2.5,9.6v13.5l-3.8,11.6l-7.4,11.8l-4.9,5.3l-5.8,4.8
		l-7.6,4.2l-7,2.5l-9.2,1.9l-7.9-0.5l4.2-11.1c0,0,7.5,0.9,10,0.2s10.4-1.9,16.6-8.9s10.2-14.8,10.1-17.4s2.6-16.5,1.5-18.2
		s-2.6-13.1-16.8-9.6l-9.1,6.6C519.2,345.9,520.2,334,521.4,333.8z"/>
	<path fill="#2C150E" d="M389.3,330.7c0,0,16.9-14.5,59.7-13s52.8,7.9,52.8,7.9s-14.2,9-55.7,10.2
		C404.6,336.9,395.5,330.1,389.3,330.7z"/>
	<g>
		<path fill="#461D12" d="M270.8,375.6c8.5-3.2,17.4-5.5,26.3-7.3c4.5-0.9,9-1.6,13.5-2.1c4.5-0.6,9.1-0.9,13.6-1.1
			c4.6-0.2,9.1-0.2,13.7,0c4.6,0.2,9.1,0.6,13.6,1.3c4.5,0.6,9,1.5,13.4,2.7l3.3,0.9l3.3,1c2.2,0.6,4.3,1.5,6.4,2.3
			c-4.3-1.4-8.7-2.8-13.1-3.8c-4.4-1-8.9-1.9-13.4-2.4c-2.2-0.3-4.5-0.5-6.8-0.7c-2.3-0.1-4.5-0.3-6.8-0.4
			c-4.5-0.2-9.1-0.1-13.6,0.1c-9.1,0.3-18.1,1.5-27,3c-4.5,0.8-8.9,1.8-13.3,2.8C279.5,372.9,275.2,374.2,270.8,375.6z"/>
	</g>
	<g>
		<path fill="#461D12" d="M292,376c5.3-2,10.8-3.5,16.4-4.6c5.6-1.1,11.2-1.8,16.9-2c5.7-0.3,11.4,0,17,0.8
			c5.7,0.7,11.1,2.3,16.5,4.3l-4.1-1.2c-0.7-0.2-1.4-0.4-2-0.6l-2.1-0.4c-1.4-0.3-2.8-0.6-4.1-0.9l-4.2-0.6
			c-5.6-0.7-11.3-1-16.9-0.7c-5.7,0.2-11.3,0.9-16.9,1.9c-2.8,0.5-5.6,1.1-8.3,1.8C297.5,374.4,294.7,375.1,292,376z"/>
	</g>
	<g>
		<path fill="#461D12" d="M317,374.5c2.7-1,5.6-1.5,8.5-1.7c1.4-0.1,2.9,0,4.3,0.2c1.4,0.2,2.8,0.6,4.2,1.1c-1.4-0.4-2.8-0.8-4.2-1
			c-1.4-0.2-2.9-0.2-4.3-0.2c-1.4,0.1-2.9,0.2-4.3,0.5C319.8,373.7,318.4,374,317,374.5z"/>
	</g>
	<g>
		<path fill="#461D12" d="M163.5,338.9c5.3-2,10.7-3.4,16.2-4.5c5.5-1.1,11.1-1.7,16.7-2c5.6-0.3,11.3,0,16.8,0.8
			c5.6,0.7,11,2.3,16.3,4.2l-4-1.2c-0.7-0.2-1.3-0.4-2-0.6l-2.1-0.4c-1.4-0.3-2.7-0.6-4.1-0.9l-4.2-0.6c-5.5-0.6-11.1-1-16.7-0.6
			c-5.6,0.2-11.2,0.9-16.7,1.9c-2.8,0.5-5.5,1.1-8.2,1.8C168.8,337.2,166.1,338,163.5,338.9z"/>
	</g>
	<g>
		<path fill="#461D12" d="M176.5,339.2c3.3-1.2,6.7-2.1,10.1-2.8c3.4-0.7,6.9-1.1,10.4-1.3c3.5-0.2,7,0,10.5,0.5
			c3.5,0.4,6.9,1.4,10.1,2.6l-2.5-0.8c-0.4-0.1-0.8-0.3-1.3-0.4l-1.3-0.3c-0.9-0.2-1.7-0.4-2.6-0.6l-2.6-0.4
			c-3.5-0.4-7-0.6-10.4-0.4c-3.5,0.1-7,0.5-10.4,1.2c-1.7,0.3-3.4,0.7-5.1,1.1C179.9,338.1,178.2,338.6,176.5,339.2z"/>
	</g>
	<g>
		<path fill="#461D12" d="M191.9,338.2c1.7-0.6,3.4-0.9,5.2-1c0.9,0,1.8,0,2.7,0.1c0.9,0.1,1.7,0.4,2.6,0.7
			c-0.8-0.3-1.7-0.5-2.6-0.6c-0.9-0.1-1.8-0.2-2.6-0.1C195.4,337.3,193.6,337.6,191.9,338.2z"/>
	</g>
	<g>
		<path fill="#461D12" d="M412.8,328.1c4.8-1.8,9.7-3.1,14.8-4.1c5-1,10.1-1.6,15.2-1.8c5.1-0.3,10.3,0,15.3,0.7
			c5.1,0.6,10,2.1,14.8,3.9l-3.7-1.1c-0.6-0.2-1.2-0.4-1.8-0.6l-1.9-0.4c-1.2-0.3-2.5-0.6-3.7-0.8l-3.8-0.5
			c-5.1-0.6-10.2-0.9-15.3-0.6c-5.1,0.2-10.2,0.8-15.2,1.7c-2.5,0.5-5,1-7.5,1.6C417.7,326.6,415.3,327.3,412.8,328.1z"/>
	</g>
	<g>
		<path fill="#461D12" d="M424.7,328.3c3-1.1,6.1-1.9,9.2-2.5c3.1-0.6,6.3-1,9.5-1.2c3.2-0.2,6.4,0,9.6,0.5c3.2,0.4,6.3,1.3,9.2,2.4
			l-2.3-0.7c-0.4-0.1-0.8-0.2-1.1-0.3l-1.2-0.3c-0.8-0.2-1.5-0.4-2.3-0.5l-2.4-0.4c-3.2-0.4-6.3-0.5-9.5-0.3c-3.2,0.1-6.3,0.5-9.5,1
			c-1.6,0.3-3.1,0.6-4.7,1C427.8,327.4,426.2,327.8,424.7,328.3z"/>
	</g>
	<g>
		<path fill="#461D12" d="M438.8,327.4c1.5-0.6,3.1-0.9,4.8-0.9c1.6-0.1,3.3,0.1,4.8,0.7c-0.8-0.2-1.6-0.5-2.4-0.5
			c-0.8-0.1-1.6-0.1-2.4-0.1C441.9,326.6,440.3,326.9,438.8,327.4z"/>
	</g>
</g>
<g id="Layer_1">
	<g id="Merry_Wives_Menu_Logo">
		<desc  xmlns:shape="http://adobe.com/products/shape"></desc>
		<path fill="#010101" d="M513.9,405c-5.2,0.7-11.4,1.2-13.6,5.9c-7.2,14.6-20.8,25.8-36.5,30.1c-15.7,4.3-33.2,1.6-46.8-7.3
			c-3.9,12.3-27.6,7-31.4,19.4c-5.6,18.3-20.9,33.4-39.3,38.7c-18.4,5.3-39.4,0.7-53.9-11.8c-17.2-14.9-24.1-38.2-30.1-60.2
			c-2.8,0.5-5.7,1-8.6,1.5c-5.7,20-25.6,35.1-46.4,35c-20.2-0.1-38.6-13.1-50.3-29.5c-11.8-16.4-18-36-24.1-55.3
			c-3.5-11-6.9-22-10.4-32.9c-0.3-0.9-0.5-1.7-0.5-2.6c0.2-2.3,2.7-3.8,4.9-4.8c46.1-21,101.1-21.8,147.9-2c6-4.1,14.7-3.9,20.4,0.7
			c5.7,4.5,8,12.9,5.4,19.7c27.3-3.9,55.4-2,81.8,5.6c-4-10.6-8.1-21.2-12.2-31.8c48.5-21.5,104.8-24.6,155.3-8.5
			c-1,5.6-2,11.2-3,16.9c6.1-7.4,18.4-7,25.7-0.8c7.3,6.2,10,16.4,9.6,25.9C556.8,380.3,537.3,401.8,513.9,405 M261.1,417.7
			c-0.8-2.6-1.6-5.3-2.4-8c-0.3-0.9-0.6-1.9-1.3-2.6c-0.9,4-1.9,7.9-3.2,11.7C256.5,418.8,258.9,418.4,261.1,417.7 M429.4,387.4
			c4.4,15,0.9,32-9.3,43.9c-0.8,0.9,0.4,2.3,1.5,2.8c8.6,4.6,18.8,5.1,28.6,4.7c7.7-0.4,15.5-1.4,22.7-4.4
			c10.4-4.4,18.7-13.1,24.4-22.9c5.8-9.8,9.3-20.7,12.3-31.7c5.4-19.7,9.4-39.9,12-60.2c-3.5,3.1-8,4.7-12.4,6.2
			c-43.4,14-91,14.9-134.8,2.3c2.2,6.7,4.6,13.4,7.2,20c1.1,2.7,2.3,5.6,4.5,7.5c2.2,1.9,5.1,2.7,8,3.5c2.8,0.7,5.8,1.6,7.8,3.7
			s2.9,5.7,0.9,7.9c5.3-2.9,12.2-1.8,17,1.9C424.7,376,427.7,381.6,429.4,387.4 M278.9,383c-10.8-1.9-22-4.4-30.5-11.5
			c6.9,21.1,13.8,42.1,20.7,63.2c4.4,13.3,8.9,27,18.3,37.4c8.2,9.1,19.5,15,31.4,17.8c14.9,3.4,31.5,1.7,43.9-7.3
			c9.8-7.1,16.2-18.1,20.1-29.6c3.9-11.5,5.4-23.6,7.5-35.5c2.8-16.5,6.3-32.8,10.6-48.9c-18.2,10.3-38.8,15.8-59.6,17.7
			C320.5,388.3,299.5,386.6,278.9,383 M288.3,352.1c1.6-0.3,2.2-2.2,2.5-3.7c0.8-4.3,0.9-9.5-2.6-12.1c-4-3-10.1-0.2-12.7,4.1
			c-2.5,4.3-2.7,9.6-3.7,14.5c-1,0.7-1.8-1.2-1.5-2.4c1.2-7,2.4-14.1,3.7-21.1c-8.9,4.2-17.7,8.4-27,11.6
			c-13.5,4.7-27.6,7.1-41.9,7.3c-6,0.1-11.9-0.2-17.9-0.6c-21.5-1.4-43.1-3.9-63.1-11.8c5.3,15.5,10.6,30.9,15.9,46.4
			c7.3,21.3,15.5,43.9,33.4,57.6c4.1,3.2,8.7,5.8,13.5,7.8c10.3,4.2,21.9,5.3,32.6,2.6c10.8-2.8,20.6-9.4,26.5-18.8
			c4.7-7.4,7-16.1,9.1-24.6c0.8-3,1.5-6.1,0.6-9.1c-2.8-8.4-5.6-16.9-8.3-25.4c-0.3-0.9-0.7-2-0.5-3c0-0.2,0.1-0.3,0.2-0.5
			c0.3-0.8,1-1.6,1.7-2.2C259.2,358.8,274.1,355.3,288.3,352.1 M260,375.8c37.2,11.8,78,12.4,115.6,1.7c9.1-2.6,18.1-5.9,25.4-11.9
			c0-1.6-1.9-2.6-3.5-3.1c-46.5-15.8-98.6-14.3-144.1,4.3c-2,0.8-2.3,3.8-1,5.4c1.3,1.7,3.7,2.1,5.9,1.7c2.1-0.4,4-1.5,5.9-2.4
			c7.8-4,16.4-6.1,25-7.8c33.9-6.9,70.6-8,101.9,6.8c-1.8,0.9-4,0.2-5.9-0.5c-28.7-10.3-60.3-10.8-90.4-5.4
			C282.8,366.9,270.8,370,260,375.8 M136.7,339.7c6,2.1,12.3,3.3,18.6,4.4c19.7,3.3,39.6,5.2,59.5,3.4c19.8-1.8,39.6-7.3,56.4-17.8
			c-47-18.6-101.6-16.7-147.2,5.1c2.2,2.7,6,3.7,9.4,3.3c3.5-0.3,6.7-1.7,10-2.9c5.6-1.9,11.4-3.1,17.2-4.2
			c31.3-5.8,64.4-7.7,94.4,2.9c1.2,0.4,2.5,1,2.6,2.3C218.3,324.9,175.4,326.1,136.7,339.7 M398.7,323.4c15.7-5.6,32.5-8.2,49.2-8.3
			c18.2-0.1,36.4,2.6,53.8,8.2c6.6,2.1,13.5-1.7,18.8-6.1c0.2-0.2,0.4-0.4,0.5-0.6c0.2-0.8-0.7-1.4-1.5-1.6
			c-48.1-13.8-100.9-10.5-146.9,9.2c3.5,3,8.4,3.7,13,3.1C390.1,326.7,394.4,325,398.7,323.4 M391.3,329.9
			c34.1,7.4,70,6.6,103.7-2.3c1.9-0.5,3.7-1,5.6-1.7c-24.8-7.1-51-9.2-76.5-6.2C412.5,321,400.9,323.5,391.3,329.9 M508.2,392.2
			c10.1,2.1,20.8-2.9,27.2-11c6.4-8,8.9-18.7,8.6-29c-0.1-2.8-0.4-5.7-1.9-8c-1.9-3-5.6-4.7-9.2-4.6c-3.6,0-7,1.6-9.8,4
			c-2.3,2-4.3,4.6-4.8,7.6C516.1,365.1,512.7,378.8,508.2,392.2 M387.5,444.8c13.9-0.6,27.3-8.3,34.8-20c7.5-11.7,9-27.1,3.8-40
			c-1.6-3.9-3.8-7.6-7-10.3c-3.3-2.7-7.7-4.1-11.7-3.1c-5.4,1.3-9.3,7.4-7.7,12.7c4.7-4.1,12.7-1.7,16.3,3.4
			c3.5,5.1,3.6,11.9,2.6,18.1c-1.2,7.2-3.8,14.4-8.7,19.8c-4.9,5.4-12.4,8.8-19.6,7.6C389.4,436.9,388.4,440.8,387.5,444.8
			 M542.6,341.6c3.7,4.1,4.2,10.1,3.8,15.6c-0.7,10-4.2,19.9-11,27.3c-6.8,7.3-17.1,11.7-26.9,10.1c-1.1-0.2-1.8,1.2-2.1,2.2
			c-0.7,2.2-1.3,4.4-2,6.6c12,1.7,24.6-2.5,33.8-10.5c9.1-8,14.9-19.6,16.7-31.6c1.2-7.6,0.7-15.7-3.1-22.4
			c-3.7-6.7-11.2-11.6-18.8-10.7c-7.6,0.9-14.2,8.7-12.3,16.2c2.3-3.6,6.2-6.3,10.4-6.8C535.2,336.8,539.7,338.3,542.6,341.6
			 M401.7,405c0.4,1.1,0.7,2.2,1.2,3.3c1.9,5,4.3,9.9,7.3,14.4c5.4-8.7,7.6-19.4,6-29.5c-0.3-1.9-0.8-3.9-2-5.5
			c-2-2.6-5.5-3.4-8.8-3.3c-2.3,0-4.9,0.6-6.4,2.4c-2.2,2.6-1.2,6.5-0.1,9.7C399.8,399.3,400.8,402.2,401.7,405 M405.1,426.9
			c0.8-0.5,1.6-1,2.2-1.8c0.5-0.8,0.7-1.9,0.2-2.7c-5.1-7.9-8.9-16.6-10.9-25.8c-0.7,0.7-0.9,1.8-1.1,2.8c-2,10.5-3.8,21-5.4,31.5
			C395.4,431.7,400.6,429.5,405.1,426.9 M292.1,351c2.1-0.1,4.3-0.5,6.3-1.3c1.3-5.9,0.7-12.6-3.4-17.1c-3.6-4-9.8-5.5-14.9-3.6
			c-1.4,0.5-2.8,1.4-3.6,2.7c-0.9,1.6-0.9,3.6-1.6,5.2c0.9,0.5,1.6-0.8,2.2-1.6c1.2-1.7,3.6-2,5.6-2c2.2,0,4.5,0,6.5,1.1
			c2.7,1.4,4.1,4.6,4.3,7.6C293.7,345.1,292.9,348.1,292.1,351 M390.5,328.8c0.5-0.1,0.7-0.7,0.5-1.1c-1.1,0.5-2.1,1.1-3.3,1.7
			c0.9,0.5,2.1,0.1,2.6-0.7"/>
		<path fill="#010101" d="M54.7,630c-0.2-0.2-0.6,0.2-0.4,0.4C54.5,630.6,54.9,630.2,54.7,630"/>
		<path fill="#010101" d="M358.7,536c1.7-1,3.3-2.1,5-3.1c0.4-0.3,0.9-0.6,1.4-0.5c0.5,0,1,0.5,0.9,1c-1.8,2-4,4.1-6.6,4
			c-0.6,0-1.4-0.5-1.1-1C358.4,536.2,358.5,536.1,358.7,536"/>
		<path fill="#010101" d="M424.6,161.5c0.6,3.9,0.8,7.8,0.7,11.7c0,0.9-0.6,1.7-1.4,2.1c-1.1-3.3-1.6-6.8-1.5-10.2
			C422.5,163.6,423.1,161.6,424.6,161.5"/>
		<path fill="#010101" d="M206.6,277.2c-0.9-1.1-2.7-1.4-4-0.8c-1.3,0.7-2.1,2.3-1.7,3.7c1.2,0,2.4-0.2,3.6-0.5
			c0.3,1.4-0.9,2.9-2.3,3.1c-1.4,0.2-2.9-0.8-3.5-2.1c-0.6-1.4-0.4-2.9,0.3-4.2c1-1.7,2.9-2.9,4.9-2.9c2,0,4,1,5.1,2.7
			c1.2,1.9,1.2,4.3,0.6,6.4c-0.6,2.1-1.7,4-2.7,6c-2.4,4.7-4,10.7-1.1,15.1c0.5,0.7-0.5,1.7-1.4,1.5c-0.8-0.2-1.4-1.1-1.7-1.9
			c-1.3-3-1.6-6.4-0.7-9.6c1-3.8,3.5-7.1,4.9-10.8C207.5,281.1,207.9,278.7,206.6,277.2"/>
		<path fill="#010101" d="M360.2,550.9c-1.4,0.2-2.9,0.5-3.5,1.6c-0.5,0.9-0.3,1.9,0.1,2.9c1,2.3,3.3,4.1,5.8,4.4
			c2.5,0.3,5.2-0.7,6.8-2.8c0.5-0.7,1.3-1.6,2.1-1.1c0.5,0.2,0.5,0.9,0.5,1.4c-0.4,2.6-3,4.4-5.7,4.8c-3.3,0.5-6.8-0.6-9.1-2.9
			c-2.4-2.4-3.5-6.1-2.6-9.4c0.9-3.3,4-5.9,7.5-6s6.8,2.4,7.4,5.8C366.3,550.1,363.3,550.5,360.2,550.9 M366.2,547.8
			c-0.6-1.2-1.9-1.8-3.2-1.9c-1.3,0-2.6,0.5-3.7,1.1c-0.9,0.5-1.8,1.3-1.9,2.3C360.3,549,363.3,548.5,366.2,547.8"/>
		<path fill="#010101" d="M326.6,556.4c0.9,0.7-0.2,2.2-1.4,2.5c-3,0.9-6.5-0.9-7.5-3.8c-1.1,1.7-2.7,3.3-4.6,4.1
			c-1.9,0.8-4.2,0.8-6-0.2c-1.8-1.1-2.8-3-3.3-5.1c-0.7-3.3,0.2-6.9,2.4-9.5s5.5-4.2,8.9-4.2c1,0,2.1,0.2,3,0.8
			c1.8,1.2,1.9,3.8,1.6,5.9c-0.4,2.1-1.1,4.3-0.4,6.4C320.2,556.1,323.9,557.7,326.6,556.4 M309.1,557.2c1.7,0.5,3.5-0.5,5-1.6
			c1.2-0.9,2.4-2.1,2.6-3.6c0.3-2.9,0.6-5.9,0.9-8.8c-2.1-1.5-5.1-1.3-7.2,0.1c-2.1,1.4-3.5,3.8-4.1,6.3c-0.4,1.4-0.5,3-0.1,4.4
			C306.5,555.5,307.6,556.8,309.1,557.2"/>
		<path fill="#010101" d="M343,334.8c-1.8,0.7-3.7-0.7-4.8-2.3c-2.1-3.2-2.4-7.4-1.5-11.2c0.9-3.7,2.8-7.2,4.8-10.4
			c1.2-1.8,2.4-3.7,2.6-5.8s-0.9-4.6-2.9-5.1c-0.9-0.2-1.8-0.1-2.6,0.3c-1.2,0.5-2.3,1.5-2.5,2.7c-0.2,1.3,0.7,2.7,1.9,2.8
			c1,0.1,2.5-0.4,2.8,0.6c-1.3,1.9-4.3,1.9-5.8,0.2c-1.5-1.6-1.5-4.3-0.2-6.1s3.6-2.7,5.8-2.7c0.9,0,1.8,0.2,2.6,0.5
			c2.1,1,3,3.5,3.1,5.8c0,3.2-1.3,6.1-2.9,8.9c-1.6,2.7-3.4,5.4-4.3,8.4c-1,3-0.9,6.5,1,9C341.2,331.8,343,333,343,334.8"/>
		<path fill="#010101" d="M453.1,302c-1.9,0.6-3.5-1.6-3.8-3.5c-0.9-4.4,0.8-8.9,3.2-12.6c2.4-3.7,5.5-7,7.9-10.8
			c1.6-2.3,2.8-5.6,1-7.8c-0.7-0.8-1.8-1.3-2.9-1.3c-1.8,0.1-3.4,1.8-3.2,3.5c0.3,1.8,2.6,2.9,4,1.8c0.1,1.9-2.2,3.2-4,2.6
			c-1.7-0.7-2.7-2.7-2.6-4.5c0.2-3,3-5.6,6.1-5.5c3,0.1,5.7,2.8,5.8,5.8c0,1.5-0.5,3-1.2,4.4c-1.9,3.7-4.8,6.8-7.3,10.1
			c-2.5,3.3-4.7,7.1-4.9,11.2c0,0.8,0,1.6,0.4,2.4c0.4,0.7,1,1.3,1.4,1.9C453.5,300.4,453.7,301.4,453.1,302"/>
		<path fill="#010101" d="M332,552.8c-2.3,1.6-5.5-1.8-4.4-4.3c1-2.6,4.4-3.5,7.1-2.9c-1.5-5.9-1.7-12.1-0.6-18.1
			c0.8-4,2.3-8.1,5.7-10.3s8.9-1.4,10.3,2.5c0.5,1.4,0.2,3.3-1.2,4c0.5-2.6-2.6-4.9-5.2-4.5c-2.7,0.4-4.7,2.6-5.9,5
			c-2.1,4.2-2.3,9-2.3,13.6c0.1,2.9,0.3,6.1,2.3,8.2c2,2.1,6.2,2.1,7.2-0.6c0.5-1.4,3-1,3.4,0.5c0.4,1.5-0.9,3-2.3,3.4
			c-1.4,0.5-3,0.2-4.4,0s-3.1-0.4-4.4,0.2c1.2,8.3,1.3,16.7,0.3,25c-0.5,3.8-1.3,7.9-4,10.6c-2.8,2.7-8.1,3-10.1-0.3
			c4.7,0.5,9.1-3.2,10.9-7.6c1.8-4.4,1.7-9.3,1.6-14c-0.1-3.5-0.2-7-0.3-10.5c0-1.5-0.2-3.2-1.4-4.1c-1.2-0.9-3-0.4-3.7,0.9
			C329.8,550.6,330.6,552.4,332,552.8"/>
		<path fill="#010101" d="M455.1,170.2c1.2-2.1-0.4-5.1-2.7-5.9c-2.3-0.8-4.9,0-7,1.4c-3,2.1-5.1,6.2-3.6,9.5
			c1.4,2.9,4.8,4.1,7.8,5.3c5.9,2.3,11.9,6.3,13.1,12.5c1,5.3-2.5,11.1-7.6,12.7c-5.1,1.7-11.3-1-13.6-5.9c-1.4,1.4-2.8,2.9-4.2,4.3
			c-0.4,0.4-0.8,0.8-1.4,0.9c-0.5,0.1-1.2-0.4-1.1-0.9c0-0.2,0.2-0.4,0.3-0.5c2.4-3.1,4.9-6.1,7.3-9.2c0.6-0.7,1.3-1.5,2.1-1.4
			c0.9,0,1.5,1.5,0.6,1.8c-1.2,0.4-1.8,2-1.5,3.3c0.3,1.3,1.3,2.3,2.2,3.2c0.9,0.9,2,1.6,3.1,2.2c3.6,1.6,8.2-0.3,10.1-3.7
			c1.9-3.5,1.2-8-1.2-11.1c-2.4-3.1-6.4-4.8-10.3-5c-3.7-0.2-7.1-3.1-8.2-6.8c-1.1-3.6-0.2-7.7,2.1-10.8c2.1-2.8,5.4-4.9,9-4.9
			c3.5,0.1,7,2.8,7.3,6.4c0.9-1.4,2.6-2.4,4.4-2.3c0.3,1.4-0.9,2.6-1.9,3.5c-2.4,2.1-4.8,4.3-7.3,6.4c-0.7-0.8-0.3-2,0.2-2.8
			C453.8,171.7,454.7,171.1,455.1,170.2"/>
		<path fill="#010101" d="M200.2,305.5c-3.5,0.2-6.6-2.6-8.3-5.7c-5.4-9.4-2.6-21.3,2.1-31.1c2-4,4.3-7.9,5.7-12.1s2-8.9,0.4-13.1
			c-1.6-4.2-5.7-7.5-10.2-7.3c-4.4,0.3-8.4,5-6.9,9.3c0.2,0.6,0.5,1.2,1,1.7c1.2,1.4,3.9,1.4,4.7-0.3c0.9-1.6-1.4-3.9-2.8-2.8
			c1.9-1.9,5.7-0.7,6.6,1.8c0.9,2.6-1.1,5.6-3.7,6.2c-2.6,0.7-5.5-0.7-7-3c-1.4-2.3-1.5-5.2-0.7-7.8c2.2-6.8,11.5-10.2,17.6-6.4
			c5,3.1,7,9.6,6.4,15.5c-0.6,5.9-3.4,11.3-6.2,16.5s-5.7,10.5-6.6,16.3C191,291.4,194.1,300,200.2,305.5"/>
		<path fill="#010101" d="M263.1,545.5c0.8,7.9,6.3,15.6,14.1,17.2c6.1,1.2,12.3-1.4,17.7-4.5c0.4,1.2-0.6,2.3-1.6,3
			c-7.7,6.1-20.1,4.8-26.9-2.3c-6.9-7.1-8-18.7-3.5-27.5c4.5-8.7,14.1-14.4,24-15.1c3.2-0.2,4.8-5.4,8-4.8c-0.1,1.6-1.8,2.4-3,3.4
			c-1.2,1-1.9,3.2-0.5,3.9c3.3,1.5,5,6,3.5,9.3c-0.5,1.1-1.4,2.1-2.5,2.6c-2.6,1-5.5-1.3-6.2-3.9c-0.7-2.7,0.1-5.5,0.9-8.1
			c-6.8,0.1-13.4,3.1-18,8.1C264.7,531.7,262.4,538.7,263.1,545.5 M289.2,519.5c-1.5,2.9-1.3,6.5,0.5,9.2c2.2,0.3,4.1-2.2,3.7-4.4
			C293,522.2,291.2,520.5,289.2,519.5"/>
		<path fill="#010101" d="M317.7,247.6c7.7-4.2,18.8,0.8,20.8,9.3c0.6,2.6,0.5,5.4,0.1,8c-2.6,16.8-16.8,30.5-17.4,47.5
			c-0.3,9.1,3.7,18.3,10.5,24.3c-4.8-1.2-8.3-5.4-10.3-9.9c-3.3-7.5-3-16.2-1-24.1s5.7-15.2,9.4-22.6c2.4-4.9,4.8-9.8,5.2-15.2
			c0.5-5.4-1.4-11.3-5.9-14.2c-4.5-2.9-11.8-1.4-13.6,3.7c-0.6,1.5-0.5,3.5,0.6,4.6c1.4,1.4,4,1.1,5.6-0.2c1.6-1.3,2.3-3.3,3.1-5.2
			c1.4,3.2-0.1,7.4-3.3,8.9c-3.1,1.5-7.4,0.1-8.9-3C310.6,255.2,313.5,249.8,317.7,247.6"/>
		<path fill="#010101" d="M438,291c-2.4-12.3,0.4-25.5,7.5-35.7c3.9-5.7,9.1-10.6,11.7-17c2.6-6.4,1.3-15.3-5-18
			c-4.9-2.2-11.2,0.7-13.4,5.6c-1.3,2.8-1.2,6.5,0.8,8.8c2.1,2.3,6.3,2.6,8.1,0c1.8-2.6-0.8-6.9-3.8-6.1c1-2.9,5.9-1.9,7.2,0.9
			c1.9,4.1-1.8,9.5-6.4,9.8c-4.6,0.2-8.7-4-9.1-8.5c-0.4-4.6,2.3-9.1,6.2-11.5c3.1-2,7-2.8,10.5-1.6c5.4,1.9,8.4,8.1,8.2,13.8
			c-0.2,5.7-3.1,11-6.2,15.9c-5.2,8-11.4,15.4-14,24.6c-3,10.7-0.3,22.7,7,31.1C442.1,302.4,439.1,296.4,438,291"/>
		<path fill="#010101" d="M410.2,204.9c5.8-1.1,11.7-1.8,17.6-2.2c-0.4-2,0.3-4.1,1.7-5.5c1.3,3.8,1.4,8.1,0.5,12
			c-0.3-1.9-2.1-3.3-4-3.7c-1.9-0.5-3.8-0.1-5.7,0.2c-2.8,0.5-5.7,0.9-8.5,1.4c-1.2,0.2-2.7,0.4-3.5-0.5c-0.7-0.6-0.8-1.6-0.9-2.6
			c-0.9-11-1.8-22-2.6-33.1c-1.2-1.2-3,0.8-3.5,2.5c-3.4,11.8-6.9,23.6-10.3,35.3c-0.3,0.9-1.6,1.2-2.6,0.8
			c-0.9-0.5-1.4-1.4-1.9-2.3c-5.1-9.4-9.4-19.2-12.7-29.3c-0.9-2.7-4-4.3-6.8-4.3c-2.9-0.1-5.6,1-8.3,2.1c1,10.2,2.1,20.4,3.1,30.6
			c3.1-0.2,6.3-0.4,9.4-0.6c0.5,0,1.1,0,1.4,0.3c0.8,0.9-0.8,1.9-1.9,2.1c-6.9,1-13.9,1.6-20.8,1.9c-1.5,0-3.6-1.4-2.4-2.3
			c3-0.2,6.1-0.4,9.1-0.7c1,0,2.2-0.2,2.7-1.1c0.3-0.5,0.2-1.2,0.2-1.8c-1-8.7-2-17.5-2.9-26.2c-0.2-1.4-1-3.4-2.4-2.9
			c-4.4,1.5-9.2,1.6-13.6,0.1c12.3-3.2,25.1-4.3,37.8-3.5c-0.5,1.4-2.1,2.4-3.6,2.1c3.9,11.5,8.7,22.7,14.4,33.4
			c3.7-11.9,7.1-23.9,10.2-36c-2.1,1.3-5.2,0.8-6.8-1c9.8-1.7,19.6-3,29.5-4c1.1,0.8-0.7,2.3-2,2.4c-4.2,0.6-8.4,1.2-12.6,1.7
			c0,5.3,0.2,10.6,0.9,15.8c4.2,0.4,8.4-1,11.6-3.7c1.4,2.3,1.6,5.3,0.5,7.7c-1.3-0.6-2.1-2.1-2-3.5c-3.3,0.8-6.5,1.5-9.8,2.3
			C408.7,194.2,409.3,199.5,410.2,204.9"/>
		<path fill="#010101" d="M301.6,173.1c0.2-0.6,0.5-1.2,1-1.5c1.1-0.5,2.2,0.8,2.7,1.9c6.1,12.6,12.3,25.3,18.5,37.9
			c2.3-27.9,4.5-55.9,6.8-83.8c-2.9,0.9-6.1,0.6-8.8-0.7c5.7-2.2,11.9-3,18-2.1c0.3,0,0.7,0.1,0.9,0.3c0.7,0.8-0.7,1.8-1.8,1.9
			c-2.1,0.2-4.2,0.4-6.3,0.6c-2,28.3-4,56.7-6,85.1c-0.1,1.4-0.7,3.2-2.1,3c-0.8-0.1-1.2-0.9-1.6-1.6c-6.9-12.9-13.3-26.2-19.1-39.6
			c-4.4,15.4-9.8,30.5-16.2,45.2c-10.6-27.6-20.4-55.5-29-83.8c-0.6-1.9-2.6-3.1-4.6-3.4c-2-0.3-4,0.2-6,0.7
			c-0.9,0.2-1.4-1.2-0.8-1.9c0.6-0.7,1.6-0.8,2.5-0.9c4.7-0.3,9.4-0.5,14-0.8c0.9,0,1.9-0.1,2.6,0.4c0.8,0.5,1.1,1.7,0.3,2.3
			c-2.1-0.5-4.3-0.5-6.4,0.1c8.7,27.6,17.9,55.1,27.7,82.4C292.4,200.9,297,187,301.6,173.1"/>
		<path fill="#010101" d="M109.9,240.6c-9.8-18.6-19-37.6-27.3-56.9c0.5,7.4-0.2,14.8-2.3,22c-0.7,2.5-1.6,5-3.4,6.9
			c-1.8,1.9-4.5,3.1-7,2.3c4.2-1.7,7.2-5.8,8.6-10.2c1.4-4.4,1.5-9,1.6-13.6c0.1-4.5,0.2-9.1,0.3-13.6c1.9,1.9,3.4,4.1,4.7,6.4
			c-1.2-4.8-0.4-10.5,3.5-13.5c3.9-3,11-1.3,11.7,3.6c-0.2-2.7-0.4-5.5,0.4-8.2c0.7-2.6,2.6-5.1,5.2-5.8c4.3-1.1,8.2,2.7,10.6,6.4
			c8.5,13.3,10.3,30.4,20.8,42.2c2.2,2.5,5.2,4.8,8.5,4.4c3.3-0.5,5.5-5.3,2.8-7.3c-3.6-2.5-6.1-6.5-7-10.8c-0.5-2.7-0.1-6,2.3-7.2
			c3.3-1.7,6.9,1.9,8.2,5.4c1.5,3.7,2.1,7.7,1.8,11.6c-0.1,1.4,1.6,2.5,3,2.2c1.4-0.3,2.5-1.4,3.3-2.6c3.2-4.7,3.5-11,1.9-16.5
			c-1.6-5.5-5-10.3-9-14.5c1.9,0,3.9-0.1,5.8-0.2c2.8,0,5.9,0,8,1.7c1.9,1.5,2.7,4,3.5,6.2c0.8,2.3,1.9,4.7,4.1,5.8
			c2.2,1.1,5.5-0.2,5.4-2.7c-0.3-6.9-3.2-13.7-8-18.8c4,0.9,8.1,1.3,12.2,1c5.2-0.3,5.9,9.1,11.1,9.9c2.7,0.4,5.1-2,5.7-4.7
			c0.6-2.6-0.1-5.4-0.9-8c-1-3.4-1.9-6.8-2.9-10.1c4.6,1.7,4.2,10,9,10.9c2,0.4,4-0.9,5-2.7c1-1.7,1.3-3.8,1.3-5.8
			c0.2-5.2-0.6-10.5-2.4-15.4c0.1-1.1,1.7-0.1,2.1,0.9c2.4,7,4.9,14,7.3,20.9c4.6-15.2,9.4-30.8,19.3-43.2c0.6-0.7,1.3-1.6,2.3-1.7
			c0.9-0.1,2,0.9,1.6,1.7c-7.3,13.6-13.3,27.9-17.9,42.6c-0.9,2.7-1.6,5.9-0.1,8.3c3.4,5.5,6.4,11.4,7.4,17.8
			c1,6.4-0.2,13.3-4.4,18.3c-0.5,0.5-1,1.1-1.7,1.3c-1.6,0.5-3.1-0.8-4.1-2.1c-5.2-7-5.4-16.5-4.3-25.1c1-8.3,2.7-17.9-3-24.1
			c-0.7,1.4-0.4,3.1-0.7,4.7c-0.8,4.8-7.3,7.5-11.2,4.6c1.4,3.8,1,8.6-2,11.4c-3,2.8-8.7,2.3-10.4-1.4c-2.2-4.8-8-7.7-13.2-6.6
			c2.7,4.7,5.5,9.9,5,15.3c-0.1,1.4-0.5,2.8-1.4,3.9c-2.3,2.7-6.9,1.8-9.4-0.8s-3.5-6.1-4.9-9.4c-0.2-0.6-0.6-1.3-1.2-1.6
			c-0.6-0.4-1.3-0.4-2-0.4c-1.9,0-3.7,0.1-5.6,0.2c6,5.9,8.8,14.8,7.2,23.1c-1,5.2-4.9,10.8-10.2,10.1c-2.4-0.3-3.5,2.8-5.2,4.4
			c-3.3,3.3-9.1,0.9-12.5-2.3c-12.4-11.9-13.3-31.7-23.6-45.5c-1.5-2.1-3.7-4.2-6.3-3.8c-2.3,0.3-3.8,2.6-4.4,4.8
			c-2.6,10.1,8.6,19.2,7.5,29.5c-2.9-5.9-5.8-11.7-8.7-17.6c-1.1-2.3-2.3-4.6-4.2-6.2c-2-1.6-4.9-2.3-7-0.9c-1.4,0.9-2.1,2.5-2.6,4
			c-2.7,8.7,1.4,17.9,5.5,26c5.4,10.9,10.8,21.8,16.3,32.7c1.4,2.8,2.8,5.7,3.4,8.8C111.4,243.3,110.5,241.9,109.9,240.6 M226.2,201
			c1.9-0.8,2.6-3.2,2.9-5.2c0.5-2.6,0.8-5.4,0.3-8c-0.3-1.6-0.9-3-1.4-4.4c-1.8-4.5-3.8-9-5.9-13.4c-2.1,7.5-2.9,15.4-2.6,23.2
			c0.1,2,0.3,4.1,1.4,5.9C222.1,200.7,224.4,201.8,226.2,201 M144.5,190.1c-0.9,0.7-0.9,2-0.8,3.2c0.6,5,3.6,9.8,8,12.4
			c1.1-4.1-0.2-8.3-1.9-12.2c-0.5-1.1-1-2.3-1.9-3.1C147,189.5,145.4,189.2,144.5,190.1 M225.3,203.8c-0.2-0.8-1.4-0.7-2.1-0.5
			c0.2,0.4,0.5,0.8,0.9,1C224.6,204.5,225.2,204.2,225.3,203.8"/>
	</g>
</g>
</svg>
